<svg xmlns="http://www.w3.org/2000/svg" width="407.6" height="407.6" viewBox="0 0 407.6 407.6"><path d="M203.8 303.3c11.3 0 105.5-117 105.5-175.2 0-58.2-47.2-105.5-105.5-105.5-58.2 0-105.5 47.2-105.5 105.5.1 58.2 94.6 175.2 105.5 175.2zm-68.1-178.9c0-37.6 30.5-68.1 68.1-68.1 37.6 0 68.1 30.5 68.1 68.1s-30.5 68.1-68.1 68.1c-37.6 0-68.1-30.5-68.1-68.1z"/><path d="M391.1 222.7c0-9.7-7.9-17.6-17.6-17.6h-64.2c-1.3 0-2.9-.1-4.6 2.8-3.4 5.7-3.1 5.2-6.3 10.5-1.5 2.4.8 3.3 1.7 3.3h73.4c.6 0 1.1.5 1.1 1.1l16.5 144.7c0 .6-.5 1.1-1.1 1.1H17.6c-.6 0-1.1-.5-1.1-1.1L33 222.7c0-.6.5-1.1 1.1-1.1h72.8c1.5 0 3.9-.9 1.2-5.3-3.2-5.2-1.9-3.6-5.3-9.4-1.2-2.1-3-1.9-5.3-1.9H34.1c-9.7 0-17.6 7.9-17.6 17.6L0 367.4c0 9.7 7.9 17.6 17.6 17.6H390c9.7 0 17.6-7.9 17.6-17.6l-16.5-144.7z"/></svg>