<svg xmlns="http://www.w3.org/2000/svg" width="555.5" height="560" viewBox="0 0 555.5 560"><path d="M451.6 438.8L394 381.2c-22.7-22.7-59.5-22.7-82.2 0l-17.9 17.9c-.4.4-.8.9-1.2 1.3L159.6 267.3c.4-.4.9-.8 1.3-1.2l17.9-17.9c22.7-22.7 22.7-59.5 0-82.2l-57.6-57.6c-22.7-22.7-59.5-22.7-82.2 0l-17.9 17.9C-27.3 174.6 5.8 289.8 138 422c132.2 132.2 247.4 165.2 295.8 116.9l17.9-17.9c22.6-22.7 22.6-59.5-.1-82.2zM485.4 420.5c-5.9 0-11.9-1.7-17.2-5.3-14.1-9.5-17.8-28.6-8.3-42.6 22.3-33 34-71.5 34-111.5C494 151 404.5 61.4 294.4 61.4c-38.7 0-76.2 11.1-108.5 32.1-14.2 9.2-33.2 5.2-42.5-9-9.2-14.2-5.2-33.2 9-42.5 42.3-27.5 91.4-42 142-42 143.9 0 261.1 117.1 261.1 261.1 0 52.3-15.4 102.7-44.5 145.9-6 8.7-15.7 13.5-25.6 13.5z"/><path d="M330.8 275.1h-55.7l32.5-36.2c17.1-17.8 26.9-36.8 26.9-52 0-26.6-20.6-44.5-51.2-44.5-17.3 0-35.4 7.7-48.4 20.7-2.6 2.6-4.1 6.1-4.1 9.8 0 3.7 1.5 7.2 4 9.8l1.1 1.1c5.4 5.4 14.1 5.4 19.5 0 7.4-7.4 18.3-12.1 27.8-12.1 10 0 21.9 2.7 21.9 15.3 0 5.9-5.9 18.5-18.8 31.9l-.3.3-52.5 58.3c-2.3 2.5-3.5 5.8-3.5 9.2v3.9c0 7.6 6.2 13.8 13.8 13.8h86.8c7.6 0 13.8-6.2 13.8-13.8V289c.3-7.8-5.9-13.9-13.6-13.9z"/><path d="M430.2 234.4h-8.1v-29.8c0-7.6-6.2-13.8-13.8-13.8h-1.6c-7.6 0-13.8 6.2-13.8 13.8v29.8h-27.6l41.1-71.4c2.5-4.3 2.5-9.5 0-13.8-2.5-4.3-7-6.9-12-6.9h-1.8c-4.9 0-9.5 2.6-12 6.9l-51.9 90.3c-1.2 2.1-1.8 4.5-1.8 6.9v3.4c0 7.6 6.2 13.8 13.8 13.8H393v26.8c0 7.6 6.2 13.8 13.8 13.8h1.6c7.6 0 13.8-6.2 13.8-13.8v-26.8h8.1c7.6 0 13.8-6.2 13.8-13.8v-1.6c-.1-7.6-6.3-13.8-13.9-13.8z"/></svg>