<svg xmlns="http://www.w3.org/2000/svg" width="560" height="497.3" viewBox="0.6 0 560 497.3"><path d="M81.3 250.5h49.5V300H81.3zM81.3 328.9h49.5v49.5H81.3zM164.3 172.2h49.5v49.5h-49.5zM164.3 250.5h49.5V300h-49.5zM164.3 328.9h49.5v49.5h-49.5z"/><path d="M461.6 179.3V34.8c0-19.2-15.7-34.8-34.8-34.8H35.5C16.3 0 .6 15.7.6 34.8V426c0 19.2 15.7 34.8 34.8 34.8h255.4c28.4 22.7 64.4 36.4 103.6 36.4 91.8 0 166.2-74.4 166.2-166.1 0-67.8-40.7-126-99-151.8zm-310-145.1h158.8v41.1H151.6V34.2zM43.4 114.5h375.3V167c-7.9-1.2-16-2-24.3-2-36.6 0-70.2 12-97.7 32v-24.9h-49.5v49.5h22.5c-25.7 29.2-41.4 67.5-41.4 109.5 0 30 8.1 58 21.9 82.3H43.4V114.5zm335.8 81.3c0-8.4 6.9-15.2 15.2-15.2 8.5 0 15.2 6.8 15.3 15.2 0 8.4-6.8 15.2-15.3 15.2-8.3.1-15.2-6.7-15.2-15.2zM274.4 331.2c0 8.4-6.8 15.3-15.3 15.3-8.4 0-15.2-6.8-15.2-15.3s6.8-15.2 15.2-15.2c8.4 0 15.2 6.7 15.3 15.2zm120 150.6c-8.4 0-15.2-6.8-15.2-15.2 0-8.5 6.9-15.3 15.2-15.3 8.5 0 15.2 6.8 15.3 15.3 0 8.4-6.8 15.2-15.3 15.2zm92.3-219.3l-63.8 63.7c.4 2 1.2 3.8 1.2 5.9 0 16.5-13.4 29.9-29.9 29.9-15.9 0-28.7-12.6-29.6-28.4L296.9 281c-5.9-4.6-7.2-12.7-3-18.1 4.2-5.5 12.5-6.1 18.3-1.6l62 48.2c5.4-5 12.4-8.2 20.3-8.2 5.2 0 9.9 1.7 14.1 4l60.4-60.5c5.6-5.6 14.2-6.2 19-1.3 4.8 4.9 4.2 13.4-1.3 19zm43.1 83.9c-8.4 0-15.2-6.8-15.2-15.3s6.8-15.2 15.2-15.2c8.4 0 15.3 6.8 15.3 15.2s-6.9 15.3-15.3 15.3z"/></svg>