<svg xmlns="http://www.w3.org/2000/svg" width="113.7" height="45.1" viewBox="0 0 113.7 45.1"><g fill="#74D5BE"><path d="M5.4 28.8L0 7.3l4.8-1.2c2.2-.5 4.3.4 5 3.5l.7 2.7c.4 1.5.1 2.8-1.2 3.8 1.9.2 2.8 1.3 3.2 2.9l.8 3.1c.8 3.1-.6 4.9-2.8 5.5l-5.1 1.2zm1.7-18.1c-.4-1.6-1-2-2.1-1.7l-1.4.3 1.6 6.4 1.4-.4c1.1-.3 1.4-1 1-2.5l-.5-2.1zm2.6 9.1c-.4-1.6-1.3-1.9-2.4-1.7l-1.4.4 1.7 6.9 1.7-.4c1.1-.3 1.4-1 1-2.5l-.6-2.7zM15.1 8.1c-.6-3.2 1.2-4.9 3.9-5.4s4.6.6 5.1 3.8L26.4 20c.6 3.3-1.3 4.9-3.7 5.3-2.5.4-4.8-.6-5.3-3.8L15.1 8.1zm6.1-.7c-.3-1.6-1.2-2-2-1.9S17.8 6.4 18 8l2.2 12.7c.3 1.6 1.2 2 2 1.9s1.5-.8 1.2-2.4L21.2 7.4zM34.9 1l2.9-.3 1.8 17.9c.3 3.3-1.6 4.8-4.1 5.1-2.5.3-4.7-.9-5.1-4.1l-1.7-18 2.9-.3 1.8 17.5c.2 1.6 1 2.1 1.8 2 .8-.1 1.6-.7 1.4-2.4L34.9 1zM43.8 22.6L42.8.4l3-.1.9 19.4 3.5-.2.1 2.8-6.5.3zM52.8 22.2L53 0l8 .1v2.8h-5l-.1 6.8h4.8v2.8h-4.8l-.1 7h5v2.8l-8-.1zM70.2 22.7l-4.3-.2L64.5.1l3 .2.9 18.5 3-18.3 3 .2-4.2 22zM81.7 23.8v-5l-3.3-.4-1.1 4.8-3-.2 5.5-21.7 4.3.5.4 22.4-2.8-.4zm-.1-18.9L79 15.7l2.6.3V4.9zM94.1 25.8l-.9-9.4-1.1-.2-1.6 9-2.9-.5 4-21.8 4.8.9c2.2.4 3.8 2 3.2 5.3l-.6 3.5c-.4 2.2-1.2 3.4-2.9 3.8l.9 9.9-2.9-.5zm2.5-17c.3-1.6-.1-2.3-1.2-2.5L93.9 6l-1.3 7.3 1.5.3c1.1.2 1.7-.3 2-1.9l.5-2.9zM100.2 27.1l5.7-21.5 4.8 1.3c2.2.6 3.6 2.3 2.7 5.5l-3.3 12.5c-.9 3.2-2.9 4-5.1 3.5l-4.8-1.3zM110.5 12c.4-1.6.1-2.3-1-2.5l-1.5-.4-4.2 16 1.4.4c1.1.3 1.7-.1 2.1-1.7l3.2-11.8z"/></g><g fill="#FFF"><path d="M36.1 32.7h.2c.1 0 .1 0 .2-.1s.2-.1.2-.1.1 0 .3.1c.1.1.2.1.2.2s-.3.5-.9 1.3-1.2 1.5-1.9 2.3c-.7.8-1.3 1.6-1.9 2.4-.6.8-.9 1.4-.9 1.7 0 .5 0 1 .1 1.2v.1c0 .1-.1.1-.2.1h-.3c-.1 0-.2-.1-.3-.1-.2-.1-.3-.5-.4-1 0-.3 0-.5.1-.7 0-.2.2-.5.3-.8.2-.3.4-.6.5-.9.2-.3.5-.6.9-1.2.6-.7 1.2-1.4 1.9-2.2s1.1-1.2 1.2-1.3l.1-.1s-.2.2-.7.6c-.5.4-1.2 1.1-2.3 2.2-1.1 1-1.8 1.7-2.1 2-1 1.2-1.7 2-1.9 2.3 0 .1-.1.2-.2.2s-.2-.1-.3-.2c-.1-.2-.2-.5-.2-.9.2-.6.5-1.3.9-2.2.5-.9 1-1.8 1.5-2.6l.6-.7c.1-.1.1-.1.1-.2 0 0-.3.3-.9 1-.6.7-1 1-1.1 1.2l-2.6 2.8c-1 1.1-1.7 1.8-2.2 2-.8.3-1.2.4-1.4.4h-.1s0-.1.1-.2l2.2-2.2c.1 0 .6-.5 1.6-1.5s2-2 3.2-3c1.1-1 1.9-1.7 2.4-1.9.3-.1.5-.1.7-.1s.2 0 .2.1 0 .1-.1.2c-1.2 1.7-1.9 2.8-2.1 3.3l-.8 1.1v.1s0 .1 0 0c.6-.5 1.5-1.2 2.5-2.2 1-.9 1.8-1.6 2.4-2s.9-.5 1.2-.5z"/><path d="M34.3 40.7c-.6 0-.9-.4-.9-1.1 0-.5.2-1 .6-1.5s.9-1 1.5-1.3c.6-.3 1.1-.5 1.5-.5.2 0 .4.1.5.2s.2.3.2.4c0 .3-.2.6-.6.9s-.8.6-1.2.8-.7.3-.8.3-.2-.1-.3-.2h-.1c-.1 0-.1.1-.3.3s-.2.4-.2.5c0 .1 0 .2.1.2.6 0 1.3-.2 2-.5.7-.4 1.7-1 3-1.9.1-.1.2-.2.4-.3.2-.1.3-.2.3-.2.1.1.1.1.1.2s0 .2-.1.2c-.4.4-.9.8-1.6 1.3-.6.5-1.4 1-2.2 1.4-.7.5-1.3.8-1.9.8zm2.6-3.9c-.2 0-.6.2-1.1.6-.5.4-.7.7-.7.8.2 0 .5-.2 1-.6.6-.3.9-.6.8-.8.1 0 0 0 0 0z"/><path d="M40.6 39.6s0 .1 0 0c.1 0 .4-.1.8-.3 1.1-.6 2.4-1.4 3.8-2.5.1.1.1.1.1.2s0 .2-.1.2l-.3.3c-.1.1-.4.4-.8.7-.4.4-.8.7-1.2 1-.9.8-1.6 1.2-2.1 1.3-.1 0-.3.1-.5.1s-.3-.1-.4-.2-.2-.2-.2-.3 0-.3.1-.6.1-.4.1-.4h-.1l-.4.4s-.4.4-.8.7c-.4.3-.7.4-.9.4h-.2c-.1 0-.1-.1-.2-.2-.2-.1-.3-.2-.3-.4s.2-.5.5-1c.3-.4.7-.8 1.1-1.3.4-.4.9-.8 1.5-1.1.5-.3 1-.5 1.4-.5.1 0 .3.1.4.3 0-.1.3-.4.8-1.1.5-.7 1.2-1.3 1.9-2s1.3-1 1.7-1c.1 0 .2.1.2.2 0 .2-.1.5-.4.8-.3.3-.6.7-.9 1-.3.3-.7.7-1.2 1.1-1.1 1-2 1.9-2.6 2.6-.5.8-.8 1.3-.8 1.6zm-2.1-.2c.1 0 .4-.2.9-.6.5-.4 1-.8 1.4-1.2l.7-.6v-.1c-.3 0-.7.2-1.2.5s-.9.7-1.3 1.1c-.4.5-.5.8-.5.9z"/><path d="M44.2 39.2c-.1.1-.1.2-.1.3s0 .1.1.1.2 0 .3-.1c1.5-.8 3-1.7 4.4-2.8.1.1.1.1.1.2s0 .2-.1.2l-.3.3c-.1.1-.4.4-.8.7-.4.4-.8.7-1.2 1-.9.8-1.6 1.2-2.1 1.3-.1 0-.3.1-.5.1-.6 0-.9-.3-.9-1 0-.3.1-.6.4-1.1.3-.5.6-.9.9-1.3s.5-.6.6-.6c.1-.1.3-.1.5-.1s.3 0 .5.1l.1.1s0 .1-.1.2-.2.2-.3.4c-.2.2-.4.5-.7.9-.5.5-.7.9-.8 1.1zm2.9-4.7h.2c.1.1.2.2.2.3 0 .1 0 .2-.1.2 0 .1-.1.1-.2.2s-.2.2-.4.3-.4.2-.6.2c-.1 0-.2-.1-.2-.3 0-.2.1-.5.4-.7.3-.1.5-.2.7-.2z"/><path d="M51.5 36.7c0 .3-.2.6-.5.9-.3.3-.8.4-1.3.4-.2 0-.3-.1-.3-.2 0 0 0-.1.1-.1.5-.3.8-.5.9-.7v-.1s0-.1-.1-.1c-.7.1-1.3.5-1.9 1.1s-.9 1.2-.9 1.5c0 .2.1.3.2.3.6 0 1.2-.2 1.9-.5s1.6-1 2.9-1.9c.1-.1.2-.2.4-.3.2-.1.3-.2.3-.2.1.1.1.1.1.2s0 .2-.1.2c-.4.4-.9.8-1.6 1.3-.6.5-1.4 1-2.2 1.4-.8.4-1.5.7-2 .7-.6 0-.9-.3-.9-1 0-.5.2-.9.5-1.3s.7-.8 1.1-1.1c.4-.3.9-.5 1.4-.7.5-.2.9-.3 1.2-.3s.5 0 .6.1l.2.2v.2z"/><path d="M53.1 39.9l.1-.8h-.1l-.4.4s-.4.4-.8.7c-.4.3-.7.4-.9.4h-.2c-.1 0-.1-.1-.2-.2s-.1-.3-.1-.5.2-.5.5-1c.3-.4.7-.8 1.1-1.3.4-.4.9-.8 1.5-1.1.5-.3 1-.5 1.4-.5.2 0 .3.1.4.3.1-.1.2-.1.2-.1.1 0 .1 0 .2.1 0 0 .1 0 .1.1s.1.1.1.2-.1.2-.2.3c-.2.2-.4.4-.6.7-.2.3-.4.5-.5.6s-.2.2-.3.4c-.2.2-.3.4-.3.6.8-.4 2.1-1.2 3.9-2.5.1.1.1.1.1.2s0 .1-.1.2l-.2.2s-.3.2-.5.5c-.3.2-.5.5-.8.7s-.5.4-.9.7-.6.5-.9.7c-.6.4-1 .7-1.2.7-.2 0-.3 0-.3-.1-.1-.1-.1-.3-.1-.6zm-1.2-.5c.1 0 .4-.2.9-.6.5-.4 1-.8 1.4-1.2l.7-.6v-.1c-.3 0-.7.2-1.2.5s-.9.7-1.3 1.1c-.4.5-.5.8-.5.9z"/><path d="M57.3 39.7c.3 0 .8-.2 1.6-.7s1.5-.9 2.1-1.4l1-.7v.1s0 .2-.1.2l-.3.3c-.1.1-.4.4-.8.7-.4.4-.8.7-1.2 1-.9.8-1.6 1.2-2.1 1.3-.1 0-.3.1-.4.1h-.4c-.1 0-.2-.1-.3-.2-.2-.2-.3-.6-.3-1.2 0-.2.1-.4.2-.8s.4-.8.7-1.2.7-1 1.2-1.5 1-1 1.7-1.5 1.4-.9 2.2-1.2c.1 0 .2-.1.3-.1s.2 0 .3.1.1.2.2.3l.1.1c0 .2-.3.6-.9 1.2-.6.6-1.3 1.3-2 1.9-.8.6-1.5 1.1-2.1 1.5-.5.4-.8.7-.8 1.1-.1.4-.1.6.1.6zm1-2.5c.2 0 .8-.5 1.8-1.5s1.5-1.5 1.5-1.6l-.2.1c-.4.3-1 .7-1.7 1.4s-1.2 1.2-1.4 1.5v.1zM69.4 32.8c.6-.4 1.1-.6 1.5-.6.4 0 .6.1.7.4v.2c0 .3-.2.8-.5 1.4-.3.6-.8 1.3-1.4 2.1-.6.8-1.2 1.5-1.8 2.2-.7.7-1.3 1.3-2.1 1.7-.7.5-1.3.7-1.9.7-.4 0-.7-.2-1-.5-.3-.3-.5-.7-.5-1.2s.1-1 .4-1.5c.3-.6.6-1.1 1.1-1.7.5-.6.9-1.1 1.5-1.6.5-.5 1.1-.9 1.8-1.2.6-.3 1.3-.5 1.8-.5.1.1.2.1.4.1zm-5.8 7.4c.4 0 1.2-.5 2.4-1.6 1.2-1 2.3-2.1 3.3-3.3 1-1.1 1.5-1.8 1.5-2.1-.3 0-.7.2-1.1.5-.5.3-1 .7-1.4 1.1-.4.4-.8.8-1.2 1.1l-.6.6c0 .1-.1.1-.1.1V36.3c.1-.3.4-.8.8-1.4l.2-.3c.1-.1.1-.2.1-.2-.1 0-.2.1-.3.2-.6.5-1.1 1.1-1.6 1.7-.5.6-.8 1-1.1 1.4l-.6 1.2c-.2.6-.4.9-.4 1.1 0 .1 0 .2.1.2zM69.1 40.6s0 .1.1.1c.1.2.2.4.2.8s-.2.8-.6 1.4c-.4.6-.8 1.1-1.3 1.5s-.9.6-1.2.6c-.4 0-.7-.4-.8-1.1 0-1 .7-2.3 2.2-3.9l6.5-7.4c0-.2.2-.2.4-.2.3 0 .5 0 .6.1.1.1.1.2.1.3 0 .1-.1.2-.3.4l-5.9 6.4h.2c1.5-.8 2.9-1.7 4.4-2.8.1.1.1.1.1.2s0 .2-.1.2l-.3.3c-.1.1-.4.4-.8.7-.4.3-.8.7-1.1.9s-.8.6-1.2.8c-.5.4-.9.6-1.2.7zM66.3 44c.2 0 .5-.2.9-.6.4-.4.8-.9 1.1-1.4s.5-.9.5-1.2c0-.3-.1-.4-.3-.4-.1 0-.2 0-.3.1-.2.5-.6.9-1 1.5-.4.5-.6 1-.8 1.4-.1.3-.2.5-.1.6-.1 0-.1 0 0 0z"/><path d="M72.3 40.6s0 .1.1.1c.1.2.2.4.2.8s-.2.8-.6 1.4c-.4.6-.8 1.1-1.3 1.5s-.9.6-1.2.6c-.4 0-.7-.4-.8-1.1 0-1 .7-2.3 2.2-3.9l6.5-7.4c0-.2.2-.2.4-.2.3 0 .5 0 .6.1.1.1.1.2.1.3 0 .1-.1.2-.3.4l-5.9 6.4h.2c1.5-.8 2.9-1.7 4.4-2.8.1.1.1.1.1.2s0 .2-.1.2l-.3.3c-.1.1-.4.4-.8.7-.4.3-.8.7-1.1.9-.4.3-.8.6-1.2.8-.5.4-.8.6-1.2.7zM69.5 44c.2 0 .5-.2.9-.6.4-.4.8-.9 1.1-1.4s.5-.9.5-1.2c0-.3-.1-.4-.3-.4-.1 0-.2 0-.3.1-.4.4-.8.8-1.1 1.4-.4.5-.6 1-.8 1.4 0 .4-.1.6 0 .7-.1 0 0 0 0 0z"/><path d="M76 39.2c-.1.1-.1.2-.1.3s0 .1.1.1.2 0 .3-.1c1.5-.8 3-1.7 4.4-2.8.1.1.1.1.1.2s0 .2-.1.2l-.3.3c-.1.1-.4.4-.8.7-.4.4-.8.7-1.2 1-.9.8-1.6 1.2-2.1 1.3-.1 0-.3.1-.5.1-.6 0-.9-.3-.9-1 0-.3.1-.6.4-1.1.3-.5.6-.9.9-1.3s.5-.6.6-.6c.1-.1.3-.1.5-.1s.3 0 .5.1l.1.1s0 .1-.1.2-.2.2-.3.4c-.2.2-.4.5-.7.9s-.7.9-.8 1.1zm2.9-4.7h.2c.1.1.2.2.2.3 0 .1 0 .2-.1.2 0 .1-.1.1-.2.2s-.2.2-.4.3c-.2.1-.4.2-.6.2-.1 0-.2-.1-.2-.3 0-.2.1-.5.4-.7.2-.1.5-.2.7-.2z"/><path d="M83.3 36.7c0 .3-.2.6-.5.9-.4.3-.8.4-1.3.4-.2 0-.3-.1-.3-.2 0 0 0-.1.1-.1.5-.3.8-.5.9-.7v-.1s0-.1-.1-.1c-.7.1-1.3.5-1.9 1.1-.6.6-.9 1.2-.9 1.5 0 .2.1.3.2.3.6 0 1.2-.2 1.9-.5s1.6-1 2.9-1.9c.1-.1.2-.2.4-.3.2-.1.3-.2.3-.2.1.1.1.1.1.2s0 .2-.1.2c-.4.4-.9.8-1.6 1.3-.6.5-1.4 1-2.2 1.4-.8.4-1.5.7-2 .7-.6 0-.9-.3-.9-1 0-.5.2-.9.5-1.3s.7-.8 1.1-1.1c.4-.3.9-.5 1.4-.7.5-.2.9-.3 1.2-.3.3 0 .5 0 .6.1l.2.2v.2z"/><path d="M84 40.7c-.6 0-.9-.4-.9-1.1 0-.5.2-1 .6-1.5s.9-1 1.5-1.3c.6-.3 1.1-.5 1.5-.5.2 0 .4.1.5.2s.2.3.2.4c0 .3-.2.6-.6.9s-.8.6-1.2.8-.7.3-.8.3-.2-.1-.3-.2h-.1c-.1 0-.1.1-.3.3s-.1.4-.1.5c0 .1 0 .2.1.2.6 0 1.3-.2 2-.5.7-.4 1.7-1 3-1.9.1-.1.2-.2.4-.3.2-.1.3-.2.3-.2.1.1.1.1.1.2s0 .2-.1.2c-.4.4-.9.8-1.6 1.3-.6.5-1.4 1-2.2 1.4-.8.5-1.5.8-2 .8zm2.5-3.9c-.2 0-.6.2-1.1.6-.5.4-.7.7-.7.8.2 0 .5-.2 1-.6.7-.3.9-.6.8-.8.1 0 .1 0 0 0z"/></g></svg>