<svg xmlns="http://www.w3.org/2000/svg" width="485.2" height="485.2" viewBox="0 0 485.2 485.2"><path d="M242.6 0C108.6 0 0 108.6 0 242.6s108.6 242.6 242.6 242.6 242.6-108.6 242.6-242.6S376.6 0 242.6 0zm15.2 454.1v-29.6h-30.3v29.6c-104.9-7.5-188.9-91.4-196.3-196.3h29.6v-30.3H31.1c7.5-104.9 91.4-188.9 196.3-196.3v29.6h30.3V31.1c104.9 7.5 188.9 91.4 196.3 196.3h-29.6v30.3H454c-7.3 105-91.3 189-196.2 196.4zm96.4-275.9c2.1 3.6.8 8.3-2.8 10.4l-80.1 46.2c.7 2.6 1.6 5.1 1.6 7.8 0 16.8-13.6 30.3-30.3 30.3-16.8 0-30.3-13.6-30.3-30.3L130 195.1c-7.3-4.2-9.7-13.5-5.6-20.7 4.2-7.3 13.5-9.8 20.7-5.6l82.8 47.8c4.4-2.5 9.2-4.3 14.7-4.3 8.5 0 16.1 3.5 21.6 9.1l79.6-46c3.6-2.1 8.3-.9 10.4 2.8z"/></svg>