<?xml version="1.0" encoding="utf-8"?>
<!-- Generator: Adobe Illustrator 17.1.0, SVG Export Plug-In . SVG Version: 6.00 Build 0)  -->
<!DOCTYPE svg PUBLIC "-//W3C//DTD SVG 1.1//EN" "http://www.w3.org/Graphics/SVG/1.1/DTD/svg11.dtd">
<svg version="1.1" id="Capa_1" xmlns="http://www.w3.org/2000/svg" xmlns:xlink="http://www.w3.org/1999/xlink" x="0px" y="0px"
	 width="24px" height="24px" viewBox="0 0 24 24" enable-background="new 0 0 24 24" xml:space="preserve">
<g>
	<path d="M22.1,0.5H1.9C0.9,0.5,0,1.4,0,2.4v15.1c0,1,0.9,1.9,1.9,1.9h6.7l-0.9,2.8H6.9c-0.3,0-0.6,0.3-0.6,0.6
		c0,0.3,0.3,0.6,0.6,0.6h10.1c0.3,0,0.6-0.3,0.6-0.6c0-0.3-0.3-0.6-0.6-0.6h-0.8l-0.9-2.8h6.7c1,0,1.9-0.9,1.9-1.9V2.4
		C24,1.4,23.1,0.5,22.1,0.5z M1.9,1.7h20.2c0.4,0,0.7,0.3,0.7,0.7v11.8H1.2V2.4C1.2,2,1.5,1.7,1.9,1.7z M15,22.3H9l0.9-2.8h4.2
		L15,22.3z M22.1,18.3H1.9c-0.4,0-0.7-0.3-0.7-0.7v-2.2h21.6v2.2C22.8,17.9,22.5,18.3,22.1,18.3z"/>
	<path d="M12,16.3c-0.2,0-0.3,0.1-0.4,0.2c-0.1,0.1-0.2,0.3-0.2,0.4c0,0.2,0.1,0.3,0.2,0.4c0.1,0.1,0.3,0.2,0.4,0.2
		c0.2,0,0.3-0.1,0.4-0.2c0.1-0.1,0.2-0.3,0.2-0.4c0-0.2-0.1-0.3-0.2-0.4C12.3,16.4,12.2,16.3,12,16.3z"/>
	<path d="M3.1,6.8h17.7c0.3,0,0.6-0.3,0.6-0.6V3.7c0-0.3-0.3-0.6-0.6-0.6H3.1c-0.3,0-0.6,0.3-0.6,0.6v2.5C2.5,6.5,2.8,6.8,3.1,6.8z
		 M3.7,4.3h16.5v1.3H3.7V4.3z"/>
	<path d="M5,13.1c1.4,0,2.5-1.1,2.5-2.5c0-1.4-1.1-2.5-2.5-2.5c-1.4,0-2.5,1.1-2.5,2.5C2.5,12,3.7,13.1,5,13.1z M5,9.3
		c0.7,0,1.3,0.6,1.3,1.3c0,0.7-0.6,1.3-1.3,1.3c-0.7,0-1.3-0.6-1.3-1.3C3.7,9.9,4.3,9.3,5,9.3z"/>
	<path d="M12,8.1c-1.4,0-2.5,1.1-2.5,2.5c0,1.4,1.1,2.5,2.5,2.5s2.5-1.1,2.5-2.5C14.5,9.2,13.4,8.1,12,8.1z M12,11.9
		c-0.7,0-1.3-0.6-1.3-1.3c0-0.7,0.6-1.3,1.3-1.3c0.7,0,1.3,0.6,1.3,1.3C13.3,11.3,12.7,11.9,12,11.9z"/>
	<path d="M19,8.1c-1.4,0-2.5,1.1-2.5,2.5c0,1.4,1.1,2.5,2.5,2.5c1.4,0,2.5-1.1,2.5-2.5C21.5,9.2,20.3,8.1,19,8.1z M19,11.9
		c-0.7,0-1.3-0.6-1.3-1.3c0-0.7,0.6-1.3,1.3-1.3c0.7,0,1.3,0.6,1.3,1.3C20.3,11.3,19.7,11.9,19,11.9z"/>
</g>
</svg>
