<svg xmlns="http://www.w3.org/2000/svg" width="744.9" height="742.8" viewBox="0 0 744.9 742.8"><g fill="#ACACAC"><path d="M257.9 715.4c-.1 0-.2-.1-.2-.1l-19.5-41.4c0-.1 0-.2.1-.3.1-.1.2-.1.3 0l52.6 28.2c.1 0 .1.1.1.2s-.1.2-.2.2l-33.2 13.2c.1 0 0 0 0 0zm-19-41.1l19.1 40.6 32.4-12.9-51.5-27.7z"/><path d="M257.9 715.4s-.1 0 0 0l-81.3-31.1c-.1 0-.2-.1-.2-.3 0-.1.1-.2.2-.2l61.7-10.4c.1 0 .2 0 .3.1l19.5 41.4v.3c-.1.2-.1.2-.2.2zm-80.3-31.2l79.8 30.5-19.2-40.7-60.6 10.2z"/><path d="M176.7 684.4c-.1 0-.2 0-.2-.1-.1-.1-.1-.2 0-.3l27.9-46.7c0-.1.1-.1.2-.1s.2 0 .2.1l33.8 36.3c.1.1.1.2.1.3 0 .1-.1.2-.2.2l-61.8 10.3zm27.9-46.6l-27.4 45.9 60.7-10.2-33.3-35.7z"/><path d="M176.7 684.4c-.1 0-.2-.1-.2-.1L140.2 610v-.3c.1-.1.2-.1.3-.1l64.2 27.5c.1 0 .1.1.1.2v.2l-27.9 46.7c0 .1-.1.2-.2.2zm-35.8-74l35.8 73.2 27.5-46-63.3-27.2zM311.3 731.8s0-.1 0 0l-53.5-16.3c-.1 0-.2-.1-.2-.2s.1-.2.2-.2l33.1-13.2c.1 0 .2 0 .3.1l20.4 29.5c.1.1.1.2 0 .3-.1-.1-.2 0-.3 0zm-52.7-16.6l52.1 15.9-19.8-28.8-32.3 12.9z"/><path d="M409.6 739.2l-98.3-7.4c-.1 0-.1 0-.2-.1l-20.4-29.5c-.1-.1-.1-.2 0-.3.1-.1.2-.1.3-.1l118.6 37c.1 0 .2.2.2.3 0 0-.1.1-.2.1zm-98.1-7.9l95.9 7.3-115.8-36.1 19.9 28.8z"/><path d="M409.6 739.2c-.1 0-.2-.1-.2-.2s0-.2.1-.3l84.5-50.8h.3c.1 0 .1.1.1.2l-2.5 29.8c0 .1-.1.2-.2.2l-82.1 21.1zm84.2-50.6l-82.6 49.7 80.1-20.6 2.5-29.1zM41.7 521.8c-.1 0-.2-.1-.2-.2L3.2 365.9c0-.1 0-.3.2-.3.1 0 .3 0 .3.2l43.5 119.6v.1L42 521.6c-.1.1-.2.2-.3.2zM4.8 370.3l36.8 150 5-34.8L4.8 370.3z"/><path d="M46.9 485.7c-.1 0-.2-.1-.2-.2L3.2 365.9c0-.1 0-.2.1-.3.1-.1.2-.1.3 0L35 392.8s.1.1.1.2l12.1 92.4c0 .1-.1.2-.3.3.1 0 .1 0 0 0zM4 366.6l42.4 116.6-11.8-90.1L4 366.6z"/><path d="M34.8 393.3c-.1 0-.1 0-.2-.1L3.3 366c-.1-.1-.1-.2-.1-.3l25.6-54.6c0-.1.2-.2.3-.1.1 0 .2.1.2.2l5.8 81.8c0 .1 0 .2-.1.2s-.1.1-.2.1zm-31-27.5l30.8 26.7-5.7-80.3-25.1 53.6z"/><path d="M3.5 366.1c-.1 0-.1 0 0 0-.2-.1-.3-.2-.2-.3l26.1-135.9c0-.1.1-.2.3-.2.1 0 .2.1.2.3l-.5 81.3v.1L3.7 365.9c-.1.1-.1.2-.2.2zm25.8-133.5L4.1 363.9l24.7-52.8.5-78.5zM113.6 223.7s-.1 0 0 0c-.1 0-.2-.1-.2-.2l-21-61.8v-.2c.1-.1.1-.1.2-.1l81.9 12.8c.1 0 .2.1.2.2s0 .2-.1.3l-60.9 49h-.1zM93 161.9l20.7 61.1 60.2-48.4L93 161.9z"/><path d="M217.5 315.6c-.1 0-.1 0-.2-.1l-103.9-91.9c-.1 0-.1-.1-.1-.2s0-.1.1-.2l60.9-49c.1-.1.1-.1.2 0 .1 0 .1.1.2.2l43 140.9c0 .1 0 .2-.1.3h-.1zM114 223.5l103 91.1-42.6-139.7-60.4 48.6zM491.5 718.1h-.1c-.1-.1-.1-.1-.1-.2l2.5-29.8c0-.1 0-.1.1-.2.1 0 .1-.1.2 0l35.4 9.9c.1 0 .2.1.2.2s0 .2-.1.2l-37.9 19.9h-.2zm2.8-29.7l-2.5 29 36.9-19.4-34.4-9.6zM176.7 684.4c-.1 0-.1 0-.2-.1l-50.9-41.7c-.1-.1-.1-.2-.1-.3l14.6-32.4c0-.1.1-.1.2-.1s.2.1.2.1l36.3 74.2c.1.1 0 .2-.1.3.1-.1 0 0 0 0zm-50.6-42.1l49.8 40.9-35.5-72.7-14.3 31.8z"/><path d="M125.8 642.6c-.1 0-.2 0-.2-.1L41.5 521.7c-.1-.1-.1-.2 0-.3.1-.1.2-.1.3 0l98.7 88.4c.1.1.1.2.1.3L126 642.5s-.1.1-.2.1zM43.1 523.2l82.6 118.7L140 610l-96.9-86.8z"/><path d="M140.4 610.2c-.1 0-.1 0-.2-.1l-98.7-88.4c-.1-.1-.1-.2 0-.3.1-.1.2-.1.3-.1l54.6 21.5.1.1 44.1 66.9c.1.1 0 .2 0 .3-.1.1-.1.1-.2.1zm-97.5-87.9l96.2 86.2-43-65.2-53.2-21z"/><path d="M96.3 543.3s-.1 0 0 0l-54.7-21.5c-.1 0-.2-.2-.2-.3l5.2-36.1c0-.1.1-.2.2-.2s.2 0 .3.1l49.4 57.6c.1.1.1.2 0 .3 0 0-.1.1-.2.1zM42 521.4l53.5 21L47.1 486 42 521.4z"/><path d="M96.3 543.3c-.1 0-.1 0-.2-.1l-49.4-57.6-.1-.1-12-92.5c0-.1.1-.2.2-.3.1 0 .2 0 .3.1l61.5 150c0 .1 0 .2-.1.3-.1.2-.2.2-.2.2zm-49.1-58l48.3 56.4-60.2-146.8 11.9 90.4z"/><path d="M96.3 543.3c-.1 0-.2-.1-.2-.2l-61.5-150v-.3c.1-.1.2-.1.3-.1L77 407c.1 0 .2.1.2.2L96.5 543c.1.1 0 .2-.2.3zm-61-149.9l60.5 147.7-19.1-133.7-41.4-14zM29.6 230.1c-.1 0-.1 0-.2-.1s-.1-.2-.1-.3L60 182.5s0-.1.1-.1l32.3-21.1c.1-.1.2 0 .3 0 .1.1.1.2 0 .3l-63 68.3c0 .2 0 .2-.1.2zm30.9-47.2l-29.1 44.7L91 163l-30.5 19.9zM227.9 34.2c-.1 0-.2-.1-.2-.2s0-.3.2-.3l72.5-26.5c.1 0 .2 0 .3.1.1.1.1.2.1.3L295.9 23c0 .1-.1.2-.2.2l-67.8 11zM300 7.8l-69.6 25.4 65.1-10.6L300 7.8zM580.6 94.4c-.1 0-.1 0-.2-.1l-57.6-57.2c-.1-.1-.1-.2 0-.3.1-.1.2-.1.3-.1L592 73.3c.1 0 .1.1.1.1v.2l-11.3 20.6c0 .1 0 .2-.2.2.1 0 .1 0 0 0zm-56.2-56.5l56.2 55.8 11-20.1-67.2-35.7z"/><path d="M649.2 178l-103-33.1c-.1 0-.1-.1-.2-.2v-.2L580.4 94c0-.1.1-.1.2-.1s.2 0 .2.1l68.6 83.6c.1.1.1.2 0 .3 0 0-.1.1-.2.1zm-102.5-33.5l101.8 32.7-67.8-82.7-34 50zM737.2 325.7c-.1 0-.2 0-.2-.1l-40.4-63v-.1L682 176.4c0-.1.1-.2.2-.3.1 0 .3 0 .3.2l54.9 149.1c0 .1 0 .3-.1.3h-.1zM697 262.3l39.1 61L683 178.9l14 83.4z"/><path d="M737 325.5l-54.9-149-90.4-102.8.4-.3 90.3 102.8v.1l54.9 149.1-.3.1z"/><path d="M696.8 262.7c-.1 0-.2 0-.2-.1L649 177.9v-.2c0-.1.1-.1.2-.1l33.1-1.4c.2 0 .2.1.3.2l14.5 86.1s-.1.1-.3.2c.1 0 0 0 0 0zM649.6 178l46.7 83.1-14.2-84.4-32.5 1.3z"/><path d="M649.2 178c-.1 0-.1 0-.2-.1l-68.6-83.6c-.1-.1-.1-.2 0-.3.1-.1.2-.1.3 0l101.6 82.2c.1.1.1.2.1.3 0 .1-.1.2-.2.2l-33 1.3zm-66.8-82.1l67 81.6 32.3-1.4-99.3-80.2z"/><path d="M682.3 176.6c-.1 0-.1 0-.2-.1L580.5 94.3c-.1-.1-.1-.2-.1-.3l11.3-20.6c0-.1.1-.1.2-.1s.2 0 .2.1l90.3 102.8c.1.1.1.2 0 .3 0 .1-.1.1-.1.1zM581 94.1l99.2 80.2L592 74l-11 20.1zM695.3 537.9c-.1 0-.2-.1-.2-.1l-10.6-20v-.2l22.1-48.2c.1-.1.2-.2.3-.1.1 0 .2.2.2.3l-11.4 68.2c-.1 0-.2.1-.4.1.1 0 .1 0 0 0zM685 517.7l10.2 19.2 11-65.6-21.2 46.4z"/><path d="M636.2 620.7h-.1c-.1-.1-.2-.2-.1-.3l16.9-48.9s0-.1.1-.1l42.2-33.9c.1-.1.2-.1.3 0 .1.1.1.2 0 .3l-59.1 82.7c0 .1-.1.2-.2.2zm17.1-49L637 618.9l57.1-79.9-40.8 32.7z"/><path d="M653.1 571.8c-.1 0-.1 0-.2-.1s-.1-.2-.1-.3l31.6-53.8c0-.1.1-.1.2-.1s.2.1.2.1l10.6 20c.1.1 0 .2-.1.3l-42.2 33.9c.1 0 .1 0 0 0zm31.6-53.6L654 570.5l41-32.9-10.3-19.4z"/><path d="M653.1 571.8l-93.4-30.6c-.1 0-.2-.1-.2-.3 0-.1.1-.2.2-.2l124.9-23.3c.1 0 .2 0 .2.1.1.1.1.2 0 .3l-31.6 53.8c.1.1 0 .2-.1.2zM560.9 541l92.2 30.2 31.2-53.2-123.4 23z"/><path d="M559.9 541.2c-.1 0-.1 0 0 0l-126.3-43.6c-.1 0-.2-.1-.2-.2s.1-.2.2-.2l99.1-35h.2c.1 0 .1.1.1.1l27.1 78.6c0 .1 0 .2-.1.3h-.1zm-125.5-43.8l125 43.2-26.9-77.8-98.1 34.6z"/><path d="M433.7 497.6h-.1c-.1 0-.1-.1-.1-.2l-8-150.2c0-.1.1-.2.2-.2s.2 0 .3.1l107.1 115.3c.1.1.1.1.1.2s-.1.1-.2.2l-99.3 34.8zm-7.8-149.8l8 149.2 98.4-34.7-106.4-114.5zM494.1 688.4c-.1 0-.1-.1 0 0l-53.4-22.8c-.1 0-.2-.1-.2-.2s.1-.2.2-.2L613.3 620c.1 0 .2 0 .3.1 0 .1 0 .2-.1.3l-119.3 67.9c-.1 0-.1.1-.1.1zm-52.6-23l52.5 22.5L611.5 621l-170 44.4z"/><path d="M636.2 620.7l-22.9-.2c-.1 0-.2-.1-.2-.1v-.3l39.8-48.7c.1-.1.2-.1.3-.1.1.1.2.2.1.3l-16.9 48.9c0 .1-.1.2-.2.2zm-22.3-.7l22.2.2 16.4-47.4-38.6 47.2z"/><path d="M613.4 620.5c-.1 0-.2 0-.2-.1l-53.5-79.2c-.1-.1-.1-.2 0-.3.1-.1.2-.1.3-.1l93.3 30.5c.1 0 .1.1.2.2v.2l-39.8 48.7c-.2 0-.3.1-.3.1zm-52.9-79.1l52.9 78.4 39.3-48.2-92.2-30.2z"/><path d="M440.7 665.6c-.1 0-.2 0-.2-.1-.1-.1-.1-.2 0-.3l29.8-40.8c0-.1.1-.1.2-.1l142.8-4.3c.1 0 .2.1.3.2 0 .1-.1.2-.2.3l-172.7 45.1c.1 0 .1 0 0 0zm30-40.9l-29.3 40.1 169.8-44.3-140.5 4.2z"/><path d="M470.5 624.7c-.1 0-.2-.1-.2-.2s0-.2.1-.3l89.3-83.5c.1 0 .1-.1.2-.1s.1 0 .2.1l53.5 79.2c.1.1.1.2 0 .3 0 .1-.1.1-.2.1l-142.9 4.4zm89.3-83.3l-88.6 82.9 141.7-4.2-53.1-78.7z"/><path d="M470.5 624.7c-.1 0-.1 0-.2-.1l-45.8-45.7c-.1-.1-.1-.2-.1-.2 0-.1.1-.2.2-.2l135.1-37.8c.1 0 .2 0 .3.1.1.1 0 .2 0 .3l-89.3 83.5c-.1.1-.1.1-.2.1zm-45.2-45.8l45.3 45.3 88.4-82.6-133.7 37.3z"/><path d="M424.8 579c-.1 0-.1 0-.2-.1s-.1-.1-.1-.2l8.9-81.4c0-.1.1-.1.1-.2h.2l126.2 43.6c.1 0 .2.1.2.2s-.1.2-.2.2L424.8 579zm9.1-81.3l-8.8 80.7L559 541l-125.1-43.3z"/><path d="M295.6 592.3c-.1 0-.2-.1-.2-.2s0-.2.1-.3l138-94.6c.1-.1.2-.1.3 0 .1 0 .1.1.1.2l-8.9 81.4c0 .1-.1.2-.2.2l-129.2 13.3zm137.7-94.4l-136.8 93.8 128-13.1 8.8-80.7zM204.6 637.7c-.1 0-.1 0 0 0l-64.3-27.5c-.1 0-.1-.1-.2-.2 0-.1 0-.2.1-.2l55.5-37.9c.1 0 .2-.1.2 0 .1 0 .1.1.1.2l8.6 65.4c0 .1 0 .2-.1.2h.1zm-63.7-27.8l63.3 27.1-8.5-64.6-54.8 37.5z"/><path d="M204.6 637.7h-.1c-.1 0-.1-.1-.1-.2l-8.6-65.4c0-.1 0-.2.1-.2.1-.1.1-.1.2-.1l99.7 20c.1 0 .2.1.2.2s0 .2-.1.3l-91.1 45.4h-.2zm-8.4-65.3l8.5 64.7 90.1-44.9-98.6-19.8z"/><path d="M140.4 610.2c-.1 0-.2-.1-.2-.1l-44.1-66.9c-.1-.1-.1-.2 0-.3.1-.1.2-.1.3-.1l99.6 29c.1 0 .2.1.2.2s0 .2-.1.2l-55.5 37.9c-.1.1-.1.1-.2.1zm-43.5-66.7l43.6 66.1 54.9-37.5-98.5-28.6z"/><path d="M295.6 592.3l-99.7-20c-.1 0-.1-.1-.2-.1v-.2l50.8-84.6c0-.1.1-.1.2-.1s.2.1.2.1L295.8 592v.3c0-.1-.1 0-.2 0zm-99.3-20.4l98.8 19.8L246.7 488l-50.4 83.9zM409.6 739.2c-.1 0-.1 0-.2-.1l-30.6-29.5c-.1-.1-.1-.2-.1-.3 0-.1.1-.2.2-.2L494 687.9c.1 0 .2 0 .3.2 0 .1 0 .2-.1.3l-84.5 50.8h-.1zm-30.2-29.6l30.2 29 83.1-50-113.3 21z"/><path d="M409.6 739.2c-.1 0-.1 0 0 0l-118.7-37c-.1 0-.2-.2-.2-.3 0-.1.1-.2.3-.2l88 7.5c.1 0 .1 0 .2.1l30.6 29.5c.1.1.1.2 0 .3-.1.1-.1.1-.2.1zm-116.4-36.8l115.4 36-29.8-28.7-85.6-7.3z"/><path d="M378.9 709.7c-.1 0-.2-.1-.2-.2s0-.2.1-.3l61.8-44.1c.1 0 .2-.1.2 0l53.3 22.8c.1 0 .2.1.2.3 0 .1-.1.2-.2.2l-115.2 21.3c.1 0 0 0 0 0zm61.9-44.1L380 709l113.2-21-52.4-22.4z"/><path d="M378.9 709.7l-88-7.5h-.1L238.2 674c-.1-.1-.2-.2-.1-.3 0-.1.2-.2.3-.2L379 709.2c.1 0 .2.2.2.3-.1.1-.2.2-.3.2zm-87.9-8l84.9 7.2-135.6-34.5 50.7 27.3zM228.3 48.7h-.1c-.1 0-.1-.1-.1-.2l-.5-14.5c0-.1.1-.2.2-.3l67.8-11c.1 0 .2.1.3.2 0 .1 0 .3-.2.3l-67.4 25.5c.1 0 0 0 0 0zm-.2-14.5l.4 13.9 64.7-24.5-65.1 10.6z"/><path d="M184.7 64.2c-.1 0-.2-.1-.2-.1-.1-.1 0-.2.1-.3l43.2-30c.1-.1.2-.1.3 0 .1 0 .1.1.1.2l.4 14.5c0 .1-.1.2-.2.2l-43.7 15.5zm42.9-29.8l-41.2 28.7L228 48.2l-.4-13.8z"/><path d="M228.3 48.7c-.1 0-.2-.1-.2-.2s0-.2.2-.3l67.4-25.5h.1l100.8 17.5c.1 0 .2.1.2.3 0 .1-.1.2-.2.2l-168.3 8zm67.4-25.5l-65.9 24.9 164.4-7.9-98.5-17zM546.3 144.9c-.1 0-.2-.1-.2-.1l-55-98.7c-.1-.1 0-.2 0-.3.1-.1.2-.1.3 0l89.3 48.1c.1 0 .1.1.1.2v.2l-34.3 50.5c0 .1-.1.1-.2.1zm-54.4-98.3l54.4 97.5 33.9-49.9-88.3-47.6z"/><path d="M546.3 144.9h-.1L396.4 40.6c-.1-.1-.1-.2-.1-.3 0-.1.1-.2.3-.2l94.8 5.6c.1 0 .2.1.2.1l55 98.7c.1.1 0 .2-.1.3-.1.1-.1.1-.2.1zM397.4 40.7l148.2 103.1-54.4-97.6-93.8-5.5z"/><path d="M580.6 94.4h-.1l-89.3-48.1c-.1 0-.1-.1-.1-.2s.1-.2.2-.2l31.7-9.1c.1 0 .2 0 .2.1L580.8 94c.1.1.1.2 0 .3 0 0-.1.1-.2.1zM492 46.1l87.3 47L523 37.2l-31 8.9zM532.8 462.7c-.1 0-.1 0-.2-.1s-.1-.2 0-.3L632 294.1c.1-.1.1-.1.2-.1s.2.1.2.2l36.8 128.3c0 .1 0 .3-.2.3l-136.2 39.9zM632 294.9L533.3 462l135.3-39.6L632 294.9z"/><path d="M532.8 462.7c-.1 0-.1 0-.2-.1L425.4 347.3c-.1-.1-.1-.2-.1-.2 0-.1.1-.1.2-.2L632.1 294c.1 0 .2 0 .3.1.1.1.1.2 0 .3L533 462.5c-.1.1-.1.2-.2.2zM426.1 347.3L532.7 462l98.9-167.4-205.5 52.7z"/><path d="M668.9 422.8c-.1 0-.2-.1-.2-.2l-36.8-128.3c0-.1 0-.2.1-.3l64.7-31.8h.3c.1.1.1.2.1.2l-27.9 160.2c-.1.1-.2.2-.3.2zm-36.5-128.4l36.4 127.1 27.6-158.6-64 31.5z"/><path d="M632.1 294.5h-.1c-.1-.1-.1-.1-.1-.2L649 177.7c0-.1.1-.2.2-.2s.2 0 .3.1l47.6 84.7v.2c0 .1-.1.1-.1.1l-64.7 31.8c-.1.1-.1.1-.2.1zm17.3-116l-16.9 115.3 64-31.5-47.1-83.8z"/><path d="M425.6 347.4c-.1 0-.2 0-.2-.1-.1-.1-.1-.2 0-.3l72.4-117.4c.1-.1.2-.2.3-.1L632.2 294c.1 0 .2.1.1.2 0 .1-.1.2-.2.2l-206.5 53c.1 0 0 0 0 0zM498.1 230l-72 116.7 205.2-52.6L498.1 230z"/><path d="M632.1 294.5h-.1L497.9 230c-.1 0-.1-.1-.1-.2v-.2l48.3-85.1c0-.1.1-.1.2-.1s.2 0 .2.1l85.8 149.6c.1.1 0 .2 0 .3 0 .1-.1.1-.2.1zm-133.7-64.9l133.1 64.1-85.2-148.5-47.9 84.4z"/><path d="M632.1 294.5c-.1 0-.2 0-.2-.1l-85.8-149.6c-.1-.1 0-.2 0-.3.1-.1.2-.1.3-.1l102.9 33.1c.1 0 .2.2.2.3l-17.1 116.5c-.1.1-.1.2-.3.2zm-85.2-149.4L632 293.5l17-115.6-102.1-32.8zM695.3 537.9c-.2 0-.3-.2-.2-.3l11.4-68.2v-.1l28-45.9c.1-.1.2-.1.3-.1.1.1.2.2.1.3l-39.5 114.1c.1.2 0 .2-.1.2zm11.7-68.3l-10.9 65.2 37.7-109.1-26.8 43.9zM378.9 709.7h-.1L324 671.6c-.1-.1-.1-.2-.1-.3 0-.1.1-.2.2-.2l116.6-6.1c.1 0 .2.1.2.2s0 .2-.1.3L379 709.6c0 .1 0 .1-.1.1zm-54-38.1l54.1 37.6 61-43.5-115.1 5.9z"/><path d="M378.9 709.7L238.3 674c-.1 0-.2-.1-.2-.3 0-.1.1-.2.2-.2l85.8-2.4h.1l54.8 38.1c.1.1.1.2.1.3 0 .1-.1.2-.2.2zm-138.7-35.8l137.5 34.9-53.7-37.2-83.8 2.3z"/><path d="M324.1 671.6c-.1 0-.2-.1-.2-.2s.1-.2.2-.3l146.4-46.9c.1 0 .2 0 .3.1.1.1.1.2 0 .3L441 665.4c0 .1-.1.1-.2.1l-116.7 6.1zM469.9 625L326 671l114.6-5.9 29.3-40.1z"/><path d="M324.1 671.6c-.1 0-.2 0-.2-.1-.1-.1 0-.2 0-.3l100.7-92.6c.1-.1.3-.1.3 0l45.8 45.7c.1.1.1.2.1.2 0 .1-.1.2-.2.2l-146.5 46.9c.1 0 0 0 0 0zm100.7-92.5l-99.6 91.7 144.9-46.4-45.3-45.3z"/><path d="M238.4 674c-.1 0-.1 0-.2-.1l-33.8-36.3c-.1-.1-.1-.2 0-.3.1-.1.2-.1.3-.1l119.6 33.9c.1 0 .2.1.2.3 0 .1-.1.2-.2.2l-85.9 2.4zm-33-36.1l33.1 35.6 84-2.3-117.1-33.3z"/><path d="M324.1 671.6c-.1 0-.2-.1-.2-.2L295.4 592v-.2c0-.1.1-.1.2-.1l129.2-13.2c.1 0 .2 0 .3.1 0 .1 0 .2-.1.3l-100.7 92.6c-.1.1-.1.1-.2.1zM296 592.2l28.3 78.7 99.8-91.8L296 592.2z"/><path d="M324.1 671.6l-119.6-33.9c-.1 0-.2-.1-.2-.2s0-.2.1-.2l91.1-45.4h.2c.1 0 .1.1.1.1l28.5 79.4c0 .1 0 .2-.1.3.1-.1 0-.1-.1-.1zm-118.8-34.2L323.7 671l-28.2-78.6-90.2 45zM217.5 315.6c-.1 0-.1 0-.2-.1s-.1-.2-.1-.3l55.3-148.6c0-.1.1-.2.2-.2s.2 0 .2.1l58.2 88.6c0 .1.1.1 0 .2 0 .1-.1.1-.1.2l-113.5 60c.1.1 0 .1 0 .1zm55.3-148.4l-54.9 147.6 112.6-59.6-57.7-88z"/><path d="M217.5 315.6c-.1 0-.2-.1-.2-.2l-43-140.9v-.2c0-.1.1-.1.2-.1l98.3-7.8c.1 0 .2 0 .2.1.1.1.1.2 0 .2l-55.3 148.6c0 .2-.1.3-.2.3zm-42.7-140.9l42.7 139.9L272.4 167l-97.6 7.7z"/><path d="M246.7 487.7c-.1 0-.2-.1-.2-.2l-29.2-172.1c0-.1 0-.2.1-.3.1 0 .2 0 .3.1l68.3 81.7c.1.1.1.2 0 .3l-39 90.4c-.1 0-.2.1-.3.1zm-28.8-171.5l29 170.4 38.7-89.5-67.7-80.9z"/><path d="M285.8 397.3c-.1 0-.1 0-.2-.1s-.1-.2-.1-.3l45.2-141.7c0-.1.1-.1.2-.2.1 0 .2 0 .2.1l94.7 91.8c.1.1.1.1.1.2s-.1.2-.2.2l-139.9 50zm45.3-141.5l-44.9 140.9 139-49.6-94.1-91.3z"/><path d="M285.8 397.3c-.1 0-.1 0-.2-.1l-68.3-81.7c0-.1-.1-.1-.1-.2s.1-.1.1-.2l113.5-60h.3c.1.1.1.2.1.3L286 397.1c0 .1-.1.2-.2.2zm-67.9-81.9l67.8 81.1 44.9-140.7-112.7 59.6zM76.9 407.4l-42.1-14.2c-.1 0-.1-.1-.2-.2 0-.1 0-.2.1-.2l63.2-70.1c.1-.1.2-.1.3-.1.1.1.2.2.1.3l-21.2 84.3c0 .1-.1.1-.1.2h-.1zm-41.6-14.5l41.5 14 20.9-83.1-62.4 69.1z"/><path d="M76.9 407.4h-.1c-.1-.1-.1-.2-.1-.3l21.2-84.3c0-.1.1-.2.2-.2l119.4-7.5c.1 0 .2.1.3.2 0 .1 0 .2-.1.3L77.1 407.4h-.2zm21.4-84.3l-21 83.5 139.2-91-118.2 7.5z"/><path d="M98.1 323.1c-.1 0-.1 0-.2-.1s-.1-.1-.1-.2l15.5-99.4c0-.1.1-.2.2-.2h.3l103.9 91.9c.1.1.1.2.1.3s-.1.2-.2.2l-119.5 7.5zm15.7-99.1l-15.4 98.7 118.5-7.5L113.8 224zM60.3 183c-.1 0-.1 0-.2-.1s-.1-.2 0-.3l54.3-78c.1-.1.2-.1.3-.1.1.1.2.2.1.3l-22 56.9-.1.1-32.3 21.1s0 .1-.1.1zm53.3-76.5l-52.3 75.3 31.1-20.3 21.2-55zM295.7 23.2c-.1 0-.1 0-.2-.1s-.1-.2-.1-.2l4.7-15.5c0-.1.1-.2.2-.2l91-2.2c.1 0 .2.1.2.2s-.1.2-.2.3l-95.6 17.7zm4.8-15.5L296 22.6l92.2-17.1-87.7 2.2z"/><path d="M491.3 46.2l-94.8-5.6c-.1 0-.2-.1-.2-.2l-5.1-35.2c0-.1 0-.2.1-.2.1-.1.2-.1.2 0l99.9 40.8c.1 0 .2.2.1.3 0 .1-.1.1-.2.1zm-94.6-6.1l93.1 5.5-98.1-40 5 34.5z"/><path d="M491.3 46.2s-.1 0 0 0l-100-40.8c-.1 0-.2-.2-.1-.3 0-.1.2-.2.3-.2l131.6 31.7c.1 0 .2.1.2.2s-.1.2-.2.2l-31.8 9.2zm-96.8-40l96.8 39.5 30.7-8.8L394.5 6.2z"/><path d="M396.5 40.6L295.6 23.2c-.1 0-.2-.1-.2-.2s.1-.2.2-.2L391.3 5h.2c.1 0 .1.1.1.2l5.1 35.2c0 .1 0 .2-.1.2h-.1zm-99.4-17.7l99.1 17.2-5.1-34.6-94 17.4zM195.9 572.3c-.1 0-.1 0-.2-.1l-62.9-76.8c-.1-.1-.1-.2 0-.3 0-.1.1-.1.2-.2l113.7-7.8c.1 0 .2 0 .2.1v.3l-50.8 84.6c0 .1-.1.2-.2.2.1 0 0 0 0 0zm-62.4-76.8l62.4 76.1 50.4-83.9-112.8 7.8z"/><path d="M195.9 572.3l-99.7-29c-.1 0-.1-.1-.2-.2v-.2l36.7-47.8c0-.1.1-.1.2-.1s.1 0 .2.1l62.9 76.8c.1.1.1.2 0 .3.1 0 0 .1-.1.1zm-99.2-29.4l98.5 28.7-62.2-75.9-36.3 47.2z"/><path d="M133 495.5c-.1 0-.2 0-.2-.1-.1-.1-.1-.2 0-.2l84.4-179.9c0-.1.2-.2.3-.1.1 0 .2.1.2.2l29.3 172c0 .1 0 .1-.1.2 0 .1-.1.1-.2.1L133 495.5c.1 0 0 0 0 0zm84.4-179.3l-84 178.8 113-7.8-29-171z"/><path d="M96.3 543.3c-.2 0-.2-.1-.2-.2L76.7 407.2c0-.1.1-.2.2-.3.1 0 .2 0 .3.1l56.1 88.1c.1.1.1.2 0 .3l-36.7 47.8c-.1 0-.2.1-.3.1zm-19-135l19.1 134.1 36.3-47.1-55.4-87z"/><path d="M133 495.5c-.1 0-.2 0-.2-.1l-56.1-88.1c-.1-.1 0-.3.1-.3l140.6-91.9c.1-.1.2-.1.3 0 .1.1.1.2.1.3l-84.4 179.9c-.2.2-.3.2-.4.2.1 0 0 0 0 0zm-55.7-88.2l55.7 87.5L216.9 316 77.3 407.3zM425.6 347.4c-.2 0-.2-.1-.2-.2l-28.7-174.3c0-.1 0-.2.1-.2.1-.1.2-.1.3 0l101.1 56.8c.1 0 .1.1.1.2v.2l-72.4 117.4c-.1.1-.2.1-.3.1zm-28.4-174l28.5 173.1 71.9-116.7-100.4-56.4z"/><path d="M425.6 347.4c-.1 0-.1 0-.2-.1l-94.7-91.8c-.1-.1-.1-.2 0-.3l65.9-82.5c.1-.1.2-.1.3-.1.1 0 .2.1.2.2l28.7 174.3c0 .1 0 .2-.1.3h-.1zm-94.3-92.1l94 91.1-28.5-173-65.5 81.9z"/><path d="M498 230h-.1l-101.1-56.8c-.1-.1-.1-.2-.1-.3 0-.1.1-.2.2-.2l149.4-28.2c.1 0 .2 0 .2.1.1.1.1.2 0 .3L498.2 230c0-.1-.1 0-.2 0zm-100.4-57l100.3 56.4 47.9-84.4-148.2 28z"/><path d="M331 255.6s-.1 0 0 0c-.1 0-.2 0-.2-.1l-58.2-88.6c-.1-.1-.1-.2 0-.3 0-.1.1-.1.2-.1l124.1 6.2c.1 0 .2.1.2.1v.3l-65.9 82.5c-.1-.1-.2 0-.2 0zM273.2 167l57.7 87.9 65.4-81.8-123.1-6.1z"/><path d="M396.9 173.1c-.1 0-.1 0-.2-.1-.1 0-.1-.1-.1-.2l-.4-132.5c0-.1.1-.2.1-.2h.3l149.8 104.3c.1.1.1.2.1.3 0 .1-.1.2-.2.2l-149.4 28.2zm-.1-132.2l.4 131.7 148.5-28.1L396.8 40.9z"/><path d="M396.9 173.1l-124.1-6.2c-.1 0-.2-.1-.2-.1v-.3l50.7-66.9c0-.1.1-.1.2-.1s.1 0 .2.1l73.5 73.1c.1.1.1.2.1.3-.2.1-.3.1-.4.1zm-123.7-6.6l123 6.1-72.8-72.4-50.2 66.3z"/><path d="M396.9 173.1c-.1 0-.1 0-.2-.1l-73.5-73c-.1 0-.1-.1-.1-.2s0-.1.1-.2l73.1-59.4c.1-.1.2-.1.3 0 .1 0 .1.1.1.2l.4 132.5c0 .1 0 .2-.2.2.1 0 0 0 0 0zm-73.1-73.3l72.9 72.4-.4-131.4-72.5 59zM157 86.3c-.1 0-.2 0-.2-.1-.1-.1 0-.3.1-.3l27.7-22h.1l43.6-15.5c.1 0 .3 0 .3.1.1.1 0 .3-.1.3l-71.3 37.6c-.2-.2-.2-.1-.2-.1zm27.8-22.1l-25.6 20.4 65.9-34.7-40.3 14.3z"/><path d="M114.6 104.9c-.1 0-.2-.1-.2-.1-.1-.1 0-.3.1-.3l70.1-40.7c.1-.1.3 0 .3.1.1.1.1.3-.1.3l-27.7 22h-.1l-42.4 18.7c.1 0 0 0 0 0zm67.2-39l-63.2 36.8 38.2-16.9 25-19.9z"/><path d="M92.6 161.9h-.1c-.1-.1-.1-.2-.1-.3l22-56.9c0-.1.1-.1.1-.1l42.4-18.7c.1 0 .2 0 .3.1.1.1.1.2 0 .3l-64.4 75.6h-.2zm22.2-57l-21.4 55.5 62.7-73.7-41.3 18.2zM559.9 541.2c-.1 0-.2-.1-.2-.2s0-.2.1-.3l75.1-49.5c.1-.1.2-.1.3 0l49.7 26.2c.1 0 .1.2.1.3 0 .1-.1.2-.2.2l-124.9 23.3zm75.1-49.4l-74 48.7 123-22.9-49-25.8z"/><path d="M684.7 517.9h-.1l-49.7-26.2c-.1 0-.1-.1-.1-.2s.1-.2.2-.2l71.8-22c.1 0 .2 0 .3.1.1.1.1.2 0 .3L685 517.8c-.1.1-.1.1-.3.1.1 0 .1 0 0 0zm-49-26.3l49 25.8 21.7-47.4-70.7 21.6z"/><path d="M559.9 541.2c-.1 0-.1 0 0 0-.2 0-.2-.1-.2-.2l-27.1-78.6c0-.1 0-.2.1-.3.1-.1.2-.1.2-.1l102.2 29.1c.1 0 .2.1.2.2s0 .2-.1.2L560 541.2h-.1zm-26.8-78.4l26.8 77.8 74.4-49-101.2-28.8z"/><path d="M635 491.8c-.1 0-.1 0-.2-.1s-.1-.2 0-.3l33.9-68.9c0-.1.1-.1.2-.1s.2 0 .2.1l37.9 46.9c.1.1.1.2 0 .2 0 .1-.1.1-.2.2l-71.8 22zm34-68.8l-33.5 68.1 70.9-21.7L669 423z"/><path d="M635 491.8l-102.3-29.1c-.1 0-.2-.1-.2-.2s.1-.2.2-.2l136.2-39.9c.1 0 .2 0 .3.1.1.1.1.2 0 .3l-33.9 68.9c-.1 0-.2.1-.3.1zm-101.3-29.4l101.2 28.8 33.6-68.2-134.8 39.4zM529.4 698.3l-35.4-9.9c-.1 0-.2-.1-.2-.2s.1-.2.2-.2l74.3-15.1c.1 0 .2 0 .3.2 0 .1 0 .2-.1.3l-39 25c0-.1 0-.1-.1-.1zm-34.3-10.2l34.3 9.6 37.8-24.2-72.1 14.6z"/><path d="M494.1 688.4c-.1 0-.2-.1-.2-.2s0-.2.1-.3L613.2 620c.1-.1.2 0 .3.1.1.1.1.2 0 .3l-45 52.8-.1.1-74.3 15.1zm118.1-67.3l-116.7 66.4 72.7-14.7 44-51.7z"/><path d="M568.4 673.3c-.1 0-.1 0-.2-.1s-.1-.2 0-.3l45-52.8c0-.1.1-.1.2-.1l22.9.2c.1 0 .2.1.2.2s0 .2-.1.3l-67.8 52.6h-.2zm45.1-52.8l-43.3 50.9 65.4-50.7-22.1-.2zM706.8 469.7s-.1 0 0 0c-.2-.1-.3-.2-.2-.3l12-100.3c0-.1.1-.2.2-.2s.2.1.3.2l16 54.3v.2l-28 45.9c-.1.2-.2.2-.3.2zm12.1-99.2l-11.7 97.9 27.4-44.9-15.7-53z"/><path d="M706.8 469.7c-.1 0-.1 0-.2-.1l-37.9-46.9c-.1-.1-.1-.2 0-.3l49.9-53.3c.1-.1.2-.1.3-.1.1 0 .2.1.1.3l-12 100.3s0 .1-.2.1zm-37.6-47.1l37.4 46.3 11.9-98.9-49.3 52.6z"/><path d="M734.8 423.8c-.1 0-.2-.1-.2-.2l-16-54.3v-.2l18.4-43.8c0-.1.2-.2.3-.1.1 0 .2.1.2.3l-2.4 98.1c0 .1-.1.2-.3.2zm-15.7-54.6l15.5 52.7 2.3-95.2-17.8 42.5z"/><path d="M718.8 369.5c-.1 0-.2-.1-.2-.2l-22-106.8c0-.1 0-.2.2-.3.1 0 .2 0 .3.1l40.4 63c0 .1.1.2 0 .2L719 369.3c0 .1-.1.2-.2.2zm-21.5-105.8l21.6 104.7 18-42.9-39.6-61.8z"/><path d="M668.9 422.8h-.1c-.1 0-.2-.2-.1-.3l27.9-160.2c0-.1.1-.2.2-.2s.2.1.2.2l22 106.8c0 .1 0 .2-.1.2L669 422.6c0 .2 0 .2-.1.2zm27.9-159.1l-27.5 158 49.2-52.6-21.7-105.4zM295.6 592.3c-.1 0-.1 0-.2-.1s-.1-.2-.1-.3L331.5 487c0-.1.1-.2.3-.2l102 10.3c.1 0 .2.1.2.2s0 .2-.1.3l-138 94.6c-.2 0-.2.1-.3.1zm36.3-104.9l-35.8 104 136.8-93.8-101-10.2z"/><path d="M295.6 592.3c-.1 0-.2-.1-.2-.1l-48.9-104.6v-.2c0-.1.1-.1.2-.1l85-.4c.1 0 .2 0 .2.1s.1.2 0 .2l-36.1 104.9c0 .1-.1.2-.2.2zm-48.5-104.6l48.5 103.6 35.8-104-84.3.4z"/><path d="M433.7 497.6c-.1 0-.1 0 0 0l-102-10.3c-.1 0-.2-.1-.2-.1v-.2l93.9-140c.1-.1.2-.1.3-.1.1 0 .2.1.2.2l8 150.2c0 .1 0 .1-.1.2 0 .1-.1.1-.1.1zm-101.6-10.7l101.3 10.2-8-149.2-93.3 139z"/><path d="M246.7 487.7c-.1 0-.2 0-.2-.1s-.1-.2 0-.2l39-90.4c0-.1.1-.1.2-.2.1 0 .2.1.2.1l45.9 90v.2c0 .1-.1.1-.2.1l-84.9.5zm39.1-90l-38.7 89.6 84.2-.4-45.5-89.2z"/><path d="M331.7 487.4c-.1 0-.2-.1-.2-.1l-45.9-90v-.2c0-.1.1-.1.1-.1l139.8-49.9c.1 0 .2 0 .3.1.1.1.1.2 0 .3l-93.9 139.9c-.1-.1-.1 0-.2 0zm-45.6-90.2l45.6 89.4 93.3-139-138.9 49.6zM311.346 731.25l98.215 7.446-.037.5-98.214-7.448zM174.5 174.7c-.1 0-.2 0-.2-.1v-.3L220.6 98c0-.1.1-.1.2-.1s.2 0 .2.1l51.9 68.6c.1.1.1.2 0 .3 0 .1-.1.1-.2.1l-98.2 7.7zm46.4-76.1L175 174.2l97.3-7.7-51.4-67.9z"/><path d="M272.8 166.9c-.1 0-.2 0-.2-.1l-51.9-68.6c-.1-.1-.1-.2 0-.3 0-.1.1-.1.2-.1l102.6 1.7c.1 0 .2.1.2.1v.3L273 166.8c-.1.1-.2.1-.2.1zm-51.4-68.5l51.4 67.9 50.2-66.2-101.6-1.7z"/><path d="M174.5 174.7l-81.9-12.8c-.1 0-.2-.1-.2-.2s0-.2.1-.3l128.2-63.5c.1 0 .2 0 .3.1.1.1.1.2 0 .3l-46.3 76.3c0 .1-.1.1-.2.1zm-81.1-13.2l80.9 12.7 45.8-75.5-126.7 62.8z"/><path d="M323.4 100.1l-102.6-1.7c-.1 0-.2-.1-.2-.2s.1-.2.2-.3l175.7-57.7c.1 0 .2 0 .3.1.1.1 0 .2-.1.3L323.6 100c-.1 0-.1.1-.2.1zm-101.1-2.2l101 1.7 72-58.5-173 56.8z"/><path d="M220.8 98.4c-.1 0-.1 0-.2-.1s-.1-.1-.1-.2l7.5-49.7c0-.1.1-.2.2-.2l168.2-8c.1 0 .2.1.3.2 0 .1 0 .2-.2.3L220.8 98.4c.1 0 .1 0 0 0zm7.7-49.8l-7.4 49.1 173.5-57-166.1 7.9z"/><path d="M92.6 161.9c-.1 0-.1 0-.2-.1s-.1-.2 0-.3l64.4-75.6c.1-.1.2-.1.2-.1l63.9 12.1c.1 0 .2.1.2.2s0 .2-.1.3L92.7 161.9h-.1zm64.5-75.6l-63.5 74.6 126.5-62.7-63-11.9z"/><path d="M220.8 98.4l-63.9-12.1c-.1 0-.2-.1-.2-.2s0-.2.1-.3l71.3-37.6h.3c.1.1.1.1.1.2L221 98.1c0 .1 0 .1-.1.2 0 0 0 .1-.1.1zm-63.1-12.5l62.9 11.9 7.3-49-70.2 37.1zM34.8 393.3h-.1c-.1-.1-.2-.2-.1-.3l30.8-155.6c0-.1.1-.2.2-.2s.2.1.3.2l32.5 85.5v.3l-63.4 70s-.1.1-.2.1zm30.9-155L35.3 392.2l62.5-69.3-32.1-84.6z"/><path d="M34.8 393.3c-.1 0-.2-.1-.2-.2l-5.8-81.8v-.1l36.6-73.8c.1-.1.2-.2.3-.1.1 0 .2.2.2.3L35.1 393c0 .2-.1.3-.3.3zm-5.5-82.1l5.7 79.9 30-151.9-35.7 72z"/><path d="M98.1 323.1c-.1 0-.2-.1-.2-.2l-32.5-85.5v-.2c0-.1.1-.1.2-.1l48-13.9c.1 0 .2 0 .2.1.1.1.1.1.1.2l-15.5 99.4c-.1.1-.2.2-.3.2zm-32.2-85.6L98 321.9l15.3-98.1-47.4 13.7z"/><path d="M65.6 237.6c-.1 0-.1 0-.2-.1s-.1-.2-.1-.3l27-75.7c0-.1.2-.2.2-.2.1 0 .2.1.2.2l21 61.8v.2c0 .1-.1.1-.2.1l-47.9 14c.1 0 0 0 0 0zm27-75.2L66 237l47.3-13.7-20.7-60.9z"/><path d="M29.1 311.4c-.1 0-.1 0 0 0-.2 0-.3-.1-.2-.3l.5-81.3c0-.1 0-.1.1-.2.1 0 .1-.1.2-.1l36 7.5c.1 0 .1.1.2.1v.2l-36.6 73.8c-.1.3-.2.3-.2.3zm.7-81.2l-.5 79.9 35.9-72.5-35.4-7.4z"/><path d="M65.6 237.6l-36.1-7.5c-.1 0-.2-.1-.2-.2s0-.2.1-.2l63-68.3c.1-.1.2-.1.3 0 .1.1.1.2.1.3l-27 75.7c0 .2-.1.2-.2.2zm-35.5-7.9l35.4 7.3L92 162.7l-61.9 67z"/></g><g opacity=".7"><g fill="#E8E8E8"><path d="M569.5 136.3l-50.6.2-76.2-99.8"/><path d="M518.9 136.5L399.2 84.4l43.5-47.7M687.2 342.9l15.9 68-63.4-22.2"/><path d="M703.1 410.9l-27.6 75.2-35.8-97.4M556.2 79.9l13.3 56.4 72.2 23.6M641.7 159.9l54.7 134.3-61.6-69M696.4 294.2l-9.2 48.7-52.4-117.7M305.9 27.5l93.3 56.9-84.9-1.3"/><path d="M254 38.4l-25.1 72.8 85.4-28.1M228.9 111.2L93.2 169.3l63.6 57.9M408 661.8l-37.3 53.6-38.3-73.5M577.7 582.3l13.5 42.3 84.3-138.5M87.8 360.3l-61.1 2.4 26.6-104.8M87.8 360.3l4.9 182.5L41 463.2"/><path d="M577.7 582.3l13.5 42.3-94-9.3M87.8 360.3l4.9 182.5 106.5-79M184 566.3l-91.3-23.5 106.5-79M332.4 641.9l38.3 73.5-127.2-65.5"/><path d="M184 566.3l-91.3-23.5 150.8 107.1M271.6 708.5L199 673.4l44.5-23.5M591.2 624.6l-94-9.3-49.5 76.9M497.2 615.3L408 661.8l39.7 30.4"/><path d="M408 661.8l-37.3 53.6 77-23.2"/></g><g fill="#B0B1B1"><path d="M723.8 254l-35.9-18.9 8.5 59.1M723.8 254l-27.4 40.2 40.8 31.2"/><path d="M723.8 254l-35.9-18.9 15.1-28.3"/><path d="M703 206.8l-15.1 28.3-43.3-112M581.7 64.2l62.9 58.9-88.4-43.2"/><path d="M581.7 64.2l-25.5 15.7-13-34.4M737.2 325.4l-34.1 85.5 38.3-12.7M707.1 522.3l-4-111.4 38.3-12.7M707.1 522.3L658.4 560l17.1-73.9M300.4 7.4l5.5 20.1L254 38.4M417.3 4.6L300.4 7.4 367.9 21"/><path d="M300.4 7.4l5.5 20.1 62-6.5M417.3 4.6L367.9 21l74.8 15.7M644.6 123.1l-88.4-43.2 85.5 80M300.4 7.4l-46.4 31-54.4 6.1M543.2 45.5l13 34.4-89.4-66.1"/><path d="M556.2 79.9L442.7 36.7l24.1-22.9"/><path d="M417.3 4.6l25.4 32.1 24.1-22.9M254 38.4l-54.4 6.1-33.5 43.7M199.6 44.5l-84.8 60.3 51.3-16.6M703 206.8l-58.4-83.6 58.4 83.6zM707.1 522.3L658.4 560l-37.1 80.9M114.8 104.8l-21.6 64.5-64.1 60.3"/><path d="M114.8 104.8l-21.6 64.5 72.9-81.1M591.2 624.6l-62.4 53.2 92.5-36.9"/><path d="M621.3 640.9l-92.5 36.9-37.7 41.3M491.1 719.1l-120.4-3.7 39.4 22.9M138.5 634.3l39.4 50.7-75.3-60.4M26.7 362.7l-23.2 3.1 12.4 97.7M93.2 169.3l-39.9 88.6-24.2-28.3M53.3 257.9L26.7 362.7l2.4-133.1"/><path d="M26.7 362.7l-23.2 3.1 25.6-136.2M138.5 634.3l39.4 50.7 21.1-11.6"/><path d="M226.4 705.8L177.9 685l21.1-11.6M92.7 542.8l45.8 91.5 60.5 39.1M26.7 362.7L15.9 463.5l25.1-.3M370.7 715.4l39.4 22.9-98.8-6.8M138.5 634.3l-35.9-9.7-39.8-55M41 463.2l51.7 79.6-29.9 26.8"/><path d="M41 463.2l-25.1.3 46.9 106.1M92.7 542.8l45.8 91.5-75.7-64.7M199 673.4l27.4 32.4 45.2 2.7"/><path d="M311.3 731.5l-84.9-25.7 45.2 2.7M528.8 677.8l-37.7 41.3-43.4-26.9"/></g><g fill="#CFD0D0"><path d="M696.4 294.2l-9.2 48.7 50-17.5M687.2 342.9l15.9 68 34.1-85.5M707.1 522.3l-4-111.4-27.6 75.2M305.9 27.5l93.3 56.9L367.9 21M556.2 79.9l13.3 56.4-126.8-99.6"/><path d="M367.9 21l31.3 63.4 43.5-47.7M644.6 123.1l43.3 112-46.2-75.2"/><path d="M687.9 235.1l8.5 59.1-54.7-134.3M305.9 27.5L254 38.4l60.3 44.7M254 38.4l-25.1 72.8-62.8-23M228.9 111.2L93.2 169.3l72.9-81.1M658.4 560l-67.2 64.6 30.1 16.3"/><path d="M658.4 560l-67.2 64.6 84.3-138.5M87.8 360.3l-61.1 2.4L41 463.2M93.2 169.3l-39.9 88.6 103.5-30.7"/><path d="M53.3 257.9l34.5 102.4 69-133.1M370.7 715.4l-59.4 16.1-39.7-23M92.7 542.8L199 673.4l44.5-23.5"/><path d="M370.7 715.4l-99.1-6.9-28.1-58.6M591.2 624.6l-62.4 53.2-81.1 14.4"/><path d="M491.1 719.1l-120.4-3.7 77-23.2"/></g></g><g fill="#2B2C2B"><path d="M408 662.2l-75.7-20c-.1 0-.2-.1-.2-.2s0-.2.1-.3l126.4-103.2c.1-.1.3-.1.4 0 .1.1.2.2.1.4L408.3 662c0 .1-.2.2-.3.2zm-74.9-20.5l74.7 19.7L458 539.7l-124.9 102zM438.5 242h-.2l-103.5-64.2c-.1 0-.1-.1-.1-.2s0-.2.1-.3l64.2-93c.1-.1.2-.2.3-.1.1 0 .2.1.3.2l39.3 157.3c0 .1 0 .3-.1.3h-.3zm-103-64.7L438 241 399.1 85.2l-63.6 92.1z"/><path d="M322.4 337.6h-.2c-.1-.1-.2-.2-.2-.3l12.6-159.9c0-.1.1-.2.2-.3.1-.1.2 0 .3 0l103.5 64.2c.1.1.1.1.2.3 0 .1 0 .2-.1.3l-116.1 95.6c-.1.1-.1.1-.2.1zM335.3 178l-12.5 158.6L438 241.7 335.3 178zM509.3 200.8c-.1 0-.2 0-.2-.1L399 84.6c-.1-.1-.1-.3 0-.4.1-.1.3-.2.4-.1l119.7 52.1c.1.1.2.2.2.3l-9.6 64c-.1.2-.2.3-.4.3.1 0 0 0 0 0zM400.6 85.3l108.5 114.5 9.5-63.1-118-51.4z"/><path d="M438.5 242h-.1c-.1 0-.2-.1-.2-.2L398.9 84.5c0-.1 0-.3.2-.4.1-.1.3 0 .4.1l110.1 116.1c.1.1.1.2.1.3 0 .1-.1.2-.2.2L438.7 242h-.2zM399.9 85.5l38.9 155.6 70.1-40.7-109-114.9z"/><path d="M596.6 296.9h-.1L438.4 242c-.1 0-.2-.1-.2-.3 0-.1.1-.2.2-.3l70.8-41.2c.1-.1.3-.1.4.1l87.3 96.1c.1.1.1.3 0 .4-.1.1-.2.1-.3.1zm-157.3-55.3l156.2 54.3-86.3-95-69.9 40.7z"/><path d="M639.7 389s-.1 0 0 0c-.2 0-.2-.1-.3-.2l-43.1-92.1c-.1-.1 0-.3.1-.4.1-.1.3-.1.4-.1l90.6 46.3c.1 0 .2.1.2.2s0 .2-.1.3L640 388.7c-.2.3-.2.3-.3.3zm-42.4-91.7l42.5 90.8 46.9-45.1-89.4-45.7z"/><path d="M523.4 417.7c-.1 0-.2 0-.3-.1-.1-.1-.1-.2 0-.4l73.2-120.8c.1-.1.2-.2.3-.2.1 0 .2.1.3.2l43.1 92.1v.3c0 .1-.1.2-.2.2l-116.4 28.7zm73.2-120.4l-72.5 119.6 115.2-28.4-42.7-91.2zM156.8 227.5c-.1 0-.2 0-.3-.1-.1-.1-.1-.3 0-.4l72.1-116c0-.1.1-.1.2-.1h.2l106.1 66.2c.1.1.2.2.1.3 0 .1-.1.2-.2.3l-178.2 49.8c.1 0 0 0 0 0zM229 111.6l-71.5 115 176.7-49.3L229 111.6z"/><path d="M322.4 337.6c-.1 0-.1 0-.2-.1L156.6 227.4c-.1-.1-.2-.2-.1-.3 0-.1.1-.2.2-.3l178.2-49.7c.1 0 .2 0 .3.1s.1.2.1.3l-12.6 159.9c0 .1-.1.2-.2.3 0-.1-.1-.1-.1-.1zM157.6 227.3l164.5 109.4 12.6-158.8-177.1 49.4z"/><path d="M184.9 349c-.2 0-.3-.1-.3-.3l-28.1-121.5c0-.1 0-.3.1-.3s.3-.1.4 0L322.6 337c.1.1.2.2.1.4 0 .1-.2.2-.3.2L184.9 349zm-27.6-121.1l27.8 120.5L321.4 337 157.3 227.9z"/><path d="M87.8 360.7c-.1 0-.2-.1-.3-.1-.1-.1-.1-.2 0-.3l69-133.2c.1-.1.2-.2.3-.2.1 0 .2.1.3.2l28.1 121.5c0 .1 0 .2-.1.3-.1.1-.1.1-.2.1l-97.1 11.7zm68.9-132.6L88.3 359.9l96.2-11.5-27.8-120.3zM634.8 225.5c-.1 0-.2 0-.3-.1l-65.3-88.9c-.1-.1-.1-.3 0-.4.1-.1.2-.2.4-.1l72.2 23.6c.1 0 .2.2.2.3l-6.9 65.3c0 .1-.1.2-.3.3zm-64.5-88.6l64.2 87.4 6.8-64.2-71-23.2z"/><path d="M634.8 225.5c-.1 0-.1 0-.2-.1l-115.8-88.6c-.1-.1-.2-.2-.1-.4 0-.1.2-.2.3-.2l50.5-.2c.1 0 .2 0 .3.1L635 225c.1.1.1.3 0 .4-.1.1-.1.1-.2.1zm-114.9-88.6l113.3 86.7-63.9-86.9-49.4.2z"/><path d="M634.8 225.5s-.1 0 0 0l-125.5-24.7c-.2 0-.3-.2-.3-.4l9.6-64c0-.1.1-.2.2-.3h.3L635 224.9c.1.1.2.3.1.4-.1.1-.2.2-.3.2zm-125.1-25.3l123.8 24.3-114.3-87.4-9.5 63.1z"/><path d="M596.6 296.9c-.1 0-.2 0-.2-.1l-87.3-96.1c-.1-.1-.1-.3 0-.4.1-.1.2-.2.3-.2l125.5 24.7c.1 0 .2.1.2.2v.3l-38.2 71.4c-.1.1-.2.2-.3.2zM510.2 201l86.3 95 37.8-70.6L510.2 201z"/><path d="M687.2 343.3h-.1L596.5 297c-.1 0-.1-.1-.2-.2v-.3l38.2-71.4c.1-.1.2-.2.3-.2.1 0 .2.1.3.2l52.4 117.8c.1.1 0 .3-.1.4 0-.1-.1 0-.2 0zM597 296.5l89.5 45.8L634.7 226 597 296.5zM267.9 567.7c-.1 0-.2 0-.3-.1-.1-.1-.1-.2-.1-.3l36.8-99.5c0-.1.1-.2.2-.2h.3L459 538.4c.1.1.2.2.2.3 0 .1-.1.3-.3.3l-191 28.7zm36.9-99.3L268.3 567l189.4-28.5-152.9-70.1z"/><path d="M332.4 642.2c-.1 0-.2 0-.2-.1l-64.6-74.5c-.1-.1-.1-.2-.1-.3 0-.1.1-.2.3-.2l191-28.7c.1 0 .3.1.3.2.1.1 0 .3-.1.4L332.6 642.1c0 .1-.1.1-.2.1zm-63.9-74.5l64 73.8 125.3-102.3-189.3 28.5z"/><path d="M458.9 539c-.1 0-.1 0 0 0-.1 0-.3-.1-.3-.2l-44.2-109.3v-.3l.2-.2 108.7-12c.1 0 .2 0 .3.1.1.1.1.2 0 .3l-64.5 121.3c0 .2-.1.3-.2.3zm-43.8-109.4l43.8 108.3 63.9-120.1-107.7 11.8z"/><path d="M304.7 468.3c-.1 0-.1 0-.2-.1s-.1-.2-.1-.3l17.7-130.7c0-.1.1-.2.2-.3.1 0 .2 0 .3.1l92.2 92.1c.1.1.1.2.1.3 0 .1-.1.2-.2.2l-110 38.6v.1zM322.6 338L305 467.5l109-38.3-91.4-91.2z"/><path d="M458.9 539h-.1l-154.2-70.7c-.1-.1-.2-.2-.2-.3 0-.1.1-.2.2-.3l110-38.6c.2-.1.3 0 .4.2l44.2 109.3c0 .1 0 .3-.1.4h-.2zm-153.4-71l152.7 70-43.8-108.3L305.5 468z"/><path d="M497.2 615.6c-.1 0-.2-.1-.3-.2l-38.4-76.6c-.1-.1 0-.3 0-.4.1-.1.2-.1.4-.1L577.8 582c.1 0 .2.2.2.3 0 .1-.1.3-.2.3l-80.4 33h-.2zm-37.7-76.3l37.9 75.6 79.4-32.6-117.3-43z"/><path d="M408 662.2c-.1 0-.2 0-.2-.1-.1-.1-.1-.2-.1-.4l50.8-123.2c0-.1.2-.2.3-.2.1 0 .2.1.3.2l38.4 76.6c.1.2 0 .4-.1.4L408.2 662c-.1.1-.1.2-.2.2zm50.9-122.7l-50.2 121.7 88.1-46-37.9-75.7zM615.2 485.2c-.1 0-.1 0-.2-.1l-91.9-67.5c-.1-.1-.2-.2-.1-.3 0-.1.1-.2.2-.3l116.3-28.7c.1 0 .2 0 .3.1.1.1.1.2.1.3l-24.5 96.2c0 .1-.1.2-.2.2.1.1.1.1 0 .1zm-91.1-67.7l90.9 66.8 24.2-95.2-115.1 28.4z"/><path d="M675.5 486.4l-60.2-1.2c-.1 0-.2 0-.3-.1-.1-.1-.1-.2-.1-.3l24.5-96.2c0-.1.2-.2.3-.2.1 0 .3.1.3.2l35.8 97.4v.3c-.1.1-.2.1-.3.1zm-59.9-1.9l59.4 1.2-35.3-96-24.1 94.8z"/><path d="M458.9 539c-.1 0-.2 0-.2-.1-.1-.1-.1-.2 0-.4l64.5-121.3c0-.1.1-.1.2-.2.1 0 .2 0 .3.1l91.9 67.5c.1.1.1.2.1.3 0 .1-.1.2-.2.3L459 539h-.1zm64.6-121.1l-63.9 120.2 155-53.4-91.1-66.8z"/><path d="M577.7 582.6c-.1 0-.1 0-.2-.1s-.2-.2-.1-.4l37.6-97.4c0-.1.2-.2.3-.2l60.2 1.2c.1 0 .2.1.3.2 0 .1 0 .3-.1.4l-97.8 96.2c-.1.1-.2.1-.2.1zm37.8-97.4l-37 95.8 96.2-94.6-59.2-1.2z"/><path d="M577.7 582.6h-.1L458.7 539c-.1 0-.2-.2-.2-.3 0-.1.1-.3.2-.3l156.4-53.8c.1 0 .3 0 .3.1.1.1.1.2.1.3L578 582.4c-.1.2-.2.2-.3.2zm-117.9-43.9l117.6 43.2 37.2-96.5-154.8 53.3zM199.2 464.2h-.1c-.1 0-.2-.1-.2-.3l-14.3-115.1c0-.1 0-.2.1-.2.1-.1.1-.1.2-.1L322.4 337c.1 0 .3.1.3.2.1.1 0 .3-.1.4L199.4 464.1c-.1 0-.1.1-.2.1zM185.3 349l14.2 114.1 122.1-125.4L185.3 349z"/><path d="M304.7 468.3s-.1 0 0 0l-105.5-4.1c-.1 0-.2-.1-.3-.2 0-.1 0-.3.1-.3l123.2-126.6c.1-.1.2-.1.4-.1.1.1.2.2.2.3L305 468c0 .2-.2.3-.3.3zm-104.8-4.8l104.5 4.1L322 338.2 199.9 463.5z"/><path d="M199.2 464.2c-.1 0-.2 0-.2-.1L87.5 360.6c-.1-.1-.1-.2-.1-.3 0-.1.1-.2.3-.2l97.1-11.6c.2 0 .3.1.4.3l14.3 115.1c0 .1-.1.3-.2.3h-.1zM88.5 360.6L198.7 463l-14.1-113.9-96.1 11.5z"/><path d="M267.9 567.7c-.1 0-.2-.1-.3-.1L198.9 464c-.1-.1-.1-.2 0-.3.1-.1.2-.2.3-.2l105.5 4.1c.1 0 .2.1.3.1.1.1.1.2 0 .3l-36.8 99.5c-.1.1-.2.2-.3.2zm-68.1-103.5l68 102.5 36.4-98.4-104.4-4.1z"/><path d="M267.9 567.7s-.1 0 0 0l-83.9-1.1c-.1 0-.2 0-.2-.1-.1-.1-.1-.2-.1-.3l15.2-102.5c0-.1.1-.2.3-.3.1 0 .3 0 .3.1l68.7 103.6c.1.1.1.2 0 .3-.1.3-.2.3-.3.3zm-83.6-1.7l82.9 1.1-67.9-102.4-15 101.3zM335 177.8s0-.1 0 0c-.2 0-.3-.1-.3-.3L314 83.2c0-.1 0-.2.1-.3.1-.1.2-.1.3-.1l84.9 1.3c.1 0 .2.1.3.2.1.1 0 .2 0 .3l-64.2 93c-.2.1-.3.2-.4.2zm-20.3-94.4l20.5 93.2 63.4-91.9-83.9-1.3z"/><path d="M335 177.8h-.2l-106.1-66.2c-.1-.1-.2-.2-.2-.3 0-.1.1-.2.2-.3l85.4-28.1h.3c.1 0 .1.1.2.2l20.7 94.3c0 .1 0 .3-.1.3 0 0-.1.1-.2.1zm-105.3-66.5l104.8 65.4L314 83.5l-84.3 27.8zM490.8 330.2c-.1 0-.2-.1-.3-.2l-52.2-88.2c-.1-.1-.1-.3 0-.4.1-.1.2-.1.4-.1l158.1 54.9c.1 0 .2.2.2.3 0 .1-.1.3-.2.3l-106 33.4c0-.1 0 0 0 0zm-51.6-87.9l51.7 87.2 104.7-32.9-156.4-54.3z"/><path d="M523.4 417.7s-.1 0 0 0c-.2 0-.3-.1-.3-.2l-32.6-87.6v-.3c0-.1.1-.1.2-.2l105.8-33.2c.1 0 .3 0 .4.1.1.1.1.3 0 .4l-73.2 120.8c-.1.2-.2.2-.3.2zM491.2 330l32.3 86.6 72.4-119.5L491.2 330z"/><path d="M322.4 337.6c-.1 0-.3-.1-.3-.2-.1-.1 0-.3.1-.4l116.1-95.6c.1-.1.2-.1.3-.1.1 0 .2.1.2.2l52.2 88.2c.1.1.1.2 0 .3-.1.1-.2.2-.3.2l-168.3 7.4zm116-95.4L323.3 337l166.9-7.4-51.8-87.4z"/><path d="M414.6 429.7c-.1 0-.2-.1-.3-.2-.1-.1-.1-.3 0-.4l76.1-99.5c.1-.1.2-.1.3-.1.1 0 .2.1.3.2l32.6 87.6v.3l-.2.2-108.8 11.9c.1 0 0 0 0 0zm76.1-99.2l-75.3 98.4L523 417.1l-32.3-86.6z"/><path d="M414.6 429.7c-.1 0-.2 0-.2-.1l-92.2-92.1c-.1-.1-.1-.2-.1-.3 0-.1.2-.2.3-.2l168.4-7.5c.1 0 .2.1.3.2.1.1 0 .2 0 .3L415 429.5c-.2.1-.3.2-.4.2zm-91.5-92.1l91.5 91.3 75.5-98.7-167 7.4zM243.5 650.2c-.1 0-.2 0-.3-.1-.1-.1-.1-.2-.1-.3l24.4-82.5c0-.1.1-.2.2-.2s.2 0 .3.1l64.6 74.5c.1.1.1.2.1.3 0 .1-.2.2-.3.2l-88.9 8zm24.5-82.1l-24.1 81.5 87.8-7.9-63.7-73.6z"/><path d="M243.5 650.2c-.1 0-.2-.1-.3-.1l-59.5-83.6c-.1-.1-.1-.2 0-.3.1-.1.2-.2.3-.2l83.9 1.1c.1 0 .2.1.3.1.1.1.1.2 0 .3L243.8 650c-.1.1-.2.2-.3.2zm-58.9-83.5l58.7 82.5 24.1-81.4-82.8-1.1zM696.4 294.5c-.1 0-.1 0 0 0-.2 0-.3-.1-.3-.3l-8.5-59.1c0-.1 0-.2.1-.3.1-.1.2-.1.3 0l35.9 18.9c.1 0 .1.1.2.2v.3l-27.4 40.2c-.1.1-.2.1-.3.1zm-8.1-58.8l8.3 57.6 26.7-39.2-35-18.4z"/><path d="M737.2 325.8c-.1 0-.1 0-.2-.1l-40.8-31.3c-.1-.1-.2-.3-.1-.4l27.4-40.2c.1-.1.2-.2.3-.1.1 0 .2.1.3.3l13.5 71.5c0 .1 0 .3-.1.3-.2-.1-.2 0-.3 0zm-40.4-31.7l39.9 30.6-13.2-69.9-26.7 39.3z"/><path d="M687.2 343.3c-.1 0-.2 0-.2-.1-.1-.1-.1-.2-.1-.3l9.2-48.7c0-.1.1-.2.2-.2h.3l40.8 31.3c.1.1.1.2.1.3 0 .1-.1.2-.2.3l-50 17.5c0-.2-.1-.1-.1-.1zm9.4-48.5l-9 47.7 48.9-17.1-39.9-30.6z"/><path d="M703.1 411.2c-.2 0-.3-.1-.3-.3l-15.9-68c0-.2.1-.3.2-.4l50-17.5c.1 0 .3 0 .3.1.1.1.1.2.1.3L703.4 411c0 .1-.1.2-.3.2zm-15.5-68.1l15.6 66.7 33.4-83.8-49 17.1zM723.8 254.3h-.2l-35.9-18.9c-.1 0-.1-.1-.2-.2v-.2l15.1-28.3c.1-.1.1-.2.3-.2.1 0 .2.1.3.2l20.8 47.2c.1.1 0 .3-.1.4h-.1zM688.3 235l34.8 18.3-20.1-45.8-14.7 27.5z"/><path d="M687.9 235.4s-.1 0 0 0c-.1 0-.3-.1-.3-.2l-43.2-112c-.1-.2 0-.3.2-.4.1-.1.3 0 .4.1l58.4 83.6c.1.1.1.2 0 .3l-15.1 28.3c-.2.2-.3.3-.4.3zm-42-109.9l42 108.8 14.7-27.5-56.7-81.3z"/><path d="M644.6 123.4h-.1L556 80.1c-.1-.1-.2-.2-.2-.3 0-.1.1-.2.2-.3l25.5-15.6c.1-.1.3-.1.4 0l63 58.9c.1.1.1.3 0 .4-.1.2-.2.2-.3.2zm-87.8-43.6l86 42.1-61.2-57.3-24.8 15.2z"/><path d="M556.2 80.2h-.1c-.1 0-.2-.1-.2-.2l-13-34.3c0-.1 0-.3.1-.4.1-.1.2-.1.4-.1l38.5 18.7c.1.1.2.2.2.3 0 .1-.1.2-.2.3l-25.5 15.6c-.1.1-.2.1-.2.1zm-12.4-34l12.6 33.2L581 64.2l-37.2-18zM703.1 411.2c-.1 0-.2 0-.2-.1-.1-.1-.1-.2-.1-.3l34.1-85.4c.1-.1.2-.2.4-.2s.3.1.3.3l4.2 72.8c0 .1-.1.3-.2.3l-38.2 12.7c-.2-.1-.2-.1-.3-.1zm33.9-84.3l-33.3 83.4L741 398l-4-71.1z"/><path d="M707.1 522.7c-.2 0-.3-.2-.3-.3l-3.9-111.5c0-.1.1-.3.2-.3l38.2-12.7c.1 0 .2 0 .3.1.1.1.1.2.1.3l-34.3 124.1c-.1.2-.2.3-.3.3zm-3.6-111.6l3.9 109.1L741 398.7l-37.5 12.4z"/><path d="M707.1 522.7c-.1 0-.2 0-.2-.1l-31.6-36.3c-.1-.1-.1-.2-.1-.3l27.7-75.2c.1-.1.2-.2.4-.2s.3.2.3.3l3.9 111.5c0 .1-.1.3-.2.3h-.2zM675.8 486l30.9 35.4-3.8-108.9-27.1 73.5z"/><path d="M658.4 560.3c-.1 0-.1 0-.2-.1s-.2-.2-.1-.3l17.1-73.9c0-.1.1-.2.2-.2s.2 0 .3.1l31.6 36.3c.1.1.1.2.1.2 0 .1-.1.2-.1.2l-48.7 37.7h-.2zm17.2-73.5l-16.7 72.4 47.7-36.9-31-35.5zM254 38.7c-.1 0-.2-.1-.3-.2-.1-.1 0-.3.1-.4l46.4-30.9c.1-.1.2-.1.3 0 .1 0 .2.1.2.2l5.5 20.1v.3c0 .1-.1.1-.2.1l-52 10.8zM300.2 8l-44.6 29.8 49.9-10.4L300.2 8z"/><path d="M367.9 21.3L300.3 7.8c-.2 0-.3-.2-.3-.3 0-.2.2-.3.3-.3l117-2.9c.2 0 .3.1.3.3 0 .2-.1.3-.2.4L368 21.3h-.1zM303.3 7.7l64.6 13L415.2 5 303.3 7.7z"/><path d="M305.9 27.9c-.1 0-.3-.1-.3-.2L300 7.5c0-.1 0-.2.1-.3.1-.1.2-.1.3-.1L368 20.7c.2 0 .3.2.3.3 0 .2-.1.3-.3.3l-62.1 6.6zm-5.1-20l5.3 19.3 59.7-6.3-65-13z"/><path d="M399.2 84.7h-.2l-93.4-56.9c-.1-.1-.2-.2-.1-.3 0-.1.1-.2.3-.3l62.1-6.5c.1 0 .3.1.3.2l31.3 63.4c.1.1 0 .3-.1.4h-.2zm-92.4-56.9l91.6 55.8-30.7-62.2-60.9 6.4zM569.5 136.6c-.1 0-.1 0-.2-.1L442.5 37c-.1-.1-.2-.3-.1-.4.1-.1.2-.2.4-.1l113.5 43.1c.1 0 .2.1.2.2l13.3 56.4c0 .1 0 .3-.1.3-.1.1-.2.1-.2.1zm-125-98.8l124.4 97.7-13-55.4-111.4-42.3z"/><path d="M442.7 37.1c-.1 0-.1 0 0 0l-74.8-15.7c-.1 0-.2-.2-.3-.3 0-.1.1-.3.2-.3l49.4-16.4c.1 0 .3 0 .4.1l25.3 32.2c.1.1.1.3 0 .4 0-.1-.1 0-.2 0zm-73.5-16.2l72.7 15.3L417.2 5l-48 15.9z"/><path d="M399.2 84.7c-.2 0-.2-.1-.3-.2l-31.3-63.4c-.1-.1 0-.2 0-.3.1-.1.2-.1.3-.1l74.7 15.7c.1 0 .2.1.2.2s0 .2-.1.3l-43.4 47.7c.1.1 0 .1-.1.1zm-30.7-63.2l30.8 62.4 42.7-47-73.5-15.4z"/><path d="M518.9 136.9c-.1 0-.2 0-.3-.1L442.3 37c-.1-.1-.1-.3 0-.4.1-.1.3-.1.4 0l127 99.4c.1.1.2.2.1.4 0 .1-.2.2-.3.2l-50.6.3zm-74.4-98.3l74.6 97.6 49.4-.2-124-97.4z"/><path d="M518.9 136.9h-.1L399.1 84.7c-.1 0-.2-.1-.2-.2s0-.2.1-.3l43.4-47.7c.1-.1.2-.1.3-.1.1 0 .2.1.2.1l76.3 99.8c.1.1.1.3 0 .4-.1.1-.2.2-.3.2zM399.8 84.3l118.1 51.5-75.3-98.5-42.8 47zM703.1 411.2h-.1L639.6 389c-.1 0-.2-.1-.2-.2s0-.2.1-.3l47.5-45.7c.1-.1.2-.1.3-.1.1 0 .2.1.2.2l15.9 68c0 .1 0 .2-.1.3h-.2zm-62.8-22.7l62.4 21.8-15.7-66.7-46.7 44.9z"/><path d="M675.5 486.4c-.1 0-.3-.1-.3-.2l-35.8-97.4c0-.1 0-.3.1-.3.1-.1.2-.1.3-.1l63.5 22.2c.1 0 .1.1.2.2v.3l-27.7 75.2c-.1 0-.2.1-.3.1zm-35.3-97.2l35.2 95.9 27.2-74.1-62.4-21.8zM641.7 160.2c-.1 0-.2 0-.2-.1l-85.5-80c-.1-.1-.1-.3 0-.4.1-.1.3-.2.4-.1l88.4 43.3c.1.1.2.2.2.3l-2.9 36.7c0 .1-.1.2-.2.3h-.2zM558 81.1l83.4 78.1 2.9-35.8L558 81.1z"/><path d="M687.9 235.4c-.1 0-.2-.1-.3-.2L641.4 160c0-.1-.1-.1 0-.2l2.9-36.7c0-.2.1-.3.3-.3.2 0 .3.1.4.2l43.2 112c.1.2 0 .3-.2.4h-.1zM642 159.8l44.3 72.1-41.4-107.3-2.9 35.2z"/><path d="M641.7 160.2h-.1l-72.2-23.6c-.1 0-.2-.1-.2-.2L555.9 80c0-.1 0-.3.2-.4.1-.1.3-.1.4 0l85.5 80c.1.1.1.3.1.4-.2.1-.3.2-.4.2zm-72-24.2l70.6 23-83.6-78.3 13 55.3z"/><path d="M696.4 294.5c-.1 0-.2-.1-.3-.2L641.4 160c-.1-.2 0-.3.2-.4.1-.1.3 0 .4.1l46.2 75.2v.1l8.5 59.1c0 .2-.1.3-.3.4zm-52.9-131.1l52.2 128.2-8.1-56.4-44.1-71.8zM199.6 44.8c-.1 0-.3-.1-.3-.3 0-.2 0-.3.2-.4l100.8-37c.2-.1.3 0 .4.2.1.1 0 .3-.1.4l-46.4 30.9s-.1 0-.1.1l-54.5 6.1zm98.3-36.1l-95.7 35.1 51.6-5.8 44.1-29.3z"/><path d="M696.4 294.5c-.1 0-.2 0-.2-.1l-61.6-69c-.1-.1-.1-.2-.1-.3l6.9-65.3c0-.1.1-.3.3-.3.1 0 .3.1.3.2L696.7 294c.1.1 0 .3-.1.4-.1.1-.2.1-.2.1zm-61.3-69.4l60.2 67.5-53.5-131.4-6.7 63.9z"/><path d="M687.2 343.3c-.1 0-.2-.1-.3-.2l-52.4-117.8c-.1-.1 0-.3.1-.4.1-.1.3-.1.4.1l61.6 69c.1.1.1.2.1.3l-9.2 48.7c0 .1-.1.2-.3.3zm-51.3-116.4L687 341.8l8.9-47.6-60-67.3zM399.2 84.7l-84.9-1.3c-.2 0-.3-.1-.3-.3l-8.4-55.6c0-.1 0-.2.1-.3.1-.1.2-.1.3 0l93.4 56.9c.1.1.2.2.1.4 0 .1-.1.2-.3.2zm-84.6-1.9l83.5 1.3-91.8-55.9 8.3 54.6z"/><path d="M314.3 83.4c-.1 0-.1 0-.2-.1l-60.3-44.7c-.1-.1-.2-.2-.1-.3 0-.1.1-.2.3-.2l51.9-10.8c.1 0 .2 0 .3.1.1.1.1.1.1.2l8.4 55.6c0 .1 0 .3-.2.3-.1-.1-.1-.1-.2-.1zm-59.5-44.9l59.1 43.8-8.3-54.4-50.8 10.6z"/><path d="M228.9 111.5c-.1 0-.2 0-.2-.1-.1-.1-.1-.2-.1-.3l25-72.8c0-.1.1-.2.2-.2h.3l60.3 44.7c.1.1.1.2.1.3 0 .1-.1.2-.2.3L229 111.5h-.1zm25.2-72.6l-24.7 71.8L313.6 83l-59.5-44.1zM556.2 80.2c-.1 0-.1 0-.2-.1L466.6 14c-.1-.1-.2-.3-.1-.4.1-.1.3-.2.4-.1l76.4 31.7c.1 0 .1.1.2.2l13 34.3c.1.1 0 .3-.1.4-.1.1-.2.1-.2.1zm-87.1-65.1l86.4 63.8-12.6-33.2-73.8-30.6z"/><path d="M556.2 80.2h-.1L442.5 37c-.1 0-.2-.1-.2-.2s0-.2.1-.3l24.1-23c.1-.1.3-.1.4 0l89.4 66.1c.1.1.2.3.1.4 0 .1-.1.2-.2.2zM443.3 36.6l110.8 42.1-87.3-64.5-23.5 22.4z"/><path d="M442.7 37.1c-.1 0-.1 0 0 0-.1 0-.2-.1-.3-.1L417.1 4.8c-.1-.1-.1-.3 0-.4.1-.1.2-.2.3-.2l49.4 9.2c.1 0 .2.1.3.2 0 .1 0 .2-.1.3l-24.1 23-.2.2zm-24.6-32l24.6 31.2L466.1 14l-48-8.9zM166.1 88.5c-.1 0-.2 0-.2-.1-.1-.1-.1-.3 0-.4l33.5-43.8c.1-.1.1-.1.2-.1L254 38c.2 0 .3.1.3.2s0 .3-.1.4l-87.8 49.8c-.2.1-.2.1-.3.1zm33.7-43.7l-32.4 42.4 85.1-48.3-52.7 5.9z"/><path d="M228.9 111.5h-.1l-62.8-23c-.1 0-.2-.2-.2-.3 0-.1.1-.2.2-.3l87.8-49.8c.1-.1.3-.1.4 0 .1.1.1.2.1.4l-25 72.8c0 .1-.1.2-.2.2h-.2zm-62-23.4l61.8 22.6L253.3 39l-86.4 49.1z"/><path d="M114.8 105.1c-.1 0-.2-.1-.3-.2-.1-.1 0-.3.1-.4l84.8-60.3c.1-.1.3-.1.4 0 .1.1.1.3 0 .4l-33.5 43.8c0 .1-.1.1-.2.1l-51.3 16.6zM198 46l-81.4 57.9L165.8 88 198 46zM644.903 122.896l58.374 83.64-.574.4-58.374-83.64zM621.3 641.2h-.2c-.1-.1-.2-.3-.1-.4l37.1-80.9.1-.1 48.7-37.7c.1-.1.3-.1.4 0 .1.1.1.3 0 .4L621.5 641c0 .1-.1.2-.2.2zm37.4-81L623 638l82.5-114-46.8 36.2z"/><path d="M29.1 229.9c-.1 0-.2 0-.2-.1-.1-.1-.2-.3-.1-.4l85.6-124.8c.1-.1.3-.2.4-.1.1.1.2.2.2.4l-21.6 64.5c0 .1 0 .1-.1.1l-64.1 60.2c.1.1 0 .2-.1.2zm84.6-123L31.1 227.3l61.8-58.1 20.8-62.3z"/><path d="M3.8 365.9l-.6-.1 25.7-136.3s0-.1.1-.1l85.6-124.8.5.4-85.7 124.7L3.8 365.9zM156.8 227.5c-.1 0-.2 0-.2-.1L93 169.6c-.1-.1-.1-.2-.1-.3 0-.1.1-.2.2-.2L228.8 111c.1-.1.3 0 .4.1.1.1.1.3 0 .4l-72.1 116c-.1-.1-.2 0-.3 0zm-63-58.1l62.9 57.2 71.4-114.8-134.3 57.6z"/><path d="M93.2 169.6H93c-.1-.1-.2-.2-.1-.4l21.6-64.5c0-.1.1-.2.2-.2L166 87.9c.1 0 .3 0 .4.1.1.1.1.3 0 .4l-72.9 81.1c-.1.1-.2.1-.3.1zM115 105l-21 62.9 71.1-79L115 105z"/><path d="M93.2 169.6c-.1 0-.2 0-.3-.1-.1-.1-.1-.3 0-.4l73-81.1c.1-.1.2-.1.4-.1l62.8 23c.1 0 .2.2.2.3 0 .1-.1.3-.2.3L93.4 169.6h-.2zm73-81l-71.8 79.8L228 111.2l-61.8-22.6zM621.3 641.2h-.2L591 624.9c-.1 0-.2-.1-.2-.2s0-.2.1-.3l67.2-64.6c.1-.1.3-.1.4 0 .1.1.2.3.1.4l-37 80.8c0 .1-.1.1-.2.2h-.1zm-29.6-16.7l29.4 15.9 36.3-79-65.7 63.1z"/><path d="M528.8 678.1c-.1 0-.2-.1-.3-.2-.1-.1-.1-.3.1-.4l62.4-53.2c.1-.1.2-.1.4 0l30.1 16.3c.1.1.2.2.2.3 0 .1-.1.2-.2.3L529 678.1h-.2zm62.4-53.1l-60.7 51.8 90-36-29.3-15.8z"/><path d="M491.1 719.4c-.1 0-.2 0-.3-.1-.1-.1-.1-.3 0-.4l37.7-41.2.1-.1 92.5-36.9c.2-.1.3 0 .4.2.1.2 0 .3-.1.4l-130.2 78.2c0-.1-.1-.1-.1-.1zm37.9-41.3l-36.1 39.5 124.8-75-88.7 35.5zM370.7 715.7c-.1 0-.2-.1-.3-.2L332.1 642c-.1-.1 0-.3 0-.4.1-.1.2-.1.3-.1l75.6 19.9c.1 0 .2.1.2.2v.3L371 715.6c-.1.1-.2.1-.3.1zM333 642.4l37.7 72.4 36.7-52.8-74.4-19.6zM591.2 624.9c-.1 0-.1 0-.2-.1s-.2-.3-.1-.4l84.3-138.5c.1-.1.3-.2.4-.1.1.1.2.2.2.4l-17.1 73.9c0 .1 0 .1-.1.2l-67.2 64.6h-.2zM674.7 488l-81.9 134.6 65.3-62.8 16.6-71.8z"/><path d="M591.2 624.9c-.2 0-.3-.1-.3-.2l-13.5-42.3c0-.1 0-.2.1-.3l97.8-96.2c.1-.1.3-.1.4 0 .1.1.2.3.1.4l-84.3 138.5c-.1.1-.2.1-.3.1zM578 582.4l13.3 41.4 82.5-135.7-95.8 94.3zM410.1 738.6h-.2l-39.4-22.9c-.1-.1-.2-.2-.1-.4 0-.1.2-.2.3-.2l120.4 3.6c.2 0 .3.1.3.3 0 .2-.1.3-.2.3l-81.1 19.3zM372 715.8l38.1 22.2 78.5-18.6-116.6-3.6zM177.9 685.3c-.1 0-.1 0-.2-.1l-75.3-60.4c-.1-.1-.2-.3-.1-.4.1-.1.2-.2.4-.2l36 9.7c.1 0 .1.1.2.1l39.3 50.7c.1.1.1.3 0 .4-.2.2-.2.2-.3.2zm-73.9-60l71.9 57.7-37.6-48.5-34.3-9.2zM15.9 463.8c-.2 0-.3-.1-.3-.3L3.1 365.9c0-.2.1-.3.3-.4l23.3-3.1c.1 0 .2 0 .3.1.1.1.1.2.1.3L16.2 463.5c0 .2-.2.3-.3.3zM3.8 366.1l12 94.6L26.3 363l-22.5 3.1z"/><path d="M26.7 363c-.1 0-.2 0-.3-.1-.1-.1-.1-.2-.1-.3L53 257.8c0-.1.2-.2.3-.2.1 0 .3.1.3.2L88 360.3v.3c-.1.1-.2.1-.3.1l-61 2.3zm26.7-104L27.1 362.3l60.2-2.3-33.9-101z"/><path d="M53.3 258.2c-.1 0-.2 0-.2-.1l-24.2-28.3c-.1-.1-.1-.3 0-.4L93 169.1c.1-.1.3-.1.4 0 .1.1.2.3.1.4L53.6 258c0 .1-.1.2-.3.2zm-23.7-28.6l23.6 27.7 39-86.6-62.6 58.9z"/><path d="M26.7 363c-.2 0-.3-.2-.3-.3l2.4-133.1c0-.1.1-.3.2-.3s.3 0 .4.1l24.2 28.3c.1.1.1.2.1.3L27 362.8c0 .1-.1.2-.3.2zm2.7-132.6l-2.3 129.5 25.9-102-23.6-27.5z"/><path d="M3.5 366.1c-.1 0-.2 0-.2-.1-.1-.1-.1-.2-.1-.3l25.7-136.3c0-.2.2-.3.4-.3s.3.2.3.3l-2.4 133.1c0 .2-.1.3-.3.3l-23.4 3.3zm25.2-132.7l-24.9 132 22.5-3 2.4-129zM177.9 685.3c-.1 0-.2 0-.3-.1l-39.3-50.7c-.1-.1-.1-.3 0-.4.1-.1.3-.1.4-.1l60.5 39.1c.1.1.2.2.1.3 0 .1-.1.2-.2.3L178 685.3h-.1zM140 635.6l38 49 20.4-11.2-58.4-37.8z"/><path d="M226.4 706.1h-.1l-48.5-20.8c-.1 0-.2-.2-.2-.3 0-.1.1-.2.2-.3l21.2-11.6c.1-.1.3 0 .4.1l27.4 32.4c.1.1.1.3 0 .4-.2.1-.3.1-.4.1zM178.6 685l46.7 20-26.3-31.2-20.4 11.2z"/><path d="M199 673.7c-.1 0-.1 0-.2-.1l-60.5-39.1-.1-.1-45.8-91.5c-.1-.1 0-.3.1-.4.1-.1.3-.1.4.1l106.3 130.6c.1.1.1.3 0 .4 0 .1-.1.1-.2.1zm-60.2-39.6l58.7 38L94.3 545.3l44.5 88.8zM41 463.5c-.2 0-.3-.1-.3-.3L26.4 362.7c0-.1 0-.2.1-.3.1-.1.1-.1.2-.1l61-2.3c.1 0 .2.1.3.1.1.1.1.2 0 .3L41.3 463.3c-.1.1-.2.2-.3.2zM27.1 363l14.1 99 46.1-101.3-60.2 2.3z"/><path d="M92.7 543.1c-.1 0-.2-.1-.3-.1l-51.7-79.6c-.1-.1-.1-.2 0-.3l46.7-102.8c.1-.1.2-.2.4-.2.1 0 .3.2.3.3l5 182.4c0 .1-.1.2-.4.3.1 0 .1 0 0 0zm-51.3-80l51 78.5-4.9-179.9-46.1 101.4z"/><path d="M15.9 463.8c-.1 0-.2 0-.2-.1-.1-.1-.1-.2-.1-.3l10.8-100.8c0-.2.2-.3.3-.3.2 0 .3.1.3.3l14.3 100.5c0 .1 0 .2-.1.3-.1.1-.1.1-.2.1l-25.1.3zm10.9-98.5l-10.5 97.9 24.4-.3-13.9-97.6zM53.3 258.2c-.1 0-.2 0-.2-.1-.1-.1-.1-.2-.1-.3l39.9-88.5c0-.1.1-.2.2-.2s.2 0 .3.1L157 227c.1.1.1.2.1.3 0 .1-.1.2-.2.2L53.3 258.2c.1 0 0 0 0 0zm40-88.3l-39.4 87.5L156.2 227l-62.9-57.1z"/><path d="M87.8 360.7c-.1 0-.1 0 0 0-.2 0-.3-.1-.3-.2L53 258v-.3c0-.1.1-.1.2-.2l103.5-30.7c.1 0 .3 0 .3.1.1.1.1.2 0 .4L88 360.5c0 .1-.1.2-.2.2zM53.7 258.1l34.1 101.4 68.3-131.8-102.4 30.4zM591.2 624.9l-94-9.3c-.1 0-.3-.1-.3-.3 0-.1.1-.3.2-.3l80.4-33h.3c.1 0 .1.1.2.2l13.5 42.3c0 .1 0 .2-.1.3 0 .1-.1.1-.2.1zm-92.6-9.8l92.2 9.1-13.3-41.5-78.9 32.4zM410.1 738.6l-98.8-6.8c-.2 0-.3-.1-.3-.3 0-.2.1-.3.2-.3l59.4-16.1h.2l39.4 22.9c.1.1.2.2.1.4 0 .1-.1.2-.2.2zm-96.8-7.3l95.4 6.6-38-22.1-57.4 15.5zM138.5 634.6l-36-9.7c-.1 0-.1-.1-.2-.1l-39.8-55c-.1-.1-.1-.3 0-.4.1-.1.3-.1.4 0l75.7 64.7c.1.1.1.3.1.4.1 0-.1.1-.2.1zm-35.7-10.3l34.4 9.3-72.6-62 38.2 52.7z"/><path d="M62.8 569.9h-.1c-.1 0-.2-.1-.2-.2L40.7 463.2c0-.2.1-.3.2-.4.1-.1.3 0 .4.1L93 542.6c.1.1.1.3-.1.4L63 569.8c0 .1-.1.1-.2.1zM41.7 464.8L63 569l29.3-26.3-50.6-77.9z"/><path d="M62.8 569.9c-.1 0-.2-.1-.3-.2L15.6 463.6v-.3c.1-.1.2-.1.3-.1l25.1-.4c.2 0 .3.1.3.3l21.8 106.4c.1.2 0 .4-.3.4.1 0 0 0 0 0zM16.4 463.8l45.5 102.9-21.2-103.2-24.3.3z"/><path d="M138.5 634.6c-.1 0-.2 0-.2-.1l-75.7-64.7c-.1-.1-.1-.1-.1-.2s0-.2.1-.2l29.9-26.8c.1-.1.2-.1.3-.1.1 0 .2.1.2.2l45.8 91.5c.1.1 0 .3-.1.4h-.2zm-75.2-65l74.2 63.4-44.9-89.7-29.3 26.3z"/><path d="M92.7 543.1h-.1c-.1-.1-.2-.2-.2-.3l-5-182.4c0-.1.1-.3.2-.3.1-.1.3 0 .4.1l111.4 103.5c.1.1.1.2.1.3 0 .1-.1.2-.1.2L92.9 543c0 .1-.1.1-.2.1zm-4.6-182l4.9 181 105.6-78.3L88.1 361.1z"/><path d="M184 566.7c-.1 0-.1 0 0 0l-91.3-23.6c-.1 0-.2-.1-.2-.3 0-.1 0-.2.1-.3L199 463.6c.1-.1.2-.1.4 0 .1.1.2.2.2.3l-15.2 102.5c0 .1-.1.2-.1.2-.2 0-.3.1-.3.1zm-90.5-24.1l90.2 23.3 15-101.4-105.2 78.1zM271.6 708.8l-45.2-2.7c-.1 0-.2 0-.2-.1l-27.4-32.4c-.1-.1-.1-.3 0-.4.1-.1.3-.2.4-.1l72.6 35.1c.1.1.2.2.2.4-.1.1-.2.2-.4.2zm-45-3.3l43.4 2.6-69.7-33.7 26.3 31.1z"/><path d="M311.3 731.8l-85-25.7c-.2 0-.3-.2-.2-.4 0-.2.2-.3.3-.3l45.2 2.7h.1l39.7 23c.1.1.2.3.1.4.1.3 0 .3-.2.3zm-82.1-25.5l79.6 24.1-37.2-21.6-42.4-2.5z"/><path d="M311.3 731.8h-.2l-39.7-23c-.1-.1-.2-.2-.1-.4 0-.1.2-.2.3-.2l99.1 6.9c.2 0 .3.1.3.3 0 .2-.1.3-.2.3l-59.5 16.1c.1 0 .1 0 0 0zM273 708.9l38.4 22.2 57.4-15.6-95.8-6.6z"/><path d="M370.7 715.7h-.1l-127.2-65.5c-.1-.1-.2-.2-.2-.4 0-.1.1-.2.3-.3l88.9-8c.1 0 .3.1.3.2l38.3 73.5c.1.1 0 .3-.1.4 0 .1-.1.1-.2.1zm-126.1-65.6l125.3 64.5-37.7-72.4-87.6 7.9z"/><path d="M243.5 650.2c-.1 0-.1 0-.2-.1L92.5 543c-.1-.1-.2-.3-.1-.4.1-.1.2-.2.4-.2L184 566c.1 0 .1.1.2.1l59.5 83.6c.1.1.1.3 0 .4-.1.1-.1.1-.2.1zM94.4 543.5l147.7 105-58.3-81.9-89.4-23.1z"/><path d="M199 673.7c-.1 0-.2 0-.3-.1L92.5 543c-.1-.1-.1-.3 0-.4.1-.1.3-.1.4 0l150.7 107.1c.1.1.1.2.1.3 0 .1-.1.2-.2.3l-44.4 23.5c0-.1 0-.1-.1-.1zM94.5 544.4L199.1 673l43.7-23.1L94.5 544.4z"/><path d="M370.7 715.7l-99.1-6.9c-.1 0-.2-.1-.3-.2L243.2 650c-.1-.1 0-.3.1-.4.1-.1.2-.1.4-.1L370.9 715c.1.1.2.2.2.4-.1.2-.3.3-.4.3zm-98.9-7.5l97.3 6.8-125-64.3 27.7 57.5z"/><path d="M271.6 708.8h-.1l-72.6-35.1c-.1-.1-.2-.2-.2-.3 0-.1.1-.2.2-.3l44.4-23.5h.3c.1 0 .2.1.2.2l28.2 58.6c.1.1 0 .3-.1.4h-.3zm-71.8-35.4l71.2 34.4-27.6-57.5-43.6 23.1zM447.7 692.5c-.1 0-.2 0-.2-.1-.1-.1-.1-.3 0-.4l49.5-76.9c.1-.1.2-.2.3-.1l94 9.3c.1 0 .3.1.3.3 0 .1 0 .3-.2.3l-143.5 67.6h-.2zm49.7-76.9l-48.8 75.8L590 624.8l-92.6-9.2z"/><path d="M447.7 692.5c-.1 0-.3-.1-.3-.2 0-.2 0-.3.2-.4l143.5-67.6c.1-.1.3 0 .4.1.1.1.1.3-.1.4L529 678.1s-.1.1-.2.1l-81.1 14.3zm141.4-66.6L450 691.4l78.6-13.9 60.5-51.6z"/><path d="M447.7 692.5c-.1 0-.1 0-.2-.1L407.8 662c-.1-.1-.1-.2-.1-.3 0-.1.1-.2.2-.3l89.2-46.5c.1-.1.3 0 .4.1.1.1.1.3 0 .4l-49.5 77c-.1 0-.2.1-.3.1zm-39.1-30.6l39 29.8 48.7-75.6-87.7 45.8z"/><path d="M370.7 715.7c-.1 0-.2 0-.3-.1-.1-.1-.1-.3 0-.4l37.3-53.6c.1-.1.1-.1.2-.1s.2 0 .2.1l39.7 30.4c.1.1.1.2.1.3 0 .1-.1.2-.2.3l-77 23.1c.1 0 0 0 0 0zm37.4-53.4l-36.6 52.5L447 692l-38.9-29.7z"/><path d="M491.1 719.4h-.2l-43.4-26.9c-.1-.1-.2-.2-.1-.3 0-.1.1-.2.3-.3l81.1-14.4c.1 0 .3 0 .3.2.1.1 0 .3 0 .4l-37.7 41.2c-.1 0-.2.1-.3.1zm-42.5-27l42.5 26.3 36.9-40.3-79.4 14z"/><path d="M491.1 719.4l-120.4-3.6c-.2 0-.3-.1-.3-.3 0-.2.1-.3.2-.4l77-23.2h.3l43.4 26.9c.1.1.2.2.1.4 0 .1-.2.2-.3.2zm-118.4-4.3l117.2 3.6-42.2-26.1-75 22.5z"/></g><g fill="#292929"><circle cx="509.3" cy="200.5" r="5.1"/><circle cx="615.2" cy="484.9" r="3.8"/><circle cx="458.9" cy="538.7" r="3.8"/><circle cx="184.9" cy="348.7" r="6.4"/><circle cx="304.7" cy="468" r="3.4"/><circle cx="335" cy="177.4" r="3.2"/><circle cx="596.6" cy="296.6" r="3.6"/><circle cx="438.5" cy="241.7" r="5.4"/><circle cx="523.4" cy="417.4" r="4.1"/><circle cx="490.8" cy="329.8" r="4.9"/><circle cx="414.6" cy="429.3" r="3.3"/><circle cx="322.4" cy="337.3" r="3.3"/><circle cx="267.9" cy="567.4" r="5.9"/><circle cx="723.8" cy="254" r="3.7"/><circle cx="581.7" cy="64.2" r="3.5"/><circle cx="737.2" cy="325.4" r="2.7"/><circle cx="741.4" cy="398.2" r="3.5"/><circle cx="367.9" cy="21" r="3.7"/><circle cx="518.9" cy="136.5" r="2.9"/><circle cx="639.7" cy="388.7" r="2.8"/><circle cx="703.1" cy="410.9" r="4.8"/><circle cx="569.5" cy="136.3" r="5.4"/><circle cx="687.9" cy="235.1" r="5.3"/><circle cx="300.4" cy="7.4" r="3.2"/><circle cx="641.7" cy="159.9" r="3.2"/><circle cx="634.8" cy="225.2" r="5.3"/><circle cx="687.2" cy="342.9" r="4.7"/><circle cx="696.4" cy="294.2" r="2.7"/><circle cx="399.2" cy="84.4" r="2.9"/><circle cx="305.9" cy="27.5" r="4.4"/><circle cx="314.3" cy="83.1" r="3.7"/><circle cx="543.2" cy="45.5" r="3.1"/><circle cx="556.2" cy="79.9" r="3"/><circle cx="466.8" cy="13.8" r="2.7"/><circle cx="442.7" cy="36.7" r="4.7"/><circle cx="417.3" cy="4.6" r="4.6"/><circle cx="254" cy="38.4" r="4.5"/><circle cx="199.6" cy="44.5" r="4.5"/><circle cx="644.6" cy="123.1" r="5.4"/><circle cx="703" cy="206.8" r="4.1"/><circle cx="707.1" cy="522.3" r="3.1"/><circle cx="114.8" cy="104.8" r="3.2"/><circle cx="166.1" cy="88.2" r="2.7"/><circle cx="228.9" cy="111.2" r="2.8"/><circle cx="621.3" cy="640.9" r="4.3"/><circle cx="658.4" cy="560" r="4.8"/><circle cx="675.5" cy="486.1" r="3"/><circle cx="29.1" cy="229.5" r="5.3"/><circle cx="3.5" cy="365.8" r="3.5"/><circle cx="177.9" cy="685" r="5"/><circle cx="26.7" cy="362.7" r="4.5"/><circle cx="93.2" cy="169.3" r="5.1"/><circle cx="156.8" cy="227.2" r="4.5"/><circle cx="53.3" cy="257.9" r="3.5"/><circle cx="577.7" cy="582.3" r="3.2"/><path d="M406.5 735.6c-1.5 2-1.1 4.8.8 6.3 2 1.5 4.8 1.1 6.3-.8 1.5-2 1.1-4.8-.8-6.3-2-1.6-4.8-1.2-6.3.8z"/><circle cx="102.6" cy="624.6" r="4"/><circle cx="15.9" cy="463.5" r="3.5"/><circle cx="41" cy="463.2" r="3.5"/><circle cx="62.8" cy="569.6" r="5"/><circle cx="138.5" cy="634.3" r="4.9"/><circle cx="87.8" cy="360.3" r="5"/><circle cx="199.2" cy="463.8" r="4.3"/><circle cx="226.4" cy="705.8" r="3.2"/><circle cx="311.3" cy="731.5" r="4.8"/><circle cx="332.4" cy="641.9" r="4.7"/><circle cx="184" cy="566.3" r="3.3"/><circle cx="92.7" cy="542.8" r="3.2"/><circle cx="243.5" cy="649.9" r="4"/><circle cx="199" cy="673.4" r="3.1"/><circle cx="271.6" cy="708.5" r="4.2"/><circle cx="591.2" cy="624.6" r="3"/><circle cx="497.2" cy="615.3" r="4"/><circle cx="408" cy="661.8" r="2.9"/><circle cx="528.8" cy="677.8" r="5.3"/><circle cx="447.7" cy="692.2" r="3.6"/><circle cx="370.7" cy="715.4" r="3.7"/><circle cx="491.1" cy="719.1" r="5.5"/></g></svg>