<?xml version="1.0" encoding="utf-8"?>
<!-- Generator: Adobe Illustrator 17.1.0, SVG Export Plug-In . SVG Version: 6.00 Build 0)  -->
<!DOCTYPE svg PUBLIC "-//W3C//DTD SVG 1.1//EN" "http://www.w3.org/Graphics/SVG/1.1/DTD/svg11.dtd">
<svg version="1.1" id="Layer_1" xmlns="http://www.w3.org/2000/svg" xmlns:xlink="http://www.w3.org/1999/xlink" x="0px" y="0px"
	 width="226.3px" height="38.3px" viewBox="0 0 226.3 38.3" enable-background="new 0 0 226.3 38.3" xml:space="preserve">
<g id="subtitle" enable-background="new    ">
	<path fill="#DEDDDD" d="M55.1,33.2c-1.3,1.4-2,1.9-2.5,1.9s-1.1-1-1-1.5c0.1-0.3-0.2-0.4,3.5-4.5c0.1-0.2,0.4-0.4,0.4-0.6
		s-0.2-0.3-0.4-0.3c-0.7,0-2.9,1-3.5,1.4c-0.2,0.1-0.5,0.3-0.8,0.3c-0.1,0-0.6-0.2,0.1-1.6c0.2-0.4,0.4-0.5,0.7-0.8l0.8-0.6
		c0.1-0.1,0.2-0.1,0.3-0.1c0,0,0.1,0,0,0.2l-0.3,0.4l0,0c1-0.3,2-0.8,3.1-0.8c0.4,0,0.7,0,1,0.3c0.2,0.3,0.4,0.9,0.4,1.2
		c0,0.4-0.1,1-3.3,4.7c-0.3,0.3-0.1,0.4,0,0.4c0.1,0.1,2.2-1.7,5-4.9c0.3-0.3,0.8-1.1,1.4-1.1c0.3,0,0.5,0.6,0.5,0.8
		c0,0.2-0.3,0.6-0.4,0.7c-0.5,0.7-2.7,3.9-2.7,4.7c0,0.1,0.1,0.2,0.2,0.2c1-0.5,2.9-2.3,4-4.6c0-0.1-0.1-0.3-0.1-0.4
		c0-0.4,0.7-1.2,0.9-1.2s0.3,0.5,0.3,0.6c-0.1,2.7-3.5,6.8-5,7c-0.4,0.1-1.3-0.5-1.3-1.2s0.5-1.8,0.7-2.5l0,0L55.1,33.2z"/>
	<path fill="#DEDDDD" d="M65.7,33.2c-0.7,0.9-2.1,2-3.2,2c-0.9,0-1.3-0.8-1.3-1.6c0-1.6,1.7-3.2,3.2-3.2c0.4,0,0.9,0.1,0.9,0.6
		c0,0.6-0.6,1.5-2.9,2.2v0.3c0,0.5,0.4,0.6,0.7,0.6c0.9,0,1.9-0.9,2.5-1.4L65.7,33.2z M64.2,31.2c0-0.1-0.1-0.2-0.1-0.1
		c-0.6,0.2-1.3,0.7-1.6,1.5C63.5,32.3,64.2,31.4,64.2,31.2z"/>
	<path fill="#DEDDDD" d="M66.5,32.7c-0.2,0.8,0.1,1.4,0.5,1.3c0.4-0.1,0.6-0.4,0.8-0.6c-0.1-0.2-0.2-0.3-0.2-0.5
		c0-0.7,1-1.9,1.7-1.9c0.3,0,0.4,0.3,0.4,0.5c0,0.5-0.4,1.1-0.6,1.5c0.5,0.1,0.9-0.2,1.3-0.4l0.1,0.4c-0.5,0.6-1.2,0.8-1.9,0.8
		c-0.5,0.5-1.4,1.3-2.1,1.3c-0.8,0-0.9-1.2-0.9-1.7c0-1.5,0.7-2.8,1.7-3.9c1-1.2,2.9-2.6,3.4-2.6c0.2,0,0.3,0.2,0.3,0.4
		c0,1.1-1.8,2.9-2.5,3.6L66.5,32.7z M66.9,31.4L66.9,31.4c2.5-2.5,2.8-3.2,3-3.6l0,0C68.7,28.8,67.6,30,66.9,31.4z"/>
	<path fill="#DEDDDD" d="M79.5,28.4c-0.9,0.1-1.8,0.3-2.6,0.6l0,0h0.3c0.1,0,0.6,0,0.6,0.1s-0.3,0.2-0.4,0.2c-0.6,0.1-1.4,0.5-2,0.5
		c-0.3,0-0.5-0.1-0.5-0.4c0-0.2,0.1-0.6,0.2-0.8c0.2-0.6,0.6-0.9,1.1-1.2c1.1-0.5,2.8-0.8,4.1-0.8c0.9,0,2.1,0.1,2.9,0.6
		c0.9,0.6,1.3,1.6,1.3,2.7c0,1.7-1.4,3.1-2.8,3.9c-1.3,0.7-3.5,1.3-5,1.3c-0.3,0-0.8,0-1-0.1s-0.3-0.4-0.3-0.6
		c0-0.9,0.6-1.7,1.2-2.3L79.5,28.4z M77.1,32.7c-0.4,0.5-0.3,0.7-0.3,0.8s0.2,0.2,0.7,0.2c0.8,0,1.9-0.2,2.8-0.5
		c2.5-0.9,3.4-2.2,3.4-3.2c0-1.5-2.5-1.6-3.5-1.6c-0.1,0.4-0.2,0.6-0.4,0.9L77.1,32.7z"/>
	<path fill="#DEDDDD" d="M88.5,33.2c-0.7,0.9-2.1,2-3.2,2c-0.9,0-1.3-0.8-1.3-1.6c0-1.6,1.7-3.2,3.2-3.2c0.4,0,0.9,0.1,0.9,0.6
		c0,0.6-0.6,1.5-2.9,2.2v0.3c0,0.5,0.4,0.6,0.7,0.6c0.9,0,1.9-0.9,2.5-1.4L88.5,33.2z M87,31.2c0-0.1-0.1-0.2-0.1-0.1
		c-0.6,0.2-1.3,0.7-1.6,1.5C86.3,32.3,87,31.4,87,31.2z"/>
	<path fill="#DEDDDD" d="M92.5,32.9l0.1,0.5c-0.7,0.7-2,1.8-3,1.8c-0.8,0-1.7-0.5-1.9-1.4c-0.1,0.1-0.2,0.2-0.3,0.2
		c-0.1,0-0.2-0.1-0.2-0.2c0-0.2,0.2-0.3,0.3-0.4l2.6-2.4c0-0.4,0.3-0.8,0.7-0.8c0.4,0,0.4,0.1,0.5,0.4c0,0.5,0.2,0.9,0.2,1.4
		c0,1-0.8,1.7-1.6,2.2c0.8,0.1,1.2-0.2,1.8-0.7L92.5,32.9z M88.4,33.1c0.4,0,0.7,0.4,0.9,0.7c0.7-0.4,0.9-0.6,0.9-1.3
		c0-0.3-0.1-0.6-0.2-1L88.4,33.1z"/>
	<path fill="#DEDDDD" d="M96,33.4c-0.5,0.7-1.6,1.7-2.5,1.7c-0.7,0-1-0.8-1-1.4c0-1.5,1.5-2.9,2.2-2.9c0.2,0,0.5,0.1,0.5,0.3
		c0,0.6-1.2,1.7-1.7,2c-0.1,0.5,0.1,0.8,0.6,0.8c0.6,0,1.3-0.6,1.7-1L96,33.4z M94.9,30.1c0-0.5,0.6-0.9,1-0.9
		c0.2,0,0.4,0.2,0.4,0.4c0,0.5-0.4,1.1-1,1.1C95.1,30.6,94.9,30.4,94.9,30.1z"/>
	<path fill="#DEDDDD" d="M99.2,33.2L99.2,33.2c-0.5,0.5-1.7,1.5-2.4,1.5c-0.7,0-0.9-0.9-0.9-1.4c0-1.6,2.6-2.8,3.5-2.9
		c0.2,0,0.6,0,0.6,0.3c0,0.2-0.2,0.4-0.4,0.5L98.3,32c-0.8,0.4-1.6,0.7-1.5,1.6c0,0.1,0.1,0.1,0.2,0.1c0.3,0,1.1-0.3,1.5-0.7
		l1.3-1.4c0.1-0.1,0.3-0.3,0.5-0.3s0.5,0.4,0.5,0.6s-0.2,0.5-0.3,0.6l-0.9,1.7l0,0l1.8-1.3l0.1,0.5L99,35.3c-1.3,2-2.3,2.8-2.8,2.8
		c-0.2,0-0.3-0.1-0.3-0.3c0-0.9,1.8-2.4,2.5-2.9L99.2,33.2z"/>
	<path fill="#DEDDDD" d="M106.9,32.6l0.1,0.5c-0.6,0.6-1.9,2-2.7,2c-0.5,0-0.7-0.4-0.7-0.8c0-0.7,0.6-1.5,1-2.1l0,0
		c-0.7,0.5-1.3,1.1-1.8,1.8c-0.2,0.2-0.6,0.8-0.9,0.8c-0.5,0-0.7-0.8-0.7-1.2c0-0.8,0.7-2,1.4-2.6c0.2-0.1,0.3-0.1,0.5-0.1
		c0.7,0,0.7,0.2,0.7,0.3c0,0.5-1.5,1.7-1.5,2c0,0.1,0.1,0.1,0.1,0.1c0.1,0,0.2-0.1,0.2-0.2c1-1.2,3.2-2.7,3.5-2.7
		c0,0,0.1,0.1,0.2,0.2c0.1,0.2,0.1,0.4,0.2,0.6c0,0.5-1.5,1.4-1.5,2.2c0,0.1,0.1,0.2,0.2,0.2c0.3,0,0.8-0.4,1-0.6L106.9,32.6z"/>
	<path fill="#DEDDDD" d="M111.3,33.2c-0.7,0.9-2.1,2-3.2,2c-0.9,0-1.3-0.8-1.3-1.6c0-1.6,1.7-3.2,3.2-3.2c0.4,0,0.9,0.1,0.9,0.6
		c0,0.6-0.6,1.5-2.9,2.2v0.3c0,0.5,0.4,0.6,0.7,0.6c0.9,0,1.9-0.9,2.5-1.4L111.3,33.2z M109.8,31.2c0-0.1-0.1-0.2-0.1-0.1
		c-0.6,0.2-1.3,0.7-1.6,1.5C109.1,32.3,109.8,31.4,109.8,31.2z"/>
	<path fill="#DEDDDD" d="M111.9,32.4c-0.4,0.7-0.9,1-1.4,1.5v-0.5c0.3-0.3,0.6-0.6,0.8-0.9c-0.3,0-0.3-0.1-0.3-0.4
		c0-0.9,1.2-1.7,1.5-1.7c0.1,0,0.2,0.1,0.2,0.2s0,0.2-0.1,0.3c1.1-0.2,1.8-0.3,1.9-0.2c0.2,0.2,0.3,0.4,0.3,0.6
		c0,0.4-0.2,0.6-0.5,0.8c-0.3,0.3-0.9,0.9-0.9,1.4c0,0.2,0.2,0.3,0.4,0.3c0.5,0,1.3-0.8,1.7-1.1l0.1,0.4c-0.5,0.5-1.8,1.8-2.5,1.8
		c-0.5,0-0.8-0.5-0.8-0.9c0-0.8,0.6-1.5,1.1-2l0,0L111.9,32.4z"/>
	<path fill="#DEDDDD" d="M123.6,30.5c0.1,0.5,0.3,1,0.6,1.5l1.9-1.5c0.1,0.3,0.2,0.6,0.2,0.9c0,0.7-0.9,1.3-1.3,1.7
		c0.1,0.2,0.2,0.3,0.4,0.3c0.1,0,0.3-0.1,0.3-0.1c0.1,0,0.2,0.1,0.2,0.2c0,0.3-0.7,1.5-1.1,1.5c-0.3,0-0.8-0.7-1-0.9
		c-0.8,0.5-1.6,1.1-2.6,1.1c-1.1,0-2-0.8-1.9-1.9c0.2-1.9,1.4-2.4,2.6-3.1c-0.3-1.9,1.8-3.4,3.3-3.4c0.6,0,1.2,0.5,1.2,1.1
		c0,0.7-0.5,1.2-1.1,1.6L123.6,30.5z M122.2,31.3c-0.6,0.2-1.7,1.3-1.7,1.9c0,0.2,0.4,0.2,0.6,0.2c0.6,0,1.2-0.3,1.8-0.6L122.2,31.3
		z M125.4,27.5c0-0.1-0.1-0.2-0.2-0.1c-1.3,0.2-1.5,1.2-1.8,2.1C124,29,125.4,28.2,125.4,27.5z"/>
	<path fill="#DEDDDD" d="M135.5,28.4c-0.9,0.1-1.8,0.3-2.6,0.6l0,0h0.3c0.1,0,0.6,0,0.6,0.1s-0.3,0.2-0.4,0.2
		c-0.6,0.1-1.4,0.5-2,0.5c-0.3,0-0.5-0.1-0.5-0.4c0-0.2,0.1-0.6,0.2-0.8c0.2-0.6,0.6-0.9,1.1-1.2c1.1-0.5,2.8-0.8,4.1-0.8
		c0.9,0,2.1,0.1,2.9,0.6c0.9,0.6,1.3,1.6,1.3,2.7c0,1.7-1.4,3.1-2.8,3.9c-1.3,0.7-3.5,1.3-5,1.3c-0.3,0-0.8,0-1-0.1
		s-0.3-0.4-0.3-0.6c0-0.9,0.6-1.7,1.2-2.3L135.5,28.4z M133.1,32.7c-0.4,0.5-0.3,0.7-0.3,0.8s0.2,0.2,0.7,0.2c0.8,0,1.9-0.2,2.8-0.5
		c2.5-0.9,3.4-2.2,3.4-3.2c0-1.5-2.5-1.6-3.5-1.6c-0.1,0.4-0.2,0.6-0.4,0.9L133.1,32.7z"/>
	<path fill="#DEDDDD" d="M144.5,33.2c-0.7,0.9-2.1,2-3.2,2c-0.9,0-1.3-0.8-1.3-1.6c0-1.6,1.7-3.2,3.2-3.2c0.4,0,0.9,0.1,0.9,0.6
		c0,0.6-0.6,1.5-2.9,2.2v0.3c0,0.5,0.4,0.6,0.7,0.6c0.9,0,1.9-0.9,2.5-1.4L144.5,33.2z M143,31.2c0-0.1-0.1-0.2-0.1-0.1
		c-0.6,0.2-1.3,0.7-1.6,1.5C142.3,32.3,143.1,31.4,143,31.2z"/>
	<path fill="#DEDDDD" d="M148.7,30.5c0.2,0,0.4,0.2,0.4,0.4c0,0.5-0.7,1.6-1,2c0.1,0.1,0.2,0.2,0.4,0.2c0.3,0,0.8-0.3,1-0.5l0.1,0.5
		c-0.4,0.5-0.9,0.9-1.5,0.9c-0.3,0-0.4-0.2-0.6-0.3c-0.3,0.4-1.5,1.4-2,1.4c-0.7,0-1.2-0.9-1.2-1.8c0-1.7,1.5-2.8,1.9-2.8
		c0.2,0,0.7,0,0.7,0.3c0,0.5-1.1,1.8-1.6,2.1c-0.1,0.2-0.2,0.5-0.2,0.7s0,0.5,0.3,0.5s1.3-0.9,1.5-1.1c0-0.6,0.3-1,0.6-1.4
		C147.8,31.2,148.3,30.5,148.7,30.5z"/>
	<path fill="#DEDDDD" d="M153.9,33.2c-0.7,0.9-2.1,2-3.2,2c-0.9,0-1.3-0.8-1.3-1.6c0-1.6,1.7-3.2,3.2-3.2c0.4,0,0.9,0.1,0.9,0.6
		c0,0.6-0.6,1.5-2.9,2.2v0.3c0,0.5,0.4,0.6,0.7,0.6c0.9,0,1.9-0.9,2.5-1.4L153.9,33.2z M152.4,31.2c0-0.1-0.1-0.2-0.1-0.1
		c-0.6,0.2-1.3,0.7-1.6,1.5C151.7,32.3,152.4,31.4,152.4,31.2z"/>
	<path fill="#DEDDDD" d="M157.6,33.2c-0.7,0.7-1.8,1.9-2.8,1.9c-0.9,0-1.1-0.9-1.1-1.6c0-1.3,0.5-2.6,1.3-3.6
		c1.1-1.3,2.2-2.4,2.6-2.4c0.2,0,0.3,0.3,0.2,0.4c-0.1,1.1-0.4,2.2-3,4.7c-0.1,0.2-0.1,0.5-0.1,0.8c0.1,0.3,0.3,0.5,0.6,0.5
		c0.7,0,1.6-0.8,2.1-1.2L157.6,33.2z M155.1,31.6c0.9-0.8,1.6-1.9,1.8-2.6C156.3,29.2,155.6,30.3,155.1,31.6L155.1,31.6z"/>
	<path fill="#DEDDDD" d="M162.2,33.2c-0.5,0.7-1.1,1-1.9,1c-0.5,0.5-1.1,0.9-1.8,0.9c-0.6,0-1.2-0.6-1.2-1.7c0-0.9,0.4-1.5,1.1-2
		c0.6-0.5,1.5-0.9,2.2-0.9c0.3,0,0.7,0.1,0.7,0.4c0,0.2-0.1,0.3-0.3,0.3c0.4,0.1,0.4,0.3,0.4,0.7c0,0.5-0.2,0.9-0.5,1.4
		c0.5,0.1,0.9-0.4,1.2-0.6L162.2,33.2z M158.6,32.6c-0.3,0.3-0.5,0.7-0.5,1.1c0,0.3,0.2,0.5,0.5,0.5c0.4,0,0.6-0.2,0.9-0.5
		c-0.1-0.2-0.1-0.3-0.1-0.6c0-0.6,0.6-1.4,0.5-1.4C159.5,32,158.9,32.2,158.6,32.6z"/>
	<path fill="#DEDDDD" d="M161.8,37c-0.1,0.2-0.3,0.5-0.5,0.5c-0.3,0-0.3-0.3-0.3-0.5c0-0.6,0.3-1.2,0.7-1.9c0.6-0.8,1.2-1.8,1.9-3.1
		l0,0l-1.9,1.8v-0.6l3.2-3.4c0.3-0.3,0.5-0.7,1-0.7c0.2,0,0.6,0.1,0.6,0.3c0,0.3-0.6,0.8-0.8,1c-0.4,0.4-0.8,0.9-1,1.4l0,0
		c0.5-0.4,1.7-1.2,2.4-1.2c0.3,0,0.5,0.3,0.5,0.6c0,0.7-0.6,1.5-1.9,2.7c1,0.1,1.3-0.1,2.6-1.2l0.1,0.6c-0.9,0.9-2,1.7-3.3,1.7
		c-0.3,0-0.6-0.1-0.9-0.2c-0.2,0-0.4,0.1-0.6,0.1c-0.2,0-0.3,0-0.5-0.1L161.8,37z M165.6,32.7c0.1-0.2,0.3-0.4,0.3-0.6
		c0-0.1,0-0.2-0.1-0.2c-0.2,0-0.8,0.4-0.9,0.5c-0.4,0.3-0.8,0.7-1.1,1.2c0.3,0,0.7,0,1,0.1L165.6,32.7z"/>
	<path fill="#DEDDDD" d="M172.4,33.2c-0.7,0.9-2.1,2-3.2,2c-0.9,0-1.3-0.8-1.3-1.6c0-1.6,1.7-3.2,3.2-3.2c0.4,0,0.9,0.1,0.9,0.6
		c0,0.6-0.6,1.5-2.9,2.2v0.3c0,0.5,0.4,0.6,0.7,0.6c0.9,0,1.9-0.9,2.5-1.4L172.4,33.2z M170.9,31.2c0-0.1-0.1-0.2-0.1-0.1
		c-0.6,0.2-1.3,0.7-1.6,1.5C170.2,32.3,170.9,31.4,170.9,31.2z"/>
	<path fill="#DEDDDD" d="M173.1,32.4c-0.4,0.7-0.9,1-1.4,1.5v-0.5c0.3-0.3,0.6-0.6,0.8-0.9c-0.3,0-0.3-0.1-0.3-0.4
		c0-0.9,1.2-1.7,1.5-1.7c0.1,0,0.2,0.1,0.2,0.2s0,0.2-0.1,0.3c1.1-0.2,1.8-0.3,1.9-0.2c0.2,0.2,0.3,0.4,0.3,0.6
		c0,0.4-0.2,0.6-0.5,0.8c-0.3,0.3-0.9,0.9-0.9,1.4c0,0.2,0.2,0.3,0.4,0.3c0.5,0,1.3-0.8,1.7-1.1l0.1,0.4c-0.5,0.5-1.8,1.8-2.5,1.8
		c-0.5,0-0.8-0.5-0.8-0.9c0-0.8,0.6-1.5,1.1-2l0,0L173.1,32.4z"/>
</g>
<g id="schneiderman">
	<path fill="#88E2CA" d="M77.3,14.1L78,13c0.2-0.3,0.5-0.3,0.6-0.1c0.1,0.1,1.6,1.2,2.8,1.2c1,0,1.7-0.6,1.7-1.4
		c0-1-0.8-1.6-2.4-2.3c-1.8-0.7-3.5-1.8-3.5-4.1c0-1.7,1.2-3.6,4.2-3.6c1.9,0,3.4,1,3.8,1.3c0.2,0.1,0.2,0.4,0.1,0.6l-0.7,1.1
		C84.5,5.8,84.2,6,84,5.8c-0.2-0.1-1.6-1-2.6-1c-1.1,0-1.7,0.7-1.7,1.3c0,0.9,0.7,1.5,2.2,2.1c1.8,0.7,3.9,1.8,3.9,4.3
		c0,1.9-1.7,3.7-4.3,3.7c-2.4,0-3.8-1.1-4.1-1.5C77.2,14.5,77.1,14.5,77.3,14.1z"/>
	<path fill="#88E2CA" d="M94.1,2.6c1.9,0,3.3,0.6,4.6,1.7c0.2,0.2,0.2,0.4,0,0.5L97.6,6c-0.1,0.2-0.3,0.2-0.5,0
		c-0.8-0.6-1.9-1-2.9-1C91.8,5,90,7,90,9.4s1.8,4.3,4.2,4.3c1.1,0,2.1-0.4,2.9-1.1c0.2-0.1,0.4-0.1,0.5,0l1.2,1.2
		c0.2,0.1,0.1,0.4,0,0.5c-1.3,1.2-2.9,1.8-4.6,1.8c-3.8,0-6.8-3-6.8-6.8C87.3,5.7,90.4,2.6,94.1,2.6z"/>
	<path fill="#88E2CA" d="M101.2,3.2c0-0.2,0.2-0.4,0.4-0.4h1.8c0.2,0,0.4,0.2,0.4,0.4v5h6.1v-5c0-0.2,0.2-0.4,0.4-0.4h1.7
		c0.2,0,0.4,0.2,0.4,0.4v12.5c0,0.2-0.2,0.4-0.4,0.4h-1.7c-0.2,0-0.4-0.2-0.4-0.4v-5.2h-6.1v5.2c0,0.2-0.2,0.4-0.4,0.4h-1.8
		c-0.2,0-0.4-0.2-0.4-0.4V3.2z"/>
	<path fill="#88E2CA" d="M115.6,3c0-0.2,0.2-0.3,0.4-0.3h0.5l7.8,8.3l0,0V3.2c0-0.2,0.2-0.4,0.4-0.4h1.7c0.2,0,0.4,0.2,0.4,0.4v12.7
		c0,0.2-0.2,0.3-0.4,0.3h-0.5L118,7.6l0,0v8.1c0,0.2-0.2,0.4-0.4,0.4H116c-0.2,0-0.4-0.2-0.4-0.4V3z"/>
	<path fill="#88E2CA" d="M130.2,3.2c0-0.2,0.2-0.4,0.4-0.4h7.7c0.2,0,0.4,0.2,0.4,0.4v1.5c0,0.2-0.2,0.4-0.4,0.4h-5.6v3.1h4.6
		c0.2,0,0.4,0.2,0.4,0.4v1.6c0,0.2-0.2,0.4-0.4,0.4h-4.6v3.3h5.6c0.2,0,0.4,0.2,0.4,0.4v1.5c0,0.2-0.2,0.4-0.4,0.4h-7.7
		c-0.2,0-0.4-0.2-0.4-0.4V3.2z"/>
	<path fill="#88E2CA" d="M141.2,3.2c0-0.2,0.2-0.4,0.4-0.4h1.8c0.2,0,0.4,0.2,0.4,0.4v12.5c0,0.2-0.2,0.4-0.4,0.4h-1.8
		c-0.2,0-0.4-0.2-0.4-0.4V3.2z"/>
	<path fill="#88E2CA" d="M147.1,3.2c0-0.2,0.2-0.4,0.3-0.4h4.5c3.6,0,6.6,3,6.6,6.6s-3,6.6-6.6,6.6h-4.5c-0.2,0-0.3-0.2-0.3-0.4V3.2
		z M151.7,13.7c2.4,0,4.2-1.8,4.2-4.3c0-2.4-1.8-4.3-4.2-4.3h-2.1v8.6H151.7z"/>
	<path fill="#88E2CA" d="M161,3.2c0-0.2,0.2-0.4,0.4-0.4h7.7c0.2,0,0.4,0.2,0.4,0.4v1.5c0,0.2-0.2,0.4-0.4,0.4h-5.6v3.1h4.6
		c0.2,0,0.4,0.2,0.4,0.4v1.6c0,0.2-0.2,0.4-0.4,0.4h-4.6v3.3h5.6c0.2,0,0.4,0.2,0.4,0.4v1.5c0,0.2-0.2,0.4-0.4,0.4h-7.7
		c-0.2,0-0.4-0.2-0.4-0.4V3.2z"/>
	<path fill="#88E2CA" d="M172.1,3.2c0-0.2,0.2-0.4,0.4-0.4h5.4c2.3,0,4.1,1.8,4.1,4c0,1.7-1.1,3.1-2.8,3.8l2.6,4.8
		c0.1,0.2,0,0.5-0.3,0.5h-2c-0.2,0-0.3-0.1-0.3-0.2l-2.5-5h-2.1v4.8c0,0.2-0.2,0.4-0.4,0.4h-1.7c-0.2,0-0.4-0.2-0.4-0.4V3.2z
		 M177.6,8.8c1,0,1.9-0.9,1.9-1.9s-0.9-1.8-1.9-1.8h-3.1v3.7H177.6z"/>
	<path fill="#88E2CA" d="M186,2.9c0-0.2,0.1-0.3,0.3-0.3h0.3c0.2,0,0.3,0.1,0.3,0.2l4.1,8.9c0,0,0,0,0.1,0l4.1-8.9
		c0.1-0.1,0.2-0.2,0.3-0.2h0.3c0.2,0,0.3,0.1,0.3,0.3l2.2,12.6c0.1,0.3-0.1,0.4-0.3,0.4h-1.7c-0.2,0-0.3-0.2-0.4-0.3l-1.1-7.1h-0.1
		l-3.3,7.4c0,0.1-0.2,0.2-0.3,0.2h-0.3c-0.2,0-0.3-0.1-0.3-0.2l-3.3-7.4c0,0,0,0-0.1,0l-1.1,7.1c0,0.1-0.2,0.3-0.3,0.3H184
		c-0.2,0-0.4-0.2-0.4-0.4L186,2.9z"/>
	<path fill="#88E2CA" d="M199.3,15.5l5.9-12.7c0.1-0.1,0.2-0.2,0.3-0.2h0.2c0.2,0,0.3,0.1,0.3,0.2l5.8,12.7c0.1,0.2,0,0.5-0.3,0.5
		h-1.6c-0.3,0-0.4-0.1-0.5-0.4l-0.9-2h-5.6l-0.9,2c-0.1,0.2-0.2,0.4-0.5,0.4h-1.6C199.4,16,199.2,15.7,199.3,15.5z M207.4,11.5
		l-1.9-4.1h-0.1l-1.8,4.1H207.4z"/>
	<path fill="#88E2CA" d="M213.5,3c0-0.2,0.2-0.3,0.4-0.3h0.5l7.8,8.3l0,0V3.2c0-0.2,0.2-0.4,0.4-0.4h1.7c0.2,0,0.4,0.2,0.4,0.4v12.7
		c0,0.2-0.2,0.3-0.4,0.3h-0.5l-7.9-8.6l0,0v8.1c0,0.2-0.2,0.4-0.4,0.4h-1.7c-0.2,0-0.4-0.2-0.4-0.4L213.5,3L213.5,3z"/>
</g>
<g id="robert">
	<path fill="#FFFFFF" d="M1.7,3.2c0-0.2,0.2-0.4,0.4-0.4h5.4c2.3,0,4.1,1.8,4.1,4c0,1.7-1.1,3.1-2.8,3.8l2.6,4.8
		c0.1,0.2,0,0.5-0.3,0.5H9c-0.2,0-0.3-0.1-0.3-0.2l-2.5-5h-2v4.8C4.2,15.8,4,16,3.8,16H2.1c-0.2,0-0.4-0.2-0.4-0.4
		C1.7,15.6,1.7,3.2,1.7,3.2z M7.2,8.8c1,0,1.9-0.9,1.9-1.9S8.2,5.1,7.2,5.1h-3v3.7H7.2z"/>
	<path fill="#FFFFFF" d="M20.1,2.6c3.8,0,6.8,3,6.8,6.8s-3,6.8-6.8,6.8s-6.8-3-6.8-6.8C13.3,5.7,16.3,2.6,20.1,2.6z M20.1,13.7
		c2.4,0,4.3-1.9,4.3-4.3s-2-4.3-4.3-4.3c-2.4,0-4.3,2-4.3,4.3S17.7,13.7,20.1,13.7z"/>
	<path fill="#FFFFFF" d="M29.3,3.2c0-0.2,0.2-0.4,0.4-0.4H34c2.2,0,4,1.5,4,3.5c0,1.4-1.2,2.6-2.1,3c1,0.3,2.4,1.3,2.4,3.1
		c0,2.1-1.8,3.6-4.1,3.6h-4.6c-0.2,0-0.4-0.2-0.4-0.4L29.3,3.2L29.3,3.2z M33.7,8.4c1,0,1.6-0.8,1.6-1.7s-0.7-1.6-1.6-1.6h-2v3.3
		H33.7z M34,13.8c0.9,0,1.7-0.7,1.7-1.7c0-0.9-0.9-1.6-1.9-1.6h-2.1v3.3H34z"/>
	<path fill="#FFFFFF" d="M40.9,3.2c0-0.2,0.2-0.4,0.4-0.4H49c0.2,0,0.4,0.2,0.4,0.4v1.5c0,0.2-0.2,0.4-0.4,0.4h-5.6v3.1H48
		c0.2,0,0.4,0.2,0.4,0.4v1.6c0,0.2-0.2,0.4-0.4,0.4h-4.6v3.3H49c0.2,0,0.4,0.2,0.4,0.4v1.5c0,0.2-0.2,0.4-0.4,0.4h-7.7
		c-0.2,0-0.4-0.2-0.4-0.4C40.9,15.8,40.9,3.2,40.9,3.2z"/>
	<path fill="#FFFFFF" d="M52,3.2c0-0.2,0.2-0.4,0.4-0.4h5.4c2.3,0,4.1,1.8,4.1,4c0,1.7-1.1,3.1-2.8,3.8l2.6,4.8
		c0.1,0.2,0,0.5-0.3,0.5h-2c-0.2,0-0.3-0.1-0.3-0.2l-2.5-5h-2.1v4.8c0,0.2-0.2,0.4-0.4,0.4h-1.7c-0.2,0-0.4-0.2-0.4-0.4V3.2z
		 M57.5,8.8c1,0,1.9-0.9,1.9-1.9s-0.9-1.8-1.9-1.8h-3.1v3.7H57.5z"/>
	<path fill="#FFFFFF" d="M66.3,5.1h-2.9c-0.2,0-0.4-0.2-0.4-0.4V3.2c0-0.2,0.2-0.4,0.4-0.4h8.2C71.8,2.8,72,3,72,3.2v1.5
		c0,0.2-0.2,0.4-0.4,0.4h-2.9v10.6c0,0.2-0.2,0.4-0.4,0.4h-1.8c-0.2,0-0.4-0.2-0.4-0.4V5.1H66.3z"/>
</g>
</svg>
