<?xml version="1.0" encoding="utf-8"?>
<!-- Generator: Adobe Illustrator 17.1.0, SVG Export Plug-In . SVG Version: 6.00 Build 0)  -->
<!DOCTYPE svg PUBLIC "-//W3C//DTD SVG 1.1//EN" "http://www.w3.org/Graphics/SVG/1.1/DTD/svg11.dtd">
<svg version="1.1" id="Layer_1" xmlns="http://www.w3.org/2000/svg" xmlns:xlink="http://www.w3.org/1999/xlink" x="0px" y="0px"
	 width="147.4px" height="53.7px" viewBox="0 0 147.4 53.7" enable-background="new 0 0 147.4 53.7" xml:space="preserve">
<g>
	<g>
		<path fill="#FFFFFF" d="M38.6,0.5c0-0.2,0.2-0.4,0.4-0.4h5.4c2.3,0,4.1,1.8,4.1,4c0,1.7-1.1,3.1-2.8,3.8l2.6,4.8
			c0.1,0.2,0,0.5-0.3,0.5h-2c-0.2,0-0.3-0.1-0.3-0.2l-2.5-5H41v5c0,0.2-0.2,0.4-0.4,0.4h-1.7c-0.2,0-0.4-0.2-0.4-0.4V0.5H38.6z
			 M44.1,6.2c1,0,1.9-0.9,1.9-1.9s-0.9-1.8-1.9-1.8H41v3.7H44.1z"/>
		<path fill="#FFFFFF" d="M56.9,0c3.8,0,6.8,3,6.8,6.8s-3,6.8-6.8,6.8s-6.8-3-6.8-6.8C50.2,3,53.2,0,56.9,0z M56.9,11.1
			c2.4,0,4.3-1.9,4.3-4.3s-2-4.3-4.3-4.3c-2.4,0-4.3,2-4.3,4.3S54.5,11.1,56.9,11.1z"/>
		<path fill="#FFFFFF" d="M66.2,0.5c0-0.2,0.2-0.4,0.4-0.4h4.3c2.2,0,4,1.5,4,3.5c0,1.4-1.2,2.6-2.1,3c1,0.3,2.4,1.3,2.4,3.1
			c0,2.1-1.8,3.6-4.1,3.6h-4.6c-0.2,0-0.4-0.2-0.4-0.4L66.2,0.5L66.2,0.5z M70.6,5.7c1,0,1.6-0.8,1.6-1.7s-0.7-1.6-1.6-1.6h-2v3.3
			H70.6z M70.9,11.1c0.9,0,1.7-0.7,1.7-1.7c0-0.9-0.9-1.6-1.9-1.6h-2.1v3.3H70.9z"/>
		<path fill="#FFFFFF" d="M77.8,0.5c0-0.2,0.2-0.4,0.4-0.4h7.7c0.2,0,0.4,0.2,0.4,0.4V2c0,0.2-0.2,0.4-0.4,0.4h-5.6v3.1h4.6
			c0.2,0,0.4,0.2,0.4,0.4v1.6c0,0.2-0.2,0.4-0.4,0.4h-4.6v3.3h5.6c0.2,0,0.4,0.2,0.4,0.4V13c0,0.2-0.2,0.4-0.4,0.4h-7.7
			c-0.2,0-0.4-0.2-0.4-0.4V0.5z"/>
		<path fill="#FFFFFF" d="M88.8,0.5c0-0.2,0.2-0.4,0.4-0.4h5.4c2.3,0,4.1,1.8,4.1,4c0,1.7-1.1,3.1-2.8,3.8l2.6,4.8
			c0.1,0.2,0,0.5-0.3,0.5h-2c-0.2,0-0.3-0.1-0.3-0.2l-2.5-5h-2.1v5c0,0.2-0.2,0.4-0.4,0.4h-1.7c-0.2,0-0.4-0.2-0.4-0.4
			C88.8,13,88.8,0.5,88.8,0.5z M94.4,6.2c1,0,1.9-0.9,1.9-1.9s-0.9-1.8-1.9-1.8h-3.1v3.7H94.4z"/>
		<path fill="#FFFFFF" d="M103.1,2.4h-2.9c-0.2,0-0.4-0.2-0.4-0.4V0.5c0-0.2,0.2-0.4,0.4-0.4h8.2c0.2,0,0.4,0.2,0.4,0.4V2
			c0,0.2-0.2,0.4-0.4,0.4h-2.9V13c0,0.2-0.2,0.4-0.4,0.4h-1.8c-0.2,0-0.4-0.2-0.4-0.4V2.4H103.1z"/>
	</g>
	<g>
		<path fill="#78C9B4" d="M0.1,31.3l0.7-1.2C1,29.8,1.3,29.8,1.4,30c0.1,0.1,1.6,1.2,2.8,1.2c1,0,1.7-0.6,1.7-1.4
			c0-1-0.8-1.6-2.4-2.3C1.8,26.8,0,25.7,0,23.4c0-1.7,1.2-3.6,4.2-3.6c1.9,0,3.4,1,3.8,1.3c0.2,0.1,0.2,0.4,0.1,0.6l-0.7,1.1
			C7.3,23,7,23.1,6.8,23s-1.6-1-2.6-1c-1.1,0-1.7,0.7-1.7,1.3c0,0.9,0.7,1.5,2.2,2.1c1.8,0.7,3.9,1.8,3.9,4.3c0,1.9-1.7,3.7-4.3,3.7
			c-2.4,0-3.8-1.1-4.1-1.5C0,31.7-0.1,31.6,0.1,31.3z"/>
		<path fill="#78C9B4" d="M16.9,19.8c1.9,0,3.3,0.6,4.6,1.7c0.2,0.2,0.2,0.4,0,0.5l-1.1,1.2c-0.1,0.2-0.3,0.2-0.5,0
			c-0.8-0.7-1.8-1.1-2.9-1.1c-2.4,0-4.2,2-4.2,4.4s1.8,4.3,4.2,4.3c1.1,0,2.1-0.4,2.9-1.1c0.2-0.1,0.4-0.1,0.5,0l1.2,1.2
			c0.2,0.1,0.1,0.4,0,0.5c-1.3,1.2-2.9,1.8-4.6,1.8c-3.8,0-6.8-3-6.8-6.8C10.1,22.8,13.1,19.8,16.9,19.8z"/>
		<path fill="#78C9B4" d="M23.9,20.4c0-0.2,0.2-0.4,0.4-0.4H26c0.2,0,0.4,0.2,0.4,0.4v5h6.1v-5c0-0.2,0.2-0.4,0.4-0.4h1.7
			c0.2,0,0.4,0.2,0.4,0.4v12.5c0,0.2-0.2,0.4-0.4,0.4h-1.7c-0.2,0-0.4-0.2-0.4-0.4v-5.2h-6.1v5.2c0,0.2-0.2,0.4-0.4,0.4h-1.8
			c-0.2,0-0.4-0.2-0.4-0.4L23.9,20.4L23.9,20.4z"/>
		<path fill="#78C9B4" d="M38.4,20.2c0-0.2,0.2-0.3,0.4-0.3h0.5l7.8,8.3l0,0v-7.8c0-0.2,0.2-0.4,0.4-0.4h1.7c0.2,0,0.4,0.2,0.4,0.4
			V33c0,0.2-0.2,0.3-0.4,0.3h-0.5l-7.9-8.6l0,0v8.1c0,0.2-0.2,0.4-0.4,0.4h-1.7c-0.2,0-0.4-0.2-0.4-0.4V20.2H38.4z"/>
		<path fill="#78C9B4" d="M52.9,20.4c0-0.2,0.2-0.4,0.4-0.4H61c0.2,0,0.4,0.2,0.4,0.4v1.5c0,0.2-0.2,0.4-0.4,0.4h-5.6v3.1H60
			c0.2,0,0.4,0.2,0.4,0.4v1.6c0,0.2-0.2,0.4-0.4,0.4h-4.6v3.3H61c0.2,0,0.4,0.2,0.4,0.4V33c0,0.2-0.2,0.4-0.4,0.4h-7.7
			c-0.2,0-0.4-0.2-0.4-0.4C52.9,33,52.9,20.4,52.9,20.4z"/>
		<path fill="#78C9B4" d="M64,20.4c0-0.2,0.2-0.4,0.4-0.4h1.8c0.2,0,0.4,0.2,0.4,0.4v12.5c0,0.2-0.2,0.4-0.4,0.4h-1.8
			c-0.2,0-0.4-0.2-0.4-0.4V20.4z"/>
		<path fill="#78C9B4" d="M69.9,20.4c0-0.2,0.2-0.4,0.3-0.4h4.5c3.6,0,6.6,3,6.6,6.6s-3,6.6-6.6,6.6h-4.5c-0.2,0-0.3-0.2-0.3-0.4
			V20.4z M74.5,30.9c2.4,0,4.2-1.8,4.2-4.3c0-2.4-1.8-4.3-4.2-4.3h-2.1v8.6H74.5z"/>
		<path fill="#78C9B4" d="M83.8,20.4c0-0.2,0.2-0.4,0.4-0.4h7.7c0.2,0,0.4,0.2,0.4,0.4v1.5c0,0.2-0.2,0.4-0.4,0.4h-5.6v3.1h4.6
			c0.2,0,0.4,0.2,0.4,0.4v1.6c0,0.2-0.2,0.4-0.4,0.4h-4.6v3.3h5.6c0.2,0,0.4,0.2,0.4,0.4V33c0,0.2-0.2,0.4-0.4,0.4h-7.7
			c-0.2,0-0.4-0.2-0.4-0.4V20.4z"/>
		<path fill="#78C9B4" d="M94.8,20.4c0-0.2,0.2-0.4,0.4-0.4h5.4c2.3,0,4.1,1.8,4.1,4c0,1.7-1.1,3.1-2.8,3.8l2.6,4.8
			c0.1,0.2,0,0.5-0.3,0.5h-2c-0.2,0-0.3-0.1-0.3-0.2l-2.5-5h-2.1v4.8c0,0.2-0.2,0.4-0.4,0.4h-1.7c-0.2,0-0.4-0.2-0.4-0.4
			C94.8,32.7,94.8,20.4,94.8,20.4z M100.4,26c1,0,1.9-0.9,1.9-1.9s-0.9-1.8-1.9-1.8h-3.1V26H100.4z"/>
		<path fill="#78C9B4" d="M108.8,20.1c0-0.2,0.1-0.3,0.3-0.3h0.3c0.2,0,0.3,0.1,0.3,0.2l4.1,8.9c0,0,0,0,0.1,0L118,20
			c0.1-0.1,0.2-0.2,0.3-0.2h0.3c0.2,0,0.3,0.1,0.3,0.3l2.2,12.6c0.1,0.3-0.1,0.4-0.3,0.4h-1.7c-0.2,0-0.3-0.2-0.4-0.3l-1.1-7.1h-0.1
			l-3.3,7.4c0,0.1-0.2,0.2-0.3,0.2h-0.3c-0.2,0-0.3-0.1-0.3-0.2l-3.3-7.4c0,0,0,0-0.1,0l-1.1,7.1c0,0.1-0.2,0.3-0.3,0.3h-1.7
			c-0.2,0-0.4-0.2-0.4-0.4L108.8,20.1z"/>
		<path fill="#78C9B4" d="M122.1,32.7L128,20c0.1-0.1,0.2-0.2,0.3-0.2h0.2c0.2,0,0.3,0.1,0.3,0.2l5.8,12.7c0.1,0.2,0,0.5-0.3,0.5
			h-1.6c-0.3,0-0.4-0.1-0.5-0.4l-0.9-2h-5.6l-0.9,2c-0.1,0.2-0.2,0.4-0.5,0.4h-1.6C122.1,33.2,122,32.9,122.1,32.7z M130.2,28.7
			l-1.9-4.1h-0.1l-1.8,4.1H130.2z"/>
		<path fill="#78C9B4" d="M136.3,20.2c0-0.2,0.2-0.3,0.4-0.3h0.5l7.8,8.3l0,0v-7.8c0-0.2,0.2-0.4,0.4-0.4h1.7c0.2,0,0.4,0.2,0.4,0.4
			V33c0,0.2-0.2,0.3-0.4,0.3h-0.5l-7.9-8.6l0,0v8.1c0,0.2-0.2,0.4-0.4,0.4h-1.7c-0.2,0-0.4-0.2-0.4-0.4L136.3,20.2L136.3,20.2z"/>
	</g>
</g>
<g enable-background="new    ">
	<path fill="#DDDDDC" d="M15.6,48.6c-1.3,1.4-2,1.9-2.5,1.9c-0.5,0-1.1-1-1-1.5c0.1-0.3-0.2-0.4,3.5-4.5c0.1-0.2,0.4-0.4,0.4-0.6
		c0-0.2-0.2-0.3-0.4-0.3c-0.7,0-2.9,1-3.5,1.4c-0.2,0.1-0.5,0.3-0.8,0.3c-0.1,0-0.6-0.2,0.1-1.6c0.2-0.4,0.4-0.5,0.7-0.8l0.8-0.6
		c0.1-0.1,0.2-0.1,0.3-0.1c0,0,0.1,0,0,0.2l-0.3,0.4l0,0c1-0.3,2-0.8,3.1-0.8c0.4,0,0.7,0,1,0.3c0.2,0.3,0.4,0.9,0.4,1.2
		c0,0.4-0.1,1-3.3,4.7c-0.3,0.3-0.1,0.4,0,0.4c0.1,0.1,2.2-1.7,5-4.9c0.3-0.3,0.8-1.1,1.4-1.1c0.3,0,0.5,0.6,0.5,0.8
		c0,0.2-0.3,0.6-0.4,0.7c-0.5,0.7-2.7,3.9-2.7,4.7c0,0.1,0.1,0.2,0.2,0.2c1-0.5,2.9-2.3,4-4.6c0-0.1-0.1-0.3-0.1-0.4
		c0-0.4,0.7-1.2,0.9-1.2c0.2,0,0.3,0.5,0.3,0.6c-0.1,2.7-3.5,6.8-5,7c-0.4,0.1-1.3-0.5-1.3-1.2c0-0.7,0.5-1.8,0.7-2.5l0,0L15.6,48.6
		z"/>
	<path fill="#DDDDDC" d="M26.2,48.6c-0.7,0.9-2.1,2-3.2,2c-0.9,0-1.3-0.8-1.3-1.6c0-1.6,1.7-3.2,3.2-3.2c0.4,0,0.9,0.1,0.9,0.6
		c0,0.6-0.6,1.5-2.9,2.2l0,0.3c0,0.5,0.4,0.6,0.7,0.6c0.9,0,1.9-0.9,2.5-1.4L26.2,48.6z M24.7,46.6c0-0.1-0.1-0.2-0.1-0.1
		C24,46.7,23.3,47.2,23,48C24,47.7,24.8,46.9,24.7,46.6z"/>
	<path fill="#DDDDDC" d="M27,48.1c-0.2,0.8,0.1,1.4,0.5,1.3c0.4-0.1,0.6-0.4,0.8-0.6c-0.1-0.2-0.2-0.3-0.2-0.5c0-0.7,1-1.9,1.7-1.9
		c0.3,0,0.4,0.3,0.4,0.5c0,0.5-0.4,1.1-0.6,1.5c0.5,0.1,0.9-0.2,1.3-0.4l0.1,0.4c-0.5,0.6-1.2,0.8-1.9,0.8c-0.5,0.5-1.4,1.3-2.1,1.3
		c-0.8,0-0.9-1.2-0.9-1.7c0-1.5,0.7-2.8,1.7-3.9c1-1.2,2.9-2.6,3.4-2.6c0.2,0,0.3,0.2,0.3,0.4c0,1.1-1.8,2.9-2.5,3.6L27,48.1z
		 M27.4,46.8L27.4,46.8c2.5-2.5,2.8-3.2,3-3.6l0,0C29.2,44.2,28.2,45.4,27.4,46.8z"/>
	<path fill="#DDDDDC" d="M40,43.8c-0.9,0.1-1.8,0.3-2.6,0.6v0h0.3c0.1,0,0.6,0,0.6,0.1c0,0.1-0.3,0.2-0.4,0.2
		c-0.6,0.1-1.4,0.5-2,0.5c-0.3,0-0.5-0.1-0.5-0.4c0-0.2,0.1-0.6,0.2-0.8c0.2-0.6,0.6-0.9,1.1-1.2C38,42.3,39.7,42,41,42
		c0.9,0,2.1,0.1,2.9,0.6c0.9,0.6,1.3,1.6,1.3,2.7c0,1.7-1.4,3.1-2.8,3.9c-1.3,0.7-3.5,1.3-5,1.3c-0.3,0-0.8,0-1-0.1
		C36,50.2,36,50,36,49.7c0-0.9,0.6-1.7,1.2-2.3L40,43.8z M37.6,48.1c-0.4,0.5-0.3,0.7-0.3,0.8c0,0.1,0.2,0.2,0.7,0.2
		c0.8,0,1.9-0.2,2.8-0.5c2.5-0.9,3.4-2.2,3.4-3.2c0-1.5-2.5-1.6-3.5-1.6c-0.1,0.4-0.2,0.6-0.4,0.9L37.6,48.1z"/>
	<path fill="#DDDDDC" d="M49,48.6c-0.7,0.9-2.1,2-3.2,2c-0.9,0-1.3-0.8-1.3-1.6c0-1.6,1.7-3.2,3.2-3.2c0.4,0,0.9,0.1,0.9,0.6
		c0,0.6-0.6,1.5-2.9,2.2l0,0.3c0,0.5,0.4,0.6,0.7,0.6c0.9,0,1.9-0.9,2.5-1.4L49,48.6z M47.6,46.6c0-0.1-0.1-0.2-0.1-0.1
		c-0.6,0.2-1.3,0.7-1.6,1.5C46.8,47.7,47.6,46.9,47.6,46.6z"/>
	<path fill="#DDDDDC" d="M53.1,48.3l0.1,0.5c-0.7,0.7-2,1.8-3,1.8c-0.8,0-1.7-0.5-1.9-1.4c-0.1,0.1-0.2,0.2-0.3,0.2
		c-0.1,0-0.2-0.1-0.2-0.2c0-0.2,0.2-0.3,0.3-0.4l2.6-2.4c0-0.4,0.3-0.8,0.7-0.8c0.4,0,0.4,0.1,0.5,0.4c0,0.5,0.2,0.9,0.2,1.4
		c0,1-0.8,1.7-1.6,2.2c0.8,0.1,1.2-0.2,1.8-0.7L53.1,48.3z M49,48.6c0.4,0,0.7,0.4,0.9,0.7c0.7-0.4,0.9-0.6,0.9-1.3
		c0-0.3-0.1-0.6-0.2-1L49,48.6z"/>
	<path fill="#DDDDDC" d="M56.6,48.8c-0.5,0.7-1.6,1.7-2.5,1.7c-0.7,0-1-0.8-1-1.4c0-1.5,1.5-2.9,2.2-2.9c0.2,0,0.5,0.1,0.5,0.3
		c0,0.6-1.2,1.7-1.7,2c-0.1,0.5,0.1,0.8,0.6,0.8c0.6,0,1.3-0.6,1.7-1L56.6,48.8z M55.4,45.5c0-0.5,0.6-0.9,1-0.9
		c0.2,0,0.4,0.2,0.4,0.4c0,0.5-0.4,1.1-1,1.1C55.6,46,55.4,45.8,55.4,45.5z"/>
	<path fill="#DDDDDC" d="M59.7,48.6L59.7,48.6c-0.5,0.5-1.7,1.5-2.4,1.5c-0.7,0-0.9-0.9-0.9-1.4c0-1.6,2.6-2.8,3.5-2.9
		c0.2,0,0.6,0,0.6,0.3c0,0.2-0.2,0.4-0.4,0.5l-1.4,0.7c-0.8,0.4-1.6,0.7-1.5,1.6c0,0.1,0.1,0.1,0.2,0.1c0.3,0,1.1-0.3,1.5-0.7
		l1.3-1.4c0.1-0.1,0.3-0.3,0.5-0.3c0.2,0,0.5,0.4,0.5,0.6c0,0.2-0.2,0.5-0.3,0.6l-0.9,1.7l0,0l1.8-1.3l0.1,0.5l-2.5,1.9
		c-1.3,2-2.3,2.8-2.8,2.8c-0.2,0-0.3-0.1-0.3-0.3c0-0.9,1.8-2.4,2.5-2.9L59.7,48.6z"/>
	<path fill="#DDDDDC" d="M67.5,48l0.1,0.5c-0.6,0.6-1.9,2-2.7,2c-0.5,0-0.7-0.4-0.7-0.8c0-0.7,0.6-1.5,1-2.1l0,0
		c-0.7,0.5-1.3,1.1-1.8,1.8c-0.2,0.2-0.6,0.8-0.9,0.8c-0.5,0-0.7-0.8-0.7-1.2c0-0.8,0.7-2,1.4-2.6c0.2-0.1,0.3-0.1,0.5-0.1
		c0.7,0,0.7,0.2,0.7,0.3c0,0.5-1.5,1.7-1.5,2c0,0.1,0.1,0.1,0.1,0.1c0.1,0,0.2-0.1,0.2-0.2c1-1.2,3.2-2.7,3.5-2.7
		c0,0,0.1,0.1,0.2,0.2c0.1,0.2,0.1,0.4,0.2,0.6c0,0.5-1.5,1.4-1.5,2.2c0,0.1,0.1,0.2,0.2,0.2c0.3,0,0.8-0.4,1-0.6L67.5,48z"/>
	<path fill="#DDDDDC" d="M71.8,48.6c-0.7,0.9-2.1,2-3.2,2c-0.9,0-1.3-0.8-1.3-1.6c0-1.6,1.7-3.2,3.2-3.2c0.4,0,0.9,0.1,0.9,0.6
		c0,0.6-0.6,1.5-2.9,2.2l0,0.3c0,0.5,0.4,0.6,0.7,0.6c0.9,0,1.9-0.9,2.5-1.4L71.8,48.6z M70.3,46.6c0-0.1-0.1-0.2-0.1-0.1
		c-0.6,0.2-1.3,0.7-1.6,1.5C69.6,47.7,70.3,46.9,70.3,46.6z"/>
	<path fill="#DDDDDC" d="M72.5,47.8c-0.4,0.7-0.9,1-1.4,1.5l0-0.5c0.3-0.3,0.6-0.6,0.8-0.9c-0.3,0-0.3-0.1-0.3-0.4
		c0-0.9,1.2-1.7,1.5-1.7c0.1,0,0.2,0.1,0.2,0.2c0,0.1,0,0.2-0.1,0.3c1.1-0.2,1.8-0.3,1.9-0.2c0.2,0.2,0.3,0.4,0.3,0.6
		c0,0.4-0.2,0.6-0.5,0.8c-0.3,0.3-0.9,0.9-0.9,1.4c0,0.2,0.2,0.3,0.4,0.3c0.5,0,1.3-0.8,1.7-1.1l0.1,0.4c-0.5,0.5-1.8,1.8-2.5,1.8
		c-0.5,0-0.8-0.5-0.8-0.9c0-0.8,0.6-1.5,1.1-2l0,0L72.5,47.8z"/>
	<path fill="#DDDDDC" d="M84.1,45.9c0.1,0.5,0.3,1,0.6,1.5l1.9-1.5c0.1,0.3,0.2,0.6,0.2,0.9c0,0.7-0.9,1.3-1.3,1.7
		c0.1,0.2,0.2,0.3,0.4,0.3c0.1,0,0.3-0.1,0.3-0.1c0.1,0,0.2,0.1,0.2,0.2c0,0.3-0.7,1.5-1.1,1.5c-0.3,0-0.8-0.7-1-0.9
		c-0.8,0.5-1.6,1.1-2.6,1.1c-1.1,0-2-0.8-1.9-1.9c0.2-1.9,1.4-2.4,2.6-3.1c-0.3-1.9,1.8-3.4,3.3-3.4c0.6,0,1.2,0.5,1.2,1.1
		c0,0.7-0.5,1.2-1.1,1.6L84.1,45.9z M82.7,46.7c-0.6,0.2-1.7,1.3-1.7,1.9c0,0.2,0.4,0.2,0.6,0.2c0.6,0,1.2-0.3,1.8-0.6L82.7,46.7z
		 M85.9,42.9c0-0.1-0.1-0.2-0.2-0.1c-1.3,0.2-1.5,1.2-1.8,2.1C84.5,44.5,85.9,43.6,85.9,42.9z"/>
	<path fill="#DDDDDC" d="M96,43.8c-0.9,0.1-1.8,0.3-2.6,0.6v0h0.3c0.1,0,0.6,0,0.6,0.1c0,0.1-0.3,0.2-0.4,0.2
		c-0.6,0.1-1.4,0.5-2,0.5c-0.3,0-0.5-0.1-0.5-0.4c0-0.2,0.1-0.6,0.2-0.8c0.2-0.6,0.6-0.9,1.1-1.2c1.1-0.5,2.8-0.8,4.1-0.8
		c0.9,0,2.1,0.1,2.9,0.6c0.9,0.6,1.3,1.6,1.3,2.7c0,1.7-1.4,3.1-2.8,3.9c-1.3,0.7-3.5,1.3-5,1.3c-0.3,0-0.8,0-1-0.1
		C92.1,50.2,92,50,92,49.7c0-0.9,0.6-1.7,1.2-2.3L96,43.8z M93.7,48.1c-0.4,0.5-0.3,0.7-0.3,0.8c0,0.1,0.2,0.2,0.7,0.2
		c0.8,0,1.9-0.2,2.8-0.5c2.5-0.9,3.4-2.2,3.4-3.2c0-1.5-2.5-1.6-3.5-1.6c-0.1,0.4-0.2,0.6-0.4,0.9L93.7,48.1z"/>
	<path fill="#DDDDDC" d="M105.1,48.6c-0.7,0.9-2.1,2-3.2,2c-0.9,0-1.3-0.8-1.3-1.6c0-1.6,1.7-3.2,3.2-3.2c0.4,0,0.9,0.1,0.9,0.6
		c0,0.6-0.6,1.5-2.9,2.2l0,0.3c0,0.5,0.4,0.6,0.7,0.6c0.9,0,1.9-0.9,2.5-1.4L105.1,48.6z M103.6,46.6c0-0.1-0.1-0.2-0.1-0.1
		c-0.6,0.2-1.3,0.7-1.6,1.5C102.9,47.7,103.6,46.9,103.6,46.6z"/>
	<path fill="#DDDDDC" d="M109.3,45.9c0.2,0,0.4,0.2,0.4,0.4c0,0.5-0.7,1.6-1,2c0.1,0.1,0.2,0.2,0.4,0.2c0.3,0,0.8-0.3,1-0.5l0.1,0.5
		c-0.4,0.5-0.9,0.9-1.5,0.9c-0.3,0-0.4-0.2-0.6-0.3c-0.3,0.4-1.5,1.4-2,1.4c-0.7,0-1.2-0.9-1.2-1.8c0-1.7,1.5-2.8,1.9-2.8
		c0.2,0,0.7,0,0.7,0.3c0,0.5-1.1,1.8-1.6,2.1c-0.1,0.2-0.2,0.5-0.2,0.7c0,0.2,0,0.5,0.3,0.5c0.3,0,1.3-0.9,1.5-1.1
		c0-0.6,0.3-1,0.6-1.4C108.3,46.6,108.9,45.9,109.3,45.9z"/>
	<path fill="#DDDDDC" d="M114.4,48.6c-0.7,0.9-2.1,2-3.2,2c-0.9,0-1.3-0.8-1.3-1.6c0-1.6,1.7-3.2,3.2-3.2c0.4,0,0.9,0.1,0.9,0.6
		c0,0.6-0.6,1.5-2.9,2.2l0,0.3c0,0.5,0.4,0.6,0.7,0.6c0.9,0,1.9-0.9,2.5-1.4L114.4,48.6z M113,46.6c0-0.1-0.1-0.2-0.1-0.1
		c-0.6,0.2-1.3,0.7-1.6,1.5C112.2,47.7,113,46.9,113,46.6z"/>
	<path fill="#DDDDDC" d="M118.1,48.6c-0.7,0.7-1.8,1.9-2.8,1.9c-0.9,0-1.1-0.9-1.1-1.6c0-1.3,0.5-2.6,1.3-3.6
		c1.1-1.3,2.2-2.4,2.6-2.4c0.2,0,0.3,0.3,0.2,0.4c-0.1,1.1-0.4,2.2-3,4.7c-0.1,0.2-0.1,0.5-0.1,0.8c0.1,0.3,0.3,0.5,0.6,0.5
		c0.7,0,1.6-0.8,2.1-1.2L118.1,48.6z M115.6,47c0.9-0.8,1.6-1.9,1.8-2.6C116.8,44.6,116.1,45.7,115.6,47L115.6,47z"/>
	<path fill="#DDDDDC" d="M122.8,48.6c-0.5,0.7-1.1,1-1.9,1c-0.5,0.5-1.1,0.9-1.8,0.9c-0.6,0-1.2-0.6-1.2-1.7c0-0.9,0.4-1.5,1.1-2
		c0.6-0.5,1.5-0.9,2.2-0.9c0.3,0,0.7,0.1,0.7,0.4c0,0.2-0.1,0.3-0.3,0.3c0.4,0.1,0.4,0.3,0.4,0.7c0,0.5-0.2,0.9-0.5,1.4
		c0.5,0.1,0.9-0.4,1.2-0.6L122.8,48.6z M119.1,48c-0.3,0.3-0.5,0.7-0.5,1.1c0,0.3,0.2,0.5,0.5,0.5c0.4,0,0.6-0.2,0.9-0.5
		c-0.1-0.2-0.1-0.3-0.1-0.6c0-0.6,0.6-1.4,0.5-1.4C120,47.4,119.5,47.7,119.1,48z"/>
	<path fill="#DDDDDC" d="M122.3,52.4c-0.1,0.2-0.3,0.5-0.5,0.5c-0.3,0-0.3-0.3-0.3-0.5c0-0.6,0.3-1.2,0.7-1.9
		c0.6-0.8,1.2-1.8,1.9-3.1l0,0l-1.9,1.8l0-0.6l3.2-3.4c0.3-0.3,0.5-0.7,1-0.7c0.2,0,0.6,0.1,0.6,0.3c0,0.3-0.6,0.8-0.8,1
		c-0.4,0.4-0.8,0.9-1,1.4l0,0c0.5-0.4,1.7-1.2,2.4-1.2c0.3,0,0.5,0.3,0.5,0.6c0,0.7-0.6,1.5-1.9,2.7c1,0.1,1.3-0.1,2.6-1.2l0.1,0.6
		c-0.9,0.9-2,1.7-3.3,1.7c-0.3,0-0.6-0.1-0.9-0.2c-0.2,0-0.4,0.1-0.6,0.1c-0.2,0-0.3,0-0.5-0.1L122.3,52.4z M126.1,48.1
		c0.1-0.2,0.3-0.4,0.3-0.6c0-0.1,0-0.2-0.1-0.2c-0.2,0-0.8,0.4-0.9,0.5c-0.4,0.3-0.8,0.7-1.1,1.2c0.3,0,0.7,0,1,0.1L126.1,48.1z"/>
	<path fill="#DDDDDC" d="M132.9,48.6c-0.7,0.9-2.1,2-3.2,2c-0.9,0-1.3-0.8-1.3-1.6c0-1.6,1.7-3.2,3.2-3.2c0.4,0,0.9,0.1,0.9,0.6
		c0,0.6-0.6,1.5-2.9,2.2l0,0.3c0,0.5,0.4,0.6,0.7,0.6c0.9,0,1.9-0.9,2.5-1.4L132.9,48.6z M131.4,46.6c0-0.1-0.1-0.2-0.1-0.1
		c-0.6,0.2-1.3,0.7-1.6,1.5C130.7,47.7,131.5,46.9,131.4,46.6z"/>
	<path fill="#DDDDDC" d="M133.6,47.8c-0.4,0.7-0.9,1-1.4,1.5l0-0.5c0.3-0.3,0.6-0.6,0.8-0.9c-0.3,0-0.3-0.1-0.3-0.4
		c0-0.9,1.2-1.7,1.5-1.7c0.1,0,0.2,0.1,0.2,0.2c0,0.1,0,0.2-0.1,0.3c1.1-0.2,1.8-0.3,1.9-0.2c0.2,0.2,0.3,0.4,0.3,0.6
		c0,0.4-0.2,0.6-0.5,0.8c-0.3,0.3-0.9,0.9-0.9,1.4c0,0.2,0.2,0.3,0.4,0.3c0.5,0,1.3-0.8,1.7-1.1l0.1,0.4c-0.5,0.5-1.8,1.8-2.5,1.8
		c-0.5,0-0.8-0.5-0.8-0.9c0-0.8,0.6-1.5,1.1-2l0,0L133.6,47.8z"/>
</g>
</svg>
