<?xml version="1.0" encoding="utf-8"?>
<!-- Generator: Adobe Illustrator 17.1.0, SVG Export Plug-In . SVG Version: 6.00 Build 0)  -->
<!DOCTYPE svg PUBLIC "-//W3C//DTD SVG 1.1//EN" "http://www.w3.org/Graphics/SVG/1.1/DTD/svg11.dtd">
<svg version="1.1" id="Capa_1" xmlns="http://www.w3.org/2000/svg" xmlns:xlink="http://www.w3.org/1999/xlink" x="0px" y="0px"
	 width="100px" height="81.9px" viewBox="0 9.1 100 81.9" enable-background="new 0 9.1 100 81.9" xml:space="preserve">
<g>
	<path d="M99.4,52.5l-10.8-9.8V19.4c0-1-0.8-1.8-1.8-1.8h-9.5c-0.5,0-0.9,0.2-1.3,0.5c-0.3,0.3-0.5,0.8-0.5,1.3l0,11.4L52,9.5
		c-0.7-0.6-1.7-0.6-2.4,0l-49,43.1c-0.6,0.5-0.8,1.4-0.4,2.2c0.4,0.7,1.2,1.1,2,0.9l10.9-2.5v33.6c0,0.3,0,1.8,1.1,2.9
		c0.5,0.5,1.4,1.1,2.8,1.1c2.6,0,24.3,0,24.3,0c1,0,1.8-0.8,1.8-1.8l0-20.1c0-0.2,0-0.8,0.3-1.1c0.2-0.2,0.5-0.2,0.8-0.2h10.1
		c0.5,0,1.1,0.1,1.4,0.4c0.3,0.4,0.3,1,0.3,1.1l0,19.8c0,0.5,0.2,0.9,0.5,1.3c0.3,0.3,0.8,0.5,1.3,0.5h23.8c1.6,0,2.6-0.7,3.2-1.3
		c1.3-1.3,1.2-3.1,1.2-3.3V52.8l11.9,2.8c0.8,0.2,1.6-0.2,2-0.9C100.2,53.9,100,53,99.4,52.5z M79.1,21.2H85v18.2l-5.8-5.3
		L79.1,21.2z M84.4,48.7c-0.5-0.1-1.1,0-1.5,0.3c-0.4,0.3-0.7,0.9-0.7,1.4v35.9c0,0.2-0.1,0.6-0.2,0.7c-0.1,0.1-0.4,0.1-0.5,0.1h-22
		l0-17.9c0-0.2,0.1-2.2-1.3-3.7c-0.7-0.7-1.9-1.6-4.1-1.6H44.1c-1.8,0-2.9,0.8-3.5,1.4c-1.2,1.4-1.2,3.2-1.2,3.8l0,18
		c-5.3,0-20.3,0-22.5,0c-0.1,0-0.1,0-0.1,0c0,0,0,0,0,0c0-0.1-0.1-0.2-0.1-0.3V51.1c0-0.6-0.3-1.1-0.7-1.4c-0.4-0.3-1-0.5-1.5-0.4
		l-6.2,1.4l42.4-37.4l24.8,22.4v0.1h0.1l16.1,14.6L84.4,48.7z"/>
</g>
</svg>
