<?xml version="1.0" encoding="utf-8"?>
<!-- Generator: Adobe Illustrator 17.1.0, SVG Export Plug-In . SVG Version: 6.00 Build 0)  -->
<!DOCTYPE svg PUBLIC "-//W3C//DTD SVG 1.1//EN" "http://www.w3.org/Graphics/SVG/1.1/DTD/svg11.dtd">
<svg version="1.1" id="Layer_1" xmlns="http://www.w3.org/2000/svg" xmlns:xlink="http://www.w3.org/1999/xlink" x="0px" y="0px"
	 width="1396.1px" height="332.7px" viewBox="0 0 1396.1 332.7" enable-background="new 0 0 1396.1 332.7" xml:space="preserve">
<g>
	<g>
		<g>
			
				<linearGradient id="SVGID_1_" gradientUnits="userSpaceOnUse" x1="191.3814" y1="210.5727" x2="1532.4629" y2="210.5727" gradientTransform="matrix(-1 0 0 1 1532.4629 0)">
				<stop  offset="0" style="stop-color:#FFFFFF"/>
				<stop  offset="1" style="stop-color:#231F20"/>
			</linearGradient>
			<path opacity="0.57" fill="url(#SVGID_1_)" d="M1329.5,279.3c-29.6-19.5-60.2-39.8-92.2-58.6c-18.5-10.9-37.1-21.1-55.3-30.2
				c-20.5-10.2-39.5-18.6-58-25.6c-90.7-34.5-176.6-39.4-262.7-15.2c-32.9,9.3-65.1,21.3-96.2,32.8c-25.8,9.6-52.6,19.6-79.2,27.7
				c-33.4,10.3-62,16.4-90.1,19.4c-33.5,3.5-65.5,2.3-98-3.8c-21.3-4-41.2-9.1-59.6-14.1c-4.2-1.1-8.4-2.3-12.6-3.4
				c-14.9-4.1-29-7.9-43.6-11.3c-32.2-7.6-71.6-14.4-120.1-7.5C163.9,204,91.6,189.3,0,159.1l0.2-0.3
				c91.5,30.1,163.7,44.8,261.7,30.6c48.6-6.9,88.1-0.1,120.3,7.5c14.5,3.4,28.6,7.2,43.6,11.3c4.2,1.1,8.4,2.3,12.6,3.4
				c18.3,5,38.2,10.1,59.5,14.1c32.4,6.1,64.4,7.3,97.8,3.8c28-2.9,56.6-9.1,90-19.4c26.6-8.2,53.3-18.1,79.2-27.7
				c31.1-11.6,63.3-23.5,96.2-32.9c86.2-24.3,172.3-19.4,263.1,15.2c18.5,7,37.5,15.4,58,25.6c18.2,9.1,36.8,19.2,55.3,30.2
				c32,18.9,62.6,39.1,92.2,58.6c3.8,2.5,7.5,5,11.3,7.4l-0.3,0.3C1337,284.3,1333.2,281.8,1329.5,279.3z"/>
		</g>
		<g>
			
				<linearGradient id="SVGID_2_" gradientUnits="userSpaceOnUse" x1="189.2671" y1="210.3079" x2="1532.0479" y2="210.3079" gradientTransform="matrix(-1 0 0 1 1532.4629 0)">
				<stop  offset="0" style="stop-color:#FFFFFF"/>
				<stop  offset="1" style="stop-color:#231F20"/>
			</linearGradient>
			<path opacity="0.57" fill="url(#SVGID_2_)" d="M1342.9,285.4l0.3-0.3l-32.9-20.1c-12.9-7.8-23.5-14.2-33.5-20.1
				c-26.8-15.7-48.9-27.9-69.7-38.3c-65.2-33-129.6-55-191.6-65.4c-27.3-4.5-52.7-6.4-77.7-5.9c-28.1,0.6-54.8,4.1-81.8,10.8
				c-27.4,6.7-55.9,15.3-87.3,26.1c-13.7,4.7-27.2,9.9-40.3,15c-9.3,3.6-19,7.3-28.4,10.7c-37.5,13.8-67.2,22.2-96.3,27
				c-35.7,6-70.1,6.4-105.3,1.1c-3.5-0.5-6.8-1.1-10-1.6c-19.5-3.3-38.3-7.6-55.8-11.8c-2.6-0.6-5.3-1.2-7.9-1.9
				c-15-3.5-30.6-7.2-46-10.2c-31.8-6.3-70.5-11.9-116.8-6.2c-30.7,3.9-59.6,4.9-88.4,3.1c-26.1-1.6-52.5-5.5-80.8-12
				c-18.6-4.3-37.4-9.8-57.2-15.6c-11.4-3.3-23.1-6.8-35-10l-0.2,0.3c11.9,3.3,23.6,6.7,35,10c19.9,5.8,38.7,11.4,57.3,15.6
				c28.3,6.5,54.8,10.5,80.9,12c28.8,1.8,57.7,0.8,88.5-3.1c46.2-5.7,84.8,0,116.6,6.2c15.5,3,31,6.7,46,10.2
				c2.6,0.6,5.3,1.2,7.9,1.9c17.5,4.1,36.3,8.4,55.8,11.8c3.2,0.5,6.6,1.1,10.1,1.6c35.2,5.3,69.7,5,105.5-1.1
				c29.1-4.9,58.8-13.2,96.4-27.1c9.4-3.4,19.1-7.1,28.4-10.7c13.1-5,26.6-10.3,40.3-15c31.3-10.8,59.9-19.3,87.2-26.1
				c26.9-6.6,53.6-10.1,81.6-10.8c25-0.6,50.4,1.4,77.6,5.9c61.9,10.4,126.3,32.3,191.4,65.3c20.7,10.4,42.9,22.6,69.7,38.3
				c10,5.9,20.6,12.2,33.5,20.1L1342.9,285.4z"/>
		</g>
		<g>
			
				<linearGradient id="SVGID_3_" gradientUnits="userSpaceOnUse" x1="187.148" y1="209.6948" x2="1531.6338" y2="209.6948" gradientTransform="matrix(-1 0 0 1 1532.4629 0)">
				<stop  offset="0" style="stop-color:#FFFFFF"/>
				<stop  offset="1" style="stop-color:#231F20"/>
			</linearGradient>
			<path opacity="0.57" fill="url(#SVGID_3_)" d="M1345,284l0.3-0.3l-34.2-19.4c-13.1-7.4-24.2-13.5-34.8-19.2
				c-27.6-15-50.5-26.6-72.1-36.6c-31.5-14.6-63.6-27.3-95.4-37.8c-16.5-5.4-33.2-10.4-49.8-14.7c-16.5-4.3-33.5-8.2-50.7-11.6
				c-27.7-5.4-52.8-8.3-76.9-8.8c-27.7-0.6-54,1.7-80.4,7.2c-31.1,6.4-59.6,13.8-87.1,22.6c-17.5,5.6-34.2,12.5-50.4,19.2
				c-6,2.5-12.1,5-18.1,7.4c-24.9,10-58.1,22.4-93.6,29.7c-34.6,7.2-68.2,8.8-102.7,4.9c-3.7-0.4-6.7-0.8-9.9-1.2
				c-19.9-2.6-39-6.3-55.3-9.6c-3.5-0.7-7-1.4-10.5-2.1c-14.2-2.8-28.9-5.7-43.6-8.2c-34.8-5.8-73.2-10.6-117.8-6
				c-30.4,3.2-59.3,3.6-88.3,1c-25.6-2.2-51.9-6.7-80.4-13.9c-12.6-3.1-25.2-7-38.6-11c-17.4-5.3-35.4-10.7-53.7-14.7l-0.1,0.3
				c18.3,4,36.3,9.4,53.6,14.6c13.4,4.1,26.1,7.9,38.7,11c28.5,7.2,54.8,11.7,80.5,13.9c29,2.6,57.9,2.2,88.4-1
				c44.5-4.6,82.8,0.2,117.6,6c14.7,2.4,29.4,5.4,43.6,8.2c3.5,0.7,7,1.4,10.5,2.1c16.3,3.2,35.4,6.9,55.3,9.6
				c3.2,0.4,6.2,0.8,9.9,1.2c34.5,3.9,68.2,2.3,102.9-4.9c35.5-7.3,68.7-19.7,93.7-29.7c6-2.4,12.1-4.9,18.1-7.4
				c16.2-6.7,32.9-13.6,50.4-19.1c27.5-8.8,56-16.2,87.1-22.6c26.4-5.4,52.6-7.8,80.2-7.2c24.1,0.5,49.2,3.4,76.8,8.8
				c17.2,3.4,34.2,7.3,50.7,11.6c16.6,4.4,33.3,9.3,49.8,14.7c31.8,10.4,63.8,23.1,95.3,37.7c21.5,10,44.4,21.6,72.1,36.6
				c10.6,5.8,21.7,11.9,34.8,19.2L1345,284z"/>
		</g>
		<g>
			
				<linearGradient id="SVGID_4_" gradientUnits="userSpaceOnUse" x1="185.0313" y1="208.7109" x2="1531.2188" y2="208.7109" gradientTransform="matrix(-1 0 0 1 1532.4629 0)">
				<stop  offset="0" style="stop-color:#FFFFFF"/>
				<stop  offset="1" style="stop-color:#231F20"/>
			</linearGradient>
			<path opacity="0.57" fill="url(#SVGID_4_)" d="M1347.1,282.5l0.3-0.3c-11.3-6-23.5-12.4-35.6-18.7c-13.2-6.9-25-12.9-36.1-18.4
				c-28.3-14.2-52-25.2-74.5-34.8c-30.8-13.2-63.7-25.2-98-35.8c-16.4-5.1-33.5-10-50.8-14.6c-16.6-4.4-33.9-8.6-51.3-12.5
				c-13.9-3.1-26.4-5.5-38.1-7.4c-13.3-2.1-25.8-3.5-38.1-4.4c-27.3-1.9-53.2-0.7-79,3.6c-23.4,3.9-54.5,9.5-87,19.1
				c-19.6,5.7-37.6,13.8-55,21.5c-4.4,1.9-8.9,4-13.3,5.9c-26.2,11.4-57.5,24.1-91,32.3c-33.6,8.3-66.3,11.1-100,8.6l-1.2-0.1
				c-2.8-0.2-5.7-0.4-8.6-0.7c-19.3-1.8-37.7-4.6-54.8-7.4c-4.8-0.8-9.5-1.5-14.3-2.3c-13-2.1-26.4-4.3-39.9-6.2
				c-34.2-4.8-74.3-9.5-118.9-5.8c-30.1,2.6-59,2.3-88.1-1c-25.5-2.8-50.9-7.8-80-15.7c-10.1-2.7-20.3-6-31.1-9.4
				c-19.9-6.4-40.5-12.9-61.4-16.3l-0.1,0.4c20.8,3.3,41.4,9.9,61.3,16.2c10.8,3.5,21,6.7,31.1,9.4c29.1,7.9,54.6,12.9,80.1,15.8
				c29.2,3.3,58.1,3.7,88.3,1c44.5-3.7,84.6,1.1,118.7,5.8c13.5,1.9,27,4.1,39.9,6.2c4.8,0.8,9.6,1.6,14.3,2.3
				c17,2.7,35.5,5.5,54.8,7.4c2.8,0.3,5.8,0.5,8.6,0.7l1.2,0.1c33.8,2.5,66.6-0.3,100.3-8.6c33.5-8.2,64.9-21,91.1-32.4
				c4.4-1.9,8.9-3.9,13.3-5.9c17.4-7.7,35.4-15.8,54.9-21.5c32.5-9.5,63.5-15.2,86.9-19.1c25.8-4.3,51.6-5.5,78.9-3.6
				c12.3,0.8,24.7,2.3,38,4.3c11.7,1.9,24.1,4.3,38,7.4c17.4,3.9,34.6,8.1,51.3,12.4c17.3,4.6,34.4,9.5,50.8,14.6
				c34.3,10.6,67.2,22.6,98,35.8c22.5,9.6,46.2,20.7,74.5,34.8c11.1,5.5,22.9,11.6,36.1,18.4
				C1323.7,270.2,1335.8,276.6,1347.1,282.5z"/>
		</g>
		<g>
			
				<linearGradient id="SVGID_5_" gradientUnits="userSpaceOnUse" x1="182.9155" y1="207.3594" x2="1530.8008" y2="207.3594" gradientTransform="matrix(-1 0 0 1 1532.4629 0)">
				<stop  offset="0" style="stop-color:#FFFFFF"/>
				<stop  offset="1" style="stop-color:#231F20"/>
			</linearGradient>
			<path opacity="0.57" fill="url(#SVGID_5_)" d="M1349.3,281.1l0.3-0.3c-14.8-7.3-26.2-12.8-36.9-18c-13.4-6.5-25.6-12.2-37.3-17.6
				c-29-13.4-53.4-23.9-77-33.1c-29.9-11.8-62.9-22.8-100.7-33.8c-16.7-4.9-34.2-9.7-51.9-14.4c-18.8-5-37.6-9.7-51.9-13.3
				c-29.9-7.6-53.2-12.1-75.4-14.6c-13.2-1.5-25.6-2.3-38.1-2.3c-13.1-0.1-26.5,0.8-39.6,2.4c-26.9,3.3-55.8,7.3-86.9,15.6
				c-21.1,5.7-39.7,14.6-57.7,23.3c-3.4,1.6-6.9,3.3-10.3,4.9c-56.4,26.5-113,50-185.7,47.3L498,227c-2.4-0.1-5-0.2-7.5-0.3
				c-19.7-1.1-38.5-3.2-54.2-5.1c-6.5-0.8-13.1-1.6-19.5-2.4c-11.3-1.4-23.1-2.9-35-4.2c-35.4-4-75.5-8.4-119.9-5.6
				c-29.9,2-58.7,1-88-3.1c-25-3.4-50.3-9-79.7-17.6c-8.7-2.5-17.5-5.5-26.9-8.7c-21.3-7.2-43.4-14.7-65.7-17l-0.1,0.4
				c22.2,2.3,44.2,9.7,65.5,17c9.4,3.2,18.2,6.2,26.9,8.7c29.4,8.6,54.7,14.2,79.8,17.6c29.4,4.1,58.3,5.1,88.2,3.1
				c44.3-2.8,84.4,1.7,119.8,5.6c11.9,1.3,23.6,2.8,34.9,4.2c6.4,0.8,13,1.6,19.5,2.4c15.8,1.9,34.5,4.1,54.3,5.1
				c2.5,0.1,5,0.2,7.5,0.3l2.2,0.1c72.9,2.7,129.6-20.9,186-47.4c3.4-1.6,6.9-3.3,10.3-4.9c18-8.7,36.6-17.6,57.6-23.3
				c31-8.3,59.9-12.3,86.8-15.6c13.1-1.6,26.4-2.4,39.5-2.4c12.4,0.1,24.9,0.8,38,2.3c22.1,2.5,45.4,7.1,75.3,14.6
				c14.3,3.6,33.1,8.4,51.9,13.3c17.8,4.7,35.2,9.5,51.9,14.4c37.8,11,70.7,22,100.6,33.8c23.5,9.2,48,19.7,76.9,33.1
				c11.7,5.4,24,11.2,37.3,17.6C1323.1,268.3,1334.5,273.9,1349.3,281.1z"/>
		</g>
		<g>
			
				<linearGradient id="SVGID_6_" gradientUnits="userSpaceOnUse" x1="180.7993" y1="205.6736" x2="1530.3838" y2="205.6736" gradientTransform="matrix(-1 0 0 1 1532.4629 0)">
				<stop  offset="0" style="stop-color:#FFFFFF"/>
				<stop  offset="1" style="stop-color:#231F20"/>
			</linearGradient>
			<path opacity="0.57" fill="url(#SVGID_6_)" d="M1351.4,279.7l0.3-0.3c-14.5-6.6-26.7-12.1-38.2-17.3
				c-13.6-6.1-26.2-11.6-38.6-16.8c-29.2-12.4-55.2-22.7-79.4-31.3c-15.5-5.6-32.2-11.1-50.9-16.8c-19-5.8-38-11.1-52.5-15.1
				c-15.9-4.4-32.1-8.7-47.8-12.8c-19-5-38.7-10.3-57.6-15.6c-23.5-6.6-48.8-13.3-74.6-17.5c-26.7-4.4-51.7-5.6-76.3-3.6
				c-12.8,1-27.3,2.2-42.2,4.1c-16.1,2-30.7,4.7-44.6,8.1c-22.2,5.4-41.1,15.2-59.4,24.7c-2.9,1.5-5.7,2.9-8.5,4.4
				c-26.6,13.5-55.2,27.6-85.7,37.7c-31.9,10.6-62.9,15.9-94.8,16c-0.9,0-1.7,0-2.6,0c-2.3,0-4.6,0-6.9,0
				c-15.8-0.2-32.3-1.1-53.7-2.9c-9-0.8-17.9-1.6-27.2-2.4c-8.9-0.8-18.1-1.7-27.4-2.4c-3.8-0.3-7.7-0.7-11.5-1
				c-34.8-3-70.7-6.1-109.4-4.4c-29.6,1.4-58.4-0.3-87.9-5.1c-24.5-4-49.7-10.2-79.3-19.5c-7.8-2.4-15.7-5.3-24.1-8.3
				c-22.3-8.1-45.4-16.4-68.5-17.4l0,0.4c23,1,46.1,9.3,68.3,17.4c8.4,3,16.4,5.9,24.2,8.3c29.7,9.3,54.9,15.5,79.4,19.5
				c29.6,4.9,58.4,6.6,88.1,5.1c38.7-1.7,74.6,1.4,109.4,4.4c3.8,0.3,7.7,0.7,11.5,1c9.3,0.8,18.5,1.6,27.4,2.4
				c9.4,0.9,18.2,1.7,27.2,2.4c21.4,1.8,38,2.7,53.8,2.9c2.3,0,4.6,0,6.9,0c0.9,0,1.7,0,2.6,0c69.6-0.3,123.1-24.5,180.8-53.8
				c2.8-1.4,5.6-2.9,8.5-4.4c18.2-9.4,37.1-19.2,59.2-24.6c13.9-3.4,28.4-6,44.5-8.1c14.9-1.9,29.3-3,42.1-4.1
				c24.6-2,49.5-0.8,76.2,3.6c25.7,4.2,51,10.9,74.5,17.5c19,5.3,38.6,10.5,57.6,15.6c15.7,4.2,31.9,8.5,47.8,12.8
				c14.5,4,33.5,9.3,52.4,15c18.7,5.7,35.3,11.2,50.9,16.8c24.2,8.7,50.2,18.9,79.4,31.3c12.4,5.3,25,10.8,38.6,16.8
				C1324.7,267.6,1336.9,273.1,1351.4,279.7z"/>
		</g>
		<g>
			
				<linearGradient id="SVGID_7_" gradientUnits="userSpaceOnUse" x1="178.6812" y1="203.6523" x2="1529.9746" y2="203.6523" gradientTransform="matrix(-1 0 0 1 1532.4629 0)">
				<stop  offset="0" style="stop-color:#FFFFFF"/>
				<stop  offset="1" style="stop-color:#231F20"/>
			</linearGradient>
			<path opacity="0.57" fill="url(#SVGID_7_)" d="M1353.5,278.3l0.3-0.3c-14.4-6.1-27.4-11.6-39.5-16.6c-13.8-5.7-26.9-10.9-39.9-16
				c-29.8-11.6-56.5-21.3-81.8-29.6c-15.4-5.1-32.5-10.2-52.2-15.7c-17.3-4.8-34.6-9.3-53.8-14.2c-4.6-1.2-9.2-2.4-13.8-3.6
				c-31-8-63-16.2-93.3-25.6l-2.1-0.6c-50.6-15.5-94.4-28.9-146.7-27l-4.2,0.2c-12.1,0.4-24.6,0.9-37.5,1.9
				c-16.4,1.4-31.1,3.5-44.9,6.5c-23.1,5.1-42.9,16.2-60.4,25.9c-2.4,1.4-4.8,2.7-7.2,4c-60.8,33.3-108.9,57-175.2,60.1
				c-0.9,0-1.9,0.1-2.8,0.1c-2.1,0.1-4.3,0.2-6.5,0.3c-15.8,0.5-32.7,0.2-53.2-0.7c-12.8-0.6-25.6-1.3-39.1-2.2
				c-5.2-0.3-10.4-0.6-15.7-0.9c-9.4-0.6-18.9-1.2-28.2-1.8c-30-2.1-61-4.2-93.8-3.4c-29.4,0.8-58.1-1.5-87.8-7.2
				c-24-4.5-49-11.3-78.9-21.4c-7.1-2.4-14.4-5.2-22.1-8.1c-22.6-8.7-46-17.6-69.3-17.6c-0.4,0-0.9,0-1.3,0l0,0.4c0.4,0,0.9,0,1.3,0
				c23.2,0,46.5,8.9,69.1,17.6c7.7,3,15,5.8,22.2,8.1c29.9,10,55,16.8,79,21.4c29.7,5.7,58.5,8,88,7.2c32.7-0.8,63.8,1.3,93.8,3.4
				c9.2,0.6,18.8,1.3,28.2,1.8c5.3,0.3,10.5,0.6,15.7,0.9c13.5,0.8,26.3,1.6,39.1,2.2c20.5,1,37.4,1.2,53.2,0.7
				c2.2-0.1,4.4-0.2,6.5-0.3c0.9,0,1.9-0.1,2.8-0.1c66.4-3.1,114.6-26.9,175.5-60.2c2.4-1.3,4.8-2.6,7.2-4
				c17.4-9.7,37.2-20.7,60.2-25.8c13.7-3,28.4-5.2,44.8-6.5c12.9-1,25.4-1.5,37.5-1.9l4.2-0.2c52.2-1.9,95.9,11.5,146.5,27l2.1,0.6
				c30.3,9.3,62.3,17.6,93.3,25.6c4.6,1.2,9.2,2.4,13.8,3.6c19.2,4.9,36.5,9.4,53.8,14.2c19.7,5.5,36.8,10.6,52.2,15.7
				c25.3,8.3,52.1,18,81.8,29.6c13,5.1,26.1,10.3,39.9,16C1326.2,266.7,1339.1,272.2,1353.5,278.3z"/>
		</g>
		<g>
			
				<linearGradient id="SVGID_8_" gradientUnits="userSpaceOnUse" x1="176.5654" y1="201.264" x2="1529.5957" y2="201.264" gradientTransform="matrix(-1 0 0 1 1532.4629 0)">
				<stop  offset="0" style="stop-color:#FFFFFF"/>
				<stop  offset="1" style="stop-color:#231F20"/>
			</linearGradient>
			<path opacity="0.57" fill="url(#SVGID_8_)" d="M1355.7,276.9l0.2-0.3c-14.7-5.8-28-11-40.8-15.9c-14-5.3-27.5-10.3-41.2-15.2
				c-30.3-10.9-57.9-20-84.3-27.9c-15.5-4.6-32.5-9.2-53.5-14.5c-13.2-3.3-26.7-6.5-39.8-9.7c-5.1-1.2-10.2-2.5-15.3-3.7
				c-39.5-9.6-74.9-18.4-108.7-29.8c-8.7-2.9-17.1-5.9-25.3-8.7c-40-14-77.7-27.2-121.3-25.4c-7.3,0.3-14.7,0.3-22.4,0.4
				c-20.3,0.1-41.3,0.2-64,4.8c-11.9,2.4-23.5,6.5-36.6,13.1c-8.7,4.4-16.7,9.2-24.4,13.8c-2.1,1.3-4.3,2.5-6.4,3.8
				c-55,32.4-102.5,60.4-169.9,66.5c-0.9,0.1-1.9,0.2-2.8,0.3c-2.1,0.2-4.3,0.4-6.4,0.6c-16.1,1.2-32.8,1.6-52.7,1.5
				c-17.8-0.1-36.1-0.7-54.9-1.3c-15.2-0.5-30.6-1.4-45.5-2.2c-24.9-1.4-50.8-2.9-77.5-2.8c-29.2,0.3-57.9-2.8-87.7-9.2
				c-23.7-5.1-48-12.3-78.6-23.2c-6.6-2.3-13.4-5.1-20.6-8C52.6,174.6,27,164.2,2.9,166l0.1,0.4c24-1.8,49.5,8.6,72,17.7
				c7.2,2.9,14,5.7,20.6,8c30.6,11,54.9,18.1,78.7,23.3c29.9,6.5,58.6,9.5,87.9,9.3c26.7-0.1,52.5,1.3,77.5,2.8
				c14.9,0.9,30.3,1.7,45.5,2.2c18.8,0.6,37.2,1.2,54.9,1.3c19.8,0.1,36.6-0.3,52.7-1.5c2.1-0.2,4.3-0.4,6.4-0.6
				c0.9-0.1,1.9-0.2,2.8-0.3c67.5-6.1,115.1-34.1,170.2-66.6c2.1-1.2,4.2-2.5,6.4-3.8c7.7-4.6,15.7-9.4,24.4-13.8
				c13-6.6,24.6-10.7,36.4-13.1c22.7-4.5,43.6-4.6,63.9-4.8c7.8,0,15.2-0.1,22.5-0.4c43.5-1.8,81.2,11.4,121,25.4
				c8.2,2.9,16.7,5.8,25.4,8.7c33.9,11.4,69.3,20.2,108.8,29.8c5.1,1.2,10.2,2.5,15.3,3.7c13.1,3.1,26.6,6.4,39.8,9.7
				c21,5.3,38,9.9,53.5,14.5c26.4,7.8,53.9,17,84.3,27.8c13.7,4.9,27.2,9.9,41.2,15.2C1327.7,265.9,1341,271.1,1355.7,276.9z"/>
		</g>
		<g>
			
				<linearGradient id="SVGID_9_" gradientUnits="userSpaceOnUse" x1="174.4468" y1="198.2422" x2="1529.2197" y2="198.2422" gradientTransform="matrix(-1 0 0 1 1532.4629 0)">
				<stop  offset="0" style="stop-color:#FFFFFF"/>
				<stop  offset="1" style="stop-color:#231F20"/>
			</linearGradient>
			<path opacity="0.57" fill="url(#SVGID_9_)" d="M1357.8,275.5l0.2-0.3c-14.9-5.5-28.7-10.4-42.2-15.2c-14.2-5-28.1-9.7-42.4-14.4
				c-30.9-10.2-59.2-18.7-86.7-26.1c-26.9-7.3-55.6-13.6-83.3-19.7c-46.5-10.2-94.6-20.8-138.3-36.7c-11.6-4.2-22.7-8.5-33.4-12.8
				c-36.4-14.3-70.7-27.9-111.1-27.9c-7.2,0-14.6-0.3-22.4-0.7c-20.2-0.9-41-1.8-63.9,2.3c-24.8,4.4-44.5,17-61.9,28.2
				c-1.8,1.1-3.6,2.3-5.3,3.4l-6.1,3.8c-51.1,32.4-95.3,60.5-158.6,69.1c-1,0.1-2,0.3-3,0.4c-2,0.3-4,0.6-6,0.8
				c-16.1,1.9-33.1,3.1-52.1,3.7c-15.8,0.5-33.3,0.7-55.1,0.5c-21.1-0.2-41.5-1.3-63.1-2.4c-19.7-1-40.1-2.1-61-2.4
				c-29-0.3-57.7-4-87.6-11.3c-29.7-7.2-57.4-17.2-78.2-25.1c-6.2-2.3-12.6-5.1-19.3-8c-23-9.9-49.1-21.1-73.6-17.8l0.1,0.4
				c24.3-3.2,50.3,7.9,73.3,17.8c6.8,2.9,13.2,5.6,19.3,8c20.8,7.9,48.6,17.9,78.3,25.1c30,7.3,58.7,11,87.8,11.3
				c20.8,0.3,41.2,1.4,60.9,2.4c21.6,1.1,42,2.2,63.1,2.4c21.8,0.2,39.3,0,55.1-0.5c19-0.6,36.1-1.8,52.2-3.7c2-0.2,4.1-0.5,6-0.8
				c1-0.1,2-0.3,3-0.4c63.5-8.6,107.7-36.7,158.8-69.2l6.1-3.8c1.7-1.1,3.5-2.2,5.3-3.4c17.3-11.1,36.9-23.7,61.6-28.1
				c22.8-4.1,43.7-3.2,63.8-2.3c7.8,0.3,15.2,0.7,22.4,0.7c40.3,0,74.6,13.5,110.9,27.8c10.7,4.2,21.8,8.6,33.4,12.8
				c43.8,15.9,91.9,26.5,138.4,36.7c27.8,6.1,56.5,12.4,83.3,19.7c27.5,7.4,55.9,15.9,86.7,26.1c14.3,4.7,28.2,9.4,42.4,14.4
				C1329.1,265.1,1342.9,270,1357.8,275.5z"/>
		</g>
		<g>
			
				<linearGradient id="SVGID_10_" gradientUnits="userSpaceOnUse" x1="172.332" y1="194.4437" x2="1528.8389" y2="194.4437" gradientTransform="matrix(-1 0 0 1 1532.4629 0)">
				<stop  offset="0" style="stop-color:#FFFFFF"/>
				<stop  offset="1" style="stop-color:#231F20"/>
			</linearGradient>
			<path opacity="0.57" fill="url(#SVGID_10_)" d="M1359.9,274.1l0.2-0.3c-15-5.1-29.6-10-43.5-14.5c-14.4-4.7-28.7-9.1-43.7-13.6
				c-15-4.5-29.9-8.8-44.2-12.7c-14.2-3.9-29.3-7.8-44.9-11.6c-24.1-5.9-49.9-11-74.7-16c-51.1-10.2-104-20.8-151.2-39.1
				c-12.7-4.9-24.6-9.9-36.2-14.8c-12.1-5.1-23.5-9.9-35.1-14.3c-26.7-10.1-48.6-15.7-71.1-18.1c-2.7-0.3-5.5-0.6-8.3-0.9
				c-23.1-2.6-49.2-5.4-77.9-0.9c-25.7,4-45.2,17.4-62.4,29.3c-1.5,1.1-3,2.1-4.5,3.1c-4.1,2.8-8.1,5.5-12,8.2
				c-47.2,32.3-87.9,60.2-147.3,71.1c-1,0.2-2.1,0.4-3.1,0.6c-1.9,0.4-3.8,0.7-5.8,1.1c-16.3,2.7-33.1,4.6-51.6,5.9
				c-16.8,1.2-34.9,2-55.3,2.3c-27.1,0.4-53.2-1-80.7-2.5c-14.4-0.8-29.3-1.6-44.4-2.1c-28.8-0.9-57.5-5.2-87.5-13.4
				c-28.8-7.7-55.5-18-77.9-27c-5.8-2.3-11.8-5-18.2-7.9C55,175.3,28.4,163.3,3.6,168l0.1,0.4c24.5-4.7,51,7.2,74.4,17.8
				c6.4,2.9,12.4,5.6,18.3,7.9c22.4,9,49.1,19.3,77.9,27c30.1,8.1,58.8,12.5,87.7,13.4c15,0.5,29.9,1.3,44.4,2.1
				c27.6,1.5,53.6,2.9,80.8,2.5c20.4-0.3,38.4-1.1,55.3-2.3c18.5-1.3,35.4-3.3,51.7-5.9c2-0.3,3.9-0.7,5.8-1.1
				c1-0.2,2.1-0.4,3.1-0.6c59.6-10.9,100.4-38.8,147.6-71.2c4-2.7,8-5.5,12-8.2c1.5-1,3-2.1,4.5-3.1c17.2-11.8,36.6-25.2,62.1-29.2
				c28.6-4.5,54.7-1.6,77.7,0.9c2.8,0.3,5.6,0.6,8.3,0.9c22.5,2.4,44.3,7.9,71,18c11.5,4.4,22.9,9.2,35,14.3
				c11.6,4.9,23.5,9.9,36.2,14.8c47.2,18.4,100.2,28.9,151.3,39.1c24.9,5,50.6,10.1,74.7,16c15.6,3.8,30.8,7.7,44.9,11.6
				c14.4,3.9,29.2,8.2,44.2,12.7c15,4.5,29.3,9,43.7,13.6C1330.3,264.1,1344.9,269,1359.9,274.1z"/>
		</g>
		<g>
			
				<linearGradient id="SVGID_11_" gradientUnits="userSpaceOnUse" x1="170.2139" y1="190.6848" x2="1528.458" y2="190.6848" gradientTransform="matrix(-1 0 0 1 1532.4629 0)">
				<stop  offset="0" style="stop-color:#FFFFFF"/>
				<stop  offset="1" style="stop-color:#231F20"/>
			</linearGradient>
			<path opacity="0.57" fill="url(#SVGID_11_)" d="M1362,272.7l0.2-0.3c-15.3-4.8-30.3-9.5-44.8-13.8c-14.6-4.3-29.3-8.6-45-12.8
				c-15.3-4.2-30.6-8.2-45.5-11.9c-14.8-3.7-30.3-7.3-46.2-10.7c-22.1-4.8-45.7-9-68.5-13.1c-55-9.8-112-20-161.8-40.7
				c-15.4-6.4-29.5-13-43.1-19.4c-9.4-4.4-18.3-8.6-27.3-12.5c-19-8.3-42.2-17.4-69.8-21.7c-2.8-0.4-5.7-0.9-8.7-1.4
				c-22.8-3.7-48.6-7.9-77.4-4c-26.5,3.6-45.8,17.8-62.8,30.4c-1.3,1-2.6,1.9-3.9,2.9c-5.8,4.2-11.5,8.5-17,12.5
				c-18.9,14-36.7,27.2-55.5,38.8c-27.3,16.9-53.3,27.8-81.6,34.4c-1,0.2-2.1,0.5-3.1,0.7c-1.8,0.4-3.7,0.9-5.6,1.3
				c-31.6,6.6-65.4,10.5-106.5,12.2c-33.1,1.3-64.7-0.7-98.1-2.8c-9.1-0.6-18.6-1.2-28-1.7c-28.7-1.4-57.3-6.5-87.4-15.4
				c-27.9-8.2-53.8-18.7-77.5-28.8c-5.5-2.3-11.2-5-17.3-7.9C56,175.6,29,162.7,4,169.1l0.2,0.3c24.7-6.3,51.7,6.5,75.5,17.8
				c6.1,2.9,11.8,5.6,17.3,7.9c23.8,10.1,49.6,20.6,77.6,28.9c30.2,9,58.8,14,87.6,15.4c9.4,0.5,18.9,1.1,28,1.7
				c33.5,2.1,65.1,4.1,98.2,2.8c41.1-1.7,75-5.6,106.6-12.2c1.9-0.4,3.8-0.9,5.6-1.3c1-0.3,2.1-0.5,3.1-0.7
				c28.5-6.6,54.5-17.6,81.8-34.5c18.8-11.6,36.6-24.8,55.5-38.8c5.5-4.1,11.2-8.3,17-12.5c1.3-0.9,2.6-1.9,3.9-2.9
				c17-12.5,36.2-26.7,62.5-30.3c28.7-3.9,54.5,0.3,77.2,3.9c2.9,0.5,5.8,0.9,8.7,1.4c27.5,4.3,50.7,13.3,69.7,21.7
				c9,4,17.9,8.1,27.2,12.5c13.6,6.4,27.7,13,43.2,19.4c49.9,20.7,106.8,30.9,161.9,40.7c22.8,4.1,46.3,8.3,68.4,13.1
				c15.9,3.5,31.4,7.1,46.1,10.7c14.8,3.7,30.1,7.7,45.5,11.9c15.7,4.3,30.4,8.5,45,12.8C1331.7,263.2,1346.8,267.8,1362,272.7z"/>
		</g>
		<g>
			
				<linearGradient id="SVGID_12_" gradientUnits="userSpaceOnUse" x1="168.0957" y1="186.8041" x2="1528.0791" y2="186.8041" gradientTransform="matrix(-1 0 0 1 1532.4629 0)">
				<stop  offset="0" style="stop-color:#FFFFFF"/>
				<stop  offset="1" style="stop-color:#231F20"/>
			</linearGradient>
			<path opacity="0.57" fill="url(#SVGID_12_)" d="M1364.2,271.2l0.2-0.3c-15.6-4.6-31.1-9-46.1-13.1c-14.8-4.1-30-8-46.3-12
				c-15.7-3.9-31.4-7.6-46.7-11c-15.4-3.4-31.3-6.7-47.4-9.8c-20.4-4-41.2-7.2-63.2-10.7c-18.4-2.9-37.4-5.9-56-9.3
				c-23.5-4.3-42.4-8.5-59.4-13.1c-20.8-5.6-39.1-12-56-19.4c-17.6-7.8-33.3-16-48.4-23.9c-7.3-3.8-14.2-7.4-21.2-10.9
				c-19.9-9.9-42-19.9-68.6-25.4c-2.9-0.6-5.8-1.2-9-1.9c-22.5-4.8-48.1-10.3-77-6.9C692,106.6,672,122.4,656,135
				c-1.1,0.8-2.1,1.7-3.2,2.5c-7.4,5.8-14.6,11.6-21.6,17.2c-16.4,13.2-31.9,25.6-48.2,36.8c-26.4,18.1-51.5,30.3-79,38.1
				c-1,0.3-2,0.6-3,0.9c-1.8,0.5-3.7,1.1-5.6,1.6c-32.3,8.4-67,13.7-106.1,16.2c-39,2.4-75.9-0.3-115-3.3c-4.1-0.3-8.1-0.6-12.2-0.9
				c-28.5-2-57-7.7-87.3-17.5c-28.2-9.1-54.6-20.6-77.2-30.7c-5.1-2.3-10.5-5-16.2-7.8c-24.3-12.1-51.8-25.9-77.1-18l0.2,0.3
				c25-7.9,52.4,5.8,76.6,17.9c5.7,2.9,11.1,5.5,16.2,7.8c22.5,10.1,49,21.6,77.2,30.7c30.3,9.8,58.9,15.5,87.4,17.5
				c4.1,0.3,8.1,0.6,12.2,0.9c39.1,3,76,5.8,115.1,3.3c39.1-2.5,73.9-7.8,106.3-16.3c1.9-0.5,3.8-1,5.6-1.6c1-0.3,2-0.6,3-0.9
				c27.6-7.8,52.7-20,79.2-38.2c16.3-11.2,31.8-23.7,48.2-36.9c7-5.6,14.2-11.4,21.6-17.2c1-0.8,2.1-1.7,3.2-2.5
				c16-12.6,35.8-28.2,63-31.4c28.8-3.4,54.3,2.1,76.8,6.9c3.1,0.7,6,1.3,9,1.9c26.5,5.5,48.5,15.4,68.4,25.3
				c7,3.5,13.9,7.1,21.1,10.9c15.2,7.9,30.8,16.1,48.4,23.9c16.9,7.4,35.2,13.8,56,19.4c17.1,4.6,36,8.8,59.5,13.1
				c18.7,3.4,37.7,6.4,56,9.3c22,3.5,42.7,6.7,63.1,10.7c16.1,3.1,32,6.4,47.4,9.8c15.3,3.4,31,7.1,46.7,11c16.3,4,31.4,8,46.2,12
				C1333.1,262.3,1348.6,266.7,1364.2,271.2z"/>
		</g>
		<g>
			
				<linearGradient id="SVGID_13_" gradientUnits="userSpaceOnUse" x1="165.9785" y1="182.8538" x2="1527.6953" y2="182.8538" gradientTransform="matrix(-1 0 0 1 1532.4629 0)">
				<stop  offset="0" style="stop-color:#FFFFFF"/>
				<stop  offset="1" style="stop-color:#231F20"/>
			</linearGradient>
			<path opacity="0.57" fill="url(#SVGID_13_)" d="M1366.3,269.8l0.2-0.3c-15.9-4.3-31.9-8.5-47.4-12.4
				c-15.1-3.8-30.6-7.5-47.5-11.3c-16-3.6-32.1-7-47.9-10.2c-16-3.1-32.3-6.1-48.6-8.9c-19.3-3.3-38.9-6-59.6-8.8
				c-20.4-2.8-41.5-5.7-62.2-9.2c-23.5-4-42.8-8.1-60.5-12.9c-21.2-5.8-39.7-12.4-56.5-20.3c-19.4-9.1-36.2-18.8-52.4-28.2
				c-5.6-3.3-10.9-6.3-16.3-9.4c-22.9-12.9-43.1-22.8-67.3-29.1c-2.9-0.7-5.8-1.5-8.9-2.4c-21.3-5.7-47.7-12.8-76.9-10
				c-28.2,2.8-47.9,19.4-63.7,32.7c-0.9,0.7-1.7,1.4-2.5,2.1c-8.7,7.3-16.9,14.5-25,21.5c-3.1,2.7-6.2,5.4-9.3,8.1
				c-10.3,8.9-21.4,18.4-32.9,27.2c-25.8,19.7-49.4,32.6-76.4,41.7c-1,0.3-2,0.7-2.9,1c-1.8,0.6-3.7,1.3-5.5,1.9
				c-33.2,10.3-67.8,16.9-105.8,20.2c-44.7,3.8-87.2-0.2-128.2-4c-28.4-2.5-56.9-8.9-87.2-19.5c-27.4-9.5-53-21.3-76.8-32.6
				c-4.9-2.3-10-5-15.4-7.8c-24.6-12.9-52.6-27.5-77.9-18l0.2,0.3c25.1-9.4,52.9,5.1,77.4,17.9c5.4,2.8,10.6,5.5,15.5,7.8
				c23.9,11.2,49.4,23,76.9,32.6c30.4,10.6,58.9,17,87.3,19.6c41.1,3.9,83.6,7.8,128.3,4c38-3.3,72.7-9.9,105.9-20.3
				c1.9-0.6,3.7-1.2,5.5-1.9c1-0.3,2-0.7,2.9-1c27.1-9.1,50.7-22,76.5-41.8c11.6-8.8,22.7-18.3,33-27.3c3.1-2.7,6.2-5.4,9.3-8.1
				c8-7,16.3-14.2,24.9-21.5c0.8-0.7,1.7-1.4,2.5-2.1c15.8-13.3,35.4-29.8,63.4-32.6c29.1-2.9,54.4,3.9,76.7,9.9
				c3.1,0.8,6,1.6,8.9,2.4c24.1,6.3,44.3,16.1,67.1,29c5.4,3,10.7,6.1,16.3,9.4c16.2,9.4,33,19.2,52.4,28.2
				c16.9,7.9,35.4,14.5,56.6,20.3c17.7,4.8,37,8.9,60.5,12.9c20.7,3.5,41.8,6.4,62.3,9.2c20.7,2.8,40.3,5.5,59.6,8.8
				c16.3,2.8,32.6,5.8,48.6,8.9c15.8,3.1,31.9,6.6,47.9,10.2c16.9,3.8,32.4,7.5,47.5,11.2C1334.4,261.3,1350.4,265.5,1366.3,269.8z"
				/>
		</g>
		<g>
			
				<linearGradient id="SVGID_14_" gradientUnits="userSpaceOnUse" x1="163.8618" y1="178.8354" x2="1527.3145" y2="178.8354" gradientTransform="matrix(-1 0 0 1 1532.4629 0)">
				<stop  offset="0" style="stop-color:#FFFFFF"/>
				<stop  offset="1" style="stop-color:#231F20"/>
			</linearGradient>
			<path opacity="0.57" fill="url(#SVGID_14_)" d="M1368.4,268.4l0.2-0.3c-33.6-8.4-66.4-15.9-97.5-22.1
				c-16.4-3.3-32.9-6.4-49.2-9.3c-16.6-2.9-33.3-5.6-49.8-8c-18.4-2.7-37-4.9-56.8-7.2c-22.2-2.6-45.2-5.3-67.6-8.8
				c-49.8-7.7-87.6-18.5-118.7-33.8c-21.2-10.5-39.1-22-56.3-33c-24.8-15.9-48.2-30.9-77.5-40.2c-2.8-0.9-5.7-1.8-8.7-2.8
				c-21.1-6.9-47.5-15.4-77-13c-29.1,2.4-48.5,19.9-64,34l-2,1.8c-9.9,8.9-19.3,17.8-28.3,26.4c-12.3,11.7-23.9,22.8-36.2,33.2
				c-24.9,21.1-47.6,35.1-73.8,45.4c-0.9,0.4-1.8,0.7-2.7,1.1c-1.8,0.7-3.7,1.5-5.6,2.2c-33.7,12.2-68.1,20.2-105.4,24.2
				c-45.3,4.9-88.7,0.8-129.3-3.8c-28.2-3.1-56.7-10.1-87.1-21.6c-26.6-10-51.3-22-76.4-34.4c-4.6-2.3-9.5-5-14.7-7.8
				C72,183.7,58.5,176.3,45.1,172c-15.5-4.9-28.5-4.8-39.9,0.2l0.3,0.3c11.2-4.9,24.1-5,39.5-0.1c13.4,4.2,26.9,11.6,38.8,18.1
				c5.2,2.8,10.1,5.5,14.7,7.8c25.1,12.5,49.9,24.5,76.5,34.5c30.4,11.5,58.9,18.6,87.2,21.6c40.6,4.6,84,8.7,129.4,3.8
				c37.3-4.1,71.9-12,105.6-24.3c1.9-0.7,3.8-1.4,5.6-2.2c0.9-0.4,1.8-0.7,2.7-1.1c26.2-10.3,49-24.3,73.9-45.5
				c12.3-10.4,23.9-21.5,36.2-33.2c9-8.6,18.3-17.5,28.3-26.4l2-1.8c15.5-14,34.8-31.4,63.7-33.8c29.4-2.4,55.7,6.2,76.8,13
				c3,1,5.9,1.9,8.7,2.8c29.3,9.2,52.6,24.2,77.4,40.1c17.3,11.1,35.1,22.5,56.4,33.1c31.2,15.4,69,26.1,118.9,33.9
				c22.5,3.6,45.5,6.2,67.7,8.8c19.7,2.3,38.4,4.5,56.8,7.2c16.5,2.4,33.2,5.1,49.8,8c16.2,2.9,32.8,6,49.1,9.3
				C1302,252.5,1334.8,260,1368.4,268.4z"/>
		</g>
		<g>
			
				<linearGradient id="SVGID_15_" gradientUnits="userSpaceOnUse" x1="161.7442" y1="174.7786" x2="1526.9287" y2="174.7786" gradientTransform="matrix(-1 0 0 1 1532.4629 0)">
				<stop  offset="0" style="stop-color:#FFFFFF"/>
				<stop  offset="1" style="stop-color:#231F20"/>
			</linearGradient>
			<path opacity="0.57" fill="url(#SVGID_15_)" d="M1370.6,267l0.2-0.3c-34.3-7.9-68-14.9-100.1-20.6c-17-3.1-34-5.9-50.4-8.4
				c-16.9-2.6-34-5-51-7.1c-18.5-2.4-37.3-4.2-57.2-6.1l-5.6-0.5c-20.7-2-42.8-4.3-64.3-7.4c-50.8-7.3-89-18.3-120.3-34.5
				c-22.7-11.8-41.3-25-59.2-37.6c-23.1-16.3-44.9-31.8-72.6-42.1c-2.7-1-5.4-2-8.3-3.1c-21.1-8.1-47.3-18.1-77.3-16.2
				c-29.9,1.9-49,20.4-64.3,35.2l-1.4,1.4c-10.8,10.4-20.8,20.8-30.5,30.8c-10.7,11.1-20.7,21.5-31.3,31.5
				c-23.9,22.5-45.9,37.6-71.2,49c-0.9,0.4-1.7,0.8-2.6,1.2c-1.8,0.8-3.7,1.7-5.6,2.5c-34,14.2-68.4,23.4-105.1,28.2
				c-46,5.9-89.8,1.8-130.3-3.6c-28.1-3.6-56.6-11.4-87-23.6c-26.2-10.5-49.9-22.7-76-36.3c-4.5-2.3-9.2-5-14.2-7.9
				c-24-13.7-53.8-30.7-79.4-17.9l0.3,0.3c25.3-12.6,54.9,4.3,78.8,17.9c5,2.9,9.7,5.6,14.2,7.9c26.1,13.7,49.9,25.8,76.1,36.3
				c30.4,12.3,58.9,20,87.1,23.7c40.5,5.4,84.4,9.6,130.5,3.6c36.8-4.8,71.2-14.1,105.2-28.3c1.9-0.8,3.8-1.7,5.6-2.5
				c0.9-0.4,1.7-0.8,2.6-1.2c25.3-11.4,47.3-26.6,71.3-49.1c10.6-10,20.7-20.4,31.3-31.5c9.7-10,19.6-20.4,30.5-30.8l1.4-1.4
				c15.3-14.7,34.3-33.1,64-35c29.9-1.9,56,8.1,77.1,16.2c2.9,1.1,5.6,2.1,8.3,3.1c27.6,10.3,49.4,25.7,72.5,42
				c17.9,12.7,36.5,25.8,59.2,37.7c31.4,16.3,69.7,27.3,120.5,34.6c21.5,3.1,43.7,5.4,64.4,7.4l5.6,0.5c19.9,1.9,38.6,3.8,57.1,6.1
				c17,2.2,34.1,4.6,51,7.1c16.4,2.5,33.4,5.4,50.4,8.4C1302.6,252.1,1336.3,259.1,1370.6,267z"/>
		</g>
		<g>
			
				<linearGradient id="SVGID_16_" gradientUnits="userSpaceOnUse" x1="159.627" y1="173.6153" x2="1526.54" y2="173.6153" gradientTransform="matrix(-1 0 0 1 1532.4629 0)">
				<stop  offset="0" style="stop-color:#FFFFFF"/>
				<stop  offset="1" style="stop-color:#231F20"/>
			</linearGradient>
			<path opacity="0.57" fill="url(#SVGID_16_)" d="M343,271.4c16.3,0,33.3-1,50.6-3.7c36.4-5.5,70.7-16.1,104.9-32.3
				c1.9-0.9,3.8-1.9,5.7-2.9c0.8-0.4,1.6-0.8,2.4-1.2c31.4-16,53.2-36.6,68.7-52.8c9.2-9.6,17.9-19.5,27.1-29.9
				c10.1-11.5,20.5-23.3,32-35.2l0.9-1c33.6-34.8,51.3-35.6,64.2-36.2c30.3-1.4,56.5,10.1,77.5,19.4c2.7,1.2,5.3,2.3,7.7,3.4
				c23.8,10.2,42.7,24.2,63.2,40.1c1.7,1.3,3.4,2.6,5.1,3.9c18.3,14.2,37.3,29,61.3,42.1c57.8,31.5,129.9,37.3,199.7,42.8
				c18.2,1.4,35.3,2.8,52.3,4.6c17.4,1.9,35,4,52.2,6.2c16.7,2.2,34,4.8,51.6,7.6c33.1,5.3,67.6,11.7,102.7,19.1l0.1-0.4
				c-35-7.4-69.6-13.9-102.7-19.1c-17.6-2.8-35-5.4-51.6-7.6c-17.3-2.3-34.8-4.4-52.2-6.2c-17-1.8-34.1-3.2-52.3-4.6
				c-69.7-5.5-141.7-11.2-199.4-42.7c-24-13.1-42.9-27.8-61.2-42.1c-1.7-1.3-3.4-2.6-5.1-3.9c-20.6-15.9-39.5-30-63.4-40.2
				c-2.5-1.1-5-2.2-7.7-3.4c-21-9.3-47.2-20.9-77.8-19.4c-30.8,1.5-50.3,21.7-64.6,36.4l-0.9,1c-11.5,11.9-22,23.7-32,35.2
				c-9.2,10.5-17.9,20.3-27.1,29.9c-29.4,30.7-52.1,44.3-68.6,52.7c-0.8,0.4-1.6,0.8-2.4,1.2c-1.8,1-3.7,1.9-5.7,2.9
				c-34.1,16.2-68.4,26.7-104.7,32.2c-48.4,7.3-93.6,2.4-131.3-3.4c-28-4.2-56.4-12.6-86.9-25.7c-27.4-11.8-53.1-25.8-75.7-38.2
				c-4.2-2.3-8.8-5-13.5-7.8c-24.3-14.5-54.4-32.4-80.1-18l0.3,0.3c25.4-14.3,55.4,3.6,79.5,18c4.8,2.9,9.3,5.5,13.6,7.9
				c22.6,12.4,48.3,26.4,75.7,38.2c30.5,13.1,58.9,21.6,87,25.7C286.3,268.1,313.7,271.4,343,271.4z"/>
		</g>
		<g>
			
				<linearGradient id="SVGID_17_" gradientUnits="userSpaceOnUse" x1="157.5073" y1="172.9938" x2="1526.1553" y2="172.9938" gradientTransform="matrix(-1 0 0 1 1532.4629 0)">
				<stop  offset="0" style="stop-color:#FFFFFF"/>
				<stop  offset="1" style="stop-color:#231F20"/>
			</linearGradient>
			<path opacity="0.57" fill="url(#SVGID_17_)" d="M341.4,277c18.4,0,35.9-1.5,53.3-4.4c36.2-6.3,70.4-18.1,104.5-36.3
				c1.9-1,3.8-2.1,5.6-3.2c0.8-0.4,1.5-0.9,2.3-1.3c24-13.8,43.8-30.6,66.1-56.4c8-9.2,15.5-18.5,23.4-28.5
				c10.3-12.8,20.9-26.1,33-39.4l0.5-0.6c13.9-15.4,33-36.5,64.4-37.5c30.9-0.9,57,12.2,77.9,22.7c2.5,1.3,4.9,2.4,7.1,3.6
				c24.5,12,43.5,28.2,61.9,43.9l2.1,1.8c18.7,16,38.1,32.5,63.4,47c58.9,33.6,133.5,38.2,205.7,42.6c17.5,1.1,34.1,2.1,50.5,3.5
				c17.9,1.6,35.9,3.4,53.4,5.3c17.1,1.9,34.4,4.1,52.8,6.7c34.1,4.8,69.5,10.7,105.2,17.6l0.1-0.4c-35.7-7-71.2-12.9-105.3-17.6
				c-18.5-2.6-35.8-4.8-52.9-6.7c-17.6-2-35.6-3.8-53.5-5.3c-16.4-1.4-33-2.4-50.5-3.5c-72.1-4.4-146.7-9-205.5-42.5
				c-25.3-14.5-44.6-31-63.4-46.9l-2.1-1.8c-18.4-15.7-37.5-31.9-62-43.9c-2.3-1.1-4.6-2.3-7.1-3.6c-21-10.6-47.2-23.7-78.2-22.8
				c-31.7,1-50.8,22.2-64.8,37.6l-0.5,0.6c-12,13.3-22.7,26.6-33,39.4c-8,9.9-15.5,19.3-23.4,28.5c-22.3,25.7-42,42.6-66,56.3
				c-0.8,0.4-1.5,0.9-2.3,1.3c-1.8,1.1-3.7,2.2-5.6,3.2c-34.1,18.2-68.2,30-104.3,36.3c-50.6,8.7-97.3,2.8-132.4-3.2
				c-27.9-4.7-56.3-13.8-86.8-27.7c-26.6-12.1-51.1-26.2-74.8-39.8l-0.5-0.3c-4-2.3-8.4-5-12.9-7.8c-24.5-15.2-55.1-34.2-80.9-18
				l0.3,0.3c25.5-16,55.8,2.9,80.2,18c4.6,2.8,8.9,5.5,12.9,7.8l0.5,0.3c23.7,13.6,48.2,27.6,74.9,39.8c30.5,14,58.9,23.1,86.9,27.8
				c24.6,4.2,45.2,6.6,64.9,7.4C331.8,276.9,336.6,277,341.4,277z"/>
		</g>
		<g>
			
				<linearGradient id="SVGID_18_" gradientUnits="userSpaceOnUse" x1="155.3902" y1="172.3592" x2="1525.7656" y2="172.3592" gradientTransform="matrix(-1 0 0 1 1532.4629 0)">
				<stop  offset="0" style="stop-color:#FFFFFF"/>
				<stop  offset="1" style="stop-color:#231F20"/>
			</linearGradient>
			<path opacity="0.57" fill="url(#SVGID_18_)" d="M340.2,282.5c19.2,0,37.4-1.7,55.6-5.2c36.1-7,70.2-20.2,104.2-40.3
				c2-1.2,3.9-2.4,5.7-3.6c0.7-0.4,1.4-0.9,2.1-1.3c37.6-24,60-54.7,83.7-87.2c10.4-14.2,21.1-28.8,33.4-43.5l0.1-0.1
				c13.6-16.1,32.3-38.2,64.5-38.7c0.5,0,0.9,0,1.4,0c30.9,0,57.6,15.1,77.1,26.1c2.3,1.3,4.4,2.5,6.5,3.6
				c23.4,12.9,41.2,29.5,60.1,47.2l0.5,0.4c18.8,17.6,38.3,35.7,64.8,51.6c26.8,16,59.7,26.9,100.6,33.3c36.2,5.7,74.1,7.4,110.8,9
				c17,0.7,33.1,1.4,49.1,2.5c18.4,1.3,36.7,2.7,54.7,4.4c17.3,1.6,35,3.5,54.1,5.9c35.1,4.2,71.3,9.7,107.8,16.2l0.1-0.4
				c-36.5-6.5-72.8-11.9-107.8-16.2c-19-2.3-36.7-4.2-54.1-5.9c-17.9-1.7-36.3-3.2-54.7-4.4c-15.9-1.1-32-1.8-49.1-2.5
				c-36.7-1.6-74.6-3.3-110.8-9c-40.9-6.4-73.7-17.3-100.4-33.2c-26.5-15.9-45.9-34-64.8-51.5l-0.5-0.4
				C816,121.6,798.1,105,774.7,92c-2.1-1.1-4.2-2.4-6.5-3.6c-19.9-11.2-47.1-26.6-78.8-26.2c-32.5,0.5-51.3,22.7-64.9,38.9l-0.1,0.1
				c-12.4,14.7-23.1,29.4-33.5,43.5c-23.7,32.5-46.1,63.1-83.6,87c-0.7,0.4-1.4,0.9-2.1,1.3c-1.8,1.2-3.7,2.4-5.7,3.6
				c-33.9,20.1-68,33.3-104,40.3c-40.8,7.8-82,6.9-133.4-3c-27.8-5.2-56.2-15-86.7-29.8c-25.8-12.5-49.6-26.7-72.6-40.5l-2.4-1.4
				c-3.8-2.3-7.9-4.9-12.3-7.7c-12.2-7.9-26.1-16.9-40.2-21.7c-16.3-5.6-29.9-4.4-41.4,3.5l0.3,0.3c25.5-17.6,56.2,2.2,80.9,18.1
				c4.3,2.8,8.5,5.5,12.3,7.8l2.4,1.4c23,13.8,46.7,28,72.6,40.5c30.5,14.8,58.9,24.6,86.8,29.8
				C290.7,279.8,316.2,282.5,340.2,282.5z"/>
		</g>
		<g>
			
				<linearGradient id="SVGID_19_" gradientUnits="userSpaceOnUse" x1="153.2715" y1="171.703" x2="1525.374" y2="171.703" gradientTransform="matrix(-1 0 0 1 1532.4629 0)">
				<stop  offset="0" style="stop-color:#FFFFFF"/>
				<stop  offset="1" style="stop-color:#231F20"/>
			</linearGradient>
			<path opacity="0.57" fill="url(#SVGID_19_)" d="M338.9,288.1c19.8,0,38.8-2,57.8-6c36.1-7.7,70.1-22.2,103.8-44.3
				c2.1-1.4,4.1-2.8,6-4.2c0.5-0.4,1.1-0.8,1.6-1.1c35.8-25.3,56.5-56.5,78.4-89.5c10.3-15.5,20.9-31.5,33.5-47.5
				c12.4-15.8,31.2-39.7,64.3-39.7c0,0,0.1,0,0.1,0c32.1,0,59.2,17.1,79,29.6c2,1.3,3.9,2.5,5.8,3.6c22.4,13.9,39.3,31.1,57.2,49.3
				l2,2c20,20.4,38.7,38.5,64.1,54.4c27.1,16.9,60.8,28.1,102.8,34.3c37.2,5.5,76.2,6.5,114,7.5c16.7,0.4,32.4,0.9,48,1.6
				c18.8,1,37.6,2.1,55.9,3.5c17.6,1.3,35.7,3,55.3,5c36,3.7,73.2,8.6,110.4,14.7l0.1-0.4c-37.2-6-74.4-11-110.4-14.7
				c-19.6-2-37.7-3.7-55.3-5c-18.3-1.4-37.1-2.6-55.9-3.5c-15.6-0.8-31.4-1.2-48-1.6c-37.7-1-76.8-2-113.9-7.5
				c-42-6.2-75.6-17.4-102.6-34.2c-25.4-15.8-44-34-64-54.3l-2-2c-18-18.2-34.9-35.5-57.3-49.4c-1.9-1.2-3.8-2.4-5.8-3.6
				c-19.9-12.5-47-29.7-79.4-29.7c0,0-0.1,0-0.1,0c-33.4,0-52.2,24-64.7,39.8c-12.6,16-23.2,32.1-33.5,47.6
				c-21.9,33-42.5,64.2-78.3,89.4c-0.5,0.4-1.1,0.8-1.6,1.1c-1.9,1.4-3.9,2.8-6,4.2c-33.7,22.1-67.6,36.6-103.6,44.3
				c-22.6,4.8-45.2,6.7-69,5.8c-20.3-0.8-41.7-3.6-65.4-8.6c-27.7-5.8-56.1-16.2-86.6-31.8c-25.2-12.9-48.3-27.4-70.7-41.4l-3.9-2.4
				c-3.6-2.3-7.5-4.9-11.7-7.7C77,187.3,63.1,177.9,48.9,173c-16.6-5.8-30.2-4.3-41.8,4.4l0.4,0.3c11.4-8.6,24.8-10,41.2-4.3
				c14.2,4.9,28.1,14.3,40.4,22.5c4.1,2.8,8,5.4,11.7,7.7l3.9,2.4c22.4,14,45.5,28.5,70.7,41.4c30.6,15.7,58.9,26.1,86.7,31.9
				c23.7,5,45.2,7.9,65.5,8.6C331.4,288,335.2,288.1,338.9,288.1z"/>
		</g>
		<g>
			
				<linearGradient id="SVGID_20_" gradientUnits="userSpaceOnUse" x1="151.1519" y1="171.0421" x2="1524.9844" y2="171.0421" gradientTransform="matrix(-1 0 0 1 1532.4629 0)">
				<stop  offset="0" style="stop-color:#FFFFFF"/>
				<stop  offset="1" style="stop-color:#231F20"/>
			</linearGradient>
			<path opacity="0.57" fill="url(#SVGID_20_)" d="M338.2,293.6c20.4,0,40.1-2.3,59.7-6.8c36.2-8.4,70-24.2,103.5-48.4
				c2.2-1.6,4.2-3.2,6.2-4.7l1.2-1c34.2-26.6,53.2-58.4,73.4-92.1c10.1-16.8,20.5-34.1,33.1-51.4c12-16.3,30.1-41,64.1-40.5
				c32.8,0.5,59.9,19.4,79.7,33.2c1.7,1.2,3.4,2.4,5,3.5c21.4,14.8,37.5,32.5,54.6,51.4l3.3,3.7c18.6,20.5,37.4,40.3,63.4,57.1
				c27.5,17.8,61.8,29.3,105,35.3c38.1,5.3,78.3,5.7,117.1,6.1c16.4,0.2,31.8,0.3,47.1,0.8c19.2,0.6,38.5,1.5,57.1,2.6
				c17.8,1,36.3,2.4,56.5,4.1c37,3.2,75,7.6,113,13.2l0.1-0.4c-38-5.6-76.1-10-113-13.2c-20.2-1.7-38.7-3.1-56.6-4.1
				c-18.6-1.1-37.8-2-57.1-2.6c-15.3-0.5-30.8-0.7-47.1-0.8c-38.8-0.4-78.9-0.8-117-6.1c-43.1-6-77.4-17.5-104.7-35.2
				c-25.9-16.8-44.7-36.6-63.3-57.1l-3.3-3.7c-17-18.8-33.1-36.6-54.6-51.4c-1.6-1.1-3.3-2.3-5-3.5c-19.8-13.8-47-32.8-80-33.3
				c-0.4,0-0.8,0-1.2,0c-33.6,0-51.5,24.4-63.4,40.7c-12.7,17.3-23.1,34.7-33.1,51.4c-20.2,33.6-39.2,65.4-73.3,92l-1.2,1
				c-2,1.6-4.1,3.2-6.2,4.7c-33.4,24.1-67.2,39.9-103.3,48.3c-42.5,9.8-85.5,9-135.5-2.6c-27.7-6.3-55.9-17.4-86.5-33.9
				c-24.7-13.3-47.3-28.1-69.1-42.3l-5.1-3.3c-3.4-2.2-7.2-4.8-11.1-7.6c-17.6-12.3-39.6-27.6-60.2-27c-8.4,0.2-16,3.2-22.8,8.7
				l0.4,0.2c6.6-5.4,14.2-8.3,22.4-8.5c20.4-0.6,42.3,14.6,59.9,26.9c3.9,2.7,7.6,5.3,11.1,7.6l5.1,3.3
				c21.9,14.3,44.5,29.1,69.1,42.4c30.6,16.5,58.9,27.6,86.6,34C289.1,290.5,314.2,293.6,338.2,293.6z"/>
		</g>
		<g>
			
				<linearGradient id="SVGID_21_" gradientUnits="userSpaceOnUse" x1="149.0337" y1="170.3795" x2="1524.5938" y2="170.3795" gradientTransform="matrix(-1 0 0 1 1532.4629 0)">
				<stop  offset="0" style="stop-color:#FFFFFF"/>
				<stop  offset="1" style="stop-color:#231F20"/>
			</linearGradient>
			<path opacity="0.57" fill="url(#SVGID_21_)" d="M337.4,299.2c20.9,0,41.2-2.5,61.5-7.6c36.3-9.1,70-26.2,103.1-52.4
				c2.2-1.7,4.3-3.5,6.3-5.3l1-0.9c32.7-27.9,50.3-60.4,68.8-94.7c9.7-18,19.8-36.6,32.4-55.1c5.2-7.6,13.1-19.2,23.7-27.8
				c12-9.7,25.1-14.1,40.2-13.5c34,1.5,61.3,22.4,81.2,37.6c1.2,0.9,2.3,1.8,3.4,2.6c20.6,15.6,35.8,34,52,53.4
				c1.5,1.8,3,3.6,4.5,5.4c17.9,21.4,36.2,42.1,62.7,59.9c32.4,21.8,73.9,34.1,130.5,38.7c11.1,0.9,22.9,1.5,36.1,1.8
				c10.9,0.3,22.4,0.4,36.2,0.5c8.6,0,17.3,0,25.7-0.1c15.6-0.1,30.3-0.2,44.9,0.1c41.1,0.7,79.1,2.3,116.1,5
				c37.9,2.6,76.8,6.6,115.6,11.7l0.1-0.4c-38.8-5.1-77.7-9.1-115.6-11.7c-37-2.6-75-4.3-116.1-5c-14.6-0.3-29.3-0.2-44.9-0.1
				c-8.4,0.1-17.1,0.1-25.7,0.1c-13.8,0-25.4-0.1-36.2-0.5c-13.1-0.3-24.9-0.9-36-1.8c-56.5-4.5-97.9-16.8-130.2-38.6
				c-26.4-17.7-44.7-38.4-62.6-59.8c-1.5-1.8-3-3.6-4.5-5.4c-16.2-19.4-31.5-37.8-52.1-53.5c-1.1-0.8-2.2-1.7-3.4-2.6
				c-20-15.3-47.3-36.2-81.5-37.7c-35-1.6-53.4,25.4-64.3,41.5c-12.6,18.5-22.7,37.1-32.4,55.2c-18.5,34.3-36,66.8-68.7,94.6l-1,0.9
				c-2,1.7-4.1,3.5-6.3,5.2c-33.1,26.1-66.7,43.2-102.9,52.3c-43.5,10.8-86.9,10.1-136.5-2.4c-27.6-6.8-55.8-18.6-86.4-36
				c-24.2-13.7-46.3-28.8-67.7-43.3c-2.1-1.4-4.1-2.8-6.2-4.2c-3.3-2.2-6.8-4.8-10.5-7.4c-17.3-12.5-38.7-28-59.1-28
				c-0.5,0-1,0-1.4,0c-8.6,0.3-16.3,3.5-23.1,9.5l0.4,0.2c6.7-5.9,14.3-9.1,22.8-9.4c20.6-0.7,42.5,15.1,60.1,27.9
				c3.7,2.7,7.2,5.2,10.5,7.4c2,1.4,4.1,2.8,6.2,4.2c21.4,14.6,43.5,29.6,67.7,43.4c30.6,17.4,58.9,29.2,86.5,36
				C288.7,295.9,313.5,299.2,337.4,299.2z"/>
		</g>
		<g>
			
				<linearGradient id="SVGID_22_" gradientUnits="userSpaceOnUse" x1="146.9146" y1="169.7234" x2="1524.2002" y2="169.7234" gradientTransform="matrix(-1 0 0 1 1532.4629 0)">
				<stop  offset="0" style="stop-color:#FFFFFF"/>
				<stop  offset="1" style="stop-color:#231F20"/>
			</linearGradient>
			<path opacity="0.57" fill="url(#SVGID_22_)" d="M336.9,304.8c21.4,0,42.1-2.8,63-8.4c36.5-9.8,70.1-28.3,102.8-56.4
				c2.5-2.1,4.9-4.4,7.2-6.5c31.4-29.3,47.5-62.5,64.5-97.6c9.3-19.2,18.9-39,31.4-58.7c6-9.4,13.1-20.1,23.1-28.4
				c11.9-9.9,25.1-14.4,40.5-13.7c34.4,1.6,62.5,25.2,81.1,40.9c1.2,1,2.3,1.9,3.4,2.8c19.6,16.4,34.1,35.2,49.4,55.1
				c18.7,24.3,38.1,49.5,67.7,70.1c32.6,22.8,74.6,35.3,132.2,39.3c25.3,1.8,51.4,1.7,73.6,1.4c9.3-0.1,18.6-0.3,27.6-0.5
				c15.4-0.3,29.9-0.6,44.3-0.6c83.5,0,160.9,4.4,236.6,13.4l0.1-0.4c-75.8-9-153.2-13.4-236.7-13.4c-14.4,0-28.9,0.3-44.3,0.6
				c-9,0.2-18.4,0.4-27.6,0.5c-22.2,0.3-48.3,0.3-73.6-1.4c-57.5-4.1-99.4-16.5-131.9-39.2c-29.6-20.6-48.9-45.7-67.6-70
				C788.5,113.8,774,95,754.3,78.6c-1.1-0.9-2.2-1.9-3.4-2.8c-18.7-15.7-46.8-39.4-81.5-41c-15.5-0.7-28.9,3.8-40.9,13.8
				c-10,8.4-17.3,19.1-23.2,28.5c-12.5,19.7-22.1,39.5-31.4,58.7c-17,35.1-33.1,68.3-64.4,97.5c-2.3,2.1-4.7,4.4-7.2,6.5
				c-32.7,28.1-66.2,46.5-102.6,56.3c-23.7,6.3-47,9-71.3,8.2c-21.3-0.7-42.9-4.1-66.2-10.5c-27.5-7.4-55.7-19.8-86.2-38
				c-23.8-14.1-45.5-29.5-66.4-44.4c-2.4-1.7-4.7-3.4-7.1-5c-3.1-2.2-6.4-4.7-9.9-7.3c-17.8-13.3-39.9-29.9-60.8-29
				c-8.7,0.4-16.6,3.9-23.5,10.4l0.4,0.2c6.8-6.4,14.5-9.9,23.1-10.2c0.5,0,1.1,0,1.6,0c20.2,0,41.6,16,58.8,28.9
				c3.5,2.6,6.8,5.1,9.9,7.3c2.3,1.7,4.7,3.3,7.1,5c21,14.9,42.7,30.3,66.5,44.4c30.6,18.2,58.8,30.7,86.4,38.1
				c23.3,6.3,45,9.8,66.4,10.5C331.3,304.7,334.1,304.8,336.9,304.8z"/>
		</g>
		<g>
			
				<linearGradient id="SVGID_23_" gradientUnits="userSpaceOnUse" x1="144.7945" y1="169.0561" x2="1523.8096" y2="169.0561" gradientTransform="matrix(-1 0 0 1 1532.4629 0)">
				<stop  offset="0" style="stop-color:#FFFFFF"/>
				<stop  offset="1" style="stop-color:#231F20"/>
			</linearGradient>
			<path opacity="0.57" fill="url(#SVGID_23_)" d="M336.5,310.4c21.8,0,43-3,64.5-9.2c36.6-10.6,70.1-30.3,102.4-60.4
				c2.4-2.3,4.7-4.6,7-6.9c30.2-30.6,44.9-64.6,60.4-100.6c8.8-20.3,17.9-41.4,30.1-62.1c6.1-10.3,13-21,22.6-29.2
				c11.8-10.2,25.1-14.7,40.8-13.7c35.2,2.1,63.3,27.8,81.8,44.9c0.9,0.8,1.7,1.6,2.5,2.3c18.8,17.1,32.5,36.5,47.1,56.9
				c18.5,26.1,37.6,53,68,74.8c17.9,12.9,38.3,22.4,62.4,29.1c10.9,3,22.3,5.4,34.9,7.2c11.4,1.7,23.3,2.9,36.5,3.7
				c34.2,2,69.5,0.8,103.7-0.4c15.5-0.5,30.1-1.1,44.5-1.3c85.7-1.3,164.7,2,241.7,10.1l0.1-0.4c-77-8.1-156-11.4-241.7-10.2
				c-14.5,0.2-29.1,0.7-44.6,1.3c-34.2,1.2-69.5,2.5-103.6,0.4c-13.1-0.8-25-2-36.4-3.7c-12.6-1.9-24-4.2-34.8-7.2
				c-24.1-6.6-44.5-16.1-62.3-29c-30.3-21.8-49.5-48.7-67.9-74.7c-14.6-20.5-28.3-39.8-47.1-57c-0.8-0.8-1.7-1.5-2.5-2.3
				c-18.6-17.1-46.7-42.9-82.2-45c-15.8-1-29.3,3.6-41.2,13.8c-9.6,8.3-16.6,19-22.7,29.3c-12.2,20.7-21.3,41.8-30.1,62.1
				c-15.6,35.9-30.2,69.9-60.4,100.5c-2.3,2.4-4.6,4.7-7,6.9c-32.2,30-65.7,49.7-102.2,60.3c-24,6.9-47.6,9.8-72.1,9
				c-21.6-0.7-43.3-4.3-66.5-11.1c-27.5-7.9-55.6-21-86.1-40.1c-23.4-14.6-44.8-30.3-65.4-45.6c-2.6-1.9-5.2-3.8-7.7-5.7
				c-2.9-2.1-6-4.6-9.3-7.1c-17.8-13.8-40-31.1-61.1-30c-8.9,0.4-16.9,4.2-23.9,11.3l0.4,0.2c6.8-6.9,14.7-10.7,23.5-11.1
				c20.8-1,43,16.1,60.7,29.9c3.3,2.6,6.4,5,9.3,7.1c2.6,1.9,5.1,3.8,7.7,5.7c20.6,15.2,42,31,65.4,45.6
				c30.5,19.1,58.8,32.2,86.3,40.1c23.2,6.8,45.1,10.4,66.7,11.1C331.3,310.3,333.9,310.4,336.5,310.4z"/>
		</g>
		<g>
			
				<linearGradient id="SVGID_24_" gradientUnits="userSpaceOnUse" x1="142.6753" y1="168.3689" x2="1523.416" y2="168.3689" gradientTransform="matrix(-1 0 0 1 1532.4629 0)">
				<stop  offset="0" style="stop-color:#FFFFFF"/>
				<stop  offset="1" style="stop-color:#231F20"/>
			</linearGradient>
			<path opacity="0.57" fill="url(#SVGID_24_)" d="M336.1,315.9c22.2,0,44.1-3.3,66-10c10.4-3.2,20.6-7.2,30.6-12
				c9.2-4.4,18.3-9.6,27.1-15.5c15.4-10.2,29.9-22.3,44.5-36.9c2.6-2.6,5.1-5.3,6.9-7.3c29.1-32,42.4-66.9,56.6-103.7
				c8.2-21.4,16.7-43.6,28.6-65.3c5.8-10.5,12.4-21.5,22.1-30c11.7-10.4,25.2-14.9,41-13.7c16.3,1.2,32.5,7.6,49.3,19.6
				c13.2,9.4,24.3,20.4,33.1,29.3l1.8,1.8c18,17.9,31.7,38.7,44.9,58.8c2.4,3.7,4.9,7.5,7.4,11.2c14.8,22.2,33,47.7,60.7,68.3
				c17.7,13.2,39,23.3,63,29.9c20.9,5.8,44.6,9.3,72.4,10.7c35.2,1.8,71.7,0,106.9-1.8c15.2-0.8,29.7-1.5,43.9-1.9
				c87.8-2.6,168.5-0.4,246.7,6.9l0.1-0.4c-78.2-7.3-158.9-9.5-246.8-6.9c-14.3,0.4-28.7,1.1-43.9,1.9c-35.2,1.7-71.7,3.5-106.9,1.8
				c-27.8-1.5-51.4-5-72.3-10.7c-24-6.6-45.2-16.7-62.9-29.9c-27.7-20.6-45.8-46-60.6-68.2c-2.5-3.7-5-7.5-7.4-11.2
				c-13.2-20.1-26.9-40.9-45-58.9l-1.8-1.8c-8.9-8.9-20-19.9-33.2-29.3c-16.9-12-33.1-18.4-49.6-19.7c-15.8-1.2-29.8,3.5-41.5,13.9
				c-9.7,8.6-16.4,19.6-22.2,30.1c-11.9,21.8-20.4,43.9-28.6,65.4c-14.2,36.8-27.5,71.6-56.5,103.6c-1.8,2-4.3,4.7-6.9,7.3
				c-14.5,14.6-29.1,26.7-44.4,36.9c-8.8,5.8-17.9,11-27,15.4c-9.9,4.8-20.2,8.8-30.5,12c-45.5,13.8-91.2,13.2-139.6-1.8
				c-27.4-8.5-55.5-22.2-86-42.1c-23.1-15.1-44.2-31.2-64.5-46.8c-2.8-2.1-5.6-4.3-8.3-6.4c-2.7-2.1-5.6-4.4-8.7-6.9
				c-17-13.6-40.2-32.3-61.4-31.1C24.2,170.9,16,175,9,182.6l0.4,0.2c6.9-7.5,14.9-11.5,23.8-12c21-1.1,44.1,17.5,61,31
				c3.1,2.5,6,4.8,8.7,6.9c2.7,2.1,5.5,4.2,8.3,6.4c20.3,15.6,41.4,31.8,64.5,46.8c30.5,19.9,58.7,33.7,86.2,42.2
				C287.4,312,312,315.9,336.1,315.9z"/>
		</g>
		<g>
			
				<linearGradient id="SVGID_25_" gradientUnits="userSpaceOnUse" x1="140.5567" y1="167.7089" x2="1523.0205" y2="167.7089" gradientTransform="matrix(-1 0 0 1 1532.4629 0)">
				<stop  offset="0" style="stop-color:#FFFFFF"/>
				<stop  offset="1" style="stop-color:#231F20"/>
			</linearGradient>
			<path opacity="0.57" fill="url(#SVGID_25_)" d="M335.9,321.5c22.6,0,44.9-3.6,67.3-10.8c20.1-6.5,39.5-16.3,57.8-29.3
				c15.1-10.7,29.9-23.9,44-39.2c2.1-2.2,4.2-4.7,6.8-7.7c28-33.5,40.1-69.2,52.9-107c7.6-22.5,15.5-45.7,27-68.4
				c5.2-10.2,11.8-21.9,21.5-30.8c11.5-10.6,25.4-15.2,41.3-13.8c16.5,1.5,32.7,8.4,49.5,21.1c13.5,10.3,24.6,22.2,33.5,31.8
				l1.2,1.3c17.2,18.6,30.2,39.9,42.8,60.5c2.6,4.3,5.4,8.8,8.1,13.2c14.3,23.1,32,49.5,60,71.1c18,13.9,38.8,23.9,63.6,30.8
				c21.1,5.8,45.1,9.3,73.5,10.5c36,1.5,73.4-0.8,109.5-3.1c15.3-1,29.7-1.9,44-2.5c89.2-4,171.5-2.8,251.7,3.6l0.1-0.4
				c-80.2-6.5-162.6-7.7-251.8-3.6c-14.3,0.6-28.7,1.5-44,2.5c-36.1,2.3-73.5,4.6-109.5,3.1c-28.3-1.2-52.3-4.7-73.3-10.5
				c-24.7-6.8-45.5-16.9-63.4-30.7c-28-21.5-45.6-47.9-60-71c-2.7-4.4-5.5-8.9-8.1-13.2c-12.6-20.6-25.6-41.9-42.8-60.6l-1.2-1.3
				c-8.9-9.6-20-21.6-33.5-31.8c-16.9-12.8-33.2-19.7-49.8-21.2c-16.1-1.4-30.1,3.3-41.8,13.9c-9.8,9-16.4,20.7-21.6,30.9
				c-11.5,22.7-19.4,46-27,68.4c-12.8,37.8-24.9,73.5-52.9,106.9c-2.5,3-4.7,5.5-6.7,7.7c-14.1,15.3-28.8,28.4-43.9,39.1
				c-18.2,12.9-37.6,22.7-57.6,29.2c-46.3,14.9-92.3,14.4-140.7-1.6c-27.3-9-55.5-23.4-85.9-44.2c-22.9-15.6-43.7-32.1-63.8-48.1
				c-2.9-2.3-5.8-4.6-8.6-6.9c-2.5-2-5.3-4.3-8.2-6.7c-17-14.1-40.3-33.5-61.8-32.3c-9.3,0.5-17.5,4.9-24.6,13l0.4,0.2
				c7-8,15.1-12.3,24.2-12.9c21.2-1.2,44.4,18.1,61.4,32.2c2.9,2.4,5.6,4.7,8.2,6.7c2.8,2.3,5.7,4.6,8.6,6.9
				c20.1,16,40.9,32.6,63.8,48.2c30.5,20.8,58.7,35.2,86.1,44.2C287.2,317.4,311.7,321.5,335.9,321.5z"/>
		</g>
		<g>
			
				<linearGradient id="SVGID_26_" gradientUnits="userSpaceOnUse" x1="138.4361" y1="167.0362" x2="1522.6289" y2="167.0362" gradientTransform="matrix(-1 0 0 1 1532.4629 0)">
				<stop  offset="0" style="stop-color:#FFFFFF"/>
				<stop  offset="1" style="stop-color:#231F20"/>
			</linearGradient>
			<path opacity="0.57" fill="url(#SVGID_26_)" d="M335.5,327.1c23,0,46.1-3.9,68.8-11.6c20.2-6.9,39.7-17.3,57.9-31
				c15.2-11.4,29.4-25,43.5-41.4c2.3-2.7,4.5-5.5,6.6-8.2c27.2-35,38-71.8,49.5-110.7c6.9-23.4,14-47.6,25-71.1
				c4.9-10.5,11.3-22.4,21-31.6C619.3,10.6,633.2,6,649.4,7.6c37.9,3.8,66.7,37.4,83.9,57.5l0.1,0.2c16.6,19.3,28.9,41.2,40.9,62.4
				c2.8,5,5.7,10.1,8.6,15.1c17.2,29.8,33.9,53.7,59.4,73.9c9.2,7.3,19.4,13.7,30.4,19c10.3,5,21.7,9.3,33.8,12.6
				c21.3,5.9,45.7,9.3,74.6,10.3c27.3,1,55.2-0.5,78.9-2c11.7-0.8,23.4-1.7,34.7-2.5c14.8-1.1,28.7-2.2,42.5-3
				c91.7-5.3,175.6-5.2,256.7,0.4l0-0.4c-81.1-5.6-165.1-5.7-256.8-0.4c-13.8,0.8-27.8,1.9-42.5,3c-11.3,0.9-23.1,1.8-34.7,2.5
				c-23.7,1.6-51.6,3-78.8,2c-28.8-1-53.1-4.4-74.4-10.3c-12-3.3-23.4-7.6-33.7-12.6c-11-5.3-21.2-11.7-30.4-19
				c-25.4-20.1-42.1-44-59.3-73.8c-2.9-5-5.8-10.1-8.6-15.1c-12-21.2-24.4-43.1-41-62.4l-0.1-0.2c-17.2-20.1-46.1-53.8-84.3-57.7
				c-16.3-1.7-30.5,3-42,13.9c-9.8,9.3-16.2,21.2-21.1,31.7c-11,23.6-18.1,47.8-25,71.2c-11.5,38.9-22.4,75.7-49.5,110.6
				c-2.1,2.7-4.3,5.4-6.6,8.1c-14.1,16.4-28.3,29.9-43.4,41.3c-18.2,13.7-37.6,24.1-57.8,31c-24.5,8.4-49.5,12.2-74.3,11.5
				c-22.3-0.7-44.3-4.9-67.4-13c-27.3-9.5-55.4-24.6-85.8-46.2c-22.7-16.1-44.2-33.9-63.1-49.5c-3-2.5-6-5-8.9-7.4
				c-2.4-1.9-4.9-4.1-7.6-6.4c-17.1-14.7-40.5-34.7-62.1-33.4c-9.4,0.6-17.8,5.3-24.9,13.9l0.4,0.2c7-8.6,15.3-13.2,24.5-13.7
				c21.3-1.3,44.7,18.7,61.7,33.3c2.7,2.3,5.2,4.5,7.6,6.4c2.9,2.4,5.9,4.9,8.9,7.4c18.9,15.7,40.4,33.5,63.2,49.6
				c30.5,21.6,58.6,36.8,86,46.3c23.1,8.1,45.2,12.4,67.6,13C331.6,327.1,333.5,327.1,335.5,327.1z"/>
		</g>
		<g>
			
				<linearGradient id="SVGID_27_" gradientUnits="userSpaceOnUse" x1="136.3164" y1="166.3399" x2="1522.2334" y2="166.3399" gradientTransform="matrix(-1 0 0 1 1532.4629 0)">
				<stop  offset="0" style="stop-color:#FFFFFF"/>
				<stop  offset="1" style="stop-color:#231F20"/>
			</linearGradient>
			<path opacity="0.57" fill="url(#SVGID_27_)" d="M335.3,332.7c23.4,0,46.8-4.2,70-12.4c37.3-13.3,71.3-39,101.1-76.4
				c25.4-31.9,37-65.4,45.6-96.8c2.4-8.6,4.6-17.5,6.8-26c6.2-24.4,12.7-49.6,23.2-74c4.3-10,10.6-22.8,20.5-32.4
				C613.9,3.6,628-1.1,644.4,0.8c39,4.5,68.2,41.3,83.9,61.1c15.9,20.1,27.8,42.6,39.2,64.3c17.3,32.9,35.1,66.9,67.7,93.5
				c18.1,14.8,39.3,25.4,64.8,32.5c21.6,6,46.3,9.3,75.6,10.1c28.1,0.8,56.3-1,80.2-2.9c12.4-1,24.9-2.1,36.9-3.1
				c14.4-1.3,28.1-2.5,41.6-3.5c94.1-6.7,179.8-7.6,261.8-2.9l0-0.4c-82-4.8-167.7-3.8-261.8,2.9c-13.5,1-27.2,2.2-41.6,3.5
				c-12.1,1.1-24.5,2.2-36.9,3.1c-23.9,1.9-52.1,3.7-80.2,2.9c-29.3-0.8-54-4.1-75.5-10.1c-25.4-7.1-46.6-17.7-64.6-32.4
				C803,193,785.2,159,767.9,126.1c-11.4-21.8-23.2-44.3-39.2-64.4C713,41.9,683.6,4.9,644.4,0.4c-16.6-1.9-30.8,2.8-42.3,14
				c-9.9,9.7-16.2,22.5-20.5,32.5c-10.6,24.5-17,49.7-23.2,74.1c-2.2,8.5-4.4,17.4-6.8,26c-8.7,31.4-20.2,64.8-45.6,96.7
				c-29.8,37.4-63.7,63-100.9,76.3c-30.1,10.7-60.7,14.5-90.9,11.2c-26.2-2.9-52.4-11-79.9-24.8c-22-11-44.1-25.4-69.6-45.1
				c-18-13.9-34.5-28.1-50.4-41.8c-3.1-2.7-6.2-5.3-9.2-7.9c-2.2-1.9-4.5-3.9-7-6.1c-17.1-15.2-40.6-36-62.4-34.7
				c-9.6,0.6-18.1,5.6-25.3,14.8l0.4,0.2c7.1-9.1,15.4-14,24.9-14.6c21.5-1.4,44.9,19.4,62,34.5c2.5,2.2,4.8,4.3,7,6.1
				c3,2.6,6.1,5.2,9.2,7.9c16,13.7,32.5,27.9,50.5,41.8c25.5,19.7,47.7,34.1,69.7,45.2c27.6,13.8,53.8,22,80.1,24.8
				C321.1,332.3,328.2,332.7,335.3,332.7z"/>
		</g>
	</g>
</g>
</svg>
