<?xml version="1.0" encoding="utf-8"?>
<!-- Generator: Adobe Illustrator 17.1.0, SVG Export Plug-In . SVG Version: 6.00 Build 0)  -->
<!DOCTYPE svg PUBLIC "-//W3C//DTD SVG 1.1//EN" "http://www.w3.org/Graphics/SVG/1.1/DTD/svg11.dtd">
<svg version="1.1" id="Capa_1" xmlns="http://www.w3.org/2000/svg" xmlns:xlink="http://www.w3.org/1999/xlink" x="0px" y="0px"
	 width="470px" height="470px" viewBox="6.5 4.4 470 470" enable-background="new 6.5 4.4 470 470" xml:space="preserve">
<g>
	<path d="M241.5,474.4c-62.8,0-121.8-24.4-166.2-68.8S6.5,302.1,6.5,239.4c0-62.8,24.4-121.8,68.8-166.2
		C119.7,28.8,178.7,4.4,241.5,4.4s121.8,24.4,166.2,68.8c44.4,44.4,68.8,103.4,68.8,166.2c0,62.8-24.4,121.8-68.8,166.2
		S304.3,474.4,241.5,474.4z M241.5,25.4c-57.2,0-110.9,22.3-151.3,62.7c-40.4,40.4-62.7,94.2-62.7,151.3
		c0,57.2,22.3,110.9,62.7,151.3c40.4,40.4,94.2,62.7,151.3,62.7s110.9-22.3,151.3-62.7c40.4-40.4,62.7-94.2,62.7-151.3
		c0-57.2-22.3-110.9-62.7-151.3C352.4,47.6,298.7,25.4,241.5,25.4z"/>
</g>
<g>
	<path d="M369.7,215.3l-77.2,77.2c-21.3,21.3-55.9,21.3-77.2,0l-25.7-25.7l25.7-25.7l25.7,25.7c7.1,7.1,18.6,7.1,25.7,0l77.2-77.2
		c7.1-7.1,7.1-18.6,0-25.7l-25.7-25.7c-7.1-7.1-18.6-7.1-25.7,0L265,165.7c-12.8-7.5-27.3-10.7-41.7-9.8l43.5-43.5
		c21.3-21.3,55.9-21.3,77.2,0l25.7,25.7C391,159.5,391,194,369.7,215.3z M217.2,316.4L189.6,344c-7.1,7.1-18.6,7.1-25.7,0
		l-25.7-25.7c-7.1-7.1-7.1-18.6,0-25.7l77.2-77.2c7.1-7.1,18.6-7.1,25.7,0l25.7,25.7l25.7-25.7l-25.7-25.7
		c-21.3-21.3-55.9-21.3-77.2,0l-77.2,77.2c-21.3,21.3-21.3,55.9,0,77.2l25.7,25.7c21.3,21.3,55.9,21.3,77.2,0l43.5-43.5
		C244.5,327.2,230,323.9,217.2,316.4z"/>
</g>
</svg>
