<svg xmlns="http://www.w3.org/2000/svg" width="484.7" height="484.7" viewBox="0 0 484.7 484.7"><path d="M131 438.4h85.6v-87.6h51.5v87.6h85.6v-392H131v392zM258 92.6h51.5V144H258V92.6zm0 82.7h51.5v51.5H258v-51.5zm0 82.7h51.5v51.5H258V258zM175.3 92.6h51.5V144h-51.5V92.6zm0 82.7h51.5v51.5h-51.5v-51.5zm0 82.7h51.5v51.5h-51.5V258zM373.7 81.5v277.2h33.1v79.7h78V81.5H373.7zM444.4 321h-46.9v-46.9h46.9V321zm0-75.3h-46.9v-46.9h46.9v46.9zm0-75.3h-46.9v-46.9h46.9v46.9zM0 438.4h78v-79.7h33V81.5H0v356.9zm40.3-314.9h46.9v46.9H40.3v-46.9zm0 75.3h46.9v46.9H40.3v-46.9zm0 75.4h46.9V321H40.3v-46.8z"/></svg>