<svg xmlns="http://www.w3.org/2000/svg" width="560" height="470.2" viewBox="0 0 560 470.2"><path d="M80.3 153.3l-37.6-16.2 39.9-9 3.8-40.7 20.9 35.2 39.9-9-27 30.8 20.9 35.2-37.6-16.2-27 30.8 3.8-40.9zm206.9 3.6l-219.8 55 1.8 7.3 219.9-55-1.9-7.3zm7.6 30.4L75 242.3l1.8 7.3 219.8-55-1.8-7.3zm7.3 29.2l-219.8 55 1.8 7.3 219.8-55-1.8-7.3zm7.5 30.3l-219.8 55 1.8 7.3 219.8-55-1.8-7.3zm6.9 27.3L96.7 329.2l1.8 7.3 219.8-55-1.8-7.4zm7.6 30.4l-219.8 55 1.8 7.3 219.8-55-1.8-7.3zm7.3 29.1l-219.8 55 1.8 7.3 219.8-55-1.8-7.3zm7.6 30.3L119.2 419l1.8 7.2 219.8-55-1.8-7.3zM559.7 88.2L454 459.5c-1.2 4.2-5.6 6.6-9.8 5.4l-144.5-41.1L95.6 470c-4.3 1-8.6-1.7-9.5-6L.2 84.5c-1-4.3 1.7-8.6 6-9.6l260.7-59 2.9-10.1c1.2-4.2 5.6-6.7 9.8-5.5l274.5 78.1c4.3 1.2 6.8 5.6 5.6 9.8zM364.9 392.7L282.6 28.8l-265 60 82.2 363.9 265.1-60zM542.2 91.5L297.4 21.8 310.6 80l10.3 3 22.7-33.7 1.5 40.6 39 11.1-38.2 14 1.5 40.6-25-32-1.8.7 9.2 40.7 155.6 40.5-1.9 7.2L331.6 173l5.8 25.9 140.1 36.4-1.9 7.2L339.3 207l5.6 24.5L470 264.2l-1.9 7.2-121.4-31.6 5.9 25.9 109.6 28.5-1.9 7.2-105.9-27.6 5.1 22.5 95.6 24.9-1.8 7.2-92-23.9 5.9 25.8 80.2 20.9-1.9 7.2-76.4-19.9 5.6 24.6 65.2 16.9-1.8 7.2-61.5-16 5.8 25.6v.3l49.8 13-1.9 7.2-50.2-13c-1 1-2.2 1.8-3.7 2.2l-44.2 10 108.9 31 101.1-356z"/></svg>