<svg xmlns="http://www.w3.org/2000/svg" width="560" height="547.7" viewBox="0 0 560 547.7"><path d="M119.1 83.5c-5.2 5.9-7.8 12.8-7.8 20.9 0 7.9 2.2 14.5 6.6 19.9 4.5 5.4 12.1 9.4 22.6 12.1V72.6c-9.1 1.4-16.2 5-21.4 10.9zM154.4 164.1v69.8c9.1-1.1 16.6-5 22.5-11.8 5.9-6.7 8.9-15.1 8.9-25 0-8.5-2.2-15.3-6.3-20.5-4.1-5-12.5-9.3-25.1-12.5z"/><path d="M534.3 318.9l.9 1.4-21.4-73c-2.7-9.3-8.9-17-17.4-21.6-8.5-4.6-18.3-5.7-27.6-3l-4.4 1.3c-7.3 2.1-12.3 7.8-16.9 13.6-6.5-17.9-25.4-28.3-43.9-22.9l-10.3 3c-6.7 2-11.9 6.5-16.3 11.4 0-.2-.6-2.3-.6-2.3-5.6-19.2-25.9-30.2-45.1-24.6l-10.3 3c-6.4 1.9-10.4 7.2-14.8 11.9-4.5-15.2-8.9-30.4-12.7-43.2V58c0-31.9-26.1-58-58-58H58C26.1 0 0 26.1 0 58v203c0 31.9 26.1 58 58 58h177.7c4.5 0 8.9-.6 13.2-1.7 3.3 11.2 5.5 18.8 5.8 20-5.5 16.8-15.5 69.5-18.9 86.8 0 5.7 2.5 28 19.6 39.9l103.5 66.4c2.5 1.5 3.8 2.4 3.8 2.4 24.5 13.9 47.9 18 68.2 12.1L492 527c41.3-12.1 68.5-62.5 68-101.9-.4-22.8-16.7-88.2-25.7-106.2zM375.2 512.8c-2.1-1.2-4.1-2.5-4.1-2.5.4.3-102.2-65.4-102.2-65.4-6.9-4.8-9.4-15.8-9.8-19.6 6.9-34.5 15.8-77.1 18.5-83.1l1.7-3.9-1.1-4.4-51.1-174.4c-1.9-6.6 2-13.9 8.7-15.8l10.3-3c6.7-2 13.8 1.9 15.8 8.6l51.6 176.1 26.5-9.3-2.9-10.8-18-61.6c-.9-3.2-.5-6.6 1.1-9.6 1.7-3 4.4-5.2 7.6-6.2l10.3-3c6.8-2 13.8 1.9 15.8 8.7l22 75 29.5-5.3-3.8-12.5-10.2-34.6c-2-6.7 1.9-13.8 8.7-15.8l10.3-3c6.7-2 13.8 1.9 15.8 8.7l15.3 52 30.4-3.4-3.8-13.5-5.5-18.7c-.9-3.3-.5-6.7 1.1-9.7 1.6-3 4.3-5.1 7.5-6.1l4.5-1.3c3.2-1 6.6-.6 9.6 1.1 3 1.6 5.2 4.3 6.2 7.6l21.5 73.4.2.6c2.7 7.3 22.9 68.8 23.5 97.6.4 30.1-20.5 70-51 79l-61.1 17.9c-17.9 5-36.8-2.5-49.4-9.8zM194.3 236.1c-10.3 10.8-23.5 16.6-40 17.4v23.7h-13.8v-23.4c-11.6-1.4-21.1-4-28.5-7.9-7.3-3.7-13.6-9.9-18.8-18.3-5.4-8.4-8.4-18.7-9.2-30.9l23.5-4.5c1.9 12.6 5 21.8 9.5 27.7 6.5 8.3 14.4 13 23.5 13.9v-73.3c-9.5-2.5-19.3-6.5-29.4-12.2-7.5-4.2-13.2-9.9-17.2-17.3-4.1-7.4-6.1-15.7-6.1-25 0-16.6 5.9-30 17.6-40.3 7.8-6.9 19.5-11.2 35-12.7V41.8h13.9V53c13.5 1.3 24.3 5.3 32.2 12 10.2 8.5 16.3 20.3 18.4 35.1l-24 3.6c-1.4-9.2-4.3-16.2-8.6-21.1-4.3-4.9-10.3-8.1-17.9-9.7v67c11.8 3 19.5 5.4 23.4 7 7.2 3.2 13.1 7.1 17.8 11.7 4.6 4.6 8.1 10 10.5 16.4 2.5 6.3 3.7 13.2 3.7 20.5 0 16.3-5.1 29.8-15.5 40.6z"/></svg>