<?xml version="1.0" encoding="utf-8"?>
<!-- Generator: Adobe Illustrator 17.1.0, SVG Export Plug-In . SVG Version: 6.00 Build 0)  -->
<!DOCTYPE svg PUBLIC "-//W3C//DTD SVG 1.1//EN" "http://www.w3.org/Graphics/SVG/1.1/DTD/svg11.dtd">
<svg version="1.1" id="Layer_1" xmlns="http://www.w3.org/2000/svg" xmlns:xlink="http://www.w3.org/1999/xlink" x="0px" y="0px"
	 width="71px" height="71px" viewBox="3 0 71 71" enable-background="new 3 0 71 71" xml:space="preserve">
<g>
	<path fill="#434440" d="M71.1,18.1l-12.9-15L55.7,0H24.9c-4.1,0-7.4,3.3-7.4,7.4v9.5h4.5V9.3C22.1,6.9,24,5,26.3,5h26.2v12.4
		c0,4.5,3.8,8.3,8.3,8.3h9.1l-0.5,35.7c0,2.4-1.9,4.1-4.3,4.3H25.9c-2.1,0-3.8-2.1-3.8-4.5v-3.1h-4.5v4.5c0,4.5,3.1,8.3,6.7,8.3
		h42.4c4.1,0,7.4-3.3,7.4-7.4V21.4L71.1,18.1"/>
	<path fill="#EA4C3A" d="M50.9,60.5H3v-46h47.9V60.5 M7.5,55.8h38.8V19.3H7.5"/>
	<path fill="none" stroke="#EA4C3A" stroke-width="0.75" stroke-linejoin="round" stroke-miterlimit="10" d="M27.5,21.7
		c0.7,0.2,0.5,0.7,0.2,2.9c-0.2,2.1-1,6.2-2.4,10s-3.6,7.6-5.5,10.5c-1.9,2.9-3.6,4.5-4.8,5.7c-1.2,1-2.1,1.4-2.6,1.4
		c-0.5,0-0.7,0-1-0.2c-0.2-0.2-0.2-0.7,0-1.4c0.2-0.5,0.5-1.2,1.2-2.1c1-1,2.4-1.9,4.3-2.9s4.5-1.9,6.7-2.4c2.1-0.5,3.8-1,5-1.2
		c1.4-0.2,2.6-0.5,3.8-0.5c1.2,0,2.4,0,3.6,0s2.1,0.2,3.1,0.5c1,0.2,1.7,0.5,2.4,1c0.7,0.5,1.4,1,1.7,1.7c0.2,0.7,0.2,1.4,0,1.9
		c-0.2,0.5-0.7,1-1.4,1c-0.5,0.2-1.2,0.2-2.1,0C39,47.2,38,46.7,37.1,46c-1-0.7-1.9-1.4-3.3-2.9c-1.4-1.4-2.9-3.1-4.3-4.8
		s-2.4-3.3-3.3-4.8c-0.7-1.4-1.2-2.6-1.4-3.8c0-1.2-0.2-2.4-0.2-3.3c0-1,0-1.9,0-2.6s0.2-1.4,0.5-1.7c0.2-0.5,0.7-0.7,1-0.7
		c0.2,0,0.5,0,0.5,0c0.2,0,0.2,0,0.5,0C27.1,21.4,27.3,21.4,27.5,21.7"/>
</g>
</svg>
