<?xml version="1.0" encoding="utf-8"?>
<!-- Generator: Adobe Illustrator 17.1.0, SVG Export Plug-In . SVG Version: 6.00 Build 0)  -->
<!DOCTYPE svg PUBLIC "-//W3C//DTD SVG 1.1//EN" "http://www.w3.org/Graphics/SVG/1.1/DTD/svg11.dtd">
<svg version="1.1" id="Capa_1" xmlns="http://www.w3.org/2000/svg" xmlns:xlink="http://www.w3.org/1999/xlink" x="0px" y="0px"
	 width="100px" height="99.8px" viewBox="0 0.1 100 99.8" enable-background="new 0 0.1 100 99.8" xml:space="preserve">
<g>
	<g>
		<path d="M97.8,79L82.3,63.6c-3.1-3.1-8.2-3-11.4,0.2l-7.8,7.8c-0.5-0.3-1-0.6-1.5-0.9C56.7,68,50,64.3,42.9,57.2
			c-7.1-7.1-10.8-13.8-13.6-18.7c-0.3-0.5-0.6-1-0.8-1.5l5.2-5.2l2.6-2.6c3.2-3.2,3.3-8.3,0.2-11.4L21.1,2.4
			c-3.1-3.1-8.2-3-11.4,0.2L5.4,6.9l0.1,0.1c-1.5,1.9-2.7,4-3.6,6.3c-0.8,2.2-1.4,4.3-1.6,6.4C-1.7,36.7,6,52.2,27,73.1
			c29,29,52.3,26.8,53.3,26.7c2.2-0.3,4.3-0.8,6.4-1.6c2.3-0.9,4.4-2.1,6.3-3.6l0.1,0.1l4.4-4.3C100.7,87.2,100.8,82.1,97.8,79z
			 M94.1,87l-1.9,1.9l-0.8,0.7c-1.2,1.2-3.3,2.8-6.4,4c-1.7,0.7-3.5,1.1-5.2,1.3c-0.2,0-22.2,1.9-49.4-25.3
			C7.3,46.6,3.6,33.3,5.1,20.4c0.2-1.7,0.6-3.4,1.3-5.2c1.2-3.1,2.9-5.2,4-6.4L13.2,6c1.3-1.3,3.3-1.4,4.5-0.2l15.4,15.4
			c1.2,1.2,1.1,3.2-0.2,4.5L22.5,36.2l1,1.6c0.5,0.9,1.1,1.9,1.7,3C28,46,31.9,53,39.5,60.6c7.6,7.6,14.6,11.5,19.8,14.3
			c1.1,0.6,2.1,1.2,3,1.7l1.6,1l10.4-10.4c1.3-1.3,3.3-1.4,4.5-0.2l15.4,15.4C95.5,83.6,95.4,85.7,94.1,87z"/>
	</g>
</g>
</svg>
