<svg xmlns="http://www.w3.org/2000/svg" width="47" height="47" viewBox="0 0 47 47"><path d="M17.6 15.9l-2.9-2.7c.3-.6.5-1.3.5-2C15.2 8.9 13.3 7 11 7s-4.2 1.9-4.2 4.2 1.9 4.2 4.2 4.2c.8 0 1.6-.2 2.2-.7l2.9 2.7c.4-.5.9-1 1.5-1.5zM29.7 15.6l3.8-6.4c.4.1.8.2 1.2.2 2.3 0 4.2-1.9 4.2-4.2C38.9 2.9 37 1 34.7 1c-2.3 0-4.2 1.9-4.2 4.2 0 1.2.5 2.2 1.2 3l-3.8 6.4c.6.2 1.2.6 1.8 1zM42.8 21c-1.8 0-3.4 1.2-4 2.8l-5.3-.5v.1c0 .7-.1 1.4-.2 2l5.3.5c.3 2 2.1 3.6 4.2 3.6 2.3 0 4.2-1.9 4.2-4.2 0-2.4-1.9-4.3-4.2-4.3zM28.2 37.6L27 32.5c-.7.2-1.4.4-2.1.5l1.2 5.2c-1.4.7-2.3 2.1-2.3 3.7 0 2.3 1.9 4.2 4.2 4.2 2.3 0 4.2-1.9 4.2-4.2.1-2.3-1.7-4.2-4-4.3zM14.4 25.4l-6.6 2.2c-.8-1.2-2.1-1.9-3.5-1.9C2 25.7.1 27.6.1 29.9c0 2.3 1.9 4.2 4.2 4.2 2.3 0 4.2-1.9 4.2-4.2v-.3l6.6-2.2c-.4-.6-.6-1.3-.7-2z"/><circle cx="23.8" cy="23.3" r="7.3"/></svg>