<svg xmlns="http://www.w3.org/2000/svg" width="419.2" height="484.8" viewBox="0 0 419.2 484.8"><path d="M115.1 344.4c-7.9 0-14.2 6.4-14.2 14.2 0 7.9 6.4 14.2 14.2 14.2 7.9 0 14.2-6.4 14.2-14.2 0-7.9-6.3-14.2-14.2-14.2z"/><path d="M341.1 332.4c-16.8-6-30.2-12.3-41.1-19-1.9-1.3-2.6-1.4-4.3-2.4-6.1-3.4-12-.6-13.7 1.6-.5.6-.9 1.2-1.4 1.8-12.8 14.9-54.7 33-54.7 33-3.3.9-5.7 3.9-5.7 7.5l.1 51.6c0 31.8-25.7 57.7-57.2 57.7-31.6 0-57.2-25.9-57.2-57.7v-21.6c-10.9-3.8-18.7-14.1-18.7-26.3 0-15.4 12.5-27.8 27.8-27.8 15.4 0 27.8 12.5 27.8 27.8 0 11.9-7.5 22-18 26v20.9c0 22.5 17.2 40.9 38.3 40.9 21.1 0 38.3-18.3 38.3-40.9l.1-50.3v-.3c-.2-3.2-2.5-5.6-5.2-6.9 0 0-44.7-22.3-57.8-39-1.7-2.2-7.6-4.9-13.7-1.6-11.4 6.3-27 11.5-46.7 18.6C17.5 347.7 0 370 0 385.2v99.6h419.1v-99.6c.1-15.2-17.4-30.9-78-52.8z"/><path d="M110.7 146.2c3.1 41 19.4 23.3 22.8 41.3 6.6 35.3 20.1 36.7 24.9 48.8 1.1 2.7 1.7 15.8 1.7 20.1 0 14.5-.8 22.2-6.5 29.6-1.3 1.7-3.5 7.1-.7 11.3 12.6 18.8 36.9 34.6 59.7 34.8 22.8-.3 47.1-16.1 59.7-34.8 2.8-4.1.6-9.6-.7-11.3-5.7-7.4-6.5-15.1-6.5-29.6 0-4.3.6-17.4 1.7-20.1 4.7-12.2 18.2-13.5 24.9-48.8 3.4-18 19.7-.3 22.8-41.3 0-16.3-8.9-20.4-8.9-20.4s4.5-24.2 6.3-42.8c2.2-23.1-13.6-83-97.5-83h-3.8c-83.9 0-99.6 59.9-97.4 83.1 1.8 18.6 6.3 42.8 6.3 42.8s-8.8 4-8.8 20.3z"/></svg>