<?xml version="1.0" encoding="utf-8"?>
<!-- Generator: Adobe Illustrator 17.1.0, SVG Export Plug-In . SVG Version: 6.00 Build 0)  -->
<!DOCTYPE svg PUBLIC "-//W3C//DTD SVG 1.1//EN" "http://www.w3.org/Graphics/SVG/1.1/DTD/svg11.dtd">
<svg version="1.1" id="progress-bar" xmlns="http://www.w3.org/2000/svg" xmlns:xlink="http://www.w3.org/1999/xlink" x="0px"
	 y="0px" width="1002px" height="136.6px" viewBox="0 0 1002 136.6" enable-background="new 0 0 1002 136.6" xml:space="preserve">
<path fill="#F24141" d="M13,134.8h-1c-5.8,0-10.5-4.7-10.5-10.5v-113C1.5,5.5,6.2,0.8,12,0.8h1c5.8,0,10.5,4.7,10.5,10.5v113
	C23.5,130.1,18.8,134.8,13,134.8z"/>
<path id="bar" fill="none" stroke="#000000" stroke-width="2" stroke-miterlimit="10" d="M989.1,135.6H12.9
	c-6.6,0-11.9-5.3-11.9-11.9V12.9C1,6.3,6.3,1,12.9,1h976.1c6.6,0,11.9,5.3,11.9,11.9v110.7C1001,130.3,995.7,135.6,989.1,135.6z"/>
<rect id="progress" x="13.5" y="1.8" fill="#F24141" width="10" height="133"/>
</svg>
