<svg xmlns="http://www.w3.org/2000/svg" width="560" height="445.5" viewBox="0 0 560 445.5"><path d="M546.8 255.6h-11V117.1c0-7.3-5.9-13.2-13.2-13.2h-10.5V65.1c0-7.3-5.9-13.2-13.2-13.2H483V13.2C483 5.9 477.1 0 469.8 0H90.1c-7.3 0-13.2 5.9-13.2 13.2V52H61.1c-7.3 0-13.2 5.9-13.2 13.2V104H37.4c-7.3 0-13.2 5.9-13.2 13.2v138.5h-11c-7.3 0-13.2 5.9-13.2 13.2v163.5c0 7.3 5.9 13.2 13.2 13.2h533.6c7.3 0 13.2-5.9 13.2-13.2V268.8c0-7.3-5.9-13.2-13.2-13.2zM103.3 26.4h353.4V52H103.3V26.4zm-29 51.9h411.5v25.6H74.3V78.3zm-23.8 52h458.9v125.3H408.1c-6.3 0-11.8 4.5-13 10.7L384 325H176l-11.2-58.7c-1.2-6.2-6.6-10.7-13-10.7H50.5V130.3z"/></svg>