<svg xmlns="http://www.w3.org/2000/svg" width="207" height="95.8" viewBox="-0.5 -0.3 207 95.8"><path fill="#F9F9F9" stroke="#E5E5E5" d="M115 73.9h87c2.2 0 4-1.8 4-4V4.2c0-2.2-1.8-4-4-4H4C1.8.2 0 2 0 4.2v65.7c0 2.2 1.8 4 4 4h85.8l11.7 20.6L115 73.9z"/><path fill="#B9B9B9" d="M64.3 23.6h-3.5v9.1h-1v-9.1h-3.5v-.9h8.1v.9zm7.5 9h-1v-4.1c0-.8-.1-1.5-.4-1.9-.3-.4-.7-.6-1.3-.6-.3 0-.5.1-.8.2-.3.1-.5.3-.7.4s-.4.4-.6.7-.3.5-.4.8v4.5h-1V22.4h1V27c.3-.6.7-1 1.2-1.3.5-.3 1.1-.5 1.7-.5.4 0 .8.1 1.1.2.3.2.5.4.7.6s.3.6.4 1c.1.4.1.8.1 1.3v4.3zm1.9-8.8v-1.4h1v1.4h-1zm0 8.8v-7.3h1v7.3h-1zm5.5.2c-.6 0-1.1-.1-1.7-.3-.5-.2-1-.5-1.4-.8l.4-.6c.4.3.8.6 1.3.8s.9.3 1.4.3c.6 0 1.1-.1 1.4-.4.3-.2.5-.6.5-1 0-.2 0-.4-.1-.5-.1-.1-.2-.3-.4-.4s-.4-.2-.7-.3c-.3-.1-.6-.2-1-.2-.4-.1-.8-.2-1.1-.3-.3-.1-.6-.2-.8-.3s-.4-.3-.4-.5c-.1-.2-.1-.4-.1-.7 0-.4.1-.7.2-1 .1-.3.3-.5.6-.7.2-.2.5-.3.9-.4.3-.1.7-.1 1.1-.1.6 0 1.1.1 1.5.3.5.2.8.4 1.1.7l-.5.6c-.3-.3-.6-.5-1-.6s-.8-.2-1.2-.2c-.3 0-.5 0-.7.1-.2.1-.4.1-.6.2-.2.1-.3.3-.4.4s-.1.4-.1.6c0 .2 0 .4.1.5l.3.3s.3.2.6.2c.2.1.5.1.8.2.5.1.9.2 1.2.3.4.1.7.2.9.4.2.1.4.3.5.5.2.1.2.4.2.7 0 .7-.3 1.2-.8 1.6-.5.4-1.2.6-2 .6zm11.7 0c-.6 0-1.2-.2-1.6-.5s-.9-.7-1.1-1.2v4.5h-1V25.3h.8v1.4c.3-.5.7-.8 1.2-1.1.5-.3 1-.4 1.6-.4.5 0 1 .1 1.4.3.4.2.8.5 1.1.8.3.3.5.8.7 1.2.2.5.3.9.3 1.4 0 .5-.1 1-.2 1.5-.2.5-.4.9-.7 1.2-.3.3-.6.6-1 .8-.6.3-1.1.4-1.5.4zm-.3-.9c.4 0 .7-.1 1.1-.3.3-.2.6-.4.8-.7.2-.3.4-.6.5-.9.1-.4.2-.7.2-1.1 0-.4-.1-.8-.2-1.1s-.3-.7-.6-.9c-.2-.3-.5-.5-.9-.6-.3-.2-.7-.2-1.1-.2-.2 0-.5 0-.8.1-.3.1-.5.2-.7.4l-.6.6c-.2.2-.3.5-.3.7v2.2c.1.3.3.5.4.7l.6.6c.2.2.5.3.7.4.4.1.6.1.9.1zm7.1.9c-.4 0-.7-.1-1-.2-.3-.1-.6-.3-.8-.5-.2-.2-.4-.4-.5-.7-.1-.3-.2-.6-.2-.9 0-.3.1-.6.2-.9s.4-.5.6-.7c.3-.2.6-.3 1-.5s.8-.2 1.3-.2c.4 0 .7 0 1.1.1s.7.2 1 .3V28c0-.6-.2-1.2-.6-1.5-.4-.4-.9-.6-1.5-.6-.4 0-.8.1-1.2.2-.4.1-.8.4-1.2.6l-.3-.6c.5-.3.9-.6 1.4-.7.4-.2.9-.2 1.4-.2.9 0 1.6.3 2.1.8s.8 1.2.8 2.1v3.3c0 .3.1.4.3.4v.8h-.4c-.2 0-.4-.1-.5-.2-.2-.1-.2-.3-.3-.5v-.6c-.3.4-.7.8-1.3 1-.4.4-.9.5-1.4.5zm.2-.8c.4 0 .8-.1 1.3-.3.4-.2.7-.4 1-.7.1-.1.1-.2.2-.3 0-.1.1-.2.1-.3v-1.2c-.3-.1-.6-.2-1-.3s-.7-.1-1-.1c-.7 0-1.2.1-1.7.4s-.6.7-.6 1.1c0 .2 0 .4.1.6s.2.4.3.5c.2.1.3.3.6.4.1.2.4.2.7.2zm8.5.7c-.5 0-1-.1-1.4-.3-.4-.2-.8-.5-1.1-.8-.3-.3-.5-.7-.7-1.2s-.3-.9-.3-1.4c0-.5.1-1 .2-1.4.2-.5.4-.9.7-1.2.3-.3.7-.6 1.1-.8.4-.2.9-.3 1.4-.3.6 0 1.2.2 1.6.5s.8.7 1.2 1.2v-1.5h.9v7.3c0 .5-.1.9-.3 1.3-.2.4-.4.7-.8 1-.3.3-.7.5-1.1.6-.4.1-.9.2-1.4.2-.8 0-1.5-.1-2-.4-.5-.3-.9-.7-1.2-1.2l.6-.5c.3.5.7.8 1.1 1 .5.2 1 .3 1.5.3.4 0 .7 0 1-.1.3-.1.6-.2.8-.4s.4-.4.6-.7.2-.6.2-1v-1.4c-.3.5-.7.8-1.2 1.1-.4 0-.9.1-1.4.1zm.2-.8c.3 0 .6-.1.8-.2.3-.1.5-.2.7-.4l.6-.6s.2-.4.3-.7v-2.3c-.1-.3-.2-.5-.4-.7l-.6-.6c-.2-.2-.5-.3-.7-.4-.3-.1-.5-.1-.8-.1-.4 0-.8.1-1.1.3-.3.2-.6.4-.8.7-.2.3-.4.6-.5 1-.1.4-.2.7-.2 1.1 0 .4.1.8.2 1.1.1.4.3.7.6.9.2.3.5.5.9.6.3.3.6.3 1 .3zm8.6.9c-.5 0-1-.1-1.5-.3-.4-.2-.8-.5-1.2-.8-.3-.3-.6-.8-.8-1.2-.2-.5-.3-.9-.3-1.5 0-.5.1-1 .3-1.4.2-.5.4-.8.8-1.2.3-.3.7-.6 1.2-.8.4-.2.9-.3 1.5-.3.5 0 1 .1 1.5.3.4.2.8.5 1.1.8.3.3.6.7.7 1.2.2.4.3.9.3 1.4v.4h-6.2c0 .4.1.8.3 1.1s.3.6.6.9c.2.2.5.4.8.6.3.1.6.2 1 .2.2 0 .5 0 .7-.1l.6-.3c.2-.1.4-.2.5-.4.2-.2.3-.3.4-.5l.8.2c-.1.3-.3.5-.5.7-.2.2-.4.4-.7.6-.3.2-.6.3-.9.4s-.6 0-1 0zm2.7-4.2c0-.4-.1-.7-.3-1.1-.2-.3-.4-.6-.6-.8-.2-.2-.5-.4-.8-.5-.3-.1-.7-.2-1-.2-.4 0-.7.1-1 .2-.3.1-.6.3-.8.5-.2.2-.4.5-.6.8-.1.3-.2.7-.3 1.1h5.4zm12.1 4h-1v-4.1c0-.8-.1-1.5-.4-1.9-.3-.4-.7-.6-1.3-.6-.3 0-.5.1-.8.2-.3.1-.5.3-.7.4-.2.2-.4.4-.6.7s-.3.5-.4.8v4.5h-1V22.4h1V27c.3-.6.7-1 1.2-1.3.5-.3 1.1-.5 1.7-.5.4 0 .8.1 1.1.2.3.2.5.4.7.6.2.3.3.6.4 1 .1.4.1.8.1 1.3v4.3zm3.9.2c-.4 0-.7-.1-1-.2-.3-.1-.6-.3-.8-.5-.2-.2-.4-.4-.5-.7-.1-.3-.2-.6-.2-.9 0-.3.1-.6.2-.9s.4-.5.6-.7c.3-.2.6-.3 1-.5.4-.1.8-.2 1.3-.2.4 0 .7 0 1.1.1s.7.2 1 .3V28c0-.6-.2-1.2-.6-1.5-.4-.4-.9-.6-1.5-.6-.4 0-.8.1-1.2.2-.4.1-.8.4-1.2.6l-.3-.6c.5-.3.9-.6 1.4-.7.4-.2.9-.2 1.4-.2.9 0 1.6.3 2.1.8s.8 1.2.8 2.1v3.3c0 .3.1.4.3.4v.8h-.4c-.2 0-.4-.1-.5-.2-.2-.1-.2-.3-.3-.5v-.6c-.3.4-.7.8-1.3 1-.4.4-.9.5-1.4.5zm.2-.8c.4 0 .8-.1 1.3-.3.4-.2.7-.4 1-.7.1-.1.1-.2.2-.3 0-.1.1-.2.1-.3v-1.2c-.3-.1-.6-.2-1-.3s-.7-.1-1-.1c-.7 0-1.2.1-1.7.4s-.6.7-.6 1.1c0 .2 0 .4.1.6.1.2.2.4.3.5s.3.3.6.4c.1.2.4.2.7.2zm8 .8c-.6 0-1.1-.1-1.7-.3s-1-.5-1.4-.8l.4-.6c.4.3.8.6 1.3.8s.9.3 1.4.3c.6 0 1.1-.1 1.4-.4.3-.2.5-.6.5-1 0-.2 0-.4-.1-.5-.1-.1-.2-.3-.4-.4s-.4-.2-.7-.3c-.3-.1-.6-.2-1-.2-.4-.1-.8-.2-1.1-.3-.3-.1-.6-.2-.8-.3s-.3-.3-.4-.5c-.1-.2-.1-.4-.1-.7 0-.4.1-.7.2-1 .1-.3.3-.5.6-.7.2-.2.5-.3.9-.4.3-.1.7-.1 1.1-.1.6 0 1.1.1 1.5.3.5.2.8.4 1.1.7l-.5.6c-.3-.3-.6-.5-1-.6-.4-.1-.8-.2-1.2-.2-.3 0-.5 0-.7.1-.2.1-.4.1-.6.2-.2.1-.3.3-.4.4s-.1.4-.1.6c0 .2 0 .4.1.5l.3.3c.2.1.3.2.6.2.2.1.5.1.8.2.5.1.9.2 1.2.3.4.1.7.2.9.4s.4.3.5.5.2.5.2.8c0 .7-.3 1.2-.8 1.6-.5.3-1.2.5-2 .5zm14-.2h-1v-4.1c0-.9-.1-1.5-.4-1.9-.3-.4-.6-.6-1.2-.6-.3 0-.6.1-.8.2-.3.1-.5.2-.8.4s-.5.4-.6.7c-.2.3-.3.5-.4.8v4.5h-1v-7.3h.9V27c.1-.3.3-.5.6-.7.2-.2.5-.4.7-.6.3-.2.6-.3.9-.4.3-.1.6-.1.9-.1.4 0 .8.1 1 .2.3.1.5.4.7.6.2.3.3.6.4 1 .1.4.1.8.1 1.3v4.3zm5.2.2c-.5 0-1-.1-1.5-.3-.4-.2-.8-.5-1.1-.8-.3-.3-.6-.7-.8-1.2-.2-.5-.3-.9-.3-1.4 0-.5.1-1 .3-1.5s.4-.9.8-1.2c.3-.3.7-.6 1.1-.8.4-.2.9-.3 1.4-.3s1 .1 1.4.3c.4.2.8.5 1.1.8.3.3.6.7.8 1.2.2.5.3.9.3 1.5 0 .5-.1 1-.3 1.4-.2.5-.4.9-.8 1.2-.3.3-.7.6-1.1.8-.3.2-.8.3-1.3.3zm-2.7-3.8c0 .4.1.8.2 1.1.1.3.3.7.6.9.2.3.5.5.8.6.3.1.7.2 1 .2s.7-.1 1-.2c.3-.2.6-.4.8-.6l.6-.9c.1-.4.2-.7.2-1.1 0-.4-.1-.8-.2-1.1-.1-.4-.3-.7-.6-.9-.2-.3-.5-.5-.8-.6-.3-.2-.7-.2-1-.2s-.7.1-1 .2c-.3.2-.6.4-.8.6l-.6.9c-.1.3-.2.7-.2 1.1zm11.3 3.3c-.1 0-.1.1-.2.1s-.2.1-.4.1c-.1 0-.3.1-.5.1s-.4.1-.6.1c-.2 0-.4 0-.6-.1-.2-.1-.4-.1-.5-.3-.1-.1-.3-.3-.3-.4-.1-.2-.1-.4-.1-.6v-5.2h-1v-.8h1v-2.5h1v2.5h1.7v.8h-1.7v5c0 .3.1.5.3.6s.4.2.6.2c.3 0 .5 0 .7-.1s.3-.2.4-.2l.2.7zM57.4 54.9h.5s.2 0 .2-.1l.1-.1s.1-.2.2-.3l.3-.6c.1-.3.3-.6.5-1.1L56 45.4h1l2.7 6.4 2.5-6.4h.9l-3.8 9.4c-.1.3-.3.6-.6.8-.2.2-.6.3-1 .3h-.5v-1zm10.4-2.1c-.5 0-1-.1-1.5-.3-.4-.2-.8-.5-1.2-.8-.3-.3-.6-.8-.8-1.2-.2-.5-.3-.9-.3-1.5 0-.5.1-1 .3-1.4.2-.5.4-.8.8-1.2s.7-.6 1.2-.8c.4-.2.9-.3 1.5-.3.5 0 1 .1 1.5.3.4.2.8.5 1.1.8.3.3.6.7.7 1.2.2.4.3.9.3 1.4v.4h-6.2c0 .4.1.8.3 1.1.2.3.3.6.6.9.2.2.5.4.8.6.3.1.6.2 1 .2.2 0 .5 0 .7-.1l.6-.3c.2-.1.4-.2.5-.4.2-.2.3-.3.4-.5l.8.2c-.1.3-.3.5-.5.7-.2.2-.4.4-.7.6-.3.2-.6.3-.9.4-.3-.1-.7 0-1 0zm2.7-4.2c0-.4-.1-.7-.3-1.1-.2-.3-.4-.6-.6-.8s-.5-.4-.8-.5c-.3-.1-.7-.2-1-.2-.4 0-.7.1-1 .2-.3.1-.6.3-.8.5-.2.2-.4.5-.6.8-.1.3-.2.7-.3 1.1h5.4zm5.8 3.7c-.1 0-.1.1-.2.1s-.2.1-.4.1-.3.1-.5.1-.4.1-.6.1c-.2 0-.4 0-.6-.1-.2-.1-.4-.1-.5-.3-.1-.1-.3-.3-.3-.4-.1-.2-.1-.4-.1-.6v-5.2h-1v-.8h1v-2.5h1v2.5h1.7v.8H74v5c0 .3.1.5.3.6s.4.2.6.2c.3 0 .5 0 .7-.1.2-.1.3-.2.4-.2l.3.7zm8.3.5c-.6 0-1.1-.1-1.6-.4s-.9-.7-1.1-1.1v1.4H81V42.4h1v4.5c.3-.5.7-.9 1.2-1.2s1-.5 1.6-.5c.5 0 1 .1 1.4.3s.8.5 1 .9c.3.4.5.8.7 1.2.1.5.1.9.1 1.4 0 .5-.1 1-.3 1.5s-.4.9-.7 1.2c-.3.3-.7.6-1.1.8-.4.2-.9.3-1.3.3zm-.3-.9c.4 0 .8-.1 1.1-.2.3-.2.6-.4.9-.7l.6-.9s.2-.7.2-1.1c0-.4-.1-.8-.2-1.1-.1-.4-.3-.7-.5-.9-.2-.3-.5-.5-.8-.7s-.7-.2-1-.2c-.3 0-.6 0-.8.1-.3.1-.5.2-.7.4l-.6.6c-.2.2-.3.5-.4.7v2.3c0 .3.1.5.3.7l.6.6c.2.2.5.3.7.4h.6zm8.5.9c-.5 0-1-.1-1.5-.3-.4-.2-.8-.5-1.2-.8-.3-.3-.6-.8-.8-1.2-.2-.5-.3-.9-.3-1.5 0-.5.1-1 .3-1.4.2-.5.4-.8.8-1.2s.7-.6 1.2-.8c.4-.2.9-.3 1.5-.3.5 0 1 .1 1.5.3.4.2.8.5 1.1.8.3.3.6.7.7 1.2.2.4.3.9.3 1.4v.4h-6.2c0 .4.1.8.3 1.1.2.3.3.6.6.9.2.2.5.4.8.6.3.1.6.2 1 .2.2 0 .5 0 .7-.1l.6-.3c.2-.1.4-.2.5-.4.2-.2.3-.3.4-.5l.8.2c-.1.3-.3.5-.5.7-.2.2-.4.4-.7.6-.3.2-.6.3-.9.4-.3-.1-.6 0-1 0zm2.7-4.2c0-.4-.1-.7-.3-1.1-.2-.3-.4-.6-.6-.8s-.5-.4-.8-.5c-.3-.1-.7-.2-1-.2-.4 0-.7.1-1 .2-.3.1-.6.3-.8.5-.2.2-.4.5-.6.8-.1.3-.2.7-.3 1.1h5.4zm5.5 4.2c-.5 0-1-.1-1.5-.3-.4-.2-.8-.5-1.2-.8-.3-.3-.6-.8-.8-1.2-.2-.5-.3-.9-.3-1.5 0-.5.1-1 .3-1.4.2-.5.4-.8.8-1.2s.7-.6 1.2-.8c.4-.2.9-.3 1.5-.3.5 0 1 .1 1.5.3.4.2.8.5 1.1.8.3.3.6.7.7 1.2.2.4.3.9.3 1.4v.4h-6.2c0 .4.1.8.3 1.1.2.3.3.6.6.9.2.2.5.4.8.6.3.1.6.2 1 .2.2 0 .5 0 .7-.1l.6-.3c.2-.1.4-.2.5-.4.2-.2.3-.3.4-.5l.8.2c-.1.3-.3.5-.5.7-.2.2-.4.4-.7.6-.3.2-.6.3-.9.4-.3-.1-.6 0-1 0zm2.7-4.2c0-.4-.1-.7-.3-1.1-.2-.3-.4-.6-.6-.8s-.5-.4-.8-.5c-.3-.1-.7-.2-1-.2-.4 0-.7.1-1 .2-.3.1-.6.3-.8.5-.2.2-.4.5-.6.8-.1.3-.2.7-.3 1.1h5.4zm8.5 4h-1v-4.1c0-.9-.1-1.5-.4-1.9-.3-.4-.6-.6-1.2-.6-.3 0-.6.1-.8.2-.3.1-.5.2-.8.4-.2.2-.5.4-.6.7s-.3.5-.4.8v4.5h-1v-7.3h.9V47c.1-.3.3-.5.6-.7.2-.2.5-.4.7-.6.3-.2.6-.3.9-.4.3-.1.6-.1.9-.1.4 0 .8.1 1 .2.3.1.5.4.7.6.2.3.3.6.4 1 .1.4.1.8.1 1.3v4.3zm5.1-3.6c0-.5.1-1 .3-1.5s.4-.9.7-1.2c.3-.3.7-.6 1.2-.8.4-.2.9-.3 1.5-.3.7 0 1.3.2 1.8.5s.9.7 1.2 1.3l-.9.3c-.2-.4-.5-.7-.9-.9-.4-.2-.8-.3-1.2-.3-.4 0-.7.1-1 .2-.3.1-.6.4-.8.6s-.4.6-.6.9-.2.7-.2 1.2c0 .4.1.8.2 1.2.1.4.3.7.6.9.2.3.5.5.8.6.3.2.7.2 1 .2.2 0 .5 0 .7-.1l.6-.3c.2-.1.4-.2.5-.4s.2-.3.3-.5l.9.4c-.1.3-.3.5-.4.7-.2.2-.4.4-.7.6s-.6.3-.9.4c-.3.1-.7.1-1 .1-.5 0-1-.1-1.5-.3-.4-.2-.8-.5-1.2-.8-.3-.3-.6-.8-.8-1.2-.1-.5-.2-1-.2-1.5zm11.2 3.8c-.5 0-1-.1-1.5-.3-.4-.2-.8-.5-1.1-.8-.3-.3-.6-.7-.8-1.2-.2-.5-.3-.9-.3-1.4 0-.5.1-1 .3-1.5s.4-.9.8-1.2c.3-.3.7-.6 1.1-.8.4-.2.9-.3 1.4-.3s1 .1 1.4.3c.4.2.8.5 1.1.8.3.3.6.7.8 1.2.2.5.3.9.3 1.5 0 .5-.1 1-.3 1.4-.2.5-.4.9-.8 1.2-.3.3-.7.6-1.1.8-.3.2-.8.3-1.3.3zm-2.6-3.8c0 .4.1.8.2 1.1.1.3.3.7.6.9.2.3.5.5.8.6.3.1.7.2 1 .2s.7-.1 1-.2c.3-.2.6-.4.8-.6l.6-.9c.1-.4.2-.7.2-1.1 0-.4-.1-.8-.2-1.1-.1-.4-.3-.7-.6-.9-.2-.3-.5-.5-.8-.6-.3-.2-.7-.2-1-.2s-.7.1-1 .2c-.3.2-.6.4-.8.6l-.6.9c-.2.3-.2.7-.2 1.1zm13.9 3.6h-1v-4.1c0-.9-.1-1.5-.4-1.9-.3-.4-.6-.6-1.2-.6-.3 0-.6.1-.8.2-.3.1-.5.2-.8.4-.2.2-.5.4-.6.7-.2.3-.3.5-.4.8v4.5h-1v-7.3h.9V47c.1-.3.3-.5.6-.7.2-.2.5-.4.7-.6.3-.2.6-.3.9-.4s.6-.1.9-.1c.4 0 .8.1 1 .2.3.1.5.4.7.6.2.3.3.6.4 1 .1.4.1.8.1 1.3v4.3zm4.4.2c-.6 0-1.1-.1-1.7-.3-.5-.2-1-.5-1.4-.8l.4-.6c.4.3.8.6 1.3.8.4.2.9.3 1.4.3.6 0 1.1-.1 1.4-.4.3-.2.5-.6.5-1 0-.2 0-.4-.1-.5-.1-.1-.2-.3-.4-.4-.2-.1-.4-.2-.7-.3-.3-.1-.6-.2-1-.2-.4-.1-.8-.2-1.1-.3-.3-.1-.6-.2-.8-.3-.2-.1-.3-.3-.4-.5-.1-.2-.1-.4-.1-.7 0-.4.1-.7.2-1 .1-.3.3-.5.6-.7.2-.2.5-.3.9-.4.3-.1.7-.1 1.1-.1.6 0 1.1.1 1.5.3.5.2.8.4 1.1.7l-.5.6c-.3-.3-.6-.5-1-.6s-.8-.2-1.2-.2c-.3 0-.5 0-.7.1-.2.1-.4.1-.6.2-.2.1-.3.3-.4.4-.1.2-.1.4-.1.6 0 .2 0 .4.1.5l.3.3s.3.2.6.2c.2.1.5.1.8.2.5.1.9.2 1.2.3.4.1.7.2.9.4.2.1.4.3.5.5.1.2.2.5.2.8 0 .7-.3 1.2-.8 1.6-.4.3-1.1.5-2 .5zm7.9-.5c-.1 0-.1.1-.2.1s-.2.1-.4.1-.3.1-.5.1-.4.1-.6.1c-.2 0-.4 0-.6-.1-.2-.1-.3-.1-.5-.3-.1-.1-.3-.3-.3-.4-.1-.2-.1-.4-.1-.6v-5.2h-1v-.8h1v-2.5h1v2.5h1.7v.8h-1.7v5c0 .3.1.5.3.6s.4.2.6.2c.3 0 .5 0 .7-.1s.3-.2.4-.2l.2.7zm4.8-6.1c-.6 0-1.2.2-1.7.5s-.8.8-1 1.4v4.5h-1v-7.3h.9v1.8c.3-.5.6-.9 1-1.3.4-.3.9-.5 1.3-.5h.4v.9zm3.5 6.6c-.8 0-1.3-.3-1.7-.8-.4-.5-.6-1.3-.6-2.4v-4.3h1v4.1c0 1.7.6 2.5 1.7 2.5.3 0 .6 0 .8-.1.3-.1.5-.2.7-.4l.6-.6c.2-.2.3-.5.4-.8v-4.6h1v6.1c0 .3.1.4.4.4v.8h-.4c-.2 0-.4-.1-.6-.2-.2-.1-.2-.3-.2-.5v-1c-.3.6-.8 1-1.3 1.3-.6.3-1.1.5-1.8.5zM166 49c0-.5.1-1 .3-1.5s.4-.9.7-1.2c.3-.3.7-.6 1.2-.8.4-.2.9-.3 1.5-.3.7 0 1.3.2 1.8.5s.9.7 1.2 1.3l-.9.3c-.2-.4-.5-.7-.9-.9s-.8-.3-1.2-.3c-.4 0-.7.1-1 .2-.3.1-.6.4-.8.6l-.6.9s-.3.7-.3 1.2c0 .4.1.8.2 1.2s.3.7.6.9c.2.3.5.5.8.6.3.2.7.2 1 .2.2 0 .5 0 .7-.1l.6-.3c.2-.1.4-.2.5-.4s.2-.3.3-.5l.9.3c-.1.3-.3.5-.4.7-.2.2-.4.4-.7.6-.3.2-.6.3-.9.4s-.7.1-1 .1c-.5 0-1-.1-1.5-.3-.4-.2-.8-.5-1.2-.8-.3-.3-.6-.8-.8-1.2 0-.4-.1-.9-.1-1.4zm11.7 3.3c-.1 0-.1.1-.2.1s-.2.1-.4.1c-.1 0-.3.1-.5.1s-.4.1-.6.1c-.2 0-.4 0-.6-.1-.2-.1-.4-.1-.5-.3-.1-.1-.3-.3-.3-.4-.1-.2-.1-.4-.1-.6v-5.2h-1v-.8h1v-2.5h1v2.5h1.7v.8h-1.7v5c0 .3.1.5.3.6s.4.2.6.2c.3 0 .5 0 .7-.1s.3-.2.4-.2l.2.7zm4.3.5c-.5 0-1-.1-1.5-.3-.4-.2-.8-.5-1.2-.8-.3-.3-.6-.8-.8-1.2-.2-.5-.3-.9-.3-1.5 0-.5.1-1 .3-1.4.2-.5.4-.8.8-1.2.3-.3.7-.6 1.2-.8.4-.2.9-.3 1.5-.3.5 0 1 .1 1.5.3.4.2.8.5 1.1.8.3.3.6.7.7 1.2.2.4.3.9.3 1.4v.4h-6.2c0 .4.1.8.3 1.1s.3.6.6.9c.2.2.5.4.8.6.3.1.6.2 1 .2.2 0 .5 0 .7-.1l.6-.3c.2-.1.4-.2.5-.4.2-.2.3-.3.4-.5l.8.2c-.1.3-.3.5-.5.7-.2.2-.4.4-.7.6-.3.2-.6.3-.9.4s-.6 0-1 0zm2.7-4.2c0-.4-.1-.7-.3-1.1-.2-.3-.4-.6-.6-.8-.2-.2-.5-.4-.8-.5-.3-.1-.7-.2-1-.2-.4 0-.7.1-1 .2-.3.1-.6.3-.8.5-.2.2-.4.5-.6.8-.1.3-.2.7-.3 1.1h5.4zm5.4 4.2c-.5 0-1-.1-1.4-.3s-.8-.5-1.1-.8-.6-.7-.7-1.2c-.2-.5-.3-.9-.3-1.4 0-.5.1-1 .3-1.5s.4-.9.7-1.2c.3-.3.6-.6 1-.8.4-.2.9-.3 1.3-.3.6 0 1.2.2 1.6.5.5.3.9.7 1.1 1.2v-4.5h1v9c0 .3.1.4.3.4v.8h-.4c-.2 0-.4-.1-.6-.2-.1-.1-.2-.3-.2-.5v-.8c-.3.5-.7.9-1.2 1.1-.4.3-.9.5-1.4.5zm.2-.9c.2 0 .5 0 .8-.1.3-.1.5-.2.7-.4l.6-.6c.2-.2.3-.5.3-.7v-2.3c-.1-.3-.2-.5-.4-.7l-.6-.6s-.5-.3-.7-.4c-.3-.1-.5-.1-.8-.1-.4 0-.8.1-1.1.3-.3.2-.6.4-.8.7-.2.3-.4.6-.5.9-.1.4-.2.7-.2 1.1 0 .4.1.8.2 1.1.1.4.3.7.6.9.2.3.5.5.9.6.2.3.6.3 1 .3z"/><path fill="#D0D0D0" d="M15.8 47.1c-1 1-1 2.7 0 3.7.5.5 1.2.8 1.8.8s1.3-.3 1.9-.8l8.6-8.6-3.7-3.7-8.6 8.6m21.5-15.9l3.7-2 2-3.8-1.8-1.8-3.8 2-1.9 3.7-4.6 4.6 1.8 1.9 4.6-4.6m.8 9.9h-.4c-.6 0-1.2.1-1.8.3L25.2 30.7c.2-.6.3-1.2.3-1.8v-.4c-.2-2.7-2.4-4.9-5.2-4.9-.8 0-1.6.2-2.3.5l3.5 3.5c.2.2.3.4.4.6.2.7.1 1.4-.4 1.9-.3.3-.8.5-1.2.5-.2 0-.4 0-.6-.1-.3-.1-.5-.2-.7-.4l-3.4-3.5c-.4.7-.6 1.4-.6 2.2 0 2.8 2.2 5 4.9 5.2h.4c.6 0 1.2-.1 1.8-.3l10.8 10.8c-.2.6-.3 1.2-.3 1.8v.4c.2 2.7 2.4 4.9 5.2 4.9.8 0 1.6-.2 2.2-.5l-3.5-3.5c-.2-.2-.3-.4-.4-.6-.2-.6-.1-1.3.4-1.8.3-.3.8-.5 1.2-.5.2 0 .4 0 .6.1.2.1.4.2.6.4l3.5 3.5c.3-.7.5-1.4.5-2.2.1-2.9-2.1-5.2-4.8-5.4"/></svg>