<svg xmlns="http://www.w3.org/2000/svg" viewBox="0 0 1440 700"><path fill="#303030" d="M998.1 426.9l644.6 262.9-660.6-219.4 594 362.8-616.9-322.5 528.1 453.5-557.1-417.3 448.6 532.3-483-501.3 357.3 597.4L856.8 603l256.9 646.9-299.4-628.4 149.8 679.8L769.4 633l38.8 695-84.9-690.9-73.2 692.3L677 633.8l-183.2 671.5 138.1-682.2-288.6 633.4 245.8-651.2-386.5 578.9 347.1-603.4-474.3 509.5 439.4-539.9-549.9 426.7 520.3-462.3-611.3 332.9 587.8-372.9-656.8 230.6 639.9-273.8-685.2 122.3 675.6-167.6-696 10.8L432.9 340l-688.7-101 693.9 54.9-663.6-210.2 676.1 165.6-621.2-313.9 640.8 271.8-562.9-409.5 588.9 371.2-490-494.5L528 135.2 123.7-431.5 564.8 107 256.7-517.2l349 602.3-204-665.5L649.5 70.1l-94.6-689.7L695.2 62.2l17.2-695.8 29.1 695.4 128.7-684-82.8 691.1 236.7-654.6L831.4 83.2 1170.1-525 872.7 104.4l431.8-546L910 131.9l513.8-469.6-481.4 502.8L1524.8-216 969 203l636.1-282.7-615.9 324.4 673.2-177-659.9 221.4 692.9-66.8-686.9 112.8 694.6 45.2-696.1 1.1 678.4 156.1z"/><path fill="#303030" d="M435 350c0-10.9.6-21.6 1.8-32.2 1.7-15.6 4.7-30.7 8.9-45.4s9.5-29 15.9-42.7c6.5-14 14.2-27.4 22.8-40 8.6-12.6 18.2-24.5 28.7-35.6 10.5-11.1 21.9-21.4 34.1-30.7 12-9.2 24.7-17.4 38.1-24.6 13.5-7.3 27.7-13.5 42.5-18.5 14.3-4.9 29.2-8.7 44.4-11.3 14.9-2.5 30.1-3.9 45.6-4h2.2c14.8 0 29.2 1.1 43.4 3.3 15.3 2.3 30.3 5.9 44.7 10.6 14.3 4.6 28.1 10.4 41.3 17.1 14 7.2 27.4 15.4 39.9 24.7 12.3 9.1 23.8 19.2 34.5 30.1 10.7 10.9 20.5 22.7 29.3 35.2 8.8 12.5 16.6 25.6 23.3 39.4 6.6 13.7 12.2 27.9 16.6 42.7 4.3 14.5 7.5 29.5 9.5 44.8 1.6 12.1 2.4 24.4 2.4 37 0 2.9 0 5.9-.1 8.8-.5 15.5-2.2 30.7-5 45.6-2.9 15.2-7.1 29.9-12.3 44.2-5.3 14.5-11.8 28.4-19.3 41.6-7.6 13.4-16.2 26.1-25.7 38-9.6 12-20.1 23.1-31.5 33.4-11.2 10.1-23.2 19.3-35.9 27.6-12.8 8.3-26.3 15.6-40.4 21.8-14.2 6.3-29 11.4-44.3 15.3-14.4 3.7-29.2 6.2-44.4 7.6-8.6.8-17.3 1.2-26.1 1.2-6.7 0-13.4-.2-19.9-.7-15.7-1.1-31.1-3.4-46-7-15.1-3.6-29.7-8.4-43.8-14.2-14.3-6-27.9-13-40.9-21.1-13-8.1-25.2-17.2-36.7-27.2-11.5-10.1-22.2-21-32-32.8-9.8-11.8-18.7-24.5-26.6-37.8-7.5-12.8-14.1-26.3-19.6-40.4-5.5-14.2-10-28.9-13.2-44.1-3.2-14.8-5.2-30.1-5.9-45.6-.1-4.8-.3-9.4-.3-14.1z"/></svg>