<svg xmlns="http://www.w3.org/2000/svg" viewBox="0 0 24 24"><path d="M22.1.5H1.9C.9.5 0 1.4 0 2.4v15.1c0 1 .9 1.9 1.9 1.9h6.7l-.9 2.8h-.8c-.3 0-.6.3-.6.6s.3.6.6.6H17c.3 0 .6-.3.6-.6s-.3-.6-.6-.6h-.8l-.9-2.8H22c1 0 1.9-.9 1.9-1.9V2.4c.1-1-.8-1.9-1.8-1.9zM1.9 1.7h20.2c.4 0 .7.3.7.7v11.8H1.2V2.4c0-.4.3-.7.7-.7zM15 22.3H9l.9-2.8h4.2l.9 2.8zm7.1-4H1.9c-.4 0-.7-.3-.7-.7v-2.2h21.6v2.2c0 .3-.3.7-.7.7z"/><path d="M12 16.3c-.2 0-.3.1-.4.2-.1.1-.2.3-.2.4 0 .2.1.3.2.4.1.1.3.2.4.2.2 0 .3-.1.4-.2.1-.1.2-.3.2-.4 0-.2-.1-.3-.2-.4-.1-.1-.2-.2-.4-.2zM3.1 6.8h17.7c.3 0 .6-.3.6-.6V3.7c0-.3-.3-.6-.6-.6H3.1c-.3 0-.6.3-.6.6v2.5c0 .3.3.6.6.6zm.6-2.5h16.5v1.3H3.7V4.3zM5 13.1c1.4 0 2.5-1.1 2.5-2.5S6.4 8.1 5 8.1s-2.5 1.1-2.5 2.5 1.2 2.5 2.5 2.5zm0-3.8c.7 0 1.3.6 1.3 1.3 0 .7-.6 1.3-1.3 1.3-.7 0-1.3-.6-1.3-1.3 0-.7.6-1.3 1.3-1.3zm7-1.2c-1.4 0-2.5 1.1-2.5 2.5s1.1 2.5 2.5 2.5 2.5-1.1 2.5-2.5-1.1-2.5-2.5-2.5zm0 3.8c-.7 0-1.3-.6-1.3-1.3 0-.7.6-1.3 1.3-1.3.7 0 1.3.6 1.3 1.3 0 .7-.6 1.3-1.3 1.3zm7-3.8c-1.4 0-2.5 1.1-2.5 2.5s1.1 2.5 2.5 2.5 2.5-1.1 2.5-2.5-1.2-2.5-2.5-2.5zm0 3.8c-.7 0-1.3-.6-1.3-1.3 0-.7.6-1.3 1.3-1.3.7 0 1.3.6 1.3 1.3 0 .7-.6 1.3-1.3 1.3z"/></svg>