<svg xmlns="http://www.w3.org/2000/svg" id="Capa_1" viewBox="0 0 412.996 412.996"><path d="M392.996 28.338H20c-11.047 0-20 8.954-20 20v234c0 11.046 8.953 20 20 20h139.498v45.32h-54.283c-10.201 0-18.5 8.299-18.5 18.5s8.299 18.5 18.5 18.5h202.566c10.201 0 18.5-8.299 18.5-18.5s-8.299-18.5-18.5-18.5h-54.283v-45.32h139.498c11.047 0 20-8.954 20-20v-234c0-11.046-8.953-20-20-20zm-10 244H30v-214h352.996v214z"/><path d="M94.591 176.637l63.084 29.336a12.2 12.2 0 0 0 5.162 1.138c2.338 0 4.616-.664 6.597-1.924a12.212 12.212 0 0 0 5.666-10.335v-.322c0-4.751-2.785-9.115-7.096-11.119l-39.455-18.33 39.456-18.334a12.305 12.305 0 0 0 7.095-11.118v-.319c0-4.211-2.119-8.074-5.665-10.334a12.24 12.24 0 0 0-6.606-1.916c-1.778 0-3.563.391-5.16 1.133L94.59 153.525a12.306 12.306 0 0 0-7.091 11.117v.878c-.001 4.742 2.781 9.105 7.092 11.117zM175.662 236.389a12.303 12.303 0 0 0 9.901 5.029h.315a12.218 12.218 0 0 0 11.672-8.516l41.557-128.76a12.306 12.306 0 0 0-1.771-10.974 12.304 12.304 0 0 0-9.901-5.03h-.314a12.226 12.226 0 0 0-11.679 8.516L173.88 225.425a12.323 12.323 0 0 0 1.782 10.964zM237.896 135.628c0 4.746 2.782 9.11 7.095 11.122l39.455 18.33-39.455 18.33a12.304 12.304 0 0 0-7.096 11.119v.322c0 4.205 2.117 8.068 5.669 10.336a12.25 12.25 0 0 0 6.595 1.923c1.792 0 3.527-.383 5.169-1.142l63.081-29.335c4.307-2.009 7.089-6.372 7.089-11.115v-.878c0-4.748-2.783-9.112-7.093-11.117l-63.08-29.334a12.312 12.312 0 0 0-5.152-1.131 12.26 12.26 0 0 0-6.604 1.912 12.198 12.198 0 0 0-5.673 10.338v.32z"/></svg>