<svg id="Layer_1" xmlns="http://www.w3.org/2000/svg" viewBox="0 0 226.3 38.3"><g id="subtitle" fill="#DEDDDD"><path d="M55.1 33.2c-1.3 1.4-2 1.9-2.5 1.9s-1.1-1-1-1.5c.1-.3-.2-.4 3.5-4.5.1-.2.4-.4.4-.6s-.2-.3-.4-.3c-.7 0-2.9 1-3.5 1.4-.2.1-.5.3-.8.3-.1 0-.6-.2.1-1.6.2-.4.4-.5.7-.8l.8-.6c.1-.1.2-.1.3-.1 0 0 .1 0 0 .2l-.3.4c1-.3 2-.8 3.1-.8.4 0 .7 0 1 .3.2.3.4.9.4 1.2 0 .4-.1 1-3.3 4.7-.3.3-.1.4 0 .4.1.1 2.2-1.7 5-4.9.3-.3.8-1.1 1.4-1.1.3 0 .5.6.5.8 0 .2-.3.6-.4.7-.5.7-2.7 3.9-2.7 4.7 0 .1.1.2.2.2 1-.5 2.9-2.3 4-4.6 0-.1-.1-.3-.1-.4 0-.4.7-1.2.9-1.2s.3.5.3.6c-.1 2.7-3.5 6.8-5 7-.4.1-1.3-.5-1.3-1.2s.5-1.8.7-2.5l-2 1.9zM65.7 33.2c-.7.9-2.1 2-3.2 2-.9 0-1.3-.8-1.3-1.6 0-1.6 1.7-3.2 3.2-3.2.4 0 .9.1.9.6 0 .6-.6 1.5-2.9 2.2v.3c0 .5.4.6.7.6.9 0 1.9-.9 2.5-1.4l.1.5zm-1.5-2c0-.1-.1-.2-.1-.1-.6.2-1.3.7-1.6 1.5 1-.3 1.7-1.2 1.7-1.4z"/><path d="M66.5 32.7c-.2.8.1 1.4.5 1.3.4-.1.6-.4.8-.6-.1-.2-.2-.3-.2-.5 0-.7 1-1.9 1.7-1.9.3 0 .4.3.4.5 0 .5-.4 1.1-.6 1.5.5.1.9-.2 1.3-.4l.1.4c-.5.6-1.2.8-1.9.8-.5.5-1.4 1.3-2.1 1.3-.8 0-.9-1.2-.9-1.7 0-1.5.7-2.8 1.7-3.9 1-1.2 2.9-2.6 3.4-2.6.2 0 .3.2.3.4 0 1.1-1.8 2.9-2.5 3.6l-2 1.8zm.4-1.3c2.5-2.5 2.8-3.2 3-3.6-1.2 1-2.3 2.2-3 3.6zM79.5 28.4c-.9.1-1.8.3-2.6.6h.3c.1 0 .6 0 .6.1s-.3.2-.4.2c-.6.1-1.4.5-2 .5-.3 0-.5-.1-.5-.4 0-.2.1-.6.2-.8.2-.6.6-.9 1.1-1.2 1.1-.5 2.8-.8 4.1-.8.9 0 2.1.1 2.9.6.9.6 1.3 1.6 1.3 2.7 0 1.7-1.4 3.1-2.8 3.9-1.3.7-3.5 1.3-5 1.3-.3 0-.8 0-1-.1s-.3-.4-.3-.6c0-.9.6-1.7 1.2-2.3l2.9-3.7zm-2.4 4.3c-.4.5-.3.7-.3.8s.2.2.7.2c.8 0 1.9-.2 2.8-.5 2.5-.9 3.4-2.2 3.4-3.2 0-1.5-2.5-1.6-3.5-1.6-.1.4-.2.6-.4.9l-2.7 3.4zM88.5 33.2c-.7.9-2.1 2-3.2 2-.9 0-1.3-.8-1.3-1.6 0-1.6 1.7-3.2 3.2-3.2.4 0 .9.1.9.6 0 .6-.6 1.5-2.9 2.2v.3c0 .5.4.6.7.6.9 0 1.9-.9 2.5-1.4l.1.5zm-1.5-2c0-.1-.1-.2-.1-.1-.6.2-1.3.7-1.6 1.5 1-.3 1.7-1.2 1.7-1.4z"/><path d="M92.5 32.9l.1.5c-.7.7-2 1.8-3 1.8-.8 0-1.7-.5-1.9-1.4-.1.1-.2.2-.3.2-.1 0-.2-.1-.2-.2 0-.2.2-.3.3-.4l2.6-2.4c0-.4.3-.8.7-.8.4 0 .4.1.5.4 0 .5.2.9.2 1.4 0 1-.8 1.7-1.6 2.2.8.1 1.2-.2 1.8-.7l.8-.6zm-4.1.2c.4 0 .7.4.9.7.7-.4.9-.6.9-1.3 0-.3-.1-.6-.2-1l-1.6 1.6z"/><path d="M96 33.4c-.5.7-1.6 1.7-2.5 1.7-.7 0-1-.8-1-1.4 0-1.5 1.5-2.9 2.2-2.9.2 0 .5.1.5.3 0 .6-1.2 1.7-1.7 2-.1.5.1.8.6.8.6 0 1.3-.6 1.7-1l.2.5zm-1.1-3.3c0-.5.6-.9 1-.9.2 0 .4.2.4.4 0 .5-.4 1.1-1 1.1-.2-.1-.4-.3-.4-.6z"/><path d="M99.2 33.2c-.5.5-1.7 1.5-2.4 1.5s-.9-.9-.9-1.4c0-1.6 2.6-2.8 3.5-2.9.2 0 .6 0 .6.3 0 .2-.2.4-.4.5l-1.3.8c-.8.4-1.6.7-1.5 1.6 0 .1.1.1.2.1.3 0 1.1-.3 1.5-.7l1.3-1.4c.1-.1.3-.3.5-.3s.5.4.5.6-.2.5-.3.6l-.9 1.7 1.8-1.3.1.5-2.5 1.9c-1.3 2-2.3 2.8-2.8 2.8-.2 0-.3-.1-.3-.3 0-.9 1.8-2.4 2.5-2.9l.8-1.7z"/><path d="M106.9 32.6l.1.5c-.6.6-1.9 2-2.7 2-.5 0-.7-.4-.7-.8 0-.7.6-1.5 1-2.1-.7.5-1.3 1.1-1.8 1.8-.2.2-.6.8-.9.8-.5 0-.7-.8-.7-1.2 0-.8.7-2 1.4-2.6.2-.1.3-.1.5-.1.7 0 .7.2.7.3 0 .5-1.5 1.7-1.5 2 0 .1.1.1.1.1.1 0 .2-.1.2-.2 1-1.2 3.2-2.7 3.5-2.7l.2.2c.1.2.1.4.2.6 0 .5-1.5 1.4-1.5 2.2 0 .1.1.2.2.2.3 0 .8-.4 1-.6l.7-.4z"/><path d="M111.3 33.2c-.7.9-2.1 2-3.2 2-.9 0-1.3-.8-1.3-1.6 0-1.6 1.7-3.2 3.2-3.2.4 0 .9.1.9.6 0 .6-.6 1.5-2.9 2.2v.3c0 .5.4.6.7.6.9 0 1.9-.9 2.5-1.4l.1.5zm-1.5-2c0-.1-.1-.2-.1-.1-.6.2-1.3.7-1.6 1.5 1-.3 1.7-1.2 1.7-1.4z"/><path d="M111.9 32.4c-.4.7-.9 1-1.4 1.5v-.5c.3-.3.6-.6.8-.9-.3 0-.3-.1-.3-.4 0-.9 1.2-1.7 1.5-1.7.1 0 .2.1.2.2s0 .2-.1.3c1.1-.2 1.8-.3 1.9-.2.2.2.3.4.3.6 0 .4-.2.6-.5.8-.3.3-.9.9-.9 1.4 0 .2.2.3.4.3.5 0 1.3-.8 1.7-1.1l.1.4c-.5.5-1.8 1.8-2.5 1.8-.5 0-.8-.5-.8-.9 0-.8.6-1.5 1.1-2l-1.5.4zM123.6 30.5c.1.5.3 1 .6 1.5l1.9-1.5c.1.3.2.6.2.9 0 .7-.9 1.3-1.3 1.7.1.2.2.3.4.3.1 0 .3-.1.3-.1.1 0 .2.1.2.2 0 .3-.7 1.5-1.1 1.5-.3 0-.8-.7-1-.9-.8.5-1.6 1.1-2.6 1.1-1.1 0-2-.8-1.9-1.9.2-1.9 1.4-2.4 2.6-3.1-.3-1.9 1.8-3.4 3.3-3.4.6 0 1.2.5 1.2 1.1 0 .7-.5 1.2-1.1 1.6l-1.7 1zm-1.4.8c-.6.2-1.7 1.3-1.7 1.9 0 .2.4.2.6.2.6 0 1.2-.3 1.8-.6l-.7-1.5zm3.2-3.8c0-.1-.1-.2-.2-.1-1.3.2-1.5 1.2-1.8 2.1.6-.5 2-1.3 2-2zM135.5 28.4c-.9.1-1.8.3-2.6.6h.3c.1 0 .6 0 .6.1s-.3.2-.4.2c-.6.1-1.4.5-2 .5-.3 0-.5-.1-.5-.4 0-.2.1-.6.2-.8.2-.6.6-.9 1.1-1.2 1.1-.5 2.8-.8 4.1-.8.9 0 2.1.1 2.9.6.9.6 1.3 1.6 1.3 2.7 0 1.7-1.4 3.1-2.8 3.9-1.3.7-3.5 1.3-5 1.3-.3 0-.8 0-1-.1s-.3-.4-.3-.6c0-.9.6-1.7 1.2-2.3l2.9-3.7zm-2.4 4.3c-.4.5-.3.7-.3.8s.2.2.7.2c.8 0 1.9-.2 2.8-.5 2.5-.9 3.4-2.2 3.4-3.2 0-1.5-2.5-1.6-3.5-1.6-.1.4-.2.6-.4.9l-2.7 3.4zM144.5 33.2c-.7.9-2.1 2-3.2 2-.9 0-1.3-.8-1.3-1.6 0-1.6 1.7-3.2 3.2-3.2.4 0 .9.1.9.6 0 .6-.6 1.5-2.9 2.2v.3c0 .5.4.6.7.6.9 0 1.9-.9 2.5-1.4l.1.5zm-1.5-2c0-.1-.1-.2-.1-.1-.6.2-1.3.7-1.6 1.5 1-.3 1.8-1.2 1.7-1.4z"/><path d="M148.7 30.5c.2 0 .4.2.4.4 0 .5-.7 1.6-1 2 .1.1.2.2.4.2.3 0 .8-.3 1-.5l.1.5c-.4.5-.9.9-1.5.9-.3 0-.4-.2-.6-.3-.3.4-1.5 1.4-2 1.4-.7 0-1.2-.9-1.2-1.8 0-1.7 1.5-2.8 1.9-2.8.2 0 .7 0 .7.3 0 .5-1.1 1.8-1.6 2.1-.1.2-.2.5-.2.7s0 .5.3.5 1.3-.9 1.5-1.1c0-.6.3-1 .6-1.4.3-.4.8-1.1 1.2-1.1z"/><path d="M153.9 33.2c-.7.9-2.1 2-3.2 2-.9 0-1.3-.8-1.3-1.6 0-1.6 1.7-3.2 3.2-3.2.4 0 .9.1.9.6 0 .6-.6 1.5-2.9 2.2v.3c0 .5.4.6.7.6.9 0 1.9-.9 2.5-1.4l.1.5zm-1.5-2c0-.1-.1-.2-.1-.1-.6.2-1.3.7-1.6 1.5 1-.3 1.7-1.2 1.7-1.4z"/><path d="M157.6 33.2c-.7.7-1.8 1.9-2.8 1.9-.9 0-1.1-.9-1.1-1.6 0-1.3.5-2.6 1.3-3.6 1.1-1.3 2.2-2.4 2.6-2.4.2 0 .3.3.2.4-.1 1.1-.4 2.2-3 4.7-.1.2-.1.5-.1.8.1.3.3.5.6.5.7 0 1.6-.8 2.1-1.2l.2.5zm-2.5-1.6c.9-.8 1.6-1.9 1.8-2.6-.6.2-1.3 1.3-1.8 2.6z"/><path d="M162.2 33.2c-.5.7-1.1 1-1.9 1-.5.5-1.1.9-1.8.9-.6 0-1.2-.6-1.2-1.7 0-.9.4-1.5 1.1-2 .6-.5 1.5-.9 2.2-.9.3 0 .7.1.7.4 0 .2-.1.3-.3.3.4.1.4.3.4.7 0 .5-.2.9-.5 1.4.5.1.9-.4 1.2-.6l.1.5zm-3.6-.6c-.3.3-.5.7-.5 1.1 0 .3.2.5.5.5.4 0 .6-.2.9-.5-.1-.2-.1-.3-.1-.6 0-.6.6-1.4.5-1.4-.4.3-1 .5-1.3.9z"/><path d="M161.8 37c-.1.2-.3.5-.5.5-.3 0-.3-.3-.3-.5 0-.6.3-1.2.7-1.9.6-.8 1.2-1.8 1.9-3.1l-1.9 1.8v-.6l3.2-3.4c.3-.3.5-.7 1-.7.2 0 .6.1.6.3 0 .3-.6.8-.8 1-.4.4-.8.9-1 1.4.5-.4 1.7-1.2 2.4-1.2.3 0 .5.3.5.6 0 .7-.6 1.5-1.9 2.7 1 .1 1.3-.1 2.6-1.2l.1.6c-.9.9-2 1.7-3.3 1.7-.3 0-.6-.1-.9-.2-.2 0-.4.1-.6.1-.2 0-.3 0-.5-.1l-1.3 2.2zm3.8-4.3c.1-.2.3-.4.3-.6 0-.1 0-.2-.1-.2-.2 0-.8.4-.9.5-.4.3-.8.7-1.1 1.2.3 0 .7 0 1 .1l.8-1z"/><path d="M172.4 33.2c-.7.9-2.1 2-3.2 2-.9 0-1.3-.8-1.3-1.6 0-1.6 1.7-3.2 3.2-3.2.4 0 .9.1.9.6 0 .6-.6 1.5-2.9 2.2v.3c0 .5.4.6.7.6.9 0 1.9-.9 2.5-1.4l.1.5zm-1.5-2c0-.1-.1-.2-.1-.1-.6.2-1.3.7-1.6 1.5 1-.3 1.7-1.2 1.7-1.4z"/><path d="M173.1 32.4c-.4.7-.9 1-1.4 1.5v-.5c.3-.3.6-.6.8-.9-.3 0-.3-.1-.3-.4 0-.9 1.2-1.7 1.5-1.7.1 0 .2.1.2.2s0 .2-.1.3c1.1-.2 1.8-.3 1.9-.2.2.2.3.4.3.6 0 .4-.2.6-.5.8-.3.3-.9.9-.9 1.4 0 .2.2.3.4.3.5 0 1.3-.8 1.7-1.1l.1.4c-.5.5-1.8 1.8-2.5 1.8-.5 0-.8-.5-.8-.9 0-.8.6-1.5 1.1-2l-1.5.4z"/></g><g id="schneiderman" fill="#88E2CA"><path d="M77.3 14.1L78 13c.2-.3.5-.3.6-.1.1.1 1.6 1.2 2.8 1.2 1 0 1.7-.6 1.7-1.4 0-1-.8-1.6-2.4-2.3-1.8-.7-3.5-1.8-3.5-4.1 0-1.7 1.2-3.6 4.2-3.6 1.9 0 3.4 1 3.8 1.3.2.1.2.4.1.6l-.7 1.1c-.1.1-.4.3-.6.1-.2-.1-1.6-1-2.6-1-1.1 0-1.7.7-1.7 1.3 0 .9.7 1.5 2.2 2.1 1.8.7 3.9 1.8 3.9 4.3 0 1.9-1.7 3.7-4.3 3.7-2.4 0-3.8-1.1-4.1-1.5-.2-.2-.3-.2-.1-.6zM94.1 2.6c1.9 0 3.3.6 4.6 1.7.2.2.2.4 0 .5L97.6 6c-.1.2-.3.2-.5 0-.8-.6-1.9-1-2.9-1C91.8 5 90 7 90 9.4s1.8 4.3 4.2 4.3c1.1 0 2.1-.4 2.9-1.1.2-.1.4-.1.5 0l1.2 1.2c.2.1.1.4 0 .5-1.3 1.2-2.9 1.8-4.6 1.8-3.8 0-6.8-3-6.8-6.8-.1-3.6 3-6.7 6.7-6.7zM101.2 3.2c0-.2.2-.4.4-.4h1.8c.2 0 .4.2.4.4v5h6.1v-5c0-.2.2-.4.4-.4h1.7c.2 0 .4.2.4.4v12.5c0 .2-.2.4-.4.4h-1.7c-.2 0-.4-.2-.4-.4v-5.2h-6.1v5.2c0 .2-.2.4-.4.4h-1.8c-.2 0-.4-.2-.4-.4V3.2zM115.6 3c0-.2.2-.3.4-.3h.5l7.8 8.3V3.2c0-.2.2-.4.4-.4h1.7c.2 0 .4.2.4.4v12.7c0 .2-.2.3-.4.3h-.5L118 7.6v8.1c0 .2-.2.4-.4.4H116c-.2 0-.4-.2-.4-.4V3zM130.2 3.2c0-.2.2-.4.4-.4h7.7c.2 0 .4.2.4.4v1.5c0 .2-.2.4-.4.4h-5.6v3.1h4.6c.2 0 .4.2.4.4v1.6c0 .2-.2.4-.4.4h-4.6v3.3h5.6c.2 0 .4.2.4.4v1.5c0 .2-.2.4-.4.4h-7.7c-.2 0-.4-.2-.4-.4V3.2zM141.2 3.2c0-.2.2-.4.4-.4h1.8c.2 0 .4.2.4.4v12.5c0 .2-.2.4-.4.4h-1.8c-.2 0-.4-.2-.4-.4V3.2zM147.1 3.2c0-.2.2-.4.3-.4h4.5c3.6 0 6.6 3 6.6 6.6s-3 6.6-6.6 6.6h-4.5c-.2 0-.3-.2-.3-.4V3.2zm4.6 10.5c2.4 0 4.2-1.8 4.2-4.3 0-2.4-1.8-4.3-4.2-4.3h-2.1v8.6h2.1zM161 3.2c0-.2.2-.4.4-.4h7.7c.2 0 .4.2.4.4v1.5c0 .2-.2.4-.4.4h-5.6v3.1h4.6c.2 0 .4.2.4.4v1.6c0 .2-.2.4-.4.4h-4.6v3.3h5.6c.2 0 .4.2.4.4v1.5c0 .2-.2.4-.4.4h-7.7c-.2 0-.4-.2-.4-.4V3.2zM172.1 3.2c0-.2.2-.4.4-.4h5.4c2.3 0 4.1 1.8 4.1 4 0 1.7-1.1 3.1-2.8 3.8l2.6 4.8c.1.2 0 .5-.3.5h-2c-.2 0-.3-.1-.3-.2l-2.5-5h-2.1v4.8c0 .2-.2.4-.4.4h-1.7c-.2 0-.4-.2-.4-.4V3.2zm5.5 5.6c1 0 1.9-.9 1.9-1.9s-.9-1.8-1.9-1.8h-3.1v3.7h3.1zM186 2.9c0-.2.1-.3.3-.3h.3c.2 0 .3.1.3.2l4.1 8.9h.1l4.1-8.9c.1-.1.2-.2.3-.2h.3c.2 0 .3.1.3.3l2.2 12.6c.1.3-.1.4-.3.4h-1.7c-.2 0-.3-.2-.4-.3l-1.1-7.1h-.1l-3.3 7.4c0 .1-.2.2-.3.2h-.3c-.2 0-.3-.1-.3-.2l-3.3-7.4h-.1l-1.1 7.1c0 .1-.2.3-.3.3H184c-.2 0-.4-.2-.4-.4L186 2.9zM199.3 15.5l5.9-12.7c.1-.1.2-.2.3-.2h.2c.2 0 .3.1.3.2l5.8 12.7c.1.2 0 .5-.3.5h-1.6c-.3 0-.4-.1-.5-.4l-.9-2h-5.6l-.9 2c-.1.2-.2.4-.5.4h-1.6c-.5 0-.7-.3-.6-.5zm8.1-4l-1.9-4.1h-.1l-1.8 4.1h3.8zM213.5 3c0-.2.2-.3.4-.3h.5l7.8 8.3V3.2c0-.2.2-.4.4-.4h1.7c.2 0 .4.2.4.4v12.7c0 .2-.2.3-.4.3h-.5l-7.9-8.6v8.1c0 .2-.2.4-.4.4h-1.7c-.2 0-.4-.2-.4-.4l.1-12.7z"/></g><g id="robert" fill="#FFF"><path d="M1.7 3.2c0-.2.2-.4.4-.4h5.4c2.3 0 4.1 1.8 4.1 4 0 1.7-1.1 3.1-2.8 3.8l2.6 4.8c.1.2 0 .5-.3.5H9c-.2 0-.3-.1-.3-.2l-2.5-5h-2v4.8c0 .3-.2.5-.4.5H2.1c-.2 0-.4-.2-.4-.4V3.2zm5.5 5.6c1 0 1.9-.9 1.9-1.9s-.9-1.8-1.9-1.8h-3v3.7h3zM20.1 2.6c3.8 0 6.8 3 6.8 6.8s-3 6.8-6.8 6.8-6.8-3-6.8-6.8c0-3.7 3-6.8 6.8-6.8zm0 11.1c2.4 0 4.3-1.9 4.3-4.3s-2-4.3-4.3-4.3c-2.4 0-4.3 2-4.3 4.3s1.9 4.3 4.3 4.3zM29.3 3.2c0-.2.2-.4.4-.4H34c2.2 0 4 1.5 4 3.5 0 1.4-1.2 2.6-2.1 3 1 .3 2.4 1.3 2.4 3.1 0 2.1-1.8 3.6-4.1 3.6h-4.6c-.2 0-.4-.2-.4-.4l.1-12.4zm4.4 5.2c1 0 1.6-.8 1.6-1.7s-.7-1.6-1.6-1.6h-2v3.3h2zm.3 5.4c.9 0 1.7-.7 1.7-1.7 0-.9-.9-1.6-1.9-1.6h-2.1v3.3H34zM40.9 3.2c0-.2.2-.4.4-.4H49c.2 0 .4.2.4.4v1.5c0 .2-.2.4-.4.4h-5.6v3.1H48c.2 0 .4.2.4.4v1.6c0 .2-.2.4-.4.4h-4.6v3.3H49c.2 0 .4.2.4.4v1.5c0 .2-.2.4-.4.4h-7.7c-.2 0-.4-.2-.4-.4V3.2zM52 3.2c0-.2.2-.4.4-.4h5.4c2.3 0 4.1 1.8 4.1 4 0 1.7-1.1 3.1-2.8 3.8l2.6 4.8c.1.2 0 .5-.3.5h-2c-.2 0-.3-.1-.3-.2l-2.5-5h-2.1v4.8c0 .2-.2.4-.4.4h-1.7c-.2 0-.4-.2-.4-.4V3.2zm5.5 5.6c1 0 1.9-.9 1.9-1.9s-.9-1.8-1.9-1.8h-3.1v3.7h3.1zM66.3 5.1h-2.9c-.2 0-.4-.2-.4-.4V3.2c0-.2.2-.4.4-.4h8.2c.2 0 .4.2.4.4v1.5c0 .2-.2.4-.4.4h-2.9v10.6c0 .2-.2.4-.4.4h-1.8c-.2 0-.4-.2-.4-.4V5.1h.2z"/></g></svg>