<svg xmlns="http://www.w3.org/2000/svg" viewBox="0 0 627 176.3" id="hi-im-svg"><g fill="none" stroke="#FFF" stroke-width="6" stroke-miterlimit="10"><path d="M3.9 3h28.6c.5 0 .9.4.9.9v79.2c0 .5.4.9.9.9h28.9c.5 0 .9-.4.9-.9V3.9c-.1-.5.3-.9.8-.9h29.6c.5 0 .9.4.9.9v147.2c0 .5-.4.9-.9.9H66.2c-.5 0-.9-.4-.9-.9v-33.9c0-.5-.4-.9-.9-.9H34.9c-.5 0-.9.4-.9.9v33.9c0 .5-.4.9-.9.9H3.9c-.5 0-.9-.4-.9-.9V3.9c0-.5.4-.9.9-.9z"/><path stroke-linejoin="round" d="M64 83.1l16.3 17.6V3M33.3 84H18.7V3.9M18.7 152v-51.3h61.6M34.9 116.3l-16.2-15.6M80.3 152v-35.7H64.4"/></g><g fill="none" stroke="#FFF" stroke-width="6" stroke-linejoin="round" stroke-miterlimit="10"><path d="M142.3 3H174v149h-31.7zM158.2 152V3.9"/></g><g fill="none" stroke="#FFF" stroke-width="6" stroke-linejoin="round" stroke-miterlimit="10"><path d="M347.8 3h31.7v149h-31.7zM363.7 152V3.9"/></g><g fill="none" stroke="#FFF" stroke-width="6" stroke-linejoin="round" stroke-miterlimit="10"><path d="M220 124.3h30.7V158s-1.7 15.3-15.3 15.3V156s-15.3-4.3-15.3-18-.1-13.7-.1-13.7zM235.3 156v-31.7"/></g><g fill="none" stroke="#FFF" stroke-width="6" stroke-linejoin="round" stroke-miterlimit="10"><path d="M425.8 3h30.7v45.8h-30.7zM441.2 3v46.8"/></g><g fill="none" stroke="#FFF" stroke-width="6" stroke-linejoin="round" stroke-miterlimit="10"><path d="M499.7 3H521l40.3 68.7L602.1 3H624v149h-31.7V83l-24 40h-14l-40.6-73.2V152h-14z"/><path d="M504.3 3.9L552.7 89l17.8-32.8M552.4 119.5L619 3M513.8 152h16.5V79.8M608.7 152V49.8L592.3 83"/></g></svg>