<svg xmlns="http://www.w3.org/2000/svg" viewBox="0 9.1 100 81.9"><path d="M99.4 52.5l-10.8-9.8V19.4c0-1-.8-1.8-1.8-1.8h-9.5c-.5 0-.9.2-1.3.5-.3.3-.5.8-.5 1.3v11.4L52 9.5c-.7-.6-1.7-.6-2.4 0L.6 52.6c-.6.5-.8 1.4-.4 2.2.4.7 1.2 1.1 2 .9l10.9-2.5v33.6c0 .3 0 1.8 1.1 2.9.5.5 1.4 1.1 2.8 1.1h24.3c1 0 1.8-.8 1.8-1.8V68.9c0-.2 0-.8.3-1.1.2-.2.5-.2.8-.2h10.1c.5 0 1.1.1 1.4.4.3.4.3 1 .3 1.1v19.8c0 .5.2.9.5 1.3.3.3.8.5 1.3.5h23.8c1.6 0 2.6-.7 3.2-1.3 1.3-1.3 1.2-3.1 1.2-3.3V52.8l11.9 2.8c.8.2 1.6-.2 2-.9.3-.8.1-1.7-.5-2.2zM79.1 21.2H85v18.2l-5.8-5.3-.1-12.9zm5.3 27.5c-.5-.1-1.1 0-1.5.3-.4.3-.7.9-.7 1.4v35.9c0 .2-.1.6-.2.7-.1.1-.4.1-.5.1h-22V69.2c0-.2.1-2.2-1.3-3.7-.7-.7-1.9-1.6-4.1-1.6h-10c-1.8 0-2.9.8-3.5 1.4-1.2 1.4-1.2 3.2-1.2 3.8v18H16.8c0-.1-.1-.2-.1-.3V51.1c0-.6-.3-1.1-.7-1.4-.4-.3-1-.5-1.5-.4l-6.2 1.4 42.4-37.4 24.8 22.4v.1h.1l16.1 14.6-7.3-1.7z"/></svg>