<svg viewBox="0 0 512 512" xmlns="http://www.w3.org/2000/svg"><rect height="512" rx="64" ry="64" width="512" fill="#0083be"/><g fill="#fff"><path d="M61.054 178.669h85.76v257.963h-85.76zM104.514 54.28c-29.342 0-48.513 19.291-48.513 44.575 0 24.752 18.588 44.574 47.377 44.574h.555c29.903 0 48.516-19.822 48.516-44.574-.555-25.284-18.612-44.574-47.935-44.574zM357.281 172.603c-45.49 0-65.867 25.017-77.276 42.59v-36.524h-85.739c1.138 24.197 0 257.963 0 257.963h85.737V292.567c0-7.712.555-15.42 2.828-20.931 6.187-15.4 20.305-31.353 43.993-31.353 31.012 0 43.436 23.664 43.436 58.328v138.021h85.742v-147.93c0-79.239-42.305-116.1-98.72-116.1z"/></g></svg>