<svg xmlns="http://www.w3.org/2000/svg" viewBox="6.5 4.4 470 470"><path d="M241.5 474.4c-62.8 0-121.8-24.4-166.2-68.8S6.5 302.1 6.5 239.4c0-62.8 24.4-121.8 68.8-166.2C119.7 28.8 178.7 4.4 241.5 4.4s121.8 24.4 166.2 68.8c44.4 44.4 68.8 103.4 68.8 166.2 0 62.8-24.4 121.8-68.8 166.2s-103.4 68.8-166.2 68.8zm0-449c-57.2 0-110.9 22.3-151.3 62.7-40.4 40.4-62.7 94.2-62.7 151.3 0 57.2 22.3 110.9 62.7 151.3 40.4 40.4 94.2 62.7 151.3 62.7s110.9-22.3 151.3-62.7c40.4-40.4 62.7-94.2 62.7-151.3 0-57.2-22.3-110.9-62.7-151.3-40.4-40.5-94.1-62.7-151.3-62.7z"/><path d="M369.7 215.3l-77.2 77.2c-21.3 21.3-55.9 21.3-77.2 0l-25.7-25.7 25.7-25.7 25.7 25.7c7.1 7.1 18.6 7.1 25.7 0l77.2-77.2c7.1-7.1 7.1-18.6 0-25.7l-25.7-25.7c-7.1-7.1-18.6-7.1-25.7 0L265 165.7c-12.8-7.5-27.3-10.7-41.7-9.8l43.5-43.5c21.3-21.3 55.9-21.3 77.2 0l25.7 25.7c21.3 21.4 21.3 55.9 0 77.2zM217.2 316.4L189.6 344c-7.1 7.1-18.6 7.1-25.7 0l-25.7-25.7c-7.1-7.1-7.1-18.6 0-25.7l77.2-77.2c7.1-7.1 18.6-7.1 25.7 0l25.7 25.7 25.7-25.7-25.7-25.7c-21.3-21.3-55.9-21.3-77.2 0l-77.2 77.2c-21.3 21.3-21.3 55.9 0 77.2l25.7 25.7c21.3 21.3 55.9 21.3 77.2 0l43.5-43.5c-14.3.9-28.8-2.4-41.6-9.9z"/></svg>