<svg xmlns="http://www.w3.org/2000/svg" viewBox="0 0 2300.5 573.1"><path fill="#FFF" d="M558.3 260.2c0-3.7-.4-5.6-4.9-5.5-21.5.2-43.1.2-64.6 0-4.2 0-5.3 1.4-5.2 5.4.2 9.9 0 19.8.1 29.7.2 19 9.2 32.2 27.2 38.5 4.1 1.4 4.9 2.3 4.9 6.2-.2 10.5.1 22.6.2 30.6h11.9c18.9-2 30.1-17.2 30.3-37.7.2-22.7 0-44.6.1-67.2zm-42.8 57.9c-14-3.1-20.4-11.5-21.3-25.1-.5-7.3.1-14.7-.2-22-.1-3.7 1.1-4.7 4.7-4.9 16.8-1.1 16.7-1.2 16.7 15.7.1 11.8.1 23.7.1 36.3zM547 332c-.5 12.6-8 20.5-20.8 23.4 0-28.3.1-56.5-.1-84.6 0-3.8 1.2-4.6 4.8-4.7 16.5-.8 16.5-1 16.5 15.1 0 16.9.2 33.9-.4 50.8zM1322.4 11.7c0-5.7-2.1-6.4-6.9-6.3-13.3.3-26.6.3-39.9 0-5-.1-7.5 1.9-9.8 6-22.2 39.6-44.6 79.1-67 118.6-3 5.2-6 10.4-9.4 16.2-1.6-2.5-2.5-3.9-3.3-5.4C1162 98 1137.9 55.3 1114 12.4c-2.8-4.9-5.7-7.3-11.8-7.1-13 .6-26.1.5-39.1 0-5.4-.2-6.5 1.5-6.5 6.6.2 102 .2 204 0 306 0 5.5 1.6 6.5 6.6 6.4 20.1-.3 40.2-.4 60.3 0 6.4.1 7.9-1.6 7.9-7.9-.3-38-.2-75.9-.1-113.9 0-2.3-.7-4.8.9-7.2.6.7 1 1 1.3 1.5 7.8 13.7 15.6 27.5 23.4 41.2 4.9 8.6 7.9 20.5 15.2 24.7 7.4 4.3 19.3.7 29.2 1.3 5.1.3 7.4-1.8 9.6-5.8 11.6-20.9 22.7-41.7 34.4-62.5.6.1 1.1.1 1.1.2v8.3c0 37.7.9 75.4.6 113 0 5.4 1.6 7.2 7.3 7.1 20.4-.4 41-.3 61.4-.1 4.4 0 6.5-.6 6.5-5.8-.1-102.2 0-204.4.2-306.7zm-222.6 4.4c3.7-.2 5.6 1.4 7.2 4.5 24.6 44.4 49.2 88.7 73.9 133 1.8 3.2 1.4 5.6-.4 8.5-3 4.8-5.7 9.7-9.1 15.4-30.5-53.9-60.5-107-91.2-161.3 7.3 0 13.5.2 19.6-.1zm13.9 297.8c-13.8-.3-13.2 0-13.2-13.6V147.5v-8.3c0-.1.3-.2.8-.3 5.9 10.2 11.3 20.5 17.3 30.6 1.9 3.1 2 6.3 2 9.7 0 42.4.1 84.9.4 127.3.1 6.1-1.5 7.5-7.3 7.4zm57.8-71.7c-27.2-48.2-54.1-95.8-81.4-144-2.2 3-1.3 6-1.3 8.8-.1 66-.2 132 .2 198 0 7.8-2.1 9.3-9.2 9-12.4-.6-12.3-.2-12.3-12.4V27.1v-8.2c0-.2.8-.3 1.3-.5 34.1 60.2 68.1 120.4 102.8 181.6 7.8-13.7 15.2-26.7 22.5-39.8 25.4-45.2 50.9-90.4 75.9-135.9 3.5-6.3 7.2-9.2 14.4-8.2 4.3.6 8.8.1 14.6.1-42.9 75.9-85 150.7-127.5 226zm99.7 71.6c-2.5-.4-5.1-.3-7.6 0-3.7.4-4.9-1.2-4.8-4.8.1-44.4.1-88.9 0-133.3 0-2.1.7-3.8 1.7-5.5 5.9-10.2 12.1-20.5 18-30.7.5.1 2 .2 2 .3v39.7c0 41.9-.5 83.8-.2 125.7.1 6.8-1.9 9.8-9.1 8.6zm31.4 0c-2.5-.4-5.1-.3-7.6 0-3.9.4-4.5-1.4-4-4.9.2-1.4.5-2.8.5-4.2V108.4v-9.5c-5 .8-4.3 3.8-5.4 5.7-25.9 45.9-52.1 91.8-77.5 138-4.3 7.9-8.8 12.3-18.2 10.6-3.5-.6-7.2-.1-12.4-.1 44.6-78.9 89.3-156.7 133.2-234.5.5.1 2.2.3 2.2.4v7.2c0 92.9-1 185.8-.6 278.7.1 7.8-3 10-10.2 8.9z"/><path fill="#77C4D3" d="M1682 204.7c-1.2-3.5-2.1-5.9 1.5-8.8 26.7-21.4 37.6-50.1 38-83.4.7-61.7-38.3-103.9-99.8-106.3-35.6-1.4-71.4-.4-107.1-.8-5.4-.1-5.6 2.3-5.6 6.5.1 102 .1 204-.1 306 0 5.4 1.4 6.5 6.6 6.5 20.4-.3 40.8-.3 61.2 0 5.6.1 7.1-1.4 7-7-.3-27.8-.1-55.5-.1-83.3 0-16.1 0-15.9 16.4-16.2 5.8-.1 8.3 1.5 10.2 7.2 10.3 31 21.1 61.9 31.7 92.8 1.3 3.8 2.3 6.7 7.8 6.6 23.5-.5 47-.2 71.7-.2-1-3.1-1.7-5.5-2.5-7.9-12.2-37.3-24.5-74.5-36.9-111.7zm-115.5 109.2c-13.9-.3-13 0-13-13.6V192.9c5 7.8 12.2 14 18.1 19.9 2.6 2.6 1.6 5.7 1.6 8.7 0 28.3.1 56.6.4 84.9.1 6-1.2 7.6-7.1 7.5zm-6.7-127.7c12 0 23 .1 34.1 0 2.3 0 3.5.8 4.2 3 2 5.8 4.2 11.5 6.1 16.7-20.5 7.3-32-5.6-44.4-19.7zm112.5 127.4c-21.2.8-21.3.9-27.9-19.2-12.3-36.9-24.6-73.8-36.6-110.9-1.9-6-4.5-8.4-11.2-8.2-15.8.6-31.7.5-47.6 0-6.3-.2-8 1.3-8 7.8.3 41.1 0 82.2.3 123.2 0 5.9-1.2 7.7-7.3 7.5-14.3-.4-14.4-.1-14.4-14.8 0-90.9.2-181.9-.3-272.8 0-9 2.6-10.5 10.8-10.3 30 .5 60.1-.2 90.1.5 58.7 1.4 94.8 45.4 90.4 104.5-1.4 18.6-6.9 35.9-17.7 51.4-2.3 3.3-3.6 4.4-6.7.9-3.5-4.1-8.9-7.1-10.9-11.7-2.3-5.2 4-9.1 6.2-13.6 19.5-39.5 5-87-32.1-104-10.4-4.8-21.6-6.7-32.9-6.8-22.9-.2-45.9.1-68.8-.2-5.3-.1-6.6 1.4-6.6 6.6.2 34.8.1 69.7.1 104.5 0 3.7-.2 6.2 5.1 6.2 24.1-.4 48.2.2 72.2-.4 20-.5 35-13.7 38.4-32 4.2-22.4-4.8-41.3-23.5-49.3-8.8-3.8-18.2-3.4-27.6-3.4-26.9 0-26.9 0-45.2-19-.2-.2-.2-.4-1.1-2.3 24.4.7 48-2.4 71.1 1.7 34.8 6.2 54.4 38.2 47.3 74.9-5 26-19.5 43.3-46.1 49-1.6.4-3.2 1.1-4.8 1.7 15.5 46.1 31 92 46.4 137.9-.7.5-.9.6-1.1.6zm-99.4-175.1c.1 4-.2 5.2-4.3 5.3-16.1.6-15.1.8-15.1-15.5V58.2c16 10.3 22.9 25.9 20.5 45.6-1.3 11.4-1.3 23.2-1.1 34.7zm10.8-26.8c0-8.8.2-17.5-.1-26.3-.1-4.3.9-6 5.6-5.8 9.3.4 18.7-.2 28 .3 18 .9 29.5 12.7 29.9 30.1.5 19.3-9.7 31.7-28.3 33.3-10.1.9-20.3.2-30.5.5-3.9.1-4.7-1.6-4.6-5 .1-9.1 0-18.1 0-27.1zm103.5 202.1c-3.6.1-3.8-2.9-4.5-5.1-13.4-40-26.6-80.1-40-120.1-1.4-4.3-.7-6 3.4-7.5 6.1-2.2 11.9-5.2 16.8-9.5 2.9-2.5 4.6-1.5 6.8.9 3.7 3.9 7.7 7.5 11.6 11.2-.7.8-1 1.4-1.5 1.7-13.5 6.3-11 15.6-6.9 27.1 11.8 33.1 22.4 66.7 33.9 101.4-7-.2-13.3-.2-19.6-.1z"/><path fill="#FFF" d="M238.6 164.7c0-50.1-.1-100.3.2-150.4 0-6.7-1.1-9.2-8.6-9-19.2.6-38.5.6-57.8 0-7.4-.2-8.6 2.2-8.5 8.9.3 51.3.1 102.6.3 153.8 0 5.7-1.1 7.9-7.3 7.6-11.9-.5-23.8-.7-35.7 0-7.9.5-10.4-1.3-10.3-9.9.5-51 .1-102 .4-153 0-5.9-1.4-7.6-7.4-7.5-20.5.5-40.9.5-61.3.2-4.8-.1-6.2 1.1-6.2 6 .1 102.3.1 204.5 0 306.8 0 4.8 1.2 6.2 6 6.1 20.7-.3 41.4-.4 62 0 6.1.1 6.7-2.3 6.7-7.4-.2-20.1.1-40.2-.2-60.3-.1-5.4 1.1-7.4 6.9-7.1 13 .5 26.1.5 39.1 0 6.3-.3 7.3 2.1 7.2 7.7-.3 19.8.2 39.7-.3 59.5-.2 6.7 1.9 7.8 8 7.7 19.5-.4 39.1-.5 58.6 0 6.8.2 8.3-1.8 8.3-8.4-.2-50.4-.1-100.8-.1-151.3zM180.8 16.1c15 0 14.7-.2 14.7 15v167.8c-8-7.1-13.3-13.1-19.6-19-2.2-2.1-1.5-4.7-1.5-7.1 0-50 0-100.1-.2-150.1 0-5.5 1.5-6.6 6.6-6.6zm-93.8 0c1.9.3 4 .3 5.9 0 5.8-.9 7.6 1.2 7.5 7.3-.4 24-.2 48.1-.2 72.1 0 24-.2 48.1.1 72.1.1 6-1 8.3-7.7 8.1-13.6-.5-13.6-.1-13.6-13.9 0-45.8.1-91.6-.1-137.4 0-6.2 1.1-9.5 8.1-8.3zm-18.4 204c0 28.6-.2 57.5.2 86.1.1 5.9-1.4 7.7-7.4 7.6-14.3-.4-14.3 0-14.3-13.9 0-91.5.1-182.9-.2-274.4 0-8.1 2.4-10.5 9.8-9.3 1.9.3 4 .3 5.9 0 4.9-.7 6.2 1.4 6.1 6.1-.3 17.3-.1 34.6-.1 51.8 0 34.3.3 68.5-.2 102.8-.1 8.1 2.5 9.6 9.9 9.4 26.3-.4 52.7.1 79-.3 7.1-.1 12.4 1.4 17 7 3.7 4.5 8.5 7.5 12.9 11.5-.3.7-.7 1.5-1 1.5H81.8c-13.2.1-13.2.6-13.2 14.1zm32 52.4c-1.6 11.4-.6 23.2-.2 34.8.2 5.2-1.1 6.6-6.4 6.6-14.7-.1-14.5.2-14.5-14.4v-73.1c3 1 1.5 1.2 1.8 1.3 15.5 11 22 25.4 19.3 44.8zm90.9 41.4c-16.9.9-16.9 1-16.9-15.4 0-14.4.2-28.8-.1-43.2-.1-4.4.8-5.6 5.3-5.7 16.1-.3 15.8-.5 15.8 15.5V282c0 9 .1 18.1.4 27.1 0 3.6-.8 4.6-4.5 4.8zm34.1-.5c-6 .7-12.4 1.5-18.3-.7-.9-.3-.7-4.1-.8-6.3-.1-20.1-.2-40.2.1-60.3.1-5.6-1.5-7-7-6.9-27.5.3-55-.1-82.4.3-6.1.1-10.7-1.4-14.8-5.9-4.5-5-9.6-9.3-16.2-15.4 38.6 0 74.9-.2 111.1.2 7.3.1 9.3-1.5 9.3-9.1-.4-61.8-.1-123.5-.4-185.3 0-6.6 1.8-7.9 7.9-7.7 13.4.5 13.4.1 13.4 13.2 0 92.1 0 184.1-.1 276.2.3 2.5 2.4 7.2-1.8 7.7z"/><path fill="#77C4D3" d="M2240.7 147.3c-3.1-3.5-3.6-6.2-2.3-10.4 3.4-10.5 5.3-21.3 5.8-32.4 2.6-55.6-33.4-96-89-98.2-31.4-1.3-62.9-.3-94.3-.8-6.3-.1-7.9 1.4-7.9 7.8.3 50.4.2 100.9.2 151.3v153c0 3.5-1.1 7 5.1 6.9 36.5-.4 73.2 1 109.6-.8 41.6-2 72.9-21.4 89.7-61.2 7.6-17.9 6-36.5 6.4-55.1.5-23.4-8-43.2-23.3-60.1zm-27.8 152c-16.6 10.2-35 14.2-54.2 14.4-29.5.2-58.9-.1-88.4.2-5.8.1-6.8-1.8-6.8-7.1.2-83.8.1-167.7.1-251.5 0-3.3-1.6-7.4 4.8-7.4 28 .4 56.1.4 84.1.5 26.1.1 50.6 20.4 49.1 55.2-.7 15.4-5.5 28.7-17.7 38.8-1.9 1.5-3.6 3.6-6.6 3.2-23.9-3.7-48-.7-71.9-2 6.1-6.6 12.2-13.2 18.3-19.7 1.3-1.4 2.8-1.6 4.5-1.6 13.3.4 26.7-1.1 39.9 1 4.3.7 6.1-1.1 7.9-4.2 13.3-22.9-1.1-49.3-27.4-49.6-19.3-.3-38.5.1-57.8-.1-4.2 0-5.8.8-5.8 5.5.2 24.6.3 49.3 0 73.9-.1 5.3 2.1 5.8 6.4 5.7 21.5-.2 43.1-.1 64.6-.1 6.2 0 12.7-.3 18.5 1.9 6.4 2.3 10.7-.2 15.2-3.9 20.3-16.6 28.3-47.9 19.1-75.1-8.2-24.1-29.7-39.1-58.3-39.6-26.3-.5-52.7-.3-79 0-6.1.1-9.1-1.1-7.9-7.8.3-1.9.3-4 0-5.9-.9-5.9 1.3-7.6 7.3-7.5 28 .4 56.1-.2 84.1.4 44.4 1 76.8 34 78.5 78.3 1.1 29.3-7.1 54.6-30.4 74 17.3 16.8 22.6 37.5 19 60.5-4.8 30.2-23.6 49-54.1 51.6-21 1.8-42.2.3-64.7.3 7.2-6.8 13.6-12.7 19.7-18.8 2.4-2.4 5.1-2 7.9-2.1 11.6-.2 23.2.1 34.8-.8 21.9-1.7 36.4-19 36.1-42.3-.3-23-14.7-40.2-36.4-41.1-25.2-1-50.4-.5-75.6-.8-3.9 0-4.7 1.4-4.7 5 .1 35.7.1 71.4 0 107.1 0 2.9.1 4.9 3.9 4.7 29.4-1 58.9 2.1 88.2-1.9 9.9-1.3 19.1-5.2 27.1-11.1 4.3-3.1 6.8-3.7 10.9.7 10.8 11.1 11.1 10.9-2.3 19.1zM2095.6 85.5c-.1-5 1.8-5.9 6.3-5.9 15-.1 13.4 0 15.5 14.8 2.6 19.3-7.8 30.1-21.6 41.2-.1-17.5.1-33.8-.2-50.1zm32.1 6.2c-.1-2.3.2-4.6-.1-6.8-.4-4.1 1.1-5.5 5.2-5.3 5.6.3 11.3-.2 17 .2 10.9.7 17 5.5 19.3 15.3 3 12.6.2 16-12.2 16h-10.5c-5.3 0-14 3.2-17.5-1-3.2-3.9-1-12-1.2-18.4zm-32.1 100c0-4.6 1.5-5.5 5.8-5.6 15.6-.2 15.6-.4 15.6 15.3 0 14.2-.4 28.3.2 42.4.3 6.9-1.7 11.7-6.9 16.2-4.6 4-8.5 8.9-12.7 13.4l-1.8-1.2c-.1-26.8 0-53.7-.2-80.5zm67.5-5.3c17.4.9 28.3 13.1 28.4 31.1.1 18.6-11.3 31.1-29.1 31.9-9.6.4-19.3 0-28.9.3-4.3.1-5.9-.9-5.9-5.5.3-17.6.3-35.1 0-52.7-.1-4.8 2.5-5.7 6.7-5.4 4.8.3 10.2.1 15.2.1v.2c3 0 8.8-.2 13.6 0zm91.6 41.2c-1.3 18-6.7 34.8-17.2 49.7-3.1 4.3-4.8 5.7-9.1.9-9.6-10.6-9.4-10.2-3.2-22.9 12.5-25.9 12-51.9-1.6-77.1-3.2-6-4.4-10.1.8-15.2 2.9-2.9 4.9-6.7 7.7-10.7 19 22.2 24.5 47.7 22.6 75.3zM1984.4 94.8c-4.8-50.5-36.4-84.5-83.5-92.8-62.9-11.1-114.5 24.9-124.8 89.5-3.8 24.2-1.1 48.6-2.2 73 1.1 24-1.2 48.1 2 72.1 7.2 55.4 47.6 92 103 93 54.2.9 97.6-34.9 104.6-88.8 6.3-48.6 5.5-97.5.9-146zm-9.5 133c-1.3 19.2-7.6 36.9-18.2 53.1-3.1 4.7-5.1 6.6-9.5 1.4-3.1-3.6-8.9-6.1-9.9-10-.8-3 4.2-7.3 6.3-11.3 7.2-13.5 10.6-28 10.7-43.2.3-35.1.2-70.3 0-105.4-.1-12.8-2.6-25.3-7.8-37.1-13.4-30.5-41-46.5-74.3-43.3-32.1 3.1-56.9 26.5-63.9 59.9-1.8 8.4-2.4 16.8-2.4 25.3 0 36.3-1.5 72.5.8 108.8 1.3 21.6 9.6 40.6 26.3 55.1 24.2 21 64 22.7 89.7 3.4 5.5-4.1 8.5-4.5 12.7 1 2.3 3.1 5.7 5.4 8.9 8.3-36.7 38.9-129.1 36.6-153.2-39.3-3.7-11.7-6.2-23.5-6.3-35.8-.2-36-.4-72 .1-108 .3-22.4 6.2-43.7 19.4-62.2 18.9-26.5 45.4-38 77.5-37.5 48.5.7 84.5 32.7 91.8 80.8 2.7 17.8 2.2 35.6 2.2 53.4-.2 27.7 1 55.2-.9 82.6zm-135.5-.7c3.1 29.7 30.1 46.2 55.7 35.9 18.4-7.4 26.3-23.4 26.8-41.7 1-37.4.9-74.8.1-112.2-.6-27.7-20.4-46.4-45.5-45-7 .4-13.5 2.4-18.6 7-4 3.5-6.3 3.8-10.3-.1-12.1-11.7-12.3-12.8 3-20.8 31.9-16.7 84.4-7.5 91.8 50.7 5 39.6 1.5 79.8 1.4 119.7 0 5.3-1.3 10.7-2.5 15.9-7.4 32.2-30.9 51-63 50.4-30.6-.6-53.8-21.4-59.8-53.4-1-5.6-1.7-11.2-1.7-16.9.1-36-.1-72 .3-108 .2-14 4.2-27.2 11.9-39.3 12.4 7.6 18.5 16.7 10.5 30.6-1.2 2-1 5-1 7.5-1.1 39.9-3.3 79.9.9 119.7zm72.5-10.3c-.1 8.9-2.3 17.2-7.2 24.7-11.9 18.2-37 18.2-48.9 0-4.8-7.3-6.9-15.5-7-24.1-.7-36.2-1.4-72.5.4-108.7.7-13.5 6.1-25.4 19.6-31.3 13.7-6 28.1-1.4 36.1 11.4 5 8.1 7.1 17.4 7.1 26.9.1 16.7 0 34.4 0 50.4h-.1c0 17 .2 33.7 0 50.7z"/><path fill="#FFF" d="M398.5 11.4c0-5-1.7-6-6.3-6-20.1.2-40.2.4-60.3-.1-6.8-.2-8.2 1.9-8.2 8.4.3 50.4.1 100.8.1 151.3 0 50.4.2 100.8-.2 151.3 0 6.8 1.9 8.3 8.4 8.2 20.1-.4 40.2-.3 60.3 0 4.8.1 6.1-1.3 6.1-6.1 0-102.5 0-204.7.1-307zm-50 302.5c-14.5-.2-15 0-15-14.5v-135c0-46.7.6-93.4.3-140.1-.1-6.9 2.3-9 8.7-8.1 2.2.3 4.7.3 6.9 0 5.3-.7 6.6 1.3 6.6 6.5-.2 94.8-.4 189.6-.2 284.4 0 6-2.2 6.8-7.3 6.8zm36.9-.5c-6 .7-12.4 1.6-18.2-.8-1.1-.5-.7-4.7-.7-7.2V165.3c0-47.3.1-94.5-.1-141.8 0-5.9 1.4-7.6 7.4-7.4 14 .4 14 .1 14 14.4 0 91.7 0 183.4-.1 275.1-.2 2.7 1.9 7.3-2.3 7.8zM820.2 164.8c0-50.4-.1-100.8.1-151.3 0-5.7-.4-8.5-7.5-8.3-20.4.6-40.8.4-61.2.1-4.9-.1-6.1 1.4-6 6.1.1 102.3.1 204.5 0 306.8 0 4.9 1.4 6.1 6.1 6 20.1-.3 40.2-.4 60.3.1 6.6.1 8.4-1.5 8.4-8.3-.4-50.3-.2-100.7-.2-151.2zm-42.4 141.5c0 5.6-1.1 7.9-7.4 7.7-14.5-.4-14.9 0-14.9-14.5v-135c0-46.7.5-93.4.1-140.1 0-6.9 2.1-9.1 8.6-8.1 1.9.3 4.1.3 6 0 5.9-.9 7.5 1.4 7.5 7.4-.1 94.1-.1 188.3.1 282.6zm31.6.3c0 5 .1 7.5-6 7.4-14.6-.3-13.9.1-13.9-14.6v-135c0-46.7-.5-93.4-.9-140.1-.1-6.9 1.7-9 8.1-8 1.9.3 3.8.3 5.8 0 5.3-.7 7.1.9 7.1 6.8-.2 94.4-.3 188.9-.2 283.5zM980.1 105.3c-.4-15.6-.1-31.1-.1-46.7 0-15.6-.2-31.2.1-46.7.1-5.4-1.5-6.6-6.7-6.5-20.7.3-41.3.3-62 0-4.8-.1-6.1 1.2-6.1 6.1.2 31.4.2 62.9 0 94.3 0 4.8 1.3 6.1 6.1 6.1 20.7-.3 41.3-.3 62 0 5.1 0 6.9-1.1 6.7-6.6zm-47.6-3.9c-16.6.6-16.6.8-16.6-15.8 0-20.6.2-41.2-.1-61.8-.1-5.6 1.5-7.8 7.7-7.7 14.5.3 15 0 15 14.7v28.8c0 12.1-.6 24.3-.4 36.4 0 3.8-1.3 5.2-5.6 5.4zm30.5 0c-15.1-.1-15.1.2-15.1-14.9 0-21.2.2-42.4-.1-63.6-.1-5.8 1.4-6.9 6.7-6.8 14.3.2 14 0 14 14v28.8c0 11.9.1 23.7.4 35.6.1 4.7-.1 6.9-5.9 6.9z"/><g fill="#D1D1D1"><path d="M219.8 507c13.6-13.1 18.6-12.8 25 1.2 1.9-2.3 3.6-4.8 5.8-6.8 6.8-6.4 15-4 17.4 5 2.3 8.6.3 17.4 1.3 26 .6 5.3-3.9 12.5 4.9 15.6 1.4.5.7 3.7-1.8 3.9-4.3.3-8.7.2-13.1.1-1.4 0-2.6-1.1-2.5-2.7 0-1.7 1.4-2.5 2.8-2.5 4.1.1 4.1-2.5 4-5.4-.1-9.9 0-19.8-.2-29.6-.1-2.9.2-6.5-3.1-7.8-3.8-1.5-6.6 1-8.9 3.7-4.3 5-7.2 10.5-6.9 17.4.2 4.8 0 9.6.1 14.5 0 3.4-1.3 7.8 4.8 7.5 1.1 0 2.1.9 2.1 2.3-.1 1.6-1.1 2.7-2.5 2.7-4.8.1-9.6.1-14.5 0-1.5 0-2.5-.9-2.6-2.6-.1-1.8 1-2.7 2.5-2.6 4.4.2 4.6-2.4 4.5-5.8-.1-10.1-.1-20.2-.1-30.3 0-2.9-.1-5.8-3.2-6.9-2.9-1.1-5.4.5-7.4 2.5-5.1 4.9-8.7 10.5-8.4 18.1.2 5 0 10.1.1 15.2 0 3.5-1.2 7.8 4.9 7.4 1.6-.1 2.3 1.3 2.1 2.9-.2 1.7-1.5 2.3-2.9 2.3-4.6.1-9.2.1-13.8 0-1.5 0-2.8-.9-3-2.3-.3-2 1.2-3.1 2.9-3 4.7.3 4.2-2.9 4.2-5.9 0-10.3-.1-20.7 0-31 0-3.2.3-6-4.3-5.9-1.6.1-3.3-.9-2.9-3 .3-1.4 1.5-2.1 3-2.4 6.6-1.9 9-.1 9.7 8.2zM1024.8 511.8c4.1-4.4 7.8-9.1 13.4-11.8 11.9-5.9 21.6-.7 22.2 12.4.4 9.4.3 18.8.1 28.3-.1 4.1.3 6.7 5.4 6 2.1-.3 5.4-.6 5.5 2.5 0 3.5-3.3 3-5.8 3h-16.5c-2 0-4.5.4-4.7-2.6-.2-3 2.4-3.2 4.4-2.9 5.1.7 6.1-1.6 6-6.2-.3-8.9.1-17.9-.2-26.9-.3-9.2-5.6-12.6-13.7-8.5-10.5 5.4-18.2 13.2-17.3 26.4.2 2.5.2 5.1 0 7.6-.5 5.1.2 8.7 6.7 7.6 1.8-.3 4 0 4.1 2.5.1 3-2.2 3-4.3 3h-18.6c-2 0-4.6.3-4.8-2.6-.3-3.1 2.5-3.2 4.4-2.9 6.2.9 6.5-2.6 6.4-7.3-.2-9.6-.2-19.3 0-28.9.1-4-.4-6.7-5.5-6.2-2.2.2-5.9.8-5.8-2.8.1-3.5 3.5-2.8 5.9-2.9h2.1c9.3 0 9.3 0 9.6 9.4-.3 1.3-1.4 3.2 1 3.8zM1529.8 546.1c-.7 2.5-1.1 4.2-1.8 5.9-.4 1.1-1.1 2-2.5 1.9-1.8-.1-2.1-1.5-2.1-2.9-.1-5.1-.1-10.1 0-15.2 0-1.5-.4-3.6 1.5-4.2 2.5-.8 3.1 1.7 3.7 3.2 3.6 8.6 10.6 12.3 19.3 13.3 4 .5 7.7-.5 11.2-2.6 3.2-1.9 5-4.7 4.6-8.6-.3-3.9-2.5-6.5-6.1-7.5-5.1-1.4-10.3-2.1-15.5-3.2-3.4-.7-6.8-1.2-10-2.4-4.7-1.8-8.3-4.8-8.8-10.4-.5-6 2-10.4 7-13.2 8.4-4.6 16.9-3.8 24.9.9 3.1 1.8 5.1 2.9 6.1-1.7.3-1.3.9-2.9 2.7-2.6 1.9.3 2.5 2 2.5 3.7.1 4.6.1 9.2 0 13.8 0 1.4-.4 2.8-2.1 3-1.7.2-2.2-1.1-2.9-2.3-4.2-7.6-10.3-12.1-19.3-12.4-3.8-.1-7.4.6-10.3 3-4.7 3.8-4 9.4 1.5 12.1 4.4 2.2 9.3 2.3 14 3.1 3.8.7 7.7 1.2 11.4 2.4 6.9 2.3 10.8 7.9 10.6 14.5-.2 6.4-4.5 11.9-11.2 14.2-10.2 3.5-19.4 1.2-28.4-5.8zM1983.9 512c0 9.2.4 18.4-.1 27.6-.3 6 1.9 7.6 7.4 7 4.1-.4 8.3-.1 12.4 0 1.7 0 3.3.4 3.5 2.5.2 2.5-1.5 3.1-3.6 3.1H1958c-1.8 0-3.4-.8-3.5-2.6-.2-2.3 1.6-3 3.7-3 5.1 0 10.1-.2 15.2 0 3.2.1 4.4-.9 4.4-4.3-.1-18.4-.2-36.8 0-55.2 0-4-1.7-4.4-5-4.3-5.7.2-11.5 0-17.2 0-1.9 0-3.9-.2-3.9-2.8 0-2.5 1.9-2.9 3.8-2.9h24.8c4 0 3.6 2.6 3.6 5.2V512zM1836 546.2c4.2-12.7 8.4-25.4 12.7-38.1 1.3-3.9-1.1-3.5-3.5-3.7-2.3-.2-5.9.8-6-2.8-.1-4.1 3.7-3.2 6.3-3.2 5.5-.1 11 0 16.5 0 2.2 0 4.5.4 4.8 2.9.4 3-2.4 3.3-4.3 3-6-.9-7.6 2.7-9.2 7.5-4.2 12.6-8.8 25.1-13.1 37.6-.9 2.6-1.6 4.3-5 4.3s-4.3-1.6-5.2-4.2c-4.6-12.9-9.5-25.8-14-38.8-1.4-4-2.9-7.1-8-6.5-1.8.2-4.6.4-4.7-2.6-.1-3.3 2.7-3.2 5-3.2h18.6c2 0 3.8.7 4 3 .2 2.6-2.3 3-3.9 2.9-7.2-.8-6.5 2.4-4.6 7.5 4.2 11.4 8 22.9 11.9 34.4h1.7zM812.9 523.8v-5.5c0-4.1 1.2-8.9-.5-12.2-2.1-4.2-7.5-.3-11.3-1.7-1.7-.7-4.9.4-4.8-2.6.1-2.8 2.9-2.9 5.3-3.2 9.3-1.1 11.2-3.2 11.5-12.7v-2.1c.1-2.7-.3-6.5 3.3-6.5 3.9 0 2.8 4.1 2.8 6.6.4 14.2.3 14.2 14.8 14.5 1.4 0 2.8 0 4.1.3 1.5.3 2.4 1.4 2.4 2.9 0 1.8-1.4 2.3-2.8 2.3-4.6.2-9.2.4-13.8.2-3.7-.2-5.4.7-5.3 4.9.3 9-.1 17.9.2 26.9.3 7.8 3.6 11.5 9.8 11.8 6.5.4 10.2-3.2 11.6-11 .4-2.2-.7-6 3.4-5.3 3.5.6 2.3 4.1 2.1 6.3-.5 9.5-7.9 16-17.5 15.6-9.6-.4-15.1-6-15.3-15.8-.1-4.5 0-9.1 0-13.7zM2290.5 504.1c-13.4-.7-23.8 8.6-24 20.8-.1 5.3.3 10.6-.1 15.8-.4 5.1 1.6 6.4 6.3 6 2.5-.3 5 0 7.6.1 1.4.1 2.7.7 2.7 2.5 0 1.6-1 2.7-2.5 2.7-11 .1-22 .1-33.1.1-1.8 0-3.1-1.1-2.9-3.1.1-1.6 1.4-2.2 3-2.3.9 0 1.8-.1 2.8-.1 10.3-.4 10.3-.4 10.3-10.5 0-9-.2-17.9.1-26.9.1-4-1.2-5.4-5.1-4.9-2.3.3-4.6.1-6.9-.1-1.5-.1-3.5-.2-3.5-2.5 0-2.4 1.7-3.1 3.7-3.1 4.1-.1 8.3.2 12.4-.1 4.1-.3 5.4 1.4 5 5.2-.2 1.6 0 3.2 0 5.2 3-.3 4.2-2.8 5.9-4.2 5.1-4.2 10.6-7 17.6-6.4 6.1.5 8.5 4.8 10.5 9.3 1.1 2.7-.2 5.5-2.5 7.4-1.5 1.3-3.5 1.5-5.2.6-2.7-1.5-3.4-4.1-3-7.1-.1-1.4.4-2.7.9-4.4zM22.6 552.2H4c-1.9 0-3.9-.2-4-2.7-.1-2.7 2.2-2.7 3.9-2.8 4.1-.2 8.3-.2 12.4-.1 3 .1 4-1.1 3.9-4-.1-18.6-.1-37.2 0-55.8 0-3.6-1.6-4.2-4.6-4.1-3.9.2-7.8 0-11.7 0-1.9 0-3.9-.2-3.8-2.9.1-2.1 1.6-2.6 3.3-2.6 13.3 0 26.6 0 39.9.1 1.7 0 3.3.6 3.2 2.7-.1 2.1-1.6 2.6-3.4 2.6-4.1.1-8.3.2-12.4 0-3.5-.2-4.8.8-4.8 4.5.2 18.4.1 36.7 0 55.1 0 3.3 1 4.6 4.4 4.4 3.4-.2 6.9-.1 10.3 0 2.1.1 5.4-.7 5.5 2.5 0 3.6-3.4 2.9-5.8 3-5.8.1-11.8.1-17.7.1zM731.6 525.6c.2 3 .4 5.9 1.5 8.8 2.8 7.3 7.6 11.9 15.4 13 8.2 1.2 14.3-2.1 18.3-9.3 1.3-2.2 2.7-5.1 5.6-3.2 2.5 1.7.4 4.2-.5 6.1-6.2 12.5-24.4 16.5-36.4 7.6-8.8-6.6-11.1-16.1-10.1-26.4 1-10.4 5.4-19.1 16-22.9 9.5-3.3 18.6-2.4 26.4 4.6 3.3 3 4.6 6.7 3.9 11.2-.4 2.8-1.8 4.8-4.3 5.7-2.4.8-4.4.2-6.1-1.9-1.9-2.4-3-5.2-1.1-7.6 5.1-6.2-.6-6.8-4.1-7.6-13.5-3.2-24.6 6.7-24.5 21.9zM1476.5 512c0 9.7.2 19.3-.1 29-.2 4.6 1.4 6.1 5.9 5.8 4.3-.3 8.7-.1 13.1 0 2 0 4.5-.2 4.4 2.9-.1 2.6-2.2 2.6-4.1 2.6h-44.1c-2.2 0-4.6-.2-4.5-3 .1-2.8 2.8-2.6 4.8-2.6 4.8-.1 9.7-.1 14.5 0 3 .1 4.1-1.1 4.1-4-.1-18.6-.1-37.2 0-55.9 0-3.7-1.8-4-4.7-3.9-5.7.1-11.5 0-17.2 0-1.8 0-4 .1-4.1-2.5-.2-3 2.1-3.1 4.2-3.1 7.6 0 15.2.1 22.8-.1 3.9-.1 5.2 1.3 5.1 5.2-.2 9.8-.1 19.7-.1 29.6zM1403.9 523.4c0 6.2.2 12.4-.1 18.6-.2 3.8 1.3 4.8 4.8 4.6 3.7-.2 7.3 0 11 .1 1.4.1 2.8.6 2.9 2.4.1 2-1.1 3-2.9 3.1h-38.5c-1.5 0-2.7-1.1-2.8-2.5-.2-1.9 1.4-2.9 3.1-2.9 3.9-.1 7.8-.3 11.7-.1 3.4.2 5-.6 4.9-4.5-.2-11-.2-22 0-33 .1-3.8-1.4-4.6-4.8-4.5-4.1.1-8.2-.2-12.4-.4-1.6-.1-3.4-.6-3.3-2.7.1-1.5 1.4-2.6 2.8-2.7 7.1-.2 14.2-.3 21.3-.1 3 .1 2.4 2.8 2.5 4.8-.1 6.5-.2 13.2-.2 19.8zM562.3 546.7c-6.7-1-7.1-6.1-7.7-11.2-.8-6-2.3-11.9-6.7-16.2-3.2-3.1-2.5-4.3 1.1-6.1 7.5-3.7 10.1-10.3 9.2-18.3-.9-8.1-5.3-13.2-13.1-16-8.1-2.9-16.4-.8-23.1-1.6-7.2 0-12.9-.1-18.7 0-2.3.1-5.8-.9-5.8 2.9 0 3.3 3.3 2.4 5.4 2.6.5 0 .9.1 1.4 0 5.1-.9 6.6 1 6.5 6.3-.4 16.3-.4 32.6 0 48.9.2 6.4-.7 10.1-8.3 8.7-1.9-.3-4.7-.3-4.6 2.6 0 2.7 2.5 2.8 4.6 2.8 7.1 0 14.2.1 21.4 0 2.5 0 6.5 1.3 6.6-2.7 0-4.1-4.1-2.4-6.5-2.8-.7-.1-1.4-.1-2.1 0-3.8.5-5.3-.9-5.1-4.9.3-6.6.1-13.3.1-20 0-1.7-.4-3.6 2.1-4.5 12.3-4.5 24.5 1.5 28.6 14.1 1.2 3.6 1.3 7.2 1.6 10.9.8 9.4 3.3 11.4 12.2 10 1.4-.2 2.8-.4 3.2-2 .5-1.9-.5-3.2-2.3-3.5zm-22.1-35.8c-6.6.7-13.3.3-19.9.5-2.9.1-3.4-1.5-3.4-3.9.1-3.7 0-7.4 0-11 0-13.7 0-13.8 13.5-13.7 4.1 0 8.2-.5 12.2 1.1 6.9 2.7 10.1 7.3 9.7 14.1-.4 6.7-5 12.2-12.1 12.9zM1287 546.7c-6.7-1-7.1-6.1-7.7-11.2-.7-6.1-2.3-11.9-6.7-16.2-3.3-3.2-2.3-4.4 1.2-6.2 7.6-3.8 10-10.4 9.1-18.4-.9-8.1-5.4-13.2-13.2-15.9-7.9-2.8-16-.8-22.5-1.5h-20.1c-2 0-4.7-.3-4.8 2.6-.2 3.5 2.9 2.8 5 3 .7.1 1.4.1 2.1 0 4.8-.8 6.2 1.1 6.2 6-.3 16.5-.4 33.1 0 49.7.2 6.5-1.3 9.4-8.1 8.3-1.9-.3-4.7-.4-4.8 2.4-.1 3.2 2.8 3 5.1 3h22.8c2.1 0 4.6.1 4.8-2.6.2-2.8-2.4-2.9-4.5-2.9-1.4 0-2.8-.2-4.1 0-3.8.4-5.4-.8-5.2-4.9.3-6.7.1-13.3.1-20 0-1.7-.4-3.6 2.1-4.5 12.4-4.6 24.7 1.5 28.6 14.1 1.1 3.6 1.3 7.2 1.6 10.9.8 9.5 3.3 11.4 12.3 9.9 1.4-.2 2.8-.4 3.2-2 .3-2-.7-3.3-2.5-3.6zm-21.3-35.9c-3.8.7-7.8.6-11.7.8-12.5-.2-12.7-.2-12.4-10.2.2-6.1-3-14.8 1.5-17.6 5.7-3.5 14.3-1.5 21.6-.6 7.4.9 12.3 6.7 12.4 13.4.2 7-4.3 12.9-11.4 14.2zM2150.9 512.2c-4.4-10.4-12.9-15.5-23.3-14.3-5.7.7-9 4.9-13.8 9.1 1.7-9.7-4.1-9.1-9.8-8.7-2.1.1-4.1 0-6.2 0-2.2.1-4.4.5-4.3 3.3.1 2.6 2.6 2.1 4.3 2.3 1.1.1 2.3.2 3.4 0 5-.8 6.1 1.5 6.1 6.2-.3 15.9-.2 31.7 0 47.6.1 6.1.6 11.8-8.4 10.1-1.5-.3-3.4.5-3.2 2.6.1 1.6 1.4 2.5 2.8 2.5 8.3.1 16.6 0 24.8-.1 1.5 0 2.7-.9 2.7-2.5.1-2.2-1.5-2.6-3.2-2.7-1.8-.1-3.7-.2-5.5-.1-2.5.1-3.9-.7-3.8-3.5.1-6.4 0-12.7 0-20.6 11.7 11.4 22.5 12.3 31.5 3.8 8.4-7.5 10.9-23 5.9-35zm-6.8 26.7c-5.4 10.2-18.3 11.6-25.7 2.6-6.2-7.4-6.4-23.3-.4-31.1 4.3-5.5 10-8.5 16.8-6.6 7.8 2.2 10.5 8.9 11.9 16.2.3 1.8.1 3.7.1 4.5.5 5.9-.5 10.3-2.7 14.4zM1719 546.9c-1.4 0-2.8-.2-4.1 0-5.3.9-6.5-1.5-6.4-6.5.3-16.1.1-32.2.1-48.2 0-16.4-.5-16.8-17.2-14.8-2 .2-3.8.4-3.8 2.9 0 2.6 2.1 2.3 3.9 2.7 3.7.8 8.8-2 10.8 1.6 1.6 3 .4 7.6.5 11.5v10.6c-14.1-12.1-26.6-11.4-35.2 1.2-7.4 10.9-6.7 27.7 1.7 38.1 7.5 9.2 21.4 9.8 29.7 1.2 1-1 1.3-3.3 3.8-2.2-1.5 6.4 1.7 8 7.5 7.2 2.9-.4 6-.1 9-.1 1.9 0 4.1-.1 4.2-2.4.1-3-2.5-2.8-4.5-2.8zm-16.7-20.1c-.5 11.3-6.3 19.4-14.6 20.6-9.6 1.3-17.2-5.7-18.7-17.6-.2-1.6 0-3.2 0-4.8 0-6.7 2-12.6 6.8-17.4 3.7-3.8 8.3-4.8 13.3-3.8 7.8 1.4 13.7 11.7 13.2 23zM198.6 537.8c-3.2-.6-2.9 2.7-3.3 4.8-.5 2.7-1.7 4.9-4.9 4.7-3.2-.1-4.1-2.6-4.5-5.2-.3-1.8-.3-3.7-.3-5.5-.1-7.6 0-15.2-.1-22.8-.1-7.6-3.9-12.7-11.1-14.8-8.4-2.4-16.8-2.1-24.8 1.9-3.8 2-6.5 5-6.3 9.8.2 4.1 2.7 6 6.2 5.9 3.7-.2 6.2-3.1 4.8-6.7-2.4-6.3 1.3-6.5 5.6-6.5 3 0 6-.2 9 .1 5.5.5 10.1 3 10.4 9 .3 6.5-5.1 7.6-9.9 8.2-5.7.7-11.4.6-17.1 1.9-7.7 1.8-12.1 6.8-12.3 14.4-.2 8.1 3.8 13.3 11.9 15.4 10.8 2.7 19.3-1.6 27.6-9.3 1.6 7.2 5.1 10.9 11.9 9.9 5.4-.8 8.8-3.7 9.3-9.4 0-2.1.7-5.3-2.1-5.8zm-42.2 9.8c-5.9-.2-10.8-4.2-11-9.2-.2-5.8 3.4-8.6 8.5-10.2 8.1-2.4 17-1.1 25.2-5.2 1.5 14.9-8.2 25.1-22.7 24.6zM1357.8 537.7c-2.7-.3-2.7 2.5-2.9 4.5-.3 2.8-1.4 5-4.5 5.1-3.6.1-4.6-2.6-5.1-5.4-.3-1.8-.2-3.7-.2-5.5-.1-7.6.2-15.2-.2-22.8-.4-8.4-4.5-13.4-12.6-15.1-7.5-1.6-15.2-1.5-22.3 2-4.3 2.1-7.7 5.1-7.2 10.6.3 4 3 5.8 6.5 5.4 3.4-.3 5.8-3.1 4.5-6.3-2.8-6.8 1.5-6.8 5.9-6.9 2.8-.1 5.5-.1 8.3.1 6.4.5 11.2 4.5 10.8 9.4-.4 6.4-5.6 7.4-10.4 7.9-5.7.6-11.5.6-17.1 1.9-7.6 1.8-11.8 7-11.9 14.7-.1 7.9 3.8 12.9 11.6 14.9 10.7 2.8 19.3-1.2 27.6-9.1.8 1.8 1.2 2.8 1.6 3.9 1.9 5.3 6 6.6 11 5.8 5.5-.8 8.5-4.3 9-9.7.3-2.1.7-5.1-2.4-5.4zm-42.6 9.9c-5.9-.5-9.5-3.6-10.1-9.3-.6-5.4 2.9-8.7 7.8-9.8 4.9-1.2 10-1.4 14.9-2.3 3.5-.6 7-1.7 11-2.6 1.6 14.4-9 25.1-23.6 24zM996.1 537.9c-3.2-.7-3.4 2.2-3.6 4.5-.3 2.8-1.4 5-4.6 5-3.2 0-4.2-2.4-4.7-5-.3-1.8-.3-3.6-.4-5.5-.1-7.6.1-15.2-.1-22.8-.3-8.4-4.1-13.6-12.1-15.4-7.9-1.9-16-1.7-23.5 2.2-3.9 2-6.5 4.9-6.4 9.8.1 4.1 2.4 6.1 6 6 3.9-.2 6.1-3.2 4.8-6.7-2.5-6.5 1.5-6.4 5.7-6.5 3-.1 6-.2 9 .1 5.6.5 10.1 3.1 10.4 9 .4 6.4-5.2 7.6-10 8.2-5.4.7-11 .6-16.4 1.8-8.5 1.9-13.1 7-13.1 15.1 0 7.8 4.3 12.9 12.6 14.9 10.5 2.5 18.8-1.9 26.9-9.4 1.7 7.3 5.3 11 12.4 9.8 5.4-.9 8.6-4.2 9-9.7 0-2.1.5-4.9-1.9-5.4zm-41.7 9.7c-6 0-10.3-2.5-11.6-8.6-1.1-5.1 2.6-9.3 9-11 8.1-2.2 16.9-.9 24.8-5.1 1 14.9-8.1 24.7-22.2 24.7zM705.6 537.8c-2.7-.3-2.8 2.4-3 4.5-.3 2.8-1.3 5-4.5 5.1-3.7.1-4.4-2.8-4.9-5.6-.3-1.8-.2-3.7-.2-5.5 0-7.4.1-14.7-.1-22.1-.3-8.4-4.1-13.6-12.1-15.5-7.9-1.9-16-1.7-23.5 2.2-3.9 2-6.5 4.9-6.4 9.7.1 4 2.3 6.2 5.9 6.1 3.9-.1 6.2-3.2 4.9-6.6-2.4-6.4 1.3-6.5 5.6-6.6 3-.1 6-.1 9 .1 5.6.5 10.1 3.1 10.5 9 .4 6.4-5.1 7.6-9.9 8.2-5.7.7-11.4.6-17.1 1.9-7.7 1.8-12.2 6.8-12.4 14.3-.3 8 3.8 13.3 11.8 15.4 10.7 2.8 19.3-1.4 27.8-9.3 1.4 7.5 5.2 11.1 12.3 10 5.5-.9 8.6-4.1 9-9.7-.2-2.3.5-5.3-2.7-5.6zm-42.3 9.8c-5.8-.4-9.7-3.3-10.4-9.1-.7-5.8 3.1-8.8 8.1-10.3 8.3-2.5 17.4-1 25.5-5.2 1.5 14.9-8.7 25.5-23.2 24.6zM416 537.7c-1.9-.2-2.9 1.1-3.1 2.9-.3 3.3-.6 7.1-5.1 6.6-4.9-.6-4.6-5-4.7-8.6-.2-8 0-16.1-.1-24.1-.1-7.5-3.4-12.8-10.7-15.1-8.9-2.8-17.7-2.4-26 2.2-3.6 2-5.8 5.1-5.4 9.6.3 4.1 2.8 5.9 6.4 5.6 3.5-.3 5.7-3.2 4.5-6.4-2.6-6.8 1.5-6.8 6-6.9 2.8-.1 5.5-.1 8.3.1 6.3.5 11.2 4.6 10.8 9.4-.5 6.3-5.7 7.4-10.5 7.9-5.7.6-11.5.6-17.1 1.9-7.3 1.7-11.7 6.8-12 14-.5 10.8 8.3 17.8 20.4 16.5 7.4-.8 13.2-4.8 18.9-9.8.6 1.5.9 2.5 1.3 3.5 2.2 5.9 6.7 7 12.3 5.8 5.9-1.4 8-5.6 8-11.2 0-1.8-.3-3.6-2.2-3.9zm-42.1 9.9c-5.8-.2-9.9-2.9-10.8-8.6-1-6.1 2.9-9.3 8.3-10.8 8.1-2.3 17-1.1 25.4-5.2 1.1 15-8.7 25.1-22.9 24.6zM590.5 525.8c5 .4 10.1.1 15.2.1h17.2c2 0 4 .5 4.4-2.8 1.3-10.6-8.4-23.4-19.3-25.1-9.6-1.5-18 .9-23.8 9-7.1 9.9-8 20.8-3 31.9 7.7 17 30.3 19.8 42 5.4 2-2.4 5.3-5.9 2.5-8.3-3.8-3.2-4.9 2.1-6.7 4.3-5.3 6.5-12.6 9.1-20.9 6.5-7.1-2.2-11.6-7.1-13.1-14.6-.8-4.3.1-6.8 5.5-6.4zm-4.8-9.2c1.5-7.7 8.4-13.3 16.8-13.3 9.3-.1 15.8 4.9 17.7 13 .8 3.4-.2 4-3.1 3.9-4.6-.1-9.2 0-13.7 0H589c-2.5 0-3.9-.5-3.3-3.6zM1778.2 541c-5.7 6.6-12.7 7.8-20.6 5.9-6.7-1.6-12.1-8.5-13.1-15.4-.6-4 .2-6.1 4.8-5.8 5.3.3 10.6.1 15.8.1h17.2c2.4 0 4.3 0 4.5-3.5.5-12.9-10.5-24.7-23.4-24.8-19.6-.1-31.3 20.6-23 40.7 7 16.7 29.6 20.6 41.5 7 2.3-2.6 6.5-6.5 3.3-9.3-4-3.2-5.1 3-7 5.1zm-32.9-24.5c1.6-7.6 8.1-13 16.2-13.2 9.4-.2 16 4.4 18.2 12.4.9 3.1.7 4.7-3.2 4.5-4.6-.2-9.1-.1-13.7-.1-4.8 0-9.6-.1-14.4 0-2.6.2-3.7-.7-3.1-3.6zM1894 525.9c5.5.3 11 .1 16.5.1h17.2c2.2 0 3.8-.2 4-3.2.8-11.1-8.7-23.2-19.7-24.7-9.6-1.3-18 1.2-23.6 9.4-6.8 9.8-7.5 20.4-2.8 31.4 7 16.6 29.9 20.1 41.5 6.4 2.2-2.6 6.4-6.4 2.8-9.3-3.4-2.8-4.7 2.8-6.6 5-5.4 6.2-13.3 8.7-21.1 6.2-6.5-2-11.9-8.9-12.8-15.8-.5-4 .4-5.7 4.6-5.5zm-3.7-9.5c1.6-7.6 8-13 16.2-13.1 9.4-.2 16 4.5 18.1 12.4.8 3.2.6 4.7-3.2 4.5-4.6-.2-9.1-.1-13.7-.1h-14.4c-2.5.1-3.6-.8-3-3.7zM2220 535.9c-3.7-2.9-4.9 2.6-6.7 4.8-5.5 6.8-12.4 8.2-20.4 6.4-6.7-1.5-12.2-8-13.5-15-.8-4.2-.1-6.6 5-6.2 5.3.4 10.6.1 15.8.1h17.2c2.7 0 4.1-.5 4.2-3.8.3-13.3-11.1-24.9-24.4-24.5-19.2.6-30.2 21.1-21.9 40.9 7.1 16.9 30.5 20.3 42 6.1 2.1-2.5 6-6.2 2.7-8.8zm-39.9-19.3c1.4-7.5 8.1-13.1 16.2-13.3 9.4-.2 16.2 4.7 18.2 12.6.9 3.6-.2 4.5-3.6 4.3-4.6-.2-9.2 0-13.8-.1h-13.8c-2.4.1-3.7-.5-3.2-3.5zM2056.3 498c-13.1-1.7-24.4 7.1-26.8 20.9-2.9 16.2 4.7 30.7 17.6 33.6 16.3 3.7 29.6-8.3 29.8-26.9.1-14.6-8.3-26-20.6-27.6zm2 49c-8 2.6-16.3-.8-20.3-8.6-3.4-6.6-4.3-13.4-2-20.6 3.2-9.9 9.8-15 19.1-14.2 7.6.6 14.8 8.6 15.8 17.6.2 1.4 0 2.8 0 4.1.1 10.5-4.9 19.2-12.6 21.7zM1404.6 474.6c0 4.5-3.6 8.1-8.1 8.1s-8.1-3.6-8.1-8.1 3.6-8.1 8.1-8.1 8.1 3.6 8.1 8.1zM1139.2 546.9c-1.1 0-2.3-.2-3.4 0-5.9 1-7.2-1.5-7.1-7.2.4-18.9.2-37.7.1-56.6 0-2.1 1.6-5.6-2.7-5.7-5.1-.2-10.1 0-15.2 0-1.9 0-3.1.9-3.1 2.9 0 2.2 1.6 2.5 3.3 2.6 2.8.1 5.5.2 8.3.1 2.6-.1 3.7.8 3.6 3.6-.1 6.5 0 13 0 21-5.5-6-10.3-10.1-17.4-9.8-12.2.5-21.7 11-22.9 25.8-1.2 15.2 7.7 27.8 20.6 29.5 8.1 1.1 13.9-2.9 20-9.9-3 10.8 3.6 9 8.7 9h7.6c1.9 0 4.1-.2 4.2-2.5 0-3-2.5-2.8-4.6-2.8zm-17.9-12.3c-2.4 8-8.6 13-15.8 12.9-7.2 0-12.3-4.4-15-12.8-2.6-8-2.2-15.9 2.2-23.2 6.8-11.2 20-11 26.6.3 2.6 4.5 3.2 9.5 3.3 15.3-.4 2.1-.5 4.9-1.3 7.5z"/></g></svg>