<svg id="Layer_1" xmlns="http://www.w3.org/2000/svg" viewBox="3 0 71 71"><path fill="#434440" d="M71.1 18.1l-12.9-15L55.7 0H24.9c-4.1 0-7.4 3.3-7.4 7.4v9.5H22V9.3c.1-2.4 2-4.3 4.3-4.3h26.2v12.4c0 4.5 3.8 8.3 8.3 8.3h9.1l-.5 35.7c0 2.4-1.9 4.1-4.3 4.3H25.9c-2.1 0-3.8-2.1-3.8-4.5v-3.1h-4.5v4.5c0 4.5 3.1 8.3 6.7 8.3h42.4c4.1 0 7.4-3.3 7.4-7.4V21.4l-3-3.3"/><path fill="#EA4C3A" d="M50.9 60.5H3v-46h47.9v46M7.5 55.8h38.8V19.3H7.5"/><path fill="none" stroke="#EA4C3A" stroke-width=".75" stroke-linejoin="round" stroke-miterlimit="10" d="M27.5 21.7c.7.2.5.7.2 2.9-.2 2.1-1 6.2-2.4 10s-3.6 7.6-5.5 10.5c-1.9 2.9-3.6 4.5-4.8 5.7-1.2 1-2.1 1.4-2.6 1.4s-.7 0-1-.2c-.2-.2-.2-.7 0-1.4.2-.5.5-1.2 1.2-2.1 1-1 2.4-1.9 4.3-2.9s4.5-1.9 6.7-2.4c2.1-.5 3.8-1 5-1.2 1.4-.2 2.6-.5 3.8-.5H36c1.2 0 2.1.2 3.1.5 1 .2 1.7.5 2.4 1s1.4 1 1.7 1.7c.2.7.2 1.4 0 1.9s-.7 1-1.4 1c-.5.2-1.2.2-2.1 0-.7-.4-1.7-.9-2.6-1.6-1-.7-1.9-1.4-3.3-2.9-1.4-1.4-2.9-3.1-4.3-4.8s-2.4-3.3-3.3-4.8c-.7-1.4-1.2-2.6-1.4-3.8 0-1.2-.2-2.4-.2-3.3v-2.6c0-.7.2-1.4.5-1.7.2-.5.7-.7 1-.7h1s.2 0 .4.3"/></svg>