<svg id="Capa_1" xmlns="http://www.w3.org/2000/svg" viewBox="0 0.1 100 99.8"><path d="M97.8 79L82.3 63.6c-3.1-3.1-8.2-3-11.4.2l-7.8 7.8-1.5-.9C56.7 68 50 64.3 42.9 57.2S32.1 43.4 29.3 38.5c-.3-.5-.6-1-.8-1.5l5.2-5.2 2.6-2.6c3.2-3.2 3.3-8.3.2-11.4L21.1 2.4c-3.1-3.1-8.2-3-11.4.2L5.4 6.9l.1.1C4 8.9 2.8 11 1.9 13.3 1.1 15.5.5 17.6.3 19.7c-2 17 5.7 32.5 26.7 53.4 29 29 52.3 26.8 53.3 26.7 2.2-.3 4.3-.8 6.4-1.6 2.3-.9 4.4-2.1 6.3-3.6l.1.1 4.4-4.3c3.2-3.2 3.3-8.3.3-11.4zm-3.7 8l-1.9 1.9-.8.7c-1.2 1.2-3.3 2.8-6.4 4-1.7.7-3.5 1.1-5.2 1.3-.2 0-22.2 1.9-49.4-25.3C7.3 46.6 3.6 33.3 5.1 20.4c.2-1.7.6-3.4 1.3-5.2 1.2-3.1 2.9-5.2 4-6.4L13.2 6c1.3-1.3 3.3-1.4 4.5-.2l15.4 15.4c1.2 1.2 1.1 3.2-.2 4.5L22.5 36.2l1 1.6c.5.9 1.1 1.9 1.7 3C28 46 31.9 53 39.5 60.6c7.6 7.6 14.6 11.5 19.8 14.3 1.1.6 2.1 1.2 3 1.7l1.6 1 10.4-10.4c1.3-1.3 3.3-1.4 4.5-.2l15.4 15.4c1.3 1.2 1.2 3.3-.1 4.6z"/></svg>