<svg id="progress-bar" xmlns="http://www.w3.org/2000/svg" viewBox="0 0 1002 136.6"><path fill="#F24141" d="M13 134.8h-1c-5.8 0-10.5-4.7-10.5-10.5v-113C1.5 5.5 6.2.8 12 .8h1c5.8 0 10.5 4.7 10.5 10.5v113c0 5.8-4.7 10.5-10.5 10.5z"/><path id="bar" fill="none" stroke="#000" stroke-width="2" stroke-miterlimit="10" d="M989.1 135.6H12.9c-6.6 0-11.9-5.3-11.9-11.9V12.9C1 6.3 6.3 1 12.9 1H989c6.6 0 11.9 5.3 11.9 11.9v110.7c.1 6.7-5.2 12-11.8 12z"/><path id="progress" fill="#F24141" d="M13.5 1.8h10v133h-10z"/></svg>