<svg xmlns="http://www.w3.org/2000/svg" viewBox="0 0 369.3 159.3" id="rob-svg"><g fill="none" stroke="#5AA0B0" stroke-width="6" stroke-linejoin="round" stroke-miterlimit="10"><path d="M3 5.3v149h30.7V105c2.3-2 15-2.2 16.7-.8l18 50.1H101S81.4 97.5 81.4 95.8s19.6-16.9 19.6-44S79.2 5.3 61.6 5.3H3z"/><path d="M19.3 154.3V87.9h25.5l5.5 16.3M36.2 103.9c-3.1-1-15.4-14-15.6-16"/><path d="M83.6 154.3L61.8 87.9s23.8-7.5 23.8-36.2-25.3-32.2-41-32.2H19.3v52.8h37c5.3 0 13.3-5.8 13.3-16S64.4 36.4 52 36.4H34.8l-15.5-17M34.8 72.2V36.4M87.8 87.9L77 77.1"/></g><g fill="none" stroke="#5AA0B0" stroke-width="6" stroke-linejoin="round" stroke-miterlimit="10"><path d="M181 126.7h-.3c-9.5 0-17.2-7.7-17.2-17.2V50.2c0-9.5 7.7-17.2 17.2-17.2h.3c9.5 0 17.2 7.7 17.2 17.2v59.3c0 9.6-7.7 17.2-17.2 17.2z"/><path d="M181.7 141.1h-.7c-18.4 0-33.3-14.9-33.3-33.3V51.6c0-18.4 14.9-33.3 33.3-33.3h.7c18.4 0 33.3 14.9 33.3 33.3v56.2c0 18.4-14.9 33.3-33.3 33.3z"/><path d="M181.7 156.3h-1c-27.1 0-49-21.9-49-49V52c0-27.1 21.9-49 49-49h1c27.1 0 49 21.9 49 49v55.3c0 27.1-22 49-49 49zM156.9 28.6l10.7 10.6M204.8 131.7l11.5 10.2"/></g><g fill="none" stroke="#5AA0B0" stroke-width="6" stroke-linejoin="round" stroke-miterlimit="10"><path d="M267.7 5.9h51.7c18.3 0 36 18.7 36 38s-3.7 26.3-3.7 26.3c10.3 10.2 16.6 16.5 14 43-1.3 13.5-14 41.7-47.3 41.7h-50.7V5.9z"/><path d="M267.7 19.4H317c2.4 0 22.9 5.5 22.9 26.5s-13 26.5-13 26.5h-43.5v-36s32.1-.6 33.6 0c2 .8 8.1 4 8.1 13.5 0 8.9-9.2 6.6-26.5 6.6v-20M283.3 72.4l15.1-15.8M351.7 70.3L343 81.6s8.3 7.3 8.3 28.7-22.7 30.2-38.7 30.2h-27.8V87.3h35.8s15 1.5 15 17.8c0 0 1 19.2-19.2 19.2s-16.9.1-16.9.1M299.6 123.5V88.2M299.6 123.6V88M299.6 123.7V87.4M299.6 123.8V87.5M299.6 123.9V87.6M299.6 124V87.7M299.6 124.1V87.8M299.6 124.2V87.9M299.6 124.1l-15.8 17M342.3 129.9l9.9 11.2"/></g></svg>