<svg xmlns="http://www.w3.org/2000/svg" id="Capa_1" viewBox="0 0 23.48 23.48"><path d="M13.008 23.247h-2.434c-.464 0-.598 0-1.862-3.128l-.843-.343c-2.598 1.179-2.91 1.179-3.044 1.179a.722.722 0 0 1-.486-.196l-1.721-1.685c-.343-.338-.431-.425.934-3.521l-.34-.803C0 13.601 0 13.462 0 12.981v-2.385c0-.477 0-.599 3.201-1.838l.34-.805C2.1 4.916 2.199 4.818 2.545 4.477l1.724-1.685a.732.732 0 0 1 .484-.193c.125 0 .45 0 3.092 1.115l.838-.341C9.858.232 10.007.232 10.472.232h2.434c.463 0 .598 0 1.861 3.13l.842.34c2.596-1.176 2.908-1.176 3.044-1.176a.73.73 0 0 1 .484.192l1.725 1.683c.336.331.431.425-.934 3.523l.339.808c3.213 1.147 3.213 1.285 3.213 1.764v2.384c0 .478-.001.601-3.203 1.841l-.338.805c1.442 3.035 1.342 3.134.999 3.475l-1.728 1.688a.73.73 0 0 1-.484.193c-.123 0-.446 0-3.088-1.117l-.842.341c-1.175 3.141-1.312 3.141-1.788 3.141zm-2.084-1.302h1.725c.23-.492.673-1.604 1.029-2.562a.647.647 0 0 1 .365-.376l1.357-.55a.654.654 0 0 1 .499.005c.976.415 2.129.879 2.651 1.055l1.208-1.184c-.194-.512-.684-1.596-1.119-2.509a.66.66 0 0 1-.013-.533l.559-1.328a.646.646 0 0 1 .366-.354c.983-.38 2.127-.849 2.628-1.087v-1.656c-.507-.226-1.642-.656-2.618-1.003a.647.647 0 0 1-.383-.361l-.559-1.33a.654.654 0 0 1 .005-.517c.418-.943.884-2.058 1.067-2.577l-1.209-1.181c-.518.187-1.641.671-2.589 1.104a.647.647 0 0 1-.514.011l-1.357-.548a.651.651 0 0 1-.36-.361c-.387-.963-.864-2.083-1.108-2.571H10.83c-.231.493-.673 1.605-1.028 2.562a.64.64 0 0 1-.365.377l-1.353.55a.652.652 0 0 1-.5-.004c-.976-.415-2.133-.879-2.654-1.052L3.722 5.147c.195.513.682 1.597 1.118 2.512.08.167.083.361.012.533L4.29 9.519a.648.648 0 0 1-.365.354c-.983.379-2.125.846-2.625 1.084v1.657c.505.228 1.641.659 2.618 1.007a.653.653 0 0 1 .381.36l.558 1.327a.653.653 0 0 1-.004.515c-.418.944-.884 2.059-1.067 2.577l1.208 1.182c.517-.188 1.64-.672 2.589-1.104a.655.655 0 0 1 .514-.012l1.357.551a.642.642 0 0 1 .359.36c.389.963.867 2.082 1.111 2.568zm.816-6.075c-2.319 0-4.207-1.854-4.207-4.13 0-2.275 1.888-4.127 4.207-4.127 2.318 0 4.205 1.852 4.205 4.127 0 2.276-1.887 4.13-4.205 4.13zm0-6.956c-1.602 0-2.905 1.268-2.905 2.826 0 1.561 1.303 2.829 2.905 2.829s2.904-1.269 2.904-2.829c0-1.559-1.302-2.826-2.904-2.826z"/></svg>