<svg xmlns="http://www.w3.org/2000/svg" width="424.2" height="57.5" viewBox="0 0 424.2 57.5"><g fill="#60D5E8"><path opacity=".6" d="M0 0h50.6v50.6H0z"/><path d="M0 0h25.3v25.3H0z"/></g><path d="M92.3 16.7c-2.3-3.8-6.1-4.3-9.8-4.4-3.8 0-9.8 1.4-9.8 6.5 0 4.1 4.4 5.1 9.8 6.1 6.2 1.2 12.7 2.3 12.7 9.2 0 7.3-7.4 9-12.7 9-5 0-10.7-2.1-13.2-7l2.2-1.1c2 3.9 7 5.8 11 5.8s10.3-1.1 10.3-6.8c0-4.8-5.3-5.9-10.6-6.9-5.9-1.1-11.9-2.3-11.9-8.3-.1-6.8 6.9-8.9 12.2-8.9 4.6 0 8.6.7 11.8 5.5l-2 1.3zm17.4-4H98v-2.2h25.8v2.2h-11.6v29.9h-2.5V12.7zm21.2 12.6h18.9v2.3h-18.9v12.7h20.3v2.4h-22.8V10.5h22.2v2.3h-19.8v12.5zm28.3-14.8v29.9h18.1v2.3h-20.6V10.5h2.5zm25.3 0v29.9h18.1v2.3H182V10.5h2.5zM233 42.7l-3.5-7.9h-19.2l-3.5 7.9H204l14.4-32.2h2.7l14.4 32.2H233zm-4.5-10.2l-8.6-19.6-8.6 19.6h17.2zm36.9 10.2h-3.3L251 30.5h-8.8v12.2h-2.5V10.5h14.2c7 0 10.5 5 10.6 10 0 5.2-3.4 9.8-10.4 9.8l11.3 12.4zm-23.1-14.6h11.4c5.6 0 8.1-3.2 8.1-7.7 0-3.8-2.5-7.7-7.9-7.7h-11.7v15.4zm55.5-17.6c3.3 0 5.9 2.7 5.9 5.9s-2.7 5.9-5.9 5.9h-14.4V10.5h14.4zm-14.3 20.3h1.7v11.8h-1.7V30.8zm1.6-18.7v8.5h12.7c2.3 0 4.3-1.9 4.3-4.2 0-2.3-1.9-4.3-4.3-4.3h-12.7zm25.1-1.6h1.7v32.2h-1.7V10.5zm8.1 1.2l1.1-1.2 10.5 9.5 10.5-9.5 1.1 1.2-11.6 10.6-11.6-10.6zm11.6 19.1l11.6 10.6-1.1 1.2-10.5-9.5-10.5 9.5-1.1-1.2 11.6-10.6zm38.3-18.7h-18.5v8.5h12.1v1.7H348V10.5h20.2v1.6zm0 30.6H348V30.8h13.7v1.7h-12.1V41h18.5v1.7zm5.9-32.2h1.7V41h18.5v1.7h-20.2V10.5zm25.5 23.1c0 5.6 5.2 8.1 9.9 8.1 4.9 0 9.9-2 9.9-7.5 0-2.9-1.4-5.8-6.2-7.7-5.8-2.2-12.8-3.4-12.8-9.3 0-4.8 4.6-7.3 9.1-7.3 4.4 0 8.8 2.4 8.8 7.3h-1.7c0-3.9-3.6-5.8-7.3-5.8-3.6 0-7.3 1.9-7.3 5.8 0 4.6 6 5.7 11.6 7.8 5.8 2.2 7.4 5.5 7.4 9.1 0 6.3-5.2 9.2-11.6 9.2-4.9 0-11.5-2.6-11.5-9.7h1.7z" fill="#FFF"/></svg>