<svg xmlns="http://www.w3.org/2000/svg" viewBox="0 0 26 26"><path d="M8.083 11.222L6.419 15a.276.276 0 0 1-.257.154H5.31c-.113 0-.216-.061-.256-.154l-.79-1.803a15.454 15.454 0 0 1-.213-.517c-.073.186-.148.359-.223.525l-.833 1.8a.277.277 0 0 1-.255.149h-.852a.276.276 0 0 1-.259-.158L.072 11.217c-.03-.074-.018-.156.034-.221s.135-.103.225-.103h.959c.121 0 .227.069.263.169l.684 1.92c.057.162.11.315.159.461.06-.146.125-.3.194-.463l.842-1.932a.277.277 0 0 1 .256-.155h.792c.115 0 .217.063.258.157l.798 1.89c.072.17.136.329.195.479.049-.142.106-.296.171-.465l.737-1.898a.275.275 0 0 1 .26-.164h.926a.29.29 0 0 1 .227.104.22.22 0 0 1 .031.226zm8.922 0L15.341 15a.276.276 0 0 1-.256.154h-.854a.276.276 0 0 1-.256-.154l-.789-1.803a13.647 13.647 0 0 1-.214-.517c-.073.186-.148.359-.223.525l-.833 1.8a.276.276 0 0 1-.255.149h-.853a.277.277 0 0 1-.259-.158l-1.557-3.779a.218.218 0 0 1 .034-.221.291.291 0 0 1 .225-.103h.959c.121 0 .227.069.263.169l.683 1.92.161.461c.059-.146.123-.3.192-.463l.843-1.932a.275.275 0 0 1 .256-.155h.792c.115 0 .218.063.258.157l.799 1.89c.071.17.135.329.193.479.051-.142.106-.296.172-.465l.737-1.898c.038-.098.144-.164.261-.164h.926c.092 0 .177.039.227.104a.218.218 0 0 1 .032.226zm8.921 0L24.263 15a.277.277 0 0 1-.257.154h-.853c-.113 0-.216-.061-.256-.154l-.789-1.803a13.647 13.647 0 0 1-.214-.517c-.073.186-.149.359-.224.525l-.833 1.8a.277.277 0 0 1-.255.149h-.852a.277.277 0 0 1-.26-.158l-1.557-3.779c-.029-.074-.019-.156.033-.221s.136-.103.226-.103h.96c.121 0 .227.069.262.169l.684 1.92.16.461c.059-.146.123-.3.192-.463l.843-1.932a.278.278 0 0 1 .257-.155h.791c.115 0 .218.063.258.157l.798 1.89c.072.17.137.329.196.479.049-.142.106-.296.171-.465l.738-1.898c.037-.098.142-.164.26-.164h.926c.092 0 .176.039.227.104a.224.224 0 0 1 .031.226zM2.71 9c.283-.718.637-1.401 1.057-2.037.062.012.12.037.185.037h1.88a18.675 18.675 0 0 0-.49 2h2.055c.155-.699.335-1.376.562-2h9.986c.227.624.407 1.301.562 2h2.055a18.675 18.675 0 0 0-.49-2h1.88c.065 0 .123-.025.186-.037.418.636.773 1.319 1.056 2.037h2.121c-1.691-5.216-6.591-9-12.363-9S2.28 3.784.588 9H2.71zm17.768-4H19.29a12.54 12.54 0 0 0-.851-1.519c.74.428 1.422.938 2.039 1.519zm-7.526-3c1.551 0 2.983 1.154 4.062 3H8.89c1.079-1.846 2.511-3 4.062-3zM7.463 3.481c-.308.469-.592.976-.85 1.519H5.426a11.074 11.074 0 0 1 2.037-1.519zM23.194 17c-.283.719-.638 1.4-1.057 2.037-.062-.012-.12-.037-.185-.037h-1.881c.199-.634.355-1.309.49-2h-2.055a15.848 15.848 0 0 1-.562 2H7.959a16.018 16.018 0 0 1-.562-2H5.343c.135.691.291 1.366.49 2H3.952c-.065 0-.123.025-.185.037A11.107 11.107 0 0 1 2.71 17H.588c1.692 5.216 6.592 9 12.364 9s10.672-3.784 12.363-9h-2.121zM5.426 21h1.188c.258.543.542 1.051.85 1.519A11.048 11.048 0 0 1 5.426 21zm7.526 3c-1.551 0-2.983-1.154-4.062-3h8.123c-1.078 1.846-2.51 3-4.061 3zm5.488-1.481c.309-.468.593-.976.851-1.519h1.188c-.618.581-1.3 1.091-2.039 1.519z"/></svg>