<svg xmlns="http://www.w3.org/2000/svg" width="16" height="16" viewBox="0 0 16 16"><circle fill="#E1E1E1" cx="8" cy="8" r="8"/><path fill="#D1D1D1" d="M13.7 2.4c3.1 3.1 3.1 8.2 0 11.3-3.1 3.1-8.2 3.1-11.3 0L13.7 2.4z"/><path fill="#C8C8C8" d="M16 8.3l-2.9-2.9-.8.5-.6.9-1.4-1.4-.6.5-.7.8-1.2-1.2-1.2 1.2-1.2-1.2H3.2l-.2.2L4.2 7l2.1 5.4 3.4 3.4c3.5-.8 6.1-3.8 6.3-7.5z"/><path fill="#4E4E4E" d="M13.1 5.5h-2.2v.2s.1 0 .1.1h.3c.2 0 .3.1.4.1.1.1.1.2 0 .4l-1.8 4.8h-.1L8.5 8.5v-.1l1-2c.1-.1.2-.3.3-.4.1-.2.1-.2.4-.2.1 0 .1 0 .1-.1v-.2H8.6v.3h.1c.2 0 .3.1.3.1.1.1.1.1 0 .4L8.3 8l-.7-1.5c-.2-.5-.3-.7.1-.7h.1c.1 0 .1 0 .1-.1v-.2H6.1v.2s0 .1.1.1c.3 0 .3.1.6.7 0 .1.2.4.2.4l.7 1.5s.1.2.2.5l-1 2.2h-.1s-1.6-3.6-2-4.8c0-.1-.1-.2-.1-.3 0-.1.1-.2.3-.2h.3c.1 0 .2 0 .2-.1v-.2H3v.2l.1.1c.2 0 .4.1.5.1.1.1.2.3.3.5.6 1.5 1.8 4.2 2.4 5.7.2.4.4.5.6 0 .3-.5.8-1.7 1.2-2.6.4.9.9 2.1 1.1 2.6.2.4.4.5.6 0 .6-1.4 2.3-5.7 2.3-5.7.1-.2.2-.4.3-.5.1-.1.3-.2.6-.2.1 0 .1 0 .1-.1v-.1z"/></svg>