<svg xmlns="http://www.w3.org/2000/svg" xmlns:xlink="http://www.w3.org/1999/xlink" viewBox="0 0 603.5 443.5"><defs><path id="a" d="M3.5 0h600v443.5H3.5z"/></defs><clipPath id="b"><use xlink:href="#a" overflow="visible"/></clipPath><g clip-path="url(#b)" fill="#D1D2D3"><path d="M495.5 11.6s-.1 0 0 0c-.1 0-.2-.1-.2-.2l-7.4-45.6c0-.1 0-.2.1-.2h.2l23.7 14.1c.1.1.1.2.1.3l-16.3 31.5c-.1 0-.2.1-.2.1zm-7.2-45.4l7.2 44.6 16-30.8-23.2-13.8z"/><path d="M530.8 44.6s-.1 0-.1-.1l-35.4-33c-.1-.1-.1-.2 0-.2l16.3-31.5c0-.1.1-.1.2-.1s.1.1.2.1l19 64.6c0 .1 0 .2-.1.2h-.1zm-35.1-33.3l34.7 32.4-18.7-63.4-16 31z"/><path d="M489 49.4c-.1 0-.1 0-.1-.1 0 0-.1-.1-.1-.2l6.4-37.8c0-.1.1-.1.1-.2h.2l35.4 33c.1.1.1.1.1.2s-.1.1-.2.1l-41.8 5c.1 0 0 0 0 0zm6.6-37.6L489.3 49l41.1-4.7-34.8-32.5z"/><path d="M502.3 101.8c-.1 0-.2-.1-.2-.1l-13.3-52.3v-.2l.1-.1 41.8-4.8c.1 0 .1 0 .2.1 0 .1.1.1 0 .2l-28.5 57.2c0-.1 0 0-.1 0zm-13-52.4l13.1 51.6 28.1-56.4-41.2 4.8zm22.4-69.3L488-34c-.1 0-.1-.1-.1-.2l8.6-26.4c0-.1.1-.1.2-.1s.2 0 .2.1L512-20.1c0 .1 0 .2-.1.2h-.2zm-23.4-14.4l23.1 13.7L496.7-60l-8.4 25.7z"/><path d="M488.1-34c-.1 0-.2-.1-.2-.1l-33-90.3c0-.1 0-.2.1-.2s.2 0 .3.1l41.6 63.9v.2L488.3-34c-.1-.1-.1 0-.2 0zm-32.3-88.9L488-34.8l8.4-25.8-40.6-62.3z"/><path d="M455-124.3l-71-28c-.1 0-.1-.1-.1-.2s0-.1.1-.2l19.5-12.5h.2l51.5 40.5c.1.1.1.2.1.2-.1.2-.2.2-.3.2zm-70.5-28.2l69.4 27.4-50.3-39.6-19.1 12.2zm32.2 453.2h-.1c-.1-.1-.1-.2-.1-.3l53.1-83s0-.1.1-.1l24.7-13.8h.2c.1.1.1.2 0 .2l-77.7 96.7c-.1.3-.2.3-.2.3zm53.2-83l-51.1 79.9 74.8-93.1-23.7 13.2z"/><path d="M416.7 300.7s-.1 0 0 0c-.1 0-.2-.1-.2-.2l1.9-32.1s0-.1.1-.1l51.1-50.9c.1-.1.2-.1.3 0 .1.1.1.2 0 .3l-53.1 83h-.1zm2.1-32.2l-1.9 31.2 51.7-80.8-49.8 49.6z"/><path d="M371.1 310.7c-.1 0-.1 0-.2-.1v-.2l47.6-42c.1-.1.1-.1.2 0 .1 0 .1.1.1.2l-1.9 32.1c0 .1-.1.2-.2.2l-45.6 9.8zm47.3-41.8l-46.6 41.2 44.7-9.8 1.9-31.4z"/><path d="M320.9 348.5c-.1 0-.1 0-.2-.1s0-.2.1-.3l50.2-37.9h.1l45.6-10c.1 0 .2 0 .2.1s0 .2-.1.2l-95.9 48zm50.3-37.9l-48.5 36.6 92.5-46.2-44 9.6zm-121.9 31.3c-.1 0-.1 0-.2-.1l-30.6-56.4v-.2c0-.1.1-.1.2-.1l58.7 14.4c.1 0 .1.1.1.1v.2l-28.1 42c0 .1 0 .1-.1.1zm-30.2-56.2l30.3 55.7 27.8-41.5-58.1-14.2z"/><path d="M277.4 300l-58.8-14.4c-.1 0-.1-.1-.1-.1v-.2l66.4-92.6c.1-.1.1-.1.2-.1s.1.1.1.2l-7.6 107c0 .1 0 .1-.1.1 0 0 0 .1-.1.1zM219 285.2l58.2 14.3 7.5-106.1-65.7 91.8zm165.1-437.5s-.1 0 0 0c-.1 0-.2-.1-.2-.1l-10.5-26.4v-.2c.1-.1.1-.1.2 0l30 13.9c.1 0 .1.1.1.2s0 .1-.1.2l-19.5 12.5c.1-.1 0-.1 0-.1zm-10.2-26.2l10.3 25.7 19-12.1-29.3-13.6zm128.4 280.3c-.1 0-.1 0-.2-.1s-.1-.1 0-.2l28.5-57.2c0-.1.1-.1.2-.1s.2.1.2.2l-1.7 50.9c0 .1-.1.2-.1.2l-26.9 6.3zm28.3-56.5l-27.9 56 26.2-6.1 1.7-49.9z"/><path d="M494.4 204c-.1 0-.2-.1-.2-.2l7.9-102.2c0-.1.1-.2.2-.2l26.8-6.3c.1 0 .1 0 .2.1 0 .1.1.1 0 .2l-34.7 108.5s-.1.1-.2.1zm8.1-102.3l-7.8 100.4 34.1-106.6-26.3 6.2z"/><path d="M494.4 204c-.1 0-.2-.1-.2-.1l-12.5-43.7v-.1l20.4-58.6c0-.1.1-.1.2-.1s.2.1.2.2l-7.9 102.2c0 .1-.1.2-.2.2zm-12.3-43.9l12.2 42.5L502 103l-19.9 57.1z"/><path d="M469.7 217.7h-.1c-.1 0-.1-.1-.1-.2l12.2-57.4c0-.1.1-.2.2-.2s.2.1.2.1l12.5 43.7c0 .1 0 .2-.1.2l-24.8 13.8c.1 0 .1 0 0 0zm12.3-56.8l-12 56.3 24.1-13.5-12.1-42.8z"/><path d="M418.6 268.6h-.1c-.1-.1-.1-.2 0-.3L481.8 160c0-.1.1-.1.2-.1s.1.1.1.2l-12.2 57.4s0 .1-.1.1l-51.1 50.9c0 .1 0 .1-.1.1zm62.9-107.3l-61.9 106 50-49.8 11.9-56.2z"/><path d="M418.6 268.6c-.1 0-.2-.1-.2-.1l-11-32.5v-.2l74.4-75.8c.1-.1.2-.1.3 0 .1.1.1.2.1.3l-63.3 108.3h-.3zM407.8 236l10.9 32L481 161.4 407.8 236zM277.4 351.8l-28.2-9.9c-.1 0-.1-.1-.1-.2s.1-.2.2-.2l71.6 6.6c.1 0 .2.1.2.2s-.1.2-.2.2l-43.5 3.3zm-26.5-9.7l26.6 9.4 41.1-3.1-67.7-6.3zm-143.6-23.3h-.1l-50.4-32.1c-.1 0-.1-.1-.1-.2s.1-.1.1-.2l11.7-4.4h.2l38.7 36.5c.1.1.1.2 0 .3 0 .1-.1.1-.1.1zm-50-32.2l48.3 30.8-37.1-35-11.2 4.2zm-87-150.5c-.1 0-.2-.1-.2-.2l-9.9-59.6v-.1l.1-.1 18-2.7c.1 0 .1 0 .2.1 0 0 .1.1.1.2l-8.1 62.3s-.1.1-.2.1zm-9.7-59.6l9.7 58.1 7.9-60.8-17.6 2.7z"/><path d="M-21.6 73.8c-.1 0-.1 0-.2-.1 0 0-.1-.1 0-.2L-2.7-7.9c0-.1.1-.1.2-.2.1 0 .2 0 .2.1l28.1 78.8v.2c0 .1-.1.1-.2.1l-47.2 2.7zm19.1-81l-18.9 80.5 46.7-2.6L-2.5-7.2zm-16.4-20.2h-.1c-.1-.1-.1-.2 0-.3l65.8-103.9c.1-.1.2-.1.3-.1.1 0 .1.1.1.2L27.3-76.9v.1l-46.1 49.4h-.1zm65-102.4L-17.6-29.2 27-77l19.1-52.8z"/><path d="M-39.4 76.3l-.4-.1 20.7-103.9v-.1l65.8-103.9.3.2-65.7 104-20.7 103.8z"/><path d="M-2.5-7.7c-.1 0-.1 0-.2-.1l-16.4-19.7c-.1-.1-.1-.2 0-.3L27-77.1c.1-.1.2-.1.2 0 .1.1.1.2.1.2l-29.7 69c0 .1 0 .2-.1.2zm-16.1-19.8l16 19.2L26.5-76l-45.1 48.5z"/><path d="M-21.6 73.8s-.1 0 0 0c-.1 0-.2-.1-.2-.2l2.7-101.1c0-.1.1-.2.1-.2.1 0 .2 0 .2.1L-2.4-8s.1.1 0 .2l-19.1 81.5s0 .1-.1.1zM-18.7-27l-2.7 98.7L-2.7-7.8l-16-19.2z"/><path d="M-39.6 76.5c-.1 0-.1 0-.1-.1 0 0-.1-.1-.1-.2l20.7-103.9c0-.1.1-.2.2-.2s.2.1.2.2l-2.7 101.1c0 .1-.1.2-.2.2l-18 2.9zm20.4-101.8L-39.3 76.1l17.5-2.7 2.6-98.7zm168.9-154.9c-.1 0-.2 0-.2-.1s0-.2.1-.2l47.3-25h.2c.1.1.1.1 0 .2l-7.3 15.9c0 .1-.1.1-.1.1l-40 9.1c.1 0 0 0 0 0zm46.9-24.8l-45.5 24 38.5-8.8 7-15.2z"/><path d="M237.6-195.2l-40.7-10c-.1 0-.2-.1-.1-.2 0-.1.1-.2.2-.2l78.6-2.6c.1 0 .2.1.2.2s0 .2-.1.2l-38.1 12.6c.1 0 .1 0 0 0zm-39.2-10.1l39.2 9.7 36.7-12.2-75.9 2.5z"/><path d="M189.7-189.3c-.1 0-.1 0-.2-.1 0-.1-.1-.1 0-.2l7.3-15.9c0-.1.1-.1.2-.1l40.6 10c.1 0 .2.1.1.2 0 .1-.1.2-.2.2l-47.8 5.9zm7.4-15.9l-7.1 15.5 46.5-5.7-39.4-9.8z"/><path d="M262.7-123.6s-.1 0-.1-.1l-73-65.8c-.1-.1-.1-.1-.1-.2s.1-.1.2-.1l47.9-5.9c.1 0 .2 0 .2.1l25.1 71.7c0 .1 0 .2-.1.2 0 .1 0 .1-.1.1zm-72.5-65.8l72.1 65-24.8-70.8-47.3 5.8z"/><path d="M295.3-25.5h-.1L227.1-70l-.1-.1v-.1l35.5-53.6c0-.1.1-.1.2-.1s.1.1.2.1l32.5 98.1c0 .1 0 .2-.1.2.1 0 0 0 0 0zm-67.8-44.7l67.4 44-32.2-97.1-35.2 53.1z"/><path d="M206.7 50.1s0-.1 0 0c-.2-.1-.2-.1-.2-.2l20.5-120c0-.1.1-.1.1-.1h.2l68.1 44.5c.1 0 .1.1.1.2s0 .1-.1.2L206.9 50c-.1 0-.1.1-.2.1zm20.6-119.9L207 49.4l87.9-75-67.6-44.2zm167.8-39h-.1l-108.9-84.9c-.1-.1-.1-.2 0-.3.1-.1.2-.1.2-.1l97.8 41.4c.1 0 .1.1.1.1l11.1 43.5c0 .1 0 .2-.1.2 0 .1 0 .1-.1.1zm-107.5-84.3l107.2 83.6-10.9-42.8-96.3-40.8z"/><path d="M286.3-193.7l-48.6-1.5c-.1 0-.2-.1-.2-.2s0-.2.1-.2l38-12.6c.1 0 .2 0 .2.1l10.6 14.1c0 .1.1.1 0 .2 0 .1-.1.1-.1.1zm-47.5-1.9l47.1 1.5-10.3-13.7-36.8 12.2z"/><path d="M262.7-123.6c-.1 0-.2-.1-.2-.1l-25.1-71.7v-.2c0-.1.1-.1.2-.1l48.6 1.5c.1 0 .1 0 .2.1v.2l-23.5 70.1c0 .2-.1.2-.2.2zm-24.8-71.6l24.8 70.9 23.3-69.3-48.1-1.6z"/><path d="M356.1-107.9c-.1 0-.1 0-.2-.1l-69.8-85.8c-.1-.1-.1-.2 0-.3.1-.1.2-.1.3 0l108.9 84.9c.1.1.1.1.1.2s-.1.1-.2.1l-39.1 1zm-68.6-84.8l68.6 84.3 38.4-.9-107-83.4z"/><path d="M356.1-107.9c-.1 0-.1 0 0 0l-93.4-15.6c-.1 0-.1 0-.1-.1v-.2l23.5-70.1c0-.1.1-.1.2-.1s.1 0 .2.1l69.8 85.8c.1.1.1.2 0 .2-.1-.1-.2 0-.2 0zm-93.1-16l92.6 15.5-69.2-85.1-23.4 69.6z"/><path d="M349.5-58.3h-.1l-86.7-65.2c-.1-.1-.1-.2-.1-.2 0-.1.1-.1.2-.1l93.3 15.6c.1 0 .2.1.2.2l-6.6 49.6c-.1 0-.1 0-.2.1zm-86-65.1l85.8 64.6 6.5-49.1-92.3-15.5z"/><path d="M295.3-25.5c-.1 0-.1 0 0 0-.1 0-.2-.1-.2-.1l-32.5-98.1c0-.1 0-.2.1-.2.1-.1.2 0 .2 0l86.7 65.2c.1 0 .1.1.1.2s0 .1-.1.2l-54.2 32.8h-.1zm-32.2-97.7L295.4-26l53.7-32.5-86-64.7z"/><path d="M418.3 14.8L295.2-25.5c-.1 0-.1-.1-.1-.2s0-.2.1-.2l54.2-32.8h.2l68.9 73.1c.1.1.1.2 0 .2-.1.2-.1.2-.2.2zM295.7-25.8l121.9 40-68.2-72.5-53.7 32.5zm206.6 127.6l-49.5-16.3c-.1 0-.1-.1-.1-.1 0-.1 0-.1.1-.2l36.1-36c.1 0 .1-.1.2 0 .1 0 .1.1.1.1l13.3 52.4c0 .1 0 .1-.1.2 0-.1 0-.1-.1-.1zm-49-16.6l48.7 16.1-13.1-51.7-35.6 35.6z"/><path d="M452.9 85.5c-.1 0-.1-.1-.2-.1l-34.6-70.6v-.2c.1-.1.1-.1.2 0L489 49.2c.1 0 .1.1.1.1 0 .1 0 .1-.1.2l-36.1 36c.1-.1.1 0 0 0zm-34.2-70.4L453 84.9l35.7-35.7-70-34.1z"/><path d="M481.9 160.3c-.1 0-.2 0-.2-.1l-29-74.9v-.2c.1-.1.1-.1.2-.1l49.4 16.3c.1 0 .1.1.1.1v.2L482 160.2c.1.1 0 .1-.1.1zm-28.7-74.7l28.7 74 20.1-57.9-48.8-16.1z"/><path d="M377.1 94c-.1 0-.1 0-.2-.1v-.2l41.3-79.2c0-.1.1-.1.2-.1s.1 0 .2.1l34.6 70.6v.2c0 .1-.1.1-.1.1l-76 8.6zm41.2-78.9l-40.9 78.5 75.2-8.5-34.3-70zm33-106.7c-.1 0-.1 0-.1-.1L384-152.4c-.1-.1-.1-.2 0-.2 0-.1.1-.1.2-.1l71 28c.1 0 .1.1.1.2l-3.7 32.7c-.1.1-.1.2-.3.2.1 0 0 0 0 0zM385-151.9l66.2 59.7 3.7-32.2-69.9-27.5z"/><path d="M488.1-34c-.1 0-.1 0-.2-.1l-36.8-57.6v-.1l3.7-32.7c0-.1.1-.2.2-.2s.2 0 .2.1l33 90.3c.1.1 0 .2-.1.3zm-36.6-57.8l35.8 56-32.1-87.8-3.7 31.8z"/><path d="M451.3-91.6l-56.2-17.2c-.1 0-.1-.1-.1-.1l-11.1-43.5c0-.1 0-.2.1-.2h.2l67.2 60.7c.1.1.1.2 0 .2.1.1 0 .1-.1.1zm-56-17.6l55.2 16.9-66.1-59.7 10.9 42.8z"/><path d="M495.5 11.6c-.1 0-.1 0-.2-.1L451.1-91.7c0-.1 0-.2.1-.2s.2 0 .3.1l36.8 57.6v.1l7.4 45.6s-.1 0-.2.1zM452.4-89.7L495 9.8l-7.1-44-35.5-55.5zM107.3 318.8s-.1 0-.1-.1l-38.7-36.5c-.1-.1-.1-.2 0-.3.1-.1.2-.1.3-.1l47.4 29.4c.1 0 .1.1.1.2s0 .1-.1.2l-8.7 7.1-.2.1zm-37.2-35.5l37.1 35 8.3-6.8-45.4-28.2z"/><path d="M146 331.3s-.1 0 0 0l-38.8-12.4c-.1 0-.1-.1-.1-.1 0-.1 0-.1.1-.2l8.7-7.1c.1-.1.2-.1.2 0l30.1 19.5c.1.1.1.2.1.2-.2 0-.2.1-.3.1zm-38.3-12.7l37 11.9-28.7-18.6-8.3 6.7z"/><path d="M115.9 311.8h-.1l-47.4-29.4s-.1 0-.1-.1l-36.7-70.2c0-.1 0-.2.1-.3.1-.1.2 0 .3 0l84 99.6c.1.1.1.2 0 .2 0 .1 0 .2-.1.2zM68.7 282l46.3 28.8-82.1-97.3L68.7 282zM-9.2 151.3c-.1 0-.2-.1-.2-.2l-12.4-77.5v-.2l.1-.1 47.2-2.7c.1 0 .1 0 .2.1v.2L-9 151.2c-.1 0-.1.1-.2.1zm-12.2-77.6l12.3 76.7 34.4-79.3-46.7 2.6z"/><path d="M31.9 212.2c-.1 0-.1 0-.2-.1l-41.1-60.9v-.2l34.8-80.2c0-.1.1-.1.2-.1s.2.1.2.2L32.1 212c0 .1-.1.1-.2.2zM-9 151.1l40.7 60.2-6.3-139.5L-9 151.1z"/><path d="M-9.2 151.3h-.1L-29.8 136c-.1 0-.1-.1-.1-.2l8.1-62.3c0-.1.1-.2.2-.2s.2.1.2.2L-9 151.1s0 .1-.2.2c.1 0 0 0 0 0zm-20.3-15.5l20 14.9L-21.6 75l-7.9 60.8zM77.1-52c-.1 0-.1 0-.2-.1v-.2l61.6-82.9c.1-.1.2-.1.3 0l88.5 64.9c.1 0 .1.1.1.2s-.1.1-.2.1L77.1-52c.1 0 0 0 0 0zm61.6-82.8L77.6-52.4l149.1-17.9-88-64.5z"/><path d="M206.7 50.1h-.1L77-52c-.1 0-.1-.1-.1-.2s.1-.1.2-.1l150.1-18c.1 0 .1 0 .2.1 0 0 .1.1.1.2L207 50c-.1 0-.1 0-.3.1.1-.1.1 0 0 0zM77.6-52l129 101.5L227-69.9 77.6-52z"/><path d="M77.1-52l-50-24.8c-.1 0-.1-.1-.1-.2s0-.1.1-.2l111.5-58.2h.2c.1.1.1.2 0 .2L77.3-52h-.2zM27.6-76.9l49.5 24.5 61-82.1L27.6-76.9z"/><path d="M-2.5-7.7s-.1 0-.1-.1c-.1 0-.1-.1-.1-.2L27-77c0-.1.1-.1.1-.1h.2l50 24.8c.1 0 .1.1.1.2s0 .1-.1.2L-2.5-7.7c.1 0 0 0 0 0zm29.8-69L-2.1-8.3l78.8-43.8-49.4-24.6z"/><path d="M100.5 60.8c-.1 0-.2-.1-.2-.2L76.9-52.1c0-.1 0-.2.1-.2h.2l129.6 102c.1 0 .1.1.1.2s-.1.1-.2.1L100.5 60.8zM77.4-51.7l23.2 112 105.6-10.7L77.4-51.7z"/><path d="M25.5 71.1c-.1 0-.1 0-.2-.1 0-.1-.1-.1 0-.2L77-52.2c0-.1.1-.1.2-.1s.2.1.2.2l23.4 112.7v.2l-.1.1-75.2 10.2c.1 0 .1 0 0 0zM77.1-51.5L25.9 70.7l74.4-10.2-23.2-112z"/><path d="M25.5 71.1c-.1 0-.2-.1-.2-.1l-28-78.8c0-.1 0-.2.1-.2L77-52.3h.2c.1.1.1.1.1.2L25.7 71c0 .1-.1.1-.2.1zM-2.3-7.8l27.8 78.2L76.7-51.7l-79 43.9zm110.6-168.1c-.1 0-.2-.1-.2-.2s0-.2.1-.2l88.7-29.4c.1 0 .2 0 .2.1s0 .2-.1.2l-47.3 25h-.1l-41.3 4.5zm86.5-28.6l-84.7 28.1 39.6-4.2 45.1-23.9zM453.7-40c-.1 0-.1 0-.1-.1L395-108.9c-.1-.1-.1-.2 0-.2.1-.1.1-.1.2-.1L451.4-92c.1 0 .1.1.1.2l2.4 51.6c0 .1-.1.2-.2.2zm-58-68.6l57.7 67.9-2.3-50.9-55.4-17z"/><path d="M495.5 11.6c-.1 0-.1 0-.2-.1l-41.8-51.6v-.1l-2.4-51.6c0-.1.1-.2.2-.2s.2 0 .2.1l44.1 103.2c0 .1 0 .2-.1.2v.1zm-41.6-51.9l40.9 50.4-43.2-100.8 2.3 50.4z"/><path d="M453.7-40h-.1l-97.7-68c-.1 0-.1-.1-.1-.2s.1-.1.2-.1l39.1-.9c.1 0 .1 0 .2.1l58.6 68.8c.1.1.1.2 0 .3h-.2zm-97-67.9l95.9 66.7-57.6-67.6-38.3.9z"/><path d="M453.7-40L349.4-58.3c-.1 0-.2-.1-.2-.2l6.6-49.6c0-.1.1-.1.1-.2h.2l97.6 67.9c.1.1.1.1.1.2 0 .2 0 .2-.1.2zm-104-18.7l103.2 18.1-96.6-67.2-6.6 49.1z"/><path d="M489 49.4c-.1 0-.2-.1-.2-.1l-35.4-89.4c0-.1 0-.2.1-.2h.2l41.8 51.6v.2l-6.4 37.8c.1 0 .1.1-.1.1.1 0 0 0 0 0zm-34.7-88.5L489 48.5l6.3-37.1-41-50.5z"/><path d="M418.3 14.8c-.1 0-.1 0-.1-.1l-68.9-73.1c-.1-.1-.1-.2 0-.2 0-.1.1-.1.2-.1l104.2 18.3c.1 0 .1.1.1.1v.2l-35.4 54.8c.1.1 0 .1-.1.1zm-68.3-73l68.3 72.5 35.1-54.4L350-58.2z"/><path d="M489 49.4l-70.8-34.6c-.1 0-.1-.1-.1-.1v-.2l35.4-54.8c0-.1.1-.1.2-.1s.1.1.2.1l35.4 89.4v.2c-.2.1-.2.1-.3.1zm-70.4-34.9l70.1 34.3-35-88.6-35.1 54.3zM167.7 228.8c-.1 0-.1 0-.1-.1-.1-.1-.1-.1 0-.2l27.1-77.4c0-.1.1-.1.1-.1h.2l90.2 41.5c.1 0 .1.1.1.2s-.1.2-.1.2l-117.5 35.9zm27.2-77.3L168 228.3l116.5-35.7-89.6-41.1z"/><path d="M218.7 285.6c-.1 0-.1 0-.1-.1l-51-56.7c0-.1-.1-.1 0-.2 0-.1.1-.1.1-.1l117.3-36c.1 0 .2 0 .2.1v.2l-66.4 92.6c0 .1-.1.2-.1.2zm-50.6-56.9l50.6 56.3 65.9-92-116.5 35.7z"/><path d="M285 192.9c-.2-.1-.2-.2-.2-.2l18.1-80.4c0-.1.1-.1.1-.1l74-18.6c.1 0 .2 0 .2.1v.2l-92 98.9c-.1.1-.1.1-.2.1zm18.3-80.4l-17.9 79.6 91.1-97.9-73.2 18.3z"/><path d="M194.8 151.4h-.1c-.1 0-.1-.1-.1-.2l11.9-101.3c0-.1.1-.1.1-.2h.2l96.4 62.5c.1 0 .1.1.1.2s-.1.1-.1.2l-108.4 38.8c.1 0 0 0 0 0zm12.1-101.2L195 150.9l107.7-38.6-95.8-62.1z"/><path d="M285 192.9l-90.3-41.5c-.1 0-.1-.1-.1-.2s.1-.2.1-.2L303 112.1h.2c.1 0 .1.1.1.2l-18.1 80.4c0 .1 0 .2-.2.2.1 0 .1 0 0 0zm-89.7-41.7l89.6 41.2 18-79.8-107.6 38.6zm223.3 117.4l-72.8-5.9c-.1 0-.2-.1-.2-.2s0-.2.1-.2l61.8-26.6h.2c.1 0 .1.1.1.1l11.1 32.5v.2c-.1.1-.2.1-.3.1zm-72-6.2l71.7 5.8-10.9-32-60.8 26.2z"/><path d="M345.8 262.7c-.1 0-.1 0-.1-.1l-60.8-69.8c-.1-.1-.1-.2 0-.2.1-.1.1-.1.2-.1l122.5 43.2c.1 0 .1.1.1.2s0 .2-.1.2l-61.8 26.6c.1 0 0 0 0 0zm-60.1-69.5l60.2 69.2 61.2-26.4-121.4-42.8z"/><path d="M277.4 300h-.1c-.1 0-.1-.1-.1-.2l7.6-107c0-.1.1-.1.1-.2.1 0 .2 0 .2.1l60.8 69.8s.1.1 0 .2c0 .1 0 .1-.1.1L277.4 300c.1-.1.1 0 0 0zm7.8-106.8l-7.6 106.2 67.9-36.9-60.3-69.3zm-81.2 162c-.1 0-.2-.1-.2-.2s0-.2.1-.2l45.3-13.3h.1l28.1 9.9c.1 0 .1.1.1.2s-.1.2-.2.2l-73.3 3.4zm45.3-13.3l-43.7 12.8 70.8-3.2-27.1-9.6zM56.9 286.7c-.1 0-.1 0-.2-.1l-44.2-54.9c-.1-.1-.1-.2 0-.3.1-.1.2-.1.3 0L68.7 282c.1.1.1.1.1.2s-.1.1-.1.1l-11.8 4.4zm-42.5-53.2l42.5 52.9 11.3-4.2-53.8-48.7z"/><path d="M12.7 231.9c-.1 0-.2-.1-.2-.1l-21.9-80.6c0-.1 0-.2.1-.2s.2 0 .2.1L32 212c.1.1 0 .2 0 .2l-19.2 19.7c0-.1 0 0-.1 0zm-21.4-79.7l21.5 79.1L31.6 212l-40.3-59.8z"/><path d="M12.7 231.9c-.1 0-.1 0-.2-.1L-29.9 136c0-.1 0-.2.1-.2.1-.1.2-.1.2 0L-9.1 151l.1.1 21.9 80.6s0 .1-.2.2zm-41.9-95.4l41.1 92.7-21.2-78-19.9-14.7z"/><path d="M68.6 282.3h-.1l-55.9-50.5-.1-.1c0-.1 0-.1.1-.1l19.2-19.7s.1-.1.2-.1.1 0 .1.1l36.7 70.2c0 .1 0 .2-.1.2h-.1zM13 231.7l54.9 49.6-36.1-69L13 231.7zm422.3-71.5c-.1 0-.1 0-.1-.1L376.9 94c0-.1-.1-.1 0-.2 0-.1.1-.1.2-.1l75.9-8.6c.1 0 .1 0 .2.1 0 0 .1.1 0 .2l-17.6 74.7c-.1 0-.2.1-.3.1zM377.5 94l57.8 65.6 17.4-74.1-75.2 8.5z"/><path d="M481.9 160.3l-46.6-.1c-.1 0-.1 0-.2-.1 0 0-.1-.1 0-.2l17.6-74.7c0-.1.1-.1.2-.2.1 0 .2 0 .2.1l29 74.9v.2c0 .1-.1.1-.2.1zm-46.3-.5l46.1.1-28.7-74-17.4 73.9z"/><path d="M285 192.9c-.1 0-.1 0-.2-.1v-.2l92-98.9.1-.1c.1 0 .1 0 .1.1l58.3 66.2c0 .1.1.1 0 .2 0 .1-.1.1-.1.1L285 192.9c.1 0 .1 0 0 0zm92.1-98.8l-91.4 98.3L435 159.9l-57.9-65.8z"/><path d="M407.6 236.1h-.1c-.1 0-.1-.1-.1-.2l27.7-75.9c0-.1.1-.1.2-.1l46.6.1c.1 0 .2 0 .2.1v.2l-74.4 75.8h-.1zm27.8-75.9L408 235.1l73.4-74.8-46-.1z"/><path d="M407.6 236.1s-.1 0 0 0L285 192.9c-.1 0-.1-.1-.1-.2s.1-.2.2-.2l150.3-32.7c.1 0 .1 0 .2.1 0 .1.1.1 0 .2L407.8 236c-.1.1-.1.1-.2.1zm-121.8-43.3l121.7 42.9 27.5-75.4-149.2 32.5zm-172.6-43.2c-.1 0-.1 0 0 0-.1 0-.2-.1-.2-.2l-12.6-88.9v-.1l.1-.1 106.2-10.7c.1 0 .2 0 .2.1v.2l-93.6 99.6c0 .1-.1.1-.1.1zm-12.4-88.8l12.5 88.3 93-98.9-105.5 10.6z"/><path d="M194.8 151.4l-81.7-1.8c-.1 0-.1 0-.2-.1v-.2l93.6-99.6c.1-.1.2-.1.2 0 .1 0 .1.1.1.2L195 151.2c0 .1-.1.2-.2.2zm-81.2-2.1l81 1.7 11.8-100.6-92.8 98.9z"/><path d="M113.2 149.6h-.1L25.4 71.1c-.1-.1-.1-.1-.1-.2s.1-.1.2-.1l75-10.3c.1 0 .2.1.2.2l12.6 88.9c.1-.1 0 0-.1 0zM26 71l86.9 77.9-12.5-88.1L26 71z"/><path d="M167.7 228.8c-.1 0-.1 0-.2-.1L113 149.6v-.2c0-.1.1-.1.2-.1l81.7 1.8c.1 0 .1 0 .2.1v.2L168 228.8h-.3zm-54.2-79.1l54.1 78.6 26.9-76.8-81-1.8z"/><path d="M31.9 212.2s-.1 0 0 0c-.1 0-.2-.1-.2-.2L25.4 70.9c0-.1 0-.2.1-.2h.2l87.6 78.5s.1.1.1.2 0 .1-.1.1L32 212.1c0 .1-.1.1-.1.1zM25.8 71.4l6.3 140.2 80.8-62.2-87.1-78z"/><path d="M102.8 229.2c-.1 0-.1 0-.1-.1 0 0-.1-.1 0-.2l10.4-79.5c0-.1.1-.1.2-.2.1 0 .2 0 .2.1l54.6 79.2v.2c0 .1-.1.1-.2.1l-65.1.4zm10.5-79.2L103 228.8l64.3-.3-54-78.5z"/><path d="M102.8 229.2l-70.9-17c-.1 0-.1-.1-.1-.1 0-.1 0-.2.1-.2l81.3-62.5c.1 0 .1-.1.2 0 .1 0 .1.1.1.2L103 229c0 .1 0 .1-.1.1l-.1.1zm-70.5-17.3l70.3 16.8 10.3-78.8-80.6 62zm140.3 126s-.1 0 0 0l-26.6-6.7h-.1l-30.1-19.5c-.1-.1-.1-.2-.1-.3 0-.1.2-.1.3-.1l56.6 26.2c.1 0 .1.1.1.2 0 .2-.1.2-.1.2zm-26.5-7l24.5 6.2-52.3-24.1 27.8 17.9z"/><path d="M204 355.2c-.1 0-.1 0 0 0l-58.1-23.9c-.1 0-.1-.1-.1-.2s.1-.2.2-.1l26.6 6.7L204 355c.1 0 .1.2.1.3 0-.2-.1-.1-.1-.1zm-55.5-23.3l52.3 21.6-28.3-15.5-24-6.1z"/><path d="M204 355.2c-.1 0-.1 0 0 0l-31.5-17.3c-.1 0-.1-.1-.1-.2s.1-.2.2-.1l76.7 4c.1 0 .2.1.2.2s0 .2-.1.2L204 355.2zM173.4 338l30.6 16.8 44.1-12.9-74.7-3.9zm89.3-461.6l-65.8-22.9c-.1 0-.1-.1-.1-.2l-7.3-42.9c0-.1 0-.2.1-.2h.2l73 65.8c.1.1.1.2 0 .2.1.2 0 .2-.1.2zm-65.5-23.2l64.7 22.6L190-189l7.2 42.2z"/><path d="M197-146.5h-.1l-47.3-33.8c-.1 0-.1-.1-.1-.2s.1-.1.1-.2l40-9.1h.2l.1.1 7.3 42.9c0 .1 0 .2-.1.2 0 .1-.1.1-.1.1zm-46.8-33.8l46.5 33.2-7.2-42.2-39.3 9z"/><path d="M227.2-70c-.1 0-.2-.1-.2-.1l-30.2-76.5v-.2c.1-.1.1-.1.2 0l65.7 22.9c.1 0 .1.1.1.1v.2L227.3-70h-.1zm-29.9-76.3l29.9 75.8 35.2-53.1-65.1-22.7z"/><path d="M138.7-134.9c-.1 0-.1 0-.1-.1 0 0-.1-.1 0-.2l11-45.3c0-.1.1-.1.1-.1h.2l47.3 33.8c.1 0 .1.1.1.2s-.1.1-.2.2l-58.4 11.5zm11.1-45.2L139-135.4l57.6-11.4-46.8-33.3z"/><path d="M227.2-70h-.1l-88.5-64.9c-.1 0-.1-.1-.1-.2s.1-.1.2-.2l58.3-11.6c.1 0 .2 0 .2.1l30.2 76.5c0 .1 0 .2-.1.2 0 .1-.1.1-.1.1zm-88-65l87.6 64.3-29.9-75.7-57.7 11.4zm244.9-17.3h-.1l-44.2-38.6c-.1-.1-.1-.2 0-.2.1-.1.1-.1.2-.1l33.7 12.2c.1 0 .1.1.1.1l10.5 26.4c0 .1 0 .2-.1.2h-.1zm-43.3-38.3l42.8 37.4-10.2-25.6-32.6-11.8z"/><path d="M384.1-152.3c-.1 0-.1 0 0 0l-97.9-41.4c-.1 0-.1-.1-.1-.2s.1-.2.2-.2l53.6 2.8h.1l44.2 38.6c.1.1.1.2 0 .3 0 .1-.1.1-.1.1zm-96.7-41.3l95.7 40.5-43.2-37.8-52.5-2.7z"/><path d="M339.9-190.9l-53.6-2.8c-.1 0-.1 0-.1-.1l-10.6-14.1c-.1-.1-.1-.2 0-.2 0-.1.1-.1.2-.1l64.2 16.9c.1 0 .2.1.1.2s-.1.2-.2.2zm-53.5-3.2l51.6 2.7-61.9-16.3 10.3 13.6zm-204 53.6c-.1 0-.1 0-.1-.1-.1-.1-.1-.2 0-.2l25.9-35.4.1-.1 41.4-4.4c.1 0 .2 0 .2.1s0 .2-.1.2l-67.4 39.9c.1 0 .1 0 0 0zm26-35.4l-25.3 34.5 65.7-38.8-40.4 4.3z"/><path d="M138.7-134.9l-56.3-5.6c-.1 0-.2-.1-.2-.2s0-.2.1-.2l67.3-39.8h.2c.1 0 .1.1.1.2l-11 45.3c0 .2-.1.3-.2.3zm-55.6-5.9l55.5 5.5 10.9-44.7-66.4 39.2z"/><path d="M46.9-131.2c-.1 0-.1 0-.2-.1 0-.1 0-.2.1-.2l61.4-44.7c.1-.1.2 0 .3 0 .1.1.1.2 0 .3l-25.9 35.4-.1.1-35.6 9.2zm60.5-44l-59.6 43.3 34.5-9 25.1-34.3z"/><path d="M27.2-76.7c-.1 0-.1-.1 0 0-.2-.1-.3-.2-.2-.3l19.7-54.5c0-.1.1-.1.1-.1l35.6-9.3c.1 0 .2 0 .2.1v.2L27.3-76.8l-.1.1zM47-131.2L27.7-77.9l54.2-62.5-34.9 9.2z"/><path d="M27.2-76.7c-.1 0-.1 0-.2-.1v-.3l55.3-63.7s.1-.1.2-.1l56.2 5.6c.1 0 .2.1.2.2s0 .2-.1.2L27.2-76.7c0-.1 0 0 0 0zm55.3-63.8L28-77.6 138-135l-55.5-5.5zM336.9 42c-.1 0-.1 0-.2-.1l-41.6-67.5v-.2c.1-.1.1-.1.2-.1l123 40.3c.1 0 .1.1.1.2s-.1.2-.1.2L336.9 42zm-41.2-67.3L337 41.6l80.7-26.9-122-40z"/><path d="M377.1 94c-.1 0-.1 0-.2-.1l-40.2-52c0-.1-.1-.1 0-.2 0-.1.1-.1.1-.1l81.4-27.2c.1 0 .2 0 .2.1.1.1.1.1 0 .2l-41.3 79.2c.1.1 0 .1 0 .1zm-39.9-52.1L377 93.5 417.9 15l-80.7 26.9z"/><path d="M206.7 50.1c-.1 0-.2 0-.2-.1s0-.2.1-.2l88.5-75.6s.1-.1.2 0c.1 0 .1 0 .1.1L337 41.8v.2c0 .1-.1.1-.2.1l-130.1 8c.1 0 0 0 0 0zm88.5-75.5l-87.9 75 129.2-8-41.3-67z"/><path d="M303.2 112.5c-.1 0-.1 0-.2-.1 0-.1-.1-.1 0-.2l33.7-70.5c0-.1.1-.1.2-.1s.1 0 .2.1l40.2 52c0 .1.1.1 0 .2 0 .1-.1.1-.1.1l-74 18.5zm33.7-70.3L303.5 112l73.2-18.3-39.8-51.5z"/><path d="M303.2 112.5h-.1L206.6 50c-.1 0-.1-.1-.1-.2s.1-.1.2-.1l130.1-8.1c.1 0 .1 0 .2.1v.2l-33.7 70.5c0 .1 0 .1-.1.1zM207.4 50l95.7 62 33.5-70-129.2 8zM496.5-60.5l-41.6-63.9.3-.2 41.6 63.9zM150 293c-.1 0-.1 0-.1-.1 0 0-.1-.1 0-.2l17.7-64.1c0-.1.1-.1.1-.1.1 0 .1 0 .2.1l51 56.7c0 .1.1.1 0 .2 0 .1-.1.1-.2.1L150 293zm17.8-64l-17.6 63.5 68-7.3-50.4-56.2z"/><path d="M150 293c-.1 0-.1 0-.2-.1l-47.2-63.8c0-.1-.1-.1 0-.2 0-.1.1-.1.2-.1l64.9-.3c.1 0 .1 0 .2.1v.2l-17.7 64.1c-.1 0-.1.1-.2.1zm-46.8-63.8l46.7 63.2 17.6-63.5-64.3.3z"/><path d="M249.3 341.9s-.1 0 0 0L149.9 293c-.1 0-.1-.1-.1-.2s.1-.2.2-.2l68.7-7.4c.1 0 .2 0 .2.1l30.6 56.3v.2c-.1.1-.1.1-.2.1zm-98.6-49l98.2 48.4-30.3-55.7-67.9 7.3z"/><path d="M150 293h-.1L31.8 212.1c-.1-.1-.1-.2-.1-.2 0-.1.1-.1.2-.1l70.9 17s.1 0 .1.1l47.2 63.8c.1.1 0 .2 0 .2 0 .1-.1.1-.1.1zM32.9 212.4L149.1 292l-46.4-62.8-69.8-16.8z"/><path d="M115.9 311.8c-.1 0-.1 0-.2-.1l-84-99.6c-.1-.1-.1-.2 0-.3.1-.1.2-.1.3 0l118.1 80.8c.1 0 .1.1.1.2s0 .1-.1.2l-34.2 18.8c.1 0 .1 0 0 0zM33 213l83 98.4 33.6-18.6L33 213z"/><path d="M249.3 341.9l-76.7-4c-.1 0-.1 0-.2-.1l-22.6-44.9v-.2c.1-.1.1-.1.2 0l99.3 48.9c.1 0 .1.1.1.2.1.1 0 .1-.1.1zm-76.6-4.4l75.7 3.9-98-48.3 22.3 44.4z"/><path d="M172.6 337.9c-.1 0-.1 0 0 0l-56.7-26.2c-.1 0-.1-.1-.1-.2s0-.1.1-.2l34-18.8h.2c.1 0 .1.1.1.1l22.6 44.9v.2c-.1.2-.2.2-.2.2zm-56.2-26.3l55.8 25.8-22.3-44.3-33.5 18.5zm192.1 11.3c-.1 0-.1 0-.1-.1-.1-.1-.1-.2 0-.2l37.3-60.2c0-.1.1-.1.2-.1l72.8 5.9c.1 0 .2.1.2.2s0 .2-.1.2l-110.3 54.3c.1 0 .1 0 0 0zm37.4-60.2l-36.8 59.5 108.8-53.7-72-5.8z"/><path d="M308.5 322.9c-.1 0-.2-.1-.2-.1 0-.1 0-.2.1-.2l110.1-54.3c.1 0 .2 0 .2.1.1.1 0 .2 0 .3l-47.6 42h-.1l-62.5 12.2c.1 0 .1 0 0 0zm108.9-53.6l-107.5 53 61-11.9 46.5-41.1z"/><path d="M308.5 322.9h-.1L277.3 300c-.1 0-.1-.1-.1-.2s0-.1.1-.2l68.4-37.2h.2c.1.1.1.2 0 .2l-37.3 60.2c.1.1 0 .1-.1.1.1 0 .1 0 0 0zm-30.7-23.1l30.7 22.6 36.8-59.4-67.5 36.8z"/><path d="M249.3 341.9c-.1 0-.1 0-.2-.1s-.1-.2 0-.2l28.1-42 .1-.1h.1l31.1 22.9c.1 0 .1.1.1.2s-.1.1-.1.2l-59.2 19.1zm28.2-41.9l-27.7 41.3 58.3-18.7-30.6-22.6z"/><path d="M320.9 348.5s-.1 0 0 0c-.1 0-.2-.1-.2-.1l-12.3-25.6v-.2c0-.1.1-.1.1-.1l62.5-12.2c.1 0 .2 0 .2.1s0 .2-.1.2L321 348.5h-.1zm-12.1-25.7l12.1 25.2 49.3-37.2-61.4 12z"/><path d="M320.9 348.5l-71.6-6.6c-.1 0-.2-.1-.2-.2s0-.2.1-.2l59.2-19c.1 0 .2 0 .2.1l12.3 25.6v.2c.1.1 0 .1 0 .1zm-70.6-6.9l70.3 6.5-12.1-25.2-58.2 18.7z"/></g><path d="M507.2 276.9c-3.4 0-6.2-2.8-6.2-6.2 0-3.4 2.8-6.2 6.2-6.2 3.4 0 6.2 2.8 6.2 6.2 0 3.4-2.8 6.2-6.2 6.2zm0-11.7c-3 0-5.5 2.5-5.5 5.5s2.5 5.5 5.5 5.5 5.5-2.5 5.5-5.5c0-3.1-2.4-5.5-5.5-5.5zM48.5 342.4c-3.4 0-6.2-2.8-6.2-6.2 0-3.4 2.8-6.2 6.2-6.2 3.4 0 6.2 2.8 6.2 6.2 0 3.4-2.8 6.2-6.2 6.2zm0-11.7c-3 0-5.5 2.5-5.5 5.5s2.5 5.5 5.5 5.5 5.5-2.5 5.5-5.5-2.4-5.5-5.5-5.5z" opacity=".6" fill="#4A4A4A"/><g fill="#262626"><path d="M66.4 333.9c0 1.3-1.1 2.4-2.4 2.4-1.3 0-2.4-1.1-2.4-2.4 0-1.3 1.1-2.4 2.4-2.4 1.3 0 2.4 1 2.4 2.4zm352.5-1.2c0 1.3-1.1 2.4-2.4 2.4-1.3 0-2.4-1.1-2.4-2.4 0-1.3 1.1-2.4 2.4-2.4 1.3.1 2.4 1.1 2.4 2.4zm155-70.9c0 .9-.8 1.7-1.7 1.7s-1.7-.7-1.7-1.7c0-.9.8-1.7 1.7-1.7s1.7.8 1.7 1.7zm-20.7-131.5c0 1.3-1.1 2.4-2.4 2.4-1.3 0-2.4-1.1-2.4-2.4 0-1.3 1.1-2.4 2.4-2.4 1.3.1 2.4 1.1 2.4 2.4zm24.4-92c0 1.3-1.1 2.4-2.4 2.4-1.3 0-2.4-1.1-2.4-2.4 0-1.3 1.1-2.4 2.4-2.4 1.4 0 2.4 1.1 2.4 2.4zm-83.7 249.9c0 .9-.7 1.7-1.7 1.7-.9 0-1.7-.7-1.7-1.7 0-.9.7-1.7 1.7-1.7.9 0 1.7.8 1.7 1.7zM14.6 379.7c0 .9-.7 1.7-1.7 1.7-.9 0-1.7-.7-1.7-1.7 0-.9.7-1.7 1.7-1.7 1 .1 1.7.8 1.7 1.7z"/><circle cx="140.8" cy="356.2" r="1.7"/><path d="M473.7 338.6c0 .9-.7 1.7-1.7 1.7-.9 0-1.7-.8-1.7-1.7 0-.9.7-1.7 1.7-1.7s1.7.7 1.7 1.7zm91-309.8c0 .9-.7 1.7-1.7 1.7-.9 0-1.7-.8-1.7-1.7 0-.9.7-1.7 1.7-1.7s1.7.7 1.7 1.7zM344.5 403.2c0 .9-.7 1.7-1.7 1.7-.9 0-1.7-.7-1.7-1.7 0-.9.7-1.7 1.7-1.7s1.7.8 1.7 1.7zm151.7-164.9c0 .9-.7 1.7-1.7 1.7-.9 0-1.7-.7-1.7-1.7 0-.9.7-1.7 1.7-1.7.9 0 1.7.8 1.7 1.7zm99.7 54.5c0 1.3-1.1 2.4-2.4 2.4-1.3 0-2.4-1.1-2.4-2.4 0-1.3 1.1-2.4 2.4-2.4 1.3 0 2.4 1.1 2.4 2.4z"/></g><path d="M26.7 287.8h-4.3v-4.5h-.6v4.5h-4.3v.5h4.3v4.5h.6v-4.5h4.3zm380.4 56h-6.8v-7h-.8v7h-6.8v.8h6.8v7.1h.8v-7.1h6.8zm95.8-18.5h-4.4v-4.5h-.5v4.5h-4.4v.5h4.4v4.6h.5v-4.6h4.4zm-408.7 8.2h-4.4V329h-.5v4.5H85v.5h4.3v4.6h.5V334h4.4zM564.4 97.8h-6.8v-7h-.8v7H550v.7h6.8v7.1h.8v-7.1h6.8z" fill="#737373"/><defs><path id="c" d="M3.5 0h600v443.5H3.5z"/></defs><clipPath id="d"><use xlink:href="#c" overflow="visible"/></clipPath><g clip-path="url(#d)" fill="#B5B5B5"><path d="M431.6-31.2c-.1 0-.1 0 0 0l-123-29.2c-.1 0-.2-.1-.2-.2s.1-.2.2-.3l99.6-26.7c.1 0 .3 0 .3.2l23.3 55.8v.3c-.1.1-.2.1-.2.1zM309.8-60.6l121.4 28.8-23-55.1-98.4 26.3zM57.6 189.9c-.1 0-.2-.1-.2-.1v-.3l78.2-98.1c.1-.1.2-.1.3-.1.1 0 .2.1.2.2l9.2 93.8c0 .1 0 .1-.1.2 0 .1-.1.1-.2.1l-87.4 4.3zm77.9-97.7l-77.4 97.1 86.5-4.2-9.1-92.9z"/><path d="M144.9 185.6h-.1c-.1 0-.1-.1-.1-.2l-9.2-93.8c0-.1 0-.2.1-.2.1-.1.2-.1.2-.1l113.4 26.4c.1 0 .2.1.2.2s0 .2-.1.3l-104.2 67.4h-.2zM136 91.9l9.1 93 103.3-66.8L136 91.9zm-78.4 98c-.1 0-.2-.1-.3-.2L33.1 91.6c0-.1 0-.2.1-.3L77 67.2h.3c.1.1.1.2.1.3L57.8 189.6c0 .2-.1.3-.2.3zm-24-98.2l23.9 96.6L76.8 67.9 33.6 91.7z"/><path d="M57.6 189.9h-.1c-.1 0-.2-.2-.2-.3L76.9 67.3c0-.1.1-.1.1-.2h.2l58.6 24.1c.1 0 .1.1.2.2v.2l-78.2 98.1-.2.2zM77.4 67.8L58 188.7l77.3-97-57.9-23.9z"/><path d="M135.7 91.8L77.1 67.6c-.1 0-.2-.2-.2-.3l18-98.8c0-.1.1-.2.2-.2s.2.1.3.2l40.6 123c0 .1 0 .2-.1.3h-.2zM77.5 67.2L135.4 91 95.2-30.4 77.5 67.2z"/><path d="M95.2-31.2s-.1 0 0 0c-.1 0-.2-.1-.3-.2l-14.1-77.5c0-.1 0-.2.1-.2.1-.1.1-.1.2-.1l50.5 7.7c.1 0 .2.1.2.1v.2L95.4-31.3c-.1.1-.1.1-.2.1zm-13.8-77.4l13.9 76.3 35.8-68.8-49.7-7.5z"/><path d="M95.2-31.2c-.1 0-.2 0-.2-.1-.1-.1-.1-.2 0-.3l36.3-69.8c0-.1.1-.1.2-.1s.2 0 .2.1l72.3 58c.1.1.1.2.1.3 0 .1-.1.2-.2.2L95.2-31.2zm36.4-69.6l-36 69.1 107.5-11.7-71.5-57.4zm22.5 382.7c-.1 0-.1 0-.2-.1-.1 0-.1-.1-.1-.2l-9.2-96.3c0-.1 0-.2.1-.3.1-.1.2 0 .3 0l114.4 86.1c.1.1.1.2.1.3 0 .1-.1.2-.2.2l-105.2 10.3zm-8.9-96l9.1 95.5 104.3-10.1-113.4-85.4z"/><path d="M259.3 271.7c-.1 0-.1 0-.2-.1l-114.4-86.1c-.1-.1-.1-.1-.1-.2s0-.2.1-.2l104.2-67.4c.1-.1.2-.1.3 0 .1 0 .1.1.1.2l10.2 153.5c0 .1 0 .2-.1.2 0 .1-.1.1-.1.1zm-113.9-86.4L259 270.9l-10.1-152.5-103.5 66.9z"/><path d="M259.3 271.7c-.1 0-.1 0 0 0-.2 0-.3-.1-.3-.2L248.8 118c0-.1.1-.2.2-.3.1 0 .2 0 .3.1l71.7 79.1c.1.1.1.2 0 .3l-61.5 74.4c-.1.1-.2.1-.2.1zm-9.9-153l10.1 152.1 60.9-73.7-71-78.4z"/><path d="M259.3 271.7c-.1 0-.2 0-.2-.1-.1-.1 0-.2 0-.3l61.5-74.4c0-.1.1-.1.2-.1s.1 0 .2.1l52.8 54.2c.1.1.1.2.1.3 0 .1-.1.2-.2.2l-114.4 20.1zm61.5-74.3L259.9 271 373 251l-52.2-53.6zM9.4 60.9c-.1 0-.2-.1-.2-.2L-10.3 5.2c0-.1 0-.2.1-.3l43.4-26.5c.1-.1.2 0 .3 0 .1.1.1.2.1.3l-23.9 82c-.1.1-.2.2-.3.2zM-9.7 5.3L9.4 59.8l23.5-80.5-42.6 26z"/><path d="M33.3 91.8c-.1 0-.2 0-.2-.1L9.2 60.8c-.1-.1-.1-.2 0-.2l23.9-81.9c0-.1.2-.2.3-.2.1 0 .2.1.2.3V91.5c0 .1-.1.2-.3.3.1 0 .1 0 0 0zM9.7 60.5l23.4 30.2V-19.5l-23.4 80z"/><path d="M33.3 91.8h-.1c-.1 0-.1-.1-.1-.2V-21.3c0-.1.1-.2.2-.3.1 0 .2 0 .3.1l43.8 88.7c.1.1 0 .3-.1.3L33.4 91.8h-.1zm.3-112V91.1l43.2-23.8-43.2-87.5z"/><path d="M77.2 67.7c-.1 0-.2-.1-.2-.1L33.1-21.2v-.2c0-.1.1-.1.2-.1l61.8-10.1c.1 0 .2 0 .2.1.1.1.1.1.1.2l-18 98.8-.2.2zM33.7-21.1L77 66.6l17.8-97.7-61.1 10z"/><path d="M33.3-21.1c-.1 0-.2 0-.2-.1-.1-.1-.1-.2 0-.3L80.8-109c.1-.1.2-.2.3-.1.1 0 .2.1.2.2l14.1 77.5v.2c0 .1-.1.1-.2.1l-61.9 10zm47.6-87L33.8-21.7l61.1-10-14-76.4zM337.7 67.7h-.1c-.1 0-.1-.1-.1-.2l-29-128c0-.1 0-.2.1-.3.1-.1.2 0 .3 0L416.3 43.1c.1.1.1.2.1.2 0 .1-.1.2-.2.2l-78.5 24.2c.1-.1.1 0 0 0zM309.1-59.8l28.8 126.9 77.7-23.9-106.5-103z"/><path d="M416.1 43.5c-.1 0-.1 0-.2-.1L308.5-60.4c-.1-.1-.1-.2-.1-.3.1-.1.2-.2.3-.1l122.9 29.2c.1 0 .2.2.2.3l-15.4 74.7s-.1.1-.3.1c.1 0 .1 0 0 0zM309.5-60.1L416 42.7l15.3-74-121.8-28.8z"/><path d="M262.3 18.2c-.1 0-.1 0-.2-.1L203.6-43c-.1-.1-.1-.2-.1-.3 0-.1.1-.2.2-.2l104.9-17.4c.1 0 .2 0 .3.1.1.1.1.2 0 .3l-46.4 78.6c0 .1-.1.1-.2.1zm-58-61.2l57.9 60.6 45.9-77.8L204.3-43z"/><path d="M249.1 118.2h-.1c-.1-.1-.1-.2-.1-.2l13.2-100c0-.1.1-.2.2-.2h.3L338 67.2c.1 0 .1.1.1.2s-.1.2-.1.2l-88.6 50.5c-.2.1-.3.1-.3.1zm13.4-99.8l-13.1 99 87.8-50.1-74.7-48.9z"/><path d="M337.7 67.7h-.1l-75.4-49.4c-.1-.1-.2-.2-.1-.4l46.4-78.6c.1-.1.2-.1.3-.1.1 0 .2.1.2.2l29 128c0 .1 0 .2-.1.3-.1-.1-.1 0-.2 0zm-75.1-49.8l74.7 48.9-28.7-126.7-46 77.8z"/><path d="M308.7-60.3c-.1 0-.2-.1-.3-.2l-29-93.5c0-.1 0-.2.1-.3.1-.1.2-.1.3 0l58.1 33.9c.1.1.2.2.1.3l-29 59.6c-.1.1-.2.2-.3.2zm-28.6-93.3l28.7 92.2 28.7-58.8-57.4-33.4z"/><path d="M308.7-60.3c-.1 0-.2 0-.2-.1-.1-.1-.1-.2 0-.3l29-59.6c.1-.1.2-.2.3-.1l70.5 32.9c.1 0 .2.2.1.3 0 .1-.1.2-.2.2l-99.5 26.7c0-.1 0 0 0 0zm29.2-59.6L309.2-61l98.3-26.3-69.6-32.6zM203.8-43c-.1 0-.1 0-.2-.1l-72.3-58c-.1-.1-.1-.2-.1-.2 0-.1.1-.2.2-.2l70.6-30.2h.2c.1 0 .1.1.1.2l1.7 88.2c0 .1-.1.2-.1.2 0 .1 0 .1-.1.1zM132-101.1l71.6 57.4-1.7-87.2-69.9 29.8z"/><path d="M131.5-100.9c-.1 0-.1 0-.2-.1s-.1-.2 0-.3l43-67.8c0-.1.1-.1.2-.1s.2 0 .2.1l27.6 37.6c0 .1.1.1 0 .2 0 .1-.1.1-.1.2L131.6-101l-.1.1zm43-67.6l-42.4 66.8 69.5-29.7-27.1-37.1z"/><path d="M203.8-43c-.1 0-.1 0-.2-.1-.1 0-.1-.1-.1-.2l-1.7-88.2c0-.1.1-.2.1-.2h.3l106.6 70.8c.1.1.1.2.1.3 0 .1-.1.2-.2.2L203.8-43zm-1.4-87.9l1.7 87.4L308-60.8l-105.6-70.1z"/><path d="M202.1-131.1c-.1 0-.2 0-.2-.1l-27.6-37.6c-.1-.1-.1-.2 0-.3.1-.1.2-.1.3-.1l105.1 14.9c.1 0 .2.1.2.2s-.1.2-.2.3l-77.6 22.7zm-27-37.6l27.1 36.9 76.2-22.3-103.3-14.6z"/><path d="M308.7-60.3h-.1L202-131.1c-.1-.1-.1-.2-.1-.3 0-.1.1-.2.2-.2l77.5-22.7c.1 0 .3 0 .3.2l29 93.5c0 .1 0 .2-.1.3 0-.1-.1 0-.1 0zm-106-71l105.5 70.1-28.8-92.6-76.7 22.5zm118.1 328.6c-.1 0-.1 0-.2-.1l-71.7-79.1c-.1-.1-.1-.2 0-.3.1-.1.2-.2.3-.1l135.7 16.2c.1 0 .2.1.2.2s0 .2-.1.3l-64 62.9h-.2zm-71.1-79l71 78.4 63.4-62.3-134.4-16.1z"/><path d="M384.8 134.4l-135.7-16.2c-.1 0-.2-.1-.2-.2s0-.2.1-.3l88.6-50.5c.1-.1.3 0 .3.1L385 134c.1.1.1.2 0 .3 0 .1-.1.1-.2.1zm-134.9-16.6l134.3 16.1-46.6-66.1-87.7 50z"/><path d="M373.6 251.5c-.1 0-.1 0-.2-.1l-52.8-54.2c-.1-.1-.1-.3 0-.4l64-62.9c.1-.1.2-.1.3 0 .1 0 .2.2.1.3l-11.2 117.1c0 .1-.1.2-.2.2zm-52.5-54.4l52.2 53.6 11.1-115.9-63.3 62.3z"/><path d="M384.8 134.4c-.1 0-.2 0-.2-.1l-47.1-66.8c0-.1-.1-.2 0-.2 0-.1.1-.1.2-.2L416.1 43c.1 0 .2 0 .3.1.1.1.1.2.1.3L385 134.2c0 .1-.1.2-.2.2zm-46.6-66.9l46.6 66.1 31-89.9-77.6 23.8z"/><path d="M384.8 134.4c-.1 0-.1 0-.2-.1s-.1-.2-.1-.3l31.4-90.9c0-.1.1-.2.2-.2s.2 0 .2.1l38.8 52.1c0 .1.1.1.1.2s-.1.1-.1.2L385 134.4h-.2zm31.4-90.6l-31 89.8 69.3-38.4-38.3-51.4zM96.7 242.7c-.1 0-.2 0-.2-.1l-39.1-52.8c-.1-.1-.1-.2 0-.3s.1-.1.2-.1l87.4-4.3c.1 0 .2.1.2.1v.3L97 242.6c-.2 0-.2.1-.3.1zm-38.6-52.9L96.7 242l47.6-56.4-86.2 4.2z"/><path d="M154.1 281.9h-.1l-57.4-39.2c-.1 0-.1-.1-.1-.2s0-.1.1-.2l48.2-57.1c.1-.1.2-.1.3-.1.1 0 .2.1.2.2l9.2 96.3c0 .1 0 .2-.1.2-.2.1-.3.1-.3.1zm-57-39.5l56.7 38.8-9.1-95.1-47.6 56.3zm38.6-150.6c-.1 0-.2-.1-.2-.2l-40.6-123c0-.1 0-.2.1-.3.1-.1.2-.1.3 0l70.2 49.4c.1.1.1.2.1.3L136 91.6c-.1.1-.2.2-.3.2zm-40-122.6l40.1 121.5L165 18.1 95.7-30.8z"/><path d="M165.3 18.2h-.2L95-31.2c-.1-.1-.1-.2-.1-.3 0-.1.1-.2.2-.2l108.7-11.8c.1 0 .2 0 .2.1.1.1.1.2 0 .3l-38.5 61.2c0 .1 0 .1-.2.1.1 0 .1 0 0 0zM95.9-31.3l69.4 48.9 38-60.5L95.9-31.3z"/><path d="M249.1 118.2s-.1 0 0 0L135.7 91.8c-.1 0-.1-.1-.2-.1v-.2l29.6-73.6c0-.1.1-.1.2-.2.1 0 .2 0 .2.1l83.7 100c.1.1.1.2 0 .3.1.1 0 .1-.1.1zm-113-26.9l112.3 26.2-83-99-29.3 72.8z"/><path d="M262.3 18.2h-96.9c-.1 0-.2-.1-.2-.1v-.3l38.5-61.2c0-.1.1-.1.2-.1s.2 0 .2.1l58.5 61.2c.1.1.1.2.1.3-.2.1-.3.1-.4.1zm-96.5-.5h95.9l-57.8-60.5-38.1 60.5z"/><path d="M249.1 118.2c-.1 0-.1 0-.2-.1l-83.7-100c-.1-.1-.1-.2 0-.3 0-.1.1-.2.2-.2h96.9c.1 0 .1 0 .2.1 0 .1.1.1.1.2l-13.2 100c-.1.2-.1.3-.3.3zm-83.2-100l83 99.1L262 18.2h-96.1zm250.2 25.3c-.1 0-.1 0-.2-.1s-.1-.2-.1-.3l15.4-74.7c0-.1.1-.2.2-.2s.2 0 .3.1l46.7 50.9c.1.1.1.2.1.2 0 .1-.1.2-.2.2l-62.2 23.9c.1 0 .1 0 0 0zm15.6-74.4l-15.2 73.7 61.3-23.5-46.1-50.2z"/><path d="M454.9 95.6c-.1 0-.2 0-.2-.1l-38.8-52.1c-.1-.1-.1-.2 0-.2 0-.1.1-.1.2-.2l62.2-23.8c.1 0 .2 0 .3.1.1.1.1.2.1.3l-23.4 75.8-.4.2c.1 0 0 0 0 0zm-38.3-52.2l38.3 51.4L478 20l-61.4 23.4zM14.5-58.3c-.1 0-.1 0 0 0-.2 0-.2-.1-.3-.2l-5.3-31c0-.1 0-.1.1-.2 0-.1.1-.1.2-.1l37.6-2.1c.1 0 .2.1.3.2 0 .1 0 .2-.1.3l-32.3 33c-.1 0-.2.1-.2.1zm-5-31l5.1 30.1 31.5-32.2-36.6 2.1z"/><path d="M9.2-89.3c-.1 0-.2-.1-.2-.1v-.3l37.6-41.9c.1-.1.2-.1.3-.1.1 0 .2.1.2.2v39.8c0 .1-.1.3-.2.3L9.2-89.3zm37.3-41.4L9.8-89.8l36.7-2v-38.9z"/><path d="M46.8-91.3h-.1c-.1 0-.1-.1-.1-.2v-39.8c0-.1.1-.2.1-.2h.3L81.3-109c.1.1.1.1.1.2s-.1.2-.1.2L46.9-91.4l-.1.1zm.2-39.6V-92l33.5-16.9-33.5-22z"/><path d="M81-108.6h-.1l-34.3-22.5c-.1-.1-.1-.2-.1-.3 0-.1.1-.2.2-.2l68.5-19.2c.1 0 .2 0 .3.1.1.1.1.2 0 .3l-34.3 41.7s-.1.1-.2.1zm-33.6-22.7L81-109.2l33.6-40.9-67.2 18.8zm-57.5 77c-.1 0-.2 0-.2-.1-.1-.1-.1-.2 0-.3l19.2-35c.1-.1.2-.1.3-.1.1 0 .2.1.2.2l5.3 30.9v.2c0 .1-.1.1-.2.1l-24.6 4.1c.1 0 .1 0 0 0zM9-88.7L-9.6-54.9l23.7-3.9L9-88.7z"/><path d="M-34 20.9h-.1c-.1-.1-.2-.2-.1-.3l24-75.2c0-.1.1-.2.2-.2l24.5-4c.1 0 .2 0 .3.1.1.1.1.2 0 .3l-48.5 79.2c-.1 0-.2.1-.3.1zm24.1-75.2l-23.2 73 47-76.9-23.8 3.9z"/><path d="M-19 95.6c-.1 0-.1 0 0 0l-21.7-8.3c-.1 0-.2-.2-.2-.3l6.6-66.4c0-.1.1-.2.2-.2s.2.1.3.2l15 74.7c0 .1 0 .2-.1.3 0-.1-.1 0-.1 0zm-21.3-8.8l21 8.1-14.6-72.5-6.4 64.4z"/><path d="M-34 119.7c-.2 0-.2-.1-.3-.2l-6.6-32.4c0-.1 0-.2.1-.3.1-.1.2-.1.3 0l21.6 8.3c.1 0 .1.1.2.2v.2l-15 24.1c-.1.1-.2.1-.3.1zm-6.3-32.3l6.4 31.3 14.5-23.3-20.9-8zm87.1-218.5c-.1 0-.2-.1-.2-.1-.1-.1 0-.2.1-.3l42.8-36.8c.1-.1.2-.1.3 0l25.8 17.5c.1.1.1.2.1.3 0 .1-.1.2-.2.2l-68.7 19.2zm42.7-36.8L47.8-132l66.9-18.8-25.2-17.1z"/><path d="M115.3-150.4h-.1L89.4-168c-.1-.1-.1-.1-.1-.2s.1-.2.2-.2l92.4-37.3c.1 0 .3 0 .3.1.1.1 0 .3-.1.3l-66.6 54.8c-.1.1-.1.1-.2.1zm-25.2-17.7l25.2 17.2 65.2-53.6-90.4 36.4z"/><path d="M115.3-150.4c-.1 0-.2-.1-.2-.1-.1-.1 0-.2.1-.3l66.6-54.8c.1-.1.2-.1.3 0 .1.1.1.2.1.3l-7.4 36.5c0 .1-.1.2-.2.2l-59.3 18.2c.1 0 0 0 0 0zm66.2-54.4l-65 53.5 57.8-17.9 7.2-35.6z"/><path d="M174.5-168.7c-.1 0-.1 0-.2-.1s-.1-.2-.1-.3l7.4-36.5c0-.1.1-.1.1-.2.1 0 .1-.1.2 0l46 12.2c.1 0 .2.1.2.2s-.1.2-.2.3l-53.4 24.3c.1.1.1.1 0 .1zm7.6-36.4l-7.3 35.7 52.3-23.8-45-11.9zM97.6 300.8c-.1 0-.1 0 0 0l-40.9-14c-.1 0-.1-.1-.2-.2v-.2l9.8-12.8c0-.1.1-.1.2-.1s.1 0 .2.1l31.1 26.8c.1.1.1.2.1.3-.2 0-.2.1-.3.1zm-40.4-14.4l39.2 13.4-29.8-25.7-9.4 12.3z"/><path d="M56.8 286.8c-.1 0-.2 0-.2-.1L-.2 216.2c-.1-.1-.1-.2 0-.3.1-.1.2-.1.3 0l33.3 22.6.1.1L57 286.4c.1.1 0 .3-.1.3l-.1.1zM1.3 217.2l54.2 67.4-22.4-45.7-31.8-21.7z"/><path d="M56.8 286.8c-.1 0-.1 0 0 0-.1 0-.2-.1-.2-.1l-23.4-47.9c-.1-.1 0-.3.1-.3.1-.1.2-.1.3 0l33.2 35.1c.1.1.1.2 0 .3L57 286.7c-.1.1-.2.1-.2.1zm-22.5-46.7l22.5 46 9.4-12.3-31.9-33.7z"/><path d="M66.5 274c-.1 0-.1 0-.2-.1l-33.2-35.1c-.1-.1-.1-.2 0-.3l24.2-49c.1-.1.2-.2.3-.1.1 0 .2.1.2.2l9 84.1c0 .1 0 .2-.2.3h-.1zm-32.9-35.4L66.2 273l-8.8-82.5-23.8 48.1zm-25.7-53c-.1 0-.2-.1-.2-.2l-26.9-90v-.2L9.2 60.4c.1-.1.2-.1.3-.1.1 0 .2.1.2.2L8.1 185.3c0 .2-.1.3-.2.3zm-26.6-90.2l26.3 88.3L9.1 61.3l-27.8 34.1z"/><path d="M33.3 238.9h-.1L-.1 216.3c-.1-.1-.1-.2-.1-.3l7.9-30.7c0-.1.1-.2.2-.2s.2 0 .3.1l25.5 53.3c.1.1 0 .2-.1.3-.2.1-.2.1-.3.1zm-33-23l32.4 22-24.8-51.8-7.6 29.8z"/><path d="M33.3 238.9c-.1 0-.2-.1-.2-.1L7.6 185.4v-.3c.1-.1.1-.1.2-.1l49.7 4.3c.1 0 .2.1.2.1v.2l-24.2 49c0 .2-.1.3-.2.3zm-25-53.3l25 52.4 23.8-48.2-48.8-4.2z"/><path d="M7.9 185.6c-.1 0-.1 0 0 0-.2 0-.3-.1-.3-.3L9.2 60.6c0-.1.1-.2.2-.2s.2 0 .3.1l23.9 30.9c.1.1.1.1 0 .2L8.1 185.4c0 .1-.1.2-.2.2zM9.7 61.4L8.1 183.3 33 91.6 9.7 61.4z"/><path d="M57.6 189.9c-.1 0-.1 0 0 0l-49.7-4.3c-.1 0-.1 0-.2-.1 0-.1-.1-.1 0-.2l25.5-93.8c0-.1.1-.2.3-.2.1 0 .2.1.2.2l24.2 98.1c0 .1 0 .2-.1.2s-.2.1-.2.1zm-49.4-4.8l49 4.2-23.9-96.7-25.1 92.5zm123.3-286L81-108.6c-.1 0-.2-.1-.2-.2v-.3l34.3-41.7c.1-.1.2-.1.2-.1.1 0 .2.1.2.2l16.2 49.4v.2c-.1.1-.1.2-.2.2zm-50-8.2l49.6 7.6-15.9-48.6-33.7 41z"/><path d="M131.5-100.9c-.1 0-.2-.1-.2-.2l-16.2-49.4v-.2c0-.1.1-.1.2-.1l59.2-18.4c.1 0 .2 0 .3.1.1.1.1.2 0 .3l-43 67.8c-.1 0-.2.1-.3.1zm-15.9-49.6l15.9 48.7 42.4-66.7-58.3 18zM-19 95.6c-.1 0-.2-.1-.3-.2l-15-74.7c0-.1 0-.2.1-.3l24-15.5c.1-.1.2-.1.3 0 .1.1.1.2.1.3l-9 90.2c0 .1-.1.2-.2.2zm-14.7-74.9l14.6 72.8 8.7-87.9-23.3 15.1z"/><path d="M-34 20.9c-.1 0-.1 0-.2-.1s-.1-.2 0-.3l48.5-79.2c.1-.1.2-.2.3-.1.1.1.2.2.1.3L-9.8 5.2c0 .1-.1.1-.1.1l-24 15.5c0 .1-.1.1-.1.1zM13.2-56l-46.4 75.8L-10.3 5l23.5-61z"/><path d="M-19 95.6c-.1 0-.1 0 0 0-.2-.1-.3-.2-.3-.3l9-90.2c0-.1.1-.2.2-.2s.2.1.3.2L9.7 60.5v.3l-28.4 34.7c-.2 0-.2.1-.3.1zm9.1-89.3l-8.8 88.1L9.1 60.6l-19-54.3z"/><path d="M-10.1 5.4h-.1c-.1-.1-.2-.2-.1-.3l24.5-63.7s0-.1.1-.1l32.3-33c.1-.1.2-.1.3 0 .1.1.1.2.1.3L-9.8 5.3c-.1.1-.2.1-.3.1zm24.8-63.9L-8.7 2.3l54.1-92.2-30.7 31.4zm112.2 389.8h-.1l-70.1-44.5c-.1-.1-.2-.2-.1-.3.1-.1.2-.2.3-.1l40.8 14s.1 0 .1.1l29.3 30.6c.1.1.1.2 0 .3-.1-.1-.2-.1-.2-.1zm-68.2-43.8l66.4 42.2-27.8-29-38.6-13.2z"/><path d="M-10.1 5.4c-.1 0-.1 0-.2-.1s-.1-.2 0-.3l56.8-96.8c.1-.1.2-.2.3-.1.1 0 .2.2.2.3L33.6-21.3c0 .1-.1.1-.1.2L-9.9 5.4h-.2zm56.3-95.6L-9.3 4.4l42.4-25.9 13.1-68.7z"/><path d="M33.3-21.1c-.2-.1-.3-.2-.3-.3l13.5-70.3c0-.1.1-.1.1-.2l34.3-17.3c.1-.1.2 0 .3.1.1.1.1.2 0 .3L33.5-21.2c0 .1-.1.1-.2.1zM47-91.4L33.9-22.9l46.5-85.4L47-91.4zM66.5 274c-.2 0-.2-.1-.3-.2l-9-84.1c0-.1.1-.2.2-.3.1 0 .2 0 .3.1l39.1 52.8c.1.1.1.2 0 .3l-30.2 31.3c.1.1 0 .1-.1.1zm-8.6-83.5l8.8 82.6 29.6-30.7-38.4-51.9z"/><path d="M97.6 300.8c-.1 0-.1 0-.2-.1l-31.1-26.8c-.1 0-.1-.1-.1-.2s0-.1.1-.2l30.2-31.3c.1-.1.2-.1.3-.1.1 0 .2.1.2.2l.9 58.1c0 .1-.1.2-.2.2l-.1.2zm-30.7-27.1l30.4 26.2-.9-56.9-29.5 30.7z"/><path d="M97.6 300.8c-.1 0-.1 0-.2-.1-.1 0-.1-.1-.1-.2l-.9-58.1c0-.1.1-.2.1-.2h.3l57.4 39.2c.1.1.1.2.1.2 0 .1-.1.2-.2.2l-56.5 19zm-.6-57.9l.9 57.2 55.7-18.6L97 242.9zm-114.6-61.3c-.1 0-.2-.1-.3-.2l-16.4-61.9v-.2l15-24.1c.1-.1.2-.1.3-.1.1 0 .2.1.2.2l1.4 86c.1.1 0 .2-.2.3zm-16.1-62.1l15.8 59.7-1.4-83-14.4 23.3z"/><path d="M7.9 185.6c-.1 0-.1 0 0 0l-25.5-4c-.1 0-.2-.1-.2-.3l-1.4-86c0-.1.1-.2.2-.3.1 0 .3.1.3.2l26.9 90c0 .1 0 .2-.1.2-.1.2-.2.2-.2.2zm-25.2-4.5L7.5 185l-26.2-87.8 1.4 83.9z"/><path d="M0 216.3c-.1 0-.2-.1-.2-.1l-17.6-34.7v-.3c.1-.1.2-.1.2-.1l25.5 4c.1 0 .1.1.2.1 0 .1.1.1 0 .2L.2 216.1c0 .1-.1.2-.2.2zm-17.1-34.7L0 215.2l7.6-29.7-24.7-3.9zm186.6 149.7h-42.6c-.1 0-.1 0-.2-.1l-29.3-30.6c-.1-.1-.1-.2 0-.3.1-.1.2-.1.3-.1l71.9 30.6c.1.1.2.2.2.3-.1.1-.2.2-.3.2zm-42.5-.5h41.2l-69.6-29.6 28.4 29.6z"/><path d="M169.5 331.3h-.1l-71.9-30.6c-.1 0-.2-.1-.2-.2s.1-.2.2-.2l56.5-18.9h.2c.1 0 .1.1.1.2l15.4 49.4c0 .1 0 .2-.1.3h-.1zm-71.2-30.8l70.8 30.1-15.2-48.6-55.6 18.5z"/><path d="M203.8 355.1l-77-23.8c-.1 0-.2-.2-.2-.3 0-.1.1-.2.3-.2h42.7l34.3 23.8c.1.1.1.2.1.3 0 .1-.1.2-.2.2zm-75.2-23.8l73.7 22.8-32.9-22.8h-40.8zM-10.342-54.627l.477.151-23.91 75.19-.476-.151z"/><path d="M228-193c-.1 0-.1 0 0 0l-46.1-12.2c-.1 0-.2-.2-.2-.3 0-.1.1-.2.3-.2l113.2-3c.1 0 .2.1.3.2 0 .1-.1.3-.2.3L228-193zm-44.2-12.2l44.2 11.7 64.5-14.6-108.7 2.9zm20 560.3c-.1 0-.2-.1-.3-.2 0-.1 0-.3.2-.3l49.8-17.1h.1l67.1 11.1c.1 0 .2.1.2.3 0 .1-.1.2-.2.2l-116.9 6zm49.8-17.1l-48 16.5 112.7-5.8-64.7-10.7z"/><path d="M203.8 355.1v-.5l116.9-6 95.8-48.3.2.5-95.8 48.2h-.1l-117 6.1zm49.8-17.1h-.1L154 281.9c-.1-.1-.2-.2-.1-.3 0-.1.1-.2.2-.2l105.2-10.2c.1 0 .2 0 .2.1.1.1.1.1.1.2l-5.7 66.3c0 .1-.1.2-.1.2h-.2zm-98.7-56.2l98.4 55.5 5.6-65.5-104 10z"/><path d="M203.8 355.1h-.1l-34.3-23.8c-.1-.1-.1-.2-.1-.3 0-.1.2-.2.3-.2l84.1 6.7c.1 0 .2.1.2.2s-.1.2-.2.3l-49.9 17.1c.1 0 0 0 0 0zm-33.4-23.7l33.4 23.1 48.5-16.7-81.9-6.4z"/><path d="M253.6 338l-84.1-6.7c-.1 0-.2-.1-.2-.2l-15.4-49.4c0-.1 0-.2.1-.3.1-.1.2-.1.3 0l99.5 56.1c.1.1.2.2.1.3-.1.1-.2.2-.3.2zm-83.9-7.2l82.8 6.6-97.9-55.2 15.1 48.6zm129.6-512.9c-.1 0-.1 0 0 0L227.9-193c-.1 0-.2-.1-.2-.2s.1-.2.2-.3l67.1-15.2h.2c.1 0 .1.1.1.2l4.1 26.2c0 .1 0 .2-.1.2.1 0 0 0 0 0zm-69.9-11.2l69.6 10.7-4-25.5-65.6 14.8z"/><path d="M361.3-168.7L299.2-182c-.1 0-.2-.1-.2-.2l-4.1-26.2c0-.1 0-.2.1-.3.1-.1.2-.1.3 0l66.2 39.5c.1.1.2.2.1.3-.1.1-.2.2-.3.2zm-61.8-13.8l60.3 13-64.3-38.5 4 25.5z"/><path d="M404.4-165l-43.1-3.8h-.1L295-208.3c-.1-.1-.2-.2-.1-.3.1-.1.2-.2.3-.1l109.3 43.3c.1 0 .2.2.2.3-.1.1-.2.1-.3.1zm-43-4.2l41.2 3.6L298-207l63.4 37.8zm70.2 138c-.1 0-.2-.1-.2-.2L408-87.2v-.2c0-.1.1-.1.2-.1l50.5-2.3c.1 0 .2 0 .2.1.1.1.1.2 0 .3l-27.2 58.1c0 .1 0 .1-.1.1zM408.7-87l22.9 54.9 26.7-57.2-49.6 2.3zm-234.2-81.7c-.1 0-.2-.1-.2-.2s0-.3.1-.3l53.4-24.3h.1l71.3 10.9c.1 0 .2.1.2.3 0 .1-.1.2-.2.3l-124.7 13.3zM228-193l-51.9 23.6 121.1-12.9L228-193z"/><path d="M279.6-153.9l-105.2-14.9c-.1 0-.2-.1-.2-.3s.1-.2.2-.3l124.7-13.3c.1 0 .2 0 .3.1.1.1 0 .2 0 .3L279.9-154c-.1.1-.2.1-.3.1zm-103-15.1l102.9 14.6 19.2-27.6-122.1 13zm282.1 79.7c-.1 0-.2 0-.2-.1l-54.4-75.7c-.1-.1-.1-.3 0-.3.1-.1.2-.1.3 0l49.9 40.7c.1 0 .1.1.1.2l4.4 35c.2.1.1.2-.1.2.1 0 .1 0 0 0zm-53-74.5l52.6 73.3-4.3-33.8-48.3-39.5zm123.3 282c-.1 0-.2-.1-.2-.2l-10.9-26.7v-.2l12.7-48c0-.1.1-.2.3-.2.1 0 .2.1.2.3l-1.7 74.7c-.2.2-.3.3-.4.3zm-10.7-26.9l10.4 25.4 1.7-71.2-12.1 45.8zM416.6 300.8c-.1 0-.1 0-.2-.1l-12.9-12.8c-.1-.1-.1-.1-.1-.2s.1-.2.1-.2l67.1-40.7c.1-.1.3 0 .3.1.1.1.1.3 0 .3l-54.2 53.6c0-.1-.1 0-.1 0zm-12.5-13.1l12.4 12.4 52.4-51.8-64.8 39.4z"/><path d="M326.8 320.9c-.1 0-.1 0-.2-.1s-.1-.2 0-.3l46.8-69.3c0-.1.1-.1.2-.1s.2 0 .2.1l30.1 36.4c.1.1.1.1.1.2s-.1.1-.2.2l-76.9 32.9h-.1zm46.8-69.2L327.5 320l75.8-32.5-29.7-35.8z"/><path d="M320.8 349.1c-.1 0-.1 0 0 0L253.6 338c-.1 0-.2-.1-.2-.2s.1-.2.2-.3l73.2-17.1c.1 0 .2 0 .2.1.1.1.1.2.1.2l-6 28.2c-.1.1-.2.2-.3.2zm-65.9-11.4l65.6 10.8 5.9-27.5-71.5 16.7z"/><path d="M320.8 349.1h-.1c-.1-.1-.1-.2-.1-.3l6-28.2c0-.1.1-.2.2-.2l76.9-32.9c.1-.1.3 0 .3.1.1.1 0 .3-.1.3l-83 61.1-.1.1zm6.2-28.3l-5.9 27.4 80.6-59.4-74.7 32z"/><path d="M320.8 349.1c-.1 0-.2 0-.2-.1-.1-.1 0-.3.1-.3l82.9-61.1c.1-.1.2-.1.3 0l12.9 12.8c.1.1.1.1.1.2s-.1.2-.1.2L320.9 349c-.1 0-.1.1-.1.1zm82.9-61.1l-80.3 59.1 92.7-46.7-12.4-12.4zM518 91.5c-.1 0-.2-.1-.3-.2l-4.4-55.6c0-.1 0-.2.1-.2.1-.1.2-.1.3 0l17.1 7.5c.1.1.2.2.1.3l-12.7 48c.1.2 0 .2-.2.2zm-4.1-55.4l4.3 53.6 12.2-46.3-16.5-7.3z"/><path d="M530.7 43.5h-.1L513.5 36c-.1-.1-.2-.2-.1-.3l7.1-32.1c0-.1.1-.2.2-.2s.2.1.3.2l10 39.6c0 .1 0 .2-.1.3h-.2zm-16.8-7.9l16.4 7.2-9.6-38-6.8 30.8z"/><path d="M483.3 162.7c-.2-.1-.3-.2-.3-.3l30.3-126.7c0-.1.1-.2.3-.2.1 0 .2.1.2.2l4.4 55.6v.1l-34.7 71.2c0 .1-.1.1-.2.1zm30.2-125.3l-29.4 122.8 33.6-69-4.2-53.8zM403.7 287.9c-.1 0-.2 0-.2-.1l-30.1-36.4c-.1-.1-.1-.2 0-.2 0-.1.1-.1.2-.2l85.2-19.6c.1 0 .2 0 .3.1.1.1 0 .2 0 .3l-55 56c-.3.1-.3.1-.4.1zM374 251.4l29.7 35.8 54.2-55.2-83.9 19.4z"/><path d="M373.6 251.5c-.1 0-.2-.1-.2-.1-.1-.1 0-.2.1-.3l109.8-88.8c.1-.1.2-.1.3 0 .1.1.1.2.1.3L459 231.8c0 .1-.1.1-.2.2l-85.2 19.5zm109.2-88.3l-108.2 87.5 83.9-19.3 24.3-68.2z"/><path d="M403.7 287.9c-.1 0-.2 0-.2-.1-.1-.1-.1-.2 0-.3l55-56c.1-.1.1-.1.2-.1s.1 0 .2.1l12 15.3c0 .1.1.1.1.2s-.1.1-.1.2l-67.1 40.7h-.1zm55-55.8l-53.4 54.3 65-39.5-11.6-14.8zM253.6 338c-.1 0-.1 0-.2-.1s-.1-.1-.1-.2l5.7-66.3c0-.1.1-.2.2-.2h.3l67.5 49.2c.1.1.1.2.1.3s-.1.2-.2.2L253.6 338c.1 0 0 0 0 0zm5.9-66.1l-5.6 65.4 72.3-16.9-66.7-48.5z"/><path d="M326.8 320.9c-.1 0-.1 0-.2-.1l-67.5-49.2c-.1-.1-.1-.2-.1-.3 0-.1.1-.2.2-.2L373.5 251c.1 0 .2 0 .3.1.1.1.1.2 0 .3L327 320.8s-.1.1-.2.1zm-66.9-49.3l66.8 48.6 46.3-68.6-113.1 20zm77.8-391.5h-.1l-58.1-33.9c-.1 0-.1-.1-.1-.2v-.2l19.6-28.2c.1-.1.1-.1.2-.1s.2 0 .2.1l38.5 62.1c.1.1 0 .2 0 .3 0 0-.1.1-.2.1zM280-154.2l57 33.2-37.7-60.9-19.3 27.7zm216.5 93.9c-.1 0-.1 0-.2-.1l-37.8-28.9c-.1 0-.1-.1-.1-.2l-4.4-35c0-.1.1-.2.2-.3.1 0 .2 0 .3.1l42.2 63.9c.1.1.1.2 0 .3 0 .1-.1.2-.2.2zM459-89.7l36.5 27.9-40.8-61.6 4.3 33.7zm54.9 258.2c-.2 0-.3-.1-.3-.3l4.1-77c0-.1.1-.2.2-.2s.2 0 .3.2l10.9 26.7v.2L514 168.4c.1 0 0 .1-.1.1zm4.3-76l-4 73.6 14.4-48.1-10.4-25.5z"/><path d="M458.7 231.9h-.1c-.1-.1-.2-.2-.1-.3l24.6-69.2c0-.1.2-.2.3-.2l30.5 5.8c.1 0 .2.1.2.2s0 .2-.1.3l-55.2 63.4h-.1zm24.8-69.2l-24.1 67.7 54-62.1-29.9-5.6z"/><path d="M470.8 247.2c-.1 0-.2 0-.2-.1l-12-15.3c-.1-.1-.1-.2 0-.3l55.2-63.4c.1-.1.2-.1.3 0 .1.1.1.2.1.3L471 247.1c-.1 0-.1.1-.2.1zm-11.7-15.5l11.7 14.8 41.8-76.2-53.5 61.4z"/><path d="M513.9 168.5l-30.6-5.8c-.1 0-.1-.1-.2-.1v-.2l34.7-71.2c.1-.1.2-.2.3-.1.1 0 .2.1.2.3l-4.1 77c0 .1 0 .1-.1.2-.1-.1-.2-.1-.2-.1zm-30.2-6.2l29.9 5.7 4.1-75.4-34 69.7z"/><path d="M373.6 251.5h-.1c-.1-.1-.1-.2-.1-.3l11.2-117.1c0-.1 0-.1.1-.2.1 0 .1-.1.2 0l98.5 28.3c.1 0 .2.1.2.2s0 .2-.1.3l-109.8 88.8h-.1zm11.4-117l-11.1 116.2 108.9-88.1-97.8-28.1z"/><path d="M483.3 162.7l-98.6-28.3c-.1 0-.2-.1-.2-.2s0-.2.1-.3L454.7 95h.2c.1 0 .1.1.2.1l28.4 67.1v.3c0 .2-.1.2-.2.2zm-97.8-28.6l97.4 28-28.1-66.4-69.3 38.4zM513.6 36c-.1 0-.2-.1-.3-.2l-12.6-61.1c0-.1 0-.2.2-.3.1 0 .2 0 .3.1l19.6 29c0 .1.1.1 0 .2l-7.1 32.1c.2.1 0 .2-.1.2zm-12-60.2l12 58.6 6.8-30.8-18.8-27.8z"/><path d="M520.7 3.9c-.1 0-.2 0-.2-.1l-19.6-29v-.1l-4.5-35.2c0-.1.1-.3.2-.3s.3 0 .3.2L521 3.7c.1.1 0 .3-.1.3-.1-.1-.2-.1-.2-.1zm-19.4-29.4l18.3 27.2L497-58.4l4.3 32.9z"/><path d="M501.1-25.1c-.1 0-.2 0-.2-.1l-42.3-64.1c-.1-.1-.1-.2 0-.3.1-.1.2-.1.3 0l37.8 28.9c.1 0 .1.1.1.2l4.5 35.2s0 .1-.2.2zm-41.3-63.3l40.9 61.9-4.4-34-36.5-27.9z"/><path d="M478.3 19.7c-.1 0-.1 0-.2-.1l-46.7-50.9c-.1-.1-.1-.2 0-.3l27.2-58.1c0-.1.2-.2.3-.1.1 0 .2.1.2.2l19.6 109c0 .1 0 .2-.1.3h-.3zm-46.4-51.2l46 50.1-19.3-107.3-26.7 57.2z"/><path d="M483.3 162.7c-.1 0-.2-.1-.2-.2l-28.4-67.1v-.2L478 19.4c0-.1.2-.2.3-.2.1 0 .2.1.2.2l5 143c.1.2 0 .3-.2.3.1 0 .1 0 0 0zm-28.1-67.4L483 161l-4.9-140-22.9 74.3z"/><path d="M483.3 162.7c-.2 0-.3-.1-.3-.3l-5-143c0-.1 0-.2.1-.2s.2-.1.3 0l35.3 16.3c.1.1.2.2.1.3l-30.3 126.7c.1.1 0 .2-.2.2zm-4.7-142.8l5 140.7 29.8-124.7-34.8-16z"/><path d="M478.3 19.7c-.2 0-.2-.1-.3-.2l-19.6-109c0-.1 0-.2.2-.3.1 0 .2 0 .3.1l42.3 64.1c.1.1.1.2 0 .3l-22.8 44.9c.1.1 0 .1-.1.1zm-19.1-108l19.2 107 22.3-44-41.5-63z"/><path d="M513.6 36h-.1l-35.3-16.3c-.1 0-.1-.1-.1-.2v-.2l22.8-44.9c.1-.1.2-.2.3-.1.1 0 .2.1.2.2L514 35.6c0 .1 0 .2-.1.3-.2 0-.2.1-.3.1zm-34.9-16.7l34.6 15.9L501-24.6l-22.3 43.9zm-141-139.2c-.1 0-.2 0-.2-.1L299-182.2c-.1-.1 0-.2 0-.3.1-.1.2-.1.3-.1l109 56.4c.1.1.2.2.1.3 0 .1-.1.2-.2.2l-70.5 5.8zM300-181.7l37.9 61.2 69.5-5.6L300-181.7z"/><path d="M408.3-125.7h-.1l-109-56.4c-.1-.1-.2-.2-.1-.3 0-.1.2-.2.3-.2l62.1 13.3s.1 0 .1.1l47 43.1c.1.1.1.2 0 .3-.2.1-.2.1-.3.1zm-107.2-56l105.5 54.6-45.5-41.7-60-12.9z"/><path d="M408.3-87h-.1l-70.6-33c-.1-.1-.2-.2-.1-.3 0-.1.1-.2.2-.2l70.5-5.7c.1 0 .1 0 .2.1s.1.1.1.2v38.7c0 .1 0 .2-.1.2h-.1zm-69.6-33L408-87.7v-38l-69.3 5.7z"/><path d="M408.3-87c-.1 0-.1 0-.2-.1-.1 0-.1-.1-.1-.2V-126c0-.1.1-.2.1-.2h.3l50.5 36.4c.1.1.1.2.1.3 0 .1-.1.2-.2.2L408.3-87zm.2-38.4v37.9l49.4-2.2-49.4-35.7z"/><path d="M408.3-125.7c-.1 0-.1 0-.2-.1l-47-43.1c-.1-.1-.1-.2-.1-.3 0-.1.2-.2.3-.2l43.1 3.8c.1 0 .2.1.2.2l3.9 39.3c0 .1 0 .2-.1.3l-.1.1zm-46.3-43l45.9 42.1-3.8-38.4-42.1-3.7z"/><path d="M458.7-89.3h-.2L408-125.7c-.1 0-.1-.1-.1-.2l-3.9-39.3c0-.1.1-.2.2-.3.1 0 .2 0 .3.1l54.4 75.7c.1.1.1.2 0 .3 0 .1-.1.1-.2.1zm-50.2-36.8l49.1 35.4-52.9-73.6 3.8 38.2zM77.2 63.5c-2.2 0-3.9 1.8-3.9 3.9s1.8 3.9 3.9 3.9c2.2 0 3.9-1.8 3.9-3.9s-1.8-3.9-3.9-3.9z"/><circle cx="202.1" cy="-131.4" r="3"/><path d="M308.7-63.6c-1.6 0-3 1.3-3 3 0 1.6 1.3 3 3 3 1.6 0 3-1.3 3-3-.1-1.6-1.4-3-3-3zm12.1 264.2c1.9 0 3.5-1.6 3.5-3.5s-1.6-3.5-3.5-3.5-3.5 1.6-3.5 3.5 1.5 3.5 3.5 3.5zm16.9-135.8c-1.5 0-2.6 1.2-2.6 2.6 0 1.5 1.2 2.6 2.6 2.6 1.5 0 2.6-1.2 2.6-2.6.1-1.5-1.1-2.6-2.6-2.6z"/><circle cx="144.9" cy="185.3" r="2.5"/><path d="M98-31.4c0-1.5-1.3-2.8-2.8-2.8-1.5 0-2.8 1.3-2.8 2.8 0 1.5 1.3 2.8 2.8 2.8 1.5 0 2.8-1.3 2.8-2.8z"/><circle cx="135.7" cy="91.5" r="4.2"/><circle cx="203.8" cy="-43.2" r="3.2"/><circle cx="165.3" cy="18" r="3.8"/><circle cx="262.3" cy="18" r="2.6"/><circle cx="249.1" cy="117.9" r="2.6"/><path d="M416.1 45.4c1.2 0 2.2-1 2.2-2.2 0-1.2-1-2.2-2.2-2.2-1.2 0-2.2 1-2.2 2.2 0 1.3 1 2.2 2.2 2.2z"/><circle cx="9.2" cy="-89.5" r="2.8"/><circle cx="-40.6" cy="87" r="2.7"/><circle cx="46.8" cy="-131.4" r="3.6"/><circle cx="89.5" cy="-168.2" r="2.7"/><path d="M33.3 234.7c-2.2 0-3.9 1.7-3.9 3.9s1.7 3.9 3.9 3.9 3.9-1.7 3.9-3.9c0-2.1-1.7-3.9-3.9-3.9zm0-145.4c-1.2 0-2.2 1-2.2 2.2 0 1.2 1 2.2 2.2 2.2 1.2 0 2.2-1 2.2-2.2.1-1.2-.9-2.2-2.2-2.2z"/><circle cx="131.5" cy="-101.2" r="2.2"/><circle cx="115.3" cy="-150.6" r="3.8"/><circle cx="9.4" cy="60.6" r="4.1"/><circle cx="14.5" cy="-58.6" r="4.1"/><path d="M56.8 284.1c-1.4 0-2.5 1.1-2.5 2.5s1.1 2.5 2.5 2.5 2.5-1.1 2.5-2.5c-.1-1.4-1.2-2.5-2.5-2.5z"/><circle cx="-10.1" cy="5.2" r="3.6"/><path d="M33.3-25.4c-2.3 0-4.1 1.8-4.1 4.1 0 2.2 1.8 4.1 4.1 4.1 2.2 0 4.1-1.8 4.1-4.1s-1.8-4.1-4.1-4.1z"/><circle cx="81" cy="-108.9" r="3.6"/><path d="M46.8-94.6c-1.7 0-3 1.4-3 3 0 1.7 1.4 3 3 3 1.7 0 3-1.4 3-3 0-1.7-1.3-3-3-3z"/><circle cx="57.6" cy="189.6" r="2.3"/><path d="M66.5 270.4c-1.9 0-3.4 1.5-3.4 3.4s1.5 3.4 3.4 3.4 3.4-1.5 3.4-3.4-1.5-3.4-3.4-3.4zm30.2-25.1c1.6 0 2.9-1.3 2.9-2.9 0-1.6-1.3-2.9-2.9-2.9-1.6 0-2.9 1.3-2.9 2.9 0 1.6 1.3 2.9 2.9 2.9zM-34 117.1c-1.3 0-2.4 1.1-2.4 2.4 0 1.3 1.1 2.4 2.4 2.4 1.3 0 2.4-1.1 2.4-2.4-.1-1.4-1.1-2.4-2.4-2.4z"/><circle cx="-19" cy="95.3" r="2.3"/><circle cx="-17.6" cy="181.3" r="3"/><circle cx="7.9" cy="185.3" r="3.6"/><circle cy="216" r="3.5"/><path d="M97.6 297.1c-1.9 0-3.4 1.5-3.4 3.4s1.5 3.4 3.4 3.4 3.4-1.5 3.4-3.4-1.5-3.4-3.4-3.4z"/><circle cx="126.9" cy="331.1" r="3.5"/><circle cx="-34" cy="20.6" r="4.2"/><circle cx="-10.1" cy="-54.6" r="3.1"/><circle cx="181.9" cy="-205.5" r="2.4"/><path d="M203.8 352.3c-1.4 0-2.5 1.1-2.5 2.5s1.1 2.5 2.5 2.5 2.5-1.1 2.5-2.5-1.1-2.5-2.5-2.5zm-34.3-24.6c-1.9 0-3.4 1.5-3.4 3.4s1.5 3.4 3.4 3.4 3.4-1.5 3.4-3.4-1.5-3.4-3.4-3.4zm-15.4-48.2c-1.2 0-2.2 1-2.2 2.2 0 1.2 1 2.2 2.2 2.2s2.2-1 2.2-2.2c0-1.2-1-2.2-2.2-2.2z"/><circle cx="295.1" cy="-208.5" r="3.4"/><circle cx="228" cy="-193.3" r="3.8"/><circle cx="174.5" cy="-169" r="2.3"/><path d="M320.8 344.7c-2.3 0-4.1 1.9-4.1 4.1 0 2.3 1.9 4.1 4.1 4.1 2.3 0 4.1-1.9 4.1-4.1 0-2.3-1.9-4.1-4.1-4.1z"/><circle cx="416.6" cy="300.5" r="2.7"/><path d="M530.7 39.4c-2.1 0-3.8 1.7-3.8 3.8 0 2.1 1.7 3.8 3.8 3.8 2.1 0 3.8-1.7 3.8-3.8 0-2.1-1.7-3.8-3.8-3.8zm-127 244.8c-1.9 0-3.5 1.6-3.5 3.5s1.6 3.5 3.5 3.5 3.5-1.6 3.5-3.5c0-2-1.6-3.5-3.5-3.5zm-150.1 49.6c-2.2 0-4 1.8-4 4s1.8 4 4 4 4-1.8 4-4c0-2.3-1.8-4-4-4zm5.7-65.8c-1.9 0-3.5 1.6-3.5 3.5s1.6 3.5 3.5 3.5 3.5-1.6 3.5-3.5c0-2-1.6-3.5-3.5-3.5zm67.5 50c-1.5 0-2.7 1.2-2.7 2.7 0 1.5 1.2 2.7 2.7 2.7 1.5 0 2.7-1.2 2.7-2.7 0-1.6-1.2-2.7-2.7-2.7zm-47.2-474.6c-1.4 0-2.5 1.1-2.5 2.5s1.1 2.5 2.5 2.5 2.5-1.1 2.5-2.5-1.1-2.5-2.5-2.5zM454.3-121c1.9 0 3.5-1.6 3.5-3.5s-1.6-3.5-3.5-3.5-3.5 1.6-3.5 3.5 1.6 3.5 3.5 3.5z"/><circle cx="529" cy="117.9" r="3.1"/><path d="M470.8 244.2c-1.5 0-2.7 1.2-2.7 2.7 0 1.5 1.2 2.7 2.7 2.7 1.5 0 2.7-1.2 2.7-2.7 0-1.5-1.2-2.7-2.7-2.7zm-12.1-15.3c-1.5 0-2.7 1.2-2.7 2.7 0 1.5 1.2 2.7 2.7 2.7 1.5 0 2.7-1.2 2.7-2.7.1-1.4-1.2-2.7-2.7-2.7z"/><circle cx="513.9" cy="168.2" r="3.9"/><circle cx="518" cy="91.3" r="3.8"/><path d="M373.6 247.4c-2.1 0-3.8 1.7-3.8 3.8 0 2.1 1.7 3.8 3.8 3.8 2.1 0 3.8-1.7 3.8-3.8 0-2-1.7-3.8-3.8-3.8z"/><circle cx="384.8" cy="134.2" r="2.6"/><path d="M520.7-.4c-2.2 0-4 1.8-4 4s1.8 4 4 4 4-1.8 4-4-1.8-4-4-4zm-20.4-60.2c0-2.1-1.7-3.7-3.7-3.7-2.1 0-3.7 1.7-3.7 3.7 0 2.1 1.7 3.7 3.7 3.7s3.7-1.7 3.7-3.7z"/><circle cx="431.6" cy="-31.4" r="3.7"/><path d="M457.5 95.3c0-1.4-1.1-2.5-2.6-2.5-1.4 0-2.5 1.1-2.5 2.5s1.1 2.5 2.5 2.5c1.4.1 2.6-1.1 2.6-2.5z"/><circle cx="483.3" cy="162.4" r="2.5"/><path d="M481.4 19.5c0-1.7-1.4-3.1-3.1-3.1-1.7 0-3.1 1.4-3.1 3.1 0 1.7 1.4 3.1 3.1 3.1 1.7 0 3.1-1.4 3.1-3.1z"/><circle cx="513.6" cy="35.7" r="2.4"/><path d="M501.1-28.6c-1.8 0-3.2 1.4-3.2 3.2 0 1.8 1.4 3.2 3.2 3.2 1.8 0 3.2-1.4 3.2-3.2 0-1.8-1.5-3.2-3.2-3.2z"/><circle cx="299.3" cy="-182.3" r="2.3"/><circle cx="337.7" cy="-120.2" r="3.1"/><path d="M408.3-89.5c-1.2 0-2.2 1-2.2 2.2 0 1.2 1 2.2 2.2 2.2 1.2 0 2.2-1 2.2-2.2 0-1.2-1-2.2-2.2-2.2z"/><circle cx="361.3" cy="-169" r="4.1"/><path d="M405.5-125.9c0 1.5 1.3 2.8 2.8 2.8 1.5 0 2.8-1.3 2.8-2.8 0-1.5-1.2-2.8-2.8-2.8-1.6 0-2.8 1.2-2.8 2.8zm53.2 32.6c-2.1 0-3.8 1.7-3.8 3.8 0 2.1 1.7 3.8 3.8 3.8 2.1 0 3.8-1.7 3.8-3.8 0-2.1-1.7-3.8-3.8-3.8z"/><circle cx="404.4" cy="-165.2" r="4.3"/></g></svg>