<svg id="lines3" xmlns="http://www.w3.org/2000/svg" xmlns:xlink="http://www.w3.org/1999/xlink" viewBox="0 0 1440.1 1017.5"><path fill="#515158" d="M0 0h1440.1v1017.5H0z"/><defs><path id="SVGID_1_" d="M0 0h1440.1v1017.5H0z"/></defs><clipPath id="SVGID_2_"><use xlink:href="#SVGID_1_" overflow="visible"/></clipPath><defs><path id="SVGID_3_" d="M0 0h1440.1v1017.5H0z"/></defs><clipPath id="SVGID_4_"><use xlink:href="#SVGID_3_" overflow="visible"/></clipPath><path id="lines3-mid" opacity=".05" clip-path="url(#SVGID_4_)" d="M-560.8 668.7c3.4 2.3 7.8 2.1 10.9-.2L-396.7 837c-.3.3-.6.6-.8 1-2.9 4.3-1.8 10.2 2.5 13.2 2.1 1.4 4.5 1.9 6.8 1.5l46.9 171.4c-1.7.7-3.3 1.9-4.4 3.5-2.9 4.3-1.8 10.2 2.5 13.2 3.5 2.4 8.1 2 11.2-.5l152.2 153.2c-.2.2-.4.4-.5.7-2.9 4.3-1.8 10.2 2.5 13.2 3.6 2.4 8.2 2 11.4-.6L50.9 1415c-.1.2-.3.3-.4.5-2.9 4.3-1.8 10.2 2.5 13.2 3.7 2.5 8.6 2 11.8-1l330.8 284.9-.1.1c-2.9 4.3-1.8 10.2 2.5 13.2 4.3 2.9 10.2 1.8 13.2-2.5 2.3-3.4 2.1-7.6-.1-10.7l200.4-174.5c.2.2.4.4.6.5 4.3 2.9 10.2 1.8 13.2-2.5 2.1-3.2 2.1-7.1.2-10.2l43.1-37.5c.4.3.7.7 1.1.9 4.3 2.9 10.2 1.8 13.2-2.5 2.4-3.5 2-8.1-.5-11.3l227-227.5c.2.2.4.4.6.5 4.3 2.9 10.2 1.8 13.2-2.5 2.9-4.3 1.8-10.2-2.5-13.2-.3-.2-.6-.3-.9-.5l72.1-178.5c3.8 1.1 8.1-.3 10.5-3.8 2.9-4.3 1.8-10.2-2.5-13.2-2.4-1.6-5.2-1.9-7.7-1.3l-46.7-122.1c1.4-.7 2.6-1.7 3.6-3.1 2.9-4.3 1.8-10.2-2.5-13.2-2.6-1.7-5.7-2-8.4-1.1l-7.3-15.6c1.1-.7 2.2-1.6 3-2.8 2.9-4.3 1.8-10.2-2.5-13.2-4.1-2.8-9.5-1.9-12.6 1.8L668 698.9c2.2-4.2 1-9.5-3-12.3-3.6-2.4-8.2-2-11.4.6l-53.7-51.7c.1-.2.3-.3.4-.5 2.9-4.3 1.8-10.2-2.5-13.2-3.4-2.3-7.9-2.1-11 .3L486.6 515c.2-.3.5-.6.7-.9 2.9-4.3 1.8-10.2-2.5-13.2-2.6-1.8-5.9-2-8.7-1L402 352.4c1.1-.7 2-1.6 2.8-2.7 2.9-4.3 1.8-10.2-2.5-13.2-4.3-2.9-10.1-1.8-13.1 2.4l-57-31.5c1.7-4.1.4-9-3.4-11.6-4-2.7-9.4-1.9-12.5 1.7l-277.4-192c2.3-4.2 1.1-9.6-3-12.4-4.3-2.9-10.2-1.8-13.2 2.5-2.6 3.9-2 9 1.3 12.1l-184.1 236.9c-4.3-2.7-10-1.5-12.9 2.7-1.6 2.3-1.9 5.1-1.3 7.6l-185.3 66.7c-.7-1.5-1.8-2.8-3.2-3.7-4.3-2.9-10.2-1.8-13.2 2.5-2.3 3.4-2.1 7.6.1 10.8l-103.8 91c-.4-.3-.7-.6-1.1-.9-4.3-2.9-10.2-1.8-13.2 2.5-2.9 4.3-1.8 10.2 2.5 13.2l-60.7 115c-4.1-1.6-8.8-.3-11.4 3.5-2.7 4.4-1.5 10.3 2.8 13.2zm71.3-130.7c2.4 1 5 .9 7.2-.1l85.3 153.5c-.9.6-1.8 1.4-2.4 2.4-.5.7-.8 1.5-1.1 2.2l-102.8-24-42.8-10c.4-3.4-1-7-4.1-9l60.7-115zm557.3 883.7l86.4-.5 97.5-.5c.3 2.7 1.7 5.2 4.1 6.8 1.8 1.2 3.8 1.7 5.8 1.6l26 166.1c-1.6.4-3.1 1.3-4.3 2.5L66.4 1425.9c.8-1.3 1.2-2.8 1.4-4.2zm635.2 9.9l-23.9 41.2c-1.2-.5-2.4-.8-3.7-.8l-10.6-130.1-6.8-84.1 20.5 68.2 26.7 88.8c-1.6.7-3.1 1.8-4.2 3.4-2.9 4.2-1.8 10 2.3 12.9l-.3.5zm213.9-555.9l-87 41.2c-.7-1.1-1.6-2.2-2.8-2.9-4.3-2.9-10.2-1.8-13.2 2.5-.3.5-.5.9-.8 1.4l-34.9-11.6c.2-1 .2-2 .2-2.9l33.6-6.8 104.7-21.2c.1.1.1.2.2.3zm-186.7-43.9l33.7 64.6c-.6.4-1.1.8-1.6 1.3l-75.4-59-64.3-50.2c2.7-4.3 1.5-10-2.7-12.9-.1 0-.1-.1-.2-.1l36.6-72.3c2.2.9 4.7.8 6.9 0l67 128.6zM39.6 203.4l5.5 56.4c-2.3.5-4.5 1.8-6 4-1.7 2.5-2 5.5-1.1 8.2l-114.1 50c-.7-1.2-1.6-2.3-2.9-3.2-.1 0-.1-.1-.2-.1l1-2L27.2 109.8c1.1.4 2.2.6 3.3.6l9.1 93zm-428.4 630.5l-1.6-125.4c2.6-.3 5.1-1.7 6.8-4.1.2-.2.3-.5.4-.8l102 43.2c-.8 2.7-.4 5.5 1 7.9l-102.7 81.9c-.4-.4-.9-.8-1.4-1.2-1.5-.9-3-1.4-4.5-1.5zm935.6-135.3l-67.4 104.3c-1.6-.8-3.3-1.1-4.9-1l-39.6-223.1c2.1-.6 4-1.8 5.2-3.8.2-.4.4-.7.6-1.1l142.7 53.5c-.9 3.5.3 7.3 3.2 9.7l-39.8 61.5zM351.4 469.8l-46.7-57.2-36.3-44.5c.4-.4.8-.9 1.1-1.4 1.1-1.7 1.6-3.6 1.6-5.5l116.5-14.7c.5 2.2 1.8 4.3 3.9 5.7.5.4 1.1.6 1.6.9l-34.8 115.2c-2.3-.4-4.8.1-6.9 1.5zm53.7 1238.9l11.2-145.3c2.5-.1 4.9-1.1 6.6-3l50.7 38.6c-2.4 4-1.6 9.1 2 12.1l-67.7 98.6c-.9-.5-1.8-.8-2.8-1zm382.8-573.6l-6.5-83.7-10.7-137.8c2.4-.4 4.7-1.8 6.2-4 .3-.5.5-.9.8-1.4l34.9 11.6c-.8 3.7.6 7.7 3.9 9.9.9.6 1.9 1 2.9 1.3l-31.3 204.2c-.1-.1-.2-.1-.2-.1zm-972-607.5l-150.4 11.3c-.3-1.6-1-3.2-2.2-4.5l57.1-60.6c.1.1.3.2.4.3 4.2 2.8 9.7 1.8 12.8-2.1l83.2 51.7c-.6 1.3-.9 2.6-.9 3.9zm91.8 346.2L-17 985c-.7.6-1.3 1.2-1.8 1.9-.9 1.4-1.4 2.9-1.5 4.4l-147.3.6c-.3-2.5-1.5-4.8-3.6-6.4l70.2-111.6c2.9 1.4 6.1 1.3 8.7-.1zm-90-340.3l-92 82.5-15.9 14.3c-.3-.3-.7-.6-1-.9-2.6-1.8-5.8-2-8.6-1l-38.9-79.7c1.1-.7 2.1-1.6 2.8-2.7 1-1.5 1.6-3.3 1.6-5l150.4-11.3c.2 1.3.7 2.6 1.6 3.8zm-200.8 161.4l38.6-24.7c.6.7 1.2 1.4 2.1 2 3.2 2.1 7.2 2.1 10.2.2l53.5 70.4c-.5.5-1 1-1.4 1.6-.2.2-.3.5-.4.8l-102-43.2c.7-2.5.5-4.9-.6-7.1zm329.2 140.8l30.2-21.8c.5.6 1.1 1.1 1.7 1.6 1.4 1 3 1.4 4.6 1.6l3.8 121 1.4 44.9c-1.1.2-2.2.5-3.2 1l-2.5-3.7-72.8-107.5c.7-.6 1.3-1.2 1.8-1.9 2.1-3.1 2.1-7 .3-10l34.7-25.2zm170.1 497.5l171.8-63.7c.7 1.4 1.7 2.7 3.2 3.7.7.5 1.5.8 2.3 1.1L269 1380.9l-6.7 29.4c-3.4-.4-6.9 1-8.9 4l-137.5-75.1c.7-1.9.8-4 .3-6zm532.8-90.9l-123.3-84.9c2.3-4.2 1.1-9.5-2.9-12.3l26.4-47.5 64.6-116.1c1.3.6 2.7.8 4.1.7l36 256.9c-1.9.7-3.6 1.7-4.9 3.2zM37.2 366.9l49.8-9.4c.5 1.7 1.4 3.2 2.8 4.4L-36.8 539.2c-.5-.3-1-.5-1.5-.7l15.3-62.7 22.8-93.7c3.5.5 7-1 9.1-4 1.3-1.9 1.7-4 1.6-6.1l26.7-5.1zm-314.4 374.6l-53.5-70.4c.5-.5 1-1 1.4-1.6 2-3 2.1-6.7.5-9.7l24.9-16.6c.6.7 1.2 1.3 2 1.8 1.9 1.3 4.2 1.8 6.3 1.5l20.4 94.1c-.7.3-1.4.6-2 .9zm73.8 3.5l-59.6 3.2c-.4-2.5-1.8-4.8-4-6.4-1.9-1.3-4.2-1.8-6.3-1.5l-20.4-94.1c1.2-.4 2.3-1 3.2-1.8l95.3 89.2 6 5.6c-.1.1-.2.2-.3.4-1 1.5-1.5 3.2-1.6 4.8l-12.3.6zm29.4-5.7l69.6-61 42-36.9c.4.3.7.6 1.1.9 2 1.3 4.2 1.8 6.4 1.5l35.2 154.7c-1.9.6-3.6 1.8-4.8 3.6-.2.3-.4.7-.6 1.1l-147.5-56.1c.8-2.6.3-5.5-1.4-7.8zm682.6 410.2l-23.1-6.3-59.8-16.3c.5-3-.5-6-2.6-8.2l19.9-24.4 65.1-80.1c1.4.9 2.9 1.4 4.5 1.5l3.6 127.9c-2.6.3-5 1.7-6.6 4.1-.5.6-.8 1.2-1 1.8zm40-54.7l-27.5 49.4c-1-.4-2-.6-3-.7l-3.6-127.9c2.6-.3 5-1.7 6.6-4.1 1.5-2.2 1.9-4.8 1.4-7.2l86.4-27.6c.7 1.5 1.8 2.9 3.2 4l-63.5 114.1zM251.4 751L204 921.3c-.7-.1-1.4-.1-2.2-.1l-29.1-174.7-2.7-16.2c2.1-.6 4-1.8 5.3-3.8 1-1.4 1.5-3.1 1.6-4.7l75.4-2.7c.4 2.6 1.7 5 4 6.5.6.4 1.2.7 1.8 1l-6.7 24.4zm-81.5 179.4l-1.3-196.9 19.2 115.4 12.1 72.6c-2.1.6-4 1.8-5.3 3.8-1.4 2.1-1.9 4.5-1.5 6.8l-15.3 4.2c-.7-1.7-1.9-3.3-3.5-4.4-1.4-.9-2.9-1.3-4.4-1.5zm134.4-114.6l35.2 79c-1.2.7-2.3 1.6-3.1 2.9-1.3 1.9-1.7 4-1.5 6.1l-81.7 15.9-41.7 8.1c-.6-2-1.8-3.8-3.7-5.1-.6-.4-1.2-.7-1.8-1l47-169 7.1-25.5c1.5.3 3.1.1 4.5-.4l39.7 89zm-78.6 250.1l-27.3 37.9c-1-.6-2.1-1-3.3-1.2l7.8-162.6c2.9-.2 5.6-1.6 7.3-4.1 1.3-1.9 1.7-4 1.5-6.1l40.4-7.9 83.1-16.2c.5 1.6 1.4 3.1 2.7 4.3l-112.2 155.9zm-45.2-52.8l-9.2-64.1c2.2-.5 4.2-1.8 5.5-3.8 1.4-2.1 1.9-4.5 1.5-6.8l15.3-4.2c.7 1.7 1.9 3.3 3.5 4.4 1.2.8 2.5 1.3 3.9 1.5l-7.8 161.8-12.7-88.8zm-51.2-363.4l-4.1-7.5c.8-.6 1.6-1.3 2.2-2.2l125.7 73.9c-.5 1.1-.7 2.2-.8 3.3l-75.4 2.7c-.4-2.6-1.7-5-4-6.5-2.8-1.9-6.1-2.1-9-.9l-34.6-62.8zM359.6 778l29.4 17.7c-2 4.2-.7 9.2 3.2 11.9 0 0 .1 0 .1.1l-44.6 86.5c-2.1-.8-4.3-.8-6.4-.2l-36.1-80.9-38.8-87.1c1.1-.6 2-1.5 2.8-2.5l90.4 54.5zm2.6 183.3l50.4 155.5c-1.6.7-3 1.8-4 3.3-.8 1.2-1.3 2.5-1.5 3.8l-203.9-12.3c-.1-2.5-1.2-4.9-3.2-6.6l25.6-35.6 114-158.2c2.1 1.2 4.4 1.5 6.7 1.1l15.9 49zm22 259.9L257 1172.4c.3-1.3.4-2.6.2-3.9l150.3-39.7c.7 1.8 1.9 3.4 3.5 4.5.7.5 1.4.8 2.2 1.1l-19.4 81.7c-3.4-.4-7 1-9.1 4.1-.2.3-.4.6-.5 1zM161.9 933.6L-8.4 812.2c1.4-2.4 1.6-5.2.7-7.7l64.1-30 103.1-48.3c.7 1.1 1.6 2.2 2.8 3 1.4.9 2.9 1.4 4.4 1.5l1.3 199.8c-2.4.2-4.5 1.2-6.1 3.1zm-90-236.9l42.8-54.4c2.7 1.7 6 1.9 8.7.7l4.9 9 33.7 61.3c-.9.7-1.8 1.5-2.5 2.5-1.7 2.6-2 5.7-1.1 8.4l-167 78.5c-.4-.7-.9-1.3-1.5-1.9l82-104.1zm214.4 5.6l64.6-43.9c.5.7 1.2 1.3 1.9 1.8 2.1 1.4 4.5 1.9 6.8 1.5l34.7 129.2c-1.6.6-3 1.7-4.2 3.2l-23.2-14-96.6-58.2c1.3-2.8 1.1-5.9-.2-8.5l16.2-11.1zm133.8 534.1l-18.5-8.1c1.2-3.9-.1-8.3-3.7-10.7-.7-.5-1.4-.8-2.2-1.1l19.4-81.7c.6.1 1.1.1 1.7.1l15.1 99.6c-2.2.6-4.1 1.8-5.5 3.8-.1.2-.2.4-.4.7l-5.9-2.6zm-177.9-74l-41.4-44.2c.2-.3.5-.5.7-.9.8-1.2 1.3-2.5 1.5-3.8l203.9 12.3c0 .4 0 .7.1 1l-150.3 39.7c-.7-1.8-1.9-3.4-3.5-4.5-3.4-2.2-7.8-2-11 .4zm-57.3-53.7l-152.6-41.1c.4-2.4-.2-4.9-1.6-6.9l131.8-114c.4.3.7.7 1.2 1 1.7 1.2 3.7 1.7 5.7 1.6l22.1 153.6c-2.2.5-4.2 1.8-5.5 3.9-.6.5-.9 1.2-1.1 1.9zM-34.3 725.4L-53 643.5c1.9-.6 3.6-1.8 4.8-3.6.9-1.3 1.4-2.8 1.5-4.3l157-.1c.2 2.2 1.2 4.2 2.8 5.8l-43.5 55.2-81.3 103.2c-1.9-1.2-4.1-1.6-6.2-1.4l-16.4-72.9zm-17.9-116l1-9.1c3.1 0 6.1-1.4 7.9-4.2.4-.6.8-1.3 1-2l9.7 2.5 143 36.4v.4l-67.9.1-89.1.1c-.3-2.7-1.7-5.2-4.1-6.9-1-.7-2.2-1.1-3.3-1.4l1.8-15.9zm103.6-10.8l59.6 32.1c0 .1-.1.2-.1.3l-143.2-36.5-9.6-2.4c.5-3.5-.9-7.1-4-9.2-.7-.5-1.5-.8-2.3-1.1l5.6-25.1c3.4.4 6.9-1 8.9-4l85.1 45.9zm154.1 43.2l143.1 10.8c0 1.5.4 2.9 1.1 4.2l-31.9 21.7-48.9 33.2c-.6-.7-1.2-1.3-1.9-1.8-4.2-2.9-9.9-1.8-12.9 2.2l-125.7-73.9c.3-.7.6-1.5.7-2.2l76.4 5.8zm252 167.9l8.1 1.2c-.1 1.7.3 3.5 1.2 5l-7.8 5.5-107.6 75.5c-.5-.6-1.1-1.2-1.8-1.7 0 0-.1 0-.1-.1l44.6-86.5c4 1.6 8.8.2 11.3-3.5.6-.9 1-1.9 1.3-3l50.8 7.6zm-49 133.7l96.2 58.8c-1.7 3.6-1 7.9 1.8 10.8l-65.3 80.4-19.6 24.2c-2.2-1.4-4.8-1.8-7.1-1.3l-66.2-204.5c1.4-.6 2.7-1.6 3.7-2.9l56.5 34.5zm44.7 296.2l-9.8 1.6c-.6-2.1-1.8-4.1-3.8-5.4-1.8-1.2-3.8-1.7-5.8-1.6l-15.1-99.6c.1 0 .2-.1.3-.1l39.2 96.2c-1.3.7-2.5 1.7-3.4 3-1.2 1.9-1.7 3.9-1.6 5.9zm-25.7 10.6l-11.4 13.6c-2.4-1.6-5.3-2-7.8-1.2l-11.3-28.7c1.4-.7 2.6-1.7 3.5-3.1.1-.2.2-.4.4-.7l18.5 8 6 2.6c-1.1 3.4-.3 7 2.1 9.5zm-549.6-685.9l-28.3-29.4c.1-.2.3-.3.4-.5l40.7 23.7 49.5 28.8c-1.9 4.1-.6 9.1 3.3 11.7 1 .7 2.2 1.1 3.3 1.4l-1 8.7-1.8 16.2c-2.1 0-4.2.7-5.9 2l-60.2-62.6zm23.6-25l47.6 7.6c-.2 3.2 1.3 6.4 4.1 8.4.7.5 1.5.8 2.3 1.1l-5.6 25.1c-3.3-.4-6.6 1-8.7 3.8l-45.4-26.4-44.8-26.1c.2-.5.4-.9.5-1.4l50 7.9zm203.3-181l19.1 5.4c-.5 2.7.3 5.6 2.1 7.7L-32.8 537l53.2-74.6 71-99.5c4.3 2.4 9.7 1.2 12.5-2.9.4-.5.7-1.1.9-1.7zM122 570l-2.8 55c-2.8.2-5.6 1.6-7.3 4.1l-32.3-17.4L-32.7 551c1.4-3.3.7-7-1.6-9.7l161.8-168.5c.2.1.3.3.5.4 1.2.8 2.5 1.3 3.9 1.5L122 570zm233.7-82.9L357 643c-2.7.3-5.2 1.7-6.8 4.1-.8 1.1-1.2 2.4-1.5 3.6l-143.9-10.8-75.6-5.7c0-1.4-.4-2.8-1.1-4.1l221.2-146.3c.6.7 1.2 1.3 2 1.9 1.4.8 2.9 1.2 4.4 1.4zm99.7 299.2l13.3 18c-.5.5-1.1 1-1.5 1.7-.6.9-1 1.9-1.3 3l-9.5-1.4-49.4-7.4c.1-3.2-1.3-6.4-4.1-8.3-2.1-1.4-4.5-1.8-6.8-1.5l-34.7-129.2c.5-.2.9-.4 1.4-.7l92.6 125.8zm48.5 177.6l6.5 33.3c-1.8.6-3.5 1.7-4.7 3.3l-96.6-59-56.3-34.4c1.3-2.8 1.2-6-.3-8.7l115.4-80.9c.5.6 1.1 1.2 1.8 1.7 1.9 1.3 4.1 1.7 6.1 1.5l28.1 143.2zm7.6 196.5l-44.7 70.3c-2.2-1.1-4.6-1.3-6.8-.6l-39.2-96.2c1.3-.7 2.5-1.7 3.4-3 .4-.6.7-1.2 1-1.9l60.6 16.5 22.3 6.1c-.6 3.1.7 6.6 3.4 8.8zm-177.8 106l-27.9-1.5c0-.8-.2-1.5-.4-2.2l3.3-1.4 75.5-31.3c.7 1.3 1.7 2.5 3 3.4 2.4 1.6 5.3 2 7.8 1.2l11.3 28.7c-1.4.7-2.6 1.7-3.5 3.1-.8 1.2-1.3 2.5-1.5 3.8l-67.6-3.8zm-68.2-64.1l-12.4-24.4c1-.7 2-1.6 2.7-2.7.2-.3.4-.7.6-1l127.1 48.8c-.5 1.7-.4 3.5.1 5.1l-78.8 32.7c-.7-1.3-1.7-2.5-3-3.4-2.7-1.8-5.9-2.1-8.7-1l-27.6-54.1zm-85.7-74l8.2-8.8c.1.1.2.2.4.3 3.5 2.3 7.9 2.1 11-.3l20.9 22.3 20.5 21.9c-.2.3-.5.5-.7.9-1.4 2.1-1.9 4.6-1.5 6.9l-129.4 36.8c-.4-1-1-1.9-1.7-2.7l72.3-77.3zm-165.4-83.1l-20.5-44.9c1.2-.7 2.2-1.6 3.1-2.8 1.4-2.1 1.9-4.7 1.5-7l30.7-8.9 131.1-38.2c.3.6.6 1.3 1 1.8l-131.8 114c-.4-.3-.7-.7-1.2-1-2.5-1.7-5.6-2-8.3-1.1l-5.6-11.9zm-25.9-103l-3.9-125.3c2.2-.3 4.3-1.4 5.8-3.1l170.3 121.3c-1.1 2-1.5 4.2-1.1 6.3l-130.5 38-31.3 9.1c-.7-1.7-1.9-3.2-3.5-4.3-1.4-1-3-1.4-4.6-1.6l-1.2-40.4zm-325.2-287.4l-5.6-104.9c.6-.1 1.2-.2 1.8-.5l38.9 79.7c-1.1.7-2.1 1.6-2.8 2.7-2 3-2.1 6.7-.5 9.7l-24.9 16.6c-.6-.7-1.2-1.3-2-1.8-1.5-.9-3.2-1.4-4.9-1.5zm61.7-35.6l94-84.3c.3.3.7.6 1 .9 1.2.8 2.6 1.3 4 1.5l-4 123.9-2.4 74.2c-2 .1-3.9.9-5.5 2.3l-101.2-94.8c.1-.1.2-.2.3-.4 2.3-3.4 2.1-7.7-.2-10.9l14-12.4zm110.8-22.5l6.5-58.4c2.1 0 4.2-.7 5.9-2L-129 560l65.8 68.4c-.2.3-.4.5-.6.8-2.3 3.4-2.1 7.6.1 10.8l-111.5 97.9c-.4-.3-.7-.6-1.1-.9-1-.7-2.1-1.1-3.3-1.4l15.4-138.9zm13.9-73.7L-4.9 380c.2.2.4.4.7.6.7.5 1.4.8 2.1 1l-1.2 4.8L-40.2 538c-3.5-.5-7 1-9.1 4-.6.9-1 1.9-1.3 2.9l-45.1-7.2-52.6-8.4c.2-2.2-.5-4.5-2-6.3zM64.5 301.5L90.6 347c-.9.6-1.7 1.4-2.3 2.4-1.3 1.9-1.7 4-1.5 6.1l-48.7 9.2-28 5.3c-.6-2-1.8-3.9-3.7-5.1l-.6-.3 38.4-86.5c2.2.7 4.6.6 6.7-.3l13.6 23.7zm416.4 517.2l79.4 81.9c-.2.2-.4.5-.6.7-2.9 4.3-1.8 10.2 2.5 13.1l-45.3 83c-1.4-.6-3-.8-4.5-.7l-5-25.3-29.6-151.2c1.1-.2 2.2-.7 3.1-1.5zm120.3 134.1l10 13.2c-.5.5-1 1-1.4 1.6-1.5 2.2-1.9 4.8-1.4 7.2l-86.4 27.6c-.7-1.6-1.8-3-3.3-4l45.3-83c2.8 1.2 6 .9 8.5-.7l28.7 38.1zm-147.1 290.4l-35.9 22.6c-.2-.3-.4-.5-.6-.8l11.4-13.6c4.3 2.9 10.2 1.8 13.2-2.5 1.2-1.8 1.7-3.8 1.6-5.8l9.8-1.6c.1.6.3 1.2.5 1.7zm-74.2 57.6l-112.8 111.5c-.2-.2-.4-.4-.7-.6-.7-.5-1.5-.8-2.3-1.1l15.1-65.9 16-70.1c3.4.4 6.9-1 9-4.1.8-1.2 1.3-2.5 1.5-3.8l24.9 1.4 70.7 3.9c.1 2 .8 3.9 2.1 5.4l-23.5 23.4zm-255.4-83.3l-14.8-4c.2-1.1.2-2.1 0-3.2l106.5-30.3 22.9-6.5c.7 1.7 1.9 3.2 3.5 4.3 2.7 1.8 5.9 2 8.7 1l11.4 22.4 28.6 56.3c-1 .7-2 1.6-2.7 2.7-.4.6-.7 1.2-1 1.9l-163.1-44.6zM86.1 1183l-57.9-109.1c1-.7 1.9-1.5 2.6-2.6.4-.6.7-1.3 1-1.9l152.6 41.1c-.4 2.7.4 5.6 2.2 7.7l-35.4 37.9-45.1 48.2c-.1-.1-.2-.2-.4-.3-2.7-1.8-6-2.1-8.9-.9L86.1 1183zm-126.6-61.8l28.4-119.7c1.4.2 2.9 0 4.2-.4l21 45.9 5 10.9c-1.2.7-2.2 1.6-3.1 2.8-2.6 3.9-2 9 1.3 12.1l-61.9 78.8c-.6-.4-1.3-.7-1.9-.9l7-29.5zm-131.6-350.5l5.4 13.2c-1.3.7-2.5 1.7-3.4 3-.2.3-.4.7-.5 1l-92.5-35.9c.2-.7.3-1.3.3-2l71.8-3.8c.4 2.5 1.8 4.8 4 6.4 2.4 1.6 5.3 2 8 1.2l6.9 16.9zm5.3-237.5c.2-.2.3-.5.4-.8.7 1.7 1.9 3.2 3.5 4.3 1 .7 2.1 1.1 3.3 1.4l-6.3 56.3-14 125.5 5.9-182.6c2.8-.2 5.5-1.6 7.2-4.1zm391.1-169.7l28-.9c.4 2.6 1.7 5 4 6.6h.1L123.3 625.6c-.7-.3-1.3-.4-2-.5l12.6-250.3c2.9-.2 5.6-1.6 7.3-4.1 1-1.4 1.4-3 1.6-4.6l81.5-2.6zm42.6 5.8l83 101.7c-.4.4-.8.9-1.1 1.4-2 3-2.1 6.7-.5 9.7L127.1 628.4c-.6-.7-1.2-1.3-2-1.9 0 0-.1 0-.1-.1l133.2-256.3c2.9 1.2 6.1.9 8.7-.8zm95 116.3l63.6 77.5c-.4.4-.8.9-1.1 1.3-2.5 3.7-2 8.5.8 11.7l-37.5 41.8-24 26.8c-.1-.1-.2-.1-.2-.2-1.4-.9-2.9-1.4-4.4-1.5l-1.2-142.3-.1-13.6c1.4-.2 2.8-.7 4.1-1.5zm64.7 91.8c.1.1.2.1.2.2 1.8 1.2 3.9 1.7 6 1.6l39.6 223.1c-.8.2-1.5.5-2.2.9L364.4 659.3c.5-.5 1.1-1 1.5-1.7 2.5-3.7 2-8.5-.8-11.7l25.1-28 36.4-40.5zm210.1 329.5l122.9-1.5c.1.6.2 1.3.4 1.9l-134.3 60.9c-.7-1.2-1.6-2.3-2.8-3.1-3.2-2.1-7.1-2.1-10.2-.2l-10.1-13.4-28.6-37.9c.5-.5 1-1 1.4-1.6.9-1.4 1.4-2.9 1.5-4.4l59.8-.7zm143.1 149.2l6.1 79.1c-1.5.3-3 1-4.2 2L681 1035.5l-56.1-56.6c.2-.2.4-.4.6-.7 1.7-2.5 2-5.6 1.1-8.3L760.9 909c.7 1.2 1.6 2.3 2.8 3.1 1.6 1.1 3.3 1.6 5.1 1.6l11 142.4zm-370 252.9l-.2 180.3c-2.7.3-5.3 1.7-6.9 4.1l-23-12.1-109.8-58c1.3-3.2.7-6.8-1.4-9.4l111.7-110.5 24.7-24.4c.2.2.4.4.7.6 1.3.9 2.8 1.4 4.3 1.5l-.1 27.9zm65 288.4l-50.7-38.6c1-1.7 1.5-3.6 1.4-5.5l32-5.2c.6 2.1 1.8 4.1 3.8 5.4 2.1 1.4 4.5 1.8 6.7 1.5l10.4 40c-1.4.5-2.6 1.3-3.6 2.4zm-57.6-91.9l41.6 34.9c-1.2 1.8-1.7 3.8-1.6 5.9l-32 5.2c-.6-2.1-1.8-4.1-3.8-5.4-1.6-1.1-3.5-1.6-5.3-1.6l-3.6-36.5c1.7-.4 3.3-1.2 4.7-2.5zm2.5-4.4l188.4 29.2v.4l-70 6.9-62.2 6.2c-.5-2.3-1.8-4.5-4-6-3.8-2.6-8.7-2-11.9 1l-41.6-34.9c.6-.8 1-1.8 1.3-2.8zm-12.7 55.4L298.4 1600c-.2-.4-.4-.7-.6-1.1l106.4-93.3c.3.3.7.6 1.1.9 1.6 1.1 3.5 1.6 5.3 1.6l3.6 36.5c-2.3.5-4.5 1.8-5.9 4-1.7 2.4-2 5.3-1.3 7.9zm-117.5 38.4l-26-166.1c2.1-.6 4.1-1.8 5.4-3.8l108.7 57.5 24.1 12.7c-1.2 3-.8 6.4 1.1 9l-106.4 93.3c-.4-.3-.7-.6-1.1-.9-1.7-1.3-3.8-1.8-5.8-1.7zm-184.4-313l-3.3-60.6c2.5-.4 4.8-1.8 6.4-4 .4-.6.7-1.2 1-1.9l10.8 2.9 167.1 45.6c-.2 1.3-.1 2.6.2 3.9l-70.3 26-101.5 37.6c-.7-1.4-1.7-2.7-3.2-3.7s-3.2-1.5-4.8-1.6l-2.4-44.2zm-13.3-74l-133.2-46.1c.7-3.2-.2-6.6-2.6-8.9l3.5-4.5 58.3-74.3c2.7 1.7 5.9 1.9 8.6.8l57.9 109 10.7 20.2c-1 .7-1.9 1.5-2.6 2.5-.2.4-.4.9-.6 1.3zm-210-412l-34.6-3.6c0-3-1.5-6-4.2-7.9-2.4-1.6-5.3-2-7.9-1.2l-4.6-11.2-7.7-18.9c1.3-.7 2.5-1.7 3.4-3 .2-.3.4-.7.6-1.1l147.5 56.1c0 .2-.1.3-.1.5l-92.4-9.7zm-127.1 137.4L-270 758.8c2.2-.5 4.2-1.8 5.6-3.9.2-.3.4-.7.5-1l13.1 5.1 79.3 30.8c-1 3.8.3 7.9 3.7 10.3l-73.6 134c-1.2-.6-2.6-.8-3.9-.8zm-142.6-242.9l42.3-140.5c.4.1.9.1 1.3.1l5.6 104.9c-2.5.4-4.8 1.8-6.4 4-2 2.9-2.1 6.6-.6 9.6l-38.6 24.7c-.6-.7-1.2-1.4-2.1-2-.4-.3-.9-.6-1.5-.8zM-125 441.7l38.4-106c3.7.9 7.8-.5 10.1-3.8l54.6 29.5 14.2 7.7c-1.3 3.2-.7 6.8 1.4 9.5l-145.3 142.9c-.2-.2-.4-.4-.7-.6-.4-.3-.8-.4-1.2-.6l28.5-78.6zM37.8 274.2l1-.4c.7 1.2 1.7 2.3 2.9 3.2l.6.3L4 363.8c-3.9-1.3-8.3.1-10.7 3.6l-15.8-8.5-53-28.7c.9-2.1.9-4.4.2-6.5l113.1-49.5zm64.1 57.6l24.4 27.3c-.3.3-.6.7-.9 1-.4.6-.7 1.2-.9 1.8l-19.1-5.4c.6-3.6-.8-7.3-4-9.5-2.8-1.9-6.2-2.1-9.1-.8l-24.5-42.8-15.2-26.6 49.3 55zm40.7 31.6l172.2-55.8c.3.7.7 1.3 1.1 1.9l-48 44.8c-.3-.3-.6-.5-.9-.7-4.3-2.9-10.2-1.8-13.2 2.5-1 1.4-1.4 3-1.6 4.6l-26.6.8-83 2.6v-.7zM692 1218.9l-29 22.9c-.4-.5-.9-.9-1.5-1.2-1.7-1.2-3.7-1.7-5.6-1.6l-36-256.9c1.3-.3 2.6-.9 3.6-1.8l156.8 158.3c-.2.2-.4.4-.6.7-2.2 3.2-2.1 7.3-.1 10.4l-87.6 69.2zM585.1 1244l-113-5.5c-.1-2.6-1.4-5.1-3.6-6.9l44.7-70.3c3.9 1.9 8.6 1 11.4-2.3l123.3 84.9c-.5 1-.9 2-1.1 3.1l-61.7-3zm-149.7 125.8l-23.8 118.9.2-194.3V1281c2.7-.3 5.3-1.7 6.9-4.1 2-2.9 2.1-6.5.6-9.5l35.9-22.6c.6.8 1.3 1.5 2.1 2s1.6.9 2.5 1.2l-24.4 121.8zm173.4 164.6l-119.2 64.2c-.7-1-1.5-1.8-2.5-2.5-2.1-1.4-4.5-1.8-6.7-1.5l-10.4-40c1.8-.7 3.4-1.9 4.5-3.6 1.1-1.6 1.6-3.4 1.6-5.3l132.2-13.1c.1.6.2 1.2.5 1.8zm-357.1-115.6l-183.9 1c-.3-2.6-1.6-5-3.9-6.7l39.3-68.9c4.1 1.8 9 .5 11.6-3.3l137.5 75.1c-.3.9-.5 1.8-.6 2.8zM101.4 1328L38 1259.5c.3-.3.5-.6.8-.9 1.9-2.9 2.1-6.4.7-9.3l53.3-31.7c.6.8 1.3 1.6 2.3 2.2 1.5 1 3.2 1.5 4.8 1.6l3.2 58.6 2.5 46.3c-1.6.2-3 .8-4.2 1.7zm-256.5-308l-15.3-20.3c.5-.5 1-1 1.4-1.6.9-1.3 1.4-2.9 1.5-4.4l147.3-.6c.3 2.7 1.7 5.2 4.1 6.8.7.5 1.4.8 2.2 1.1l-35.4 149.2c-2.1-.3-4.3.2-6.1 1.3l-99.7-131.5zm40.2-176.3l-40.4-45.1c.3-.3.6-.7.9-1 .7-1 1.2-2.2 1.4-3.3l85.5 9 41.3 4.3c0 1.7.5 3.3 1.3 4.7l-64.8 46.9c-.5-.6-1.1-1.1-1.7-1.6-3.4-2.3-7.7-2.1-10.9.2l-12.6-14.1zM314 303.5c0 .7.1 1.5.2 2.2L142 361.5c-.7-1.6-1.8-3-3.3-4-3.4-2.3-7.7-2.1-10.9.2L102 328.9l-48-53.5c.3-.3.6-.7.9-1 .7-1 1.1-2.1 1.4-3.2L314 303.5zm230.9 494.9l60.6-12.1c.6 2 1.8 3.8 3.7 5.1.3.2.7.4 1 .6l-40.3 105.6c-2.9-.8-5.9-.1-8.3 1.7l-79.4-81.9c.2-.2.4-.5.6-.7 1.3-1.9 1.7-4.1 1.5-6.2l60.6-12.1zM686 840.6l75.1 58.7c-.8 1.3-1.3 2.7-1.4 4.1l-182.8 2.2c-.3-2.6-1.7-5.2-4.1-6.8-.3-.2-.7-.4-1-.6l40.3-105.6c3.3.9 6.8-.1 9.2-2.6l64.7 50.6zM794.5 1151l112.8 84.8c-.8 1.3-1.2 2.7-1.3 4.2l-240.4 7.2c-.2-1.3-.6-2.6-1.4-3.8l28.5-22.5 88.1-69.6c.4.5.9.9 1.5 1.2 3.9 2.6 9.1 1.9 12.2-1.5zm-930.4-266.2l-101.2 52.8c-.6-1-1.5-1.8-2.5-2.6l73.6-134c3.1 1.3 6.6.8 9.2-1.1l40.1 44.7 13 14.5c-.3.3-.6.7-.9 1-1.8 2.7-2.1 6-1 8.8l-30.3 15.9zm-33.7-431.7l4.4-80.2 6.2 146.6c-2.5.4-4.9 1.7-6.5 4-.2.2-.3.5-.4.8-.7-1.7-1.8-3.2-3.5-4.3-1.2-.8-2.5-1.3-3.8-1.5l3.6-65.4zm33.6-108.8l43-13.9c.7 1.6 1.8 3 3.3 4 .4.3.8.4 1.2.6l-66.9 184.6c-.6-.1-1.1-.2-1.7-.3l-6.6-157.4c2.5-.4 4.9-1.7 6.5-4 1.5-2.2 1.9-4.8 1.4-7.3l19.8-6.3zm501.5 136.6l104.6 26.5c-.4 3 .6 6 2.8 8.2l-35.7 46c-3.2-2-7.2-1.9-10.2.1l-63.6-77.5c.4-.4.8-.9 1.1-1.3.4-.6.7-1.3 1-2zm233 197.7l13.8 95.7c-2.2.5-4.2 1.8-5.5 3.8-1.3 1.9-1.7 4.1-1.5 6.2l-59.7 11.9-61.4 12.2c-.5-1.8-1.6-3.3-3.1-4.6l67.3-104.2 39.8-61.6c1.5.7 3.1 1.1 4.6 1l5.7 39.6zm230.4 249.5l157.4 112.1c-1.4 2.5-1.6 5.3-.7 7.8l-189.9 91.6c-.7-1.1-1.6-2.1-2.7-2.9-.9-.6-1.9-1-2.9-1.3l31.3-204.2c2.7.2 5.5-.9 7.5-3.1zm-347 331.5l-12.3-14.1c.3-.3.6-.7.9-1.1.8-1.2 1.3-2.5 1.5-3.9l174.8 8.5c.2 2.9 1.6 5.6 4.1 7.3 1.6 1.1 3.3 1.6 5.1 1.6l6.6 80.5 10.9 133.7c-1.3.2-2.6.8-3.7 1.6l-187.9-214.1zm16.1 48.2l114.2 215.1c-1 .7-1.9 1.5-2.6 2.5-.6.9-1 1.9-1.3 2.9L420 1499.1c.2-3.2-1.3-6.4-4.1-8.3-.8-.5-1.6-.9-2.5-1.2l48.4-241.2c1.5.1 3 0 4.4-.6l31.8 60zm111.8 228.4l-200 174.9-.3-.3 26-38 41.6-60.7c4.2 2.3 9.6 1.1 12.4-3 1.8-2.7 2.1-6.1.9-8.9l119.3-64.2c0 .1.1.2.1.2zm-212.3 174.5l-100.1-100.3c.2-.2.4-.4.5-.6 1.6-2.4 2-5.3 1.2-7.9l108.6-43.5c.7 1.3 1.7 2.5 3 3.5 1.1.8 2.4 1.2 3.6 1.5l-11.2 145.3c-2-.1-4 .6-5.6 2zM57.8 1411.4l-24.4-149c1.1-.3 2.2-.8 3.2-1.5l45 48.7 18.3 19.8c-.3.3-.5.6-.8.9-2.9 4.3-1.8 10 2.3 13l-39.3 68.9c-1.3-.7-2.8-.9-4.3-.8zm-90.2-232.3l-11.3-12.9c.3-.4.7-.7.9-1.1.3-.4.5-.9.7-1.3l133.2 46.1c-.5 2.1-.2 4.2.6 6.1l-53.3 31.7c-.6-.8-1.3-1.6-2.3-2.2-3.4-2.3-7.6-2.1-10.7.1l-57.8-66.5zM-175 1037.5l-.8-35.2c1.3-.2 2.6-.6 3.7-1.3l115 151.8c-.5.5-1 1-1.4 1.6-1.5 2.2-1.9 4.9-1.4 7.3l-65.9 21.5-38 12.4c-.7-1.6-1.8-3-3.3-4-1.4-.9-3-1.4-4.5-1.6l-3.4-152.5zm-16.9-56.9l-45-33.1c1.5-2.6 1.7-5.6.7-8.3l98.6-51.4 32.9-17.2c.5.8 1.3 1.6 2.1 2.2l-70.2 111.6c-3.8-1.9-8.3-1-11.2 2.1l-7.9-5.9zm-60.3-44l-129.2-88.8c1.7-3.1 1.5-6.8-.3-9.6l102.7-81.9c.4.4.9.8 1.5 1.2 1.7 1.2 3.7 1.7 5.7 1.6l24.6 174.5c-2 .5-3.7 1.5-5 3zm-185.3-402.5l84.3 6.8c.1 3 1.5 5.8 4.1 7.6.5.4 1.1.7 1.7.9l-42.3 140.5c-1.9-.4-3.8-.1-5.5.6L-480.5 537c.9-.6 1.8-1.4 2.4-2.4.8-1.1 1.2-2.3 1.5-3.6l39.1 3.1zm87-30.1l-14.6-69.3c1.9-.6 3.7-1.8 5-3.7.2-.2.2-.5.4-.7l77 33.1c-1 3.1-.3 6.5 1.9 9l-57.1 60.6c-.1-.1-.3-.2-.4-.3-1.9-1.3-4.1-1.8-6.3-1.5l-5.9-27.2zm115.6-76.9l64.1-67c.2.1.3.3.5.4 1.2.8 2.5 1.3 3.8 1.5l-3.6 64.9-5 91.5c-2.7.1-5.2 1.4-7 3.7l-83.2-51.7c1.7-3.4 1.1-7.4-1.3-10.2l31.7-33.1zm76.4-81.3L25.1 109.7 6.5 146.1l-87.4 171.6c-4-1.6-8.7-.2-11.3 3.5-1.5 2.2-1.9 4.8-1.4 7.3l-39.4 12.7-23.5 7.6c-.4-1.1-1.1-2.1-2-3zM37.8 107.1l277.4 192.1c-.4.8-.7 1.6-.9 2.4L56.5 269.3c.1-3.1-1.4-6.2-4.2-8.1-1.6-1.1-3.4-1.6-5.3-1.6L41.5 203l-9.1-92.8c2.1-.4 3.9-1.5 5.4-3.1zm293.4 202.1l57 31.5c-.5 1.3-.8 2.6-.7 3.9L271 359.3c-.3-1.3-.9-2.5-1.7-3.5l48-44.8c.3.2.6.5.9.7 4.2 2.8 10 1.7 13-2.5zm335.7 391.3l250.5 167.7c-.9 1.7-1.2 3.5-1.1 5.3l-104.8 21.2-33.5 6.8c-.6-2-1.8-3.8-3.7-5-2.7-1.8-6-2.1-8.8-1L732 831.1l-67.1-128.8c.8-.4 1.4-1.1 2-1.8zm160.4 616.8l-112 99.2c-.3-.3-.7-.6-1.1-.9-2.2-1.5-4.7-1.9-7.1-1.5l-27.4-91.2-19.8-65.8c1.6-.7 3.1-1.8 4.2-3.4 1-1.4 1.4-3 1.6-4.6l240.4-7.2c.2 1.5.8 3 1.7 4.2l-80.5 71.2zm-194.5 199.1l-8.8 7.5c-.4-.4-.8-.7-1.2-1-2.7-1.8-6-2.1-8.9-.9L500 1307.6l-32.2-60.7c.1 0 .1-.1.2-.1l17.1 19.5 183 208.7c-.3.3-.6.7-.9 1.1-2.3 3.3-2.1 7.6.1 10.7l-34.5 29.6zm-248.4 183.9l-289-249 38 30.1L282 1599.3c-2.7 4.3-1.6 10 2.7 12.9 3.5 2.4 8.1 2 11.2-.5l88.5 88.6zM7.5 1246l-170.5-45.2c.2-1.2.2-2.3-.1-3.4l103.9-33.9c.7 1.6 1.8 3 3.3 4 3.4 2.3 7.6 2.1 10.7-.1l8.8 10.1 60.4 69.3c-.3.4-.7.7-.9 1.1-.4.6-.7 1.3-1 2L7.5 1246zm-218.7-245.6l-117.7 29.3c-.3-.9-.8-1.8-1.5-2.6l53.2-51.6L-251 950c.2.2.5.4.7.6 4 2.7 9.2 1.9 12.3-1.5l44.6 32.8 8.4 6.2c-1.1 1.9-1.5 4-1.2 6.1l-25 6.2zm-163.3-567.7c.4.3.7.6 1.1.9 1.9 1.3 4.1 1.8 6.3 1.5l15.1 71.5 5.3 25c-1.9.6-3.7 1.8-5 3.7-.8 1.1-1.2 2.3-1.5 3.6l-81.9-6.6-41.6-3.3c0-1.9-.6-3.7-1.7-5.2l103.9-91.1zm200.9-75.9c.3.7.8 1.4 1.3 2l-64.3 67.2-31.5 32.9c-.2-.1-.3-.3-.5-.4-4.3-2.9-10.2-1.8-13.2 2.5-.2.2-.2.5-.4.7l-77-33.1c.5-1.7.6-3.4.2-5.1l185.4-66.7zm647.9 144c-1.1.7-2 1.6-2.7 2.7-.4.6-.8 1.3-1 2l-63.7-16.2L366 479c.5-3.5-.9-7.1-4-9.2-.5-.4-1.1-.6-1.6-.9l34.8-115.2c1.7.3 3.5.2 5.1-.5l74 147.6zm111 122.8c-.2.3-.5.6-.7.9-.2.4-.4.7-.6 1.1l-142.7-53.5c.9-3.3-.1-6.8-2.6-9.2l35.7-46c3.4 2.1 7.6 1.8 10.7-.5l100.2 107.2zm66.9 65.1c-.1.2-.3.3-.4.5-2.9 4.3-1.8 10.2 2.5 13.2.1 0 .1.1.2.1l-9.2 18.1-27.5 54.2c-1.2-.5-2.5-.7-3.7-.6L594.7 639c1.4-.3 2.7-1 3.8-1.9l53.7 51.6zm284 208.4c-1.1.7-2.2 1.6-3 2.8-1.2 1.7-1.7 3.7-1.6 5.6l-3.5.5-97.1 13.6-.3-.9 63.7-30.1 23.3-11c.7 1.1 1.6 2.2 2.8 2.9 2.6 1.7 5.7 2 8.4 1.1l7.3 15.5zm54 139.3c-1 .5-2 1.3-2.8 2.2l-84.9-60.4-72.5-51.7c.9-1.6 1.3-3.3 1.2-5l98.7-13.8 2-.3c.5 2.2 1.8 4.2 3.9 5.6 2.4 1.6 5.2 1.9 7.7 1.3l46.7 122.1zM918 1231.6c-3.4-1-7.1 0-9.5 2.6l-112.8-84.8c1.5-2.5 1.7-5.5.8-8.1l189.9-91.6c.7 1.1 1.6 2.1 2.7 2.9.3.2.6.3.9.5l-72 178.5zm-236.9 242.5c-.1-.1-.2-.2-.4-.3l24.2-41.7c4.1 1.9 9.1.6 11.7-3.3 2.3-3.4 2.1-7.7-.2-10.8l175.9-155.6-211.2 211.7zm-846-268.9c.1-.2.3-.3.4-.5.4-.6.7-1.3 1-2l171 45.3 14.1 3.7c-.5 3.5.9 7.2 4 9.3 1.8 1.2 3.9 1.7 5.9 1.6l10.2 62.1 14.2 86.9c-1.3.4-2.5 1-3.6 1.9l-217.2-208.3zm-165.6-166.4c.2-.2.4-.4.5-.7 1.4-2 1.8-4.4 1.5-6.6l116.2-28.9 26.5-6.6c.7 1.8 1.9 3.5 3.6 4.6 1.4.9 3 1.4 4.5 1.6l4.1 187.8c-1.7.2-3.3.9-4.7 2l-152.2-153.2zm-55.8-186.7c1.4-.6 2.7-1.5 3.7-2.7l38.1 26.2 91.1 62.7c-1.8 3.4-1.4 7.4.9 10.3l-79.4 77.1c-.2-.2-.5-.4-.7-.6-2.1-1.4-4.5-1.9-6.8-1.5l-46.9-171.5zm-162.1-184.9c.3-.3.6-.6.8-1 .5-.7.8-1.5 1.1-2.2l42.3 9.9 103.3 24.1c-.4 3.4 1 7 4.1 9 1.4.9 2.9 1.4 4.5 1.5l1.6 125.4c-1.6.2-3.2.8-4.5 1.8l-153.2-168.5z"/><g><defs><path id="SVGID_5_" d="M0 0h1440.1v1017.5H0z"/></defs><clipPath id="SVGID_6_"><use xlink:href="#SVGID_5_" overflow="visible"/></clipPath><path id="lines3-front" opacity=".2" clip-path="url(#SVGID_6_)" fill="#8E8E8E" d="M279.9 404.2c-1.8 3-1.3 6.7.8 9.3L146.2 553.4c-.3-.2-.6-.5-.9-.6-3.9-2.2-8.8-.9-11 2.9-1.1 1.9-1.3 4-.9 5.9L-9.7 611.4c-.7-1.4-1.8-2.7-3.2-3.6-3.9-2.2-8.8-.9-11 2.9-1.8 3.1-1.3 7 1.1 9.5l-121.5 138.3c-.2-.1-.4-.3-.6-.4-3.9-2.2-8.8-.9-11 2.9-1.9 3.2-1.2 7.1 1.2 9.7l-164.7 196.7c-.2-.1-.3-.2-.4-.3-3.9-2.2-8.8-.9-11 2.9-1.9 3.3-1.2 7.5 1.5 10l-223.3 297.7s-.1 0-.1-.1c-3.9-2.2-8.8-.9-11 2.9-2.2 3.9-.9 8.8 2.9 11 3 1.7 6.6 1.3 9.1-.7l159.9 160.4c-.1.2-.3.4-.4.6-2.2 3.9-.9 8.8 2.9 11 2.8 1.6 6.2 1.4 8.7-.4l34.4 34.5c-.3.3-.5.6-.7 1-2.2 3.9-.9 8.8 2.9 11 3.2 1.8 7 1.3 9.5-1.1l206.5 179.9c-.1.2-.3.4-.4.6-2.2 3.9-.9 8.8 2.9 11 3.9 2.2 8.8.9 11-2.9.1-.3.2-.5.4-.8l155.9 51c-.7 3.3.7 6.9 3.8 8.7 3.9 2.2 8.8.9 11-2.9 1.2-2.1 1.4-4.5.6-6.7l101.2-46.7c.7 1.1 1.6 2.2 2.9 2.9 3.9 2.2 8.8.9 11-2.9 1.3-2.3 1.4-5 .4-7.2l12.8-7.1c.7.9 1.5 1.8 2.5 2.4 3.9 2.2 8.8.9 11-2.9 2.1-3.6 1.1-8.2-2.3-10.6L325 1451c3.7 1.7 8.2.3 10.3-3.3 1.9-3.2 1.3-7.1-1.2-9.7l40.9-48.7c.2.1.3.2.4.3 3.9 2.2 8.8.9 11-2.9 1.8-3.1 1.3-6.8-.9-9.3l85.4-91.4c.3.2.5.4.8.6 3.9 2.2 8.8.9 11-2.9 1.4-2.4 1.4-5.1.4-7.4l121.3-71.5c.6.9 1.4 1.6 2.4 2.2 3.9 2.2 8.8.9 11-2.9s1-8.7-2.8-11l23.5-50.3c3.6 1.2 7.7-.2 9.6-3.6 2.1-3.6 1.1-8.1-2.2-10.5l147.4-247c3.7 1.7 8.3.4 10.4-3.2 2.2-3.9.9-8.8-2.9-11-3.5-2-7.8-1.2-10.2 1.8l-212.1-143c2-3.8.7-8.6-3-10.8-2.1-1.2-4.4-1.4-6.5-.7L501.6 561c1.2-.7 2.3-1.6 3-2.9 2.2-3.9.9-8.8-2.9-11-3-1.7-6.6-1.3-9.2.7l-83.4-83.1c.3-.3.5-.6.7-1 2.2-3.9.9-8.8-2.9-11-3.9-2.2-8.8-.9-11 2.9l-101.3-45c1.2-3.5-.3-7.5-3.6-9.5-3.9-2-8.8-.7-11.1 3.1zm115.3 53.1c-.7 2.1-.5 4.3.5 6.2L270 544.8c-.6-.7-1.3-1.4-2.2-1.9-.6-.4-1.3-.6-1.9-.8l14.5-88.8 6-37c2.9.2 5.9-1.3 7.4-4l101.4 45zm-719.5 524.8l5.4 73.5 6.1 82.9c-2.3.4-4.3 1.7-5.6 3.9-.9 1.6-1.2 3.3-1 5l-139.8 31.7c-.5-1.4-1.3-2.6-2.4-3.6l133.7-194.3c1.1.6 2.3.9 3.6.9zm28.1 540.8l-36.4-18c.4-1 .6-2.1.5-3.2l110.1-16.5 71.1-10.7-56.8 21.4-74 27.8c-.7-1.4-1.7-2.6-3.2-3.4-3.8-2.2-8.6-1-10.9 2.7l-.4-.1zm485 150l-40-71.6c.9-.7 1.7-1.5 2.3-2.5 2.2-3.9.9-8.8-2.9-11l-1.2-.6 7.9-30.3c.8.1 1.7.1 2.5 0l7.7 28.2 24 87.8c-.1-.1-.2-.1-.3 0zm26.7-161.4l-53 32.3c-.4-.5-.8-.9-1.2-1.3L207 1475l39-57.5c3.8 2 8.6.7 10.8-3 0-.1 0-.1.1-.2l63.6 27c-.6 2-.4 4 .4 5.8l-105.4 64.4zm494.7-623.4l-47.7 7.9c-.5-2-1.8-3.7-3.7-4.8a7.89 7.89 0 0 0-7-.5l-49.1-94.2c1-.7 1.9-1.5 2.5-2.6 0 0 0-.1.1-.1l1.8.8L789 872.3c-.3.9-.4 1.9-.4 2.9l-78.4 12.9zM149.3 560l106.5-8.6c.4 2.2 1.7 4.3 3.8 5.5.2.1.4.2.7.3l-30.8 89.2c-2.3-.5-4.7-.1-6.6 1.3l-75.6-82.6c.4-.4.7-.8.9-1.3.8-1.2 1.1-2.5 1.1-3.8zm168.9 787.9l-92.6-51.3c.6-1.4.8-2.8.6-4.3l187.5-46.5c.6 1.7 1.8 3.3 3.5 4.2.3.2.6.3 1 .4l-37.3 124.4c-3.1-.6-6.2.7-8.1 3.3l-54.6-30.2zm183.4-179.3l46-43 35.7-33.4 1.2.9c1.5.9 3.2 1.2 4.8 1l19.2 98.3c-1.9.6-3.6 1.8-4.6 3.6-.3.5-.5 1-.7 1.4l-100-23c.2-2-.3-4.1-1.6-5.8zM-549 1285.5l124.2 1.2c.2 2.1 1.2 4.1 2.9 5.5l-29.9 45.3c-3.5-1.8-7.8-.8-10.2 2.4l-87.8-51.9c.5-.8.7-1.6.8-2.5zM-39.2 1578l70.8-10.3 116.6-17c.5 2 1.8 3.9 3.8 5l1.2.6-7.9 30.3c-3.2-.5-6.5 1-8.2 3.9-.5.8-.8 1.7-.9 2.6l-175.4-14.9v-.2zm460.8-861.5l-18.3-127.2c1.4-.3 2.6-1.1 3.7-2.1l54.8 45.1c-.1.1-.2.2-.3.4-2.2 3.7-1 8.4 2.5 10.7L424.9 717c-1.1-.4-2.2-.6-3.3-.5zm-289.1 98l-90.3 70.4c-.5-.5-1.1-1-1.7-1.4-1.2-.7-2.5-1-3.8-1.1l-9-125.2c2.1-.4 4-1.5 5.2-3.4l98.9 53.3c-.9 2.5-.7 5.2.7 7.4zm284.2-96.2l-75.4-73.5-13-12.7c.2-.3.5-.6.7-.9 1.4-2.3 1.4-5 .4-7.3l65.5-37.7c.6.9 1.5 1.7 2.5 2.3 1.4.8 2.9 1.1 4.4 1.1l18.3 127.2c-1.4.2-2.4.7-3.4 1.5zM267.9 556.8l23.3 31.4c-.6.5-1.1 1.1-1.6 1.9-1.6 2.8-1.4 6.2.4 8.7l-56.8 49.6c-.4-.4-.9-.8-1.4-1.1-.2-.1-.4-.2-.7-.3l30.8-89.2c2.1.4 4.2.1 6-1zM167.1 844.9l20.3 24.4c-.5.5-.9 1-1.2 1.6-.7 1.3-1.1 2.7-1.1 4L82.4 885.1l-38.1 3.8c-.2-.9-.6-1.8-1.1-2.6l3-2.3 87.3-68.1c.5.5 1.1 1 1.7 1.4 2.8 1.6 6.1 1.4 8.5-.3l23.4 27.9zm-413.4 173.3l64 142.4c-1.2.7-2.2 1.6-2.9 2.9-.4.6-.6 1.3-.8 2l-92.1-14.6-25.4-4c.2-2.9-1.2-5.8-3.9-7.4l55.9-121.3c1.8.6 3.6.5 5.2 0zm108 447.9l65.1-109.8c3.7 1.7 8.1.4 10.3-3.1l41.9 19.7 102.4 48.3c-.4 1.1-.5 2.3-.4 3.5l-216.4 45.4c-.6-1.5-1.5-2.9-2.9-4zM571 895.4l10.9 41.8c-1.4.5-2.6 1.4-3.5 2.6l-158.1-97.5c.2-.4.4-.9.5-1.3l54.2 9.4 81 14c-.2 3 1.2 5.9 4 7.5 1.7 1 3.5 1.2 5.3 1l5.7 22.5zM234.3 649.6l56.8-49.6c.4.4.9.8 1.4 1.1 2.7 1.5 5.8 1.4 8.3-.1l15.6 20.2c-.5.5-1 1.1-1.4 1.8-1 1.7-1.3 3.7-.9 5.5l-78.8 22.7c-.4-.5-.6-1.1-1-1.6zm1.3 63l-6.1-50.5c2.1-.5 4-1.8 5.2-3.8 1-1.7 1.3-3.7.9-5.5l78.8-22.7c.4 1 1 1.9 1.7 2.6l-70.4 86.2-4.4 5.4c-.1-.1-.2-.2-.4-.3-1.3-.8-2.8-1.1-4.2-1.1l-1.1-10.3zm6.5 24.7l55.9 55.6 33.8 33.6c-.3.3-.5.6-.7 1-1 1.7-1.3 3.7-.9 5.6l-129.6 38.8c-.7-1.6-1.8-3-3.4-3.9-.3-.2-.6-.3-.9-.4L235.5 739c2.3.4 4.7-.2 6.6-1.7zm-309.6 604l4-20 10.4-51.8c2.5.2 5.1-.7 6.8-2.7l21.9 15.5 71.9 50.8c-.7 1.2-1 2.6-1 3.9L-62 1347.4c-.4-2.2-1.8-4.2-3.8-5.4-.6-.3-1.1-.5-1.7-.7zm48.8 31l-43.6-20.5c.3-.9.4-1.7.4-2.6l108.6-10.5c.4 2.2 1.7 4.2 3.8 5.4 2 1.1 4.2 1.4 6.2.8l28.5 71.9c-1.3.7-2.4 1.7-3.2 3l-100.7-47.5zm275.4-272.6l-147.6-30.5c.1-.6 0-1.2 0-1.8l146.9-34.8 13.6-3.2c.6 1.8 1.8 3.3 3.5 4.3 1.3.7 2.7 1.1 4.1 1.1l6.6 64c-2.2.5-4.1 1.8-5.3 3.8-.3.5-.5 1.1-.7 1.6l-21.1-4.5zm-157.3-59l167.3-12.4-97 23-61.1 14.5c-.6-1.8-1.8-3.3-3.5-4.3-1.9-1.1-4-1.3-5.9-.9l-4.4-12.8c1.4-.7 2.7-1.8 3.6-3.2.6-1.3 1-2.6 1-3.9zm105.2 107.8l-65.1 34.5c-.7-1-1.5-1.9-2.6-2.5-1.7-1-3.5-1.2-5.3-1l-18.2-68.6-9.3-35c1.7-.6 3.2-1.8 4.1-3.5.3-.5.5-1.1.7-1.6l146.6 30.3 22.1 4.6c-.1 1.3.1 2.6.6 3.8l-73.6 39zM-12.7 1096l-33.8-21.1c.4-.9.7-1.9.8-2.8l138.8-2.7c.3 2.4 1.7 4.7 3.9 6 1.7 1 3.5 1.2 5.3 1l9 33.9 18.5 69.8c-1.4.5-2.6 1.4-3.5 2.6l-139-86.7zm42.4-41.5l54-11.5c.6 1.8 1.8 3.5 3.6 4.5 1.9 1.1 4 1.3 5.9.9l4.4 12.8c-1.4.7-2.7 1.8-3.6 3.2-.6 1.1-.9 2.2-1 3.4l-138 2.7 74.7-16zM335.8 990l6.2-4c.5.7 1.2 1.3 2 1.8L288.3 1099c-.9-.4-1.9-.5-2.8-.5l-6.6-64c2.2-.5 4.1-1.8 5.3-3.8 1.4-2.5 1.4-5.3.2-7.7l51.4-33zm-95.9 203.3l-13.4 26c-3.6-1.4-7.9 0-9.9 3.4v.1l-76.2-33c.6-1.8.5-3.7-.2-5.4L207 1149l71.8-38.1c.6.9 1.3 1.6 2.3 2.3l-41.2 80.1zM84.2 1206l-129.4 51.8c-.7-1.3-1.7-2.4-3.1-3.2-1-.6-2.2-.9-3.3-1l-1.3-174.1c2.1-.2 4.1-1.3 5.5-3.1l31.8 19.8 141.1 87.8c-.9 1.8-1.1 3.9-.5 5.7L84.2 1206zm-219.8 33.7l34.2-110.9c1.1.2 2.2.2 3.3 0l42.4 125.5c-1.5.7-2.8 1.8-3.6 3.3-.4.6-.6 1.3-.8 1.9l-70.6-11.8c.2-3-1.2-5.9-4-7.5-.3-.3-.6-.4-.9-.5zm231.9-205.6l93.4-151.8c2.2 1 4.6 1 6.6.2l29.2 52.8 47 84.9c-.9.7-1.8 1.5-2.4 2.5-.7 1.2-1 2.5-1.1 3.8L99.3 1039c-.4-1.9-1.4-3.7-3-4.9zm196.2-90.2l48.7 33.3c-1.3 2.4-1.3 5.2-.1 7.5l-7.4 4.7-50.2 32.2c-.6-.8-1.3-1.4-2.2-2-2.3-1.3-4.9-1.4-7.2-.4l-76.3-137.6c.6-.4 1.1-.9 1.5-1.4l93.2 63.7zm7.6 182.7l41.1 52.4c-.5.5-1 1.1-1.4 1.7-1.1 1.8-1.3 3.9-.9 5.9L231 1223.5c-.6-1.3-1.6-2.5-2.9-3.4l10.6-20.5 44-85.5c2.4.9 5.1.6 7.2-.7l10.2 13.2zm-446.5 144.5l5.8-16.2c3.4.8 7-.6 8.9-3.8.4-.6.6-1.3.8-1.9l70.6 11.8v1.4l-83.8 18.6c-.6-1.8-1.8-3.4-3.6-4.4l-.6-.3 1.9-5.2zm52.6-155.5l35.2-37.7c.3.2.5.4.8.6 1 .6 2.2.9 3.3 1l1.3 174.1c-.3 0-.6.1-.9.1l-42.4-125.5c1.5-.7 2.8-1.8 3.6-3.3 1.8-3.1 1.3-6.8-.9-9.3zm42.5-51.9l26.2-132.2c2.1.2 4.2-.4 5.8-1.7l104.5 105.6c-.3.3-.5.7-.8 1-.9 1.5-1.2 3.3-1 4.9L-46 1068.9c-.6-1.8-1.8-3.5-3.6-4.5-.6-.3-1.2-.5-1.7-.7zM262 855.2l68.6-20.6c.7 1.6 1.8 3 3.4 3.9 1.2.7 2.5 1 3.8 1.1l9.1 133.5c-1.8.3-3.5 1.2-4.8 2.7L292.6 942l-92.4-63.2c.9-1.7 1.2-3.6.8-5.3l61-18.3zm97.6-21.9l7.8.3c.2 2.6 1.6 5.1 4 6.5.6.3 1.2.6 1.8.7l-1.5 8.4L348.9 973h-.3l-4-57.7-5.2-75.8c2.3-.4 4.4-1.7 5.6-3.9.5-.9.9-1.9 1-2.9l13.6.6zm15.2 87.5l-23.9 52.6c-.1 0-.2 0-.3-.1l22.8-123.9 1.5-8.3c3 .2 6-1.2 7.6-4 .4-.6.6-1.3.8-2l21.7 3.3c-.1 2.9 1.3 5.8 3.9 7.4l-34.1 75zm-27.9 133.6l-.9 122.3c-1.2.1-2.4.5-3.5 1.2l-20.3-25.9-31.1-39.7c.5-.5 1-1.1 1.4-1.7 2.2-3.8 1-8.5-2.7-10.9l55.6-111.2c.6.2 1.3.4 1.9.5l-.4 65.4zm-128.3 224l-.6 7c-1.5 0-2.9.5-4.2 1.3l-5.1-6.3-70.4-87.2c.5-.5.9-1 1.3-1.6v-.1l76.2 33c-1.1 3.5.3 7.5 3.6 9.4.8.5 1.7.8 2.6.9l-3.4 43.6zm-116.5-34l-44.5 85.2c-3.2-1.3-6.8-.4-9 2.2l-72.1-50.9-21.7-15.3c1.1-1.9 1.3-4.2.7-6.2l170.1-68.1c.6 1.2 1.5 2.2 2.7 3l-26.2 50.1zm-249.4 55l-1.9-8.2c1.8-.6 3.4-1.8 4.4-3.5.9-1.6 1.2-3.3 1-5l83.8-18.6c0 .1.1.1.1.2l-79.6 38.9c-.7-1.1-1.6-2-2.8-2.7-1.5-1-3.3-1.3-5-1.1zm-10.5-21.2l-12.2-8.9c1.2-2.1 1.4-4.6.6-6.7l23.8-11.3c.7 1.1 1.6 2.1 2.8 2.8l.6.3-5.8 16.2-1.9 5.3c-2.8-.8-5.9.1-7.9 2.3zm551.7-506.9l23.4-25.7c.2.1.3.2.5.3l-17.8 36-21.7 43.8c-3.6-1.3-7.8 0-9.8 3.5-.5.9-.9 1.9-1 2.9l-7.5-.3-13.9-.6c-.1-1.8-.8-3.5-2.1-4.9l49.9-55zm22.7 18.6l-3.7 41c-2.7 0-5.4 1.4-6.9 4-.4.6-.6 1.3-.8 2l-21.7-3.3c.1-2.8-1.2-5.6-3.7-7.2l19.9-40.1 19.6-39.6c.4.2.8.3 1.2.3l-3.9 42.9zm165.6 162.6l-3.5 16.6c-2.4-.2-4.7.6-6.4 2.2l-150-125.6 66.5 41 88.7 54.7c-1.8 3.8-.5 8.3 3.2 10.5l1.5.6zm-179 26.8l-46.9.8c-.3-2.4-1.6-4.7-3.9-6l13-28.5 45.1-99c2.9 1 6 .2 8.2-1.9l152.6 127.9c-.1.1-.2.3-.3.4-.6 1.1-.9 2.2-1 3.4l-166.8 2.9zm83.9 193.9l-132.5 10c-.4-2.2-1.7-4.3-3.9-5.5-1-.6-2.1-.9-3.2-1l.9-123 .5-64.7c1.2-.1 2.4-.5 3.4-1.2l137.2 179.7c-.6.5-1.1 1.1-1.5 1.8-.5 1.3-.8 2.6-.9 3.9zm-248.7 102.1l-14.6 12.3c-.5-.4-.9-.8-1.5-1.2-.8-.5-1.7-.8-2.6-.9l.7-8.1 3.4-42.5c2.7-.1 5.3-1.5 6.8-4 1.1-1.8 1.3-3.9.9-5.9l107.9-36.9c.2.4.4.8.7 1.1l-101.7 86.1zm-148.3 51.4l-28 7.5c-.6-1.5-1.6-2.9-3.1-3.8l44.6-85.5 26-49.9c2.5 1 5.2.7 7.3-.7l75.5 93.5c-.5.5-.9 1-1.3 1.6-1 1.7-1.2 3.5-1 5.3l-120 32zm-166.6 17.8l-62.3-34c.8-1.9.8-4 .1-5.9l79.6-38.9c.7 1.1 1.6 2 2.8 2.7.5.3 1.1.5 1.7.7l-10.5 52.5-3.9 19.3c-3-.2-5.8 1.1-7.5 3.6zM-177 1199.4l-.3-23.8c.6-.1 1.3-.2 1.9-.5l1.4 2.8 31 62.4c-1.1.7-2 1.6-2.7 2.7-1.2 2.1-1.4 4.6-.6 6.7l-23.8 11.3c-.7-1.1-1.6-2.1-2.8-2.8-1.1-.6-2.2-.9-3.3-1l-.8-57.8zm50.6-61.8l20.1-12c.6.8 1.4 1.6 2.4 2.2.3.2.6.3.9.4l-34.2 110.9c-1.5-.3-3-.2-4.4.4l-32.3-65.2c1.1-.7 2-1.6 2.7-2.7 1.4-2.4 1.4-5.1.3-7.5l44.5-26.5zm58-77.1l7.9 6.5c-.1.1-.2.2-.3.4-1.8 3.1-1.3 6.8.9 9.3l-17.8 19.1-17.4 18.7c-.3-.2-.5-.4-.8-.6-1.9-1.1-4-1.3-6-.8l-38.8-108c.8-.4 1.5-.9 2.2-1.6l70.1 57zm61.2-145.4l37-20c.7 1 1.5 1.8 2.6 2.4 1.9 1.1 4.1 1.3 6 .8l9.4 25.6 40 109.3c-.5.3-1 .6-1.5 1L-18.2 928.6c.3-.3.5-.7.8-1 1.3-2.3 1.4-4.9.4-7.1l9.8-5.4zm86.1-28l106.3-10.5c.4 1.9 1.4 3.5 3 4.8l-93.4 151.8c-1.8-.8-3.7-1-5.5-.6L49.5 923.9 40 897.8c1.4-.7 2.6-1.8 3.4-3.2.7-1.3 1.1-2.7 1.1-4l34.4-3.5zM304.6 594l88.9-10.8c.1.5.3 1 .5 1.5l-65.5 37.7c-.6-.9-1.5-1.7-2.5-2.3-2.7-1.6-5.8-1.4-8.3.1L302.1 600c.5-.5 1-1.1 1.4-1.8.8-1.3 1.1-2.8 1.1-4.2zm33.9 50.4l77.1 75.1c-.2.3-.5.6-.7.9-.6 1.1-1 2.3-1 3.5l-105.6 3.7-63.3 2.2c-.2-1.7-1-3.3-2.3-4.6l74.8-91.6c.1.1.2.2.4.3 3 1.8 6.7 1.3 9.2-.8l11.4 11.3zm25.5 93l50 2.2c.1 1.8.8 3.5 2.1 4.9l-18.9 20.8-54.4 59.9c-.2-.2-.4-.4-.7-.5-3-1.7-6.6-1.3-9.2.7l-89.7-89.2c.3-.3.5-.6.7-1 .5-.9.8-1.9 1-2.9l119.1 5.1zm63.5 7.6l129.9 115.4c-.1.2-.3.4-.5.6-.4.6-.6 1.2-.8 1.9l-4.2-.7L421 839.5c.2-3-1.2-5.9-4-7.5-.8-.5-1.6-.7-2.5-.9l3.5-38.7 4.1-45.2c2-.1 3.9-.9 5.4-2.2zm200.6 169.9l-37.2 24.8c-.6-.7-1.3-1.4-2.1-1.9-1.7-1-3.5-1.2-5.3-1l-10.6-40.9-6.1-23.4c1.7-.6 3.2-1.8 4.2-3.5.1-.2.2-.4.2-.5l75.8 27.6c-.5 1.9-.2 4 .7 5.7l-19.6 13.1zm-415.8 383.9l-65.1 72.2c-.2-.2-.4-.3-.7-.5-3.8-2.2-8.8-.9-11 2.9l-73.2-33.7c.4-1.3.5-2.6.3-3.9l21.2-5.7 126.9-33.9c.4 1 .9 1.8 1.6 2.6zm-107.2 110l-10.6 9.2c-.4-.4-.9-.8-1.4-1.1-2-1.1-4.2-1.4-6.2-.8l-28.5-71.9c1.3-.7 2.4-1.7 3.2-3l73.2 33.7c-.8 2.5-.4 5.2 1 7.2l-30.7 26.7zm-255.4-108.3l-21.3-29.3.6-.6 12.2 8.9c-2.2 3.9-.9 8.8 2.9 11 1.6.9 3.4 1.2 5.1 1l1.9 8.2c-.5.3-1 .5-1.4.8zm-53.3-59.9l-101.4-89.5c.1-.2.3-.4.4-.6.4-.6.6-1.3.8-2l56.9 9 60.5 9.6c-.2 2.9 1.3 5.8 4 7.4 1.1.6 2.2.9 3.3 1l.3 21.3.8 60.4c-1.7.2-3.2.9-4.5 2.1l-21.1-18.7zm56.2-222l2.6-12.8c.9.1 1.8 0 2.7-.2l31.9 88.8 6.9 19.1c-1.4.7-2.6 1.8-3.5 3.2-1.4 2.4-1.4 5.1-.3 7.5l-18.4 10.9-46.2 27.5c-.6-.8-1.4-1.6-2.4-2.2-.5-.3-1.1-.5-1.7-.7l28.4-141.1zm27.1-34.6l89.4-55.6c.6.8 1.4 1.5 2.3 2 .5.3 1.1.5 1.7.7L-53 1063.4c-2.4-.2-4.7.6-6.4 2.3l-34.3-28-43.6-35.6.3-.3c1.4-2.4 1.4-5.3.3-7.6l16.4-10.2zM-75 872.8L28.4 890c-.1 1.2.1 2.4.6 3.6l-37.8 20.5-9 4.9c-.7-1-1.5-1.8-2.6-2.4-3.4-2-7.7-1.2-10.2 1.8l-70.6-48.1c.3-.5.5-1.1.7-1.7l25.5 4.2zm290.5-132.2l-10.9 5.3c-.7-1.1-1.6-2-2.8-2.7-.3-.2-.6-.3-.9-.4l25.2-80.7c.6.1 1.1.2 1.7.2l7.4 60.9c-2.1.5-4 1.8-5.2 3.8a7.84 7.84 0 0 0-.6 6.8l-13.9 6.8zm202.3-9.1c.2.1.5.2.7.3-1.4.7-2.6 1.8-3.4 3.2-.5.9-.9 1.9-1 2.9l-48.2-2.1-107.6-4.7 155.6-5.5c.3 2.4 1.7 4.6 3.9 5.9zm166.8 322.9l2.3 23.8c-2.2.4-4.2 1.8-5.4 3.8v.1L356 983.5c.2-.6.3-1.2.3-1.8l213.6-3.7c.3 2.4 1.7 4.7 3.9 6 1.3.7 2.6 1.1 4 1.1l6.8 69.3zm-2.4 36.5l-81.7 76.5-1.2-.9c-2.7-1.5-5.8-1.4-8.3.1L353.8 986.9c.6-.5 1.1-1.1 1.5-1.8v-.1l225.6 98.5c-.8 2.6-.3 5.3 1.3 7.4zm-93.5 87.5l-62.2 58.5-1.2-.9c-3.3-1.9-7.3-1.2-9.9 1.4l-37.7-29.5-24.1-18.9c0-.1.1-.1.2-.2.7-1.2 1-2.5 1.1-3.8l120.9-9.2 11.5-.9c.2 1.3.7 2.4 1.4 3.5zm-74.3 60.3c0 .1-.1.1-.2.2-.9 1.6-1.2 3.4-1 5.2l-187.5 46.5c-.2-.6-.5-1.2-.9-1.8l116.3-98.3 1.5 1.2c3.3 1.9 7.3 1.2 9.9-1.4l25.3 19.7 36.6 28.7zm-268.1 197.7l8.3 104.5c-.5.1-1.1.3-1.6.5l-59.5-110.8c1-.7 1.8-1.5 2.5-2.6 1.6-2.8 1.4-6.2-.4-8.7l10.8-9.4 30.5-26.5c.4.4.9.8 1.4 1.1 1.2.7 2.5 1 3.9 1.1l4.1 50.8zM27.5 1566.6l-66.9 9.8c-.3-1.3-1-2.5-1.9-3.5l80.7-91.5 44.9-51c.2.1.4.3.6.4 2.3 1.3 4.9 1.4 7.1.5l59.5 110.8c-1 .7-1.8 1.5-2.5 2.6-.8 1.4-1.1 2.9-1.1 4.4l-120.4 17.5zm-236.3-300.1l-153.3 10.2c-.4-2.3-1.7-4.4-3.9-5.6l9-20.2 43-96.8c2.8.9 5.8.2 7.9-1.8l100.4 88.6 22.2 19.6c-.1.2-.3.4-.4.6-.7 1.2-1 2.5-1.1 3.8l-23.8 1.6zm-241.5 71.9l29.9-45.3c1.5.8 3.1 1 4.7.8l6.3 26.9c-1.8.6-3.3 1.8-4.4 3.5-1.1 1.8-1.3 3.9-.9 5.8l-33.4 11.1c-.5-1-1.3-2-2.2-2.8zm74.8-54.3l-27.3 37.4c-1.6-.9-3.4-1.2-5.1-1l-6.3-26.9c1.8-.6 3.3-1.8 4.4-3.5.8-1.4 1.2-3 1.1-4.6l30.8-5.2c.5 1.4 1.3 2.7 2.4 3.8zm3.9 1.9l-14 161.9h-.4l-9.9-59.1-8.8-52.6c2-.5 3.7-1.8 4.8-3.7 2-3.4 1.2-7.6-1.6-10.1l27.3-37.4c.9.5 1.8.8 2.6 1zm-47.8-7.6l-43.2-89.9.9-.6 85.5 85.1c-.3.3-.5.6-.7 1-.8 1.4-1.2 3-1.1 4.6l-30.8 5.2c-.5-2-1.8-3.7-3.7-4.8-2.3-1.3-4.8-1.4-6.9-.6zm-39.5-97.7l139.8-31.7c.6 1.8 1.8 3.4 3.6 4.4l-42.6 95.8-9.4 21.2c-2.6-.9-5.5-.3-7.6 1.4l-85.5-85.1c.3-.3.5-.6.7-1 .9-1.6 1.2-3.3 1-5zm255.7-174.9l51.4-6.3c.5 2.1 1.8 4 3.8 5.2.5.3 1.1.5 1.7.7l-1.9 9.3-29.1 144.8c-1.1-.1-2.2 0-3.3.4l-26.2-58.3-37.8-84.2c1.2-.7 2.2-1.6 2.9-2.9.8-1.3 1.1-2.8 1.1-4.2l37.4-4.5zm62.1-15.6l31.5-115.9c2.8.4 5.6-.6 7.5-2.7l4 2.8 66.6 45.3c-1.3 2.4-1.3 5.1-.2 7.4l-89.3 55.5-16.6 10.3c-.6-.8-1.4-1.5-2.3-2-.4-.3-.8-.5-1.2-.7zm338.3-202.3l1.1-29.6c2.6-.2 5-1.6 6.5-4 1.3-2.2 1.4-4.7.6-6.8l9.3-4.5 15.6-7.6c.7 1.1 1.6 2 2.8 2.7.3.2.6.3.9.4l-39.2 128.6c-.1 0-.3-.1-.4-.1l2.8-79.1zM73 687.7l147-31c.6 1.8 1.8 3.5 3.6 4.5.3.2.6.3.9.4l-3.6 11.5-21.6 69.2c-3.3-.7-6.7.7-8.5 3.7L72.7 691.2c.3-1.1.5-2.3.3-3.5zm198.4-135.2l121.9 27.9v1.1l-88.9 10.8c-.5-2.1-1.8-4-3.8-5.2-2.6-1.5-5.7-1.4-8.2.1l-23.3-31.4c.6-.5 1.1-1.1 1.6-1.9.3-.4.6-.9.7-1.4zM498 761.8l92.3 26.6c-.6 3.2.8 6.6 3.8 8.4l-22 48.1-5.7 12.5c-2.8-.9-5.9-.2-8 1.7L428.6 743.7c.1-.2.3-.4.4-.6.2-.3.3-.7.5-1l68.5 19.7zm151.9 128.8l.4.8c-1 .7-1.9 1.5-2.5 2.7-.1.2-.2.4-.2.5L571.7 867c.9-3.4-.5-7.1-3.7-8.9l6.3-13.9 21.3-46.7c1.8.6 3.8.5 5.5-.2l48.8 93.3zm-45.3 57.8l-21.8 22.3c-.3-.2-.6-.5-.9-.7-.5-.3-1-.5-1.6-.7l3.5-16.6c3.1.3 6.2-1.1 7.8-4a8.3 8.3 0 0 0 .2-7.8l35-23.3 21.7-14.5-43.9 45.3zm-24.5 36.4l57.4 143.3c-.5.3-1 .6-1.5 1.1l-40.9-38.3c.2-.3.4-.5.6-.8 2.2-3.9.9-8.8-2.9-11-1.3-.7-2.7-1.1-4-1.1l-2.2-22.6-6.9-70.4c0-.1.2-.1.4-.2zm-696 516.5l-21.2-23.4c.4-.4.7-.8 1-1.3.9-1.5 1.2-3.2 1-4.9l216.4-45.4c.4 1.1.9 2.1 1.7 3l-125.6 142.5c-.2-.1-.4-.3-.6-.4-2.9-1.7-6.3-1.4-8.8.5l-63.9-70.6zm-27.6-89.4l-1.8-96.4c2.2-.3 4.3-1.5 5.6-3.4l62.3 34c-1.4 3.4-.3 7.3 2.6 9.6l-65.1 109.8c-.9-.4-1.8-.6-2.7-.7l-.9-52.9zm-115.6-120.1l-102.5-13.4 165.3-11 11.4-.8c.4 2.3 1.7 4.4 3.9 5.6 2.6 1.5 5.7 1.4 8.1 0l21.3 29.3c-.6.5-1.2 1.2-1.6 1.9-.4.7-.7 1.4-.8 2.2l-105.1-13.8zM-389 1448.7l-61.5-97.7c.8-.6 1.5-1.4 2-2.3 1.1-1.8 1.3-3.9.9-5.8l33.4-11.1c.7 1.5 1.8 2.8 3.3 3.7 1.4.8 3 1.2 4.6 1.1l18.7 111.7c-.5 0-1 .2-1.4.4zm77.8-310.3L-322.7 982c2.2-.4 4.2-1.7 5.4-3.7l60.8 29.5c-1.3 3.6.1 7.7 3.5 9.7l-56 121.3c-.6-.3-1.4-.4-2.2-.4zm68.5-133.1l54.6-57.8c.3.2.5.4.8.6 2.5 1.5 5.5 1.4 7.9.1l30.1 43.5c-.7.6-1.3 1.2-1.7 2-.8 1.3-1.1 2.8-1.1 4.2l-49.6 6-39.3 4.8c-.2-1.2-.8-2.4-1.7-3.4zM4.5 769.4l16.3-14.2c.4.4.9.8 1.4 1.1 1.2.7 2.5 1 3.8 1.1l9 125.2c-2.3.4-4.3 1.7-5.6 3.9-.4.6-.6 1.3-.8 1.9l-128.9-21.5c.1-1.8-.4-3.6-1.4-5.1L4.5 769.4zm152.2 24.1l36-37c.3.2.6.5.9.7.9.5 1.9.9 2.9 1l-2.7 73.3-1.3 35.4c-1.4.1-2.8.6-3.9 1.4L145 815.9c.5-.5.9-1 1.2-1.6 1.8-3 1.3-6.7-.8-9.2l11.3-11.6zm484.1 333.7c-.6 0-1.2.1-1.8.3l-57.4-143.3c1.3-.7 2.4-1.7 3.2-3.1 1.8-3 1.3-6.7-.8-9.2l23-23.6 42.7-43.8c.3.2.6.5.9.7.9.5 1.8.8 2.8 1l-12.6 221zm-407.6 224.9l13.7 50.8c-1.7.6-3.1 1.8-4.1 3.4-.2.3-.3.6-.4.9l-92.1-28.2c.5-2.5-.2-5-1.9-6.9l65.1-72.2c.2.2.4.3.7.5 1.7 1 3.6 1.2 5.3 1l13.7 50.7zm-27.8 122.3l-45.6 67.2c-1.1-.6-2.4-.9-3.6-.9l-12.4-155.3c2.2-.4 4.3-1.7 5.5-3.8.2-.3.3-.6.4-.9l92.1 28.2c-.6 2.8.4 5.8 2.7 7.7l-39.1 57.8zm-257.7 110.2l-65.6 100.8c-1.2-.6-2.4-.9-3.6-.9l-20-204.1c1.1-.2 2.2-.7 3.2-1.4l20.8 23 64.3 70.9c-.4.4-.7.8-1 1.3-2 3.6-1.1 8 1.9 10.4zM120.6 778l-50.7-83c.8-.6 1.5-1.4 2-2.3l118.2 54.9c-.9 2.7-.3 5.6 1.4 7.8L155.9 792l-11.6 11.9c-.3-.2-.6-.5-.9-.7-2.4-1.4-5.2-1.4-7.5-.3L120.6 778zm365.2-53.5l68.5-.9L430 737.3c-.5-2.1-1.8-4.1-3.8-5.3-.2-.1-.5-.2-.7-.3 1.4-.7 2.6-1.8 3.4-3.2.6-1.1.9-2.2 1-3.3l55.9-.7zm94.5 22.3l14.3 35.8c-1.3.7-2.4 1.7-3.2 3.1-.2.3-.3.7-.5 1L430 740.5c.1-.5.1-1 .1-1.5l133.5-14.7c.5 2.1 1.8 4.1 3.8 5.3 2 1.1 4.2 1.4 6.3.8l6.6 16.4zm-87.4 434.4l-16.5 90.5c-2.6-.2-5.1.8-6.8 2.9l-41.2-27.8c1.5-2.9 1.2-6.2-.7-8.7l62.2-58.5 1.2.9c.6.3 1.2.5 1.8.7zm-154.7 209.5l-80.6 17.2c-.6-1.8-1.8-3.5-3.6-4.5-1.7-1-3.6-1.2-5.3-1l-13.5-50.1-13.9-51.5c1.5-.6 2.7-1.5 3.7-2.9l92.5 51.3 54.7 30.3c-.6 1.3-.8 2.7-.6 4l-33.4 7.2zM139.3 1601L53 1741.3c-2.2-1-4.6-1-6.7-.1l-88.8-156.3c.9-.6 1.7-1.5 2.3-2.5.5-.8.8-1.7.9-2.6l175.4 14.9c.1 2.5 1.2 4.8 3.2 6.3zm-301.9-276l11.3-11.3c.3.3.6.5 1 .7 1.1.6 2.2.9 3.4 1l2.8 149.1c-2.4.3-4.7 1.7-6 3.9-.8 1.4-1.1 2.9-1.1 4.4l-68.1 10.2-113.1 17c-.3-1.1-.8-2.2-1.6-3.1l171.4-171.9zm-40.1 16.5L-379.1 1451c-.6-.8-1.4-1.5-2.3-2-.8-.5-1.7-.8-2.5-.9l14-161.9c2.7-.1 5.4-1.5 6.8-4 .4-.7.7-1.4.8-2.2l207.9 27.3c0 1.3.2 2.6.8 3.7l-49.1 30.5zm-187.8 108.2l-160.2-160c.1-.1.1-.2.2-.3l33.8 20 54 31.9c-1.7 3.7-.4 8.2 3.2 10.3 2.4 1.4 5.3 1.4 7.6.3l61.5 97.7c-.1 0-.1.1-.1.1zm-160.6-170.5l79.6-90.9c.2.1.4.3.6.4 2.1 1.2 4.6 1.4 6.8.6l43.2 89.9c-1.1.7-2.1 1.6-2.8 2.8-.6 1-.9 2.1-1 3.2l-124.2-1.2c-.2-1.9-1-3.5-2.2-4.8zm235-306.1l125.3-29.3c.3.9.8 1.8 1.5 2.6l-38.8 41.1-15.8 16.7c-.3-.2-.5-.4-.8-.6-3.8-2.2-8.6-1-10.9 2.7l-60.8-29.5c.4-1.2.5-2.5.3-3.7zm192.4-90.2l10.3-10.3c.3.3.6.5 1 .7s.8.4 1.2.5l-31.5 115.9c-1.8-.3-3.6 0-5.2.9l-30.1-43.5c.7-.6 1.3-1.2 1.7-2 1.7-3 1.3-6.6-.7-9.1l53.3-53.1zm112.2-129.3l29.9-2.7c.2 1.1.6 2.2 1.3 3.1l-122.5 106.5c-.4-.4-.9-.8-1.4-1.1-2-1.2-4.2-1.4-6.3-.8l-22.1-54.8-12.7-31.6c1.3-.7 2.4-1.7 3.2-3.1.7-1.2 1-2.6 1.1-3.9l129.5-11.6zm47.4-17.7l25.6-40.1c2.3 1.1 4.9 1.1 7.1.1l49.4 80.9 16.5 27c-.7.5-1.2 1.2-1.7 1.9l-98.9-53.3c1.4-3.3.4-7.1-2.4-9.4l4.4-7.1zm33.9-53.8l68.1-115c2.7 1.3 5.8.9 8.2-.8l75.6 82.6c-.4.4-.7.8-.9 1.3-.9 1.5-1.2 3.3-1 4.9l-147 31c-.6-1.6-1.6-3-3-4zm331.7-180.8l-.9 72.1c-2.5.2-4.9 1.6-6.3 4-.3.5-.5 1-.7 1.5L271.7 551c.2-1.6-.1-3.2-.8-4.6L396.6 465c.6.7 1.3 1.4 2.2 1.9 1 .6 2.1.9 3.1 1l-.4 33.4zm30.6 72.3l58.1-16.4c.6 1.6 1.8 3.1 3.4 4l.6.3-23.8 67.4c-2.7-.6-5.5.1-7.5 2.1L408 585.8c.1-.1.2-.2.3-.4 1-1.7 1.3-3.6.9-5.4l22.9-6.4zm72.1 93.9l60.6 50.6c-.1.1-.2.3-.3.4-.6 1.1-.9 2.2-1 3.3l-55.4.7-78.1 1c-.3-2.3-1.5-4.4-3.5-5.7l39.2-73.7c3 1.2 6.4.5 8.6-1.7l29.9 25.1zm73.4 60.3L789 870.3l-32-13.7-151-64.4c1.1-3.5-.3-7.4-3.6-9.4-2-1.1-4.2-1.4-6.3-.8L583 749.3l-7.8-19.5c.9-.6 1.8-1.2 2.4-2zM792 881l-147.4 247c-.7-.3-1.4-.5-2.1-.7l12.7-221.1c2.6-.1 5.2-1.5 6.6-4 .8-1.4 1.2-3 1.1-4.6l47.8-8 78.4-13c.4 1.7 1.4 3.3 2.9 4.4zm-155 261.2l-23.5 50.3c-1.1-.4-2.2-.5-3.4-.4l-19.2-98.3c1.1-.3 2.1-.9 2.9-1.6l40.9 38.3c-.2.3-.4.5-.6.8-2.1 3.7-.9 8.6 2.9 10.9zm-313.5 308l-128.2 222.7c-1.5-.7-3.1-.8-4.6-.6l-24.1-87.9-7.7-28.1c1.6-.6 3.1-1.8 4.1-3.4 1.4-2.4 1.4-5.2.3-7.5l52.8-32.2 105.6-64.5 1.8 1.5zm-515.4 171.9l-90.8-89.6c.2-.3.5-.6.7-1 1.1-1.9 1.4-4.1.8-6.1l76-28.6 54.8-20.6c.7 1.4 1.7 2.6 3.2 3.4 1.3.7 2.6 1.1 4 1.1l20 204.1c-1.3.3-2.5.8-3.5 1.7l-65.2-64.4zm-180.5-154l-6.9-7c.3-.3.6-.7.8-1.1 1.4-2.4 1.4-5.3.3-7.6l175.8-109.2 49.7-30.9c0 .1.1.1.1.1l-15.6 15.7-167 167.7c-.3-.3-.6-.5-1-.7-3-1.7-6.6-1.3-9.1.7l-27.1-27.7zM-543 1267.4l195.1-260.1-23.4 34-91.7 133.3c-3.8-2.1-8.6-.8-10.8 3-1.8 3.1-1.3 7 1.1 9.5l-70.3 80.3zm364.6-346.7l28.6-147.6c1 .1 2 0 2.9-.3l34.8 86.4c-1.3.7-2.4 1.7-3.2 3.1-1.7 3-1.3 6.6.7 9.1l-8.1 8.1-55.4 55.3c-.3-.3-.6-.5-1-.7-.6-.3-1.1-.6-1.7-.7l2.4-12.7zM17.9 720.6l-31.7-98.4c.8-.3 1.5-.8 2.1-1.4L35.4 663l23.1 20.8c-.2.2-.3.4-.5.7-2 3.5-1.1 7.9 2 10.4l-25.3 39.8-4.8 7.5c-1.7-.8-3.5-1-5.3-.7l-6.7-20.9zm473.5-171.5c-.3.3-.5.6-.7 1-1 1.7-1.3 3.6-.9 5.4l-60 16.9-20.9 5.9c-.6-1.6-1.8-3.1-3.4-4-1-.6-2.1-.9-3.1-1l.9-70 .5-35.5c1.6-.1 3.1-.8 4.4-1.8l83.2 83.1zm76.1 166.5c-.6.3-1.1.7-1.6 1.2L505 666l-29.8-24.9c.1-.1.2-.3.3-.4 2.2-3.9.9-8.8-2.9-11l-.6-.3 23.8-67.4c1.5.3 2.9.3 4.3-.2l67.4 153.8zm-85.3 559.3c-.6-.9-1.4-1.6-2.4-2.2-.6-.3-1.2-.6-1.8-.7l10.1-55.1 6.5-35.4c3 .2 6-1.2 7.6-4 .3-.5.5-1 .7-1.4l100 23c-.2 1.5.1 3 .7 4.3l-121.4 71.5zm-98 101.5c-.3-.2-.5-.4-.8-.6s-.6-.3-1-.4l37.3-124.4c2.8.5 5.8-.5 7.7-2.7l41.2 27.8c-1.6 3-1.1 6.6 1 9.1l-85.4 91.2zm-51.5 60.6c-.2-.1-.3-.2-.4-.3-3.9-2.2-8.8-.9-11 2.9 0 .1 0 .1-.1.2l-15.9-6.8-47.6-20.2c.3-1.1.4-2.2.3-3.2l113.9-24.3c.4 1.1 1 2.2 1.9 3.1l-41.1 48.6zm-160.9 253.5c-.7-.9-1.5-1.8-2.5-2.4-1.5-.9-3.2-1.2-4.9-1l-.6-3-17.1-81.9c.2-.1.5-.2.7-.3l29.3 52.4 10.7 19.2c-.9.7-1.7 1.5-2.3 2.5-1.3 2.3-1.4 5-.4 7.2l-12.9 7.3zm-115.4 54c-.5-.9-1.2-1.6-2-2.3l46.5-75.7 39.8-64.7c1.4.7 2.9.9 4.3.8l17.4 83.1.4 1.7c-1.8.6-3.5 1.8-4.5 3.6-1.2 2.1-1.4 4.5-.6 6.7l-101.3 46.8zm-170.1-50.2c.6-2.9-.4-6-2.8-7.9l65.6-100.8c2.2 1.1 4.7 1.2 6.9.2L44.8 1742c-.9.6-1.7 1.5-2.3 2.5-.1.3-.2.5-.4.8l-155.8-51zm-219.9-187.5c.1-.1.2-.2.2-.3l36.9 18.2c-1.3 3.6 0 7.8 3.5 9.8 3 1.7 6.6 1.3 9.2-.8l142.5 140.6-192.3-167.5zm180-735c.1.1.3.2.4.3.6.3 1.1.5 1.7.7l-28.7 148.1-2.4 12.2c-3-.3-6.1 1.2-7.7 4-.9 1.6-1.2 3.4-1 5.1l-52.2 12.2-73.1 17.1c-.4-1.1-1-2.1-1.8-3l164.8-196.7zm132-150.4c.2.1.4.3.6.4 1.8 1 3.8 1.3 5.7.9L16 719.8l7.1 22.1c-1.5.7-2.8 1.8-3.7 3.3-.7 1.2-1 2.6-1.1 3.9l-159.5 14.3c-.3-1.4-1-2.8-2-3.9l121.6-138.1zM134 563.2c.6 1.2 1.4 2.2 2.5 3l-20.1 33.9-48.1 81.1c-3-1.4-6.4-.8-8.7 1.3l-70.1-63.1c.2-.2.3-.4.5-.7 1.1-1.9 1.3-4 .9-5.9L134 563.2zm148-148.6c.3.2.6.5.9.6.6.4 1.3.6 1.9.8l-6 36.5-14.6 89.3c-2.9-.2-5.9 1.3-7.5 4-.7 1.2-1 2.6-1.1 3.9l-106.5 8.6c-.3-1.4-.8-2.6-1.8-3.7l134.7-140z"/></g><g><defs><path id="SVGID_7_" d="M0 0h1440.1v1017.5H0z"/></defs><clipPath id="SVGID_8_"><use xlink:href="#SVGID_7_" overflow="visible"/></clipPath><g clip-path="url(#SVGID_8_)"><g fill="none" stroke="#66666D" stroke-miterlimit="10"><path id="triangle36" d="M-126.3 1260l74.4 50.4 28.3-23.5z"/><path id="triangle36_1_" d="M-126.3 1260l102.7 26.9-12.1-111.3z"/><path id="triangle36_2_" d="M222.4 517.4l-35.5 61.7-29.9-12.2z"/><path id="triangle36_3_" d="M222.4 517.4L157 566.9 117.6 550z"/><path id="triangle36_4_" d="M-23.6 1286.9l-28.3 23.5 23.3 24.7z"/><path id="triangle36_5_" d="M-23.6 1286.9l59.2 125.5-64.2-77.3z"/><path id="triangle36_6_" d="M284.8 1160.6l-79 56.7-22.4-65.7z"/><path id="triangle36_7_" d="M-35.7 1175.6l12.1 111.3 124.7-84.1z"/><path id="triangle36_8_" d="M197.2 796L313 865.1l29.9-58.5z"/><path id="triangle36_9_" d="M495.6 714.2l-152.7 92.4-12.1-120.7z"/><path id="triangle36_10_" d="M222.4 517.4l-35.5 61.7 105.2 26.4z"/><path id="triangle36_11_" d="M292.1 605.5l5.8 9.7 93.9-69.4z"/><path id="triangle36_13_" d="M445.6 1298.6l53.4 59.3 12.2-20.5z"/><path id="triangle36_14_" d="M445.6 1298.6l53.4 59.3-56.8 81.1z"/><path id="triangle36_15_" d="M445.6 1298.6l-135 63.9 131.6 76.5z"/><path id="triangle36_16_" d="M310.6 1362.5l131.6 76.5-136.9 29.3z"/><path id="triangle36_17_" d="M305.3 1468.3L84 1425.8l44.4-3.1z"/><path id="triangle36_18_" d="M-51.9 1310.4l23.3 24.7L-55 1365z"/><path id="triangle36_19_" d="M-28.6 1335.1l64.2 77.3L-55 1365z"/><path id="triangle36_20_" d="M-126.3 1260l74.4 50.4-94.7 54z"/><path id="triangle36_21_" d="M-51.9 1310.4L-55 1365l-91.6-.6z"/><path id="triangle36_22_" d="M-55 1365l90.6 47.4-182.2-48z"/><path id="triangle36_23_" d="M35.6 1412.4l48.4 13.4-230.6-61.4z"/><path id="triangle36_24_" d="M-35.7 1175.6l-90.6 84.4 14.8-195.3z"/><path id="triangle36_25_" d="M-126.3 1260l-20.3 104.4 35.1-299.7z"/><path id="triangle36_26_" d="M-75.6 855.9l-35.9 208.8 81.7-77.2z"/><path id="triangle36_27_" d="M101.1 1202.8l-136.8-27.2 97.8-37.9z"/><path id="triangle36_28_" d="M183.4 1151.6l22.4 65.7-67.6 1.9z"/><path id="triangle36_29_" d="M101.1 1202.8l-124.7 84.1 161.8-67.7z"/><path id="triangle36_30_" d="M-23.6 1286.9l59.2 125.5 102.6-193.2z"/><path id="triangle36_31_" d="M35.6 1412.4l48.4 13.4 54.2-206.6z"/><path id="triangle36_32_" d="M205.8 1217.3l-67.6 1.9 66.7 109.7z"/><path id="triangle36_33_" d="M138.2 1219.2L84 1425.8l120.9-96.9z"/><path id="triangle36_34_" d="M310.6 1362.5l-5.3 105.8-100.4-139.4z"/><path id="triangle36_35_" d="M128.4 1422.7l176.9 45.6-100.4-139.4z"/><path id="triangle36_36_" d="M128.4 1422.7l-44.4 3.1 120.9-96.9z"/><path id="triangle36_37_" d="M284.8 1160.6l-79 56.7 136-11.8z"/><path id="triangle36_38_" d="M205.8 1217.3l-.9 111.6 136.9-123.4z"/><path id="triangle36_39_" d="M204.9 1328.9l105.7 33.6 31.2-157z"/><path id="triangle36_40_" d="M342.9 806.6L313 865.1l36.8 50.4z"/><path id="triangle36_41_" d="M342.9 806.6l78.6 137.5-71.7-28.6z"/><path id="triangle36_42_" d="M313 865.1l-102 96.8 138.8-46.4z"/><path id="triangle36_43_" d="M197.2 796L313 865.1l-119.5 81.8z"/><path id="triangle36_44_" d="M197.2 796L98 867.7l95.5 79.2z"/><path id="triangle36_45_" d="M313 865.1l-102 96.8-17.5-15z"/><path id="triangle36_46_" d="M211 961.9l-102.9 62.5 85.4-77.5z"/><path id="triangle36_47_" d="M197.2 796L98 867.7l37.8-94.2z"/><path id="triangle36_48_" d="M117.6 550l39.4 16.9-22.8 67.3z"/><path id="triangle36_49_" d="M157 566.9l29.9 12.2-52.7 55.1z"/><path id="triangle36_50_" d="M391.8 545.8l-93.9 69.4 138.2-34.8z"/><path id="triangle36_51_" d="M602.6 559.8l-210.8-14 44.3 34.6z"/><path id="triangle36_52_" d="M495.6 714.2l-164.8-28.3 156.8 4z"/><path id="triangle36_53_" d="M487.6 689.9l8 24.3 20.8-83z"/><path id="triangle36_54_" d="M495.6 714.2L600 795.7l-83.6-164.5z"/><path id="triangle36_55_" d="M602.6 559.8l-166.5 20.6 80.3 50.8z"/><path id="triangle36_56_" d="M602.6 559.8L600 795.7l-83.6-164.5z"/><path id="triangle36_57_" d="M495.6 714.2L600 795.7l-54.6-12.5z"/><path id="triangle36_58_" d="M495.6 714.2l-152.7 92.4 202.5-23.4z"/><path id="triangle36_59_" d="M600 795.7l4.9 55.4-59.5-67.9z"/><path id="triangle36_60_" d="M421.5 944.1l-43.9 123.2 116.7-113.2z"/><path id="triangle36_61_" d="M391.8 545.8l-99.7 59.7-3-77.3z"/><path id="triangle36_62_" d="M222.4 517.4l69.7 88.1-3-77.3z"/><path id="triangle36_63_" d="M391.8 545.8l-102.7-17.6-12.7-66.7z"/><path id="triangle36_64_" d="M289.1 528.2l-66.7-10.8 54-55.9z"/><path id="triangle36_66_" d="M222.4 517.4L117.6 550l58.3-114.9z"/><path id="triangle36_67_" d="M276.4 461.5l-54 55.9-46.5-82.3z"/><path id="triangle36_68_" d="M175.9 435.1L117.6 550 77.8 445.8z"/><path id="triangle36_69_" d="M117.6 550l16.6 84.2-95-29.7z"/><path id="triangle36_70_" d="M134.2 634.2l-95.9 86.6.9-116.3z"/><path id="triangle36_71_" d="M38.3 720.8l-83.9-17.5 84.8-98.8z"/><path id="triangle36_72_" d="M77.8 445.8L117.6 550l-78.4 54.5z"/><path id="triangle36_74_" d="M38.3 720.8l-83.9-17.5L36 776.8z"/><path id="triangle36_75_" d="M38.3 720.8l97.5 52.7-99.8 3.3z"/><path id="triangle36_76_" d="M-45.6 703.3l-30 152.6L36 776.8z"/><path id="triangle36_77_" d="M135.8 773.5L98 867.7l-62-90.9z"/><path id="triangle36_78_" d="M186.9 579.1l105.2 26.4-121.7 76.6z"/><path id="triangle36_79_" d="M186.9 579.1l-52.7 55.1 36.2 47.9z"/><path id="triangle36_80_" d="M292.1 605.5l5.8 9.7-127.5 66.9z"/><path id="triangle36_81_" d="M297.9 615.2l-127.5 66.9 107.2 28.1z"/><path id="triangle36_82_" d="M170.4 682.1L197.2 796l80.4-85.8z"/><path id="triangle36_83_" d="M342.9 806.6L197.2 796l80.4-85.8z"/><path id="triangle36_84_" d="M377.6 1067.3l-92.8 93.3 74.7-7.2z"/><path id="triangle36_85_" d="M284.8 1160.6l57 44.9 17.7-52.1z"/><path id="triangle36_89_" d="M545.3 957.5l-51-3.4 26.5 110.2z"/><path id="triangle36_90_" d="M494.3 954.1l-116.7 113.2 143.2-3z"/><path id="triangle36_91_" d="M349.8 915.5l71.7 28.6-66.3 76.4z"/><path id="triangle36_92_" d="M421.5 944.1l-43.9 123.2-22.4-46.8z"/><path id="triangle36_93_" d="M349.8 915.5L211 961.9l67.8 67.6z"/><path id="triangle36_94_" d="M349.8 915.5l5.4 105-76.4 9z"/><path id="triangle36_95_" d="M211 961.9l-102.9 62.5 170.7 5.1z"/><path id="triangle36_96_" d="M355.2 1020.5l22.4 46.8-98.8-37.8z"/><path id="triangle36_97_" d="M377.6 1067.3l-92.8 93.3-6-131.1z"/><path id="triangle36_98_" d="M108.1 1024.4l75.3 127.2 95.4-122.1z"/><path id="triangle36_99_" d="M284.8 1160.6l-101.4-9 95.4-122.1z"/><path id="triangle36_100_" d="M108.1 1024.4l-89.4-14.2 77.8 65.5z"/><path id="triangle36_101_" d="M108.1 1024.4l75.3 127.2-86.9-75.9z"/><path id="triangle36_102_" d="M18.7 1010.2l43.4 127.5 34.4-62z"/><path id="triangle36_103_" d="M98 867.7l95.5 79.2L70 913.6z"/><path id="triangle36_104_" d="M193.5 946.9l-85.4 77.5L70 913.6z"/><path id="triangle36_105_" d="M108.1 1024.4l-89.4-14.2L70 913.6z"/><path id="triangle36_106_" d="M36 776.8l62 90.9L-8.6 908z"/><path id="triangle36_107_" d="M36 776.8l-111.6 79.1 67 52.1z"/><path id="triangle36_108_" d="M98 867.7l-28 45.9-78.6-5.6z"/><path id="triangle36_109_" d="M-75.6 855.9l45.8 131.6L-8.6 908z"/><path id="triangle36_110_" d="M70 913.6l-51.3 96.6L-8.6 908z"/><path id="triangle36_111_" d="M-29.8 987.5l48.5 22.7L-8.6 908z"/><path id="triangle36_112_" d="M-29.8 987.5l48.5 22.7-65.4 49.6z"/><path id="triangle36_113_" d="M-29.8 987.5l-81.7 77.2 64.8-4.9z"/><path id="triangle36_114_" d="M18.7 1010.2l43.4 127.5-108.8-77.9z"/><path id="triangle36_115_" d="M-111.5 1064.7l75.8 110.9-11-115.8z"/><path id="triangle36_116_" d="M62.1 1137.7l-97.8 37.9-11-115.8z"/><path id="triangle36_117_" d="M134.2 634.2l36.2 47.9-18.8 28.3z"/><path id="triangle36_118_" d="M134.2 634.2l-95.9 86.6 113.3-10.4z"/><path id="triangle36_119_" d="M170.4 682.1L197.2 796l-45.6-85.6z"/><path id="triangle36_120_" d="M38.3 720.8l97.5 52.7 15.8-63.1z"/><path id="triangle36_121_" d="M135.8 773.5l61.4 22.5-45.6-85.6z"/><path id="triangle36_122_" d="M297.9 615.2l32.9 70.7-27.4 10.7z"/><path id="triangle36_123_" d="M297.9 615.2l-20.3 95 25.8-13.6z"/><path id="triangle36_124_" d="M330.8 685.9l12.1 120.7-39.5-110z"/><path id="triangle36_125_" d="M277.6 710.2l65.3 96.4-39.5-110z"/><path id="triangle36_126_" d="M436.1 580.4l80.3 50.8-73.9 13.2z"/><path id="triangle36_127_" d="M436.1 580.4l-138.2 34.8 144.6 29.2z"/><path id="triangle36_128_" d="M516.4 631.2l-28.8 58.7-45.1-45.5z"/><path id="triangle36_129_" d="M297.9 615.2l32.9 70.7 111.7-41.5z"/><path id="triangle36_130_" d="M487.6 689.9l-156.8-4 111.7-41.5z"/><path id="triangle36_131_" d="M545.4 783.2l59.5 67.9-88.1 27.4z"/><path id="triangle36_132_" d="M545.4 783.2l-202.5 23.4 173.9 71.9z"/><path id="triangle36_133_" d="M604.9 851.1l-59.6 106.4-28.5-79z"/><path id="triangle36_134_" d="M342.9 806.6l78.6 137.5 95.3-65.6z"/><path id="triangle36_135_" d="M545.3 957.5l-51-3.4 22.5-75.6z"/><path id="triangle36_136_" d="M494.3 954.1l-72.8-10 95.3-65.6z"/><path id="triangle36_137_" d="M520.8 1064.3l-143.2 3 67 66.2z"/><path id="triangle36_138_" d="M520.8 1064.3l-10.6 61-65.6 8.2z"/><path id="triangle36_139_" d="M377.6 1067.3l-18.1 86.1 85.1-19.9z"/><path id="triangle36_140_" d="M510.2 1125.3l-65.6 8.2-9 129.7z"/><path id="triangle36_141_" d="M510.2 1125.3l1 212.1-75.6-74.2z"/><path id="triangle36_142_" d="M444.6 1133.5l-85.1 19.9 76.1 109.8z"/><path id="triangle36_143_" d="M359.5 1153.4l-17.7 52.1 93.8 57.7z"/><path id="triangle36_144_" d="M341.8 1205.5l-31.2 157 125-99.3z"/><path id="triangle36_145_" d="M445.6 1298.6l65.6 38.8-75.6-74.2z"/><path id="triangle36_146_" d="M445.6 1298.6l-135 63.9 125-99.3z"/><path id="triangle36_147_" d="M183.4 1151.6l-45.2 67.6-13-13.9z"/><path id="triangle36_148_" d="M101.1 1202.8l37.1 16.4-13-13.9z"/><path id="triangle36_149_" d="M96.5 1075.7l86.9 75.9-63.7 24.1z"/><path id="triangle36_150_" d="M96.5 1075.7l-34.4 62 57.6 38z"/><path id="triangle36_151_" d="M183.4 1151.6l-58.2 53.7-5.5-29.6z"/><path id="triangle36_152_" d="M62.1 1137.7l39 65.1 18.6-27.1z"/><path id="triangle36_153_" d="M125.2 1205.3l-24.1-2.5 18.6-27.1z"/></g><g fill="#66666D"><circle cx="-23.6" cy="1286.9" r="6.3"/><circle cx="-51.9" cy="1310.4" r="6.3"/><circle cx="-126.3" cy="1260" r="6.3"/><circle cx="-35.7" cy="1175.6" r="6.3"/><circle cx="-23.6" cy="1286.9" r="6.3"/><circle cx="-126.3" cy="1260" r="6.3"/><circle cx="157" cy="566.9" r="6.3"/><circle cx="186.9" cy="579.1" r="6.3"/><circle cx="222.4" cy="517.4" r="6.3"/><circle cx="117.6" cy="550" r="6.3"/><circle cx="157" cy="566.9" r="6.3"/><circle cx="222.4" cy="517.4" r="6.3"/><circle cx="-28.6" cy="1335.1" r="6.3"/><circle cx="-51.9" cy="1310.4" r="6.3"/><circle cx="-23.6" cy="1286.9" r="6.3"/><circle cx="-28.6" cy="1335.1" r="6.3"/><circle cx="35.6" cy="1412.4" r="6.3"/><circle cx="-23.6" cy="1286.9" r="6.3"/><circle cx="183.4" cy="1151.6" r="6.3"/><circle cx="205.8" cy="1217.3" r="6.3"/><circle cx="284.8" cy="1160.6" r="6.3"/><circle cx="101.1" cy="1202.8" r="6.3"/><circle cx="-23.6" cy="1286.9" r="6.3"/><circle cx="-35.7" cy="1175.6" r="6.3"/><circle cx="342.9" cy="806.6" r="6.3"/><circle cx="313" cy="865.1" r="6.3"/><circle cx="197.2" cy="796" r="6.3"/><circle cx="330.8" cy="685.9" r="6.3"/><circle cx="342.9" cy="806.6" r="6.3"/><circle cx="495.6" cy="714.2" r="6.3"/><circle cx="292.1" cy="605.5" r="6.3"/><circle cx="186.9" cy="579.1" r="6.3"/><circle cx="222.4" cy="517.4" r="6.3"/><circle cx="391.8" cy="545.8" r="6.3"/><circle cx="297.9" cy="615.2" r="6.3"/><circle cx="292.1" cy="605.5" r="6.3"/><circle cx="511.2" cy="1337.4" r="6.3"/><circle cx="499" cy="1357.9" r="6.3"/><circle cx="445.6" cy="1298.6" r="6.3"/><circle cx="442.2" cy="1439" r="6.3"/><circle cx="499" cy="1357.9" r="6.3"/><circle cx="445.6" cy="1298.6" r="6.3"/><circle cx="442.2" cy="1439" r="6.3"/><circle cx="310.6" cy="1362.5" r="6.3"/><circle cx="445.6" cy="1298.6" r="6.3"/><circle cx="305.3" cy="1468.3" r="6.3"/><circle cx="442.2" cy="1439" r="6.3"/><circle cx="310.6" cy="1362.5" r="6.3"/><circle cx="128.4" cy="1422.7" r="6.3"/><circle cx="84" cy="1425.8" r="6.3"/><circle cx="305.3" cy="1468.3" r="6.3"/><circle cx="-55" cy="1365" r="6.3"/><circle cx="-28.6" cy="1335.1" r="6.3"/><circle cx="-51.9" cy="1310.4" r="6.3"/><circle cx="-55" cy="1365" r="6.3"/><circle cx="35.6" cy="1412.4" r="6.3"/><circle cx="-28.6" cy="1335.1" r="6.3"/><circle cx="-146.6" cy="1364.4" r="6.3"/><circle cx="-51.9" cy="1310.4" r="6.3"/><circle cx="-126.3" cy="1260" r="6.3"/><circle cx="-146.6" cy="1364.4" r="6.3"/><circle cx="-55" cy="1365" r="6.3"/><circle cx="-51.9" cy="1310.4" r="6.3"/><circle cx="-146.6" cy="1364.4" r="6.3"/><circle cx="35.6" cy="1412.4" r="6.3"/><circle cx="-55" cy="1365" r="6.3"/><circle cx="-146.6" cy="1364.4" r="6.3"/><circle cx="84" cy="1425.8" r="6.3"/><circle cx="35.6" cy="1412.4" r="6.3"/><circle cx="-111.5" cy="1064.7" r="6.3"/><circle cx="-126.3" cy="1260" r="6.3"/><circle cx="-35.7" cy="1175.6" r="6.3"/><circle cx="-111.5" cy="1064.7" r="6.3"/><circle cx="-146.6" cy="1364.4" r="6.3"/><circle cx="-126.3" cy="1260" r="6.3"/><circle cx="-29.8" cy="987.5" r="6.3"/><circle cx="-111.5" cy="1064.7" r="6.3"/><circle cx="-75.6" cy="855.9" r="6.3"/><circle cx="62.1" cy="1137.7" r="6.3"/><circle cx="-35.7" cy="1175.6" r="6.3"/><circle cx="101.1" cy="1202.8" r="6.3"/><circle cx="138.2" cy="1219.2" r="6.3"/><circle cx="205.8" cy="1217.3" r="6.3"/><circle cx="183.4" cy="1151.6" r="6.3"/><circle cx="138.2" cy="1219.2" r="6.3"/><circle cx="-23.6" cy="1286.9" r="6.3"/><circle cx="101.1" cy="1202.8" r="6.3"/><circle cx="138.2" cy="1219.2" r="6.3"/><circle cx="35.6" cy="1412.4" r="6.3"/><circle cx="-23.6" cy="1286.9" r="6.3"/><circle cx="138.2" cy="1219.2" r="6.3"/><circle cx="84" cy="1425.8" r="6.3"/><circle cx="35.6" cy="1412.4" r="6.3"/><circle cx="204.9" cy="1328.9" r="6.3"/><circle cx="138.2" cy="1219.2" r="6.3"/><circle cx="205.8" cy="1217.3" r="6.3"/><circle cx="204.9" cy="1328.9" r="6.3"/><circle cx="84" cy="1425.8" r="6.3"/><circle cx="138.2" cy="1219.2" r="6.3"/><circle cx="204.9" cy="1328.9" r="6.3"/><circle cx="305.3" cy="1468.3" r="6.3"/><circle cx="310.6" cy="1362.5" r="6.3"/><circle cx="204.9" cy="1328.9" r="6.3"/><circle cx="305.3" cy="1468.3" r="6.3"/><circle cx="128.4" cy="1422.7" r="6.3"/><circle cx="204.9" cy="1328.9" r="6.3"/><circle cx="84" cy="1425.8" r="6.3"/><circle cx="128.4" cy="1422.7" r="6.3"/><circle cx="341.8" cy="1205.5" r="6.3"/><circle cx="205.8" cy="1217.3" r="6.3"/><circle cx="284.8" cy="1160.6" r="6.3"/><circle cx="341.8" cy="1205.5" r="6.3"/><circle cx="204.9" cy="1328.9" r="6.3"/><circle cx="205.8" cy="1217.3" r="6.3"/><circle cx="341.8" cy="1205.5" r="6.3"/><circle cx="310.6" cy="1362.5" r="6.3"/><circle cx="204.9" cy="1328.9" r="6.3"/><circle cx="349.8" cy="915.5" r="6.3"/><circle cx="313" cy="865.1" r="6.3"/><circle cx="342.9" cy="806.6" r="6.3"/><circle cx="349.8" cy="915.5" r="6.3"/><circle cx="421.5" cy="944.1" r="6.3"/><circle cx="342.9" cy="806.6" r="6.3"/><circle cx="349.8" cy="915.5" r="6.3"/><circle cx="211" cy="961.9" r="6.3"/><circle cx="313" cy="865.1" r="6.3"/><circle cx="193.5" cy="946.9" r="6.3"/><circle cx="313" cy="865.1" r="6.3"/><circle cx="197.2" cy="796" r="6.3"/><circle cx="193.5" cy="946.9" r="6.3"/><circle cx="98" cy="867.7" r="6.3"/><circle cx="197.2" cy="796" r="6.3"/><circle cx="193.5" cy="946.9" r="6.3"/><circle cx="211" cy="961.9" r="6.3"/><circle cx="313" cy="865.1" r="6.3"/><circle cx="193.5" cy="946.9" r="6.3"/><circle cx="108.1" cy="1024.4" r="6.3"/><circle cx="211" cy="961.9" r="6.3"/><circle cx="135.8" cy="773.5" r="6.3"/><circle cx="98" cy="867.7" r="6.3"/><circle cx="197.2" cy="796" r="6.3"/><circle cx="134.2" cy="634.2" r="6.3"/><circle cx="157" cy="566.9" r="6.3"/><circle cx="117.6" cy="550" r="6.3"/><circle cx="134.2" cy="634.2" r="6.3"/><circle cx="186.9" cy="579.1" r="6.3"/><circle cx="157" cy="566.9" r="6.3"/><circle cx="436.1" cy="580.4" r="6.3"/><circle cx="297.9" cy="615.2" r="6.3"/><circle cx="391.8" cy="545.8" r="6.3"/><circle cx="436.1" cy="580.4" r="6.3"/><circle cx="391.8" cy="545.8" r="6.3"/><circle cx="602.6" cy="559.8" r="6.3"/><circle cx="487.6" cy="689.9" r="6.3"/><circle cx="330.8" cy="685.9" r="6.3"/><circle cx="495.6" cy="714.2" r="6.3"/><circle cx="516.4" cy="631.2" r="6.3"/><circle cx="495.6" cy="714.2" r="6.3"/><circle cx="487.6" cy="689.9" r="6.3"/><circle cx="516.4" cy="631.2" r="6.3"/><circle cx="600" cy="795.7" r="6.3"/><circle cx="495.6" cy="714.2" r="6.3"/><circle cx="516.4" cy="631.2" r="6.3"/><circle cx="436.1" cy="580.4" r="6.3"/><circle cx="602.6" cy="559.8" r="6.3"/><circle cx="516.4" cy="631.2" r="6.3"/><circle cx="600" cy="795.7" r="6.3"/><circle cx="602.6" cy="559.8" r="6.3"/><circle cx="545.4" cy="783.2" r="6.3"/><circle cx="600" cy="795.7" r="6.3"/><circle cx="495.6" cy="714.2" r="6.3"/><circle cx="545.4" cy="783.2" r="6.3"/><circle cx="342.9" cy="806.6" r="6.3"/><circle cx="495.6" cy="714.2" r="6.3"/><circle cx="545.4" cy="783.2" r="6.3"/><circle cx="604.9" cy="851.1" r="6.3"/><circle cx="600" cy="795.7" r="6.3"/><circle cx="494.3" cy="954.1" r="6.3"/><circle cx="377.6" cy="1067.3" r="6.3"/><circle cx="421.5" cy="944.1" r="6.3"/><circle cx="289.1" cy="528.2" r="6.3"/><circle cx="292.1" cy="605.5" r="6.3"/><circle cx="391.8" cy="545.8" r="6.3"/><circle cx="289.1" cy="528.2" r="6.3"/><circle cx="292.1" cy="605.5" r="6.3"/><circle cx="222.4" cy="517.4" r="6.3"/><circle cx="276.4" cy="461.5" r="6.3"/><circle cx="289.1" cy="528.2" r="6.3"/><circle cx="391.8" cy="545.8" r="6.3"/><circle cx="276.4" cy="461.5" r="6.3"/><circle cx="222.4" cy="517.4" r="6.3"/><circle cx="289.1" cy="528.2" r="6.3"/><circle cx="175.9" cy="435.1" r="6.3"/><circle cx="117.6" cy="550" r="6.3"/><circle cx="222.4" cy="517.4" r="6.3"/><circle cx="175.9" cy="435.1" r="6.3"/><circle cx="222.4" cy="517.4" r="6.3"/><circle cx="276.4" cy="461.5" r="6.3"/><circle cx="77.8" cy="445.8" r="6.3"/><circle cx="117.6" cy="550" r="6.3"/><circle cx="175.9" cy="435.1" r="6.3"/><circle cx="39.2" cy="604.5" r="6.3"/><circle cx="134.2" cy="634.2" r="6.3"/><circle cx="117.6" cy="550" r="6.3"/><circle cx="39.2" cy="604.5" r="6.3"/><circle cx="38.3" cy="720.8" r="6.3"/><circle cx="134.2" cy="634.2" r="6.3"/><circle cx="39.2" cy="604.5" r="6.3"/><circle cx="-45.6" cy="703.3" r="6.3"/><circle cx="38.3" cy="720.8" r="6.3"/><circle cx="39.2" cy="604.5" r="6.3"/><circle cx="117.6" cy="550" r="6.3"/><circle cx="77.8" cy="445.8" r="6.3"/><circle cx="36" cy="776.8" r="6.3"/><circle cx="-45.6" cy="703.3" r="6.3"/><circle cx="38.3" cy="720.8" r="6.3"/><circle cx="36" cy="776.8" r="6.3"/><circle cx="135.8" cy="773.5" r="6.3"/><circle cx="38.3" cy="720.8" r="6.3"/><circle cx="36" cy="776.8" r="6.3"/><circle cx="-75.6" cy="855.9" r="6.3"/><circle cx="-45.6" cy="703.3" r="6.3"/><circle cx="36" cy="776.8" r="6.3"/><circle cx="98" cy="867.7" r="6.3"/><circle cx="135.8" cy="773.5" r="6.3"/><circle cx="170.4" cy="682.1" r="6.3"/><circle cx="292.1" cy="605.5" r="6.3"/><circle cx="186.9" cy="579.1" r="6.3"/><circle cx="170.4" cy="682.1" r="6.3"/><circle cx="134.2" cy="634.2" r="6.3"/><circle cx="186.9" cy="579.1" r="6.3"/><circle cx="170.4" cy="682.1" r="6.3"/><circle cx="297.9" cy="615.2" r="6.3"/><circle cx="292.1" cy="605.5" r="6.3"/><circle cx="277.6" cy="710.2" r="6.3"/><circle cx="170.4" cy="682.1" r="6.3"/><circle cx="297.9" cy="615.2" r="6.3"/><circle cx="277.6" cy="710.2" r="6.3"/><circle cx="197.2" cy="796" r="6.3"/><circle cx="170.4" cy="682.1" r="6.3"/><circle cx="277.6" cy="710.2" r="6.3"/><circle cx="197.2" cy="796" r="6.3"/><circle cx="342.9" cy="806.6" r="6.3"/><circle cx="359.5" cy="1153.4" r="6.3"/><circle cx="284.8" cy="1160.6" r="6.3"/><circle cx="377.6" cy="1067.3" r="6.3"/><circle cx="359.5" cy="1153.4" r="6.3"/><circle cx="341.8" cy="1205.5" r="6.3"/><circle cx="284.8" cy="1160.6" r="6.3"/><circle cx="520.8" cy="1064.3" r="6.3"/><circle cx="494.3" cy="954.1" r="6.3"/><circle cx="545.3" cy="957.5" r="6.3"/><circle cx="520.8" cy="1064.3" r="6.3"/><circle cx="377.6" cy="1067.3" r="6.3"/><circle cx="494.3" cy="954.1" r="6.3"/><circle cx="355.2" cy="1020.5" r="6.3"/><circle cx="421.5" cy="944.1" r="6.3"/><circle cx="349.8" cy="915.5" r="6.3"/><circle cx="355.2" cy="1020.5" r="6.3"/><circle cx="377.6" cy="1067.3" r="6.3"/><circle cx="421.5" cy="944.1" r="6.3"/><circle cx="278.8" cy="1029.5" r="6.3"/><circle cx="211" cy="961.9" r="6.3"/><circle cx="349.8" cy="915.5" r="6.3"/><circle cx="278.8" cy="1029.5" r="6.3"/><circle cx="355.2" cy="1020.5" r="6.3"/><circle cx="349.8" cy="915.5" r="6.3"/><circle cx="278.8" cy="1029.5" r="6.3"/><circle cx="108.1" cy="1024.4" r="6.3"/><circle cx="211" cy="961.9" r="6.3"/><circle cx="278.8" cy="1029.5" r="6.3"/><circle cx="377.6" cy="1067.3" r="6.3"/><circle cx="355.2" cy="1020.5" r="6.3"/><circle cx="278.8" cy="1029.5" r="6.3"/><circle cx="284.8" cy="1160.6" r="6.3"/><circle cx="377.6" cy="1067.3" r="6.3"/><circle cx="278.8" cy="1029.5" r="6.3"/><circle cx="183.4" cy="1151.6" r="6.3"/><circle cx="108.1" cy="1024.4" r="6.3"/><circle cx="278.8" cy="1029.5" r="6.3"/><circle cx="183.4" cy="1151.6" r="6.3"/><circle cx="284.8" cy="1160.6" r="6.3"/><circle cx="96.5" cy="1075.7" r="6.3"/><circle cx="18.7" cy="1010.2" r="6.3"/><circle cx="108.1" cy="1024.4" r="6.3"/><circle cx="96.5" cy="1075.7" r="6.3"/><circle cx="183.4" cy="1151.6" r="6.3"/><circle cx="108.1" cy="1024.4" r="6.3"/><circle cx="96.5" cy="1075.7" r="6.3"/><circle cx="62.1" cy="1137.7" r="6.3"/><circle cx="18.7" cy="1010.2" r="6.3"/><circle cx="70" cy="913.6" r="6.3"/><circle cx="193.5" cy="946.9" r="6.3"/><circle cx="98" cy="867.7" r="6.3"/><circle cx="70" cy="913.6" r="6.3"/><circle cx="108.1" cy="1024.4" r="6.3"/><circle cx="193.5" cy="946.9" r="6.3"/><circle cx="70" cy="913.6" r="6.3"/><circle cx="18.7" cy="1010.2" r="6.3"/><circle cx="108.1" cy="1024.4" r="6.3"/><circle cx="-8.6" cy="908" r="6.3"/><circle cx="98" cy="867.7" r="6.3"/><circle cx="36" cy="776.8" r="6.3"/><circle cx="-8.6" cy="908" r="6.3"/><circle cx="-75.6" cy="855.9" r="6.3"/><circle cx="36" cy="776.8" r="6.3"/><circle cx="-8.6" cy="908" r="6.3"/><circle cx="70" cy="913.6" r="6.3"/><circle cx="98" cy="867.7" r="6.3"/><circle cx="-8.6" cy="908" r="6.3"/><circle cx="-29.8" cy="987.5" r="6.3"/><circle cx="-75.6" cy="855.9" r="6.3"/><circle cx="-8.6" cy="908" r="6.3"/><circle cx="18.7" cy="1010.2" r="6.3"/><circle cx="70" cy="913.6" r="6.3"/><circle cx="-8.6" cy="908" r="6.3"/><circle cx="18.7" cy="1010.2" r="6.3"/><circle cx="-29.8" cy="987.5" r="6.3"/><circle cx="-46.7" cy="1059.8" r="6.3"/><circle cx="18.7" cy="1010.2" r="6.3"/><circle cx="-29.8" cy="987.5" r="6.3"/><circle cx="-46.7" cy="1059.8" r="6.3"/><circle cx="-111.5" cy="1064.7" r="6.3"/><circle cx="-29.8" cy="987.5" r="6.3"/><circle cx="-46.7" cy="1059.8" r="6.3"/><circle cx="62.1" cy="1137.7" r="6.3"/><circle cx="18.7" cy="1010.2" r="6.3"/><circle cx="-46.7" cy="1059.8" r="6.3"/><circle cx="-35.7" cy="1175.6" r="6.3"/><circle cx="-111.5" cy="1064.7" r="6.3"/><circle cx="-46.7" cy="1059.8" r="6.3"/><circle cx="-35.7" cy="1175.6" r="6.3"/><circle cx="62.1" cy="1137.7" r="6.3"/><circle cx="151.6" cy="710.4" r="6.3"/><circle cx="170.4" cy="682.1" r="6.3"/><circle cx="134.2" cy="634.2" r="6.3"/><circle cx="151.6" cy="710.4" r="6.3"/><circle cx="38.3" cy="720.8" r="6.3"/><circle cx="134.2" cy="634.2" r="6.3"/><circle cx="151.6" cy="710.4" r="6.3"/><circle cx="197.2" cy="796" r="6.3"/><circle cx="170.4" cy="682.1" r="6.3"/><circle cx="151.6" cy="710.4" r="6.3"/><circle cx="135.8" cy="773.5" r="6.3"/><circle cx="38.3" cy="720.8" r="6.3"/><circle cx="151.6" cy="710.4" r="6.3"/><circle cx="197.2" cy="796" r="6.3"/><circle cx="135.8" cy="773.5" r="6.3"/><circle cx="303.4" cy="696.6" r="6.3"/><circle cx="330.8" cy="685.9" r="6.3"/><circle cx="297.9" cy="615.2" r="6.3"/><circle cx="303.4" cy="696.6" r="6.3"/><circle cx="277.6" cy="710.2" r="6.3"/><circle cx="297.9" cy="615.2" r="6.3"/><circle cx="303.4" cy="696.6" r="6.3"/><circle cx="342.9" cy="806.6" r="6.3"/><circle cx="330.8" cy="685.9" r="6.3"/><circle cx="303.4" cy="696.6" r="6.3"/><circle cx="342.9" cy="806.6" r="6.3"/><circle cx="277.6" cy="710.2" r="6.3"/><circle cx="442.5" cy="644.4" r="6.3"/><circle cx="516.4" cy="631.2" r="6.3"/><circle cx="436.1" cy="580.4" r="6.3"/><circle cx="442.5" cy="644.4" r="6.3"/><circle cx="297.9" cy="615.2" r="6.3"/><circle cx="436.1" cy="580.4" r="6.3"/><circle cx="442.5" cy="644.4" r="6.3"/><circle cx="487.6" cy="689.9" r="6.3"/><circle cx="516.4" cy="631.2" r="6.3"/><circle cx="442.5" cy="644.4" r="6.3"/><circle cx="330.8" cy="685.9" r="6.3"/><circle cx="297.9" cy="615.2" r="6.3"/><circle cx="442.5" cy="644.4" r="6.3"/><circle cx="330.8" cy="685.9" r="6.3"/><circle cx="487.6" cy="689.9" r="6.3"/><circle cx="516.8" cy="878.5" r="6.3"/><circle cx="604.9" cy="851.1" r="6.3"/><circle cx="545.4" cy="783.2" r="6.3"/><circle cx="516.8" cy="878.5" r="6.3"/><circle cx="342.9" cy="806.6" r="6.3"/><circle cx="545.4" cy="783.2" r="6.3"/><circle cx="516.8" cy="878.5" r="6.3"/><circle cx="545.3" cy="957.5" r="6.3"/><circle cx="604.9" cy="851.1" r="6.3"/><circle cx="516.8" cy="878.5" r="6.3"/><circle cx="421.5" cy="944.1" r="6.3"/><circle cx="342.9" cy="806.6" r="6.3"/><circle cx="516.8" cy="878.5" r="6.3"/><circle cx="494.3" cy="954.1" r="6.3"/><circle cx="545.3" cy="957.5" r="6.3"/><circle cx="516.8" cy="878.5" r="6.3"/><circle cx="421.5" cy="944.1" r="6.3"/><circle cx="494.3" cy="954.1" r="6.3"/><circle cx="444.6" cy="1133.5" r="6.3"/><circle cx="377.6" cy="1067.3" r="6.3"/><circle cx="520.8" cy="1064.3" r="6.3"/><circle cx="444.6" cy="1133.5" r="6.3"/><circle cx="510.2" cy="1125.3" r="6.3"/><circle cx="520.8" cy="1064.3" r="6.3"/><circle cx="444.6" cy="1133.5" r="6.3"/><circle cx="359.5" cy="1153.4" r="6.3"/><circle cx="377.6" cy="1067.3" r="6.3"/><circle cx="435.6" cy="1263.2" r="6.3"/><circle cx="444.6" cy="1133.5" r="6.3"/><circle cx="510.2" cy="1125.3" r="6.3"/><circle cx="435.6" cy="1263.2" r="6.3"/><circle cx="511.2" cy="1337.4" r="6.3"/><circle cx="510.2" cy="1125.3" r="6.3"/><circle cx="435.6" cy="1263.2" r="6.3"/><circle cx="359.5" cy="1153.4" r="6.3"/><circle cx="444.6" cy="1133.5" r="6.3"/><circle cx="435.6" cy="1263.2" r="6.3"/><circle cx="341.8" cy="1205.5" r="6.3"/><circle cx="359.5" cy="1153.4" r="6.3"/><circle cx="435.6" cy="1263.2" r="6.3"/><circle cx="310.6" cy="1362.5" r="6.3"/><circle cx="341.8" cy="1205.5" r="6.3"/><circle cx="435.6" cy="1263.2" r="6.3"/><circle cx="511.2" cy="1337.4" r="6.3"/><circle cx="445.6" cy="1298.6" r="6.3"/><circle cx="435.6" cy="1263.2" r="6.3"/><circle cx="310.6" cy="1362.5" r="6.3"/><circle cx="445.6" cy="1298.6" r="6.3"/><circle cx="125.2" cy="1205.3" r="6.3"/><circle cx="138.2" cy="1219.2" r="6.3"/><circle cx="183.4" cy="1151.6" r="6.3"/><circle cx="125.2" cy="1205.3" r="6.3"/><circle cx="138.2" cy="1219.2" r="6.3"/><circle cx="101.1" cy="1202.8" r="6.3"/><circle cx="119.7" cy="1175.7" r="6.3"/><circle cx="183.4" cy="1151.6" r="6.3"/><circle cx="96.5" cy="1075.7" r="6.3"/><circle cx="119.7" cy="1175.7" r="6.3"/><circle cx="62.1" cy="1137.7" r="6.3"/><circle cx="96.5" cy="1075.7" r="6.3"/><circle cx="119.7" cy="1175.7" r="6.3"/><circle cx="125.2" cy="1205.3" r="6.3"/><circle cx="183.4" cy="1151.6" r="6.3"/><circle cx="119.7" cy="1175.7" r="6.3"/><circle cx="101.1" cy="1202.8" r="6.3"/><circle cx="62.1" cy="1137.7" r="6.3"/><circle cx="119.7" cy="1175.7" r="6.3"/><circle cx="101.1" cy="1202.8" r="6.3"/><circle cx="125.2" cy="1205.3" r="6.3"/></g></g></g></svg>