<svg version="1.1" id="lines-crazy" xmlns="http://www.w3.org/2000/svg" xmlns:xlink="http://www.w3.org/1999/xlink" x="0px" y="0px" width="1440px" height="1440px" viewBox="0 0 1440 1440" enable-background="new 0 0 1440 1440" xml:space="preserve" style="opacity: 0;">
            <g>
                <defs>
                    <rect id="SVGID_1_" x="0" y="0" width="1440" height="1440"></rect>
                </defs>
                <clipPath id="SVGID_2_">
                    <use xlink:href="#SVGID_1_" overflow="visible"></use>
                </clipPath>
                <g clip-path="url(#SVGID_2_)">
                    <rect x="0" y="0" display="none" fill="#66666D" width="1440" height="1440"></rect>
                    <path fill="#EAEAEA" d="M1430.4-94.5l-531-150.3c0.4-3.2-1.3-6.3-4.3-7.6c-2.7-1.2-5.7-0.5-7.8,1.3L587.4-452.9
            c0.1-0.1,0.1-0.2,0.2-0.3c1.6-3.7-0.1-8-3.8-9.6c-3.7-1.6-8,0.1-9.6,3.8c-0.7,1.7-0.7,3.5-0.2,5.1l-173.3,70.2
            c-0.8-1.3-1.9-2.3-3.4-3c-3.7-1.6-8,0.1-9.6,3.8c-0.2,0.5-0.4,1-0.5,1.6l-258.2-10.5c-0.3-2.5-1.9-4.7-4.3-5.7
            c-3.7-1.6-8,0.1-9.6,3.8c-1.5,3.6,0.1,7.7,3.5,9.4L-16.3,54.5c-3.3-0.6-6.6,1.1-8,4.3c-1.2,2.8-0.5,6,1.6,8L-216,318.4
            c-0.3-0.2-0.5-0.3-0.8-0.4c-3.7-1.6-8,0.1-9.6,3.8c-1.5,3.6,0.1,7.8,3.6,9.5l-141.2,448.5c-3.3-0.6-6.6,1.1-8,4.3
            c-1.5,3.6,0.1,7.7,3.6,9.4l-90.9,308.1c-3.2-0.5-6.5,1.2-7.8,4.3c-1.6,3.7,0.1,8,3.8,9.6c3,1.3,6.5,0.3,8.5-2.1l311.2,195.2
            c-1.4,3.6,0.3,7.7,3.9,9.3c3.4,1.4,7.2,0.1,9-2.9l319.9,144.2c-1.1,3.5,0.6,7.3,4.1,8.8c3.2,1.4,6.9,0.2,8.8-2.5l379.3,201.3
            c-1.3,3.6,0.4,7.7,4,9.2c3.7,1.6,8-0.1,9.6-3.8c0.3-0.6,0.4-1.3,0.5-1.9l343.5,2.3c0.3,2.5,1.9,4.8,4.3,5.8c3.7,1.6,8-0.1,9.6-3.8
            c0.8-1.8,0.7-3.7,0.1-5.3l156-92.2c0.7,0.8,1.6,1.5,2.7,2c3.7,1.6,8-0.1,9.6-3.8c1.2-2.8,0.5-6-1.6-8l295.4-579.1
            c3.2,0.5,6.5-1.2,7.9-4.3c1.4-3.2,0.2-6.9-2.5-8.8l236.3-444.5c3.4,0.7,6.9-1,8.3-4.2c1.6-3.7-0.1-8-3.8-9.6
            c-0.4-0.2-0.9-0.3-1.4-0.4l29-365.2c2.7-0.1,5.2-1.7,6.3-4.4c1.6-3.7-0.1-8-3.8-9.6c-2.6-1.1-5.5-0.6-7.5,1.1L1442.7-86.7
            c0.2-0.3,0.4-0.7,0.6-1c1.6-3.7-0.1-8-3.8-9.6C1436.1-98.8,1432.3-97.5,1430.4-94.5z M949.3,1665c-0.1,0-0.1-0.1-0.2-0.1
            c-0.5-0.2-1-0.3-1.5-0.4l6.7-318.5c2.6-0.2,5-1.8,6.1-4.4c0.6-1.5,0.7-3.1,0.4-4.6l199.5-77.2c0.5,1,1.2,1.8,2.2,2.5L949.3,1665z
             M589.2,1662c-1.2-0.1-2.5,0-3.6,0.5L407,1283c1.2-0.8,2.2-1.9,2.8-3.3c0.2-0.4,0.2-0.7,0.3-1.1l261.7,31.7c0,2.8,1.6,5.4,4.3,6.6
            L589.2,1662z M-457.4,1102.1l90.9-308c2.6,0.5,5.3-0.5,7-2.6l188.1,116.7c0,0.1-0.1,0.1-0.1,0.2c-0.9,2.2-0.7,4.6,0.4,6.5
            L-454.9,1104C-455.6,1103.2-456.4,1102.5-457.4,1102.1z M124.3-383.9L302.6-19.7c-1.2,0.8-2.1,1.9-2.7,3.2
            c-0.5,1.2-0.6,2.4-0.5,3.6L-10.7,59.5c-0.6-1.9-1.9-3.5-3.9-4.4l135.1-438.7C121.8-383.4,123.1-383.5,124.3-383.9z M393.3-372.8
            c1.1,0.2,2.1,0.1,3.2-0.2L567.9,16.8c-1.3,0.8-2.3,1.9-2.9,3.4c-0.1,0.3-0.2,0.6-0.3,1L313.9-13.6c0-2.9-1.6-5.6-4.4-6.8
            c-0.1,0-0.2-0.1-0.3-0.1L393.3-372.8z M582.8-449.1L716.8-72c-0.8,0.3-1.5,0.7-2.1,1.2L400.3-375.6c0.3-0.5,0.6-0.9,0.9-1.5
            c0.7-1.6,0.7-3.3,0.3-4.9l173.4-70.2c0.8,1.2,1.9,2.2,3.3,2.8C579.6-448.7,581.3-448.6,582.8-449.1z M1430.1-87.4L1037,222.1
            c-0.5-0.4-1.1-0.8-1.8-1.1c-0.4-0.2-0.9-0.3-1.3-0.4l6-259c2.5-0.3,4.9-1.8,5.9-4.3c0.4-0.9,0.6-1.8,0.6-2.8l383.1-43.6
            C1429.6-88.6,1429.8-88,1430.1-87.4z M1651.7,526.1l-308.7,188c-0.7-0.9-1.7-1.7-2.8-2.2c-2.2-1-4.7-0.7-6.6,0.5l-100-125
            c0.6-0.6,1.1-1.3,1.5-2.2c0.5-1.2,0.6-2.3,0.5-3.5l415.6-57.3C1651.3,525,1651.5,525.6,1651.7,526.1z M1413.5,974
            c-1.5,0.6-2.8,1.8-3.6,3.3l-318.2-120.7c0.5-2,0.1-4-0.9-5.6l240.6-128.2c0.7,1.1,1.8,1.9,3.1,2.5c1.3,0.6,2.7,0.7,4.1,0.5
            L1413.5,974z M1082.2,1069.4c-0.7-1.7-2-3.2-3.9-3.9c-0.5-0.2-1.1-0.4-1.6-0.5l8.6-202.9c2.4-0.2,4.6-1.6,5.8-3.8l318.2,120.7
            c-0.2,0.9-0.2,1.8-0.1,2.7L1082.2,1069.4z M1162.7,1250.3c-1.1,0.8-2.1,1.8-2.7,3.2c-0.6,1.5-0.7,3.1-0.4,4.6l-199.5,77.2
            c-0.6-1.1-1.4-2-2.5-2.7l115.7-253.4c1.5,0.5,3.1,0.4,4.5-0.1L1162.7,1250.3z M37.1,351.6c0.6-1.5,0.7-3,0.4-4.4l213.1-78.6
            c0.8,1.4,2,2.7,3.6,3.3c0.5,0.2,1.1,0.4,1.6,0.5l-9.3,209.6c-1.9,0-3.7,0.8-5,2.2L37.1,351.6C37.1,351.7,37.1,351.7,37.1,351.6z
             M-10.9,64.5c0.4-1,0.6-2.1,0.5-3.2l310.2-72.4c0.7,1.8,2,3.3,4,4.2c0.2,0.1,0.4,0.1,0.7,0.2L256.7,258c-1.8,0.1-3.5,0.8-4.8,2.1
            L-11.2,65.1C-11.1,64.9-11,64.7-10.9,64.5z M398.2-373.7c0.3-0.2,0.5-0.4,0.8-0.6L713.4-69.5c-0.3,0.5-0.6,0.9-0.9,1.5
            c-0.8,1.9-0.7,4,0,5.8L577.3,18.5c-0.7-0.9-1.7-1.7-2.8-2.2c-1.6-0.7-3.3-0.7-4.9-0.3L398.2-373.7z M1038-38.5l-6,258.9
            c-2.7,0.1-5.3,1.7-6.4,4.4c-0.2,0.4-0.3,0.8-0.4,1.2l-248.8-57.2c0.2-1.7-0.2-3.4-1.2-4.7l258.5-204.8c0.7,0.7,1.5,1.3,2.5,1.7
            C1036.8-38.8,1037.4-38.6,1038-38.5z M1330.7,715.8c-0.8,1.8-0.7,3.7-0.1,5.4l-241,128.4c-0.2-0.2-0.5-0.4-0.7-0.6l137-259.8
            c2.2,0.8,4.5,0.5,6.3-0.6l100,125C1331.5,714.2,1331,714.9,1330.7,715.8z M955.9,1331.8c-1.9-0.6-3.8-0.4-5.4,0.4l-134.4-198.5
            c0.8-0.7,1.5-1.6,1.9-2.6c0.5-1.2,0.7-2.5,0.5-3.8l249.9-53.4c0.4,1.8,1.6,3.4,3.2,4.4L955.9,1331.8z M100.7,1092.5l115.7-218.3
            c2.2,0.8,4.5,0.5,6.3-0.6L343,1023.2c-0.6,0.6-1.1,1.3-1.5,2.2c-0.5,1.3-0.7,2.6-0.5,3.9l-237.8,66.4
            C102.7,1094.4,101.9,1093.3,100.7,1092.5z M-158.5,907.6l269.4-202.2c0.7,0.7,1.4,1.2,2.4,1.6c1.9,0.8,4,0.7,5.8-0.1l95.3,154.8
            c-0.9,0.7-1.7,1.6-2.1,2.8c-0.4,0.9-0.6,1.8-0.6,2.8l-369.5,42.1C-158,908.8-158.2,908.2-158.5,907.6z M244,495.9
            c0.5,0.2,1,0.4,1.6,0.4l-26.9,363.8c-0.9,0-1.8,0.3-2.6,0.6L120.7,706c0.9-0.7,1.7-1.6,2.1-2.8c1.3-3.1,0.3-6.5-2.1-8.5L244,495.9
            z M577.1,27.7l186.2,136.1c-0.3,0.4-0.6,0.9-0.8,1.4c-0.8,1.9-0.7,4,0,5.8L498.2,329.6c-0.7-0.9-1.7-1.7-2.8-2.2
            c-0.1,0-0.1,0-0.2-0.1l75.6-297.1C573.2,30.5,575.5,29.6,577.1,27.7z M1031.2,234.8l-12.1,340.9c-2.1,0.2-4,1.2-5.3,2.9
            L785.1,466.7c0.9-2.2,0.6-4.6-0.6-6.5l243-227.2c0.6,0.5,1.3,1,2,1.3C1030,234.6,1030.6,234.7,1031.2,234.8z M1224.2,588.3
            l-137,259.9c-1-0.4-2-0.5-3-0.4l-62-258c1.8-0.7,3.3-2,4.1-3.9c0.3-0.6,0.4-1.3,0.5-2l194.4-0.6
            C1221.5,585.3,1222.5,587.1,1224.2,588.3z M1068.8,1069.4c-0.4,0.9-0.6,1.8-0.6,2.7l-250.1,53.5c-0.7-1.7-2-3.2-3.9-4
            c-0.7-0.3-1.5-0.5-2.2-0.5l-8-217.1c1.9-0.3,3.7-1.4,4.8-3.1L1068.8,1069.4C1068.9,1069.3,1068.8,1069.3,1068.8,1069.4z
             M252.5,493.6l246,145.6c0,0,0,0,0,0c-1,2.2-0.7,4.7,0.5,6.6L224,862.2c-0.6-0.6-1.3-1.1-2.2-1.5c-0.4-0.2-0.9-0.3-1.4-0.4
            l26.9-363.9C249.4,496.2,251.2,495.3,252.5,493.6z M768.5,175.3l9.1,281.5c-2.2,0.2-4.3,1.4-5.5,3.4l-272.8-124
            c0.5-1.7,0.4-3.5-0.3-5l264.4-158.6c0.7,0.9,1.7,1.7,2.8,2.2C767.1,175.1,767.8,175.2,768.5,175.3z M567.9,1063.5l-96.9-181.2
            c1.1-0.8,1.9-1.8,2.5-3.1c0.2-0.5,0.4-1,0.5-1.5l321.7,19.1c0,1.2,0.4,2.5,1,3.5l-221.4,164.4c-0.5-0.5-1.1-0.9-1.8-1.2
            C571.5,1062.8,569.6,1062.9,567.9,1063.5z M225.1,863.6l274.9-216.3c0.6,0.6,1.4,1.1,2.2,1.5c0.3,0.1,0.5,0.2,0.8,0.2L467,869.2
            c-2.9-0.1-5.7,1.6-6.9,4.4c-0.2,0.5-0.4,1.1-0.5,1.7l-233.4-8.7C226,865.5,225.7,864.5,225.1,863.6z M498.6,337.9l272.8,124
            c-1.1,3.5,0.6,7.4,4.1,8.8c0.7,0.3,1.5,0.5,2.3,0.5l-0.7,205.3c-1,0.1-2,0.4-2.9,0.9L497.5,339.3
            C497.9,338.9,498.3,338.4,498.6,337.9z M774.9,690.5c0.9,0.4,1.9,0.6,2.8,0.6l23.4,198.8c-1.1,0.3-2.2,0.8-3.1,1.6L511.3,646
            c0.2-0.3,0.4-0.6,0.6-1c0.1-0.2,0.2-0.5,0.2-0.7l258.4,39.3C770.4,686.5,772.1,689.2,774.9,690.5z M469.6,869.8
            c-0.3-0.1-0.5-0.2-0.8-0.2l36.1-220.1c1.9,0.1,3.8-0.6,5.2-2l286.6,245.4c-0.2,0.4-0.4,0.7-0.6,1.1c-0.1,0.3-0.2,0.7-0.3,1
            l-321.9-19.1C473.8,873.3,472.2,870.9,469.6,869.8z M803,889.6l-23.4-198.8c2.1-0.5,4-2,4.9-4.2c0.7-1.7,0.7-3.5,0.2-5.1
            l228.6-95.2c0.4,0.7,0.9,1.4,1.6,2l-208.7,302c-0.1-0.1-0.2-0.1-0.3-0.2C804.8,889.8,803.9,889.6,803,889.6z M1012.9,580.2
            c-0.6,1.4-0.7,2.9-0.3,4.3l-228.7,95.2c-0.8-1.2-1.9-2.1-3.3-2.7c-0.6-0.2-1.1-0.4-1.7-0.5l0.6-205.4c1.8-0.3,3.5-1.3,4.6-2.9
            L1012.9,580.2z M496,340.4l276.7,338.2c-0.7,0.6-1.2,1.4-1.6,2.3c-0.1,0.3-0.2,0.6-0.3,0.9l-258.3-39.3c0.1-2.9-1.5-5.8-4.4-7
            c-0.7-0.3-1.5-0.5-2.2-0.5l-12.1-293.7C494.5,341.1,495.3,340.8,496,340.4z M225.6,870.3c0.3-0.6,0.4-1.2,0.5-1.8l233.4,8.7
            c0.1,1.7,0.9,3.3,2,4.5L351.9,1022c-0.3-0.2-0.5-0.3-0.8-0.5c-2.3-1-4.7-0.7-6.7,0.5L224.2,872.5
            C224.8,871.8,225.3,871.1,225.6,870.3z M353.4,1023.1L463,882.7c0.3,0.2,0.5,0.3,0.8,0.5c1.8,0.8,3.7,0.7,5.4,0.1l96.9,181.2
            c-1.1,0.8-1.9,1.8-2.5,3.1c-0.1,0.2-0.1,0.4-0.2,0.6l-208.1-39.4C355.6,1026.6,354.9,1024.6,353.4,1023.1z M576.4,1066.2
            l221.2-164.3c0.7,0.7,1.5,1.3,2.4,1.6c0.7,0.3,1.5,0.5,2.2,0.5l8,217.1c-2.4,0.4-4.5,1.9-5.5,4.3c0,0.1,0,0.2-0.1,0.3L577.7,1071
            C577.8,1069.2,577.4,1067.6,576.4,1066.2z M807.6,891.4l208.7-302c0.2,0.1,0.3,0.2,0.5,0.3c1.2,0.5,2.4,0.6,3.6,0.5l62,257.9
            c-1.9,0.6-3.5,2-4.4,4c-0.4,0.8-0.5,1.7-0.6,2.6l-267.8,39.6C809.3,893.2,808.6,892.2,807.6,891.4z M1026.2,231.6l-243,227.1
            c-0.6-0.6-1.3-1.1-2.1-1.4c-0.5-0.2-1.1-0.4-1.7-0.5l-9.1-281.6c2.4-0.4,4.5-1.9,5.5-4.3c0-0.1,0.1-0.2,0.1-0.3l249.1,57.3
            C1025.1,229.2,1025.5,230.5,1026.2,231.6z M569,29.7l-75.6,297.1c-3.1-0.4-6.2,1.3-7.5,4.3L264.3,266c0.2-1.6-0.2-3.2-1-4.5
            L566.5,28.1c0.6,0.6,1.4,1.2,2.3,1.6C568.8,29.7,568.9,29.7,569,29.7z M263.8,268.1c0-0.1,0.1-0.2,0.1-0.3l221.5,65.2
            c-0.2,1.5,0,2.9,0.6,4.2L252.5,484.7c-0.7-0.9-1.7-1.7-2.9-2.2c-0.4-0.2-0.8-0.3-1.2-0.4l9.3-209.7
            C260.3,272.2,262.7,270.6,263.8,268.1z M486.9,338.7c0.7,0.9,1.6,1.6,2.7,2.1c0.7,0.3,1.5,0.5,2.2,0.5L504,635
            c-1.8,0.3-3.4,1.3-4.5,2.7L253.4,492c0.8-1.9,0.7-4,0-5.7L486.9,338.7z M354.9,1031.1c0.1-0.2,0.1-0.4,0.2-0.6l208.1,39.4
            c-0.1,2,0.6,4,2,5.5l-158.3,195.3c-0.3-0.2-0.6-0.4-1-0.5c-1.1-0.5-2.3-0.6-3.5-0.5l-51.9-234.5
            C352.4,1034.5,354.1,1033.1,354.9,1031.1z M574.3,1076.5c1.2-0.8,2.3-1.9,2.9-3.3c0.1-0.1,0.1-0.3,0.1-0.4l226.9,54.8
            c-0.2,2.3,0.6,4.5,2.2,6.1l-123.8,170.3c-0.2-0.1-0.4-0.2-0.6-0.3c-1.6-0.7-3.4-0.7-5-0.2L574.3,1076.5z M1069.8,1067.7
            L809.7,899.2c0.4-1,0.5-2.1,0.4-3.1l267.5-39.6c0.5,2.2,2,4.2,4.2,5.1c0.5,0.2,1.1,0.4,1.6,0.5l-8.6,202.9
            C1072.9,1065.2,1071.1,1066.1,1069.8,1067.7z M1221.7,579.5c-0.3,0.6-0.4,1.3-0.5,2l-194.4,0.5c-0.2-1.2-0.6-2.3-1.3-3.3
            l207.3-197.1c0.5,0.4,1.1,0.8,1.7,1.1c0.5,0.2,1.1,0.4,1.6,0.5l-8.3,192.1C1225.2,575.3,1222.8,576.9,1221.7,579.5z M1230.7,373.1
            c-1,2.4-0.6,5.1,0.8,7.1l-207.3,197.1c-0.5-0.4-1.1-0.8-1.7-1.1c-0.5-0.2-1-0.4-1.5-0.5l12.1-340.9c1.8-0.2,3.4-0.9,4.6-2.3
            L1231,372.5C1230.9,372.7,1230.8,372.8,1230.7,373.1z M764.6,162.5L578.1,26.2c0.1-0.1,0.1-0.2,0.2-0.3c0.8-1.9,0.7-4,0-5.8
            l135.2-80.7c0.7,0.9,1.7,1.7,2.8,2.2c1.2,0.5,2.5,0.7,3.8,0.5l47,219C766.2,161.4,765.4,161.9,764.6,162.5z M565.4,26.6L262.1,260
            c-0.6-0.6-1.4-1.1-2.2-1.5c-0.4-0.2-0.9-0.3-1.3-0.4L306.3-6.4c3,0.2,5.8-1.5,7.1-4.4c0.1-0.3,0.2-0.6,0.3-1l250.7,34.7
            C564.3,24.2,564.7,25.5,565.4,26.6z M242.4,495L119.1,693.7c-0.1,0-0.1-0.1-0.2-0.1c-2.8-1.2-6-0.5-8.1,1.6L-99.3,537.1
            c0.1-0.2,0.3-0.5,0.4-0.7c0.4-0.9,0.6-1.9,0.6-2.8l338.1-42.4C240.2,492.7,241.1,494,242.4,495z M-100.4,538.6l210.2,158.2
            c-0.1,0.2-0.3,0.5-0.4,0.7c-0.9,2.2-0.7,4.5,0.4,6.4l-269.4,202.2c-0.7-0.7-1.4-1.2-2.4-1.6c-0.3-0.1-0.6-0.2-0.8-0.3l56.7-363.5
            C-104,540.9-101.9,540.1-100.4,538.6z M-158.1,914c0.4-0.9,0.6-1.8,0.6-2.8l369.5-42.1c0.4,1.7,1.4,3.2,2.9,4.2L99.1,1091.6
            c-3.1-1.2-6.5-0.1-8.4,2.5l-249.6-178.8C-158.6,914.9-158.3,914.5-158.1,914z M103.2,1101.3c0.5-1.3,0.7-2.6,0.5-3.9l237.8-66.4
            c0,0.1,0.1,0.1,0.1,0.2l-472.3,276c-0.1-0.2-0.3-0.4-0.4-0.5l223.2-202.5c0.5,0.4,1,0.7,1.6,1
            C97.4,1106.7,101.7,1105,103.2,1101.3z M-129.9,1308.9l472.5-276.1c0.7,0.9,1.6,1.6,2.7,2.1c1.1,0.5,2.2,0.6,3.3,0.5l51.9,234.6
            c-1.8,0.7-3.4,2-4.2,4c-0.3,0.8-0.5,1.6-0.5,2.4l-525.4,33.7C-129.7,1309.7-129.8,1309.3-129.9,1308.9z M408.3,1271.8l158.3-195.3
            c0.3,0.2,0.6,0.4,1,0.5c1.6,0.7,3.4,0.7,5,0.2l102.7,226.8c-1.2,0.8-2.3,1.9-2.9,3.3c-0.2,0.4-0.2,0.7-0.3,1.1l-261.7-31.7
            C410.3,1274.9,409.6,1273.2,408.3,1271.8z M684.1,1305l123.8-170.3c0.2,0.1,0.4,0.2,0.6,0.3c2.1,0.9,4.3,0.7,6.1-0.2L949,1333.3
            c-0.8,0.7-1.5,1.6-1.9,2.6c-0.2,0.4-0.3,0.8-0.4,1.2l-260.3-27C686.3,1308.2,685.5,1306.3,684.1,1305z M1229.6,575.2l8.4-192.1
            c2.6-0.2,5-1.8,6.1-4.4c0.8-1.8,0.7-3.7,0.1-5.4l185.7-99.4c0.3,0.5,0.7,0.9,1.2,1.3l-199,300.9c-0.3-0.1-0.5-0.3-0.8-0.4
            C1230.7,575.4,1230.2,575.3,1229.6,575.2z M1429,272.3l-185.7,99.4c-0.7-1.1-1.8-1.9-3.1-2.5c-2.9-1.2-6.1-0.4-8.1,1.7
            l-193.4-139.8c0.1-0.2,0.2-0.4,0.3-0.6c0.2-0.4,0.3-0.8,0.4-1.2l389.1,40.6C1428.6,270.7,1428.7,271.6,1429,272.3z M1032.4-48.6
            c-0.9,2.1-0.7,4.4,0.3,6.3L774,162.7c-0.5-0.5-1.1-0.9-1.8-1.2l118.9-400c1.6,0.3,3.3,0,4.7-0.8L1034-50.8
            C1033.3-50.2,1032.8-49.4,1032.4-48.6z M889.3-239L770.5,160.9c-0.5-0.1-1-0.1-1.5-0.1L722-58.4c1.7-0.7,3.2-2,4-3.9
            c1.1-2.6,0.6-5.4-1-7.4L887.7-240C888.2-239.6,888.7-239.3,889.3-239z M-12.3,66.6l263.1,194.9c-0.2,0.3-0.3,0.6-0.5,0.9
            c-0.6,1.5-0.7,3-0.4,4.5L36.9,345.5c-0.8-1.5-2-2.7-3.6-3.4c-0.9-0.4-1.9-0.6-2.8-0.6l-46-272.9C-14.3,68.2-13.2,67.6-12.3,66.6z
             M36.1,353.3l204.3,132.3c-0.1,0.2-0.3,0.5-0.4,0.7c-0.4,1-0.6,2-0.6,3l-338.1,42.4c-0.3-1.3-1-2.5-2-3.4L26.9,355.1
            c0.2,0.1,0.4,0.3,0.7,0.4C30.7,356.8,34.2,355.8,36.1,353.3z M25.4,354l-127.5,173.2c-0.2-0.1-0.5-0.3-0.7-0.4
            c-1.9-0.8-3.9-0.7-5.7,0l-107-196.2c1-0.7,1.9-1.8,2.4-3c0.2-0.4,0.3-0.8,0.4-1.2l235.8,22.8C23.3,351,24.1,352.7,25.4,354z
             M-217,331.5l107,196.3c-1,0.7-1.8,1.7-2.3,2.9c-1.1,2.7-0.5,5.6,1.2,7.6l-249.6,242.9c-0.4-0.4-0.9-0.7-1.5-0.9L-221,331.8
            C-219.6,332.1-218.3,331.9-217,331.5z M-358.5,789.8c1.1-2.5,0.6-5.2-0.9-7.2l249.7-243c0.4,0.3,0.8,0.5,1.2,0.7
            c0.2,0.1,0.3,0.1,0.5,0.2l-56.7,363.5c-2.2-0.1-4.4,0.9-5.8,2.7l-188.1-116.7C-358.5,789.9-358.5,789.8-358.5,789.8z
             M-160.1,916.7l249.9,179.1c-1,2.5-0.5,5.2,1,7.1l-223.2,202.5c-0.5-0.4-1-0.7-1.6-1c-1-0.4-2-0.6-3.1-0.6l-26.8-385.5
            C-162.4,918.1-161.2,917.6-160.1,916.7z M-129.6,1311.9l525.5-33.7c0.2,1,0.6,1.9,1.2,2.7L201,1455.8c-0.6-0.5-1.2-0.9-1.9-1.2
            c-3.4-1.4-7.2-0.1-9,2.9l-319.9-144.2C-129.7,1312.8-129.7,1312.4-129.6,1311.9z M202.2,1457.1l196.1-174.8
            c0.6,0.5,1.2,0.9,1.9,1.2c1.7,0.7,3.5,0.7,5.1,0.2L584,1663.4c-0.6,0.5-1.2,1-1.6,1.7L203,1463.7
            C203.9,1461.5,203.5,1459,202.2,1457.1z M682.7,1316.6c1.4-0.8,2.5-1.9,3.1-3.5c0.2-0.4,0.3-0.8,0.4-1.2l260.3,27
            c0.1,2.8,1.7,5.4,4.4,6.5c0.5,0.2,1,0.4,1.6,0.5l-6.7,318.5c-1.1,0.1-2.1,0.4-3.1,0.9L682.7,1316.6z M1164.3,1249.5l-84.8-171.2
            c1.1-0.8,2.1-1.8,2.7-3.2c0.5-1.3,0.7-2.6,0.5-3.8l326.9-87.7c0.4,0.9,0.9,1.6,1.5,2.3l-240,264.8c-0.5-0.4-1-0.7-1.6-1
            C1167.8,1248.9,1166,1248.9,1164.3,1249.5z M1415.3,973.6l-75-248.3c1.6-0.7,3-2,3.7-3.8c0.8-1.9,0.7-4-0.1-5.8l308.7-188
            c0.6,0.8,1.4,1.4,2.3,1.9L1418.9,974C1417.7,973.5,1416.5,973.4,1415.3,973.6z M1651.7,520.3c-0.3,0.7-0.5,1.5-0.5,2.3
            l-415.9,57.3c-0.4-1-0.9-1.9-1.7-2.7l199.1-300.9c0.1,0.1,0.2,0.1,0.3,0.2c2.4,1,4.9,0.7,6.9-0.7l212.7,243
            C1652.2,519.2,1651.9,519.7,1651.7,520.3z M1429.1,266.9c-0.2,0.4-0.3,0.8-0.4,1.2l-389.1-40.6c0-1.5-0.5-2.9-1.4-4l392.9-309.3
            c0.7,0.8,1.6,1.5,2.6,1.9c0.6,0.3,1.3,0.4,1.9,0.5l-0.6,346C1432.5,262.8,1430.2,264.4,1429.1,266.9z M1429.7-92.8
            c-0.2,0.6-0.3,1.1-0.3,1.7l-383.2,43.6c-0.5-2.1-2-4-4.2-5c-2.2-0.9-4.6-0.7-6.6,0.4L897.3-240.4c0.7-0.7,1.3-1.5,1.7-2.4
            c0,0,0-0.1,0-0.1L1429.7-92.8z M886.1-249.6c-0.2,0.3-0.4,0.7-0.6,1.1c-1.1,2.5-0.6,5.2,0.9,7.2L723.6-70.9
            c-0.5-0.3-0.9-0.6-1.5-0.9c-1.1-0.5-2.3-0.6-3.4-0.5L584.5-449.8c0.7-0.4,1.3-0.9,1.9-1.6L886.1-249.6z M387.2-379.4
            c0.2,2.6,1.8,5,4.3,6.1L307.4-20.8c-1.1-0.1-2.1,0-3.1,0.3L125.9-384.7c1.2-0.8,2.1-1.8,2.7-3.2c0.3-0.6,0.4-1.3,0.5-2
            L387.2-379.4z M-21.3,67.9c0.3,0.2,0.5,0.3,0.8,0.4c1,0.4,2.1,0.6,3.1,0.6l46,272.8c-2.1,0.5-4,2-4.9,4.2
            c-0.2,0.4-0.3,0.9-0.4,1.3l-235.8-22.8c-0.1-1.8-0.8-3.6-2.1-4.9L-21.3,67.9z M-453.7,1111.6c0.9-2,0.7-4.2-0.2-6.1L-170,916.3
            c0.6,0.7,1.4,1.2,2.3,1.6c0.7,0.3,1.4,0.4,2.1,0.5l26.8,385.8c-1.5,0.5-2.9,1.4-3.9,2.7l-311-195.1
            C-453.7,1111.7-453.7,1111.6-453.7,1111.6z M595.5,1668.3c-0.3-2.5-1.9-4.8-4.3-5.8c-0.1,0-0.1,0-0.2-0.1l86.9-345
            c1,0.2,2,0.1,3-0.1l260.3,349c-0.7,0.7-1.2,1.5-1.6,2.4c-0.3,0.6-0.4,1.3-0.5,1.9L595.5,1668.3z M952.2,1667.4
            c-0.4-0.6-0.9-1-1.4-1.5l213.3-402.8c0.2,0.1,0.3,0.1,0.5,0.1l-49.4,301.7c-3-0.3-6,1.4-7.3,4.4c-0.9,2-0.7,4.2,0.2,6
            L952.2,1667.4z M1117.1,1565.4l49.4-301.8c2.9,0.1,5.7-1.6,6.9-4.4c1.1-2.5,0.6-5.2-0.9-7.2l240.1-265c0.3,0.2,0.5,0.3,0.8,0.4
            l-295.1,578.5c-0.2-0.1-0.5-0.3-0.8-0.4C1117.3,1565.4,1117.2,1565.4,1117.1,1565.4z M1658,515.9c-1.5,0.1-2.9,0.6-4.1,1.5
            l-212.7-242.9c0.5-0.6,0.9-1.2,1.3-1.9c0.8-1.8,0.7-3.8,0.1-5.5l239.9-119.4c0.8,1.1,1.8,2.1,3.2,2.7c0.4,0.2,0.9,0.3,1.4,0.4
            L1658,515.9z M1682.6,139.4c-0.3,0.4-0.6,0.9-0.8,1.4c-0.7,1.7-0.7,3.6-0.2,5.2l-240,119.5c-0.7-1-1.8-1.9-3-2.4
            c-0.6-0.2-1.2-0.4-1.8-0.5l0.6-346c1.5-0.2,2.9-0.8,4-1.9L1682.6,139.4z" style="fill: rgb(81, 81, 88);"></path>
                    <path fill="#E2E2E2" d="M1662,266.1l-476.7-278c1.2-3,0.4-6.4-2.3-8.5c-2.3-1.8-5.4-1.9-7.8-0.6L935.1-291.3
            c0.1-0.1,0.2-0.2,0.2-0.2c2.5-3.2,1.9-7.8-1.3-10.2c-3.2-2.5-7.8-1.9-10.2,1.3c-1.1,1.4-1.6,3.2-1.5,4.9L737-270.9
            c-0.4-1.4-1.3-2.7-2.5-3.7c-3.2-2.5-7.8-1.9-10.2,1.3c-0.3,0.4-0.6,0.9-0.8,1.4L476-346.4c0.3-2.5-0.6-5-2.8-6.6
            c-3.2-2.4-7.8-1.9-10.2,1.3c-2.4,3.1-1.9,7.5,1.1,10L223.8,49.4c-3-1.4-6.7-0.6-8.8,2.2c-1.9,2.4-2,5.7-0.5,8.2L-35.4,255.1
            c-0.2-0.2-0.4-0.4-0.7-0.6c-3.2-2.5-7.8-1.9-10.2,1.3c-2.4,3.1-1.9,7.6,1.2,10.1L-293.7,665c-3-1.4-6.7-0.6-8.8,2.2
            c-2.4,3.1-1.9,7.5,1.1,10l-164.9,275.7c-3-1.3-6.6-0.5-8.7,2.2c-2.5,3.2-1.9,7.8,1.3,10.2c2.6,2,6.2,1.9,8.7,0.1l252.6,266.7
            c-2.2,3.2-1.6,7.6,1.5,9.9c2.9,2.2,6.9,1.9,9.5-0.6l273.8,219.5c-1.9,3.1-1.2,7.3,1.7,9.5c2.8,2.1,6.6,2,9.2-0.3l317.1,289.6
            c-2.2,3.2-1.5,7.5,1.5,9.9c3.2,2.5,7.8,1.9,10.2-1.3c0.4-0.5,0.7-1.1,0.9-1.7l332.1,88c-0.3,2.5,0.6,5.1,2.8,6.7
            c3.2,2.5,7.8,1.9,10.2-1.3c1.2-1.5,1.6-3.4,1.5-5.1l174.1-50.4c0.5,1,1.2,1.9,2.1,2.6c3.2,2.5,7.8,1.9,10.2-1.3
            c1.9-2.4,2-5.7,0.5-8.2l430.6-487.1c3,1.3,6.6,0.5,8.7-2.2c2.1-2.8,2-6.6-0.2-9.2l339.7-371.5c3.1,1.6,6.9,0.8,9.1-2
            c2.5-3.2,1.9-7.8-1.3-10.2c-0.4-0.3-0.8-0.5-1.2-0.8L1851,568.2c2.6,0.5,5.5-0.4,7.2-2.7c2.4-3.2,1.9-7.8-1.3-10.2
            c-2.2-1.7-5.1-1.9-7.5-0.8L1672,276.7c0.3-0.3,0.6-0.5,0.8-0.9c2.5-3.2,1.9-7.8-1.3-10.2C1668.6,263.4,1664.6,263.7,1662,266.1z
             M757.1,1849.9c-0.1,0-0.1-0.1-0.1-0.1c-0.4-0.3-0.9-0.6-1.3-0.8l86-306.7c2.6,0.5,5.3-0.5,7-2.7c1-1.3,1.5-2.8,1.5-4.4l212.4-25
            c0.3,1.1,0.7,2.1,1.5,3L757.1,1849.9z M409.2,1757.1c-1.2-0.5-2.4-0.6-3.6-0.5l-78.3-412c1.4-0.4,2.6-1.3,3.5-2.5
            c0.2-0.3,0.4-0.6,0.6-1l245.6,96c-0.7,2.7,0.2,5.6,2.5,7.4L409.2,1757.1z M-464.7,953.8l164.9-275.6c2.4,1.2,5.3,0.8,7.4-0.7
            l153,159.9c0,0-0.1,0.1-0.1,0.1c-1.4,1.9-1.8,4.2-1.2,6.4l-322,112.4C-463.1,955.3-463.8,954.5-464.7,953.8z M469.4-340
            l81.9,397.2c-1.3,0.4-2.5,1.3-3.4,2.4c-0.8,1-1.2,2.2-1.4,3.3L228,55.7c-0.1-2-1-3.9-2.6-5.3l240.3-391.1
            C466.8-340.2,468.1-340,469.4-340z M727.2-262.2c1,0.4,2.1,0.6,3.1,0.6L799,158.6c-1.4,0.4-2.7,1.3-3.7,2.5
            c-0.2,0.3-0.4,0.6-0.5,0.9L560.6,65.9c0.7-2.8-0.2-5.8-2.6-7.7c-0.1-0.1-0.2-0.1-0.3-0.2L727.2-262.2z M929.7-288.7l35.7,398.6
            c-0.8,0.1-1.6,0.3-2.4,0.6L734.6-263.2c0.4-0.4,0.9-0.8,1.2-1.2c1.1-1.4,1.5-3,1.5-4.7l185.4-24.7c0.4,1.4,1.3,2.6,2.5,3.5
            C926.5-289.2,928.1-288.7,929.7-288.7z M1660,272.9L1202,474.5c-0.4-0.6-0.9-1.1-1.4-1.5c-0.4-0.3-0.8-0.5-1.2-0.7l70.4-249.4
            c2.5,0.4,5.2-0.6,6.8-2.7c0.6-0.8,1-1.6,1.3-2.5l381.8,53.4C1659.7,271.6,1659.8,272.3,1660,272.9z M1721.5,922.3l-345.9,105
            c-0.5-1.1-1.2-2-2.2-2.8c-1.9-1.5-4.4-1.8-6.6-1.2l-65.6-146c0.7-0.4,1.4-1,2-1.7c0.8-1,1.2-2.1,1.4-3.3l416.7,48.2
            C1721.4,921.1,1721.4,921.7,1721.5,922.3z M1379.1,1296.6c-1.6,0.2-3.1,1-4.3,2.3l-278-196.3c0.9-1.8,1.1-3.8,0.5-5.7l265-64.1
            c0.5,1.2,1.2,2.3,2.3,3.2c1.1,0.9,2.5,1.4,3.8,1.5L1379.1,1296.6z M1034.4,1306.3c-0.3-1.8-1.2-3.6-2.8-4.8
            c-0.5-0.4-1-0.6-1.5-0.9l58.9-194.3c2.4,0.4,4.8-0.4,6.5-2.3l278,196.2c-0.4,0.8-0.7,1.7-0.8,2.5L1034.4,1306.3z M1067.2,1501.5
            c-1.3,0.5-2.5,1.3-3.4,2.4c-1,1.3-1.5,2.8-1.5,4.4l-212.4,25c-0.3-1.2-0.9-2.3-1.8-3.3l175.3-216.5c1.4,0.8,2.9,1.2,4.4,1.1
            L1067.2,1501.5z M201.5,350.5c1-1.3,1.4-2.7,1.5-4.2l226-23c0.4,1.6,1.2,3.1,2.6,4.1c0.5,0.4,0.9,0.6,1.5,0.9l-61.2,200.6
            c-1.8-0.4-3.8-0.1-5.4,0.9L201.5,350.5C201.5,350.5,201.5,350.5,201.5,350.5z M226.6,60.5c0.7-0.9,1.1-1.9,1.3-3l318.5,7.2
            c0.2,1.9,1.1,3.7,2.8,5c0.2,0.1,0.4,0.2,0.6,0.4L437.5,314.5c-1.7-0.4-3.6-0.1-5.1,0.8L226.1,60.9
            C226.3,60.8,226.4,60.6,226.6,60.5z M732.1-261.9c0.3-0.1,0.6-0.2,0.9-0.3l228.5,373.6c-0.4,0.4-0.9,0.7-1.2,1.2
            c-1.3,1.7-1.7,3.7-1.4,5.6l-151.1,44.4c-0.5-1.1-1.2-2.1-2.2-2.9c-1.4-1.1-3.1-1.5-4.7-1.5L732.1-261.9z M1268.1,222.4
            l-70.4,249.3c-2.7-0.6-5.5,0.4-7.3,2.7c-0.3,0.3-0.5,0.7-0.7,1.1L963,357.9c0.6-1.6,0.6-3.3,0.1-4.9l301.4-133.8
            c0.5,0.9,1.1,1.7,2,2.3C1267,221.8,1267.5,222.1,1268.1,222.4z M1363.3,1025.8c-1.2,1.6-1.7,3.4-1.5,5.2l-265.4,64.2
            c-0.2-0.3-0.3-0.5-0.6-0.8l197.5-217.4c1.9,1.3,4.2,1.6,6.3,1l65.6,146C1364.5,1024.5,1363.8,1025.1,1363.3,1025.8z M846.7,1528.9
            c-1.6-1-3.6-1.3-5.3-0.9l-80.6-225.7c0.9-0.5,1.8-1.1,2.5-2c0.8-1.1,1.3-2.3,1.4-3.5l255.3,10.6c0,1.9,0.7,3.7,2,5.1L846.7,1528.9
            z M78.2,1083.8l166.5-182.5c1.9,1.3,4.2,1.6,6.3,1l79.1,174.8c-0.7,0.4-1.4,1-2,1.7c-0.8,1.1-1.3,2.4-1.4,3.7l-246.9,4.9
            C79.7,1086.1,79.1,1084.8,78.2,1083.8z M-126.7,840l311.3-128.6c0.5,0.8,1.1,1.5,1.9,2.2c1.7,1.3,3.7,1.7,5.7,1.4l53.7,173.7
            c-1,0.5-2,1.2-2.8,2.2c-0.6,0.8-1,1.6-1.2,2.5L-126.4,842C-126.4,841.3-126.5,840.7-126.7,840z M365.8,541.8
            c0.4,0.3,0.9,0.6,1.4,0.8L250.3,888.2c-0.9-0.2-1.8-0.2-2.7,0L194,714.5c1.1-0.5,2-1.2,2.8-2.2c2-2.6,1.9-6.2,0.1-8.7L365.8,541.8
            z M805.2,171.6l146.4,178.2c-0.4,0.3-0.8,0.7-1.1,1.2c-1.3,1.7-1.7,3.7-1.4,5.6l-295.6,87.6c-0.5-1.1-1.2-2.1-2.2-2.8
            c-0.1,0-0.1-0.1-0.2-0.1l147.4-268.9C800.7,173.2,803.2,172.9,805.2,171.6z M1193.2,485.4l-96.7,327.1c-2.1-0.4-4.2,0.1-5.9,1.5
            L897,648.6c1.4-1.9,1.7-4.3,1.1-6.5l292-159.4c0.4,0.7,1,1.3,1.6,1.8C1192.2,484.9,1192.7,485.1,1193.2,485.4z M1292,875.8
            l-197.5,217.5c-0.9-0.6-1.8-1-2.8-1.2l4.3-265.3c1.9-0.2,3.7-1.2,5-2.8c0.4-0.6,0.7-1.2,1-1.8l188.4,48
            C1290.1,872.2,1290.6,874.3,1292,875.8z M1021.5,1302.9c-0.6,0.8-1,1.6-1.2,2.5l-255.6-10.6c-0.2-1.8-1.2-3.6-2.8-4.8
            c-0.6-0.5-1.3-0.8-2-1.1l46.5-212.2c2,0.2,3.9-0.4,5.5-1.8L1021.5,1302.9C1021.5,1302.9,1021.5,1302.9,1021.5,1302.9z
             M374.6,541.7l201.9,202.4c0,0,0,0,0,0c-1.5,1.9-1.8,4.3-1.2,6.5L255,891.5c-0.5-0.7-1-1.4-1.7-2c-0.4-0.3-0.8-0.5-1.2-0.7
            L369,543.1C370.9,543.5,373,543,374.6,541.7z M953.7,362.2l-61.4,274.9c-2.2-0.4-4.5,0.3-6.2,1.9L653,450.9c0.9-1.5,1.3-3.3,1-5
            l295.6-87.6c0.5,1.1,1.2,2.1,2.2,2.8C952.4,361.6,953.1,361.9,953.7,362.2z M537.8,1172.3l-48.7-199.6c1.2-0.5,2.3-1.2,3.2-2.3
            c0.3-0.4,0.6-0.9,0.8-1.3l306.8,98.7c-0.3,1.2-0.3,2.5,0,3.7l-255.4,104c-0.4-0.6-0.9-1.1-1.5-1.6
            C541.5,1172.5,539.6,1172.1,537.8,1172.3z M255.8,893.2L576,752.3c0.5,0.8,1,1.5,1.8,2c0.2,0.2,0.5,0.3,0.7,0.4l-89.9,204.1
            c-2.8-0.8-5.9,0.1-7.8,2.5c-0.4,0.5-0.6,1-0.9,1.5L256,896.3C256.2,895.3,256.1,894.2,255.8,893.2z M651.8,452.3L885,640.5
            c-1.9,3.1-1.3,7.3,1.7,9.6c0.6,0.5,1.3,0.8,2,1.1l-51.8,198.6c-1-0.2-2.1-0.1-3.1,0.2L650.3,453.4
            C650.9,453.1,651.4,452.7,651.8,452.3z M831.4,862.7c0.8,0.6,1.7,1,2.5,1.3L807,1062.2c-1.2,0-2.4,0.3-3.4,0.8L587.2,753.9
            c0.3-0.3,0.5-0.5,0.8-0.8c0.2-0.2,0.3-0.4,0.4-0.7l240.4,102.5C828,857.7,828.9,860.8,831.4,862.7z M491,960.1
            c-0.2-0.2-0.5-0.3-0.7-0.4l89.9-204.1c1.9,0.5,3.9,0.3,5.6-0.6l216.3,309.2c-0.3,0.3-0.6,0.6-0.9,0.9c-0.2,0.3-0.4,0.6-0.6,0.9
            l-307-98.8C494.1,964.6,493.2,961.8,491,960.1z M808.9,1062.5l26.9-198.3c2.2,0,4.4-0.9,5.8-2.8c1.1-1.5,1.6-3.2,1.5-4.9
            l245.1-35.1c0.2,0.8,0.5,1.6,1,2.3L811.7,1064c-0.1-0.1-0.2-0.2-0.3-0.3C810.6,1063.1,809.8,1062.7,808.9,1062.5z M1089.4,815.3
            c-0.9,1.2-1.4,2.7-1.4,4.1l-245.2,35.2c-0.4-1.3-1.3-2.5-2.5-3.5c-0.5-0.4-1-0.6-1.5-0.9l51.9-198.7c1.8,0.1,3.7-0.4,5.2-1.6
            L1089.4,815.3z M648.6,454.1l183.5,396.5c-0.8,0.5-1.5,1.1-2.1,1.8c-0.2,0.2-0.3,0.5-0.5,0.8L589.2,750.7c0.8-2.8-0.1-6-2.5-7.9
            c-0.6-0.5-1.3-0.8-2-1.1l61.5-287.4C647,454.4,647.8,454.3,648.6,454.1z M254.6,899.8c0.4-0.5,0.7-1.1,0.9-1.6l223.8,66.6
            c-0.3,1.7,0,3.4,0.9,4.8l-141.2,108.6c-0.2-0.2-0.4-0.5-0.7-0.6c-1.9-1.5-4.4-1.8-6.6-1.2l-79.1-174.8
            C253.4,901.1,254.1,900.5,254.6,899.8z M340.2,1079.6L481.4,971c0.2,0.2,0.4,0.5,0.7,0.7c1.6,1.2,3.4,1.7,5.2,1.5l48.7,199.6
            c-1.2,0.5-2.3,1.2-3.2,2.3c-0.1,0.2-0.2,0.4-0.3,0.5l-191.7-90.1C341.5,1083.5,341.3,1081.4,340.2,1079.6z M545.4,1177
            l255.2-103.9c0.5,0.8,1.1,1.6,1.9,2.2c0.6,0.5,1.3,0.8,2,1.1l-46.5,212.2c-2.4-0.2-4.8,0.8-6.4,2.8c-0.1,0.1-0.1,0.2-0.1,0.2
            l-206.1-109.7C546,1180.3,546,1178.6,545.4,1177z M813,1065.4L1090.4,825c0.1,0.1,0.2,0.3,0.4,0.4c1,0.8,2.2,1.2,3.4,1.4
            l-4.3,265.2c-2,0.1-3.9,1.1-5.3,2.8c-0.6,0.7-0.9,1.5-1.2,2.3l-269.2-28.4C814.1,1067.5,813.7,1066.4,813,1065.4z M1189.3,481
            L897.3,640.4c-0.4-0.7-1-1.4-1.7-1.9c-0.5-0.4-1-0.6-1.5-0.9l61.4-275c2.4,0.2,4.9-0.7,6.4-2.8c0.1-0.1,0.1-0.2,0.2-0.3
            l226.9,117.6C1188.8,478.4,1188.8,479.8,1189.3,481z M796.8,171.5L649.4,440.3c-2.9-1.1-6.3-0.3-8.4,2.3L442.8,324.2
            c0.6-1.5,0.6-3.1,0.2-4.6l351.8-150.3c0.5,0.8,1.1,1.5,1.8,2.1C796.7,171.4,796.8,171.4,796.8,171.5z M441.8,326.1
            c0.1-0.1,0.1-0.2,0.2-0.3l198.2,118.3c-0.6,1.3-0.7,2.8-0.5,4.2l-262.9,84.7c-0.5-1.1-1.2-2.1-2.2-2.9c-0.3-0.3-0.7-0.5-1.1-0.7
            l61.3-200.8C437.4,329.2,440.1,328.3,441.8,326.1z M640.2,450.2c0.5,1,1.2,1.9,2.1,2.7c0.6,0.5,1.3,0.8,2,1.1l-61.5,287.4
            c-1.8-0.1-3.6,0.4-5,1.5L375.9,540.4c1.3-1.6,1.7-3.6,1.4-5.5L640.2,450.2z M339.7,1087.7c0.1-0.2,0.2-0.4,0.3-0.5l191.7,90.1
            c-0.6,1.9-0.4,4,0.5,5.8l-202,149.7c-0.3-0.3-0.5-0.5-0.8-0.7c-1-0.8-2.1-1.2-3.3-1.4l8.2-240.1
            C336.4,1090.4,338.4,1089.5,339.7,1087.7z M540.8,1186.4c1.4-0.4,2.7-1.3,3.6-2.5c0.1-0.1,0.1-0.2,0.2-0.4l206.1,109.6
            c-0.8,2.1-0.6,4.5,0.6,6.4l-162.4,134c-0.2-0.2-0.3-0.3-0.5-0.5c-1.4-1.1-3.1-1.5-4.8-1.5L540.8,1186.4z M1022.9,1301.5
            l-209.9-228c0.6-0.9,1-1.9,1.1-2.9l268.9,28.4c-0.1,2.3,0.9,4.5,2.8,6c0.5,0.4,1,0.6,1.5,0.9l-58.9,194.3
            C1026.5,1299.9,1024.5,1300.3,1022.9,1301.5z M1291.7,866.7c-0.4,0.6-0.7,1.1-1,1.8l-188.4-48c0.1-1.2,0-2.4-0.5-3.6l249.9-139.2
            c0.4,0.5,0.8,1,1.4,1.5c0.5,0.4,0.9,0.6,1.5,0.9l-56,183.9C1296.2,863.5,1293.4,864.5,1291.7,866.7z M1351.9,669
            c-1.6,2.1-1.9,4.8-1,7.1L1101,815.3c-0.4-0.5-0.8-1-1.4-1.5c-0.4-0.3-0.9-0.6-1.4-0.8l96.7-327.1c1.7,0.3,3.5-0.1,5-1l152.4,183.7
            C1352.3,668.7,1352.1,668.8,1351.9,669z M953.2,348.8L806.6,170.3c0.1-0.1,0.2-0.2,0.3-0.3c1.3-1.7,1.7-3.7,1.4-5.6L959.4,120
            c0.5,1.1,1.2,2.1,2.2,2.9c1.1,0.8,2.3,1.3,3.5,1.4L956,348.1C955,348.2,954.1,348.4,953.2,348.8z M794.1,167.6L442.2,317.9
            c-0.5-0.7-1-1.4-1.8-2c-0.4-0.3-0.8-0.5-1.2-0.7L551.4,70.9c2.8,0.9,6,0,7.9-2.5c0.2-0.3,0.4-0.6,0.5-0.9L794,163.7
            C793.7,165,793.7,166.3,794.1,167.6z M364.5,540.5L195.5,702.2c0,0-0.1-0.1-0.1-0.1c-2.5-1.9-5.7-2-8.2-0.4L23.1,496
            c0.2-0.2,0.4-0.4,0.6-0.6c0.6-0.8,1-1.7,1.3-2.6l338,43.3C362.9,537.7,363.4,539.2,364.5,540.5z M21.6,497.2l164.1,205.6
            c-0.2,0.2-0.4,0.4-0.6,0.6c-1.4,1.9-1.8,4.2-1.2,6.3l-311.3,128.6c-0.5-0.8-1.1-1.6-1.9-2.2c-0.2-0.2-0.5-0.3-0.7-0.5L15.5,497.9
            C17.6,498.5,19.8,498.3,21.6,497.2z M-127.9,846.4c0.6-0.8,1-1.6,1.2-2.5l368.3,51.4c0,1.7,0.6,3.4,1.7,4.8L76.9,1082.6
            c-2.7-1.9-6.2-1.7-8.7,0.3l-197.1-235.4C-128.6,847.1-128.2,846.8-127.9,846.4z M78.5,1092.9c0.8-1.1,1.3-2.4,1.4-3.7l246.9-4.9
            c0,0.1,0,0.1,0,0.2L-199.4,1234c-0.1-0.2-0.2-0.4-0.3-0.6L67,1092.9c0.4,0.5,0.8,0.9,1.3,1.3C71.4,1096.7,76,1096.1,78.5,1092.9z
             M-199.1,1235.8l526.5-149.5c0.5,1,1.2,2,2.1,2.7c0.9,0.7,2,1.1,3.1,1.3l-8.2,240.1c-1.9,0.2-3.8,1.1-5.1,2.8
            c-0.5,0.7-0.9,1.4-1.1,2.2l-517.2-98.5C-199.1,1236.6-199.1,1236.2-199.1,1235.8z M331.4,1334.2l202-149.7
            c0.3,0.3,0.5,0.5,0.8,0.7c1.4,1.1,3.1,1.5,4.8,1.5l42.9,245.3c-1.4,0.4-2.7,1.3-3.6,2.5c-0.2,0.3-0.4,0.6-0.6,1l-245.6-96
            C332.5,1337.7,332.3,1335.8,331.4,1334.2z M590.1,1435.1l162.4-134c0.2,0.2,0.3,0.3,0.5,0.5c1.8,1.4,4,1.8,6,1.3l80.6,225.7
            c-0.9,0.5-1.8,1.1-2.5,2c-0.3,0.3-0.5,0.7-0.7,1.1l-245.4-91.1C591.5,1438.7,591.2,1436.8,590.1,1435.1z M1300.5,864.5l56-183.9
            c2.6,0.4,5.3-0.5,7-2.7c1.2-1.6,1.7-3.4,1.5-5.2l204.6-49.9c0.2,0.5,0.5,1,0.8,1.5L1302.6,866c-0.2-0.2-0.4-0.4-0.6-0.6
            C1301.5,865,1301,864.7,1300.5,864.5z M1569.1,620.9l-204.6,49.9c-0.5-1.2-1.2-2.3-2.3-3.2c-2.5-1.9-5.8-1.9-8.3-0.4l-152.4-183.7
            c0.2-0.2,0.3-0.3,0.5-0.5c0.3-0.3,0.5-0.7,0.7-1.1l366.7,136.4C1569.1,619.3,1569,620.1,1569.1,620.9z M1265.1,211.3
            c-1.4,1.8-1.8,4.1-1.3,6.2L962.2,351.3c-0.4-0.6-0.9-1.1-1.5-1.6L1175.7-7.9c1.5,0.7,3.2,0.8,4.7,0.4l86.8,217
            C1266.4,209.9,1265.7,210.5,1265.1,211.3z M1174.1-8.9L959.2,348.8c-0.4-0.2-0.9-0.4-1.4-0.5l9.1-224c1.8-0.2,3.6-1.2,4.8-2.8
            c1.7-2.2,1.9-5,0.8-7.4l200.2-124.4C1173.1-9.7,1173.6-9.3,1174.1-8.9z M224.7,62.1l206.2,254.4c-0.2,0.2-0.5,0.4-0.7,0.7
            c-1,1.3-1.5,2.8-1.5,4.2l-226,23c-0.4-1.6-1.2-3.1-2.6-4.2c-0.8-0.6-1.7-1-2.6-1.3l23.5-275.7C222.4,63.2,223.6,62.8,224.7,62.1z
             M200.1,351.8l164.8,179.1c-0.2,0.2-0.4,0.4-0.6,0.6c-0.6,0.8-1.1,1.8-1.3,2.7L25.1,491c0-1.3-0.4-2.6-1.1-3.8l166.7-135.9
            c0.2,0.2,0.3,0.4,0.5,0.5C193.9,353.9,197.6,353.8,200.1,351.8z M189.6,349.9L22.9,485.8c-0.2-0.2-0.4-0.4-0.6-0.5
            c-1.6-1.3-3.6-1.7-5.5-1.4l-54.6-216.7c1.2-0.5,2.3-1.2,3.1-2.3c0.3-0.3,0.5-0.7,0.7-1.1l222.6,80.9
            C188.2,346.4,188.6,348.3,189.6,349.9z M-39.6,267.5L15,484.3c-1.1,0.5-2.1,1.2-2.9,2.2c-1.8,2.3-1.9,5.3-0.7,7.7l-302.3,173
            c-0.3-0.5-0.7-0.9-1.2-1.3l248.6-399.1C-42.3,267.5-40.9,267.7-39.6,267.5z M-290.9,676.1c1.6-2.1,1.9-4.9,0.9-7.2l302.4-173
            c0.3,0.3,0.6,0.7,1,1c0.1,0.1,0.3,0.2,0.4,0.3l-145.6,337.9c-2.2-0.6-4.5-0.2-6.3,1.2l-153-159.9
            C-291,676.1-290.9,676.1-290.9,676.1z M-130.5,848.4l197.3,235.8c-1.6,2.1-1.8,4.9-0.8,7.2l-266.6,140.4c-0.4-0.5-0.8-0.9-1.3-1.3
            c-0.9-0.7-1.8-1.1-2.8-1.3l70.3-380C-133.1,849.3-131.7,849-130.5,848.4z M-199.6,1238.8l517.3,98.5c-0.1,1,0.1,2,0.4,2.9
            L84.7,1460.6c-0.4-0.6-0.9-1.2-1.5-1.7c-2.9-2.2-6.9-1.9-9.5,0.6L-200.1,1240C-199.9,1239.6-199.7,1239.2-199.6,1238.8z
             M85.5,1462.2L319,1341.9c0.4,0.6,0.9,1.2,1.5,1.7c1.5,1.1,3.2,1.6,4.9,1.5l78.3,412.2c-0.7,0.3-1.4,0.7-2,1.2L84.7,1468.8
            C86,1466.8,86.3,1464.4,85.5,1462.2z M585.8,1446c1.5-0.4,2.9-1.2,3.9-2.6c0.3-0.3,0.5-0.7,0.7-1.1l245.4,91
            c-0.6,2.7,0.3,5.6,2.6,7.4c0.4,0.3,0.9,0.6,1.4,0.8l-86,306.7c-1.1-0.2-2.2-0.2-3.2,0.1L585.8,1446z M1069,1501.1l-39.4-186.9
            c1.3-0.5,2.5-1.3,3.4-2.4c0.8-1.1,1.3-2.3,1.4-3.6l338.5-3.4c0.1,0.9,0.4,1.8,0.9,2.6L1075.4,1504c-0.4-0.5-0.8-1-1.3-1.4
            C1072.6,1501.5,1070.8,1501,1069,1501.1z M1380.9,1296.6l-10.7-259.2c1.7-0.3,3.4-1.2,4.5-2.7c1.3-1.7,1.7-3.7,1.4-5.6l345.9-105
            c0.4,0.9,1,1.7,1.8,2.4l-339.6,371.4C1383.2,1297.1,1382.1,1296.7,1380.9,1296.6z M1722.9,916.6c-0.5,0.6-0.8,1.4-1.1,2.1
            l-417.1-48.3c-0.1-1.1-0.4-2.1-1-3l267.9-241.8c0.1,0.1,0.2,0.2,0.3,0.3c2,1.6,4.6,1.9,6.9,1.1l145.4,288.4
            C1723.7,915.7,1723.3,916.1,1722.9,916.6z M1570.6,615.7c-0.3,0.3-0.5,0.7-0.7,1.1l-366.7-136.4c0.3-1.4,0.2-2.9-0.3-4.2
            l457.6-201.5c0.5,0.9,1.1,1.8,2,2.5c0.5,0.4,1.1,0.7,1.7,1L1577.4,613C1574.9,612.6,1572.2,613.5,1570.6,615.7z M1660.9,267.6
            c-0.3,0.5-0.6,1-0.7,1.6l-382-53.4c0-2.2-0.9-4.4-2.8-5.8c-1.9-1.5-4.3-1.8-6.5-1.2l-86.8-217c0.8-0.5,1.6-1.1,2.2-1.9
            c0,0,0-0.1,0.1-0.1L1660.9,267.6z M1173.7-19.9c-0.3,0.3-0.6,0.6-0.8,0.9c-1.6,2.1-1.9,4.9-0.9,7.2L971.6,112.5
            c-0.4-0.4-0.7-0.8-1.2-1.2c-1-0.7-2.1-1.2-3.2-1.4l-35.7-399c0.8-0.2,1.5-0.6,2.2-1.1L1173.7-19.9z M722.9-270.1
            c-0.5,2.6,0.5,5.3,2.7,7L556.1,57.2c-1-0.4-2-0.5-3.1-0.4l-81.9-397.2c1.3-0.4,2.5-1.3,3.4-2.4c0.4-0.6,0.7-1.2,1-1.8L722.9-270.1
            z M215.7,61.2c0.2,0.2,0.4,0.4,0.7,0.6c0.9,0.7,1.9,1.1,2.9,1.3l-23.5,275.7c-2.2,0-4.4,0.9-5.8,2.8c-0.3,0.4-0.5,0.8-0.7,1.2
            l-222.6-80.9c0.4-1.8,0.1-3.7-0.8-5.3L215.7,61.2z M-463.4,963.9c1.3-1.8,1.7-3.9,1.3-5.9L-140,845.6c0.5,0.8,1.1,1.5,1.9,2.1
            c0.6,0.4,1.2,0.8,1.9,1l-70.3,380.3c-1.6,0.1-3.2,0.6-4.5,1.7l-252.5-266.6C-463.5,964-463.4,964-463.4,963.9z M413.7,1764.8
            c0.3-2.5-0.6-5.1-2.8-6.7c-0.1,0-0.1-0.1-0.2-0.1L581,1445.6c0.9,0.4,1.9,0.6,2.9,0.6l165,402.9c-0.8,0.5-1.6,1.1-2.2,1.9
            c-0.4,0.5-0.7,1.1-0.9,1.7L413.7,1764.8z M759.3,1853c-0.2-0.6-0.6-1.2-1-1.8l307.1-336.9c0.1,0.1,0.3,0.2,0.4,0.3l-123.1,279.9
            c-2.9-1-6.2-0.1-8.2,2.4c-1.3,1.7-1.7,3.9-1.3,5.8L759.3,1853z M944.4,1795.3l123.1-279.9c2.8,0.8,5.9-0.1,7.8-2.5
            c1.7-2.1,1.9-4.9,0.9-7.2l298.6-196.7c0.2,0.2,0.4,0.4,0.6,0.6l-430.1,486.6c-0.2-0.2-0.4-0.4-0.6-0.6
            C944.7,1795.4,944.6,1795.3,944.4,1795.3z M1730.1,914c-1.5-0.3-3-0.1-4.4,0.5l-145.4-288.3c0.6-0.4,1.2-0.9,1.7-1.6
            c1.2-1.6,1.7-3.5,1.5-5.3l262.1-55.8c0.4,1.3,1.3,2.5,2.4,3.4c0.4,0.3,0.8,0.5,1.2,0.8L1730.1,914z M1847.9,555.5
            c-0.4,0.3-0.8,0.7-1.1,1.1c-1.1,1.5-1.6,3.3-1.5,5l-262.2,55.8c-0.5-1.2-1.2-2.3-2.3-3.1c-0.5-0.4-1-0.7-1.6-0.9l86.9-334.9
            c1.5,0.2,3-0.1,4.4-0.8L1847.9,555.5z" style="fill: rgb(81, 81, 88);"></path>
                    <path fill="#EFEFEF" d="M771.7,2265c0,4,3.2,7.3,7.2,7.3c0.4,0,0.8,0,1.2-0.1l110.6,310.5c-2.3,1.2-4,3.6-4,6.4
            c0,4,3.2,7.3,7.2,7.3c2.9,0,5.3-1.7,6.5-4.1l346.6,118.4c-0.1,0.5-0.1,0.9-0.1,1.4c0,4,3.2,7.3,7.2,7.3c3.6,0,6.5-2.5,7.2-5.9
            l501.8-40.4c0.7,3.3,3.6,5.8,7.1,5.8c3.4,0,6.3-2.3,7.1-5.5l648.8-41.2c1.1,2.7,3.7,4.6,6.7,4.6c4,0,7.3-3.2,7.3-7.2
            c0-1.2-0.3-2.3-0.8-3.3l146.6-106.6c1.3,1.2,3,2,5,2c4,0,7.3-3.2,7.3-7.2c0-2.7-1.4-5-3.6-6.3L2729,2192c0.6,0.2,1.2,0.3,1.9,0.3
            c4,0,7.3-3.2,7.3-7.2c0-3.9-3-7.1-6.9-7.3l-34.2-428c3.3-0.7,5.8-3.6,5.8-7.1c0-3.8-2.8-6.8-6.5-7.2l-5.4-350.9
            c3.5-0.5,6.2-3.5,6.3-7.1c0-3.9-3.1-7.1-6.9-7.3l-55.7-363.1c3-0.9,5.3-3.6,5.3-6.9c0-4-3.2-7.3-7.3-7.3c-3.4,0-6.3,2.3-7.1,5.5
            l-318.9-38.9c-0.2-3.9-3.3-7-7.2-7c-3.5,0-6.4,2.4-7.1,5.6l-467.7-48.5c-0.1-3.9-3.3-7.1-7.2-7.1c-4,0-7.3,3.2-7.3,7.3
            c0,0.3,0.1,0.6,0.1,0.9l-307.6,77.5c-1.1-2.7-3.7-4.6-6.7-4.6c-3.5,0-6.3,2.4-7.1,5.6l-456.3-50.2c-0.2-3.9-3.3-7-7.2-7
            c-4,0-7.3,3.2-7.3,7.2c0,2.7,1.4,5,3.6,6.3l-92.9,241.1c-0.5-0.1-1.1-0.2-1.6-0.2c-4,0-7.3,3.2-7.3,7.3c0,1.6,0.5,3.1,1.4,4.3
            l-133.2,131.2c-1.3-1.1-2.9-1.8-4.7-1.8c-4,0-7.3,3.2-7.3,7.2c0,4,3.2,7.3,7.3,7.3c0.1,0,0.2,0,0.3,0l66.2,355.4
            c-2.5,1.1-4.3,3.6-4.3,6.6c0,3.3,2.2,6.1,5.3,7l-72.9,547C774.4,2258.3,771.7,2261.3,771.7,2265z M2129.5,2550.5
            c-0.2-1.1-0.7-2.1-1.4-3l150.1-152.4c1.2,0.9,2.7,1.5,4.4,1.5c2.8,0,5.2-1.6,6.4-3.9l295,120.3c-0.1,0.5-0.2,1-0.2,1.5
            c0,0.1,0,0.1,0,0.2L2129.5,2550.5z M2372.7,2125.8c0-2.9-1.8-5.5-4.3-6.6l74.8-252.8c0.4,0.1,0.7,0.1,1.1,0.1
            c1.5,0,2.9-0.5,4.1-1.3l277.4,314.6c-0.9,0.9-1.5,1.9-1.8,3.1L2372.7,2125.8z M2626.3,1003.2L2340,1188.5
            c-1.3-1.8-3.4-2.9-5.8-2.9c-0.1,0-0.1,0-0.2,0l-32.4-218.9c2.6-0.7,4.6-2.8,5.1-5.4l318.8,38.9
            C2625.6,1001.2,2625.8,1002.2,2626.3,1003.2z M1032.5,940.7l456.3,50.2c0.1,2.1,1,4,2.5,5.3l-189.6,255.9c-1-0.6-2.2-0.9-3.5-1
            c-1.5,0-2.9,0.4-4,1.2l-263.4-308.3C1031.6,943.1,1032.3,942,1032.5,940.7z M1291,1258.1c0,0.1,0,0.2,0,0.3c0,3,1.8,5.6,4.5,6.7
            l-67.7,243.9c-0.3,0-0.7-0.1-1-0.1c-1.6,0-3.1,0.5-4.3,1.4l-289.7-312.1c0.7-0.8,1.2-1.8,1.5-2.8L1291,1258.1z M790.6,1334.6
            c0-1.5-0.5-2.9-1.3-4.1l133.2-131.2c1.3,1,2.8,1.7,4.6,1.7c0.6,0,1.2-0.1,1.7-0.2l154.9,409.6c-0.7,0.4-1.4,0.9-1.9,1.5
            l-292.9-272.7C789.9,1337.9,790.6,1336.3,790.6,1334.6z M783.1,2259l192.1-334.3c0.8,0.4,1.8,0.6,2.8,0.6c2.7,0,5.1-1.5,6.3-3.7
            l240.1,97.3c-0.1,0.4-0.1,0.9-0.1,1.4c0,0.7,0.1,1.4,0.3,2.1l-440.1,238C784.1,2259.9,783.7,2259.4,783.1,2259z M1258.3,2706.2
            l217.5-358.7c1,0.6,2.2,0.9,3.4,0.9c0.9,0,1.8-0.2,2.6-0.5l75.1,141.4c-1.9,1.3-3.1,3.5-3.1,5.9c0,1.2,0.3,2.4,0.9,3.4
            l-295.1,208.7C1259.2,2706.9,1258.8,2706.5,1258.3,2706.2z M1567.2,2499.1c0.7-1.1,1.2-2.5,1.2-3.9c0-1.4-0.4-2.7-1.1-3.8
            l213.2-169.9c1.1,1.6,2.8,2.7,4.8,3.1l-15.5,339.9c-1.7,0.1-3.3,0.9-4.5,2L1567.2,2499.1z M1774.1,2665.5
            c-0.7-0.5-1.6-0.8-2.5-0.9l15.5-339.9c2.5-0.2,4.6-1.7,5.8-3.8l189.6,72.7c-0.1,0.5-0.2,1.1-0.2,1.7c0,2,0.8,3.8,2.1,5.1
            L1774.1,2665.5z M1995,2400.1c1-1.1,1.7-2.5,1.8-4.1l278.5-5.6c0.2,1.3,0.7,2.4,1.5,3.4l-150.1,152.4c-1.2-0.9-2.7-1.5-4.4-1.5
            c-1.5,0-2.8,0.4-4,1.2L1995,2400.1z M1740.6,1156.1l40.4,240.2c-1.8,0.7-3.2,2-4,3.7l-196-74.7c0.1-0.5,0.2-1.1,0.2-1.7
            c0-1.8-0.6-3.3-1.6-4.6l156.8-164.4C1737.4,1155.6,1738.9,1156.1,1740.6,1156.1C1740.5,1156.1,1740.5,1156.1,1740.6,1156.1z
             M1496.7,998l74.4,318.9c-1.7,0.7-3,2-3.8,3.6l-261.9-61.3c0-0.2,0.1-0.5,0.1-0.7c0-2.1-0.9-3.9-2.2-5.3l189.6-255.9
            c1,0.5,2,0.8,3.1,0.8C1496.3,998,1496.5,998,1496.7,998z M1221.1,1511.6c-1.1,1.3-1.7,2.8-1.7,4.6c0,1.3,0.3,2.4,0.9,3.5
            l-127.8,92.1c-1.3-1.4-3.2-2.3-5.3-2.3c-0.6,0-1.2,0.1-1.7,0.2l-155-409.6c0.3-0.1,0.6-0.3,0.8-0.5L1221.1,1511.6z M985.3,1918
            c0-1.1-0.2-2.1-0.6-3l290.6-156c0.9,1.4,2.3,2.4,3.9,2.9l-46.3,251.1c-0.4-0.1-0.8-0.1-1.2-0.1c-2.9,0-5.4,1.7-6.6,4.1l-240-97.3
            C985.2,1919.3,985.3,1918.7,985.3,1918z M1558.6,2488.4l-75.1-141.4c1.8-1.2,2.9-3.3,3-5.6l292.9-22.6c0.1,0.3,0.2,0.6,0.3,0.9
            L1566.2,2490c-1.3-1.3-3.1-2.1-5-2.1C1560.3,2487.9,1559.4,2488.1,1558.6,2488.4z M1996.8,2394.1c-0.3-1.9-1.3-3.6-2.8-4.7
            l148.3-208.2c1.1,0.6,2.3,1,3.7,1.1c1.1,0,2.2-0.3,3.1-0.7l128.8,202.1c-1.4,1.2-2.3,2.9-2.6,4.8L1996.8,2394.1z M2397.1,1512.1
            l-155.3,191.9c-1.1-0.7-2.4-1.1-3.8-1.1c-0.9,0-1.8,0.2-2.6,0.5l-89.5-169.7c1.8-1.3,3-3.3,3.1-5.6l246.3-19.5
            C2395.5,1509.9,2396.1,1511.2,2397.1,1512.1z M2329.8,1198.6L2144.5,1521c-0.8-0.4-1.8-0.6-2.8-0.6c-1.2,0-2.4,0.3-3.4,0.9
            l-104.3-148.9c1.5-1.3,2.4-3.2,2.4-5.3c0-1-0.2-1.9-0.5-2.8l292.5-167C2328.8,1197.8,2329.3,1198.2,2329.8,1198.6z M2022.2,1369
            c0.9,3,3.6,5.3,6.9,5.3c1.2,0,2.4-0.3,3.4-0.9l104.3,148.9c-0.7,0.6-1.2,1.3-1.6,2.2l-344.6-119.7c0.1-0.5,0.2-1.1,0.2-1.6
            L2022.2,1369z M1233.6,1518.3l302.7,48.5c0,0.1,0,0.1,0,0.2c0,1.3,0.3,2.4,0.9,3.5l-250.5,179.7c-1.3-1.4-3.2-2.3-5.3-2.3
            c-0.5,0-1.1,0.1-1.6,0.2l-51-224.9C1231.1,1522.4,1232.9,1520.6,1233.6,1518.3z M1238.9,2020.4c0-0.8-0.2-1.6-0.4-2.4l305-132.8
            c1.3,1.8,3.4,3.1,5.8,3.1l11.9,254.4c-2.1,0.5-3.8,1.9-4.8,3.7l-317.7-124.3C1238.8,2021.5,1238.9,2021,1238.9,2020.4z
             M1483,2334.8l77.7-178.2c0.6,0.2,1.3,0.3,2,0.3c2.1,0,3.9-0.8,5.2-2.2l212.2,159.3c-0.4,0.9-0.7,1.9-0.8,2.9l-292.9,22.6
            C1486,2337.6,1484.8,2335.9,1483,2334.8z M1989.5,2387.9l-51.3-305.4c2-0.4,3.7-1.6,4.8-3.2l196.1,93.5c-0.2,0.7-0.4,1.4-0.4,2.2
            c0,2,0.8,3.8,2.1,5.1l-148.4,208.3c-0.8-0.4-1.8-0.6-2.8-0.6C1989.6,2387.9,1989.6,2387.9,1989.5,2387.9z M1789.9,1406.6
            l344.7,119.7c-0.1,0.5-0.1,0.9-0.1,1.4c0,0.9,0.2,1.8,0.5,2.6l-307.7,166.5c-1.3-1.8-3.4-3-5.9-3c0,0,0,0,0,0l-36-283.6
            C1787.3,1409.6,1788.9,1408.3,1789.9,1406.6z M1288.7,1755.2c0-1.3-0.3-2.4-0.9-3.5l250.5-179.7c1.2,1.2,2.7,2.1,4.5,2.3
            l5.6,299.6c-2.3,0.3-4.2,1.7-5.3,3.7l-254.8-120.1C1288.5,1756.7,1288.7,1756,1288.7,1755.2z M2181.1,1930.9
            c0,0.8,0.1,1.5,0.4,2.2l-238.8,138c-0.8-1-1.7-1.8-2.9-2.3l110.2-302.9c0.5,0.1,1,0.2,1.6,0.2c1.4,0,2.7-0.4,3.8-1.1l127.8,160.9
            C2181.9,1927.1,2181.1,1928.9,2181.1,1930.9z M2138.1,1534l-84.7,217.7c-0.6-0.1-1.1-0.2-1.7-0.2c-3.1,0-5.7,1.9-6.8,4.6
            l-216.4-54.2c0-0.3,0.1-0.5,0.1-0.8c0-0.9-0.2-1.8-0.5-2.6l307.7-166.5C2136.4,1532.8,2137.2,1533.5,2138.1,1534z M1546.4,1573.7
            l200.5,388.1c-0.8,0.6-1.5,1.4-2,2.3l-188.7-80.9c0.2-0.7,0.4-1.5,0.4-2.3c0-3.8-2.8-6.8-6.5-7.2l-5.6-299.6
            C1545.3,1574.1,1545.9,1574,1546.4,1573.7z M1754,1961l66.5-252.7c0.3,0,0.5,0.1,0.8,0.1c0.4,0,0.8-0.1,1.1-0.1l111.5,360.6
            c-1.1,0.5-2,1.3-2.7,2.2L1758,1970.5c0.4-0.9,0.6-1.8,0.6-2.8C1758.6,1964.7,1756.7,1962.1,1754,1961z M2048.3,1765.2l-110.3,303
            c-0.3-0.1-0.7-0.1-1.1-0.1c-0.4,0-0.9,0.1-1.3,0.1l-111.5-360.5c1.8-0.8,3.2-2.2,3.9-4l216.4,54.2c0,0.3-0.1,0.5-0.1,0.8
            C2044.3,1761.5,2045.9,1764,2048.3,1765.2z M1929.6,2075.3c0,0.1,0,0.3,0,0.4l-360,71.7c-0.3-0.8-0.7-1.6-1.2-2.2l178.1-172
            c1.3,1.1,2.9,1.9,4.8,1.9c2.4,0,4.5-1.1,5.8-2.9l173.1,100.4C1929.8,2073.4,1929.6,2074.3,1929.6,2075.3z M1551,1888.1
            c1.8-0.4,3.4-1.6,4.5-3.1l188.8,80.9c-0.1,0.6-0.2,1.1-0.2,1.7c0,1.5,0.4,2.9,1.2,4.1L1567,2143.9c-1.2-0.9-2.6-1.4-4.1-1.4
            L1551,1888.1z M1549.7,1571l264.7,127.7c-0.2,0.7-0.4,1.5-0.4,2.3c0,3.1,1.9,5.7,4.7,6.8l-66.5,252.7c-0.3,0-0.6-0.1-0.9-0.1
            c-1,0-1.9,0.2-2.8,0.5L1548,1572.8C1548.7,1572.3,1549.2,1571.7,1549.7,1571z M2144.2,1534.5l89.5,169.8c-1.9,1.3-3.1,3.5-3.1,5.9
            c0,0.3,0,0.6,0.1,0.9l-172.4,44.9c-0.6-1.6-1.8-2.8-3.3-3.7l84.7-217.6c0.6,0.2,1.2,0.3,1.9,0.3
            C2142.6,1535,2143.4,1534.8,2144.2,1534.5z M2235.5,1717.1l-46.4,206.6c-0.2,0-0.4-0.1-0.6-0.1c-1.4,0-2.7,0.4-3.8,1.1
            l-127.8-160.9c1.3-1.3,2.1-3.1,2.1-5c0-0.3-0.1-0.6-0.1-1l172.4-44.9C2232,1714.9,2233.5,1716.3,2235.5,1717.1z M2186.1,1937.8
            l-39.8,230c-0.1,0-0.2,0-0.3,0c-2.6,0-4.8,1.3-6.1,3.3l-196.1-93.5c0.2-0.7,0.4-1.4,0.4-2.2c0-1-0.2-2-0.6-2.8l238.6-137.8
            C2183.1,1936.2,2184.5,1937.2,2186.1,1937.8z M1931.8,2080.6l-142.7,230c-0.8-0.3-1.7-0.5-2.6-0.5c-2.2,0-4.1,0.9-5.4,2.4
            L1569,2153.3c0.6-1.1,1-2.2,1-3.5c0-0.2,0-0.4-0.1-0.5l360-71.7C1930.3,2078.7,1931,2079.8,1931.8,2080.6z M1234.7,2013.7
            l46.3-251.3c0.1,0,0.2,0,0.4,0c2.6,0,4.9-1.3,6.2-3.4l254.9,120.2c-0.1,0.6-0.2,1.1-0.2,1.7c0,0.9,0.2,1.7,0.5,2.5l-304.9,132.8
            C1236.9,2015.2,1235.9,2014.3,1234.7,2013.7z M1233.9,1516.3c0-1-0.2-1.9-0.5-2.7l334.5-185.7c0.9,1.3,2.2,2.2,3.7,2.7
            l-28.1,229.2c-3.3,0-6,2.2-6.9,5.2l-302.7-48.5C1233.9,1516.4,1233.9,1516.3,1233.9,1516.3z M1580.2,1327.1l196.2,74.7
            c-0.1,0.4-0.1,0.8-0.1,1.2c0,1.3,0.3,2.5,0.9,3.5L1549,1562.2c-1-1.1-2.2-1.8-3.6-2.2l28.1-229.1c0.1,0,0.2,0,0.3,0
            C1576.6,1330.9,1579,1329.4,1580.2,1327.1z M1778.2,1408.1c1.3,1.4,3.2,2.3,5.2,2.3l36,283.6c-1.8,0.5-3.3,1.6-4.3,3.1
            l-264.8-127.7c0.2-0.7,0.4-1.5,0.4-2.3c0-1.2-0.3-2.3-0.8-3.3L1778.2,1408.1z M2243.4,1715.1l194.6,140.7c-0.6,1-0.9,2.2-0.9,3.4
            c0,0.4,0.1,0.7,0.1,1.1l-242.1,67.7c-0.8-1.8-2.3-3.3-4.2-4l46.4-206.6c0.2,0,0.4,0.1,0.6,0.1
            C2240.1,1717.5,2242,1716.6,2243.4,1715.1z M2360,2121.2c-1.1,1.3-1.8,2.9-1.8,4.7c0,0.2,0,0.5,0.1,0.7l-205.5,46
            c-0.8-2.1-2.5-3.8-4.7-4.5l39.8-230c0.1,0,0.3,0,0.4,0c1.6,0,3-0.5,4.2-1.3L2360,2121.2z M1983.2,2391.8l-189.6-72.7
            c0.1-0.5,0.2-1.1,0.2-1.7c0-2.4-1.2-4.6-3-5.9l142.5-229.8c0.9,0.5,1.9,0.8,3,0.9l51.3,305.6
            C1985.8,2388.7,1984.2,2390,1983.2,2391.8z M1472.9,2337.6l-179.6-68.6c0.1-0.5,0.2-1.1,0.2-1.7c0-0.7-0.1-1.4-0.3-2l263.2-112
            c0.6,1.1,1.5,1.9,2.5,2.6l-77.7,178.2c-0.6-0.2-1.3-0.3-2-0.3C1476.6,2333.8,1474.2,2335.3,1472.9,2337.6z M1285.6,2260.1
            l-51.6-233c1.7-0.6,3-1.8,3.9-3.3l317.7,124.3c-0.1,0.5-0.2,1-0.2,1.6c0,0.7,0.1,1.4,0.3,2l-263.2,112c-1.3-2.1-3.6-3.6-6.2-3.6
            C1286.1,2260.1,1285.9,2260.1,1285.6,2260.1z M1275.8,1750.5l-182.4-130.1c0.6-1.1,1-2.3,1-3.7c0-1.3-0.3-2.4-0.9-3.5l127.8-92.1
            c1.3,1.4,3.2,2.3,5.3,2.3c0.1,0,0.3,0,0.4,0l51,225.3C1277.2,1749.2,1276.4,1749.8,1275.8,1750.5z M1229.5,1509.5l67.7-243.9
            c0.3,0,0.7,0.1,1,0.1c3.1,0,5.8-2,6.8-4.7l261.7,61.2c-0.1,0.5-0.1,0.9-0.2,1.4c0,0.9,0.2,1.8,0.5,2.6l-334.6,185.7
            C1231.7,1510.9,1230.7,1510,1229.5,1509.5z M1788.1,1397.5l173.1-293.5c0.9,0.4,1.8,0.6,2.8,0.6c0.3,0,0.5,0,0.8-0.1l61.7,255.7
            c-2.7,1-4.7,3.7-4.7,6.7c0,0.1,0,0.1,0,0.2l-231.3,34.2C1790.2,1399.8,1789.3,1398.5,1788.1,1397.5z M1970.9,1099.7l356.1,92.3
            c0,0.3-0.1,0.6-0.1,0.9c0,1,0.2,1.9,0.6,2.8l-292.5,167c-1.3-1.7-3.4-2.9-5.8-2.9c-0.3,0-0.5,0.1-0.8,0.1l-61.7-255.7
            C1968.7,1103.3,1970.2,1101.7,1970.9,1099.7z M2335.6,1200l65,300c-3.1,0.7-5.4,3.4-5.6,6.7l-246.3,19.5c-0.4-1.7-1.4-3.2-2.7-4.3
            l185.3-322.4c0.9,0.4,1.8,0.6,2.8,0.6C2334.7,1200.1,2335.1,1200.1,2335.6,1200z M2409.6,1507.1c0-0.6-0.1-1.2-0.3-1.8
            l274.5-124.4c0.1,0.2,0.2,0.4,0.3,0.6l-440.8,323.9c0-0.1-0.1-0.1-0.1-0.2l155.3-191.9c1.1,0.7,2.4,1.1,3.8,1.1
            C2406.3,1514.4,2409.6,1511.2,2409.6,1507.1z M2686.4,1383.5l-239.5,468.9c-0.8-0.3-1.6-0.4-2.4-0.5c-2.1,0-4,0.9-5.3,2.3
            l-194.7-140.8c0.5-1,0.8-2.1,0.8-3.2c0-1.2-0.3-2.3-0.8-3.4l441-324.1C2685.7,1383.1,2686,1383.3,2686.4,1383.5z M2441.5,1865.9
            l-74.8,252.8c-0.4-0.1-0.7-0.1-1.1-0.1c-1.6,0-3,0.5-4.2,1.3l-167.4-184.3c1.1-1.3,1.8-2.9,1.8-4.7c0-0.4-0.1-0.7-0.1-1.1
            l242.1-67.7C2438.4,1863.8,2439.8,1865.2,2441.5,1865.9z M2362.4,2132.5l-78.6,249.6c-0.4-0.1-0.8-0.1-1.2-0.1
            c-1.1,0-2.2,0.3-3.1,0.7l-128.8-202.1c1.6-1.3,2.6-3.3,2.6-5.5c0-0.2,0-0.5-0.1-0.7l205.5-46
            C2359.3,2130.2,2360.7,2131.7,2362.4,2132.5z M1472,2341c0,0.3,0.1,0.6,0.1,0.9l-355.1,63.2c-0.2-0.6-0.4-1.1-0.7-1.6l164.9-131
            c1.3,1.3,3.1,2.1,5,2.1c2.8,0,5.2-1.6,6.4-3.8l179.6,68.6C1472.1,2339.9,1472,2340.5,1472,2341z M1113.1,2400.7l117.2-373.3
            c0.4,0.1,0.8,0.1,1.2,0.1c0.2,0,0.5,0,0.7-0.1l51.6,233c-2.8,1-4.8,3.6-4.8,6.8c0,1.4,0.4,2.7,1.1,3.8l-164.9,131
            C1114.5,2401.5,1113.9,2401.1,1113.1,2400.7z M975.4,1911.2l-118.1-201.7c1.3-1,2.2-2.4,2.6-4l414.3,49.7c0,0.7,0.2,1.5,0.4,2.1
            l-290.8,156.1c-1.3-1.7-3.3-2.8-5.6-2.8C977.1,1910.7,976.2,1910.9,975.4,1911.2z M859.8,1701.9l221-81.8c1.2,2.3,3.6,3.9,6.4,3.9
            c2,0,3.8-0.8,5.1-2.1l182.5,130.2c-0.2,0.4-0.4,0.9-0.5,1.4l-414.3-49.7C860,1703.1,859.9,1702.5,859.8,1701.9z M1501.6,995.4
            l232.2,150.6c-0.4,0.9-0.6,1.8-0.6,2.8c0,1.8,0.6,3.4,1.7,4.6l-156.8,164.4c-1.2-0.9-2.7-1.4-4.3-1.4c-0.3,0-0.7,0.1-1,0.1
            l-74.4-318.9C1499.7,997.2,1500.8,996.4,1501.6,995.4z M1747.8,1148.9c0-0.2,0-0.5-0.1-0.7l209.5-48.3c0.5,1.3,1.3,2.3,2.3,3.2
            l-173.1,293.5c-0.9-0.4-1.9-0.7-3-0.7c-0.3,0-0.6,0-0.8,0.1l-40.3-240C1745.5,1155,1747.8,1152.2,1747.8,1148.9z M1743.7,1142.3
            l72.7-225.5c0.4,0.1,0.8,0.1,1.3,0.1c1.4,0,2.6-0.4,3.7-1L1959,1092c-1.4,1.3-2.2,3.2-2.2,5.2c0,0.3,0,0.5,0.1,0.8l-209.5,48.3
            C1746.7,1144.6,1745.4,1143.1,1743.7,1142.3z M1824.8,911.4l467.7,48.5c0,0.6,0.1,1.2,0.3,1.7l-322,132.6
            c-1.2-2.5-3.6-4.2-6.5-4.2c-1.3,0-2.5,0.4-3.6,1l-137.7-176.1C1823.8,913.9,1824.4,912.7,1824.8,911.4z M2299.8,966.9l32.4,218.9
            c-2.2,0.6-3.9,2.2-4.8,4.3l-356.2-92.3c0-0.2,0.1-0.3,0.1-0.5c0-0.5,0-0.9-0.1-1.4l322.2-132.7c1.3,2.2,3.6,3.7,6.3,3.7
            C2299.7,967,2299.8,966.9,2299.8,966.9z M2340.4,1196.7l343.2,177.6c-0.4,0.9-0.7,1.9-0.7,3c0,0.6,0.1,1.2,0.2,1.8l-274.5,124.4
            c-1.2-2.2-3.5-3.7-6.1-3.7l-65.1-300.5C2338.6,1198.8,2339.6,1197.8,2340.4,1196.7z M2689.3,1384.6l5.4,350.9
            c-3.5,0.5-6.2,3.5-6.3,7.1c0,0.8,0.2,1.5,0.4,2.2l-238.3,110.6c-0.5-0.8-1.2-1.6-2-2.1l239.6-469
            C2688.5,1384.4,2688.9,1384.5,2689.3,1384.6z M2695.3,1749.9l34.2,428c-0.8,0.2-1.5,0.5-2.2,0.8L2449.8,1864
            c1.1-1.3,1.8-2.9,1.8-4.7c0-0.8-0.2-1.5-0.4-2.2l238.3-110.6C2690.8,1748.4,2692.9,1749.7,2695.3,1749.9z M2586.7,2508.7
            c-0.9,0.7-1.6,1.5-2.1,2.5l-295-120.3c0.1-0.5,0.2-1.1,0.2-1.6c0-2.9-1.7-5.5-4.2-6.6l78.6-249.6c0.4,0.1,0.8,0.1,1.3,0.1
            c1.7,0,3.2-0.6,4.4-1.5L2586.7,2508.7z M2115.1,2552c0,0.6,0.1,1.3,0.3,1.9L1777.1,2669c-0.4-0.9-0.9-1.7-1.5-2.3l210.3-265.2
            c1.1,0.7,2.3,1.1,3.7,1.1c1.5,0,2.8-0.4,4-1.2l123.5,145.8C2115.9,2548.4,2115.1,2550.1,2115.1,2552z M1763.1,2671.4l-501.6,40.4
            c-0.1-1.1-0.4-2-0.8-2.9l295.1-208.7c1.3,1.4,3.2,2.4,5.3,2.4c1.9,0,3.6-0.7,4.9-1.9l198.1,167.4
            C1763.6,2669,1763.2,2670.1,1763.1,2671.4z M1252.5,2705.2L1114,2413.4c2-1.3,3.3-3.5,3.4-6.1c0-0.1,0-0.3,0-0.4l355.2-63.3
            c0.4,1,1,1.9,1.8,2.6l-217.7,359c-0.7-0.2-1.5-0.4-2.3-0.4C1253.7,2704.9,1253.1,2705,1252.5,2705.2z M1103.7,2403.8L786,2267
            c0.2-0.6,0.3-1.3,0.3-2c0-1.1-0.3-2.2-0.7-3.1l439.8-237.8c0.8,1.2,1.9,2.2,3.2,2.8l-117.2,373.3c-0.4-0.1-0.8-0.1-1.2-0.1
            C1107.4,2400,1105,2401.5,1103.7,2403.8z M852.6,1711.1c0,0,0.1,0,0.1,0c1,0,2-0.2,2.9-0.6l118.1,201.6c-1.8,1.3-3,3.4-3,5.8
            c0,2.4,1.1,4.5,2.9,5.8l-192.1,334.4c-0.5-0.2-1.1-0.3-1.7-0.4L852.6,1711.1z M785.4,1341.5c0.8-0.2,1.5-0.6,2.2-1.1l293.2,273
            c-0.5,1-0.9,2.1-0.9,3.3c0,0.6,0.1,1.2,0.2,1.7l-221.1,81.8c-1.3-2.2-3.6-3.7-6.3-3.7c-0.4,0-0.8,0.1-1.2,0.1L785.4,1341.5z
             M1023.4,946.2c0.6,0.2,1.3,0.3,2,0.3c1.5,0,2.9-0.4,4-1.2l263.4,308.3c-0.7,0.8-1.2,1.7-1.5,2.7l-356.9-62.7
            c0-2.8-1.6-5.2-3.9-6.4L1023.4,946.2z M1810.9,912.4c0.7,1.7,2,3.1,3.7,3.9l-72.7,225.4c-0.4-0.1-0.9-0.1-1.4-0.1
            c-2.4,0-4.4,1.1-5.8,2.9l-232.1-150.5c0.5-0.9,0.7-2,0.7-3.1c0-0.3,0-0.6-0.1-0.9L1810.9,912.4z M2633,1007.3l55.6,362.9
            c-1.6,0.3-3,1.2-4.1,2.5L2341.1,1195c0.2-0.7,0.4-1.4,0.4-2.1c0-1-0.2-1.9-0.5-2.8l286.4-185.4c1.3,1.6,3.3,2.6,5.5,2.6
            C2632.9,1007.3,2632.9,1007.3,2633,1007.3z M2593,2507.5c-0.6-0.2-1.3-0.3-1.9-0.3c-1,0-2,0.2-2.8,0.6l-217-377.5
            c0.6-0.8,1-1.7,1.3-2.7l351.1,57.1c0,0.1,0,0.1,0,0.2c0,2.7,1.4,5,3.6,6.3L2593,2507.5z M2438.5,2624.8c-1.3-1.5-3.3-2.5-5.4-2.5
            c-3.2,0-5.9,2.1-6.9,5l-296.5-74.5c0-0.2,0-0.3,0.1-0.5l454.4-35.9c0.2,0.7,0.5,1.3,0.8,1.9L2438.5,2624.8z M2425.7,2629.6
            c0,0.3,0.1,0.6,0.1,0.9l-648.1,41.2c0-0.3,0-0.6-0.1-0.9l338.5-115.2c1.2,2.2,3.6,3.7,6.3,3.7c3.1,0,5.7-1.9,6.8-4.6l296.6,74.5
            C2425.7,2629.3,2425.7,2629.4,2425.7,2629.6z M901.1,2590.6c0.1-0.5,0.1-0.9,0.1-1.4c0-1.5-0.4-2.8-1.2-4l204.8-172.7
            c1.3,1.3,3.1,2.1,5.1,2.1c0.8,0,1.6-0.1,2.3-0.4l138.5,291.6c-1.3,0.7-2.4,1.8-3,3.2L901.1,2590.6z M781.9,2271.7
            c1.4-0.6,2.5-1.7,3.3-3l317.8,136.8c-0.1,0.6-0.3,1.2-0.3,1.8c0,1.4,0.4,2.6,1,3.7l-204.9,172.8c-1.3-1.2-3-1.9-4.9-1.9
            c-0.5,0-1.1,0.1-1.6,0.2L781.9,2271.7z" style="fill: rgb(81, 81, 88);"></path>
                    <path fill="#EFEFEF" d="M338.8-793.7l220.3,506c-2.7,1.7-4.1,5-3.2,8.2c0.8,2.8,3.2,4.8,5.9,5.2l33.9,359.9c-0.1,0-0.2,0-0.3,0.1
            c-3.9,1.1-6.1,5.2-5,9c1.1,3.9,5.2,6.1,9,5c1.7-0.5,3.1-1.6,4.1-3.1l164.1,89.6c-0.5,1.4-0.6,3-0.2,4.5c1.1,3.9,5.2,6.1,9,5
            c0.5-0.2,1-0.4,1.5-0.6l155.5,206.3c-1.7,1.8-2.4,4.4-1.7,7c1.1,3.9,5.2,6.1,9,5c3.8-1.1,5.9-4.9,5-8.7l425-173.5
            c1.6,2.9,5.1,4.4,8.4,3.4c2.9-0.9,4.9-3.4,5.2-6.3l317.1-9.9c0,0.3,0.1,0.6,0.2,0.9c1.1,3.9,5.2,6.1,9,5c3.8-1.1,6-5,5-8.8
            l436.4-175c1.6,2.9,5.1,4.4,8.4,3.5c3.8-1.1,5.9-4.9,5-8.7l296-124.9c1.6,2.8,5,4.3,8.3,3.3c3.9-1.1,6.1-5.2,5-9
            c-0.9-3.2-3.8-5.2-7-5.2l-46.2-364.4c3.7-1.2,5.7-5.1,4.7-8.9c-1-3.5-4.5-5.6-8-5.2L2327.1-818c3.4-1.4,5.3-5.1,4.2-8.7
            c-1-3.4-4.2-5.5-7.6-5.2l-84.7-421c3.6-1.3,5.7-5.1,4.6-8.9c-1.1-3.9-5.2-6.1-9-5c-0.6,0.2-1.2,0.5-1.8,0.8L2017-1533.2
            c1.7-1.8,2.5-4.5,1.8-7c-1.1-3.9-5.2-6.1-9-5c-1.9,0.5-3.3,1.8-4.2,3.3l-170.2-62.3c0.2-1.1,0.2-2.2-0.1-3.3c-1.1-3.9-5.2-6.1-9-5
            c-3,0.9-4.9,3.4-5.2,6.3l-635.2,138.5c-1.6-2.8-5-4.3-8.3-3.3c-3.4,1-5.5,4.2-5.2,7.5l-493.6,98.9c-1.6-3.1-5.1-4.7-8.5-3.7
            c-3.9,1.1-6.1,5.2-5,9c0.1,0.5,0.3,0.9,0.5,1.3l-300.8,209c-1.8-2-4.6-2.9-7.4-2.1c-3.9,1.1-6.1,5.2-5,9c0.8,2.7,3,4.6,5.6,5.1
            l-21.1,329c-0.4,0-0.8,0.1-1.2,0.2c-3.9,1.1-6.1,5.2-5,9C331.8-795.3,335.2-793.2,338.8-793.7z M2004.7-1536.4c0,0.1,0,0.1,0,0.2
            c0.1,0.5,0.3,1,0.6,1.4l-250.6,196.6c-1.8-1.9-4.6-2.8-7.3-2c-1.6,0.5-2.9,1.4-3.8,2.6l-186.1-105.4c0.4-1,0.6-2.1,0.6-3.3
            L2004.7-1536.4z M2230.6-1255.9c0.7,1.1,1.6,1.9,2.6,2.5l-180.3,378.6c-1.3-0.4-2.8-0.5-4.3-0.1c-0.4,0.1-0.7,0.3-1,0.4
            L1906.2-1097c2.1-1.8,3.1-4.7,2.4-7.5L2230.6-1255.9z M2460.7-91.5L2164.8,33.4c-1.3-2.4-3.8-3.8-6.4-3.8l-28.9-219.4
            c0.1,0,0.1,0,0.2,0c2.3-0.7,4-2.4,4.8-4.4l326.2,99.6C2460.4-93.6,2460.4-92.6,2460.7-91.5z M942.6,400.2l168.7-368.8
            c1.3,0.4,2.8,0.5,4.2,0c1.2-0.4,2.3-1,3.1-1.9l252.6,194c-1.1,1.7-1.5,3.7-1,5.8l-425,173.5C944.6,401.8,943.6,400.9,942.6,400.2z
             M780.7,185c-0.6-0.9-1.3-1.7-2.2-2.3l192.9-379.6c1.4,0.5,2.9,0.6,4.5,0.2c0.3-0.1,0.6-0.2,0.9-0.4l132.1,215.9
            c-2.2,1.8-3.3,4.8-2.4,7.7c0,0.1,0.1,0.2,0.1,0.3L780.7,185z M601.6,86.8l206.8-342.7c0.7,0.4,1.5,0.7,2.3,0.9l-36.5,436.4
            c-0.6,0-1.1,0.1-1.7,0.3c-1.7,0.5-3,1.5-3.9,2.9L604.3,94.9c0.4-1.4,0.5-2.8,0.1-4.3C603.9,89,602.9,87.7,601.6,86.8z
             M344.4-797.9l488.5,108c0,0.7,0.1,1.4,0.3,2.1c0.1,0.5,0.3,0.9,0.5,1.3L629.5-527c-1.8-1.8-4.5-2.6-7.1-1.8
            c-0.9,0.3-1.8,0.7-2.5,1.3L343.4-796.3C343.9-796.8,344.2-797.3,344.4-797.9z M678.6-1358.1l341.1,119.7c-0.2,1.1-0.3,2.3,0.1,3.5
            c0.7,2.3,2.4,4.1,4.6,4.8l-33.4,156.6c-0.9-0.1-1.7,0-2.6,0.2c-1.2,0.3-2.2,1-3,1.8l-307.7-285.2
            C678-1357.1,678.3-1357.6,678.6-1358.1z M1176-1457.7c1.4,0.8,3.1,1,4.8,0.7l108.3,322.6c-1.8,0.9-3.1,2.4-3.7,4.3L1033.7-1235
            c0.3-1.3,0.4-2.6,0-3.9c-0.4-1.4-1.2-2.6-2.2-3.4L1176-1457.7z M1459.8-1261.9c-0.9,1.6-1.1,3.6-0.6,5.5c0.2,0.6,0.4,1.1,0.7,1.6
            l-162.4,121.9c-1.7-1.7-4.1-2.5-6.6-2l-108.3-322.6c0.8-0.4,1.5-0.9,2.1-1.6L1459.8-1261.9z M1548.7-1438.7c1.3,0.4,2.7,0.4,4.2,0
            c1.6-0.5,2.9-1.4,3.8-2.6l186.1,105.4c-0.5,1.1-0.6,2.4-0.5,3.7l-269.4,71.1c-0.6-1.5-1.6-2.7-2.9-3.4L1548.7-1438.7z M1566.8,1.5
            c-1.5,0.4-2.8,1.4-3.7,2.5l-195.9-115c0.6-1.5,0.8-3.2,0.3-4.9c-0.2-0.6-0.4-1.1-0.7-1.5l168-125.6c1.2,1.4,3,2.3,4.9,2.5
            L1566.8,1.5C1566.8,1.5,1566.8,1.5,1566.8,1.5z M1375.1,220.6c-1.1,0.3-2,0.9-2.8,1.6L1119.7,28.1c1-1.7,1.3-3.7,0.7-5.7
            c-0.1-0.2-0.2-0.4-0.3-0.7l235-130.8c1.2,1.3,2.8,2.2,4.6,2.4l16,327.1C1375.6,220.5,1375.3,220.5,1375.1,220.6z M776.8,181.8
            c-0.3-0.1-0.6-0.2-0.9-0.2l36.5-436.4c0.6,0,1.1-0.1,1.7-0.3c2-0.6,3.6-2,4.4-3.7l148.1,53.5c-0.3,1.2-0.3,2.4,0.1,3.6
            c0.5,1.7,1.6,3,2.9,4L776.8,181.8z M630.7-525.5L834.8-685c1.8,2,4.7,3,7.4,2.2c0.4-0.1,0.8-0.3,1.2-0.5l113.4,228.7
            c-1.4,0.9-2.4,2.3-2.9,3.9l-322.3-70.2c0.1-1,0.1-2-0.2-3C631.3-524.5,631-525,630.7-525.5z M1028.8-1229.9
            c1.9-0.5,3.4-1.8,4.3-3.4l252,105c0,0.3,0,0.6,0,1l-287.8,58.7c-0.7-2.2-2.4-3.8-4.5-4.5l33.4-156.6
            C1027-1229.6,1027.9-1229.7,1028.8-1229.9z M1742.8-1330.4c0.7,1.8,2.1,3.2,3.8,3.9l-68.4,229.7c-1-0.2-2.1-0.1-3.2,0.2
            c-1.3,0.4-2.4,1.1-3.3,2L1472-1254.1c1.1-1.5,1.6-3.4,1.4-5.3L1742.8-1330.4z M2099.6-517.2l-242.1,48.9c-0.7-2.2-2.4-3.8-4.5-4.5
            l39.5-187.8c0.9,0.1,1.7,0,2.6-0.3c1.3-0.4,2.5-1.1,3.3-2.1l202,141.9C2099.8-519.9,2099.5-518.6,2099.6-517.2z M2120.8-199.5
            l-327.1-80.3c0.1-0.9,0-1.9-0.2-2.9c-0.6-2-2-3.6-3.8-4.5l59.4-171.8c1.1,0.2,2.3,0.2,3.5-0.1c0.9-0.3,1.8-0.7,2.5-1.3
            l266.7,259.1C2121.4-200.7,2121.1-200.1,2120.8-199.5z M1547.3-250c-0.2-0.5-0.4-1-0.6-1.5l298.5-209.7c0.6,0.7,1.3,1.2,2.2,1.6
            L1788-287.7c-1.1-0.2-2.3-0.2-3.5,0.1c-3.2,0.9-5.2,3.9-5.2,7L1547.3-250z M974-211l-12.7-230.3c0.5,0,1.1-0.1,1.6-0.3
            c2-0.6,3.6-2,4.4-3.7l290.2,104c-0.3,1.2-0.3,2.4,0.1,3.6c0,0.1,0.1,0.1,0.1,0.2L980-207.6C978.7-209.7,976.5-210.9,974-211z
             M846.5-693.5l271.3-206.7c1.4,1.5,3.5,2.4,5.6,2.3l58.4,247.8c-2.3,0.7-4,2.5-4.7,4.6l-329.7-44c0-0.8,0-1.6-0.2-2.4
            C847-692.4,846.8-693,846.5-693.5z M997.6-1066.8l287.8-58.7c0.3,1,0.9,1.9,1.6,2.6l-160.3,211.5c-1.7-0.9-3.7-1.3-5.7-0.7
            c-0.7,0.2-1.3,0.5-1.8,0.8l-123.6-150C997-1062.8,997.8-1064.7,997.6-1066.8z M1468.2-1251.4c0.9-0.3,1.8-0.7,2.5-1.3l199.9,159.6
            c-0.9,1.6-1.2,3.6-0.6,5.5c0.2,0.8,0.6,1.4,1,2l-162.9,143.7c-1.5-1.3-3.4-2-5.5-1.8l-34.5-307.8
            C1468.1-1251.4,1468.2-1251.4,1468.2-1251.4z M1540.2-255.1l-43.2-282.6c0,0,0,0,0,0c2.3-0.7,4-2.4,4.8-4.5l341.6,75.6
            c-0.1,0.9,0,1.7,0.2,2.6c0.1,0.5,0.3,0.9,0.5,1.3l-298.6,209.8C1544.1-254.3,1542.2-255.2,1540.2-255.1z M966.9-452.6l212-185.5
            c1.6,1.6,3.8,2.4,6.1,2.1l76.9,289.6c-1.7,0.7-3,1.9-3.7,3.4L967.9-447c0.3-1.2,0.3-2.4-0.1-3.6
            C967.6-451.3,967.3-452,966.9-452.6z M1781.2-860.2l-78.7,189.8c-1.3-0.3-2.6-0.4-3.9,0c-0.5,0.1-1,0.4-1.4,0.6l-189.2-261
            c1-0.8,1.7-1.8,2.1-3l267.5,67.1c0,0.7,0,1.4,0.3,2.2C1778.3-862.6,1779.6-861.1,1781.2-860.2z M1843.7-468.4L1502.1-544
            c0.1-0.9,0-1.8-0.2-2.7c-0.1-0.3-0.2-0.5-0.3-0.8L1694.8-659c1.8,2.3,4.8,3.4,7.8,2.6c0.6-0.2,1.1-0.4,1.6-0.7l141.2,186
            C1844.6-470.3,1844.1-469.4,1843.7-468.4z M1263.7-346.8l-76.9-289.6c3.4-1.4,5.3-5.1,4.3-8.7c-0.2-0.8-0.6-1.5-1-2.1l159.2-129.6
            c0.7,0.7,1.6,1.3,2.6,1.7l-86.3,428.3C1264.9-346.9,1264.3-346.9,1263.7-346.8z M1361.4-783.9c-0.3-0.9-0.7-1.8-1.3-2.5
            L1499-930.6c0.9,0.7,2.1,1.2,3.2,1.4l-8.2,377.3c-0.4,0-0.8,0.1-1.1,0.2c-0.3,0.1-0.5,0.2-0.7,0.3l-133.3-224.8
            C1361.1-778,1362.2-781,1361.4-783.9z M1693.5-661.4c0.1,0.3,0.2,0.5,0.3,0.8l-193.2,111.5c-1.2-1.5-2.9-2.6-4.8-2.8l8.2-377.3
            c0.4,0,0.8-0.1,1.3-0.2c0.3-0.1,0.7-0.3,1-0.4l189.3,261.1C1693.6-666.9,1692.8-664.1,1693.5-661.4z M1497.6-931.8l-138.9,144.1
            c-1.8-1.3-4.1-1.8-6.4-1.2c-1.8,0.5-3.2,1.7-4.1,3.1l-218.5-116.5c0.3-0.8,0.5-1.6,0.6-2.5l365.9-29.9c0,0.1,0,0.3,0.1,0.4
            C1496.6-933.4,1497-932.6,1497.6-931.8z M1125.3-898.2c1.5-0.5,2.7-1.4,3.6-2.5l218.6,116.6c-0.4,1.3-0.5,2.8-0.1,4.3
            c0.2,0.6,0.4,1.1,0.7,1.6l-159.3,129.6c-1.4-1.2-3.2-1.8-5.1-1.8L1125.3-898.2z M1267.3-346.4l86.3-428.3c0.9,0.1,1.9,0,2.8-0.2
            c0.3-0.1,0.6-0.2,0.8-0.3l133.3,224.8c-2.3,1.8-3.5,4.8-2.6,7.8c0.2,0.8,0.6,1.4,1,2.1l-219.5,195.5
            C1268.8-345.6,1268.1-346.1,1267.3-346.4z M1848.5-473c-0.6,0.2-1.2,0.5-1.7,0.8l-141.2-186c1.2-1.2,2-2.7,2.2-4.4l178.1-4.2
            c0,0.3,0.1,0.6,0.2,0.9c0.7,2.4,2.5,4.1,4.6,4.8l-39.5,187.8C1850.3-473.3,1849.4-473.3,1848.5-473z M1885.8-668.7l-178.1,4.2
            c0-0.3-0.1-0.6-0.2-0.9c-0.5-1.9-1.8-3.4-3.4-4.3l78.7-189.8c1.2,0.3,2.6,0.4,3.9,0c0.2-0.1,0.4-0.2,0.6-0.2l101.4,185.9
            C1887.1-672.6,1886-670.7,1885.8-668.7z M1777.8-868.5l-267.3-67c0.1-0.9,0-1.9-0.2-2.9c-0.2-0.8-0.6-1.4-1-2l162.9-143.7
            c1.8,1.6,4.3,2.2,6.8,1.5c0.1,0,0.2-0.1,0.3-0.1l101.4,210.2C1779.3-871.5,1778.3-870.1,1777.8-868.5z M1496-936.6l-365.8,29.9
            c0-0.2,0-0.3-0.1-0.5c-0.4-1.2-1-2.3-1.9-3.1l160.3-211.4c1.7,1.1,3.8,1.5,5.9,0.8c0.9-0.3,1.7-0.7,2.3-1.2L1497-940
            C1496.4-939,1496.1-937.8,1496-936.6z M847.1-687.6l329.7,44c-0.1,0.8,0,1.7,0.2,2.5c0.2,0.6,0.4,1.1,0.7,1.6L965.7-454
            c-1.8-1.6-4.4-2.3-6.8-1.6c-0.1,0-0.2,0.1-0.3,0.1L845-684.3C846-685.2,846.7-686.3,847.1-687.6z M980.8-206l277.8-129.8
            c1.7,2.6,4.9,4,8.1,3.1l90,212.7c-1.3,0.9-2.3,2.1-2.9,3.6L981.1-203c0.1-0.9,0-1.8-0.2-2.8C980.8-205.8,980.8-205.9,980.8-206z
             M1358.5-120.9c-0.1,0-0.2,0.1-0.3,0.1l-89.9-212.6c1.3-0.7,2.3-1.8,2.9-3.1l262.1,87c-0.3,1.2-0.3,2.4,0.1,3.6
            c0.1,0.4,0.3,0.8,0.5,1.2l-168.1,125.7C1363.9-120.8,1361.2-121.6,1358.5-120.9z M1271.8-338.2c0.2-1.1,0.2-2.3-0.1-3.4
            c-0.2-0.8-0.6-1.4-1-2.1l219.5-195.5c1.4,1.2,3.1,1.8,4.9,1.8l43.3,282.6c-2,0.6-3.5,1.9-4.4,3.6L1271.8-338.2z M1891-674.9
            c-0.2,0.1-0.4,0.2-0.6,0.2L1789-860.6c1.6-1.2,2.7-3,3-5l251.4-1.3c0,0.4,0.1,0.7,0.2,1.1c0.4,1.2,1,2.2,1.8,3l-148.5,188.8
            C1895.2-675.1,1893.1-675.5,1891-674.9z M1787.1-873.4c-1.4-0.5-2.9-0.6-4.4-0.1c-0.1,0-0.3,0.1-0.4,0.2l-101.4-210.2
            c1.9-1.3,3.1-3.3,3.3-5.6l210.2-12.2c0,0.2,0.1,0.5,0.1,0.7c0.5,1.7,1.6,3.1,3,4L1787.1-873.4z M1466.3-1251.2l34.5,308
            c-1,0.4-1.9,1-2.7,1.7L1298-1123.4c1.4-1.8,2-4.2,1.3-6.5c-0.2-0.6-0.4-1.1-0.7-1.5l162.4-121.9
            C1462.4-1251.9,1464.3-1251.1,1466.3-1251.2z M992.4-1059.3c0.7-0.2,1.3-0.5,1.8-0.9l123.6,150c-0.8,0.9-1.4,2-1.7,3.2
            l-283.9-35.5c0-0.7-0.1-1.3-0.3-2c-0.2-0.6-0.4-1.1-0.7-1.6l153.9-115.2C987-1059.3,989.7-1058.5,992.4-1059.3z M827-935.4
            c2.6-0.7,4.4-2.8,5-5.2l283.9,35.5c0,0.7,0.1,1.3,0.3,2c0.2,0.5,0.4,1,0.6,1.5L845.4-694.9c-1.2-1.3-2.9-2-4.7-2.2l-14.4-238.2
            C826.5-935.3,826.8-935.3,827-935.4z M959.4-441.4l12.8,230.6c-0.1,0-0.3,0-0.4,0.1c-2,0.6-3.6,2-4.4,3.7l-148.1-53.5
            c0.3-1.2,0.3-2.4-0.1-3.6c-0.4-1.3-1.1-2.4-2-3.2l139.6-175.2C957.6-442,958.5-441.6,959.4-441.4z M980.6-201.2l372.7,86.7
            c-0.1,0.9,0,1.8,0.2,2.7c0.1,0.5,0.3,0.9,0.5,1.3L1119.3,20.2c-1.8-2.4-4.9-3.6-7.9-2.7c-0.3,0.1-0.6,0.2-0.9,0.4L978.4-198.1
            C979.4-198.9,980.2-200,980.6-201.2z M1547.6-248.1l231.8-30.6c0,0.1,0,0.1,0,0.2c0.9,3,3.5,4.9,6.4,5.2l10.9,262.9
            c-0.3,0-0.5,0.1-0.8,0.2c-1,0.3-1.8,0.7-2.6,1.3l-247-234.7C1547.2-245,1547.7-246.5,1547.6-248.1z M1798.6-10.6l-10.9-262.9
            c0.3-0.1,0.5-0.1,0.8-0.2c2.3-0.7,3.9-2.3,4.7-4.4l327.1,80.3c-0.1,0.9,0,1.9,0.2,2.9c0.1,0.3,0.2,0.5,0.3,0.8L1803.9-7.5
            C1802.6-9.3,1800.7-10.4,1798.6-10.6z M2125.6-203.8c-0.9,0.3-1.8,0.7-2.5,1.3l-266.7-259.1c1-1.4,1.6-3.1,1.4-4.9l242.2-48.8
            c1.1,3.1,4,5.1,7.2,4.9l19.8,306.4C2126.5-204.1,2126-204,2125.6-203.8z M2104.8-524.7c-1.3,0.4-2.5,1.1-3.3,2.1l-202-141.9
            c0-0.1,0.1-0.1,0.1-0.2l512.8,190.5c-0.1,0.2-0.1,0.4-0.1,0.6l-298.1-44.3c0-0.6-0.1-1.2-0.3-1.8
            C2112.7-523.6,2108.7-525.8,2104.8-524.7z M2413.2-475.9l-513-190.6c0.2-1.1,0.2-2.3-0.1-3.5c-0.3-1.1-0.9-2.1-1.7-2.9
            l148.6-188.8c1.7,1,3.7,1.3,5.8,0.8c0.8-0.2,1.5-0.6,2.2-1.1l359,385.1C2413.6-476.6,2413.4-476.3,2413.2-475.9z M2043.4-868.8
            l-251.4,1.3c0-0.4-0.1-0.7-0.2-1.1c-0.5-1.7-1.6-3.1-3-4l110.4-223.2c1.4,0.5,2.9,0.6,4.4,0.1c0.4-0.1,0.7-0.3,1-0.4L2046-873.5
            C2044.5-872.3,2043.6-870.6,2043.4-868.8z M1894.3-1103.1l-210.2,12.2c0-0.2-0.1-0.5-0.1-0.7c-0.6-2.1-2.2-3.8-4.1-4.6l68.4-229.7
            c1,0.2,2.1,0.1,3.2-0.2c0.4-0.1,0.8-0.3,1.2-0.5l144.1,218.5C1895.3-1106.9,1894.4-1105.1,1894.3-1103.1z M984-1062.7L830.2-947.4
            c-1.8-1.9-4.6-2.7-7.2-1.9c-1.9,0.5-3.4,1.8-4.3,3.4l-194.6-80.7c0.1-0.5,0.2-1.1,0.2-1.7l358.9-36.7c0.1,0.3,0.1,0.6,0.2,0.9
            C983.5-1063.7,983.8-1063.2,984-1062.7z M623.4-1025L818-944.3c-0.3,1.3-0.4,2.6,0,3.9c0.9,3,3.5,5,6.5,5.2l14.4,238.2
            c-0.2,0-0.4,0.1-0.7,0.1c-0.4,0.1-0.8,0.3-1.2,0.5l-215.2-326.7C622.5-1023.6,623-1024.3,623.4-1025z M626.5-514.8
            c2.2-0.6,3.8-2.3,4.7-4.2l322.5,70.2c0,0.7,0,1.4,0.2,2.2L569.1-285.1c-0.8-1.4-2.1-2.5-3.6-3.1l58.2-226.4
            C624.6-514.5,625.6-514.6,626.5-514.8z M569.8-283.4l384.7-161.5c0.2,0.4,0.5,0.8,0.8,1.2L815.6-268.5c-1.6-0.9-3.6-1.2-5.5-0.6
            c-2.7,0.8-4.5,3-5.1,5.5l-235-18C570.1-282.2,570-282.8,569.8-283.4z M1377.6,220.3l-16-327c0.3,0,0.6-0.1,1-0.2
            c1.5-0.4,2.8-1.4,3.7-2.5l195.9,115c-0.7,1.5-0.8,3.2-0.3,4.9c0.3,1,0.7,1.8,1.3,2.5l-181.9,208.5
            C1380.1,220.8,1378.9,220.4,1377.6,220.3z M1568.7,1.2l-27.1-241.9c0.3,0,0.6-0.1,0.8-0.2c1-0.3,1.9-0.8,2.7-1.4l247,234.7
            c-0.8,1.1-1.3,2.3-1.4,3.7L1575.9,7.2c0-0.2-0.1-0.5-0.1-0.7C1574.9,3.2,1571.9,1.1,1568.7,1.2z M1576.1,9l214.7-11.1
            c0,0.3,0.1,0.5,0.1,0.8c0.6,2,1.9,3.5,3.6,4.4l-84,207.1c-1.2-0.3-2.6-0.4-3.9,0c-0.4,0.1-0.8,0.3-1.2,0.5L1573.7,13.9
            C1575,12.6,1575.9,10.9,1576.1,9z M1712.2,210.9l84-207.2c1.2,0.3,2.4,0.3,3.7-0.1c2.8-0.8,4.7-3.1,5.1-5.8L2151.2,37
            c0,0.6,0.1,1.1,0.2,1.7l-436.4,175C1714.3,212.5,1713.4,211.5,1712.2,210.9z M2156.4,29.9c-2.6,0.7-4.4,2.8-5,5.3L1805.2-4
            c0-0.5-0.1-0.9-0.2-1.4c-0.1-0.2-0.1-0.3-0.2-0.5l317.1-186.5c1.4,1.8,3.5,2.8,5.8,2.8l28.9,219.4
            C2156.5,29.8,2156.5,29.8,2156.4,29.9z M2128.9-204L2109-510.8c2.5-0.8,4.3-2.9,4.9-5.3l298.1,44.3c0,0.6,0.1,1.2,0.3,1.8
            c0.3,1,0.8,2,1.5,2.7l-281.3,265C2131.5-203.1,2130.2-203.8,2128.9-204z M2415.3-478.1l-359.1-385.2c0.6-0.8,1.1-1.7,1.4-2.6
            l259.5,40.9c0,0.7,0,1.5,0.2,2.2c1,3.5,4.5,5.6,8,5.2l91.1,338.9C2416.1-478.5,2415.7-478.3,2415.3-478.1z M2317.4-826.8
            l-259.5-40.9c0-0.7,0-1.5-0.3-2.2c-0.5-1.8-1.6-3.1-3.1-4.1l180.4-378.8c0.7,0.2,1.5,0.3,2.3,0.2l84.7,421
            C2319.7-830.8,2318-829,2317.4-826.8z M1904.2-1109.4c-1.4-0.6-3.1-0.7-4.7-0.2c-0.4,0.1-0.8,0.3-1.2,0.5l-144.1-218.5
            c2.1-1.8,3.1-4.7,2.2-7.5c-0.2-0.5-0.4-1-0.6-1.5l250.6-196.6c0.7,0.8,1.7,1.4,2.7,1.8L1904.2-1109.4z M1547-1439.4l-78.7,174.1
            c-1.3-0.4-2.7-0.5-4.2,0c-1.3,0.4-2.4,1.1-3.3,2l-275-197.3c0.4-0.8,0.7-1.7,0.8-2.6l356.9,17.8c0,0.6,0.1,1.3,0.3,1.9
            C1544.4-1441.8,1545.5-1440.4,1547-1439.4z M1174.5-1458.8L1030-1243.4c-1.6-0.8-3.4-1-5.3-0.5c-2,0.6-3.6,2-4.5,3.7l-341.1-119.7
            c0.2-1,0.2-2,0-3l493.4-98.9C1173-1460.6,1173.7-1459.6,1174.5-1458.8z M674.1-1354.4c0.8-0.2,1.5-0.6,2.1-1L984.1-1070
            c-0.5,0.9-0.9,1.9-1,3l-359,36.7c0-0.1,0-0.3-0.1-0.4c-0.7-2.5-2.6-4.2-4.9-4.9l53.1-318.6
            C672.9-1354.1,673.5-1354.2,674.1-1354.4z M619.1-1021.6c0.4-0.1,0.8-0.3,1.2-0.5l215.2,326.7c-1.1,0.9-1.9,2.2-2.3,3.6L345-799.7
            c0.2-1,0.1-2.1-0.2-3.2c-0.2-0.7-0.5-1.2-0.8-1.8l268-218.8C613.8-1021.6,616.5-1020.8,619.1-1021.6z M340.6-794.2
            c0.5-0.2,1.1-0.5,1.5-0.8l276.6,268.8c-1.3,1.8-1.9,4.1-1.2,6.4c0.7,2.3,2.4,4,4.5,4.8l-58.2,226.3c-1-0.1-1.9-0.1-2.9,0.2
            c0,0-0.1,0-0.1,0L340.6-794.2z M563.6-274.3c0.4,0,0.8-0.1,1.2-0.2c2.6-0.7,4.4-2.8,5-5.2l235,18c0,0.6,0.1,1.1,0.3,1.7
            c0.3,1.2,1,2.2,1.8,3l-207,343c-0.8-0.3-1.6-0.4-2.4-0.5L563.6-274.3z M779.4,193.9c1.9-1.8,2.8-4.6,2-7.2l326-158.3
            c0.6,0.9,1.3,1.6,2.2,2.2L940.9,399.4c-1.3-0.4-2.8-0.5-4.2,0c-0.7,0.2-1.3,0.5-1.8,0.9L779.4,193.9z M1384.3,226.4
            c0-0.3-0.1-0.6-0.2-0.9c-0.3-1.1-0.9-2-1.6-2.8l181.9-208.5c1.8,1.3,4.1,1.8,6.3,1.2c0.5-0.1,0.9-0.3,1.3-0.5l131.8,196.8
            c-1.4,1.2-2.3,2.9-2.5,4.8L1384.3,226.4z M2465.7-100.4c-2.1,0.6-3.7,2.1-4.6,4l-326.3-99.6c0.1-0.9,0-1.9-0.2-2.8
            c-0.2-0.7-0.5-1.3-0.9-1.9L2415.2-466c1.3,0.9,2.9,1.4,4.6,1.3l46.1,364.3C2465.8-100.5,2465.7-100.5,2465.7-100.4z
             M2231.5-1264.8c-1.7,1.8-2.5,4.5-1.8,7c0,0.1,0.1,0.1,0.1,0.2l-322,151.4c-0.5-0.9-1.2-1.6-2-2.2l105-422.5
            c0.9,0.1,1.9,0,2.9-0.2c0.6-0.2,1.2-0.5,1.8-0.8L2231.5-1264.8z M2004.8-1540.2c-0.2,0.6-0.3,1.3-0.3,2l-446.8,90.3
            c-0.1-0.2-0.1-0.3-0.2-0.5l264.7-153c1.7,2.5,4.9,3.8,8,2.9c2.1-0.6,3.7-2.1,4.5-3.9L2004.8-1540.2z M1821.3-1603.1l-264.8,153
            c-1.8-2.3-4.8-3.4-7.8-2.6c-2.6,0.8-4.4,2.8-5,5.3l-357.1-17.9c0-0.3-0.1-0.6-0.2-0.9l634.5-138.3c0,0.3,0.1,0.6,0.2,0.9
            C1821.2-1603.3,1821.3-1603.2,1821.3-1603.1z M666.7-1356.5c1,1.1,2.3,1.9,3.8,2.2l-53.1,318.5c-0.8,0-1.5,0-2.3,0.3
            c-1.9,0.5-3.4,1.8-4.3,3.4L366.4-1142c0.4-1.3,0.4-2.7,0-4.1c-0.1-0.5-0.3-0.9-0.5-1.3L666.7-1356.5z M359.9-1136.9
            c0.5,0,1-0.1,1.6-0.3c1.8-0.5,3.2-1.7,4.2-3.2l244.5,109.9c-0.3,1.2-0.4,2.6,0,3.9c0.2,0.6,0.4,1.1,0.8,1.7L342.8-806.1
            c-1.1-1-2.5-1.7-4-1.9L359.9-1136.9z" style="fill: rgb(81, 81, 88);"></path>
                    <path fill="#EFEFEF" d="M-837.5,1314.3l492.3-249.4c1.8,2.6,5.2,3.8,8.4,2.7c2.8-1,4.6-3.5,4.8-6.2l357.3-54.8
            c0,0.1,0,0.2,0.1,0.3c1.3,3.8,5.5,5.8,9.3,4.4c3.8-1.3,5.8-5.5,4.4-9.3c-0.6-1.7-1.8-3-3.3-3.9l79.9-169.1c1.4,0.4,3,0.4,4.5-0.1
            c3.8-1.3,5.8-5.5,4.4-9.3c-0.2-0.5-0.4-1-0.7-1.4L320.9,651c1.9,1.6,4.6,2.2,7.1,1.3c3.8-1.3,5.8-5.5,4.4-9.3
            c-1.3-3.7-5.3-5.6-9-4.5l-198-414.2c2.8-1.8,4.1-5.3,3-8.6c-1-2.9-3.7-4.7-6.6-4.8l-28.4-316c0.3-0.1,0.6-0.1,0.9-0.2
            c3.8-1.3,5.8-5.5,4.4-9.3c-1.3-3.7-5.4-5.7-9.1-4.5l-200.2-425.4c2.8-1.8,4.1-5.3,3-8.6c-1.3-3.7-5.3-5.6-9-4.5l-142-288.2
            c2.7-1.8,4-5.3,2.8-8.5c-1.3-3.8-5.5-5.8-9.3-4.4c-3.1,1.1-5,4.1-4.8,7.3l-361.1,67.3c-1.5-3.6-5.5-5.4-9.2-4.1
            c-3.5,1.2-5.4,4.8-4.7,8.3l-333,110.7c-1.6-3.3-5.4-5-9-3.7c-3.3,1.2-5.3,4.5-4.8,7.9L-1406.8-556c-1.5-3.5-5.5-5.4-9.1-4.1
            c-3.8,1.3-5.8,5.5-4.4,9.3c0.2,0.6,0.5,1.2,0.9,1.7l-254.2,231.1c-1.9-1.6-4.6-2.2-7.1-1.3c-3.8,1.3-5.8,5.5-4.4,9.3
            c0.6,1.8,1.9,3.2,3.5,4l-52.2,173.5c-1.1-0.1-2.2-0.1-3.3,0.3c-3.8,1.3-5.8,5.5-4.4,9.3c1,2.9,3.7,4.7,6.6,4.8l175.2,626
            c-2.7,1.8-4,5.3-2.9,8.5c1.2,3.3,4.5,5.2,7.8,4.8l127.5,487c-3,1.7-4.4,5.4-3.2,8.7c1.3,3.8,5.5,5.8,9.3,4.4
            c0.5-0.2,0.9-0.4,1.3-0.6l226.2,288.1c-1.9,1.9-2.7,4.8-1.7,7.5c1.3,3.8,5.5,5.8,9.3,4.4c2.7-0.9,4.4-3.3,4.7-5.9l329.6,1.9
            c0.1,0.4,0.1,0.8,0.3,1.1c1.3,3.8,5.5,5.8,9.3,4.4C-838.7,1321.4-836.8,1317.8-837.5,1314.3z M-1676.1-305.5c0.1,0,0.1,0,0.2,0
            c0.5-0.2,1-0.4,1.4-0.7l210.9,238.7c-1.8,1.9-2.5,4.7-1.6,7.4c0.5,1.6,1.6,2.8,2.9,3.6l-94.4,192c-1-0.4-2.2-0.5-3.3-0.4
            L-1676.1-305.5z M-1409.3-547.3c1-0.7,1.8-1.7,2.3-2.8l388.5,158c-0.4,1.4-0.3,2.9,0.2,4.3c0.1,0.4,0.3,0.7,0.5,1l-214,154.1
            c-1.9-2-4.8-2.9-7.6-1.9L-1409.3-547.3z M-260.2-844.9l141.9,288.1c-2.3,1.4-3.6,4-3.4,6.6l-217.4,41.7c0-0.1,0-0.1,0-0.2
            c-0.8-2.2-2.6-3.8-4.7-4.5l80.4-331.4C-262.3-844.5-261.3-844.6-260.2-844.9z M319.1,641.9L-58.8,495c0.3-1.3,0.3-2.8-0.2-4.2
            c-0.4-1.2-1.2-2.2-2.1-3l179-263.4c1.7,1,3.8,1.3,5.9,0.6l198,414.1C320.6,639.9,319.7,640.8,319.1,641.9z M113.8,816.1
            c-0.9,0.6-1.6,1.4-2.2,2.3L-278.6,648c0.4-1.4,0.4-3-0.1-4.5c-0.1-0.3-0.3-0.6-0.4-0.9l207.9-144.4c1.9,2.1,5,3,7.8,2
            c0.1,0,0.2-0.1,0.3-0.1L113.8,816.1z M26.1,1000.6L-328,814.2c0.4-0.7,0.6-1.5,0.8-2.3l437.8,11c0.1,0.6,0.2,1.1,0.4,1.7
            c0.6,1.6,1.7,2.9,3.1,3.8L34.1,997.4c-1.4-0.4-2.9-0.3-4.3,0.2C28.2,998.2,27,999.3,26.1,1000.6z M-842,1308.9l79.4-494
            c0.7,0,1.4-0.1,2.1-0.4c0.4-0.2,0.9-0.4,1.2-0.6l171.2,194.5c-1.7,1.9-2.3,4.6-1.4,7.2c0.3,0.9,0.8,1.7,1.4,2.4l-252.2,291.7
            C-840.9,1309.4-841.4,1309.2-842,1308.9z M-1420.8,1008l99.6-347.5c1.2,0.2,2.4,0.1,3.5-0.3c2.3-0.8,3.9-2.7,4.5-4.9l158.2,24.2
            c0,0.9,0.1,1.7,0.4,2.6c0.4,1.2,1.1,2.2,2,2.9l-266.8,323.8C-1419.7,1008.5-1420.2,1008.2-1420.8,1008z M-1549.2,517.2
            c0.7-1.5,0.8-3.2,0.4-4.9l315.7-126.9c1,1.8,2.6,3,4.5,3.5l-90,257.3c-1.3-0.3-2.6-0.2-3.9,0.2c-1.4,0.5-2.5,1.3-3.3,2.4
            L-1549.2,517.2z M-1370.2,222.5c1.7,0.8,3.6,0.9,5.5,0.3c0.5-0.2,1-0.5,1.5-0.8l131.2,155c-1.6,1.8-2.3,4.3-1.7,6.7l-315.8,126.9
            c-0.4-0.8-1-1.5-1.7-2L-1370.2,222.5z M-1551.9,144.1c0.3-1.3,0.3-2.8-0.2-4.1c-0.6-1.5-1.6-2.8-2.9-3.6l94.4-192
            c1.2,0.4,2.4,0.5,3.7,0.3l86.6,264.8c-1.4,0.7-2.6,1.8-3.3,3.1L-1551.9,144.1z M-115.3,42c0.5,1.5,1.5,2.7,2.7,3.5L-216,247.8
            c-1.5-0.5-3.2-0.6-4.9,0c-0.5,0.2-1,0.5-1.5,0.8L-357.6,88.2c1.3-1.3,2.1-3.1,2.2-5L-115.3,42C-115.3,42-115.3,42-115.3,42z
             M114.6,220.6c0.4,1.1,1,2,1.8,2.7l-179,263.5c-1.7-0.9-3.8-1.1-5.7-0.4c-0.2,0.1-0.4,0.2-0.6,0.3l-144.3-227c1.3-1.3,2-3,2.1-4.7
            l325.6-35C114.5,220.2,114.6,220.4,114.6,220.6z M110.8,820.1c-0.1,0.3-0.1,0.6-0.2,0.9l-437.8-11c-0.1-0.6-0.2-1.1-0.4-1.7
            c-0.7-2-2.2-3.4-3.9-4.2l44.7-151c1.2,0.2,2.4,0.1,3.6-0.3c1.7-0.6,2.9-1.7,3.8-3.1L110.8,820.1z M-586.8,1007.3l-171.1-194.5
            c1.9-1.9,2.7-4.8,1.7-7.6c-0.1-0.4-0.3-0.8-0.5-1.1L-535,677.5c1,1.3,2.4,2.3,4.1,2.7l-51.3,325.8c-1-0.1-2,0-3,0.4
            C-585.8,1006.6-586.3,1006.9-586.8,1007.3z M-1313.2,650.9c-0.7-1.8-2-3.2-3.6-4.1l90.2-257.7c0.3,0,0.6,0,1,0l75.4,283.9
            c-2.1,0.9-3.6,2.6-4.2,4.7l-158.2-24.2C-1312.8,652.7-1312.9,651.8-1313.2,650.9z M-1455.2-56c1.7-0.8,3-2.3,3.7-4l233.3,54.9
            c-0.1,1,0,2.1,0.4,3.2c0.5,1.3,1.2,2.3,2.2,3.1l-147.5,208.7c-1.5-1-3.5-1.4-5.4-1.1L-1455.2-56z M-664.1-459.6l62.9,238.9
            c-2.1,0.9-3.7,2.7-4.3,4.7l-189.8-28.5c0-0.9-0.1-1.7-0.4-2.6c-0.5-1.3-1.3-2.4-2.3-3.2l129.9-210
            C-666.9-459.7-665.5-459.4-664.1-459.6z M-348.2-499.4l-61.1,331.2c-0.9-0.1-1.9,0.1-2.8,0.4c-2,0.7-3.5,2.2-4.2,4l-175-49.3
            c0.2-1.1,0.1-2.3-0.3-3.5c-0.3-0.9-0.8-1.7-1.4-2.4L-350-500.2C-349.4-499.8-348.8-499.6-348.2-499.4z M-365.2,76.1
            c-0.5,0.2-1,0.4-1.4,0.7l-226.8-285.8c0.6-0.7,1.2-1.4,1.5-2.3l175,49.3c-0.2,1.1-0.1,2.3,0.3,3.5c1.1,3.1,4.1,5,7.3,4.8
            L-365.2,76.1z M-292.8,646.2L-522,672.3c-0.1-0.5-0.2-1.1-0.4-1.6c-0.7-2-2.2-3.4-3.9-4.2l86.9-295.8c1.2,0.2,2.4,0.1,3.6-0.3
            c0.1,0,0.1-0.1,0.2-0.1l145.8,269.7C-291.8,641.5-292.9,643.8-292.8,646.2z M-767,801.6l-222.2-258.8c1.4-1.5,2.2-3.6,1.9-5.7
            l244-72.8c0.9,2.2,2.7,3.8,4.9,4.4l-24.7,331.7c-0.8,0-1.6,0.1-2.4,0.4C-766.1,801-766.6,801.3-767,801.6z M-1148.6,672.5
            l-75.4-283.9c1-0.4,1.8-1,2.5-1.7l220.4,147.7c-0.8,1.7-1,3.7-0.4,5.7c0.2,0.7,0.6,1.2,1,1.8L-1143,674.2
            C-1144.5,672.9-1146.5,672.2-1148.6,672.5z M-1360.3,213.5c-0.3-0.9-0.8-1.7-1.4-2.4l147.7-208.9c1.7,0.8,3.7,1,5.5,0.3
            c0.7-0.3,1.4-0.7,2-1.1l153,154.2c-1.2,1.6-1.8,3.6-1.5,5.6l-305.2,52.4C-1360.3,213.6-1360.3,213.5-1360.3,213.5z M-369.9,83.6
            l-279.6,59.7c0,0,0,0,0,0c-0.8-2.3-2.6-3.9-4.8-4.5l55.6-345.4c0.9,0,1.7-0.1,2.6-0.4c0.5-0.2,0.9-0.4,1.3-0.6L-368,78.1
            C-369.4,79.6-370,81.5-369.9,83.6z M-533.6,667.4l-197.5-200.8c1.5-1.7,2.2-3.9,1.7-6.2l284.6-93.7c0.8,1.6,2.1,2.8,3.6,3.5
            l-87,295.8c-1.2-0.2-2.4-0.1-3.6,0.3C-532.4,666.6-533,667-533.6,667.4z M-988-121.7l194,67.5c-0.3,1.3-0.2,2.6,0.2,3.9
            c0.2,0.5,0.4,1,0.7,1.4l-249.5,204c-0.8-0.9-1.9-1.6-3.1-2l51.4-271c0.7,0,1.4-0.1,2.2-0.4C-990.2-118.8-988.8-120.1-988-121.7z
             M-600.5-207l-55.6,345.4c-0.9,0-1.8,0.1-2.7,0.4c-0.3,0.1-0.5,0.2-0.7,0.4L-782.1-47.2c2.2-1.9,3.2-5,2.1-7.9
            c-0.2-0.6-0.5-1.1-0.8-1.5l177.5-151.8C-602.5-207.8-601.5-207.3-600.5-207z M-445.3,364.9l-284.6,93.7c-1.6-3.3-5.4-5-9-3.7
            c-0.8,0.3-1.4,0.7-2,1.1l-138.6-151.4c0.7-0.8,1.2-1.7,1.5-2.7l432.6,61.1C-445.5,363.7-445.4,364.3-445.3,364.9z M-887.4,292.9
            c-0.9,0.3-1.8,0.8-2.4,1.5l-152-130.3c0.6-1,1.1-2.1,1.2-3.3l377.2-13.8c0.1,0.4,0.1,0.7,0.3,1.1c0.1,0.3,0.2,0.5,0.3,0.7
            L-879.5,295C-881.4,292.8-884.5,291.9-887.4,292.9z M-784.4-45.9c0.3-0.1,0.5-0.2,0.7-0.4l122.6,186.3c-1.5,1.3-2.4,3.1-2.5,5
            l-377.1,13.8c-0.1-0.4-0.2-0.8-0.3-1.3c-0.1-0.3-0.3-0.7-0.5-1l249.6-204.2C-789.9-45.6-787.1-44.9-784.4-45.9z M-1043,165.5
            L-891,295.8c-1.2,1.8-1.6,4.2-0.8,6.4c0.6,1.7,1.8,3.1,3.3,3.9L-992.1,531c-0.8-0.3-1.6-0.4-2.5-0.4l-51.2-363.5
            c0.1,0,0.2-0.1,0.4-0.1C-1044.5,166.6-1043.7,166.1-1043,165.5z M-987.7,535.3c-0.5-1.4-1.5-2.6-2.7-3.4l103.6-225
            c1.4,0.3,2.8,0.3,4.2-0.2c0.6-0.2,1.1-0.5,1.6-0.8l138.7,151.5c-1.1,1.5-1.7,3.3-1.5,5.2L-987.7,535.3z M-445.1,361.3l-432.6-61.2
            c0-0.9-0.1-1.9-0.4-2.8c-0.1-0.3-0.3-0.6-0.4-0.8l216.6-146.2c1.9,2.2,5,3.2,8,2.2c0.7-0.3,1.4-0.7,2-1.1l208,207.7
            C-444.4,359.8-444.8,360.5-445.1,361.3z M-605.4-211.6c0.2,0.6,0.5,1.2,0.9,1.7L-782-58.1c-1.2-1.1-2.8-1.8-4.5-1.9l-14.6-177.5
            c0.3-0.1,0.6-0.1,0.9-0.2c2.3-0.8,3.9-2.7,4.6-4.9l189.8,28.5C-605.8-213.3-605.7-212.4-605.4-211.6z M-802.9-237.3l14.6,177.5
            c-0.3,0.1-0.6,0.1-0.9,0.2c-1.8,0.7-3.3,2-4.1,3.6l-194-67.5c0.3-1.3,0.2-2.6-0.2-3.9c-0.1-0.2-0.2-0.4-0.3-0.6l179.7-112
            C-806.9-238.4-805-237.4-802.9-237.3z M-996.1-117.9l-51.3,270.7c-0.9-0.1-1.9,0.1-2.9,0.4c-0.7,0.3-1.4,0.7-2,1.1l-153-154.2
            c1.5-1.9,2-4.5,1.1-6.9c0-0.1-0.1-0.2-0.1-0.3l204-113.5C-999.2-119.2-997.7-118.3-996.1-117.9z M-1047.6,167.4l51.2,363.5
            c-0.2,0-0.3,0.1-0.5,0.1c-1.2,0.4-2.2,1.2-3,2.1l-220.4-147.7c1-1.8,1.2-3.9,0.5-5.9c-0.3-0.9-0.8-1.6-1.3-2.3l170-210.6
            C-1050,167.1-1048.8,167.4-1047.6,167.4z M-761.3,800.6l24.7-331.7c0.8,0,1.7-0.1,2.5-0.4c0.6-0.2,1.1-0.5,1.5-0.8l197.6,200.9
            c-1.5,1.9-2,4.5-1.1,6.9c0,0.1,0.1,0.2,0.2,0.3l-221.9,126.7C-758.8,801.7-760,801-761.3,800.6z M-288.2,639.2L-434,369.4
            c2.5-1.8,3.7-5.1,2.6-8.2L-224.2,259c1,1.3,2.3,2.2,3.8,2.6l-64.8,377.1c-0.9,0-1.8,0.1-2.7,0.4
            C-288.1,639.1-288.1,639.1-288.2,639.2z M-225.3,257.1c0,0.1,0.1,0.2,0.1,0.3l-207,102.2c-0.8-1.2-2-2.1-3.3-2.7l71.6-266.7
            c1.2,0.2,2.4,0.1,3.6-0.3c0.4-0.1,0.8-0.3,1.1-0.5l135.3,160.5C-225.5,251.7-226.2,254.5-225.3,257.1z M-437.2,356.4
            c-1.1-0.1-2.3-0.1-3.4,0.3c-0.7,0.3-1.4,0.7-2,1.1l-208-207.7c1.1-1.4,1.6-3.2,1.5-5l279.6-59.7c0.7,1.9,2.1,3.4,3.9,4.2
            L-437.2,356.4z M-809.4-242.2c0.1,0.2,0.2,0.4,0.3,0.6l-179.7,112c-1.3-1.6-3.1-2.5-5.1-2.7l-16-250.9c0.4-0.1,0.7-0.1,1.1-0.3
            c1.2-0.4,2.1-1.1,2.9-2l197.1,137.3C-809.9-246.4-810.2-244.2-809.4-242.2z M-1001.5-126.9c-0.4,1.4-0.4,2.9,0.1,4.4
            c0,0.1,0.1,0.2,0.2,0.4l-204,113.5c-1.4-1.8-3.5-2.9-5.7-3l-24.4-209.1c0.2-0.1,0.5-0.1,0.7-0.2c1.7-0.6,3-1.8,3.8-3.2
            L-1001.5-126.9z M-1359.9,215.4l305.4-52.4c0.4,1,1.1,1.9,1.9,2.5l-169.9,210.4c-1.9-1.3-4.3-1.7-6.6-0.9c-0.5,0.2-1,0.5-1.5,0.8
            l-131.2-155C-1360.5,219.4-1359.8,217.4-1359.9,215.4z M-1140.7,677.3c-0.2-0.7-0.6-1.2-1-1.8l142.6-132.1c0.9,0.8,2,1.3,3.2,1.5
            l-18.9,285.4c-0.7,0-1.3,0.1-2,0.4c-0.6,0.2-1,0.5-1.5,0.8l-124-146.9C-1140.5,682.7-1139.8,679.9-1140.7,677.3z M-1007.4,835.2
            c-0.9-2.5-3-4.2-5.5-4.7l18.8-285.4c0.7,0,1.3-0.1,2-0.4c0.5-0.2,1-0.4,1.4-0.7l222.2,258.8c-1.2,1.3-1.9,3-1.9,4.8l-237,28.2
            C-1007.3,835.6-1007.4,835.4-1007.4,835.2z M-522,674.2l229.5-26.2c0,0.1,0.1,0.3,0.1,0.4c0.7,2,2.2,3.4,3.9,4.2l-44.7,151
            c-1.2-0.2-2.4-0.1-3.6,0.3c-1.3,0.5-2.3,1.2-3.1,2.2l-183-129.2C-522.5,676.1-522.2,675.1-522,674.2z M-283.5,639l64.8-377.1
            c0.9,0,1.8-0.1,2.6-0.4c0.5-0.2,0.9-0.4,1.3-0.6l144.2,226.8c-2.3,1.9-3.3,5.1-2.2,8c0.1,0.3,0.3,0.6,0.4,0.9l-207.9,144.4
            C-281.1,640.1-282.2,639.4-283.5,639z M-363.4,75.7l-44-229.7c0.1,0,0.1,0,0.2,0c2.9-1,4.7-3.7,4.8-6.7l261.8-26.2
            c0.1,0.3,0.1,0.5,0.2,0.8c0.3,1,0.8,1.8,1.5,2.5L-358.8,76.8C-360.2,76-361.7,75.6-363.4,75.7z M-140.8-188.6l-261.8,26.2
            c-0.1-0.3-0.1-0.5-0.2-0.8c-0.8-2.2-2.6-3.8-4.6-4.5l61.1-331.2c0.9,0,1.9-0.1,2.8-0.4c0.3-0.1,0.5-0.2,0.8-0.4l204.7,305.7
            C-139.8-192.8-140.8-190.8-140.8-188.6z M-352.8-503.8c0.3,0.9,0.8,1.7,1.4,2.4l-243.1,281.4c-1.4-0.9-3.2-1.4-4.9-1.2
            l-62.9-238.9c3-1.2,4.8-4.3,4.5-7.5l304.7-37.6C-353.1-504.8-353-504.3-352.8-503.8z M-672-464.4c0.5,1.3,1.3,2.4,2.3,3.2
            l-129.9,210c-0.1,0-0.1,0-0.2-0.1l160.3-523c0.2,0.1,0.4,0.1,0.7,0.1l-26.9,300.2c-0.6,0.1-1.2,0.2-1.8,0.4
            C-671.3-472.4-673.3-468.2-672-464.4z M-641.2-775.1l-160.3,523.3c-1.1-0.2-2.3-0.1-3.4,0.3c-1.1,0.4-2,1-2.8,1.8L-1005-386.9
            c0.9-1.7,1.1-3.8,0.4-5.8c-0.3-0.8-0.7-1.5-1.2-2.1l363.5-380.9C-641.9-775.5-641.6-775.3-641.2-775.1z M-1011.9-383l16,250.9
            c-0.4,0.1-0.7,0.1-1.1,0.3c-1.7,0.6-3,1.8-3.8,3.2l-229.3-97.2c0.4-1.4,0.4-2.9-0.1-4.4c-0.1-0.4-0.3-0.7-0.5-1l214-154.1
            C-1015.4-384-1013.7-383.1-1011.9-383z M-1237.1-220.5l24.4,209.1c-0.2,0.1-0.5,0.1-0.7,0.2c-2.1,0.7-3.6,2.4-4.4,4.3l-233.3-54.9
            c0.1-1,0-2.1-0.4-3.2c-0.1-0.4-0.3-0.8-0.5-1.1l209.7-156.6C-1240.9-221.3-1239.1-220.5-1237.1-220.5z M-1143.7,685.8l124,146.9
            c-1.8,1.9-2.4,4.7-1.5,7.3c0.7,1.8,2,3.3,3.6,4.1l-69.2,198.9c-0.6-0.1-1.1-0.2-1.7-0.1l-57.5-356.1c0.3-0.1,0.6-0.1,0.9-0.2
            C-1144.6,686.4-1144.1,686.1-1143.7,685.8z M-1085,1043.7l69.2-198.9c1.3,0.3,2.6,0.2,3.9-0.2c3-1.1,4.8-3.8,4.8-6.8l237-28.2
            c0.1,0.2,0.1,0.4,0.2,0.7c0.1,0.4,0.3,0.8,0.5,1.1l-313.6,233.9C-1083.6,1044.5-1084.3,1044-1085,1043.7z M-575.9,1010.8
            c-0.8-2.2-2.5-3.7-4.5-4.4l51.3-326c0.7,0,1.4-0.1,2.1-0.4l183.7,374.7c-1.4,0.9-2.4,2.2-2.9,3.8l-229.4-44.9
            C-575.5,1012.7-575.6,1011.7-575.9,1010.8z M-341.6,1053.9l-183.7-374.6c0.4-0.3,0.8-0.6,1.1-0.9L-341,807.6
            c-0.8,1.7-0.9,3.7-0.3,5.5c0.9,2.6,3.2,4.3,5.8,4.7l-4.3,235.6C-340.4,1053.6-341,1053.7-341.6,1053.9z M114.2,218.1l-325.6,35
            c-0.1-0.3-0.1-0.6-0.2-0.9c-0.5-1.5-1.5-2.7-2.8-3.6l103.4-202.2c1.5,0.6,3.3,0.6,4.9,0c0.9-0.3,1.8-0.8,2.5-1.5l218.8,169.5
            C114.6,215.6,114.2,216.8,114.2,218.1z M-115.7,40.2l-239.9,41.2c-0.1-0.3-0.1-0.5-0.2-0.8c-0.4-1-0.9-1.9-1.6-2.6l219.9-260.3
            c1.1,0.7,2.4,1.1,3.7,1.2l23.6,213.7c-0.2,0.1-0.5,0.1-0.7,0.2C-114,33.9-115.9,37-115.7,40.2z M-108.3,32.3l-23.6-213.7
            c0.3-0.1,0.5-0.1,0.8-0.2c1.9-0.7,3.4-2.1,4.2-3.8l211.7,71.8c-0.2,1.3-0.2,2.6,0.3,3.9c0.1,0.4,0.3,0.8,0.6,1.2l-188.8,143
            C-104.6,33.1-106.4,32.4-108.3,32.3z M85.3-115.4l-211.7-71.8c0.2-1.2,0.2-2.5-0.3-3.7c-1-2.7-3.4-4.5-6.1-4.8l18.9-347.8
            c0.6,0,1.1-0.1,1.7-0.3L87.9-118.3C86.8-117.6,85.9-116.6,85.3-115.4z M-121.3-548.2c0.9,2.5,3.1,4.2,5.5,4.7l-18.9,347.9
            c-0.5,0.1-0.9,0.2-1.4,0.3c-0.2,0.1-0.3,0.2-0.5,0.2l-204.7-305.7c1.7-1.5,2.6-3.7,2.5-5.9l217.4-41.7
            C-121.3-548.3-121.3-548.3-121.3-548.2z M-353.2-507.1l-305.1,37.7c-0.9-2.5-3.1-4.1-5.6-4.6l26.9-300.2c0.6,0,1.2-0.2,1.8-0.4
            c1-0.4,1.9-1,2.6-1.7l281,265.3C-352.5-509.8-353-508.5-353.2-507.1z M-643.5-777.1l-363.6,380.9c-0.8-0.6-1.7-1-2.7-1.2
            l25.7-261.5c0.7,0,1.5-0.1,2.2-0.4c3.4-1.2,5.4-4.8,4.7-8.3l333-110.7C-644-777.8-643.8-777.4-643.5-777.1z M-985.9-659
            l-25.7,261.5c-0.7,0-1.5,0.1-2.2,0.4c-1.7,0.6-3,1.8-3.9,3.3l-388.7-158c0.1-0.8,0.2-1.5,0.1-2.3L-991-663.3
            C-990-661-988.1-659.5-985.9-659z M-1243.9-230c-0.5,1.5-0.5,3.1,0,4.7c0.1,0.4,0.3,0.8,0.5,1.1l-209.7,156.6
            c-1.9-2-4.9-2.8-7.7-1.8c-0.5,0.2-1,0.4-1.5,0.7l-210.9-238.7c0.8-0.8,1.3-1.7,1.7-2.8L-1243.9-230z M-1552.6,145.8l178.4,68.4
            c-0.3,1.3-0.3,2.8,0.2,4.2c0.5,1.3,1.3,2.3,2.2,3.2l-180.9,286.1c-0.8-0.4-1.8-0.6-2.7-0.7l-3-357.3c0.6,0,1.3-0.2,1.9-0.4
            C-1554.8,148.6-1553.4,147.3-1552.6,145.8z M-1550.2,518.8l223.4,131.8c-0.7,1.6-0.8,3.5-0.2,5.3c0.7,2,2.2,3.5,4,4.2l-99.6,347.5
            c-1-0.2-2-0.1-3,0.2l-127.5-486.8C-1551.9,520.4-1550.9,519.7-1550.2,518.8z M-1416.8,1012.2c-0.3-0.8-0.7-1.4-1.2-2l267-324
            c0.9,0.5,2,0.8,3.1,0.8l57.6,356.2c-0.1,0-0.3,0-0.4,0.1c-2.4,0.9-4.1,2.9-4.6,5.2l-321.1-34.5
            C-1416.5,1013.4-1416.6,1012.8-1416.8,1012.2z M-1081.4,1047.7c-0.1-0.4-0.3-0.8-0.5-1.1l313.6-233.9c1,1,2.3,1.8,3.7,2.1
            l-79.3,493.7c-1-0.1-2.1,0-3.2,0.4c-0.6,0.2-1.2,0.6-1.7,0.9l-234-254.8C-1081.1,1053-1080.5,1050.3-1081.4,1047.7z
             M-838.1,1312.6c-0.3-0.5-0.6-1-0.9-1.5l252.2-291.8c1.8,1.2,4.2,1.6,6.4,0.8c2.3-0.8,3.9-2.6,4.5-4.8l229.3,44.9
            c-0.1,1,0.1,1.9,0.4,2.9c0,0,0,0.1,0,0.1L-838.1,1312.6z M-332.1,1059.6c-0.1-0.4-0.2-0.8-0.3-1.2c-0.9-2.5-3.1-4.2-5.5-4.7
            l4.3-235.7c0.6-0.1,1.1-0.2,1.7-0.4c1.1-0.4,2.1-1.1,2.9-1.9l354.4,186.6c-0.2,0.8-0.3,1.6-0.3,2.4L-332.1,1059.6z M122.7,816.9
            c-1.9-1.8-4.7-2.5-7.3-1.6l-177-316.2c0.9-0.6,1.6-1.4,2.1-2.3l378,146.9c-0.3,1.3-0.3,2.8,0.2,4.2c0.2,0.7,0.6,1.2,1,1.8
            L122.7,816.9z M119.9,211.1c-0.3,0.1-0.6,0.1-0.9,0.2c-1.1,0.4-1.9,1-2.7,1.7L-102.4,43.6c1.2-1.8,1.6-4.2,0.8-6.4
            c-0.2-0.5-0.4-0.9-0.6-1.3l188.8-143c1.3,1.3,3,2.1,4.9,2.2L119.9,211.1z M-269.4-849.4c0.7,2.1,2.4,3.6,4.3,4.3l-80.5,331.5
            c-0.9,0-1.9,0.1-2.8,0.4c-0.7,0.2-1.3,0.6-1.9,1l-281.2-265.5c0.8-1.4,1.2-3,1-4.7l360.9-67.3
            C-269.5-849.5-269.4-849.4-269.4-849.4z M-1418.2-547.7c1.9,1.6,4.6,2.2,7.1,1.3c0.1,0,0.1-0.1,0.2-0.1l169.9,312.6
            c-0.9,0.6-1.6,1.3-2.1,2.1L-1671-312c0.1-0.9-0.1-1.9-0.4-2.9c-0.2-0.6-0.6-1.2-0.9-1.7L-1418.2-547.7z M-1679.9-305.3
            c0.7,0.1,1.3,0.2,2,0.2l116.2,440.8c-0.2,0.1-0.3,0.1-0.4,0.2l-168.2-255.3c2.4-1.9,3.5-5.1,2.4-8.2c-0.7-2.1-2.3-3.6-4.2-4.3
            L-1679.9-305.3z M-1731.9-118.5l168.2,255.4c-2.2,1.9-3.2,5-2.1,7.9c0.9,2.5,3.1,4.2,5.6,4.7l3,357.6c-0.3,0.1-0.6,0.1-0.8,0.2
            l-175.1-625.4c0.3-0.1,0.6-0.1,0.8-0.2C-1732.2-118.4-1732.1-118.5-1731.9-118.5z M-1418.5,1019.8c1.1-1.1,1.7-2.4,2-3.9l321,34.5
            c0,0.8,0.1,1.5,0.4,2.3c0.7,1.9,2,3.3,3.7,4.1l-95.4,250.4c-1.3-0.3-2.8-0.3-4.1,0.2c-0.5,0.2-0.9,0.4-1.3,0.6L-1418.5,1019.8z
             M-1181.4,1313.3c-0.1-0.5-0.2-1-0.4-1.5c-0.6-1.8-1.9-3.1-3.4-4l95.5-250.5c1.3,0.3,2.6,0.2,3.9-0.3c0.6-0.2,1.1-0.5,1.6-0.8
            l234,254.8c-1,1.2-1.6,2.6-1.7,4.1L-1181.4,1313.3z" style="fill: rgb(81, 81, 88);"></path>
                </g>
            </g>
        </svg>