<svg xmlns="http://www.w3.org/2000/svg" xmlns:xlink="http://www.w3.org/1999/xlink" viewBox="0 0 1440 1440"><defs><path id="a" d="M0 0h1440v1440H0z"/></defs><clipPath id="b"><use xlink:href="#a" overflow="visible"/></clipPath><radialGradient id="c" cx="719.997" cy="720" r="1108.8" gradientUnits="userSpaceOnUse"><stop offset=".343" stop-color="#fff"/><stop offset=".464" stop-color="#f6f7f7"/><stop offset=".657" stop-color="#dfe0e1"/><stop offset=".897" stop-color="#b9bbbd"/><stop offset="1" stop-color="#a7a9ac"/></radialGradient><path clip-path="url(#b)" fill="url(#c)" d="M0 0h1440v1440H0z"/><path clip-path="url(#b)" fill="#FFF" d="M1988.9 131.8c-4.3-1.2-8.8.6-11.1 4.3L1106-354.6c1-2.1 1.3-4.6.6-7-1.6-5.2-7.1-8.2-12.3-6.7-3.7 1.1-6.2 4.1-6.9 7.6L501-419.6c0-1 0-2.1-.4-3.2-1.6-5.2-7.1-8.2-12.3-6.7-5 1.5-7.9 6.5-6.8 11.6L-173-239.4c-1.7-5.1-7-7.9-12.2-6.4-4.3 1.3-7.1 5.2-7 9.5l-542.2 33.5-.3-1.8c-1.5-5.2-7.1-8.2-12.3-6.7-5.2 1.6-8.2 7.1-6.7 12.3v.1L-1431.3 52l-.3-.9c-2.3-5-8.2-7.2-13.2-4.9s-7.1 8.1-5 13.1l-989 480.9c-2.4-4.6-8.1-6.6-12.9-4.4-5 2.3-7.2 8.2-4.9 13.2.8 1.8 2.1 3.2 3.7 4.2l-368.5 621.8c-2.7-1.5-5.9-1.7-8.9-.3-5 2.3-7.2 8.2-4.9 13.2 1 2.3 2.8 3.9 4.9 4.9l-199.4 480.1c-2.3-.8-5-.8-7.4.3-5 2.3-7.2 8.2-4.9 13.2s8.2 7.2 13.2 4.9c.9-.4 1.7-.9 2.4-1.6l409.1 434c-2.8 2.8-3.8 7.3-2 11.1 2.3 5 8.2 7.2 13.2 4.9 1.3-.6 2.5-1.5 3.4-2.5l465 375.9c-1.9 2.8-2.4 6.5-.9 9.8 2.3 5 8.2 7.2 13.2 4.9l.6-.3 395 667.1c-3.8 2.7-5.3 7.8-3.3 12.2 2.3 5 8.2 7.2 13.2 4.9.9-.4 1.7-.9 2.4-1.6l409.1 434c-2.8 2.8-3.8 7.3-2 11.1 2.3 5 8.2 7.2 13.2 4.9 1.3-.6 2.5-1.5 3.4-2.5l465 375.9c-1.9 2.8-2.4 6.5-.9 9.8 2.3 5 8.2 7.2 13.2 4.9 4.6-2.1 6.8-7.2 5.4-11.9L161.1 3590c2.4 4.8 8.1 6.8 13 4.6 5-2.3 7.2-8.1 4.9-13.1l878.2-487c2.2 3.7 6.7 5.6 11 4.3 5.1-1.5 8.1-6.9 6.6-12.1-.1-.4-.3-.8-.5-1.1l1045.5-505.4c2.1 4 6.8 6.2 11.4 4.8 5.1-1.5 8.1-6.9 6.6-12.1-1.5-5.1-6.9-8.1-12.1-6.6-.5.1-.9.3-1.3.5l-295.3-437.3c3.2-2.4 4.8-6.5 3.6-10.6-1.5-5.1-6.9-8.1-12.1-6.6-.1 0-.2.1-.2.1l-161.7-493.3c2.6-1.2 4.7-3.4 5.5-6.4.7-2.4.4-4.8-.6-6.9l462.5-237.4c1.3 2.1 3.3 3.8 5.9 4.5 5.3 1.5 10.8-1.6 12.2-6.9 1.5-5.3-1.6-10.8-6.9-12.3-1-.3-1.9-.4-2.9-.4L2103 758c4-.4 7.5-3.1 8.7-7.2 1.5-5.3-1.6-10.8-6.9-12.3-1.4-.4-2.8-.5-4.2-.2l-111.8-587.4c3.3-.9 6-3.4 7-6.9 1.5-5.2-1.6-10.7-6.9-12.2zm-173 1996.1l-452.5 361.2c-2.4-2.6-6.2-3.8-9.8-2.7-.8.2-1.5.6-2.1.9L958.6 1861c1.7-1.2 3-2.9 3.7-5l851.6 263.8c-.3 1.5-.3 3.1.2 4.7.4 1.3 1 2.5 1.8 3.4zM539.8 2724.7l-611.9 308c-2-3.7-6.1-5.6-10.1-5.1l-90.7-510c.7-.2 1.4-.4 2.1-.7 2.4-1.1 4.2-3.1 5.1-5.3l704.9 206.5c-.5 2.1-.4 4.4.6 6.6zm-629.6 316.9c.3.6.6 1.2 1 1.8l-359.4 285.3c-1.2-1.4-2.8-2.4-4.5-3l109.5-383c2.3.7 4.8.6 7.1-.4s4-2.9 4.9-5l241 96.8c-.8 2.4-.8 5.1.4 7.5zm-1403-2049.9c1.1 2.3 2.9 4 5.1 5l-158.5 406.7c-2.2-.6-4.6-.5-6.9.5-.5.2-1 .5-1.5.9l-373.7-589.9c1.8-1.2 3.1-2.9 3.8-4.8l531.3 174.7c-.7 2.2-.6 4.6.4 6.9zm18.1-8.3c-.5-1-1.1-1.9-1.8-2.7l428.1-502.1c2.6 2.1 6.1 2.7 9.4 1.6l275.2 710.8c-.1 0-.2.1-.2.1-2.6 1.2-4.5 3.4-5.3 5.9l-704.9-206.5c.7-2.2.6-4.8-.5-7.1zm441.5-516.7c-.4-.9-.9-1.6-1.5-2.3l319.2-309.9c2.5 2.1 5.9 3 9.3 2 .4-.1.7-.3 1.1-.4l185.6 483.6c-2.6.8-4.6 2.7-5.8 5l-507.4-171.1c.6-2.2.5-4.6-.5-6.9zM494-410.5c2.5-.7 4.4-2.3 5.6-4.4l428.7 257c-.3.6-.6 1.3-.8 1.9-.6 2.1-.5 4.2.2 6.1l-830 407.2c-.8-1.5-2-2.8-3.6-3.7l392.5-664.8c2.2 1.2 4.9 1.5 7.4.7zM275.6 1987.1c-2.3-5-8.2-7.2-13.2-4.9-.9.4-1.8 1-2.5 1.6l-384-401.8c.9-1 1.5-2.2 1.9-3.6l1065.4 272.4c-.3 1.4-.3 2.7 0 4.1l-666.9 134.7c-.1-.8-.4-1.7-.7-2.5zm-18.1 8.3c.6 1.3 1.4 2.3 2.3 3.2l-428 502c-1.6-1.5-3.7-2.4-5.9-2.6l42.9-912.5c.1 0 .3-.1.4-.1.2 0 .4-.1.7-.1.3-.1.7-.1 1-.2.4-.1.7-.2 1.1-.4.1 0 .2-.1.3-.1.1 0 .1-.1.2-.1 1.1-.5 2.1-1.2 2.9-2.1l384.1 401.8c-2.9 3-3.8 7.4-2 11.2zM-1041.1 2821c-.8-1.7-1.9-3-3.3-4l314.2-481.5c2.7 1.6 6.2 2 9.3.5.3-.1.5-.3.8-.4l373.7 589.9c-2.1 1.7-3.4 4.1-3.7 6.7l-690.2-105.9c.3-1.8 0-3.6-.8-5.3zm-357.5-1299.8c.3.6.6 1.2 1 1.8l-359.4 285.3c-1.2-1.4-2.8-2.4-4.5-3l109.5-383c2.3.7 4.8.6 7.1-.4s4-2.9 4.9-5l241 96.8c-.8 2.4-.8 5.1.4 7.5zm-356.9 289.4c-.3-.6-.6-1.2-1-1.8l359.4-285.3c2.7 3.2 7.3 4.4 11.4 2.7l242.6 530c-2.1 1.1-3.7 2.8-4.6 4.9l-607.4-243c.7-2.3.7-5-.4-7.5zm374.9-297.6c0-.1 0-.1 0 0l611.9-308c1 1.9 2.6 3.3 4.4 4.2l-370.2 847.1c-.1 0-.1 0-.2-.1-.5-.2-1-.4-1.5-.5-.2 0-.3-.1-.5-.1-.5-.1-1-.2-1.5-.2h-.6c-.5 0-.9 0-1.4.1-.2 0-.4 0-.7.1-.4.1-.8.2-1.2.4-.2.1-.4.1-.7.2l-242.6-530c5-2.6 7.1-8.4 4.8-13.2zm681.2-1364L79.1 260.7c-.3 2.2.2 4.3 1.2 6.2l-588.9 376.3c-2.3-3.1-6.3-4.6-10.2-3.7l-185.6-483.7c2.7-1.4 4.5-4 5-6.8zM768.9 435.6L508.4 883.3c-.6-.3-1.3-.6-2-.8-2.6-.7-5.2-.4-7.3.8L94.7 270.1c1.8-1.3 3.2-3.1 3.8-5.4l666 160.5c-.9 4.1 1 8.2 4.4 10.4zm475.4 12L913.2 669.1c-1.3-2-3.3-3.6-5.7-4.3-2.4-.7-4.9-.4-7 .6L779.2 435.8c2.2-1.2 3.9-3.3 4.6-5.9.2-.7.3-1.3.3-2l458.7 14.6c0 1.8.5 3.6 1.5 5.1zM899.8 665.7c-2.2 1.2-3.9 3.3-4.6 5.9-.7 2.7-.3 5.4.9 7.6L512.3 887.1c-.8-1.4-1.9-2.5-3.3-3.4L769.5 436c.6.3 1.3.6 2 .8 2.4.7 4.9.4 7-.6l121.3 229.5zm-1065.9 345.1c4-.4 7.5-3.1 8.6-7.2.4-1.3.5-2.7.3-3.9l651.1-106.4c.3 2.2 1.3 4.2 2.8 5.8l-622.6 668.5c-.9-.7-2-1.2-3.2-1.6-1-.3-2-.3-3-.3h-.8l-33.2-554.9zm32.6 555c-.1 0-.1.1-.2.1-.8.1-1.5.4-2.3.7-1.8.8-3.3 2.2-4.3 3.8l-611.2-365c1.4-2.3 1.9-5.2 1.1-7.9l574.1-192.8c1.1 2.8 3.4 5 6.5 5.9 1 .3 2 .4 2.9.4l33.4 554.8zm630.7-666.2c1.1.9 2.4 1.7 3.8 2.1 2.7.7 5.4.3 7.6-.9L801 1377.5c-1.9 1.3-3.4 3.2-4.1 5.6-.4 1.5-.5 2.9-.2 4.3l-918.8 186c-.5-2-1.6-3.9-3.2-5.3l622.5-668.5zm12 .7c1.9-1.3 3.4-3.2 4.1-5.6.7-2.5.4-4.9-.7-7.1l383.8-207.9c1.3 1.9 3.2 3.4 5.6 4.1.6.2 1.1.3 1.7.3l-96.1 691.6c-2.1-.2-4.2.2-6 1.2L509.2 900.3zm-10.7-16.7c-2 1.3-3.6 3.3-4.3 5.7-.3 1.1-.4 2.2-.3 3.2L-157.3 999c-.6-3.3-2.9-6.1-6.2-7.3L86 271.5c.1 0 .1.1.2.1 2.8.8 5.6.3 7.9-1.1l404.4 613.1zm-662.7 107.8c-.1 0-.2-.1-.2-.1-3.4-.9-6.8 0-9.3 2.2l-335.1-338.2c2-2.4 2.8-5.8 1.8-9-.3-.9-.7-1.7-1.2-2.5L80.7 267.5c1.1 1.6 2.7 3 4.6 3.7l-249.5 720.2zm-349.5-332.8c1.7-.5 3.2-1.5 4.4-2.7l335.1 338.2c-1.1 1.1-2 2.5-2.5 4.2-.5 1.9-.5 3.9.1 5.7l-574.1 192.8c-.1-.2-.1-.5-.3-.7-1.1-2.4-3-4.1-5.3-5.1l236-532.7c2.1.7 4.4.9 6.6.3zm373 912.4c-1.4 2.6-1.6 5.7-.3 8.6l-989 480.9c-.1-.3-.3-.5-.5-.8 0-.1-.1-.1-.1-.2-.3-.4-.5-.7-.9-1.1l-.1-.1c-.7-.7-1.4-1.4-2.3-1.8l370.2-847.1c2.4 1 5.2 1 7.8-.2 1.6-.7 2.9-1.9 3.8-3.2l611.4 365zm-989 490.2l989-480.9c.6 1.1 1.4 2.1 2.3 2.9L-719.2 2319c-2.8-2.1-6.6-2.6-10-1-1.7.8-3.1 2-4.1 3.4l-396.9-251.2c.3-.4.4-.9.6-1.4 0-.1.1-.1.1-.2.2-.5.3-1 .4-1.6 0-.1 0-.2.1-.4.1-.5.1-1.1.1-1.6v-.3c0-.6-.1-1.2-.2-1.7-.1-.7-.3-1.3-.6-1.8zm-7.5 13.8c.2 0 .3-.1.5-.1.1 0 .3-.1.4-.1.6-.1 1.2-.3 1.7-.6.2-.1.4-.3.6-.4.4-.3.9-.5 1.3-.8.3-.2.6-.5.9-.8.3-.3.5-.5.7-.8l.6-.6 396.9 251.2c-1.6 2.7-1.9 6.1-.5 9.1.8 1.7 1.9 3 3.3 4l-314.2 481.5c-1.8-1.1-3.8-1.6-5.9-1.4l-86.3-740.2zm417.7 260.3c1.8-1.2 3.1-2.9 3.8-4.8l531.3 174.7c-.6 2.2-.5 4.6.5 6.9 1.1 2.3 2.9 4 5.1 5l-158.5 406.7c-2.2-.6-4.7-.5-6.9.5-.5.2-1 .5-1.5.9l-373.8-589.9zm535.3 169.2l-531.3-174.7c.6-2.2.5-4.6-.5-6.9-.6-1.4-1.5-2.5-2.6-3.4l580.9-735.8c1.7 1.2 3.8 1.9 5.9 1.9l-42.9 912.4c-1.4 0-2.9.3-4.3.9-2.6 1.2-4.4 3.2-5.2 5.6zm62.2-926.8c.3-1.3.3-2.5.1-3.7l918.8-186c.8 3.4 3.4 6.3 7 7.3 1.8.5 3.6.5 5.3 0l140.4 448.3c-2.9 1-5.3 3.4-6.2 6.6L-122 1577.7zm931.9-182.6c3-1 5.4-3.4 6.3-6.7.5-1.8.5-3.5 0-5.2l550.9-164.3c.7 2 1.9 3.7 3.6 4.9l-412.6 620.6c-.8-.5-1.6-.9-2.5-1.1-1.8-.5-3.6-.5-5.3 0l-140.4-448.2zm557.1-182c-.5 1.8-.5 3.5 0 5.2l-551 164.2c-1-3-3.4-5.5-6.7-6.4-.3-.1-.6-.1-.9-.2l96.2-691.7c2.7.1 5.2-.9 7.1-2.7l458.2 526.9c-1.4 1.3-2.4 2.8-2.9 4.7zM912.1 681c1-1.1 1.8-2.5 2.2-4 .7-2.6.4-5.2-.8-7.3l331.1-221.5c1.3 1.8 3.1 3.1 5.4 3.8 1.2.3 2.4.4 3.5.3l121.2 753.6c-1.7.3-3.2 1-4.6 2.1l-458-527zm335.7-247.2c-2.2 1.3-3.9 3.3-4.6 5.9-.2.7-.3 1.4-.3 2l-458.7-14.6c0-4.2-2.7-8.1-6.9-9.4l157.5-561.2c2.3.6 4.7.3 6.7-.7l306.3 578zM942.1-144.5c2.1-1.2 3.7-3.1 4.5-5.6l1030.3 288.2c-.1.2-.1.4-.2.6-.5 1.8-.5 3.6 0 5.3l-715.2 293.7c-1.2-2.3-3.4-4.1-6.1-4.9-2.4-.7-4.9-.4-7 .6L942.1-144.5zm-165.6 562a9.85 9.85 0 0 0-11.9 7L98.6 264c.4-2.1.2-4.2-.7-6L928-149c1.1 2.5 3.3 4.5 6.1 5.4L776.5 417.5zM486-411.6L93.5 253.2c-.6-.3-1.2-.6-1.9-.7-2.3-.7-4.7-.4-6.8.5l-261.9-481c3.5-2.2 5.3-6.5 4.2-10.6L481.7-417c.8 2.2 2.3 4.1 4.3 5.4zm-665.6 184.7c.7-.2 1.3-.5 1.9-.8l261.8 481c-2.3 1.2-4.1 3.3-4.8 6-.1.2-.1.4-.1.7l-778.4-111.8c.2-1.3.1-2.6-.3-4-.3-.9-.7-1.7-1.2-2.5l510.5-372c2.5 3.1 6.6 4.6 10.6 3.4zm-346 872.3c-.8 2-1 4.3-.4 6.5.8 2.7 2.7 4.8 5.1 6l-236 532.8c-2-.6-4.2-.7-6.3 0L-1038.4 480c.1 0 .2-.1.2-.1 2.5-1.1 4.3-3.2 5.2-5.6l507.4 171.1zm-244 552.3c-.5 2.1-.4 4.4.6 6.6l-611.9 308c-2-3.7-6.1-5.6-10.1-5.1l-90.7-510c.7-.2 1.4-.4 2.1-.7 2.4-1.1 4.2-3.1 5.1-5.3l704.9 206.5zm-622.1 309.7c-.7.1-1.4.4-2 .7-2.3 1.1-4 2.9-4.9 5l-241-96.8c.9-2.4.8-5-.3-7.5-1.2-2.5-3.2-4.3-5.6-5.2l158.5-406.7c1.5.5 3.1.7 4.7.5l90.6 510zm-263.5-102.2c-2.1 1.7-3.4 4.1-3.7 6.7l-690.2-105.9c.2-1.8 0-3.6-.8-5.3-.8-1.7-1.9-3-3.3-4l314.2-481.5c2.7 1.6 6.2 2 9.3.5.3-.1.5-.3.8-.4l373.7 589.9zm-693.9-98.6l690.2 105.9c-.1 1.5.2 3.1.9 4.5 1.1 2.4 3.1 4.2 5.4 5.1l-109.5 383c-2.1-.5-4.4-.4-6.5.6-1.1.5-2.1 1.2-2.9 2l-579.7-496.7c1-1.2 1.7-2.8 2.1-4.4zm577.1 501.6c-2 2.3-2.9 5.5-2.2 8.6l-393.8 98.6c-.1-.5-.3-.9-.5-1.4-2-4.4-6.9-6.7-11.5-5.5l-175.6-594.4c.3-.1.7-.2 1-.4 1.2-.5 2.2-1.3 3.1-2.2l579.5 496.7zm11.6 15.6c2.3-1.1 4-2.9 4.9-5l607.4 243c-.8 2.3-.8 4.8.2 7.2l-972.4 446c-.1-.2-.1-.4-.2-.6-.8-1.7-2-3.1-3.4-4.1l355.8-686.4c2.3 1.1 5.1 1.1 7.7-.1zm-359.7 691.9l972.5-446.1c.8 1.7 2.1 3 3.6 3.9l-368.5 621.7c-2.7-1.5-5.9-1.7-8.9-.3-2.6 1.2-4.5 3.4-5.3 6L-2120 2521c.4-1.7.4-3.5-.1-5.3zm606.9 197.3c2.7-1.2 4.6-3.6 5.4-6.2l448.1 116.2c-.5 2-.3 4.2.7 6.3.1.1.1.3.2.4l-656.8 367.7c-1.1-1.8-2.7-3.2-4.6-4l199.4-480.1c2.3.9 5.1.9 7.6-.3zm-202 485.4c-.1-.1-.1-.3-.2-.4l656.8-367.7c2.3 3.8 6.8 5.5 11 4.5l175.6 594.4c-.3.1-.7.2-1 .4-2.7 1.2-4.5 3.5-5.3 6l-836.2-230.8c.5-2.1.3-4.3-.7-6.4zm661-382.3c-2.7 1.2-4.6 3.6-5.4 6.2l-448.1-116.2c.5-2 .3-4.2-.7-6.3-.8-1.8-2.1-3.2-3.7-4.2l368.5-621.7c.8.4 1.7.8 2.6 1h.2c.9.2 1.8.3 2.7.2h.1l86.3 740.2c-.8.2-1.7.4-2.5.8zm7.3 18.5c.3-.1.7-.2 1-.4 1.2-.5 2.2-1.3 3.1-2.2l579.7 496.6c-2 2.3-2.9 5.5-2.2 8.6l-393.8 98.6c-.1-.5-.3-.9-.5-1.4-2-4.4-6.9-6.7-11.5-5.5l-175.8-594.3zm4.4-3.1c1.1-1.3 1.8-2.9 2.2-4.5l690.2 105.9c-.1 1.5.2 3.1.9 4.5 1.1 2.4 3.1 4.2 5.4 5.1l-109.5 383c-2.1-.5-4.4-.4-6.5.6-1.1.5-2.1 1.2-2.9 2l-579.8-496.6zm711.7 105.2c.9-2.4.8-5.1-.3-7.5-1.2-2.5-3.2-4.3-5.6-5.2l158.5-406.7c1.5.5 3.1.7 4.7.5l90.7 510c-.7.1-1.4.4-2 .7-2.3 1.1-4 2.9-4.9 5l-241.1-96.8zm165.3-425.7c.7-2.3.7-4.8-.4-7.2-.5-1-1.1-1.9-1.8-2.7L260.4 1999c2.6 2.1 6.1 2.7 9.4 1.6L545 2711.4c-.1 0-.2.1-.2.1-2.6 1.2-4.5 3.4-5.3 5.9l-705-206.4zm435.9-510.6c.1 0 .2-.1.2-.1 4-1.8 6.1-5.9 5.7-10l667-134.8c.8 2.7 2.6 5 5.3 6.3l-396.1 849.5c-2.2-.9-4.6-1-6.9-.2l-275.2-710.7zm679-138.3c.3.1.5.2.8.3 2.7.8 5.5.3 7.7-1l392.8 626.4c-3.1 2.2-4.7 6-4 9.9l-788.5 220c-.1-.4-.2-.8-.4-1.2-1-2.2-2.7-3.8-4.7-4.8l396.3-849.6zm9.3-17.3l412.6-620.6c.8.5 1.6.8 2.5 1.1 2.9.8 5.8.3 8.1-1.3l266.8 378.2c-1.7 1.3-3 3.1-3.6 5.2-.5 1.9-.5 3.8.1 5.6l-683.1 236.2c-.6-1.7-1.8-3.2-3.4-4.4zm416.7-638.9l-121.3-753.6c3.1-.5 5.8-2.3 7.3-5.1l364.2 179.3c-.2.4-.4.9-.5 1.4-1.3 4.7 1 9.6 5.2 11.6l-250.2 567.1c-.3-.1-.7-.2-1-.3-1.2-.5-2.4-.6-3.7-.4zM1626 625.8l-364.2-179.3c.2-.5.4-.9.5-1.4.6-2.3.4-4.7-.5-6.7l715.1-293.7c.6 1.8 1.8 3.4 3.3 4.5l-339.9 473c-.8-.6-1.8-1-2.8-1.3-4.6-1.2-9.3.9-11.5 4.9zM946.8-150.8c.9-3.8-.5-7.6-3.3-9.9L1091-351.1c2.4 1.9 5.7 2.7 8.9 1.7 2.6-.8 4.6-2.5 5.8-4.6l871.8 490.7c-.1.2-.3.5-.4.7L946.8-150.8zM1087.3-360c-.1 1.3 0 2.6.3 3.9.5 1.8 1.5 3.3 2.8 4.4L942.9-161.2c-.9-.7-1.9-1.2-3.1-1.5-4.3-1.2-8.8.7-11.1 4.3L500-415.5c.5-1 .9-2.2 1-3.4l586.3 58.9zM-192.3-235.6c.1.7.2 1.3.4 2 .3 1 .8 1.9 1.3 2.7l-510.5 372c-1.8-2.4-4.7-3.9-7.7-3.9l-34-329.3c.5-.1.9-.1 1.4-.3 4.4-1.3 7.1-5.4 7-9.7l542.1-33.5zM-1431.1 52.7l677.6-250.9c1.6 4 5.6 6.5 9.8 6.2l34 329.2c-.7 0-1.5.2-2.2.4-3.8 1.1-6.5 4.4-7 8.1l-712-89.2c.2-1.3.1-2.6-.2-3.8zm.1 4.6l712.1 89.2c-.1 1.1 0 2.3.4 3.4.5 1.6 1.4 3 2.5 4.1l-319.2 309.9c-2.8-2.9-7.3-3.9-11.2-2.1-.9.4-1.8 1-2.5 1.6L-1433 61.5c1-1.2 1.7-2.7 2-4.2zm-5.6 7c1.2-.6 2.2-1.3 3.1-2.2l384.1 401.9c-2.8 2.9-3.7 7.2-1.9 11.1.6 1.3 1.4 2.3 2.3 3.2l-428 502c-1.6-1.5-3.7-2.4-5.9-2.6l42.9-912.5c1.2-.1 2.3-.4 3.4-.9zm-4.1.9l-42.9 912.4c-1.4 0-2.9.3-4.2.9-2.5 1.1-4.3 3.2-5.2 5.6l-531.3-174.7c.6-2.2.5-4.6-.5-6.9-.6-1.4-1.5-2.5-2.6-3.4l580.9-735.8c1.6 1.2 3.7 1.9 5.8 1.9zm-997.8 475.5l989-480.9c.6 1.1 1.4 2.1 2.3 2.9L-2028 798.6c-2.8-2.1-6.6-2.6-10-1-1.7.8-3.1 2-4.1 3.4L-2439 549.8c1.6-2.7 1.9-6 .5-9.1zm-7.5 13.9c.9-.1 1.8-.4 2.6-.8 1.7-.8 3.1-2 4.1-3.4l396.9 251.2c-1.6 2.7-1.9 6.1-.5 9.1.8 1.7 1.9 3 3.3 4l-314.2 481.5c-1.8-1.1-3.8-1.6-5.9-1.4l-86.3-740.2zm-6.3-1.1c1.7.9 3.6 1.3 5.6 1.2l86.3 740.2c-.9.1-1.8.4-2.6.8-2.7 1.2-4.6 3.6-5.4 6.2l-448.1-116.2c.5-2 .3-4.2-.7-6.3-.8-1.8-2.1-3.2-3.7-4.2l368.6-621.7zM-3024 1678c-.1-.1-.1-.3-.2-.4l656.8-367.7c2.3 3.8 6.8 5.5 11 4.5l175.6 594.4c-.3.1-.7.2-1 .4-2.7 1.2-4.5 3.5-5.3 6l-836.2-230.8c.5-2.1.3-4.3-.7-6.4zm194.3-485.1c2.4.9 5.1.9 7.6-.3 2.7-1.2 4.6-3.6 5.4-6.2l448.1 116.2c-.5 2-.3 4.2.7 6.3.1.1.1.3.2.4l-656.8 367.7c-1.1-1.8-2.7-3.2-4.6-4l199.4-480.1zm215.3 928.6c-.9.4-1.7.9-2.4 1.6l-409.1-434c1.1-1.1 1.9-2.5 2.4-4l836.2 230.8c-.5 2.1-.3 4.3.6 6.4l-414.8 203.6c-2.5-4.6-8.1-6.6-12.9-4.4zm483.6 387.2c-1 .1-2 .4-3 .8-1.5.7-2.7 1.7-3.6 2.9l-464.9-375.9c2.1-2.8 2.7-6.6 1.1-10l414.8-203.6c1.8 3.4 5.5 5.4 9.2 5.2l46.4 580.6zm-45.7-580.6c1-.1 2-.4 3-.8 4.3-2 6.5-6.7 5.6-11.1l393.8-98.6c.1.5.3.9.5 1.4 1 2.2 2.7 3.9 4.7 4.8l-355.8 686.3c-1.6-.9-3.5-1.4-5.4-1.3l-46.4-580.7zm448.2 1265.4c-.3.2-.6.4-.9.5l-395-667.1c2-1.3 3.3-3.1 4-5.2l593.3 179.9c-.5 2.1-.4 4.4.6 6.5 1 2.3 2.8 3.9 4.9 4.9l-199.4 480.1c-2.5-.8-5.1-.7-7.5.4zm422.7 448.4c-.9.4-1.7.9-2.4 1.6l-409.1-434c1.1-1.1 1.9-2.5 2.4-4l836.2 230.8c-.5 2.1-.3 4.3.6 6.4l-414.8 203.6c-2.5-4.6-8.1-6.6-12.9-4.4zM-825 4030c-1.5.7-2.7 1.7-3.6 2.9l-464.9-375.9c2.1-2.8 2.7-6.6 1.1-10l414.8-203.6c1.8 3.4 5.5 5.4 9.2 5.2l46.4 580.6c-1 .1-2 .3-3 .8zm9.2.4c-1.6-.9-3.5-1.4-5.4-1.3l-46.4-580.6c1-.1 2-.4 3-.8 4.3-2 6.5-6.7 5.6-11.1l393.8-98.6c.1.5.3.9.5 1.4 1 2.2 2.7 3.9 4.7 4.8l-355.8 686.2zm976.7-441l-972.4 446c-.1-.2-.1-.4-.2-.6-.8-1.7-2-3.1-3.4-4.1l355.8-686.4c2.4 1 5.2 1 7.8-.2 2.3-1.1 4-2.9 4.9-5l607.4 243c-.9 2.4-.9 4.9.1 7.3zm0-7.8l-607.4-243c.8-2.4.8-5-.3-7.5-.3-.6-.6-1.2-1-1.8L-88.4 3044c2.7 3.2 7.3 4.4 11.4 2.7l242.6 530c-2.2 1.1-3.8 2.8-4.7 4.9zm5.3-5.2l-242.6-530c4.8-2.4 6.8-8.1 4.6-13l611.9-308c1 1.9 2.6 3.3 4.4 4.2l-370.2 847.1c-2.4-1.3-5.4-1.4-8.1-.3zm890.1-484.2c.2.6.4 1.1.7 1.6l-878.2 487c-.9-1.7-2.2-3-3.8-3.9l370.3-847.2c2.4 1 5.2 1 7.8-.2 1.5-.7 2.8-1.8 3.7-3l501.1 357c-1.8 2.4-2.6 5.6-1.6 8.7zm13.6-11.4c-2.1-1.1-4.6-1.4-7.1-.6-1.8.5-3.3 1.5-4.4 2.8l-501.2-357c1.4-2.2 2-4.9 1.4-7.6l788.4-219.9v.1c.7 2.5 2.4 4.4 4.4 5.6l-281.5 576.6zm1049.3-502.4c.1.4.3.7.4 1l-1045.5 505.4c-.8-1.6-2.1-2.8-3.6-3.7l281.5-576.6c2.1 1 4.6 1.3 7 .6 3.8-1.1 6.4-4.4 6.9-8l753 77.4c-.2 1.2-.1 2.6.3 3.9zm-293-447.3c.8-.2 1.6-.6 2.3-1.1l295.3 437.2c-2.5 1.4-4.1 3.8-4.7 6.5l-753.1-77.4c.1-1.1 0-2.2-.3-3.3-.4-1.2-1-2.3-1.7-3.3l452.5-361.2c2.4 2.5 6.1 3.7 9.7 2.6zm-6.5-18.2c-2.8 1.2-4.8 3.5-5.6 6.2l-851.6-263.8c.4-1.8.4-3.6-.1-5.3l683.1-236.2c1.1 2.8 3.4 5.1 6.6 6 2.1.6 4.1.4 6-.2l161.6 493.3zm306.2-744.9l-462.5 237.4c-1.2-2.2-3.3-4-6-4.7-2.9-.8-5.8-.3-8.1 1.3l-266.8-378.2c1.7-1.3 3-3.1 3.6-5.2 0-.1.1-.3.1-.4l738.8 144c-.4 1.9 0 4 .9 5.8zm-.7-7.1c0 .1-.1.3-.1.4l-738.8-144c.7-4.3-1.6-8.6-5.5-10.5L1631 639.7c.3.1.7.2 1 .3 2.8.8 5.7.3 8-1.2l488.9 716.6c-1.7 1.4-3.1 3.2-3.7 5.5zm8.7-7.3c-1.6.1-3.1.7-4.4 1.5l-488.9-716.6c1.7-1.3 3.1-3.1 3.7-5.3L2092.4 746c-1.1 5.1 1.9 10.2 7 11.7 1 .3 1.9.4 2.9.4l31.6 595.5zM2100 738.4c-3.4.8-6.3 3.3-7.3 6.9l-448.1-112.8c.8-3.8-.7-7.6-3.6-9.9l339.9-473c.8.6 1.8 1 2.8 1.3 1.6.4 3.1.5 4.6.2L2100 738.4z"/><path clip-path="url(#b)" fill="#E6E7E8" d="M4216.5-435.3c-4.3-1.2-8.8.8-11 4.4L3327-909.6c1-2.1 1.2-4.6.5-7-1.6-5.2-7.2-8.1-12.4-6.5-3.6 1.1-6.1 4.2-6.8 7.7l-587.1-50.8c0-1-.1-2.1-.4-3.2-1.6-5.2-7.2-8.1-12.4-6.5-5 1.5-7.8 6.7-6.7 11.6l-652.1 187.4c-1.7-5-7.2-7.8-12.3-6.3-4.3 1.3-7 5.3-6.9 9.6l-541.7 40.9c-.1-.6-.2-1.2-.4-1.8-1.6-5.2-7.2-8.1-12.4-6.5-5.2 1.6-8.1 7.2-6.5 12.4v.1l-674 260.3c-.1-.3-.2-.6-.3-.8-2.4-5-8.3-7.1-13.2-4.7-4.9 2.3-7 8.2-4.8 13.1L-205.2 33.7c-2.5-4.6-8.2-6.5-13-4.2-5 2.4-7.1 8.3-4.7 13.2.9 1.8 2.2 3.2 3.7 4.2l-359.9 626.8c-2.7-1.4-6-1.6-8.9-.2-5 2.4-7.1 8.3-4.7 13.2 1.1 2.2 2.9 3.9 5 4.8l-192.8 482.8c-2.3-.8-5-.7-7.4.4-5 2.4-7.1 8.3-4.7 13.2 2.4 5 8.3 7.1 13.2 4.7.9-.4 1.7-1 2.4-1.6l415 428.4c-2.8 2.9-3.7 7.3-1.8 11.2 2.4 4.9 8.3 7.1 13.2 4.7 1.3-.6 2.4-1.5 3.3-2.6l470.1 369.5c-1.9 2.8-2.3 6.5-.7 9.8 2.4 5 8.3 7.1 13.2 4.7l.6-.3L540 2678.1c-3.8 2.7-5.2 7.9-3.1 12.3 2.4 5 8.3 7.1 13.2 4.7.9-.4 1.7-1 2.4-1.6l415 428.4c-2.8 2.9-3.7 7.3-1.8 11.2 2.3 4.9 8.3 7.1 13.2 4.7 1.3-.6 2.4-1.5 3.3-2.6l470.1 369.5c-1.9 2.8-2.3 6.5-.7 9.8 2.4 5 8.3 7.1 13.2 4.7 4.6-2.2 6.7-7.3 5.2-12l966.3-459.4c2.5 4.7 8.2 6.7 13.1 4.4 4.9-2.4 7.1-8.2 4.7-13.2l871.5-499c2.3 3.6 6.8 5.5 11.1 4.1 5.1-1.6 8-7 6.4-12.2-.1-.4-.3-.8-.5-1.1L4381.1 2011c2.2 4 6.9 6.1 11.4 4.7 5.1-1.6 8-7 6.4-12.2-1.6-5.1-7-8-12.2-6.4-.5.1-.9.4-1.3.6l-301.3-433.2c3.2-2.4 4.7-6.6 3.5-10.6-1.6-5.1-7-8-12.2-6.4-.1 0-.2.1-.2.1l-168.4-491.1c2.6-1.2 4.7-3.5 5.5-6.4.6-2.4.3-4.8-.7-6.9l459.2-243.7c1.3 2.1 3.3 3.8 5.9 4.4 5.3 1.4 10.7-1.7 12.2-7.1 1.4-5.3-1.7-10.7-7-12.2-1-.3-1.9-.4-2.9-.3l-39.8-595.1c4-.4 7.5-3.2 8.6-7.3 1.4-5.3-1.8-10.7-7.1-12.2-1.4-.4-2.8-.4-4.2-.2l-119.9-585.8c3.2-.9 5.9-3.5 6.9-7 1.4-5.2-1.7-10.6-7-12zM4070.9 1563l-447.5 367.4c-2.5-2.6-6.2-3.7-9.9-2.6-.8.2-1.5.6-2.1 1L3210 1307.9c1.7-1.2 3-2.9 3.7-5l855.2 252.1c-.3 1.5-.3 3.1.2 4.7.3 1.2 1 2.4 1.8 3.3zm-1267.8 614.2c0 .1 0 .1 0 0l-607.6 316.4c-2.1-3.7-6.2-5.6-10.2-4.9l-97.6-508.7c.7-.2 1.4-.4 2-.7 2.4-1.1 4.1-3.1 5-5.4l707.7 196.8c-.5 2.1-.3 4.4.7 6.5zm-625.2 325.6c.3.6.7 1.2 1.1 1.8l-355.5 290.2a9.49 9.49 0 0 0-4.5-2.9l104.2-384.4c2.3.7 4.8.6 7.1-.5s4-2.9 4.9-5.1l242.3 93.5c-.9 2.3-.8 4.9.4 7.4zM746.9 472.3c1.1 2.3 3 4 5.1 4.9L599.1 886c-2.2-.6-4.7-.5-6.9.6l-1.5.9L209 302.8c1.8-1.2 3-2.9 3.7-4.9l533.6 167.4c-.6 2.3-.5 4.7.6 7zm18-8.5c-.5-1-1.1-1.9-1.9-2.7l421.1-507.9c2.6 2 6.2 2.7 9.5 1.5l284.9 706.9c-.1 0-.2.1-.2.1-2.6 1.2-4.4 3.4-5.2 6L765.4 470.9c.7-2.3.6-4.8-.5-7.1zm434.3-522.7c-.4-.8-.9-1.6-1.5-2.2l314.9-314.3c2.5 2.1 6 2.9 9.3 1.9.4-.1.7-.3 1.1-.5l192.2 481c-2.6.9-4.6 2.8-5.7 5.1L1199.8-52c.6-2.3.5-4.7-.6-6.9zM2714.3-957c2.4-.8 4.4-2.4 5.6-4.4L3152-710.3c-.3.6-.6 1.3-.8 2-.6 2.1-.4 4.2.3 6.1l-824.4 418.4c-.8-1.5-2.1-2.8-3.6-3.7l383.3-670.1c2.3 1.1 4.9 1.4 7.5.6zm-185.5 2400.4c-2.3-5-8.3-7.1-13.2-4.7-.9.4-1.7 1-2.5 1.6l-389.6-396.5c.8-1 1.5-2.2 1.9-3.6l1069.1 257.7c-.3 1.4-.2 2.8 0 4.1l-665 143.9c-.1-.9-.4-1.7-.7-2.5zm-18 8.5c.6 1.2 1.4 2.3 2.4 3.2l-421.1 507.8c-1.6-1.5-3.7-2.3-5.9-2.5l30.4-913c.1 0 .3-.1.4-.1.2 0 .4-.1.6-.1.3-.1.7-.1 1-.2.4-.1.7-.2 1.1-.4.1 0 .2-.1.3-.1.1 0 .1-.1.2-.1 1.1-.5 2.1-1.2 2.9-2.1l389.6 396.5c-2.9 2.9-3.7 7.3-1.9 11.1zm-1287.1 843.3c-.8-1.7-2-3-3.4-3.9l307.5-485.7c2.7 1.6 6.2 1.9 9.3.4.3-.1.5-.3.8-.4l381.8 584.7c-2.1 1.7-3.3 4.1-3.6 6.7l-691.6-96.4c.3-1.8 0-3.7-.8-5.4zM848.3 1000.5c.3.6.7 1.2 1.1 1.8l-355.5 290.2a9.49 9.49 0 0 0-4.5-2.9l104.2-384.4c2.3.7 4.8.6 7.1-.5s4-2.9 4.9-5.1L847.9 993c-.8 2.4-.8 5 .4 7.5zm-352.9 294.3c-.3-.6-.7-1.2-1.1-1.7l355.5-290.2c2.8 3.2 7.4 4.3 11.4 2.6L1111 1532c-2.1 1.1-3.7 2.9-4.6 4.9l-610.6-234.7c.8-2.3.8-5-.4-7.4zM866.3 992l607.6-316.4c1.1 1.9 2.6 3.3 4.5 4.1l-358.6 852.1c-.1 0-.1 0-.2-.1-.5-.2-1-.4-1.5-.5-.2 0-.3-.1-.5-.1-.5-.1-1-.2-1.5-.2h-.6c-.5 0-.9 0-1.4.1-.2 0-.4.1-.6.1-.4.1-.8.2-1.2.4-.2.1-.4.1-.7.2L861.9 1005c4.7-2.4 6.7-8.2 4.4-13zm662.4-1373.3l779.9 101.1c-.3 2.2.2 4.3 1.3 6.2l-583.7 384.3c-2.4-3-6.3-4.5-10.2-3.5l-192.3-481.1c2.7-1.5 4.4-4.1 5-7zm1472 266.5l-254.3 451.3c-.6-.3-1.3-.6-2-.8-2.6-.7-5.2-.3-7.3.9L2324.3-271c1.8-1.3 3.1-3.2 3.7-5.5l668.1 151.4c-.7 4.1 1.2 8.2 4.6 10.3zm475.5 5.5l-328 225.9c-1.3-2-3.3-3.6-5.8-4.2-2.4-.7-4.9-.3-7 .7L3011-114.7c2.2-1.3 3.8-3.4 4.5-6 .2-.7.3-1.4.3-2l458.8 8.3c.1 1.8.7 3.6 1.6 5.1zm-341.4 222.8c-2.2 1.3-3.8 3.4-4.5 6-.7 2.7-.3 5.4 1 7.6l-380.9 213.1c-.8-1.4-1.9-2.5-3.3-3.4l254.3-451.3c.6.3 1.3.6 2 .8 2.5.7 4.9.3 7-.7l124.4 227.9zM2073.7 473.2c4-.4 7.4-3.2 8.5-7.3.4-1.3.4-2.7.2-3.9L2732 346.7c.3 2.2 1.3 4.2 2.9 5.7l-613.3 677c-.9-.7-2-1.2-3.2-1.5-1-.3-2-.3-3-.3h-.8l-40.9-554.4zm40.2 554.5c-.1 0-.1.1-.2.1-.8.2-1.5.4-2.3.7-1.8.9-3.3 2.2-4.2 3.8L1491 675.8c1.4-2.3 1.8-5.2 1-7.9l571.4-200.7c1.2 2.7 3.5 5 6.6 5.8 1 .3 2 .4 2.9.3l41 554.4zm621.5-674.8c1.1.9 2.4 1.6 3.8 2 2.7.7 5.4.3 7.6-1l299 472.7c-1.9 1.3-3.4 3.2-4 5.6-.4 1.5-.4 2.9-.2 4.3L2125.5 1035c-.5-2-1.7-3.9-3.3-5.2l613.2-676.9zm12.1.6c1.9-1.3 3.4-3.2 4-5.6.7-2.5.3-5-.7-7.1l381-213.1c1.3 1.9 3.3 3.4 5.7 4 .6.2 1.1.2 1.7.3l-86.6 692.9c-2.1-.2-4.2.3-6 1.3l-299.1-472.7zm-11-16.6c-2 1.3-3.6 3.3-4.2 5.8-.3 1.1-.4 2.2-.3 3.2l-649.6 115.3c-.7-3.2-3-6-6.3-7.2l239.6-723.5c.1 0 .2.1.2.1 2.8.7 5.6.2 7.8-1.2l412.8 607.5zm-661.1 116.9c-.1 0-.2-.1-.2-.1-3.4-.9-6.8.1-9.2 2.3l-339.7-333.6c1.9-2.5 2.7-5.8 1.7-9-.3-.9-.7-1.7-1.2-2.5l583.7-384.3c1.1 1.6 2.7 2.9 4.7 3.7l-239.8 723.5zm-354.1-328c1.7-.5 3.2-1.5 4.3-2.8l339.7 333.6c-1.1 1.2-2 2.6-2.4 4.2-.5 1.9-.4 3.9.2 5.7l-571.4 200.7c-.1-.2-.1-.5-.3-.7-1.1-2.4-3.1-4.1-5.4-5l228.7-535.9c2.1.7 4.4.9 6.6.2zm385.6 907.2c-1.3 2.6-1.5 5.8-.2 8.6L1124.4 1536c-.1-.3-.3-.5-.5-.8 0-.1-.1-.1-.1-.2-.3-.4-.6-.7-.9-1.1l-.1-.1c-.7-.7-1.5-1.3-2.3-1.8L1479 680c2.4.9 5.2.9 7.8-.3 1.6-.8 2.8-1.9 3.8-3.2l616.3 356.5zm-982.2 503.7l982.3-494.4c.6 1.1 1.4 2.1 2.4 2.9l-570.7 743.7c-2.8-2-6.7-2.5-10-.9-1.7.8-3 2-4 3.5l-400.3-245.8c.3-.4.4-.9.6-1.4 0-.1.1-.1.1-.2.2-.5.3-1.1.4-1.6 0-.1 0-.2.1-.4.1-.5.1-1.1.1-1.6v-.3c0-.6-.1-1.2-.2-1.7-.4-.6-.6-1.2-.8-1.8zm-7.4 13.9c.2 0 .3-.1.5-.1.1 0 .3-.1.4-.1.6-.2 1.2-.3 1.7-.6.2-.1.4-.3.6-.4.4-.3.9-.5 1.3-.8.3-.2.6-.5.9-.8.3-.3.5-.5.7-.8.2-.2.4-.4.5-.6l400.3 245.8c-1.5 2.7-1.8 6.1-.3 9.1.8 1.7 2 3 3.4 3.9l-307.5 485.7c-1.8-1-3.9-1.5-6-1.3l-96.5-739zm421.2 254.5c1.8-1.2 3-2.9 3.7-4.9l533.6 167.4c-.6 2.2-.5 4.7.6 6.9 1.1 2.3 3 4 5.1 4.9l-152.9 408.9c-2.2-.6-4.7-.5-6.9.6l-1.5.9-381.7-584.7zm537.6 161.9l-533.6-167.4c.6-2.2.5-4.6-.6-6.9-.6-1.4-1.6-2.5-2.7-3.4l570.7-743.7c1.7 1.2 3.8 1.9 5.9 1.8l-30.4 912.9c-1.4 0-2.9.3-4.2.9-2.5 1.3-4.3 3.4-5.1 5.8zm49.4-927.5c.3-1.3.3-2.5.1-3.7l916.2-198.6c.9 3.4 3.5 6.2 7.1 7.2 1.8.5 3.6.4 5.3-.1l146.6 446.3c-2.9 1.1-5.3 3.5-6.1 6.6l-1069.2-257.7zM3054.9 844c2.9-1.1 5.3-3.5 6.2-6.8.5-1.8.4-3.5 0-5.2l548.6-171.8c.7 1.9 2 3.6 3.7 4.8l-404.1 626.2c-.8-.5-1.6-.8-2.5-1.1-1.8-.5-3.6-.4-5.3.1L3054.9 844zm554.5-189.6c-.5 1.8-.4 3.5 0 5.2l-548.6 171.8c-1.1-3-3.5-5.4-6.8-6.3-.3-.1-.6-.1-.9-.2l86.7-692.9c2.7 0 5.2-1 7.1-2.8l465.3 520.6c-1.3 1.2-2.3 2.8-2.8 4.6zm-462.1-525.7c1-1.1 1.8-2.5 2.2-4 .7-2.6.3-5.2-.9-7.3l328.1-226c1.3 1.7 3.2 3.1 5.4 3.7 1.2.3 2.4.4 3.6.3l131.6 751.9c-1.7.3-3.2 1-4.5 2.1l-465.5-520.7zm332.2-251.9c-2.2 1.3-3.8 3.4-4.5 6-.2.7-.3 1.4-.3 2l-458.8-8.3c-.1-4.2-2.8-8.1-7-9.3l149.8-563.3c2.3.5 4.7.2 6.7-.8l314.1 573.7zm-313.6-574.1c2.1-1.2 3.7-3.2 4.4-5.7l1034.1 274.1c-.1.2-.1.4-.2.6-.5 1.8-.4 3.7.1 5.3l-711.1 303.5c-1.3-2.3-3.4-4.1-6.1-4.8-2.4-.6-4.9-.3-7 .7l-314.2-573.7zM3008.1-133c-5.2-1.2-10.4 1.9-11.8 7.1l-668.1-151.4c.4-2.1.1-4.2-.7-6l824.4-418.4c1.1 2.5 3.3 4.5 6.1 5.3L3008.1-133zm-301.9-825l-383.3 670.1c-.6-.3-1.2-.5-1.9-.7-2.4-.6-4.7-.3-6.7.6l-268.5-477.4c3.4-2.3 5.2-6.5 4.1-10.7L2702-963.5c.6 2.4 2.2 4.2 4.2 5.5zm-663 193.8c.7-.2 1.3-.5 1.9-.8l268.4 477.3c-2.2 1.3-4 3.4-4.7 6.1-.1.2-.1.4-.1.7L1528.8-382c.1-1.3 0-2.6-.4-4-.3-.9-.7-1.7-1.2-2.4l505.4-379c2.5 3.1 6.6 4.5 10.6 3.2zm-334 877c-.8 2-1 4.3-.3 6.5.9 2.7 2.8 4.8 5.2 6l-228.7 536c-2-.6-4.2-.6-6.3.1l-284.8-707c.1 0 .2-.1.2-.1 2.5-1.2 4.2-3.2 5.1-5.6l509.6 164.1zm-236.3 555.6c-.5 2.1-.3 4.4.7 6.6L865.9 991.3c-2.1-3.7-6.2-5.6-10.2-4.9l-97.6-508.7c.7-.2 1.4-.4 2-.7 2.4-1.1 4.1-3.1 5-5.4l707.8 196.8zM855.1 986.5c-.7.2-1.4.4-2 .7-2.3 1.1-4 2.9-4.9 5.1l-242.3-93.5c.8-2.4.8-5.1-.4-7.5-1.2-2.5-3.3-4.3-5.7-5.1l152.9-408.8c1.5.5 3.1.7 4.7.4l97.7 508.7zm-264.9-98.6c-2.1 1.7-3.3 4.1-3.6 6.7L-105 798.2c.2-1.8-.1-3.6-.9-5.3-.8-1.7-2-3-3.4-3.9l307.5-485.7c2.7 1.6 6.2 1.9 9.3.4.3-.1.5-.3.8-.4l381.9 584.6zm-695.3-89l691.6 96.4c0 1.5.3 3.1.9 4.5 1.1 2.4 3.1 4.1 5.4 5l-104.2 384.5c-2.1-.5-4.4-.3-6.5.7-1.1.5-2.1 1.2-2.9 2.1l-586.4-488.7c1.1-1.3 1.8-2.8 2.1-4.5zm584 493.7c-2 2.4-2.8 5.6-2.1 8.6l-392.4 104c-.1-.5-.3-.9-.5-1.4-2.1-4.4-7-6.6-11.6-5.3l-183.8-592c.3-.1.7-.3 1-.4 1.2-.6 2.2-1.3 3-2.2l586.4 488.7zm11.8 15.4c2.3-1.1 4-2.9 4.9-5.1l610.6 234.7c-.8 2.3-.7 4.8.3 7.2l-966.2 459.3c-.1-.2-.1-.4-.2-.6-.8-1.7-2-3.1-3.5-4L483 1308.3c2.3.9 5.1.9 7.7-.3zm-350.2 696.8l966.3-459.4c.9 1.6 2.1 2.9 3.6 3.9L750.5 2176c-2.7-1.4-6-1.6-8.9-.2-2.6 1.2-4.4 3.5-5.2 6.1l-595.6-171.7c.3-1.8.3-3.7-.3-5.4zm609.6 189c2.7-1.3 4.5-3.6 5.3-6.3l449.6 110c-.4 2.1-.2 4.2.7 6.3.1.1.1.3.2.4l-651.7 376.7c-1.1-1.8-2.8-3.1-4.6-3.9l192.8-482.8c2.5.8 5.2.7 7.7-.4zm-195.3 488c-.1-.1-.1-.3-.2-.4l651.7-376.7c2.3 3.7 6.8 5.5 11 4.3l183.8 592c-.3.1-.7.2-1 .4-2.6 1.3-4.5 3.5-5.2 6.1l-839.3-219.3c.4-2 .2-4.3-.8-6.4zm655.7-391.3c-2.7 1.3-4.5 3.6-5.3 6.3l-449.6-110c.4-2 .2-4.2-.7-6.3-.8-1.8-2.2-3.2-3.7-4.2l359.9-626.7c.8.4 1.7.7 2.6.9h.2c.9.2 1.8.2 2.7.1h.1l96.5 739c-1 .2-1.9.5-2.7.9zm7.5 18.4c.3-.1.7-.2 1-.4 1.2-.6 2.2-1.3 3-2.2l586.4 488.6c-2 2.4-2.8 5.6-2.1 8.7l-392.4 104c-.1-.5-.3-.9-.5-1.4-2.1-4.4-7-6.6-11.6-5.3l-183.8-592zm4.4-3.1c1.1-1.3 1.8-2.9 2.1-4.6l691.6 96.4c0 1.5.3 3.1.9 4.5 1.1 2.4 3.1 4.1 5.4 5l-104.2 384.5c-2.1-.5-4.4-.3-6.5.7-1.1.5-2.1 1.2-2.9 2.1l-586.4-488.6zm713 95.4c.8-2.4.8-5.1-.4-7.5-1.2-2.5-3.3-4.3-5.7-5.1l152.9-408.8c1.5.5 3.1.7 4.7.4l97.6 508.7c-.7.2-1.4.4-2 .7-2.3 1.1-4 2.9-4.9 5.1l-242.2-93.5zm159.5-428c.7-2.3.6-4.8-.5-7.2-.5-1-1.1-1.9-1.9-2.6l421.1-507.9c2.6 2 6.2 2.7 9.5 1.5l284.9 706.9c-.1 0-.2.1-.2.1-2.6 1.2-4.4 3.4-5.2 6l-707.7-196.8zm428.9-516.5c.1 0 .2-.1.2-.1 3.9-1.9 6-6 5.6-10.1l665.1-143.9c.8 2.7 2.7 5 5.4 6.2l-384.4 854.8c-2.2-.8-4.6-.9-6.9-.1l-285-706.8zm677-147.6l.9.3c2.7.7 5.5.2 7.7-1.1l401.4 620.9c-3.1 2.2-4.7 6.1-3.8 9.9l-785.4 230.8c-.1-.4-.2-.8-.4-1.2-1-2.2-2.7-3.7-4.7-4.7l384.3-854.9zm9.1-17.4L3614 665.5c.8.5 1.6.8 2.5 1.1 2.9.8 5.8.2 8.1-1.4l272 374.5c-1.6 1.3-2.9 3.1-3.5 5.3-.5 1.9-.4 3.8.1 5.6l-679.8 245.6c-.7-1.8-1.9-3.4-3.5-4.5zm407.9-644.6l-131.6-751.9c3.1-.5 5.8-2.4 7.2-5.2l366.7 174.3c-.2.4-.4.9-.5 1.4-1.3 4.7 1.1 9.6 5.4 11.6l-242.4 570.4c-.3-.1-.7-.2-1-.3-1.3-.4-2.6-.5-3.8-.3zm242.6-583.5l-366.7-174.3c.2-.5.4-.9.5-1.4.6-2.3.4-4.7-.6-6.7l711-303.5c.7 1.8 1.8 3.3 3.4 4.5L3874.6 59.9c-.9-.6-1.8-1-2.8-1.3-4.6-1.2-9.3 1-11.4 5zm-689.9-767.2c.9-3.8-.6-7.6-3.4-9.9L3312-905.8c2.5 1.9 5.8 2.6 9 1.6 2.5-.8 4.5-2.5 5.7-4.7l878.4 478.7c-.1.2-.3.5-.4.7L3170.5-703.6zm137.7-211.1c-.1 1.3 0 2.6.4 3.9.5 1.8 1.6 3.2 2.9 4.4L3166.6-714c-.9-.6-2-1.2-3.1-1.5-4.4-1.2-8.8.8-11 4.4l-432.2-251.1c.5-1.1.9-2.2 1-3.4l586.9 50.9zm-1277.8 142c.1.7.2 1.3.4 2 .3 1 .8 1.9 1.3 2.7l-505.4 379c-1.9-2.4-4.7-3.8-7.8-3.8l-38.5-328.8c.5-.1.9-.1 1.4-.3 4.4-1.4 7.1-5.5 6.9-9.8l541.7-41zM795.7-467.5l674.1-260.1c1.7 4 5.7 6.5 9.9 6.1l38.5 328.7c-.7.1-1.5.2-2.2.4-3.8 1.2-6.4 4.5-6.9 8.2L796-463.6c.1-1.3 0-2.6-.3-3.9zm.2 4.6l713.3 79.4c-.1 1.1 0 2.3.4 3.4.5 1.6 1.4 3 2.6 4.1l-315 314.3c-2.9-2.8-7.3-3.8-11.2-1.9-.9.4-1.7 1-2.5 1.6L793.9-458.6c1-1.3 1.7-2.7 2-4.3zm-5.5 7.1c1.2-.6 2.2-1.3 3.1-2.3L1183-61.5c-2.7 2.9-3.6 7.3-1.8 11.1.6 1.2 1.4 2.3 2.4 3.2L762.5 460.6c-1.7-1.5-3.8-2.3-5.9-2.5l30.4-913c1.1-.1 2.3-.4 3.4-.9zm-4.1.9L755.9 458c-1.4 0-2.9.3-4.2.9-2.5 1.2-4.3 3.3-5.1 5.7L212.9 297.3c.6-2.2.5-4.7-.6-6.9-.6-1.4-1.6-2.5-2.7-3.4l570.7-743.7c1.8 1.2 3.8 1.9 6 1.8zM-204.9 34.4L777.4-460c.6 1.1 1.4 2.1 2.4 2.9L209.1 286.6c-2.8-2-6.7-2.5-10-.9-1.7.8-3 2-4 3.5L-205.3 43.4c1.6-2.7 1.8-6 .4-9zm-7.4 13.9c.9-.2 1.8-.4 2.6-.8 1.7-.8 3-2 4-3.5l400.3 245.8c-1.5 2.7-1.8 6.1-.3 9.2.8 1.7 2 3 3.4 3.9l-307.5 485.7c-1.8-1-3.9-1.5-6-1.3l-96.5-739zm-6.2-1c1.7.9 3.6 1.3 5.6 1.1l96.5 739c-.9.2-1.8.4-2.6.8-2.7 1.3-4.5 3.6-5.3 6.3l-449.6-110c.4-2 .2-4.2-.7-6.3-.9-1.8-2.2-3.2-3.7-4.2l359.8-626.7zm-556.2 1132.2c-.1-.1-.1-.3-.2-.4l651.7-376.7c2.3 3.7 6.8 5.5 11 4.3l183.8 592c-.3.1-.7.2-1 .4-2.6 1.3-4.5 3.5-5.2 6.1L-774 1186c.5-2.1.3-4.4-.7-6.5zm187.6-487.7c2.4.9 5.1.8 7.6-.4 2.7-1.3 4.5-3.6 5.3-6.3l449.6 110c-.4 2-.2 4.2.7 6.3.1.1.2.3.2.4l-651.7 376.7c-1.1-1.8-2.8-3.1-4.6-3.9l192.9-482.8zm228 925.6c-.9.4-1.7 1-2.4 1.6l-415-428.4c1.1-1.1 1.9-2.5 2.4-4l839.3 219.3c-.5 2.1-.3 4.3.7 6.4l-412 209.3c-2.6-4.6-8.3-6.4-13-4.2zM129.8 1998c-1 .1-2 .4-3 .9-1.5.7-2.7 1.7-3.6 2.9l-470.1-369.5c2.1-2.8 2.6-6.7 1-10l412-209.3c1.9 3.4 5.5 5.3 9.3 5.1l54.4 579.9zm-53.7-580c1-.1 2-.4 3-.9 4.3-2 6.5-6.7 5.4-11.2l392.4-104c.1.5.3.9.5 1.4 1 2.2 2.8 3.8 4.8 4.8l-346.3 691.1c-1.7-.9-3.5-1.4-5.5-1.3L76.1 1418zm465.5 1259.1l-.9.6-404.1-661.6c1.9-1.3 3.3-3.1 4-5.2l595.7 171.8c-.5 2.1-.3 4.4.7 6.5 1.1 2.2 2.9 3.9 5 4.8l-193 482.7c-2.4-.8-5-.7-7.4.4zm428.8 442.6c-.9.4-1.7 1-2.4 1.6L553 2693c1.1-1.1 1.9-2.5 2.4-4l839.3 219.3c-.5 2.1-.3 4.3.7 6.4l-412 209.3c-2.6-4.7-8.2-6.5-13-4.3zm486 381.4c-1.5.7-2.7 1.7-3.6 2.9l-470.1-369.5c2.1-2.8 2.6-6.7 1-10.1l412-209.3c1.9 3.4 5.5 5.3 9.3 5.1l54.4 579.9c-1.1.3-2.1.6-3 1zm9.1.4c-1.7-.9-3.5-1.4-5.5-1.3l-54.4-579.9c1-.1 2-.4 3-.9 4.3-2 6.5-6.7 5.4-11.2l392.4-104c.1.5.3.9.5 1.4 1 2.2 2.8 3.8 4.8 4.8l-346.2 691.1zm970.5-454.4l-966.2 459.3c-.1-.2-.1-.4-.2-.6-.8-1.7-2-3.1-3.5-4l346.4-691.2c2.4.9 5.2.9 7.8-.3 2.3-1.1 4-2.9 4.9-5.1l610.6 234.7c-.8 2.3-.8 4.8.2 7.2zm0-7.9l-610.6-234.7c.8-2.4.7-5.1-.4-7.5-.3-.6-.7-1.2-1.1-1.7l355.5-290.2c2.8 3.2 7.4 4.3 11.4 2.6l249.8 526.7c-2.2 1-3.7 2.8-4.6 4.8zm5.2-5.2l-249.8-526.7c4.7-2.4 6.7-8.2 4.4-13.1l607.6-316.4c1.1 1.9 2.6 3.3 4.5 4.1L2449.3 3034c-2.4-1-5.4-1.2-8.1 0zm883.3-496.4c.2.6.4 1.1.7 1.6l-871.4 499c-.9-1.7-2.3-2.9-3.8-3.8l358.6-852.2c2.4.9 5.2.9 7.8-.3 1.5-.7 2.8-1.8 3.7-3.1l506 350.1c-1.9 2.4-2.5 5.6-1.6 8.7zm13.5-11.6c-2.1-1-4.7-1.3-7.1-.6-1.8.6-3.3 1.6-4.4 2.9l-506-350.1c1.4-2.2 1.9-5 1.3-7.6l785.3-230.7v.1c.8 2.5 2.4 4.4 4.5 5.6L3338 2526zm1042.3-516.7c.1.4.3.7.4 1L3342.3 2530c-.9-1.6-2.1-2.8-3.6-3.7l273.6-580.4c2.1 1 4.6 1.2 7 .5 3.8-1.2 6.3-4.4 6.8-8.1l754 67c-.3 1.3-.2 2.7.2 4zm-299.1-443.2c.8-.3 1.6-.7 2.3-1.1l301.2 433.1c-2.4 1.4-4.1 3.9-4.6 6.6l-754.1-67.1c0-1.1-.1-2.2-.4-3.3-.4-1.2-1-2.3-1.8-3.3l447.5-367.4c2.6 2.5 6.3 3.6 9.9 2.5zm-6.7-18.2c-2.8 1.2-4.7 3.5-5.5 6.3l-855.1-252.1c.4-1.8.4-3.6-.2-5.3l679.8-245.6c1.1 2.8 3.5 5.1 6.7 5.9 2.1.6 4.2.4 6-.3l168.3 491.1zm295.9-749l-459.2 243.7c-1.3-2.2-3.4-3.9-6.1-4.6-2.9-.8-5.8-.2-8.1 1.4l-272-374.5c1.7-1.3 2.9-3.1 3.5-5.3 0-.1.1-.3.1-.4L4369.3 793c-.2 2 .2 4.1 1.1 5.9zm-.8-7.1c0 .1-.1.3-.1.4l-740.7-133.8c.6-4.4-1.7-8.6-5.6-10.4l242.4-570.4c.3.1.7.2 1 .3 2.8.8 5.7.2 7.9-1.3l498.7 709.8c-1.7 1.3-3 3.1-3.6 5.4zm8.6-7.4c-1.6.2-3.1.7-4.4 1.6L3875.2 76.2c1.7-1.3 3-3.1 3.6-5.3l449.6 106.6c-1 5.1 2.1 10.2 7.2 11.6 1 .3 1.9.4 2.9.3l39.7 595zm-42.4-614.7c-3.4.8-6.3 3.4-7.2 7L3878.9 70.2c.8-3.8-.8-7.6-3.8-9.9l333.4-477.6c.8.5 1.8 1 2.8 1.3 1.6.4 3.2.4 4.6.1l119.9 585.6z"/><path clip-path="url(#b)" fill="#A7A9AC" d="M4753.9-567.9c-4.3-1.2-8.8.6-11.1 4.3L3871-1054.3c1-2.1 1.3-4.6.6-7-1.6-5.2-7.1-8.2-12.3-6.7-3.7 1.1-6.2 4.1-6.9 7.6l-586.4-58.9c0-1 0-2.1-.4-3.2-1.6-5.2-7.1-8.2-12.3-6.7-5 1.5-7.9 6.5-6.8 11.6l-654.6 178.5c-1.7-5.1-7-7.9-12.2-6.4-4.3 1.3-7.1 5.2-7 9.5l-542.2 33.5-.3-1.8c-1.5-5.2-7.1-8.2-12.3-6.7-5.2 1.6-8.2 7.1-6.7 12.3v.1l-677.6 250.9-.3-.9c-2.3-5-8.2-7.2-13.2-4.9s-7.1 8.1-5 13.1l-989 480.9c-2.4-4.6-8.1-6.6-12.9-4.4-5 2.3-7.2 8.2-4.9 13.2.8 1.8 2.1 3.2 3.7 4.2L-56.4 475.2c-2.7-1.5-5.9-1.7-8.9-.3-5 2.3-7.2 8.2-4.9 13.2 1 2.3 2.8 3.9 4.9 4.9l-199.4 480.1c-2.3-.8-5-.8-7.4.3-5 2.3-7.2 8.2-4.9 13.2s8.2 7.2 13.2 4.9c.9-.4 1.7-.9 2.4-1.6l409.1 434c-2.8 2.8-3.8 7.3-2 11.1 2.3 5 8.2 7.2 13.2 4.9 1.3-.6 2.5-1.5 3.4-2.5l465 375.9c-1.9 2.8-2.4 6.5-.9 9.8 2.3 5 8.2 7.2 13.2 4.9l.6-.3 395 667.1c-3.8 2.7-5.3 7.8-3.3 12.2 2.3 5 8.2 7.2 13.2 4.9.9-.4 1.7-.9 2.4-1.6l409.1 434c-2.8 2.8-3.8 7.3-2 11.1 2.3 5 8.2 7.2 13.2 4.9 1.3-.6 2.5-1.5 3.4-2.5l465 375.9c-1.9 2.8-2.4 6.5-.9 9.8 2.3 5 8.2 7.2 13.2 4.9 4.6-2.1 6.8-7.2 5.4-11.9l972.5-446.1c2.4 4.8 8.1 6.8 13 4.6 5-2.3 7.2-8.1 4.9-13.1l878.2-487c2.2 3.7 6.7 5.6 11 4.3 5.1-1.5 8.1-6.9 6.6-12.1-.1-.4-.3-.8-.5-1.1l1045.5-505.4c2.1 4 6.8 6.2 11.4 4.8 5.1-1.5 8.1-6.9 6.6-12.1-1.5-5.1-6.9-8.1-12.1-6.6-.5.1-.9.3-1.3.5L4594.1 1430c3.2-2.4 4.8-6.5 3.6-10.6-1.5-5.1-6.9-8.1-12.1-6.6-.1 0-.2.1-.2.1l-161.7-493.3c2.6-1.2 4.7-3.4 5.5-6.4.7-2.4.4-4.8-.6-6.9l462.5-237.4c1.3 2.1 3.3 3.8 5.9 4.5 5.3 1.5 10.8-1.6 12.2-6.9 1.5-5.3-1.6-10.8-6.9-12.3-1-.3-1.9-.4-2.9-.4L4868 58.4c4-.4 7.5-3.1 8.7-7.2 1.5-5.3-1.6-10.8-6.9-12.3-1.4-.4-2.8-.5-4.2-.2l-111.8-587.4c3.3-.9 6-3.4 7-6.9 1.5-5.3-1.6-10.8-6.9-12.3zm-173 1996.2l-452.5 361.2c-2.4-2.6-6.2-3.8-9.8-2.7-.8.2-1.5.6-2.1.9l-392.8-626.4c1.7-1.2 3-2.9 3.7-5l851.6 263.8c-.3 1.5-.3 3.1.2 4.7.3 1.4.9 2.5 1.7 3.5zm-1276.1 596.8l-611.9 308c-2-3.7-6.1-5.6-10.1-5.1l-90.7-510c.7-.2 1.4-.4 2.1-.7 2.4-1.1 4.2-3.1 5.1-5.3l704.9 206.5c-.5 2.1-.4 4.4.6 6.6zM2675.2 2342c.3.6.6 1.2 1 1.8l-359.4 285.3c-1.2-1.4-2.8-2.4-4.5-3l109.5-383c2.3.7 4.8.6 7.1-.4s4-2.9 4.9-5l241 96.8c-.8 2.3-.8 5 .4 7.5zm-1403-2050c1.1 2.3 2.9 4 5.1 5l-158.5 406.7c-2.2-.6-4.6-.5-6.9.5-.5.2-1 .5-1.5.9L736.6 115.2c1.8-1.2 3.1-2.9 3.8-4.8l531.3 174.7c-.6 2.2-.5 4.7.5 6.9zm18.1-8.3c-.5-1-1.1-1.9-1.8-2.7l428-502c2.6 2.1 6.1 2.7 9.4 1.6l275.2 710.8c-.1 0-.2.1-.2.1-2.6 1.2-4.5 3.4-5.3 5.9l-704.9-206.5c.7-2.3.7-4.8-.4-7.2zm441.5-516.6c-.4-.9-.9-1.6-1.5-2.3l319.2-309.9c2.5 2.1 5.9 3 9.3 2 .4-.1.7-.3 1.1-.4L2245.4-60c-2.6.8-4.6 2.7-5.8 5l-507.4-171c.7-2.2.6-4.7-.4-6.9zM3259-1110.1c2.5-.7 4.4-2.3 5.6-4.4l428.7 257c-.3.6-.6 1.3-.8 1.9-.6 2.1-.5 4.2.2 6.1l-830.1 407.1c-.8-1.5-2-2.8-3.6-3.7l392.5-664.8c2.3 1.2 4.9 1.5 7.5.8zm-218.4 2397.6c-2.3-5-8.2-7.2-13.2-4.9-.9.4-1.8 1-2.5 1.6l-384.1-401.9c.9-1 1.5-2.2 1.9-3.6l1065.4 272.4c-.3 1.4-.3 2.7 0 4.1l-666.9 134.7c-.1-.8-.3-1.6-.6-2.4zm-18.1 8.2c.6 1.3 1.4 2.3 2.3 3.2l-428 502c-1.6-1.5-3.7-2.4-5.9-2.6l42.9-912.5c.1 0 .3-.1.4-.1.2 0 .4-.1.7-.1.3-.1.7-.1 1-.2.4-.1.7-.2 1.1-.4.1 0 .2-.1.3-.1.1 0 .1-.1.2-.1 1.1-.5 2.1-1.2 2.9-2.1l384.1 401.8c-2.9 3-3.8 7.4-2 11.2zm-1298.6 825.7c-.8-1.7-1.9-3-3.3-4l314.2-481.5c2.7 1.6 6.2 2 9.3.5.3-.1.5-.3.8-.4l373.7 589.9c-2.1 1.7-3.4 4.1-3.7 6.7l-690.2-105.9c.3-1.8 0-3.6-.8-5.3zM1366.3 821.6c.3.6.6 1.2 1 1.8L1008 1108.7c-1.2-1.4-2.8-2.4-4.5-3l109.5-383c2.3.7 4.8.6 7.1-.4s4-2.9 4.9-5l241 96.8c-.8 2.3-.8 5 .3 7.5zM1009.4 1111c-.3-.6-.6-1.2-1-1.8l359.4-285.3c2.7 3.2 7.3 4.4 11.4 2.7l242.6 530c-2.1 1.1-3.7 2.8-4.6 4.9l-607.4-243c.8-2.4.8-5.1-.4-7.5zm375-297.7l611.9-308c1 1.9 2.6 3.3 4.4 4.2l-370.2 847.1c-.1 0-.1 0-.2-.1-.5-.2-1-.4-1.5-.5-.2 0-.3-.1-.5-.1-.5-.1-1-.2-1.5-.2h-.6c-.5 0-.9 0-1.4.1-.2 0-.4 0-.7.1-.4.1-.8.2-1.2.4-.2.1-.4.1-.7.2l-242.6-530c5-2.6 7.1-8.3 4.8-13.2zm681.2-1364l778.5 111.8c-.3 2.2.2 4.3 1.2 6.2L2256.4-56.5c-2.3-3.1-6.3-4.6-10.2-3.7l-185.6-483.7c2.6-1.4 4.4-3.9 5-6.8zm1468.3 286.6l-260.5 447.7c-.6-.3-1.3-.6-2-.8-2.6-.7-5.2-.4-7.3.8l-404.4-613.2c1.8-1.3 3.2-3.1 3.8-5.4l666 160.5c-.9 4.1.9 8.3 4.4 10.4zm475.4 12.1L3678.2-30.6c-1.3-2-3.3-3.6-5.7-4.3-2.4-.7-4.9-.4-7 .6l-121.3-229.6c2.2-1.2 3.9-3.3 4.6-5.9.2-.7.3-1.3.3-2l458.7 14.6c0 1.8.5 3.6 1.5 5.2zM3664.8-33.9c-2.2 1.2-3.9 3.3-4.6 5.9-.7 2.7-.3 5.4.9 7.6l-383.8 207.8c-.8-1.4-1.9-2.5-3.3-3.4l260.5-447.7c.6.3 1.3.6 2 .8 2.4.7 4.9.4 7-.6l121.3 229.6zm-1066 345.1c4-.4 7.5-3.1 8.6-7.2.4-1.3.5-2.7.3-3.9l651.1-106.4c.3 2.2 1.3 4.2 2.8 5.8L2639 868c-.9-.7-2-1.2-3.2-1.6-1-.3-2-.3-3-.3h-.8l-33.2-554.9zm32.6 555c-.1 0-.1.1-.2.1-.8.1-1.5.4-2.3.7-1.8.8-3.3 2.2-4.3 3.8l-611.2-365c1.4-2.3 1.9-5.2 1.1-7.9L2588.7 305c1.1 2.8 3.4 5 6.5 5.9 1 .3 2 .4 2.9.4l33.3 554.9zm630.8-666.3c1.1.9 2.4 1.7 3.8 2.1 2.7.7 5.4.3 7.6-.9L3566 677.8c-1.9 1.3-3.4 3.2-4.1 5.6-.4 1.5-.5 2.9-.2 4.3l-918.8 186c-.5-2-1.6-3.9-3.2-5.3l622.5-668.5zm12 .8c1.9-1.3 3.4-3.2 4.1-5.6.7-2.5.4-4.9-.7-7.1l383.8-207.9c1.3 1.9 3.2 3.4 5.6 4.1.6.2 1.1.3 1.7.3l-96.1 691.6c-2.1-.2-4.2.2-6 1.2l-292.4-476.6zm-10.7-16.7c-2 1.3-3.6 3.3-4.3 5.7-.3 1.1-.4 2.2-.3 3.2l-651.2 106.4c-.6-3.3-2.9-6.1-6.2-7.3L2851-428.2c.1 0 .1.1.2.1 2.8.8 5.6.3 7.9-1.1L3263.5 184zm-662.7 107.8c-.1 0-.2-.1-.2-.1-3.4-1-6.8 0-9.3 2.2L2256.2-44.3c2-2.4 2.8-5.8 1.8-9-.3-.9-.7-1.7-1.2-2.5L2845.7-432c1.1 1.6 2.7 3 4.6 3.7l-249.5 720.1zM2251.3-41.1c1.7-.5 3.2-1.5 4.4-2.7l335.1 338.2c-1.1 1.1-2 2.5-2.5 4.2-.5 1.9-.5 3.9.1 5.7l-574.1 192.8c-.1-.2-.1-.5-.3-.7-1.1-2.4-3-4.1-5.3-5.1l236-532.7c2.1.8 4.4 1 6.6.3zm373 912.5c-1.4 2.6-1.6 5.7-.3 8.6l-989 480.9c-.1-.3-.3-.5-.5-.8 0-.1-.1-.1-.1-.2-.3-.4-.5-.7-.9-1.1l-.1-.1c-.7-.7-1.4-1.4-2.3-1.8l370.2-847.1c2.4 1 5.2 1 7.8-.2 1.6-.7 2.9-1.9 3.8-3.2l611.4 365zm-989 490.1l989-480.9c.6 1.1 1.4 2.1 2.3 2.9l-580.9 735.8c-2.8-2.1-6.6-2.6-10-1-1.7.8-3.1 2-4.1 3.4l-396.9-251.2c.3-.4.4-.9.6-1.4 0-.1.1-.1.1-.2.2-.5.3-1 .4-1.6 0-.1 0-.2.1-.4.1-.5.1-1.1.1-1.6v-.3c0-.6-.1-1.2-.2-1.7-.1-.6-.2-1.2-.5-1.8zm-7.6 13.8c.2 0 .3-.1.5-.1.1 0 .3-.1.4-.1.6-.1 1.2-.3 1.7-.6.2-.1.4-.3.6-.4.4-.3.9-.5 1.3-.8.3-.2.6-.5.9-.8.3-.3.5-.5.7-.8l.6-.6 396.9 251.2c-1.6 2.7-1.9 6.1-.5 9.1.8 1.7 1.9 3 3.3 4L1720 2117c-1.8-1.1-3.8-1.6-5.9-1.4l-86.4-740.3zm417.8 260.3c1.8-1.2 3.1-2.9 3.8-4.8l531.3 174.7c-.6 2.2-.5 4.6.5 6.9 1.1 2.3 2.9 4 5.1 5l-158.5 406.7c-2.2-.6-4.6-.5-6.9.5-.5.2-1 .5-1.5.9l-373.8-589.9zm535.2 169.3l-531.3-174.7c.6-2.2.5-4.6-.5-6.9-.6-1.4-1.5-2.5-2.6-3.4L2627.2 884c1.7 1.2 3.8 1.9 5.9 1.9l-42.9 912.4c-1.4 0-2.9.3-4.3.9-2.5 1.2-4.3 3.3-5.2 5.7zm62.2-926.8c.3-1.3.3-2.5.1-3.7l918.8-186c.8 3.4 3.4 6.3 7 7.3 1.8.5 3.6.5 5.3 0l140.4 448.3c-2.9 1-5.3 3.4-6.2 6.6L2642.9 878.1zm931.9-182.7c3-1 5.4-3.4 6.3-6.7.5-1.8.5-3.5 0-5.2L4132 519.2c.7 2 1.9 3.7 3.6 4.9L3723 1144.7c-.8-.5-1.6-.9-2.5-1.1-1.8-.5-3.6-.5-5.3 0l-140.4-448.2zm557.1-182c-.5 1.8-.5 3.5 0 5.2L3581 682.9c-1-3-3.4-5.5-6.7-6.4-.3-.1-.6-.1-.9-.2l96.2-691.7c2.7.1 5.2-.9 7.1-2.7l458.2 526.9c-1.5 1.2-2.5 2.8-3 4.6zm-454.8-532c1-1.1 1.8-2.5 2.2-4 .7-2.6.4-5.2-.8-7.3l331.1-221.5c1.3 1.8 3.1 3.1 5.4 3.8 1.2.3 2.4.4 3.5.3l121.2 753.6c-1.7.3-3.2 1-4.6 2.1l-458-527zm335.6-247.3c-2.2 1.3-3.9 3.3-4.6 5.9-.2.7-.3 1.4-.3 2l-458.7-14.6c0-4.2-2.7-8.1-6.9-9.4l157.5-561.2c2.3.6 4.7.3 6.7-.7l306.3 578zM3707-844.2c2.1-1.2 3.7-3.1 4.5-5.6l1030.3 288.2c-.1.2-.1.4-.2.6-.5 1.8-.5 3.6 0 5.3L4026.4-262c-1.2-2.3-3.4-4.1-6.1-4.9-2.4-.7-4.9-.4-7 .6L3707-844.2zm-165.5 562.1a9.85 9.85 0 0 0-11.9 7l-666-160.5c.4-2.1.2-4.2-.7-6l830.1-407c1.1 2.5 3.3 4.5 6.1 5.4l-157.6 561.1zm-290.6-829.2l-392.5 664.8c-.6-.3-1.2-.6-1.9-.7-2.3-.7-4.7-.4-6.8.5l-261.9-481c3.5-2.2 5.3-6.5 4.2-10.6l654.6-178.4c.8 2.3 2.4 4.2 4.3 5.4zm-665.5 184.8c.7-.2 1.3-.5 1.9-.8l261.9 480.9c-2.3 1.2-4.1 3.3-4.8 6-.1.2-.1.4-.1.7l-778.4-111.8c.2-1.3.1-2.6-.3-4-.3-.9-.7-1.7-1.2-2.5l510.5-372c2.3 3.2 6.5 4.7 10.5 3.5zM2239.3-54.3c-.8 2-1 4.3-.4 6.5.8 2.7 2.7 4.8 5.1 6L2008 491c-2-.6-4.2-.7-6.3 0l-275.2-710.8c.1 0 .2-.1.2-.1 2.5-1.1 4.3-3.2 5.2-5.6l507.4 171.2zm-243.9 552.4c-.5 2.1-.4 4.4.6 6.6l-611.9 308c-2-3.7-6.1-5.6-10.1-5.1l-90.7-510c.7-.2 1.4-.4 2.1-.7 2.4-1.1 4.2-3.1 5.1-5.3l704.9 206.5zm-622.1 309.6c-.7.1-1.4.4-2 .7-2.3 1.1-4 2.9-4.9 5l-241-96.8c.9-2.4.8-5-.3-7.5-1.2-2.5-3.2-4.3-5.6-5.2L1278 297.2c1.5.5 3.1.7 4.7.5l90.6 510zm-263.5-102.2c-2.1 1.7-3.4 4.1-3.7 6.7l-690.2-106c.2-1.8 0-3.6-.8-5.3-.8-1.7-1.9-3-3.3-4L726 115.5c2.7 1.6 6.2 2 9.3.5.3-.1.5-.3.8-.4l373.7 589.9zm-694-98.6L1106 712.8c-.1 1.5.2 3.1.9 4.5 1.1 2.4 3.1 4.2 5.4 5.1l-109.5 383c-2.1-.5-4.4-.4-6.5.6-1.1.5-2.1 1.2-2.9 2L413.7 611.4c1.1-1.3 1.8-2.8 2.1-4.5zm577.1 501.7c-2 2.3-2.9 5.5-2.2 8.6l-393.8 98.6c-.1-.5-.3-.9-.5-1.4-2-4.4-6.9-6.7-11.5-5.5L409.2 614.5c.3-.1.7-.2 1-.4 1.2-.5 2.2-1.3 3.1-2.2l579.6 496.7zm11.6 15.6c2.3-1.1 4-2.9 4.9-5l607.4 243c-.8 2.3-.8 4.8.2 7.2l-972.4 446c-.1-.2-.1-.4-.2-.6-.8-1.7-2-3.1-3.4-4.1l355.8-686.4c2.4 1 5.2 1 7.7-.1zM644.8 1816l972.5-446.1c.8 1.7 2.1 3 3.6 3.9l-368.5 621.7c-2.7-1.5-5.9-1.7-8.9-.3-2.6 1.2-4.5 3.4-5.3 6L645 1821.4c.4-1.7.4-3.6-.2-5.4zm607 197.4c2.7-1.2 4.6-3.6 5.4-6.2l448.1 116.2c-.5 2-.3 4.2.7 6.3.1.1.1.3.2.4l-656.8 367.7c-1.1-1.8-2.7-3.2-4.6-4l199.4-480.1c2.3.8 5.1.8 7.6-.3zm-202 485.3c-.1-.1-.1-.3-.2-.4l656.8-367.7c2.3 3.8 6.8 5.5 11 4.5l175.6 594.4c-.3.1-.7.2-1 .4-2.7 1.2-4.5 3.5-5.3 6l-836.2-230.8c.4-2 .3-4.3-.7-6.4zm661-382.3c-2.7 1.2-4.6 3.6-5.4 6.2l-448.1-116.2c.5-2 .3-4.2-.7-6.3-.8-1.8-2.1-3.2-3.7-4.2l368.5-621.7c.8.4 1.7.8 2.6 1h.2c.9.2 1.8.3 2.7.2h.1l86.3 740.2c-.8.2-1.7.4-2.5.8zm7.2 18.5c.3-.1.7-.2 1-.4 1.2-.5 2.2-1.3 3.1-2.2l579.7 496.6c-2 2.3-2.9 5.5-2.2 8.6l-393.8 98.6c-.1-.5-.3-.9-.5-1.4-2-4.4-6.9-6.7-11.5-5.5L1718 2134.9zm4.5-3c1.1-1.3 1.8-2.9 2.2-4.5l690.2 105.9c-.1 1.5.2 3.1.9 4.5 1.1 2.4 3.1 4.2 5.4 5.1l-109.5 383c-2.1-.5-4.4-.4-6.5.6-1.1.5-2.1 1.2-2.9 2l-579.8-496.6zm711.6 105.1c.9-2.4.8-5.1-.3-7.5-1.2-2.5-3.2-4.3-5.6-5.2l158.5-406.7c1.5.5 3.1.7 4.7.5l90.7 510c-.7.1-1.4.4-2 .7-2.3 1.1-4 2.9-4.9 5l-241.1-96.8zm165.4-425.7c.7-2.3.7-4.8-.4-7.2-.5-1-1.1-1.9-1.8-2.7l428.1-502.1c2.6 2.1 6.1 2.7 9.4 1.6l275.2 710.8c-.1 0-.2.1-.2.1-2.6 1.2-4.5 3.4-5.3 5.9l-705-206.4zm435.9-510.6c.1 0 .2-.1.2-.1 4-1.8 6.1-5.9 5.7-10l667-134.8c.8 2.7 2.6 5 5.3 6.3l-396.1 849.5c-2.2-.9-4.6-1-6.9-.2l-275.2-710.7zm679-138.2c.3.1.5.2.8.3 2.7.8 5.5.3 7.7-1l392.8 626.4c-3.1 2.2-4.7 6-4 9.9l-788.5 220c-.1-.4-.2-.8-.4-1.2-1-2.2-2.7-3.8-4.7-4.8l396.3-849.6zm9.3-17.3l412.6-620.6c.8.5 1.6.8 2.5 1.1 2.9.8 5.8.3 8.1-1.3l266.8 378.2c-1.7 1.3-3 3.1-3.6 5.2-.5 1.9-.5 3.8.1 5.6l-683.1 236.2c-.6-1.7-1.8-3.3-3.4-4.4zm416.7-639l-121.3-753.6c3.1-.5 5.8-2.3 7.3-5.1l364.2 179.3c-.2.4-.4.9-.5 1.4-1.3 4.7 1 9.6 5.2 11.6l-250.2 567.1c-.3-.1-.7-.2-1-.3-1.2-.4-2.5-.5-3.7-.4zm250.6-580l-364.2-179.3c.2-.5.4-.9.5-1.4.6-2.3.4-4.7-.5-6.7l715-293.8c.6 1.8 1.8 3.4 3.3 4.5l-339.9 473c-.8-.6-1.8-1-2.8-1.3-4.5-1.2-9.3.9-11.4 5zm-679.3-776.7c.9-3.8-.5-7.6-3.3-9.9l147.5-190.4c2.4 1.9 5.7 2.7 8.9 1.7 2.6-.8 4.6-2.5 5.8-4.6L4742.4-563c-.1.2-.3.5-.4.7L3711.7-850.5zm140.6-209.1c-.1 1.3 0 2.6.3 3.9.5 1.8 1.5 3.3 2.8 4.4l-147.6 190.4c-.9-.7-1.9-1.2-3.1-1.5-4.3-1.2-8.8.7-11.1 4.3l-428.6-257c.5-1 .9-2.2 1-3.4l586.3 58.9zM2572.7-935.2c.1.7.2 1.3.4 2 .3 1 .8 1.9 1.3 2.7l-510.5 372c-1.8-2.4-4.7-3.9-7.7-3.9l-34-329.3c.5-.1.9-.1 1.4-.3 4.4-1.3 7.1-5.4 7-9.7l542.1-33.5zM1333.9-647l677.6-250.9c1.6 4 5.6 6.5 9.8 6.2l34 329.2c-.7 0-1.5.2-2.2.4-3.8 1.1-6.5 4.4-7 8.1l-712-89.2c.2-1.2.1-2.5-.2-3.8zm.1 4.6l712.1 89.2c-.1 1.1 0 2.3.4 3.4.5 1.6 1.4 3 2.5 4.1l-319.2 309.9c-2.8-2.9-7.3-3.9-11.2-2.1-.9.4-1.8 1-2.5 1.6L1332-638.1c1-1.3 1.7-2.7 2-4.3zm-5.6 7c1.2-.6 2.2-1.3 3.1-2.2l384.1 401.9c-2.8 2.9-3.7 7.2-1.9 11.1.6 1.3 1.4 2.3 2.3 3.2l-428 502c-1.6-1.5-3.7-2.4-5.9-2.6l42.9-912.5c1.1-.1 2.3-.4 3.4-.9zm-4.1.9l-42.9 912.4c-1.4 0-2.9.3-4.2.9-2.5 1.1-4.3 3.2-5.2 5.6L740.6 109.7c.6-2.2.5-4.6-.5-6.9-.6-1.4-1.5-2.5-2.6-3.4l580.9-735.8c1.7 1.2 3.8 1.9 5.9 1.9zM326.5-158.9l989-480.9c.6 1.1 1.4 2.1 2.3 2.9L737 99c-2.8-2.1-6.6-2.6-10-1-1.7.8-3.1 2-4.1 3.4L326-149.9c1.6-2.6 1.9-6 .5-9zm-7.6 13.8c.9-.1 1.8-.4 2.6-.8 1.7-.8 3.1-2 4.1-3.4L722.5 102c-1.6 2.7-1.9 6.1-.5 9.1.8 1.7 1.9 3 3.3 4L411.2 596.6c-1.8-1.1-3.8-1.6-5.9-1.4l-86.4-740.3zm-6.2-1.1c1.7.9 3.6 1.3 5.6 1.2l86.3 740.2c-.9.1-1.8.4-2.6.8-2.7 1.2-4.6 3.6-5.4 6.2L-51.5 486.1c.5-2 .3-4.2-.7-6.3-.8-1.8-2.1-3.2-3.7-4.2l368.6-621.8zM-259 978.3c-.1-.1-.1-.3-.2-.4l656.8-367.7c2.3 3.8 6.8 5.5 11 4.5l175.6 594.4c-.3.1-.7.2-1 .4-2.7 1.2-4.5 3.5-5.3 6l-836.2-230.8c.4-2 .3-4.3-.7-6.4zm194.3-485.1c2.4.9 5.1.9 7.6-.3 2.7-1.2 4.6-3.6 5.4-6.2l448.1 116.2c-.5 2-.3 4.2.7 6.3.1.1.1.3.2.4l-656.8 367.7c-1.1-1.8-2.7-3.2-4.6-4l199.4-480.1zm215.2 928.7c-.9.4-1.7.9-2.4 1.6l-409.1-434c1.1-1.1 1.9-2.5 2.4-4l836.2 230.8c-.5 2.1-.3 4.3.6 6.4l-414.8 203.6c-2.4-4.7-8.1-6.6-12.9-4.4zm483.7 387.2c-1 .1-2 .4-3 .8-1.5.7-2.7 1.7-3.6 2.9l-464.9-375.9c2.1-2.8 2.7-6.6 1.1-10l414.8-203.6c1.8 3.4 5.5 5.4 9.2 5.2l46.4 580.6zm-45.7-580.7c1-.1 2-.4 3-.8 4.3-2 6.5-6.7 5.6-11.1l393.8-98.6c.1.5.3.9.5 1.4 1 2.2 2.7 3.9 4.7 4.8l-355.8 686.3c-1.6-.9-3.5-1.4-5.4-1.3l-46.4-580.7zm448.1 1265.4c-.3.2-.6.4-.9.5l-395-667.1c2-1.3 3.3-3.1 4-5.2l593.3 180c-.5 2.1-.4 4.4.6 6.5 1 2.3 2.8 3.9 4.9 4.9L1044 2493.5c-2.3-.8-4.9-.8-7.4.3zm422.8 448.5c-.9.4-1.7.9-2.4 1.6l-409.1-434c1.1-1.1 1.9-2.5 2.4-4l836.2 230.8c-.5 2.1-.3 4.3.6 6.4l-414.8 203.6c-2.5-4.7-8.1-6.6-12.9-4.4zm480.6 388c-1.5.7-2.7 1.7-3.6 2.9l-464.9-375.9c2.1-2.8 2.7-6.6 1.1-10l414.8-203.6c1.8 3.4 5.5 5.4 9.2 5.2l46.4 580.6c-1 .1-2 .4-3 .8zm9.1.5c-1.6-.9-3.5-1.4-5.4-1.3l-46.4-580.6c1-.1 2-.4 3-.8 4.3-2 6.5-6.7 5.6-11.1l393.8-98.6c.1.5.3.9.5 1.4 1 2.2 2.7 3.9 4.7 4.8l-355.8 686.2zm976.7-441l-972.4 446c-.1-.2-.1-.4-.2-.6-.8-1.7-2-3.1-3.4-4.1l355.8-686.4c2.4 1 5.2 1 7.8-.2 2.3-1.1 4-2.9 4.9-5l607.4 243c-.9 2.3-.9 4.9.1 7.3zm.1-7.9l-607.4-243c.8-2.4.8-5-.3-7.5-.3-.6-.6-1.2-1-1.8l359.4-285.3c2.7 3.2 7.3 4.4 11.4 2.7l242.6 530c-2.2 1.1-3.8 2.9-4.7 4.9zm5.3-5.1l-242.6-530c4.8-2.4 6.8-8.1 4.6-13l611.9-308c1 1.9 2.6 3.3 4.4 4.2l-370.2 847c-2.5-1.2-5.4-1.4-8.1-.2zm890-484.3c.2.6.4 1.1.7 1.6l-878.2 487c-.9-1.7-2.2-3-3.8-3.9l370.3-847.2c2.4 1 5.2 1 7.8-.2 1.5-.7 2.8-1.8 3.7-3l501.1 357c-1.8 2.5-2.5 5.6-1.6 8.7zm13.7-11.4c-2.1-1.1-4.6-1.4-7.1-.6-1.8.5-3.3 1.5-4.4 2.8l-501.2-357c1.4-2.2 2-4.9 1.4-7.6l788.4-219.9v.1c.7 2.5 2.4 4.4 4.4 5.6l-281.5 576.6zm1049.3-502.4c.1.4.3.7.4 1l-1045.5 505.4c-.8-1.6-2.1-2.8-3.6-3.7l281.5-576.6c2.1 1 4.6 1.3 7 .6 3.8-1.1 6.4-4.4 6.9-8l753 77.4c-.2 1.3-.1 2.6.3 3.9zm-293-447.2c.8-.2 1.6-.6 2.3-1.1l295.3 437.2c-2.5 1.4-4.1 3.8-4.7 6.5l-753.1-77.4c.1-1.1 0-2.2-.3-3.3-.4-1.2-1-2.3-1.7-3.3l452.5-361.2c2.3 2.5 6.1 3.6 9.7 2.6zm-6.5-18.3c-2.8 1.2-4.8 3.5-5.6 6.2l-851.6-263.8c.4-1.8.4-3.6-.1-5.3l683.1-236.2c1.1 2.8 3.4 5.1 6.6 6 2.1.6 4.1.4 6-.2l161.6 493.3zm306.2-744.9l-462.5 237.4c-1.2-2.2-3.3-4-6-4.7-2.9-.8-5.8-.3-8.1 1.3L4147.5 524c1.7-1.3 3-3.1 3.6-5.2 0-.1.1-.3.1-.4l738.8 144c-.4 2 0 4.1.9 5.9zm-.7-7.1c0 .1-.1.3-.1.4l-738.8-144c.7-4.3-1.6-8.6-5.5-10.5L4396-60c.3.1.7.2 1 .3 2.8.8 5.7.3 8-1.2l488.9 716.6c-1.7 1.4-3.1 3.3-3.7 5.5zm8.7-7.2c-1.6.1-3.1.7-4.4 1.5L4405.6-61.1c1.7-1.3 3.1-3.1 3.7-5.3l448.1 112.8c-1.1 5.1 1.9 10.2 7 11.7 1 .3 1.9.4 2.9.4l31.6 595.5zm-34-615.2c-3.4.8-6.3 3.3-7.3 6.9L4409.5-67.1c.8-3.8-.7-7.6-3.6-9.9l339.9-473c.8.6 1.8 1 2.8 1.3 1.6.4 3.1.5 4.6.2l111.7 587.3z"/><path clip-path="url(#b)" fill="#6D6E71" d="M1769.1 1222.5c-2.5-1.2-5.2-1.5-7.7-1.2l-169.3-993.9c4.1-.9 7.8-3.6 9.8-7.7 3.2-6.9.3-15.2-6.7-18.4-3.1-1.5-6.5-1.7-9.6-.8l-221.3-690.6c3.2-1.2 6-3.7 7.6-7 3.2-6.9.3-15.2-6.7-18.4-6.9-3.2-15.2-.3-18.4 6.7-.6 1.3-1 2.6-1.2 3.8l-826.9-92.3c.4-5.6-2.6-11.1-7.9-13.6-6.9-3.2-15.2-.3-18.4 6.7-.9 1.9-1.3 3.8-1.3 5.7l-833.8 19.9c-.5-4.7-3.3-9-7.9-11.1-6.9-3.2-15.2-.3-18.4 6.7-3 6.4-.7 13.9 5.1 17.5L-995.7 786.6c-6.8-2.9-14.8.1-18 6.9-3.2 6.9-.3 15.2 6.7 18.4 2.7 1.3 5.7 1.6 8.4 1.1l370.9 1235.2c-3.4 1.2-6.4 3.7-8.1 7.2-3.2 6.9-.3 15.2 6.7 18.4 6.5 3.1 14.2.6 17.8-5.5L323 2576c-.1.1-.1.2-.2.3-3.2 6.9-.3 15.2 6.7 18.4 6.9 3.2 15.2.3 18.4-6.7.6-1.3 1-2.6 1.2-3.9l771.3 80.7c.1 5.1 3 10 8 12.3 6.9 3.2 15.2.3 18.4-6.7 3.2-6.9.3-15.1-6.5-18.4l617.8-1404.1c6.8 2.7 14.6-.3 17.7-7 3.3-6.9.3-15.2-6.7-18.4zM1363.4-489.8l221.2 690.6c-3.4 1.2-6.2 3.7-7.9 7.2-1.8 3.8-1.7 7.9-.1 11.5L995.3 500.3c-1.4-2.6-3.5-4.8-6.4-6.1-.2-.1-.4-.2-.6-.2l366.6-983.9c2.8.9 5.8.9 8.5.1zm386.1 1726.3l-648.9 91.1c-.8-4.3-3.5-8.2-7.8-10.2-2.3-1.1-4.8-1.5-7.1-1.2L985.2 520.5c2.8-.5 5.5-1.8 7.6-3.9l760 709.4c-.8.9-1.5 2-2.1 3.2-1.1 2.3-1.5 4.9-1.2 7.3zm-2737.3-441l865.3-289.8c1.2 3.3 3.7 6.1 7.1 7.7.9.4 1.8.7 2.7.9l-124.7 627.9c-5.8-.9-11.8 1.9-14.5 7.4l-736.4-344.8c1.3-3.1 1.4-6.4.5-9.3zm876.1-281c2.6.4 5.1.1 7.5-.9L125 1019.8c-3.1 1.3-5.7 3.6-7.2 6.9-1.5 3.2-1.7 6.7-.7 9.8l-343.7 114.6c-1.2-3.3-3.7-6.1-7.1-7.7-.9-.4-1.8-.7-2.7-.9l124.7-628zm10.7-24.6L228.8 29.5c.6.4 1.2.7 1.8 1 6.2 2.9 13.4.8 17.2-4.6l723.3 473.7c-.3.4-.5.9-.7 1.3-.8 1.7-1.2 3.4-1.3 5.1l-1064.8-5c.1-4.3-1.8-8.4-5.3-11.1zm1072 23.7L141.2 1024c-1.3-1.7-3-3.1-5-4-3.4-1.6-7-1.7-10.3-.6l-229.3-506.2c2.7-1.3 5-3.6 6.4-6.5.7-1.6 1.1-3.2 1.3-4.8l1064.8 5c.1 2.4.7 4.7 1.9 6.7zm-1198 648.2c1.5-3.2 1.7-6.7.7-9.8l343.7-114.6c1.2 3.3 3.7 6.1 7.1 7.7 3.5 1.6 7.3 1.7 10.6.5l198.5 575.6c-2.1.8-3.9 2.1-5.4 3.7l-556.8-460.6c.6-.7 1.1-1.6 1.6-2.5zm363-116.6c2.9-1.3 5.4-3.6 6.9-6.8.3-.8.6-1.5.8-2.3l929.9 290c-.8 2.9-.7 5.8.3 8.5l-722.7 293.8c-1.3-2.9-3.6-5.4-6.8-6.9-3.2-1.5-6.7-1.7-9.9-.7L136 1045.2zm937.9 280l-930-290c.7-3.7-.1-7.4-2.1-10.4l829.6-510.3c1.4 2.1 3.3 3.8 5.7 4.9 2.3 1.1 4.8 1.5 7.1 1.2l100.5 795.7c-4.4.7-8.3 3.5-10.3 7.8-.2.4-.4.8-.5 1.1zm273.1-1822c1.3 2.7 3.6 4.9 6.5 6.3.2.1.4.2.6.2l-366.7 984c-5.8-1.9-12.2.2-15.7 5.2L248.3 25.1c.3-.4.5-.8.7-1.3 1.7-3.7 1.7-7.7.2-11.2L1347-496.8zm-829.5-95.8c.6-1.3 1-2.6 1.2-3.9l826.9 92.3c-.2 2.2.2 4.4 1.1 6.4L248.9 11.7c-1.3-2.7-3.5-4.9-6.4-6.3l257.4-591c6.7 2.7 14.4-.3 17.6-7zM-344-571.4c1-2.1 1.4-4.2 1.3-6.3l833.8-19.9c.3 4.9 3.2 9.4 7.9 11.7L241.5 5.1c-5.1-2-10.7-.8-14.5 2.7l-573.5-575.6c1-1 1.9-2.2 2.5-3.6zm-3.1 4.3L226.4 8.5c-1 1-1.8 2.2-2.4 3.6-2.8 6-.9 13 4.1 16.9l-329.8 460.4c-.6-.4-1.2-.7-1.8-1-3.1-1.4-6.4-1.6-9.4-.9L-354-563.5c2.5-.6 4.9-1.8 6.9-3.6zm-16.1 2c.2.1.5.3.7.4 2.4 1.1 4.9 1.5 7.3 1.2L-114 487.7c-3.5 1.2-6.4 3.7-8.1 7.2-1.5 3.2-1.6 6.7-.7 9.8l-865.3 289.8c-1.2-3.1-3.5-5.8-6.7-7.5l631.6-1352.1zm-263.5 2613L-997.6 812.8c3.7-1 7-3.5 8.8-7.1l736.4 344.8c-2.9 6.8.1 14.8 6.9 18l-372.8 879.9c-2.7-1.1-5.7-1.2-8.4-.5zm9.4.9l372.8-879.9c5.5 2.1 11.6.5 15.3-3.7l556.8 460.6c-.6.8-1.1 1.6-1.6 2.6-1.6 3.4-1.7 7-.6 10.3l-936.1 416.7c-1.4-2.9-3.6-5.2-6.6-6.6zm940.8 526.3l-934.2-507.6c0-.1.1-.2.2-.3 1.7-3.6 1.7-7.6.3-11.1l936.1-416.7c1.3 3.1 3.7 5.7 6.9 7.2 1.4.7 2.9 1.1 4.4 1.2l-2.1 920.4c-4.8.3-9.2 2.7-11.6 6.9zm798.3 83.6c-.8 1.7-1.2 3.4-1.3 5.1l-771.3-80.7c.4-5.5-2.6-11-7.9-13.5-1.7-.8-3.6-1.2-5.4-1.3L338 1648c3.1.1 6.1-.8 8.6-2.6l778 1009.2c-1.1 1.2-2.1 2.5-2.8 4.1zm3.6-4.7l-778-1009.2c1.5-1.3 2.8-2.9 3.7-4.8 1.6-3.5 1.7-7.3.5-10.6l722.7-293.8c1.3 2.9 3.6 5.4 6.8 6.9 1.9.9 3.9 1.3 5.9 1.3l46.4 1306.9c-3 .2-5.8 1.4-8 3.3zm14.1-2.3c-1.7-.7-3.4-1-5.1-1L1088 1343.8c4.9-.4 9.4-3.2 11.6-8 1.1-2.4 1.5-4.9 1.2-7.3l648.9-91.1c.8 4.2 3.5 8.1 7.6 10.1l-617.8 1404.2zm614-1426.5l-760-709.3c.8-.9 1.5-2 2.1-3.2 1.8-3.8 1.7-7.9.1-11.5l581.4-280.9c1.4 2.6 3.5 4.8 6.4 6.1 2.5 1.2 5.2 1.5 7.7 1.2l169.3 993.9c-2.7.5-5.1 1.8-7 3.7z"/></svg>