<svg xmlns="http://www.w3.org/2000/svg" xmlns:xlink="http://www.w3.org/1999/xlink" viewBox="0 0 1440 1440"><defs><path id="a" d="M0 0h1440v1440H0z"/></defs><clipPath id="b"><use xlink:href="#a" overflow="visible"/></clipPath><g clip-path="url(#b)"><path fill="#EAEAEA" d="M1430.4-94.5l-531-150.3c.4-3.2-1.3-6.3-4.3-7.6-2.7-1.2-5.7-.5-7.8 1.3L587.4-452.9c.1-.1.1-.2.2-.3a7.302 7.302 0 0 0-13.4-5.8c-.7 1.7-.7 3.5-.2 5.1l-173.3 70.2c-.8-1.3-1.9-2.3-3.4-3-3.7-1.6-8 .1-9.6 3.8-.2.5-.4 1-.5 1.6L129-391.8c-.3-2.5-1.9-4.7-4.3-5.7-3.7-1.6-8 .1-9.6 3.8-1.5 3.6.1 7.7 3.5 9.4L-16.3 54.5c-3.3-.6-6.6 1.1-8 4.3-1.2 2.8-.5 6 1.6 8L-216 318.4c-.3-.2-.5-.3-.8-.4-3.7-1.6-8 .1-9.6 3.8-1.5 3.6.1 7.8 3.6 9.5L-364 779.8c-3.3-.6-6.6 1.1-8 4.3-1.5 3.6.1 7.7 3.6 9.4l-90.9 308.1c-3.2-.5-6.5 1.2-7.8 4.3-1.6 3.7.1 8 3.8 9.6 3 1.3 6.5.3 8.5-2.1l311.2 195.2c-1.4 3.6.3 7.7 3.9 9.3 3.4 1.4 7.2.1 9-2.9l319.9 144.2c-1.1 3.5.6 7.3 4.1 8.8 3.2 1.4 6.9.2 8.8-2.5l379.3 201.3c-1.3 3.6.4 7.7 4 9.2 3.7 1.6 8-.1 9.6-3.8.3-.6.4-1.3.5-1.9l343.5 2.3c.3 2.5 1.9 4.8 4.3 5.8 3.7 1.6 8-.1 9.6-3.8.8-1.8.7-3.7.1-5.3l156-92.2c.7.8 1.6 1.5 2.7 2 3.7 1.6 8-.1 9.6-3.8 1.2-2.8.5-6-1.6-8l295.4-579.1c3.2.5 6.5-1.2 7.9-4.3 1.4-3.2.2-6.9-2.5-8.8l236.3-444.5c3.4.7 6.9-1 8.3-4.2 1.6-3.7-.1-8-3.8-9.6-.4-.2-.9-.3-1.4-.4l29-365.2c2.7-.1 5.2-1.7 6.3-4.4 1.6-3.7-.1-8-3.8-9.6-2.6-1.1-5.5-.6-7.5 1.1l-241.2-225c.2-.3.4-.7.6-1 1.6-3.7-.1-8-3.8-9.6-3.4-1.5-7.2-.2-9.1 2.8zM949.3 1665c-.1 0-.1-.1-.2-.1-.5-.2-1-.3-1.5-.4l6.7-318.5c2.6-.2 5-1.8 6.1-4.4.6-1.5.7-3.1.4-4.6l199.5-77.2c.5 1 1.2 1.8 2.2 2.5L949.3 1665zm-360.1-3c-1.2-.1-2.5 0-3.6.5L407 1283c1.2-.8 2.2-1.9 2.8-3.3.2-.4.2-.7.3-1.1l261.7 31.7c0 2.8 1.6 5.4 4.3 6.6L589.2 1662zm-1046.6-559.9l90.9-308c2.6.5 5.3-.5 7-2.6l188.1 116.7c0 .1-.1.1-.1.2-.9 2.2-.7 4.6.4 6.5L-454.9 1104c-.7-.8-1.5-1.5-2.5-1.9zm581.7-1486L302.6-19.7c-1.2.8-2.1 1.9-2.7 3.2-.5 1.2-.6 2.4-.5 3.6L-10.7 59.5c-.6-1.9-1.9-3.5-3.9-4.4l135.1-438.7c1.3.2 2.6.1 3.8-.3zm269 11.1c1.1.2 2.1.1 3.2-.2L567.9 16.8c-1.3.8-2.3 1.9-2.9 3.4-.1.3-.2.6-.3 1L313.9-13.6c0-2.9-1.6-5.6-4.4-6.8-.1 0-.2-.1-.3-.1l84.1-352.3zm189.5-76.3L716.8-72c-.8.3-1.5.7-2.1 1.2L400.3-375.6c.3-.5.6-.9.9-1.5.7-1.6.7-3.3.3-4.9l173.4-70.2c.8 1.2 1.9 2.2 3.3 2.8 1.4.7 3.1.8 4.6.3zm847.3 361.7L1037 222.1c-.5-.4-1.1-.8-1.8-1.1-.4-.2-.9-.3-1.3-.4l6-259c2.5-.3 4.9-1.8 5.9-4.3.4-.9.6-1.8.6-2.8l383.1-43.6c.1.5.3 1.1.6 1.7zm221.6 613.5l-308.7 188c-.7-.9-1.7-1.7-2.8-2.2-2.2-1-4.7-.7-6.6.5l-100-125c.6-.6 1.1-1.3 1.5-2.2.5-1.2.6-2.3.5-3.5l415.6-57.3c.1.6.3 1.2.5 1.7zM1413.5 974c-1.5.6-2.8 1.8-3.6 3.3l-318.2-120.7c.5-2 .1-4-.9-5.6l240.6-128.2c.7 1.1 1.8 1.9 3.1 2.5 1.3.6 2.7.7 4.1.5l74.9 248.2zm-331.3 95.4c-.7-1.7-2-3.2-3.9-3.9-.5-.2-1.1-.4-1.6-.5l8.6-202.9c2.4-.2 4.6-1.6 5.8-3.8L1409.3 979c-.2.9-.2 1.8-.1 2.7l-327 87.7zm80.5 180.9c-1.1.8-2.1 1.8-2.7 3.2-.6 1.5-.7 3.1-.4 4.6l-199.5 77.2c-.6-1.1-1.4-2-2.5-2.7l115.7-253.4c1.5.5 3.1.4 4.5-.1l84.9 171.2zM37.1 351.6c.6-1.5.7-3 .4-4.4l213.1-78.6c.8 1.4 2 2.7 3.6 3.3.5.2 1.1.4 1.6.5L246.5 482c-1.9 0-3.7.8-5 2.2L37.1 351.6c0 .1 0 .1 0 0zm-48-287.1c.4-1 .6-2.1.5-3.2l310.2-72.4c.7 1.8 2 3.3 4 4.2.2.1.4.1.7.2L256.7 258c-1.8.1-3.5.8-4.8 2.1l-263.1-195 .3-.6zm409.1-438.2c.3-.2.5-.4.8-.6L713.4-69.5c-.3.5-.6.9-.9 1.5-.8 1.9-.7 4 0 5.8L577.3 18.5c-.7-.9-1.7-1.7-2.8-2.2-1.6-.7-3.3-.7-4.9-.3L398.2-373.7zM1038-38.5l-6 258.9c-2.7.1-5.3 1.7-6.4 4.4-.2.4-.3.8-.4 1.2l-248.8-57.2c.2-1.7-.2-3.4-1.2-4.7l258.5-204.8c.7.7 1.5 1.3 2.5 1.7.6.2 1.2.4 1.8.5zm292.7 754.3c-.8 1.8-.7 3.7-.1 5.4l-241 128.4c-.2-.2-.5-.4-.7-.6l137-259.8c2.2.8 4.5.5 6.3-.6l100 125c-.7.6-1.2 1.3-1.5 2.2zm-374.8 616c-1.9-.6-3.8-.4-5.4.4l-134.4-198.5c.8-.7 1.5-1.6 1.9-2.6.5-1.2.7-2.5.5-3.8l249.9-53.4c.4 1.8 1.6 3.4 3.2 4.4l-115.7 253.5zm-855.2-239.3l115.7-218.3c2.2.8 4.5.5 6.3-.6L343 1023.2c-.6.6-1.1 1.3-1.5 2.2-.5 1.3-.7 2.6-.5 3.9l-237.8 66.4c-.5-1.3-1.3-2.4-2.5-3.2zm-259.2-184.9l269.4-202.2c.7.7 1.4 1.2 2.4 1.6 1.9.8 4 .7 5.8-.1l95.3 154.8c-.9.7-1.7 1.6-2.1 2.8-.4.9-.6 1.8-.6 2.8l-369.5 42.1c-.2-.6-.4-1.2-.7-1.8zM244 495.9c.5.2 1 .4 1.6.4l-26.9 363.8c-.9 0-1.8.3-2.6.6L120.7 706c.9-.7 1.7-1.6 2.1-2.8 1.3-3.1.3-6.5-2.1-8.5L244 495.9zM577.1 27.7l186.2 136.1c-.3.4-.6.9-.8 1.4-.8 1.9-.7 4 0 5.8L498.2 329.6c-.7-.9-1.7-1.7-2.8-2.2-.1 0-.1 0-.2-.1l75.6-297.1c2.4.3 4.7-.6 6.3-2.5zm454.1 207.1l-12.1 340.9c-2.1.2-4 1.2-5.3 2.9L785.1 466.7c.9-2.2.6-4.6-.6-6.5l243-227.2c.6.5 1.3 1 2 1.3.5.3 1.1.4 1.7.5zm193 353.5l-137 259.9c-1-.4-2-.5-3-.4l-62-258c1.8-.7 3.3-2 4.1-3.9.3-.6.4-1.3.5-2l194.4-.6c.3 2 1.3 3.8 3 5zm-155.4 481.1c-.4.9-.6 1.8-.6 2.7l-250.1 53.5c-.7-1.7-2-3.2-3.9-4-.7-.3-1.5-.5-2.2-.5L804 904c1.9-.3 3.7-1.4 4.8-3.1l260 168.5c.1-.1 0-.1 0 0zM252.5 493.6l246 145.6c-1 2.2-.7 4.7.5 6.6L224 862.2c-.6-.6-1.3-1.1-2.2-1.5-.4-.2-.9-.3-1.4-.4l26.9-363.9c2.1-.2 3.9-1.1 5.2-2.8zm516-318.3l9.1 281.5c-2.2.2-4.3 1.4-5.5 3.4l-272.8-124c.5-1.7.4-3.5-.3-5l264.4-158.6c.7.9 1.7 1.7 2.8 2.2.9.3 1.6.4 2.3.5zm-200.6 888.2L471 882.3c1.1-.8 1.9-1.8 2.5-3.1.2-.5.4-1 .5-1.5l321.7 19.1c0 1.2.4 2.5 1 3.5l-221.4 164.4c-.5-.5-1.1-.9-1.8-1.2-2-.7-3.9-.6-5.6 0zM225.1 863.6L500 647.3c.6.6 1.4 1.1 2.2 1.5.3.1.5.2.8.2l-36 220.2c-2.9-.1-5.7 1.6-6.9 4.4-.2.5-.4 1.1-.5 1.7l-233.4-8.7c-.2-1.1-.5-2.1-1.1-3zm273.5-525.7l272.8 124c-1.1 3.5.6 7.4 4.1 8.8.7.3 1.5.5 2.3.5l-.7 205.3c-1 .1-2 .4-2.9.9L497.5 339.3c.4-.4.8-.9 1.1-1.4zm276.3 352.6c.9.4 1.9.6 2.8.6l23.4 198.8c-1.1.3-2.2.8-3.1 1.6L511.3 646c.2-.3.4-.6.6-1 .1-.2.2-.5.2-.7l258.4 39.3c-.1 2.9 1.6 5.6 4.4 6.9zM469.6 869.8c-.3-.1-.5-.2-.8-.2l36.1-220.1c1.9.1 3.8-.6 5.2-2l286.6 245.4c-.2.4-.4.7-.6 1.1-.1.3-.2.7-.3 1l-321.9-19.1c-.1-2.6-1.7-5-4.3-6.1zM803 889.6l-23.4-198.8c2.1-.5 4-2 4.9-4.2.7-1.7.7-3.5.2-5.1l228.6-95.2c.4.7.9 1.4 1.6 2l-208.7 302c-.1-.1-.2-.1-.3-.2-1.1-.3-2-.5-2.9-.5zm209.9-309.4c-.6 1.4-.7 2.9-.3 4.3l-228.7 95.2c-.8-1.2-1.9-2.1-3.3-2.7-.6-.2-1.1-.4-1.7-.5l.6-205.4c1.8-.3 3.5-1.3 4.6-2.9l228.8 112zM496 340.4l276.7 338.2c-.7.6-1.2 1.4-1.6 2.3l-.3.9-258.3-39.3c.1-2.9-1.5-5.8-4.4-7-.7-.3-1.5-.5-2.2-.5l-12.1-293.7c.7-.2 1.5-.5 2.2-.9zM225.6 870.3c.3-.6.4-1.2.5-1.8l233.4 8.7c.1 1.7.9 3.3 2 4.5L351.9 1022c-.3-.2-.5-.3-.8-.5-2.3-1-4.7-.7-6.7.5L224.2 872.5c.6-.7 1.1-1.4 1.4-2.2zm127.8 152.8L463 882.7c.3.2.5.3.8.5 1.8.8 3.7.7 5.4.1l96.9 181.2c-1.1.8-1.9 1.8-2.5 3.1-.1.2-.1.4-.2.6l-208.1-39.4c.3-2.2-.4-4.2-1.9-5.7zm223 43.1l221.2-164.3c.7.7 1.5 1.3 2.4 1.6.7.3 1.5.5 2.2.5l8 217.1c-2.4.4-4.5 1.9-5.5 4.3 0 .1 0 .2-.1.3L577.7 1071c.1-1.8-.3-3.4-1.3-4.8zm231.2-174.8l208.7-302c.2.1.3.2.5.3 1.2.5 2.4.6 3.6.5l62 257.9c-1.9.6-3.5 2-4.4 4-.4.8-.5 1.7-.6 2.6l-267.8 39.6c-.3-1.1-1-2.1-2-2.9zm218.6-659.8l-243 227.1c-.6-.6-1.3-1.1-2.1-1.4-.5-.2-1.1-.4-1.7-.5l-9.1-281.6c2.4-.4 4.5-1.9 5.5-4.3 0-.1.1-.2.1-.3l249.1 57.3c.1 1.3.5 2.6 1.2 3.7zM569 29.7l-75.6 297.1c-3.1-.4-6.2 1.3-7.5 4.3L264.3 266c.2-1.6-.2-3.2-1-4.5L566.5 28.1c.6.6 1.4 1.2 2.3 1.6h.2zM263.8 268.1c0-.1.1-.2.1-.3L485.4 333c-.2 1.5 0 2.9.6 4.2L252.5 484.7c-.7-.9-1.7-1.7-2.9-2.2-.4-.2-.8-.3-1.2-.4l9.3-209.7c2.6-.2 5-1.8 6.1-4.3zm223.1 70.6c.7.9 1.6 1.6 2.7 2.1.7.3 1.5.5 2.2.5L504 635c-1.8.3-3.4 1.3-4.5 2.7L253.4 492c.8-1.9.7-4 0-5.7l233.5-147.6zm-132 692.4c.1-.2.1-.4.2-.6l208.1 39.4c-.1 2 .6 4 2 5.5l-158.3 195.3c-.3-.2-.6-.4-1-.5-1.1-.5-2.3-.6-3.5-.5l-51.9-234.5c1.9-.7 3.6-2.1 4.4-4.1zm219.4 45.4c1.2-.8 2.3-1.9 2.9-3.3.1-.1.1-.3.1-.4l226.9 54.8c-.2 2.3.6 4.5 2.2 6.1L682.6 1304l-.6-.3c-1.6-.7-3.4-.7-5-.2l-102.7-227zm495.5-8.8L809.7 899.2c.4-1 .5-2.1.4-3.1l267.5-39.6c.5 2.2 2 4.2 4.2 5.1.5.2 1.1.4 1.6.5l-8.6 202.9c-1.9.2-3.7 1.1-5 2.7zm151.9-488.2c-.3.6-.4 1.3-.5 2l-194.4.5c-.2-1.2-.6-2.3-1.3-3.3l207.3-197.1c.5.4 1.1.8 1.7 1.1.5.2 1.1.4 1.6.5l-8.3 192.1c-2.6 0-5 1.6-6.1 4.2zm9-206.4c-1 2.4-.6 5.1.8 7.1l-207.3 197.1c-.5-.4-1.1-.8-1.7-1.1-.5-.2-1-.4-1.5-.5l12.1-340.9c1.8-.2 3.4-.9 4.6-2.3l193.3 140c-.1.2-.2.3-.3.6zM764.6 162.5L578.1 26.2c.1-.1.1-.2.2-.3.8-1.9.7-4 0-5.8l135.2-80.7c.7.9 1.7 1.7 2.8 2.2 1.2.5 2.5.7 3.8.5l47 219c-.9.3-1.7.8-2.5 1.4zM565.4 26.6L262.1 260c-.6-.6-1.4-1.1-2.2-1.5-.4-.2-.9-.3-1.3-.4L306.3-6.4c3 .2 5.8-1.5 7.1-4.4.1-.3.2-.6.3-1l250.7 34.7c-.1 1.3.3 2.6 1 3.7zM242.4 495L119.1 693.7c-.1 0-.1-.1-.2-.1-2.8-1.2-6-.5-8.1 1.6L-99.3 537.1c.1-.2.3-.5.4-.7.4-.9.6-1.9.6-2.8l338.1-42.4c.4 1.5 1.3 2.8 2.6 3.8zm-342.8 43.6l210.2 158.2c-.1.2-.3.5-.4.7-.9 2.2-.7 4.5.4 6.4l-269.4 202.2c-.7-.7-1.4-1.2-2.4-1.6-.3-.1-.6-.2-.8-.3l56.7-363.5c2.1.2 4.2-.6 5.7-2.1zM-158.1 914c.4-.9.6-1.8.6-2.8L212 869.1c.4 1.7 1.4 3.2 2.9 4.2L99.1 1091.6c-3.1-1.2-6.5-.1-8.4 2.5l-249.6-178.8c.3-.4.6-.8.8-1.3zm261.3 187.3c.5-1.3.7-2.6.5-3.9l237.8-66.4c0 .1.1.1.1.2l-472.3 276c-.1-.2-.3-.4-.4-.5l223.2-202.5c.5.4 1 .7 1.6 1 3.7 1.5 8-.2 9.5-3.9zm-233.1 207.6l472.5-276.1c.7.9 1.6 1.6 2.7 2.1s2.2.6 3.3.5l51.9 234.6c-1.8.7-3.4 2-4.2 4-.3.8-.5 1.6-.5 2.4l-525.4 33.7-.3-1.2zm538.2-37.1l158.3-195.3c.3.2.6.4 1 .5 1.6.7 3.4.7 5 .2L675.3 1304c-1.2.8-2.3 1.9-2.9 3.3-.2.4-.2.7-.3 1.1l-261.7-31.7c-.1-1.8-.8-3.5-2.1-4.9zm275.8 33.2l123.8-170.3.6.3c2.1.9 4.3.7 6.1-.2L949 1333.3c-.8.7-1.5 1.6-1.9 2.6-.2.4-.3.8-.4 1.2l-260.3-27c-.1-1.9-.9-3.8-2.3-5.1zm545.5-729.8l8.4-192.1c2.6-.2 5-1.8 6.1-4.4.8-1.8.7-3.7.1-5.4l185.7-99.4c.3.5.7.9 1.2 1.3l-199 300.9c-.3-.1-.5-.3-.8-.4-.6-.3-1.1-.4-1.7-.5zM1429 272.3l-185.7 99.4c-.7-1.1-1.8-1.9-3.1-2.5-2.9-1.2-6.1-.4-8.1 1.7l-193.4-139.8.3-.6c.2-.4.3-.8.4-1.2l389.1 40.6c.1.8.2 1.7.5 2.4zM1032.4-48.6c-.9 2.1-.7 4.4.3 6.3L774 162.7c-.5-.5-1.1-.9-1.8-1.2l118.9-400c1.6.3 3.3 0 4.7-.8L1034-50.8c-.7.6-1.2 1.4-1.6 2.2zM889.3-239L770.5 160.9c-.5-.1-1-.1-1.5-.1L722-58.4c1.7-.7 3.2-2 4-3.9 1.1-2.6.6-5.4-1-7.4L887.7-240c.5.4 1 .7 1.6 1zM-12.3 66.6l263.1 194.9c-.2.3-.3.6-.5.9-.6 1.5-.7 3-.4 4.5l-213 78.6c-.8-1.5-2-2.7-3.6-3.4-.9-.4-1.9-.6-2.8-.6l-46-272.9c1.2-.4 2.3-1 3.2-2zm48.4 286.7l204.3 132.3c-.1.2-.3.5-.4.7-.4 1-.6 2-.6 3l-338.1 42.4c-.3-1.3-1-2.5-2-3.4L26.9 355.1c.2.1.4.3.7.4 3.1 1.3 6.6.3 8.5-2.2zm-10.7.7l-127.5 173.2c-.2-.1-.5-.3-.7-.4-1.9-.8-3.9-.7-5.7 0l-107-196.2c1-.7 1.9-1.8 2.4-3 .2-.4.3-.8.4-1.2l235.8 22.8c.2 1.8 1 3.5 2.3 4.8zM-217 331.5l107 196.3c-1 .7-1.8 1.7-2.3 2.9a7.4 7.4 0 0 0 1.2 7.6l-249.6 242.9c-.4-.4-.9-.7-1.5-.9L-221 331.8c1.4.3 2.7.1 4-.3zm-141.5 458.3c1.1-2.5.6-5.2-.9-7.2l249.7-243c.4.3.8.5 1.2.7.2.1.3.1.5.2L-164.7 904c-2.2-.1-4.4.9-5.8 2.7L-358.6 790c.1-.1.1-.2.1-.2zm198.4 126.9l249.9 179.1c-1 2.5-.5 5.2 1 7.1l-223.2 202.5c-.5-.4-1-.7-1.6-1-1-.4-2-.6-3.1-.6l-26.8-385.5c1.5-.2 2.7-.7 3.8-1.6zm30.5 395.2l525.5-33.7c.2 1 .6 1.9 1.2 2.7L201 1455.8c-.6-.5-1.2-.9-1.9-1.2-3.4-1.4-7.2-.1-9 2.9l-319.9-144.2c.1-.5.1-.9.2-1.4zm331.8 145.2l196.1-174.8c.6.5 1.2.9 1.9 1.2 1.7.7 3.5.7 5.1.2L584 1663.4c-.6.5-1.2 1-1.6 1.7L203 1463.7c.9-2.2.5-4.7-.8-6.6zm480.5-140.5c1.4-.8 2.5-1.9 3.1-3.5.2-.4.3-.8.4-1.2l260.3 27c.1 2.8 1.7 5.4 4.4 6.5.5.2 1 .4 1.6.5l-6.7 318.5c-1.1.1-2.1.4-3.1.9l-260-348.7zm481.6-67.1l-84.8-171.2c1.1-.8 2.1-1.8 2.7-3.2.5-1.3.7-2.6.5-3.8l326.9-87.7c.4.9.9 1.6 1.5 2.3l-240 264.8c-.5-.4-1-.7-1.6-1-1.7-.8-3.5-.8-5.2-.2zm251-275.9l-75-248.3c1.6-.7 3-2 3.7-3.8.8-1.9.7-4-.1-5.8l308.7-188c.6.8 1.4 1.4 2.3 1.9l-236 444.4c-1.2-.5-2.4-.6-3.6-.4zm236.4-453.3c-.3.7-.5 1.5-.5 2.3l-415.9 57.3c-.4-1-.9-1.9-1.7-2.7l199.1-300.9c.1.1.2.1.3.2 2.4 1 4.9.7 6.9-.7l212.7 243c-.4.4-.7.9-.9 1.5zm-222.6-253.4c-.2.4-.3.8-.4 1.2l-389.1-40.6c0-1.5-.5-2.9-1.4-4l392.9-309.3c.7.8 1.6 1.5 2.6 1.9.6.3 1.3.4 1.9.5l-.6 346c-2.5.2-4.8 1.8-5.9 4.3zm.6-359.7c-.2.6-.3 1.1-.3 1.7l-383.2 43.6c-.5-2.1-2-4-4.2-5-2.2-.9-4.6-.7-6.6.4L897.3-240.4c.7-.7 1.3-1.5 1.7-2.4v-.1l530.7 150.1zM886.1-249.6c-.2.3-.4.7-.6 1.1-1.1 2.5-.6 5.2.9 7.2L723.6-70.9c-.5-.3-.9-.6-1.5-.9-1.1-.5-2.3-.6-3.4-.5L584.5-449.8c.7-.4 1.3-.9 1.9-1.6l299.7 201.8zM387.2-379.4c.2 2.6 1.8 5 4.3 6.1L307.4-20.8c-1.1-.1-2.1 0-3.1.3L125.9-384.7c1.2-.8 2.1-1.8 2.7-3.2.3-.6.4-1.3.5-2l258.1 10.5zM-21.3 67.9c.3.2.5.3.8.4 1 .4 2.1.6 3.1.6l46 272.8c-2.1.5-4 2-4.9 4.2-.2.4-.3.9-.4 1.3l-235.8-22.8c-.1-1.8-.8-3.6-2.1-4.9L-21.3 67.9zm-432.4 1043.7c.9-2 .7-4.2-.2-6.1L-170 916.3c.6.7 1.4 1.2 2.3 1.6.7.3 1.4.4 2.1.5l26.8 385.8c-1.5.5-2.9 1.4-3.9 2.7l-311-195.1v-.2zm1049.2 556.7c-.3-2.5-1.9-4.8-4.3-5.8-.1 0-.1 0-.2-.1l86.9-345c1 .2 2 .1 3-.1l260.3 349c-.7.7-1.2 1.5-1.6 2.4-.3.6-.4 1.3-.5 1.9l-343.6-2.3zm356.7-.9c-.4-.6-.9-1-1.4-1.5l213.3-402.8c.2.1.3.1.5.1l-49.4 301.7c-3-.3-6 1.4-7.3 4.4-.9 2-.7 4.2.2 6l-155.9 92.1zm164.9-102l49.4-301.8c2.9.1 5.7-1.6 6.9-4.4 1.1-2.5.6-5.2-.9-7.2l240.1-265c.3.2.5.3.8.4l-295.1 578.5c-.2-.1-.5-.3-.8-.4-.2-.1-.3-.1-.4-.1zM1658 515.9c-1.5.1-2.9.6-4.1 1.5l-212.7-242.9c.5-.6.9-1.2 1.3-1.9.8-1.8.7-3.8.1-5.5l239.9-119.4c.8 1.1 1.8 2.1 3.2 2.7.4.2.9.3 1.4.4L1658 515.9zm24.6-376.5c-.3.4-.6.9-.8 1.4-.7 1.7-.7 3.6-.2 5.2l-240 119.5c-.7-1-1.8-1.9-3-2.4-.6-.2-1.2-.4-1.8-.5l.6-346c1.5-.2 2.9-.8 4-1.9l241.2 224.7z"/><path fill="#E2E2E2" d="M1662 266.1l-476.7-278c1.2-3 .4-6.4-2.3-8.5-2.3-1.8-5.4-1.9-7.8-.6L935.1-291.3l.2-.2c2.5-3.2 1.9-7.8-1.3-10.2-3.2-2.5-7.8-1.9-10.2 1.3-1.1 1.4-1.6 3.2-1.5 4.9L737-270.9c-.4-1.4-1.3-2.7-2.5-3.7-3.2-2.5-7.8-1.9-10.2 1.3-.3.4-.6.9-.8 1.4L476-346.4c.3-2.5-.6-5-2.8-6.6-3.2-2.4-7.8-1.9-10.2 1.3-2.4 3.1-1.9 7.5 1.1 10L223.8 49.4c-3-1.4-6.7-.6-8.8 2.2-1.9 2.4-2 5.7-.5 8.2L-35.4 255.1c-.2-.2-.4-.4-.7-.6-3.2-2.5-7.8-1.9-10.2 1.3-2.4 3.1-1.9 7.6 1.2 10.1L-293.7 665c-3-1.4-6.7-.6-8.8 2.2-2.4 3.1-1.9 7.5 1.1 10l-164.9 275.7c-3-1.3-6.6-.5-8.7 2.2-2.5 3.2-1.9 7.8 1.3 10.2 2.6 2 6.2 1.9 8.7.1l252.6 266.7c-2.2 3.2-1.6 7.6 1.5 9.9 2.9 2.2 6.9 1.9 9.5-.6l273.8 219.5c-1.9 3.1-1.2 7.3 1.7 9.5 2.8 2.1 6.6 2 9.2-.3l317.1 289.6c-2.2 3.2-1.5 7.5 1.5 9.9 3.2 2.5 7.8 1.9 10.2-1.3.4-.5.7-1.1.9-1.7l332.1 88c-.3 2.5.6 5.1 2.8 6.7 3.2 2.5 7.8 1.9 10.2-1.3 1.2-1.5 1.6-3.4 1.5-5.1l174.1-50.4c.5 1 1.2 1.9 2.1 2.6 3.2 2.5 7.8 1.9 10.2-1.3 1.9-2.4 2-5.7.5-8.2l430.6-487.1c3 1.3 6.6.5 8.7-2.2 2.1-2.8 2-6.6-.2-9.2l339.7-371.5c3.1 1.6 6.9.8 9.1-2 2.5-3.2 1.9-7.8-1.3-10.2-.4-.3-.8-.5-1.2-.8L1851 568.2c2.6.5 5.5-.4 7.2-2.7 2.4-3.2 1.9-7.8-1.3-10.2-2.2-1.7-5.1-1.9-7.5-.8L1672 276.7c.3-.3.6-.5.8-.9 2.5-3.2 1.9-7.8-1.3-10.2-2.9-2.2-6.9-1.9-9.5.5zM757.1 1849.9c-.1 0-.1-.1 0 0-.5-.4-1-.7-1.4-.9l86-306.7c2.6.5 5.3-.5 7-2.7 1-1.3 1.5-2.8 1.5-4.4l212.4-25c.3 1.1.7 2.1 1.5 3l-307 336.7zm-347.9-92.8c-1.2-.5-2.4-.6-3.6-.5l-78.3-412c1.4-.4 2.6-1.3 3.5-2.5.2-.3.4-.6.6-1l245.6 96c-.7 2.7.2 5.6 2.5 7.4l-170.3 312.6zm-873.9-803.3l164.9-275.6c2.4 1.2 5.3.8 7.4-.7l153 159.9-.1.1c-1.4 1.9-1.8 4.2-1.2 6.4l-322 112.4c-.4-1-1.1-1.8-2-2.5zM469.4-340l81.9 397.2c-1.3.4-2.5 1.3-3.4 2.4-.8 1-1.2 2.2-1.4 3.3L228 55.7c-.1-2-1-3.9-2.6-5.3l240.3-391.1c1.1.5 2.4.7 3.7.7zm257.8 77.8c1 .4 2.1.6 3.1.6L799 158.6c-1.4.4-2.7 1.3-3.7 2.5-.2.3-.4.6-.5.9L560.6 65.9c.7-2.8-.2-5.8-2.6-7.7-.1-.1-.2-.1-.3-.2l169.5-320.2zm202.5-26.5l35.7 398.6c-.8.1-1.6.3-2.4.6L734.6-263.2c.4-.4.9-.8 1.2-1.2 1.1-1.4 1.5-3 1.5-4.7l185.4-24.7c.4 1.4 1.3 2.6 2.5 3.5 1.3 1.1 2.9 1.6 4.5 1.6zM1660 272.9l-458 201.6c-.4-.6-.9-1.1-1.4-1.5-.4-.3-.8-.5-1.2-.7l70.4-249.4c2.5.4 5.2-.6 6.8-2.7.6-.8 1-1.6 1.3-2.5l381.8 53.4c0 .5.1 1.2.3 1.8zm61.5 649.4l-345.9 105c-.5-1.1-1.2-2-2.2-2.8-1.9-1.5-4.4-1.8-6.6-1.2l-65.6-146c.7-.4 1.4-1 2-1.7.8-1 1.2-2.1 1.4-3.3l416.7 48.2c.1.6.1 1.2.2 1.8zm-342.4 374.3c-1.6.2-3.1 1-4.3 2.3l-278-196.3c.9-1.8 1.1-3.8.5-5.7l265-64.1c.5 1.2 1.2 2.3 2.3 3.2 1.1.9 2.5 1.4 3.8 1.5l10.7 259.1zm-344.7 9.7c-.3-1.8-1.2-3.6-2.8-4.8-.5-.4-1-.6-1.5-.9l58.9-194.3c2.4.4 4.8-.4 6.5-2.3l278 196.2c-.4.8-.7 1.7-.8 2.5l-338.3 3.6zm32.8 195.2c-1.3.5-2.5 1.3-3.4 2.4a7.1 7.1 0 0 0-1.5 4.4l-212.4 25c-.3-1.2-.9-2.3-1.8-3.3l175.3-216.5c1.4.8 2.9 1.2 4.4 1.1l39.4 186.9zm-865.7-1151c1-1.3 1.4-2.7 1.5-4.2l226-23c.4 1.6 1.2 3.1 2.6 4.1.5.4.9.6 1.5.9l-61.2 200.6c-1.8-.4-3.8-.1-5.4.9l-165-179.3zm25.1-290c.7-.9 1.1-1.9 1.3-3l318.5 7.2c.2 1.9 1.1 3.7 2.8 5 .2.1.4.2.6.4L437.5 314.5c-1.7-.4-3.6-.1-5.1.8L226.1 60.9c.2-.1.3-.3.5-.4zm505.5-322.4l.9-.3 228.5 373.6c-.4.4-.9.7-1.2 1.2-1.3 1.7-1.7 3.7-1.4 5.6l-151.1 44.4c-.5-1.1-1.2-2.1-2.2-2.9-1.4-1.1-3.1-1.5-4.7-1.5l-68.8-420.1zm536 484.3l-70.4 249.3c-2.7-.6-5.5.4-7.3 2.7-.3.3-.5.7-.7 1.1L963 357.9c.6-1.6.6-3.3.1-4.9l301.4-133.8c.5.9 1.1 1.7 2 2.3.5.3 1 .6 1.6.9zm95.2 803.4c-1.2 1.6-1.7 3.4-1.5 5.2l-265.4 64.2c-.2-.3-.3-.5-.6-.8L1293.3 877c1.9 1.3 4.2 1.6 6.3 1l65.6 146c-.7.5-1.4 1.1-1.9 1.8zm-516.6 503.1c-1.6-1-3.6-1.3-5.3-.9l-80.6-225.7c.9-.5 1.8-1.1 2.5-2 .8-1.1 1.3-2.3 1.4-3.5l255.3 10.6c0 1.9.7 3.7 2 5.1l-175.3 216.4zM78.2 1083.8l166.5-182.5c1.9 1.3 4.2 1.6 6.3 1l79.1 174.8c-.7.4-1.4 1-2 1.7-.8 1.1-1.3 2.4-1.4 3.7l-246.9 4.9c-.1-1.3-.7-2.6-1.6-3.6zM-126.7 840l311.3-128.6c.5.8 1.1 1.5 1.9 2.2 1.7 1.3 3.7 1.7 5.7 1.4l53.7 173.7c-1 .5-2 1.2-2.8 2.2-.6.8-1 1.6-1.2 2.5L-126.4 842c0-.7-.1-1.3-.3-2zm492.5-298.2c.4.3.9.6 1.4.8L250.3 888.2c-.9-.2-1.8-.2-2.7 0L194 714.5c1.1-.5 2-1.2 2.8-2.2 2-2.6 1.9-6.2.1-8.7l168.9-161.8zm439.4-370.2l146.4 178.2c-.4.3-.8.7-1.1 1.2-1.3 1.7-1.7 3.7-1.4 5.6l-295.6 87.6c-.5-1.1-1.2-2.1-2.2-2.8-.1 0-.1-.1-.2-.1l147.4-268.9c2.2.8 4.7.5 6.7-.8zm388 313.8l-96.7 327.1c-2.1-.4-4.2.1-5.9 1.5L897 648.6c1.4-1.9 1.7-4.3 1.1-6.5l292-159.4c.4.7 1 1.3 1.6 1.8.5.4 1 .6 1.5.9zm98.8 390.4l-197.5 217.5c-.9-.6-1.8-1-2.8-1.2l4.3-265.3c1.9-.2 3.7-1.2 5-2.8.4-.6.7-1.2 1-1.8l188.4 48c-.3 2 .2 4.1 1.6 5.6zm-270.5 427.1c-.6.8-1 1.6-1.2 2.5l-255.6-10.6c-.2-1.8-1.2-3.6-2.8-4.8-.6-.5-1.3-.8-2-1.1l46.5-212.2c2 .2 3.9-.4 5.5-1.8l209.6 228zM374.6 541.7l201.9 202.4c-1.5 1.9-1.8 4.3-1.2 6.5L255 891.5c-.5-.7-1-1.4-1.7-2-.4-.3-.8-.5-1.2-.7L369 543.1c1.9.4 4-.1 5.6-1.4zm579.1-179.5l-61.4 274.9c-2.2-.4-4.5.3-6.2 1.9L653 450.9c.9-1.5 1.3-3.3 1-5l295.6-87.6c.5 1.1 1.2 2.1 2.2 2.8.6.5 1.3.8 1.9 1.1zm-415.9 810.1l-48.7-199.6c1.2-.5 2.3-1.2 3.2-2.3.3-.4.6-.9.8-1.3l306.8 98.7c-.3 1.2-.3 2.5 0 3.7l-255.4 104c-.4-.6-.9-1.1-1.5-1.6-1.5-1.4-3.4-1.8-5.2-1.6zm-282-279.1L576 752.3c.5.8 1 1.5 1.8 2 .2.2.5.3.7.4l-89.9 204.1c-2.8-.8-5.9.1-7.8 2.5-.4.5-.6 1-.9 1.5L256 896.3c.2-1 .1-2.1-.2-3.1zm396-440.9L885 640.5c-1.9 3.1-1.3 7.3 1.7 9.6.6.5 1.3.8 2 1.1l-51.8 198.6c-1-.2-2.1-.1-3.1.2L650.3 453.4c.6-.3 1.1-.7 1.5-1.1zm179.6 410.4c.8.6 1.7 1 2.5 1.3L807 1062.2c-1.2 0-2.4.3-3.4.8L587.2 753.9l.8-.8c.2-.2.3-.4.4-.7l240.4 102.5c-.8 2.8.1 5.9 2.6 7.8zM491 960.1c-.2-.2-.5-.3-.7-.4l89.9-204.1c1.9.5 3.9.3 5.6-.6l216.3 309.2-.9.9-.6.9-307-98.8c.5-2.6-.4-5.4-2.6-7.1zm317.9 102.4l26.9-198.3c2.2 0 4.4-.9 5.8-2.8 1.1-1.5 1.6-3.2 1.5-4.9l245.1-35.1c.2.8.5 1.6 1 2.3L811.7 1064l-.3-.3c-.8-.6-1.6-1-2.5-1.2zm280.5-247.2c-.9 1.2-1.4 2.7-1.4 4.1l-245.2 35.2c-.4-1.3-1.3-2.5-2.5-3.5-.5-.4-1-.6-1.5-.9l51.9-198.7c1.8.1 3.7-.4 5.2-1.6l193.5 165.4zM648.6 454.1l183.5 396.5c-.8.5-1.5 1.1-2.1 1.8-.2.2-.3.5-.5.8L589.2 750.7c.8-2.8-.1-6-2.5-7.9-.6-.5-1.3-.8-2-1.1l61.5-287.4c.8.1 1.6 0 2.4-.2zm-394 445.7c.4-.5.7-1.1.9-1.6l223.8 66.6c-.3 1.7 0 3.4.9 4.8L339 1078.2c-.2-.2-.4-.5-.7-.6-1.9-1.5-4.4-1.8-6.6-1.2l-79.1-174.8c.8-.5 1.5-1.1 2-1.8zm85.6 179.8L481.4 971c.2.2.4.5.7.7 1.6 1.2 3.4 1.7 5.2 1.5l48.7 199.6c-1.2.5-2.3 1.2-3.2 2.3-.1.2-.2.4-.3.5l-191.7-90.1c.7-2 .5-4.1-.6-5.9zm205.2 97.4l255.2-103.9c.5.8 1.1 1.6 1.9 2.2.6.5 1.3.8 2 1.1L758 1288.6c-2.4-.2-4.8.8-6.4 2.8-.1.1-.1.2-.1.2l-206.1-109.7c.6-1.6.6-3.3 0-4.9zM813 1065.4L1090.4 825c.1.1.2.3.4.4 1 .8 2.2 1.2 3.4 1.4l-4.3 265.2c-2 .1-3.9 1.1-5.3 2.8-.6.7-.9 1.5-1.2 2.3l-269.2-28.4c-.1-1.2-.5-2.3-1.2-3.3zM1189.3 481l-292 159.4c-.4-.7-1-1.4-1.7-1.9-.5-.4-1-.6-1.5-.9l61.4-275c2.4.2 4.9-.7 6.4-2.8.1-.1.1-.2.2-.3L1189 477.1c-.2 1.3-.2 2.7.3 3.9zM796.8 171.5L649.4 440.3c-2.9-1.1-6.3-.3-8.4 2.3L442.8 324.2c.6-1.5.6-3.1.2-4.6l351.8-150.3c.5.8 1.1 1.5 1.8 2.1.1 0 .2 0 .2.1zm-355 154.6c.1-.1.1-.2.2-.3l198.2 118.3c-.6 1.3-.7 2.8-.5 4.2L376.8 533c-.5-1.1-1.2-2.1-2.2-2.9-.3-.3-.7-.5-1.1-.7l61.3-200.8c2.6.6 5.3-.3 7-2.5zm198.4 124.1c.5 1 1.2 1.9 2.1 2.7.6.5 1.3.8 2 1.1l-61.5 287.4c-1.8-.1-3.6.4-5 1.5L375.9 540.4c1.3-1.6 1.7-3.6 1.4-5.5l262.9-84.7zm-300.5 637.5c.1-.2.2-.4.3-.5l191.7 90.1c-.6 1.9-.4 4 .5 5.8l-202 149.7c-.3-.3-.5-.5-.8-.7-1-.8-2.1-1.2-3.3-1.4l8.2-240.1c2.1-.2 4.1-1.1 5.4-2.9zm201.1 98.7c1.4-.4 2.7-1.3 3.6-2.5.1-.1.1-.2.2-.4l206.1 109.6c-.8 2.1-.6 4.5.6 6.4l-162.4 134-.5-.5c-1.4-1.1-3.1-1.5-4.8-1.5l-42.8-245.1zm482.1 115.1l-209.9-228c.6-.9 1-1.9 1.1-2.9L1083 1099c-.1 2.3.9 4.5 2.8 6 .5.4 1 .6 1.5.9l-58.9 194.3c-1.9-.3-3.9.1-5.5 1.3zm268.8-434.8c-.4.6-.7 1.1-1 1.8l-188.4-48c.1-1.2 0-2.4-.5-3.6l249.9-139.2c.4.5.8 1 1.4 1.5.5.4.9.6 1.5.9l-56 183.9c-2.4-.5-5.2.5-6.9 2.7zm60.2-197.7c-1.6 2.1-1.9 4.8-1 7.1L1101 815.3c-.4-.5-.8-1-1.4-1.5-.4-.3-.9-.6-1.4-.8l96.7-327.1c1.7.3 3.5-.1 5-1l152.4 183.7c0 .1-.2.2-.4.4zM953.2 348.8L806.6 170.3l.3-.3c1.3-1.7 1.7-3.7 1.4-5.6L959.4 120c.5 1.1 1.2 2.1 2.2 2.9 1.1.8 2.3 1.3 3.5 1.4L956 348.1c-1 .1-1.9.3-2.8.7zM794.1 167.6L442.2 317.9c-.5-.7-1-1.4-1.8-2-.4-.3-.8-.5-1.2-.7L551.4 70.9c2.8.9 6 0 7.9-2.5.2-.3.4-.6.5-.9L794 163.7c-.3 1.3-.3 2.6.1 3.9zM364.5 540.5l-169 161.7-.1-.1c-2.5-1.9-5.7-2-8.2-.4L23.1 496l.6-.6c.6-.8 1-1.7 1.3-2.6l338 43.3c-.1 1.6.4 3.1 1.5 4.4zM21.6 497.2l164.1 205.6-.6.6c-1.4 1.9-1.8 4.2-1.2 6.3l-311.3 128.6c-.5-.8-1.1-1.6-1.9-2.2-.2-.2-.5-.3-.7-.5L15.5 497.9c2.1.6 4.3.4 6.1-.7zm-149.5 349.2c.6-.8 1-1.6 1.2-2.5l368.3 51.4c0 1.7.6 3.4 1.7 4.8L76.9 1082.6c-2.7-1.9-6.2-1.7-8.7.3l-197.1-235.4c.3-.4.7-.7 1-1.1zm206.4 246.5c.8-1.1 1.3-2.4 1.4-3.7l246.9-4.9v.2L-199.4 1234l-.3-.6L67 1092.9c.4.5.8.9 1.3 1.3 3.1 2.5 7.7 1.9 10.2-1.3zm-277.6 142.9l526.5-149.5c.5 1 1.2 2 2.1 2.7s2 1.1 3.1 1.3l-8.2 240.1c-1.9.2-3.8 1.1-5.1 2.8-.5.7-.9 1.4-1.1 2.2l-517.2-98.5c-.1-.3-.1-.7-.1-1.1zm530.5 98.4l202-149.7c.3.3.5.5.8.7 1.4 1.1 3.1 1.5 4.8 1.5l42.9 245.3c-1.4.4-2.7 1.3-3.6 2.5-.2.3-.4.6-.6 1l-245.6-96c.4-1.8.2-3.7-.7-5.3zm258.7 100.9l162.4-134 .5.5c1.8 1.4 4 1.8 6 1.3l80.6 225.7c-.9.5-1.8 1.1-2.5 2-.3.3-.5.7-.7 1.1L591 1440.6c.5-1.9.2-3.8-.9-5.5zm710.4-570.6l56-183.9c2.6.4 5.3-.5 7-2.7 1.2-1.6 1.7-3.4 1.5-5.2l204.6-49.9c.2.5.5 1 .8 1.5L1302.6 866l-.6-.6c-.5-.4-1-.7-1.5-.9zm268.6-243.6l-204.6 49.9c-.5-1.2-1.2-2.3-2.3-3.2-2.5-1.9-5.8-1.9-8.3-.4l-152.4-183.7.5-.5c.3-.3.5-.7.7-1.1l366.7 136.4c-.3 1-.4 1.8-.3 2.6zm-304-409.6c-1.4 1.8-1.8 4.1-1.3 6.2L962.2 351.3c-.4-.6-.9-1.1-1.5-1.6l215-357.6c1.5.7 3.2.8 4.7.4l86.8 217c-.8.4-1.5 1-2.1 1.8zm-91-220.2L959.2 348.8c-.4-.2-.9-.4-1.4-.5l9.1-224c1.8-.2 3.6-1.2 4.8-2.8 1.7-2.2 1.9-5 .8-7.4l200.2-124.4c.4.6.9 1 1.4 1.4zm-949.4 71l206.2 254.4c-.2.2-.5.4-.7.7-1 1.3-1.5 2.8-1.5 4.2l-226 23c-.4-1.6-1.2-3.1-2.6-4.2-.8-.6-1.7-1-2.6-1.3L221 63.2c1.4 0 2.6-.4 3.7-1.1zm-24.6 289.7l164.8 179.1-.6.6c-.6.8-1.1 1.8-1.3 2.7L25.1 491c0-1.3-.4-2.6-1.1-3.8l166.7-135.9c.2.2.3.4.5.5 2.7 2.1 6.4 2 8.9 0zm-10.5-1.9L22.9 485.8c-.2-.2-.4-.4-.6-.5-1.6-1.3-3.6-1.7-5.5-1.4l-54.6-216.7c1.2-.5 2.3-1.2 3.1-2.3.3-.3.5-.7.7-1.1l222.6 80.9c-.4 1.7 0 3.6 1 5.2zm-229.2-82.4L15 484.3c-1.1.5-2.1 1.2-2.9 2.2-1.8 2.3-1.9 5.3-.7 7.7l-302.3 173c-.3-.5-.7-.9-1.2-1.3l248.6-399.1c1.2.7 2.6.9 3.9.7zm-251.3 408.6c1.6-2.1 1.9-4.9.9-7.2l302.4-173c.3.3.6.7 1 1 .1.1.3.2.4.3l-145.6 337.9c-2.2-.6-4.5-.2-6.3 1.2l-153-159.9c.1-.3.2-.3.2-.3zm160.4 172.3l197.3 235.8c-1.6 2.1-1.8 4.9-.8 7.2l-266.6 140.4c-.4-.5-.8-.9-1.3-1.3-.9-.7-1.8-1.1-2.8-1.3l70.3-380c1.3.1 2.7-.2 3.9-.8zm-69.1 390.4l517.3 98.5c-.1 1 .1 2 .4 2.9L84.7 1460.6c-.4-.6-.9-1.2-1.5-1.7-2.9-2.2-6.9-1.9-9.5.6L-200.1 1240c.2-.4.4-.8.5-1.2zm285.1 223.4L319 1341.9c.4.6.9 1.2 1.5 1.7 1.5 1.1 3.2 1.6 4.9 1.5l78.3 412.2c-.7.3-1.4.7-2 1.2l-317-289.7c1.3-2 1.6-4.4.8-6.6zm500.3-16.2c1.5-.4 2.9-1.2 3.9-2.6.3-.3.5-.7.7-1.1l245.4 91c-.6 2.7.3 5.6 2.6 7.4.4.3.9.6 1.4.8l-86 306.7c-1.1-.2-2.2-.2-3.2.1L585.8 1446zm483.2 55.1l-39.4-186.9c1.3-.5 2.5-1.3 3.4-2.4.8-1.1 1.3-2.3 1.4-3.6l338.5-3.4c.1.9.4 1.8.9 2.6L1075.4 1504c-.4-.5-.8-1-1.3-1.4-1.5-1.1-3.3-1.6-5.1-1.5zm311.9-204.5l-10.7-259.2c1.7-.3 3.4-1.2 4.5-2.7 1.3-1.7 1.7-3.7 1.4-5.6l345.9-105c.4.9 1 1.7 1.8 2.4l-339.6 371.4c-1-.8-2.1-1.2-3.3-1.3zm342-380c-.5.6-.8 1.4-1.1 2.1l-417.1-48.3c-.1-1.1-.4-2.1-1-3l267.9-241.8.3.3c2 1.6 4.6 1.9 6.9 1.1l145.4 288.4c-.5.3-.9.7-1.3 1.2zm-152.3-300.9c-.3.3-.5.7-.7 1.1l-366.7-136.4c.3-1.4.2-2.9-.3-4.2l457.6-201.5c.5.9 1.1 1.8 2 2.5.5.4 1.1.7 1.7 1L1577.4 613c-2.5-.4-5.2.5-6.8 2.7zm90.3-348.1c-.3.5-.6 1-.7 1.6l-382-53.4c0-2.2-.9-4.4-2.8-5.8-1.9-1.5-4.3-1.8-6.5-1.2l-86.8-217c.8-.5 1.6-1.1 2.2-1.9 0 0 0-.1.1-.1l476.5 277.8zM1173.7-19.9c-.3.3-.6.6-.8.9-1.6 2.1-1.9 4.9-.9 7.2L971.6 112.5c-.4-.4-.7-.8-1.2-1.2-1-.7-2.1-1.2-3.2-1.4l-35.7-399c.8-.2 1.5-.6 2.2-1.1l240 270.3zM722.9-270.1c-.5 2.6.5 5.3 2.7 7L556.1 57.2c-1-.4-2-.5-3.1-.4l-81.9-397.2c1.3-.4 2.5-1.3 3.4-2.4.4-.6.7-1.2 1-1.8l247.4 74.5zM215.7 61.2c.2.2.4.4.7.6.9.7 1.9 1.1 2.9 1.3l-23.5 275.7c-2.2 0-4.4.9-5.8 2.8-.3.4-.5.8-.7 1.2l-222.6-80.9c.4-1.8.1-3.7-.8-5.3L215.7 61.2zm-679.1 902.7c1.3-1.8 1.7-3.9 1.3-5.9L-140 845.6c.5.8 1.1 1.5 1.9 2.1.6.4 1.2.8 1.9 1l-70.3 380.3c-1.6.1-3.2.6-4.5 1.7l-252.5-266.6c0-.1.1-.1.1-.2zm877.1 800.9c.3-2.5-.6-5.1-2.8-6.7-.1 0-.1-.1-.2-.1L581 1445.6c.9.4 1.9.6 2.9.6l165 402.9c-.8.5-1.6 1.1-2.2 1.9-.4.5-.7 1.1-.9 1.7l-332.1-87.9zm345.6 88.2c-.2-.6-.6-1.2-1-1.8l307.1-336.9c.1.1.3.2.4.3l-123.1 279.9c-2.9-1-6.2-.1-8.2 2.4-1.3 1.7-1.7 3.9-1.3 5.8L759.3 1853zm185.1-57.7l123.1-279.9c2.8.8 5.9-.1 7.8-2.5 1.7-2.1 1.9-4.9.9-7.2l298.6-196.7.6.6-430.1 486.6-.6-.6c0-.2-.1-.3-.3-.3zM1730.1 914c-1.5-.3-3-.1-4.4.5l-145.4-288.3c.6-.4 1.2-.9 1.7-1.6 1.2-1.6 1.7-3.5 1.5-5.3l262.1-55.8c.4 1.3 1.3 2.5 2.4 3.4.4.3.8.5 1.2.8L1730.1 914zm117.8-358.5c-.4.3-.8.7-1.1 1.1-1.1 1.5-1.6 3.3-1.5 5l-262.2 55.8c-.5-1.2-1.2-2.3-2.3-3.1-.5-.4-1-.7-1.6-.9l86.9-334.9c1.5.2 3-.1 4.4-.8l177.4 277.8z"/><path fill="#EFEFEF" d="M771.7 2265c0 4 3.2 7.3 7.2 7.3.4 0 .8 0 1.2-.1l110.6 310.5c-2.3 1.2-4 3.6-4 6.4 0 4 3.2 7.3 7.2 7.3 2.9 0 5.3-1.7 6.5-4.1l346.6 118.4c-.1.5-.1.9-.1 1.4 0 4 3.2 7.3 7.2 7.3 3.6 0 6.5-2.5 7.2-5.9l501.8-40.4c.7 3.3 3.6 5.8 7.1 5.8 3.4 0 6.3-2.3 7.1-5.5l648.8-41.2c1.1 2.7 3.7 4.6 6.7 4.6 4 0 7.3-3.2 7.3-7.2 0-1.2-.3-2.3-.8-3.3l146.6-106.6c1.3 1.2 3 2 5 2 4 0 7.3-3.2 7.3-7.2 0-2.7-1.4-5-3.6-6.3L2729 2192c.6.2 1.2.3 1.9.3 4 0 7.3-3.2 7.3-7.2 0-3.9-3-7.1-6.9-7.3l-34.2-428c3.3-.7 5.8-3.6 5.8-7.1 0-3.8-2.8-6.8-6.5-7.2l-5.4-350.9c3.5-.5 6.2-3.5 6.3-7.1 0-3.9-3.1-7.1-6.9-7.3l-55.7-363.1c3-.9 5.3-3.6 5.3-6.9 0-4-3.2-7.3-7.3-7.3-3.4 0-6.3 2.3-7.1 5.5l-318.9-38.9c-.2-3.9-3.3-7-7.2-7-3.5 0-6.4 2.4-7.1 5.6l-467.7-48.5c-.1-3.9-3.3-7.1-7.2-7.1-4 0-7.3 3.2-7.3 7.3 0 .3.1.6.1.9l-307.6 77.5c-1.1-2.7-3.7-4.6-6.7-4.6-3.5 0-6.3 2.4-7.1 5.6L1032.6 939c-.2-3.9-3.3-7-7.2-7-4 0-7.3 3.2-7.3 7.2 0 2.7 1.4 5 3.6 6.3l-92.9 241.1c-.5-.1-1.1-.2-1.6-.2-4 0-7.3 3.2-7.3 7.3 0 1.6.5 3.1 1.4 4.3l-133.2 131.2c-1.3-1.1-2.9-1.8-4.7-1.8-4 0-7.3 3.2-7.3 7.2s3.2 7.3 7.3 7.3h.3l66.2 355.4c-2.5 1.1-4.3 3.6-4.3 6.6 0 3.3 2.2 6.1 5.3 7l-72.9 547c-3.6.4-6.3 3.4-6.3 7.1zm1357.8 285.5c-.2-1.1-.7-2.1-1.4-3l150.1-152.4c1.2.9 2.7 1.5 4.4 1.5 2.8 0 5.2-1.6 6.4-3.9l295 120.3c-.1.5-.2 1-.2 1.5v.2l-454.3 35.8zm243.2-424.7c0-2.9-1.8-5.5-4.3-6.6l74.8-252.8c.4.1.7.1 1.1.1 1.5 0 2.9-.5 4.1-1.3l277.4 314.6c-.9.9-1.5 1.9-1.8 3.1l-351.3-57.1zm253.6-1122.6L2340 1188.5c-1.3-1.8-3.4-2.9-5.8-2.9h-.2l-32.4-218.9c2.6-.7 4.6-2.8 5.1-5.4l318.8 38.9c.1 1 .3 2 .8 3zm-1593.8-62.5l456.3 50.2c.1 2.1 1 4 2.5 5.3l-189.6 255.9c-1-.6-2.2-.9-3.5-1-1.5 0-2.9.4-4 1.2L1030.8 944c.8-.9 1.5-2 1.7-3.3zm258.5 317.4v.3c0 3 1.8 5.6 4.5 6.7l-67.7 243.9c-.3 0-.7-.1-1-.1-1.6 0-3.1.5-4.3 1.4l-289.7-312.1c.7-.8 1.2-1.8 1.5-2.8l356.7 62.7zm-500.4 76.5c0-1.5-.5-2.9-1.3-4.1l133.2-131.2c1.3 1 2.8 1.7 4.6 1.7.6 0 1.2-.1 1.7-.2l154.9 409.6c-.7.4-1.4.9-1.9 1.5l-292.9-272.7c1-1.3 1.7-2.9 1.7-4.6zm-7.5 924.4l192.1-334.3c.8.4 1.8.6 2.8.6 2.7 0 5.1-1.5 6.3-3.7l240.1 97.3c-.1.4-.1.9-.1 1.4 0 .7.1 1.4.3 2.1l-440.1 238c-.4-.5-.8-1-1.4-1.4zm475.2 447.2l217.5-358.7c1 .6 2.2.9 3.4.9.9 0 1.8-.2 2.6-.5l75.1 141.4a7.16 7.16 0 0 0-3.1 5.9c0 1.2.3 2.4.9 3.4l-295.1 208.7c-.4-.4-.8-.8-1.3-1.1zm308.9-207.1c.7-1.1 1.2-2.5 1.2-3.9s-.4-2.7-1.1-3.8l213.2-169.9c1.1 1.6 2.8 2.7 4.8 3.1l-15.5 339.9c-1.7.1-3.3.9-4.5 2l-198.1-167.4zm206.9 166.4c-.7-.5-1.6-.8-2.5-.9l15.5-339.9c2.5-.2 4.6-1.7 5.8-3.8l189.6 72.7c-.1.5-.2 1.1-.2 1.7 0 2 .8 3.8 2.1 5.1l-210.3 265.1zm220.9-265.4c1-1.1 1.7-2.5 1.8-4.1l278.5-5.6c.2 1.3.7 2.4 1.5 3.4l-150.1 152.4c-1.2-.9-2.7-1.5-4.4-1.5-1.5 0-2.8.4-4 1.2L1995 2400.1zm-254.4-1244l40.4 240.2c-1.8.7-3.2 2-4 3.7l-196-74.7c.1-.5.2-1.1.2-1.7 0-1.8-.6-3.3-1.6-4.6l156.8-164.4c1 1 2.5 1.5 4.2 1.5-.1 0-.1 0 0 0zM1496.7 998l74.4 318.9c-1.7.7-3 2-3.8 3.6l-261.9-61.3c0-.2.1-.5.1-.7 0-2.1-.9-3.9-2.2-5.3l189.6-255.9c1 .5 2 .8 3.1.8.3-.1.5-.1.7-.1zm-275.6 513.6c-1.1 1.3-1.7 2.8-1.7 4.6 0 1.3.3 2.4.9 3.5l-127.8 92.1a7.24 7.24 0 0 0-5.3-2.3c-.6 0-1.2.1-1.7.2l-155-409.6c.3-.1.6-.3.8-.5l289.8 312zM985.3 1918c0-1.1-.2-2.1-.6-3l290.6-156c.9 1.4 2.3 2.4 3.9 2.9l-46.3 251.1c-.4-.1-.8-.1-1.2-.1-2.9 0-5.4 1.7-6.6 4.1l-240-97.3c.1-.4.2-1 .2-1.7zm573.3 570.4l-75.1-141.4c1.8-1.2 2.9-3.3 3-5.6l292.9-22.6.3.9-213.5 170.3c-1.3-1.3-3.1-2.1-5-2.1-.9 0-1.8.2-2.6.5zm438.2-94.3c-.3-1.9-1.3-3.6-2.8-4.7l148.3-208.2c1.1.6 2.3 1 3.7 1.1 1.1 0 2.2-.3 3.1-.7l128.8 202.1c-1.4 1.2-2.3 2.9-2.6 4.8l-278.5 5.6zm400.3-882L2241.8 1704c-1.1-.7-2.4-1.1-3.8-1.1-.9 0-1.8.2-2.6.5l-89.5-169.7c1.8-1.3 3-3.3 3.1-5.6l246.3-19.5c.2 1.3.8 2.6 1.8 3.5zm-67.3-313.5L2144.5 1521c-.8-.4-1.8-.6-2.8-.6-1.2 0-2.4.3-3.4.9L2034 1372.4c1.5-1.3 2.4-3.2 2.4-5.3 0-1-.2-1.9-.5-2.8l292.5-167c.4.5.9.9 1.4 1.3zM2022.2 1369c.9 3 3.6 5.3 6.9 5.3 1.2 0 2.4-.3 3.4-.9l104.3 148.9c-.7.6-1.2 1.3-1.6 2.2l-344.6-119.7c.1-.5.2-1.1.2-1.6l231.4-34.2zm-788.6 149.3l302.7 48.5v.2c0 1.3.3 2.4.9 3.5l-250.5 179.7a7.24 7.24 0 0 0-5.3-2.3c-.5 0-1.1.1-1.6.2l-51-224.9c2.3-.8 4.1-2.6 4.8-4.9zm5.3 502.1c0-.8-.2-1.6-.4-2.4l305-132.8c1.3 1.8 3.4 3.1 5.8 3.1l11.9 254.4c-2.1.5-3.8 1.9-4.8 3.7l-317.7-124.3c.1-.6.2-1.1.2-1.7zm244.1 314.4l77.7-178.2c.6.2 1.3.3 2 .3 2.1 0 3.9-.8 5.2-2.2l212.2 159.3c-.4.9-.7 1.9-.8 2.9l-292.9 22.6c-.4-1.9-1.6-3.6-3.4-4.7zm506.5 53.1l-51.3-305.4c2-.4 3.7-1.6 4.8-3.2l196.1 93.5c-.2.7-.4 1.4-.4 2.2 0 2 .8 3.8 2.1 5.1l-148.4 208.3c-.8-.4-1.8-.6-2.8-.6 0 .1 0 .1-.1.1zm-199.6-981.3l344.7 119.7c-.1.5-.1.9-.1 1.4 0 .9.2 1.8.5 2.6l-307.7 166.5c-1.3-1.8-3.4-3-5.9-3l-36-283.6c1.9-.6 3.5-1.9 4.5-3.6zm-501.2 348.6c0-1.3-.3-2.4-.9-3.5l250.5-179.7c1.2 1.2 2.7 2.1 4.5 2.3l5.6 299.6c-2.3.3-4.2 1.7-5.3 3.7l-254.8-120.1c.2-.8.4-1.5.4-2.3zm892.4 175.7c0 .8.1 1.5.4 2.2l-238.8 138c-.8-1-1.7-1.8-2.9-2.3l110.2-302.9c.5.1 1 .2 1.6.2 1.4 0 2.7-.4 3.8-1.1l127.8 160.9c-1.3 1.2-2.1 3-2.1 5zm-43-396.9l-84.7 217.7c-.6-.1-1.1-.2-1.7-.2-3.1 0-5.7 1.9-6.8 4.6l-216.4-54.2c0-.3.1-.5.1-.8 0-.9-.2-1.8-.5-2.6l307.7-166.5c.6.8 1.4 1.5 2.3 2zm-591.7 39.7l200.5 388.1c-.8.6-1.5 1.4-2 2.3l-188.7-80.9c.2-.7.4-1.5.4-2.3 0-3.8-2.8-6.8-6.5-7.2l-5.6-299.6c.8 0 1.4-.1 1.9-.4zM1754 1961l66.5-252.7c.3 0 .5.1.8.1.4 0 .8-.1 1.1-.1l111.5 360.6c-1.1.5-2 1.3-2.7 2.2L1758 1970.5c.4-.9.6-1.8.6-2.8 0-3-1.9-5.6-4.6-6.7zm294.3-195.8l-110.3 303c-.3-.1-.7-.1-1.1-.1s-.9.1-1.3.1l-111.5-360.5c1.8-.8 3.2-2.2 3.9-4l216.4 54.2c0 .3-.1.5-.1.8 0 2.8 1.6 5.3 4 6.5zm-118.7 310.1v.4l-360 71.7c-.3-.8-.7-1.6-1.2-2.2l178.1-172c1.3 1.1 2.9 1.9 4.8 1.9 2.4 0 4.5-1.1 5.8-2.9l173.1 100.4c-.4.8-.6 1.7-.6 2.7zM1551 1888.1c1.8-.4 3.4-1.6 4.5-3.1l188.8 80.9c-.1.6-.2 1.1-.2 1.7 0 1.5.4 2.9 1.2 4.1L1567 2143.9c-1.2-.9-2.6-1.4-4.1-1.4l-11.9-254.4zm-1.3-317.1l264.7 127.7c-.2.7-.4 1.5-.4 2.3 0 3.1 1.9 5.7 4.7 6.8l-66.5 252.7c-.3 0-.6-.1-.9-.1-1 0-1.9.2-2.8.5L1548 1572.8c.7-.5 1.2-1.1 1.7-1.8zm594.5-36.5l89.5 169.8a7.16 7.16 0 0 0-3.1 5.9c0 .3 0 .6.1.9l-172.4 44.9c-.6-1.6-1.8-2.8-3.3-3.7l84.7-217.6c.6.2 1.2.3 1.9.3 1 0 1.8-.2 2.6-.5zm91.3 182.6l-46.4 206.6c-.2 0-.4-.1-.6-.1-1.4 0-2.7.4-3.8 1.1l-127.8-160.9c1.3-1.3 2.1-3.1 2.1-5 0-.3-.1-.6-.1-1l172.4-44.9c.7 2 2.2 3.4 4.2 4.2zm-49.4 220.7l-39.8 230h-.3c-2.6 0-4.8 1.3-6.1 3.3l-196.1-93.5c.2-.7.4-1.4.4-2.2 0-1-.2-2-.6-2.8l238.6-137.8c.9 1.4 2.3 2.4 3.9 3zm-254.3 142.8l-142.7 230c-.8-.3-1.7-.5-2.6-.5-2.2 0-4.1.9-5.4 2.4L1569 2153.3c.6-1.1 1-2.2 1-3.5 0-.2 0-.4-.1-.5l360-71.7c.4 1.1 1.1 2.2 1.9 3zm-697.1-66.9l46.3-251.3h.4c2.6 0 4.9-1.3 6.2-3.4l254.9 120.2c-.1.6-.2 1.1-.2 1.7 0 .9.2 1.7.5 2.5l-304.9 132.8c-1-1-2-1.9-3.2-2.5zm-.8-497.4c0-1-.2-1.9-.5-2.7l334.5-185.7c.9 1.3 2.2 2.2 3.7 2.7l-28.1 229.2c-3.3 0-6 2.2-6.9 5.2l-302.7-48.5v-.2zm346.3-189.2l196.2 74.7c-.1.4-.1.8-.1 1.2 0 1.3.3 2.5.9 3.5L1549 1562.2c-1-1.1-2.2-1.8-3.6-2.2l28.1-229.1h.3c2.8 0 5.2-1.5 6.4-3.8zm198 81c1.3 1.4 3.2 2.3 5.2 2.3l36 283.6c-1.8.5-3.3 1.6-4.3 3.1l-264.8-127.7c.2-.7.4-1.5.4-2.3 0-1.2-.3-2.3-.8-3.3l228.3-155.7zm465.2 307l194.6 140.7c-.6 1-.9 2.2-.9 3.4 0 .4.1.7.1 1.1l-242.1 67.7c-.8-1.8-2.3-3.3-4.2-4l46.4-206.6c.2 0 .4.1.6.1 2.2 0 4.1-.9 5.5-2.4zm116.6 406.1c-1.1 1.3-1.8 2.9-1.8 4.7 0 .2 0 .5.1.7l-205.5 46c-.8-2.1-2.5-3.8-4.7-4.5l39.8-230h.4c1.6 0 3-.5 4.2-1.3l167.5 184.4zm-376.8 270.6l-189.6-72.7c.1-.5.2-1.1.2-1.7 0-2.4-1.2-4.6-3-5.9l142.5-229.8c.9.5 1.9.8 3 .9l51.3 305.6c-1.8.5-3.4 1.8-4.4 3.6zm-510.3-54.2l-179.6-68.6c.1-.5.2-1.1.2-1.7 0-.7-.1-1.4-.3-2l263.2-112c.6 1.1 1.5 1.9 2.5 2.6l-77.7 178.2c-.6-.2-1.3-.3-2-.3-2.6 0-5 1.5-6.3 3.8zm-187.3-77.5l-51.6-233c1.7-.6 3-1.8 3.9-3.3l317.7 124.3c-.1.5-.2 1-.2 1.6 0 .7.1 1.4.3 2l-263.2 112c-1.3-2.1-3.6-3.6-6.2-3.6h-.7zm-9.8-509.6l-182.4-130.1c.6-1.1 1-2.3 1-3.7 0-1.3-.3-2.4-.9-3.5l127.8-92.1c1.3 1.4 3.2 2.3 5.3 2.3h.4l51 225.3c-.8.5-1.6 1.1-2.2 1.8zm-46.3-241l67.7-243.9c.3 0 .7.1 1 .1 3.1 0 5.8-2 6.8-4.7l261.7 61.2c-.1.5-.1.9-.2 1.4 0 .9.2 1.8.5 2.6l-334.6 185.7c-.7-1-1.7-1.9-2.9-2.4zm558.6-112l173.1-293.5c.9.4 1.8.6 2.8.6.3 0 .5 0 .8-.1l61.7 255.7c-2.7 1-4.7 3.7-4.7 6.7v.2l-231.3 34.2c-.3-1.5-1.2-2.8-2.4-3.8zm182.8-297.8L2327 1192c0 .3-.1.6-.1.9 0 1 .2 1.9.6 2.8l-292.5 167c-1.3-1.7-3.4-2.9-5.8-2.9-.3 0-.5.1-.8.1l-61.7-255.7c2-.9 3.5-2.5 4.2-4.5zm364.7 100.3l65 300c-3.1.7-5.4 3.4-5.6 6.7l-246.3 19.5c-.4-1.7-1.4-3.2-2.7-4.3l185.3-322.4c.9.4 1.8.6 2.8.6.6 0 1 0 1.5-.1zm74 307.1c0-.6-.1-1.2-.3-1.8l274.5-124.4.3.6-440.8 323.9c0-.1-.1-.1-.1-.2l155.3-191.9c1.1.7 2.4 1.1 3.8 1.1 4 0 7.3-3.2 7.3-7.3zm276.8-123.6l-239.5 468.9c-.8-.3-1.6-.4-2.4-.5-2.1 0-4 .9-5.3 2.3l-194.7-140.8c.5-1 .8-2.1.8-3.2 0-1.2-.3-2.3-.8-3.4l441-324.1c.2.4.5.6.9.8zm-244.9 482.4l-74.8 252.8c-.4-.1-.7-.1-1.1-.1-1.6 0-3 .5-4.2 1.3L2194 1935.6c1.1-1.3 1.8-2.9 1.8-4.7 0-.4-.1-.7-.1-1.1l242.1-67.7c.6 1.7 2 3.1 3.7 3.8zm-79.1 266.6l-78.6 249.6c-.4-.1-.8-.1-1.2-.1-1.1 0-2.2.3-3.1.7l-128.8-202.1c1.6-1.3 2.6-3.3 2.6-5.5 0-.2 0-.5-.1-.7l205.5-46c.6 1.8 2 3.3 3.7 4.1zM1472 2341c0 .3.1.6.1.9l-355.1 63.2c-.2-.6-.4-1.1-.7-1.6l164.9-131c1.3 1.3 3.1 2.1 5 2.1 2.8 0 5.2-1.6 6.4-3.8l179.6 68.6c-.1.5-.2 1.1-.2 1.6zm-358.9 59.7l117.2-373.3c.4.1.8.1 1.2.1.2 0 .5 0 .7-.1l51.6 233c-2.8 1-4.8 3.6-4.8 6.8 0 1.4.4 2.7 1.1 3.8l-164.9 131c-.7-.5-1.3-.9-2.1-1.3zm-137.7-489.5l-118.1-201.7c1.3-1 2.2-2.4 2.6-4l414.3 49.7c0 .7.2 1.5.4 2.1l-290.8 156.1c-1.3-1.7-3.3-2.8-5.6-2.8-1.1.1-2 .3-2.8.6zm-115.6-209.3l221-81.8c1.2 2.3 3.6 3.9 6.4 3.9 2 0 3.8-.8 5.1-2.1l182.5 130.2c-.2.4-.4.9-.5 1.4L860 1703.8c0-.7-.1-1.3-.2-1.9zm641.8-706.5l232.2 150.6c-.4.9-.6 1.8-.6 2.8 0 1.8.6 3.4 1.7 4.6l-156.8 164.4c-1.2-.9-2.7-1.4-4.3-1.4-.3 0-.7.1-1 .1l-74.4-318.9c1.3-.4 2.4-1.2 3.2-2.2zm246.2 153.5c0-.2 0-.5-.1-.7l209.5-48.3c.5 1.3 1.3 2.3 2.3 3.2l-173.1 293.5c-.9-.4-1.9-.7-3-.7-.3 0-.6 0-.8.1l-40.3-240c3.2-1 5.5-3.8 5.5-7.1zm-4.1-6.6l72.7-225.5c.4.1.8.1 1.3.1 1.4 0 2.6-.4 3.7-1L1959 1092c-1.4 1.3-2.2 3.2-2.2 5.2 0 .3 0 .5.1.8l-209.5 48.3c-.7-1.7-2-3.2-3.7-4zm81.1-230.9l467.7 48.5c0 .6.1 1.2.3 1.7l-322 132.6c-1.2-2.5-3.6-4.2-6.5-4.2-1.3 0-2.5.4-3.6 1L1823 914.9c.8-1 1.4-2.2 1.8-3.5zm475 55.5l32.4 218.9c-2.2.6-3.9 2.2-4.8 4.3l-356.2-92.3c0-.2.1-.3.1-.5 0-.5 0-.9-.1-1.4l322.2-132.7c1.3 2.2 3.6 3.7 6.3 3.7 0 .1.1 0 .1 0zm40.6 229.8l343.2 177.6c-.4.9-.7 1.9-.7 3 0 .6.1 1.2.2 1.8l-274.5 124.4c-1.2-2.2-3.5-3.7-6.1-3.7l-65.1-300.5c1.2-.5 2.2-1.5 3-2.6zm348.9 187.9l5.4 350.9c-3.5.5-6.2 3.5-6.3 7.1 0 .8.2 1.5.4 2.2l-238.3 110.6c-.5-.8-1.2-1.6-2-2.1l239.6-469 1.2.3zm6 365.3l34.2 428c-.8.2-1.5.5-2.2.8L2449.8 1864c1.1-1.3 1.8-2.9 1.8-4.7 0-.8-.2-1.5-.4-2.2l238.3-110.6c1.3 1.9 3.4 3.2 5.8 3.4zm-108.6 758.8c-.9.7-1.6 1.5-2.1 2.5l-295-120.3c.1-.5.2-1.1.2-1.6 0-2.9-1.7-5.5-4.2-6.6l78.6-249.6c.4.1.8.1 1.3.1 1.7 0 3.2-.6 4.4-1.5l216.8 377zm-471.6 43.3c0 .6.1 1.3.3 1.9L1777.1 2669c-.4-.9-.9-1.7-1.5-2.3l210.3-265.2c1.1.7 2.3 1.1 3.7 1.1 1.5 0 2.8-.4 4-1.2l123.5 145.8a6.8 6.8 0 0 0-2 4.8zm-352 119.4l-501.6 40.4c-.1-1.1-.4-2-.8-2.9l295.1-208.7c1.3 1.4 3.2 2.4 5.3 2.4 1.9 0 3.6-.7 4.9-1.9l198.1 167.4c-.5.9-.9 2-1 3.3zm-510.6 33.8L1114 2413.4c2-1.3 3.3-3.5 3.4-6.1v-.4l355.2-63.3c.4 1 1 1.9 1.8 2.6l-217.7 359c-.7-.2-1.5-.4-2.3-.4-.7.1-1.3.2-1.9.4zm-148.8-301.4L786 2267c.2-.6.3-1.3.3-2 0-1.1-.3-2.2-.7-3.1l439.8-237.8c.8 1.2 1.9 2.2 3.2 2.8l-117.2 373.3c-.4-.1-.8-.1-1.2-.1-2.8-.1-5.2 1.4-6.5 3.7zm-251.1-692.7c1.1 0 2.1-.2 3-.6l118.1 201.6c-1.8 1.3-3 3.4-3 5.8s1.1 4.5 2.9 5.8l-192.1 334.4c-.5-.2-1.1-.3-1.7-.4l72.8-546.6zm-67.2-369.6c.8-.2 1.5-.6 2.2-1.1l293.2 273c-.5 1-.9 2.1-.9 3.3 0 .6.1 1.2.2 1.7L859 1700.2c-1.3-2.2-3.6-3.7-6.3-3.7-.4 0-.8.1-1.2.1l-66.1-355.1zm238-395.3c.6.2 1.3.3 2 .3 1.5 0 2.9-.4 4-1.2l263.4 308.3c-.7.8-1.2 1.7-1.5 2.7l-356.9-62.7c0-2.8-1.6-5.2-3.9-6.4l92.9-241zm787.5-33.8c.7 1.7 2 3.1 3.7 3.9l-72.7 225.4c-.4-.1-.9-.1-1.4-.1-2.4 0-4.4 1.1-5.8 2.9L1502.6 994c.5-.9.7-2 .7-3.1 0-.3 0-.6-.1-.9l307.7-77.6zm822.1 94.9l55.6 362.9c-1.6.3-3 1.2-4.1 2.5L2341.1 1195c.2-.7.4-1.4.4-2.1 0-1-.2-1.9-.5-2.8l286.4-185.4c1.3 1.6 3.3 2.6 5.5 2.6h.1zm-40 1500.2c-.6-.2-1.3-.3-1.9-.3-1 0-2 .2-2.8.6l-217-377.5c.6-.8 1-1.7 1.3-2.7l351.1 57.1v.2c0 2.7 1.4 5 3.6 6.3L2593 2507.5zm-154.5 117.3c-1.3-1.5-3.3-2.5-5.4-2.5-3.2 0-5.9 2.1-6.9 5l-296.5-74.5c0-.2 0-.3.1-.5l454.4-35.9c.2.7.5 1.3.8 1.9l-146.5 106.5zm-12.8 4.8c0 .3.1.6.1.9l-648.1 41.2c0-.3 0-.6-.1-.9l338.5-115.2c1.2 2.2 3.6 3.7 6.3 3.7 3.1 0 5.7-1.9 6.8-4.6l296.6 74.5c-.1.1-.1.2-.1.4zm-1524.6-39c.1-.5.1-.9.1-1.4 0-1.5-.4-2.8-1.2-4l204.8-172.7c1.3 1.3 3.1 2.1 5.1 2.1.8 0 1.6-.1 2.3-.4l138.5 291.6c-1.3.7-2.4 1.8-3 3.2l-346.6-118.4zm-119.2-318.9c1.4-.6 2.5-1.7 3.3-3l317.8 136.8c-.1.6-.3 1.2-.3 1.8 0 1.4.4 2.6 1 3.7l-204.9 172.8c-1.3-1.2-3-1.9-4.9-1.9-.5 0-1.1.1-1.6.2l-110.4-310.4zM338.8-793.7l220.3 506c-2.7 1.7-4.1 5-3.2 8.2.8 2.8 3.2 4.8 5.9 5.2l33.9 359.9c-.1 0-.2 0-.3.1-3.9 1.1-6.1 5.2-5 9 1.1 3.9 5.2 6.1 9 5 1.7-.5 3.1-1.6 4.1-3.1l164.1 89.6c-.5 1.4-.6 3-.2 4.5 1.1 3.9 5.2 6.1 9 5l1.5-.6 155.5 206.3c-1.7 1.8-2.4 4.4-1.7 7 1.1 3.9 5.2 6.1 9 5s5.9-4.9 5-8.7l425-173.5c1.6 2.9 5.1 4.4 8.4 3.4 2.9-.9 4.9-3.4 5.2-6.3l317.1-9.9c0 .3.1.6.2.9 1.1 3.9 5.2 6.1 9 5s6-5 5-8.8l436.4-175c1.6 2.9 5.1 4.4 8.4 3.5 3.8-1.1 5.9-4.9 5-8.7l296-124.9c1.6 2.8 5 4.3 8.3 3.3 3.9-1.1 6.1-5.2 5-9-.9-3.2-3.8-5.2-7-5.2l-46.2-364.4c3.7-1.2 5.7-5.1 4.7-8.9-1-3.5-4.5-5.6-8-5.2l-91.1-339c3.4-1.4 5.3-5.1 4.2-8.7-1-3.4-4.2-5.5-7.6-5.2l-84.7-421c3.6-1.3 5.7-5.1 4.6-8.9-1.1-3.9-5.2-6.1-9-5-.6.2-1.2.5-1.8.8L2017-1533.2c1.7-1.8 2.5-4.5 1.8-7-1.1-3.9-5.2-6.1-9-5-1.9.5-3.3 1.8-4.2 3.3l-170.2-62.3c.2-1.1.2-2.2-.1-3.3-1.1-3.9-5.2-6.1-9-5-3 .9-4.9 3.4-5.2 6.3l-635.2 138.5c-1.6-2.8-5-4.3-8.3-3.3-3.4 1-5.5 4.2-5.2 7.5l-493.6 98.9c-1.6-3.1-5.1-4.7-8.5-3.7-3.9 1.1-6.1 5.2-5 9 .1.5.3.9.5 1.3L365-1149c-1.8-2-4.6-2.9-7.4-2.1-3.9 1.1-6.1 5.2-5 9 .8 2.7 3 4.6 5.6 5.1l-21.1 329c-.4 0-.8.1-1.2.2-3.9 1.1-6.1 5.2-5 9 .9 3.5 4.3 5.6 7.9 5.1zm1665.9-742.7v.2c.1.5.3 1 .6 1.4l-250.6 196.6c-1.8-1.9-4.6-2.8-7.3-2-1.6.5-2.9 1.4-3.8 2.6L1557.5-1443c.4-1 .6-2.1.6-3.3l446.6-90.1zm225.9 280.5c.7 1.1 1.6 1.9 2.6 2.5l-180.3 378.6c-1.3-.4-2.8-.5-4.3-.1-.4.1-.7.3-1 .4L1906.2-1097c2.1-1.8 3.1-4.7 2.4-7.5l322-151.4zM2460.7-91.5L2164.8 33.4c-1.3-2.4-3.8-3.8-6.4-3.8l-28.9-219.4h.2c2.3-.7 4-2.4 4.8-4.4l326.2 99.6c-.3 1-.3 2 0 3.1zM942.6 400.2l168.7-368.8c1.3.4 2.8.5 4.2 0 1.2-.4 2.3-1 3.1-1.9l252.6 194c-1.1 1.7-1.5 3.7-1 5.8l-425 173.5c-.6-1-1.6-1.9-2.6-2.6zM780.7 185c-.6-.9-1.3-1.7-2.2-2.3l192.9-379.6c1.4.5 2.9.6 4.5.2.3-.1.6-.2.9-.4l132.1 215.9c-2.2 1.8-3.3 4.8-2.4 7.7 0 .1.1.2.1.3L780.7 185zM601.6 86.8l206.8-342.7c.7.4 1.5.7 2.3.9l-36.5 436.4c-.6 0-1.1.1-1.7.3-1.7.5-3 1.5-3.9 2.9L604.3 94.9c.4-1.4.5-2.8.1-4.3-.5-1.6-1.5-2.9-2.8-3.8zM344.4-797.9l488.5 108c0 .7.1 1.4.3 2.1.1.5.3.9.5 1.3L629.5-527c-1.8-1.8-4.5-2.6-7.1-1.8-.9.3-1.8.7-2.5 1.3L343.4-796.3c.5-.5.8-1 1-1.6zm334.2-560.2l341.1 119.7c-.2 1.1-.3 2.3.1 3.5.7 2.3 2.4 4.1 4.6 4.8L991-1073.5c-.9-.1-1.7 0-2.6.2-1.2.3-2.2 1-3 1.8l-307.7-285.2c.3-.4.6-.9.9-1.4zm497.4-99.6c1.4.8 3.1 1 4.8.7l108.3 322.6c-1.8.9-3.1 2.4-3.7 4.3L1033.7-1235c.3-1.3.4-2.6 0-3.9-.4-1.4-1.2-2.6-2.2-3.4l144.5-215.4zm283.8 195.8c-.9 1.6-1.1 3.6-.6 5.5.2.6.4 1.1.7 1.6l-162.4 121.9c-1.7-1.7-4.1-2.5-6.6-2l-108.3-322.6c.8-.4 1.5-.9 2.1-1.6l275.1 197.2zm88.9-176.8c1.3.4 2.7.4 4.2 0 1.6-.5 2.9-1.4 3.8-2.6l186.1 105.4c-.5 1.1-.6 2.4-.5 3.7l-269.4 71.1c-.6-1.5-1.6-2.7-2.9-3.4l78.7-174.2zM1566.8 1.5c-1.5.4-2.8 1.4-3.7 2.5l-195.9-115c.6-1.5.8-3.2.3-4.9-.2-.6-.4-1.1-.7-1.5l168-125.6c1.2 1.4 3 2.3 4.9 2.5l27.1 242zm-191.7 219.1c-1.1.3-2 .9-2.8 1.6L1119.7 28.1c1-1.7 1.3-3.7.7-5.7-.1-.2-.2-.4-.3-.7l235-130.8c1.2 1.3 2.8 2.2 4.6 2.4l16 327.1c-.1.1-.4.1-.6.2zm-598.3-38.8c-.3-.1-.6-.2-.9-.2l36.5-436.4c.6 0 1.1-.1 1.7-.3 2-.6 3.6-2 4.4-3.7l148.1 53.5c-.3 1.2-.3 2.4.1 3.6.5 1.7 1.6 3 2.9 4L776.8 181.8zM630.7-525.5L834.8-685c1.8 2 4.7 3 7.4 2.2.4-.1.8-.3 1.2-.5l113.4 228.7c-1.4.9-2.4 2.3-2.9 3.9l-322.3-70.2c.1-1 .1-2-.2-3-.1-.6-.4-1.1-.7-1.6zm398.1-704.4c1.9-.5 3.4-1.8 4.3-3.4l252 105v1l-287.8 58.7c-.7-2.2-2.4-3.8-4.5-4.5l33.4-156.6c.8.1 1.7 0 2.6-.2zm714-100.5c.7 1.8 2.1 3.2 3.8 3.9l-68.4 229.7c-1-.2-2.1-.1-3.2.2-1.3.4-2.4 1.1-3.3 2L1472-1254.1c1.1-1.5 1.6-3.4 1.4-5.3l269.4-71zm356.8 813.2l-242.1 48.9c-.7-2.2-2.4-3.8-4.5-4.5l39.5-187.8c.9.1 1.7 0 2.6-.3 1.3-.4 2.5-1.1 3.3-2.1l202 141.9c-.6 1.2-.9 2.5-.8 3.9zm21.2 317.7l-327.1-80.3c.1-.9 0-1.9-.2-2.9-.6-2-2-3.6-3.8-4.5l59.4-171.8c1.1.2 2.3.2 3.5-.1.9-.3 1.8-.7 2.5-1.3l266.7 259.1c-.4.6-.7 1.2-1 1.8zM1547.3-250l-.6-1.5 298.5-209.7c.6.7 1.3 1.2 2.2 1.6L1788-287.7c-1.1-.2-2.3-.2-3.5.1-3.2.9-5.2 3.9-5.2 7l-232 30.6zM974-211l-12.7-230.3c.5 0 1.1-.1 1.6-.3 2-.6 3.6-2 4.4-3.7l290.2 104c-.3 1.2-.3 2.4.1 3.6 0 .1.1.1.1.2L980-207.6c-1.3-2.1-3.5-3.3-6-3.4zM846.5-693.5l271.3-206.7c1.4 1.5 3.5 2.4 5.6 2.3l58.4 247.8c-2.3.7-4 2.5-4.7 4.6l-329.7-44c0-.8 0-1.6-.2-2.4-.2-.5-.4-1.1-.7-1.6zm151.1-373.3l287.8-58.7c.3 1 .9 1.9 1.6 2.6l-160.3 211.5c-1.7-.9-3.7-1.3-5.7-.7-.7.2-1.3.5-1.8.8l-123.6-150c1.4-1.5 2.2-3.4 2-5.5zm470.6-184.6c.9-.3 1.8-.7 2.5-1.3l199.9 159.6c-.9 1.6-1.2 3.6-.6 5.5.2.8.6 1.4 1 2l-162.9 143.7c-1.5-1.3-3.4-2-5.5-1.8l-34.4-307.7c-.1 0 0 0 0 0zm72 996.3L1497-537.7c2.3-.7 4-2.4 4.8-4.5l341.6 75.6c-.1.9 0 1.7.2 2.6.1.5.3.9.5 1.3l-298.6 209.8c-1.4-1.4-3.3-2.3-5.3-2.2zM966.9-452.6l212-185.5c1.6 1.6 3.8 2.4 6.1 2.1l76.9 289.6c-1.7.7-3 1.9-3.7 3.4L967.9-447c.3-1.2.3-2.4-.1-3.6-.2-.7-.5-1.4-.9-2zm814.3-407.6l-78.7 189.8c-1.3-.3-2.6-.4-3.9 0-.5.1-1 .4-1.4.6l-189.2-261c1-.8 1.7-1.8 2.1-3l267.5 67.1c0 .7 0 1.4.3 2.2.4 1.9 1.7 3.4 3.3 4.3zm62.5 391.8L1502.1-544c.1-.9 0-1.8-.2-2.7-.1-.3-.2-.5-.3-.8L1694.8-659c1.8 2.3 4.8 3.4 7.8 2.6.6-.2 1.1-.4 1.6-.7l141.2 186c-.8.8-1.3 1.7-1.7 2.7zm-580 121.6l-76.9-289.6c3.4-1.4 5.3-5.1 4.3-8.7-.2-.8-.6-1.5-1-2.1l159.2-129.6c.7.7 1.6 1.3 2.6 1.7l-86.3 428.3c-.7-.1-1.3-.1-1.9 0zm97.7-437.1c-.3-.9-.7-1.8-1.3-2.5L1499-930.6c.9.7 2.1 1.2 3.2 1.4l-8.2 377.3c-.4 0-.8.1-1.1.2-.3.1-.5.2-.7.3l-133.3-224.8c2.2-1.8 3.3-4.8 2.5-7.7zm332.1 122.5c.1.3.2.5.3.8l-193.2 111.5c-1.2-1.5-2.9-2.6-4.8-2.8l8.2-377.3c.4 0 .8-.1 1.3-.2.3-.1.7-.3 1-.4l189.3 261.1c-2 1.8-2.8 4.6-2.1 7.3zm-195.9-270.4l-138.9 144.1c-1.8-1.3-4.1-1.8-6.4-1.2-1.8.5-3.2 1.7-4.1 3.1l-218.5-116.5c.3-.8.5-1.6.6-2.5l365.9-29.9c0 .1 0 .3.1.4.3.9.7 1.7 1.3 2.5zm-372.3 33.6c1.5-.5 2.7-1.4 3.6-2.5l218.6 116.6c-.4 1.3-.5 2.8-.1 4.3.2.6.4 1.1.7 1.6l-159.3 129.6c-1.4-1.2-3.2-1.8-5.1-1.8l-58.4-247.8zm142 551.8l86.3-428.3c.9.1 1.9 0 2.8-.2.3-.1.6-.2.8-.3l133.3 224.8c-2.3 1.8-3.5 4.8-2.6 7.8.2.8.6 1.4 1 2.1L1269.4-345c-.6-.6-1.3-1.1-2.1-1.4zM1848.5-473c-.6.2-1.2.5-1.7.8l-141.2-186c1.2-1.2 2-2.7 2.2-4.4l178.1-4.2c0 .3.1.6.2.9.7 2.4 2.5 4.1 4.6 4.8l-39.5 187.8c-.9 0-1.8 0-2.7.3zm37.3-195.7l-178.1 4.2c0-.3-.1-.6-.2-.9-.5-1.9-1.8-3.4-3.4-4.3l78.7-189.8c1.2.3 2.6.4 3.9 0 .2-.1.4-.2.6-.2l101.4 185.9c-1.6 1.2-2.7 3.1-2.9 5.1zm-108-199.8l-267.3-67c.1-.9 0-1.9-.2-2.9-.2-.8-.6-1.4-1-2l162.9-143.7c1.8 1.6 4.3 2.2 6.8 1.5.1 0 .2-.1.3-.1l101.4 210.2c-1.4 1-2.4 2.4-2.9 4zM1496-936.6l-365.8 29.9c0-.2 0-.3-.1-.5-.4-1.2-1-2.3-1.9-3.1l160.3-211.4c1.7 1.1 3.8 1.5 5.9.8.9-.3 1.7-.7 2.3-1.2L1497-940c-.6 1-.9 2.2-1 3.4zm-648.9 249l329.7 44c-.1.8 0 1.7.2 2.5.2.6.4 1.1.7 1.6L965.7-454c-1.8-1.6-4.4-2.3-6.8-1.6-.1 0-.2.1-.3.1L845-684.3c1-.9 1.7-2 2.1-3.3zM980.8-206l277.8-129.8c1.7 2.6 4.9 4 8.1 3.1l90 212.7c-1.3.9-2.3 2.1-2.9 3.6L981.1-203c.1-.9 0-1.8-.2-2.8-.1 0-.1-.1-.1-.2zm377.7 85.1c-.1 0-.2.1-.3.1l-89.9-212.6c1.3-.7 2.3-1.8 2.9-3.1l262.1 87c-.3 1.2-.3 2.4.1 3.6.1.4.3.8.5 1.2L1365.8-119c-1.9-1.8-4.6-2.6-7.3-1.9zm-86.7-217.3c.2-1.1.2-2.3-.1-3.4-.2-.8-.6-1.4-1-2.1l219.5-195.5c1.4 1.2 3.1 1.8 4.9 1.8l43.3 282.6c-2 .6-3.5 1.9-4.4 3.6l-262.2-87zM1891-674.9c-.2.1-.4.2-.6.2L1789-860.6c1.6-1.2 2.7-3 3-5l251.4-1.3c0 .4.1.7.2 1.1.4 1.2 1 2.2 1.8 3L1896.9-674c-1.7-1.1-3.8-1.5-5.9-.9zm-103.9-198.5c-1.4-.5-2.9-.6-4.4-.1-.1 0-.3.1-.4.2l-101.4-210.2c1.9-1.3 3.1-3.3 3.3-5.6l210.2-12.2c0 .2.1.5.1.7.5 1.7 1.6 3.1 3 4l-110.4 223.2zm-320.8-377.8l34.5 308c-1 .4-1.9 1-2.7 1.7L1298-1123.4c1.4-1.8 2-4.2 1.3-6.5-.2-.6-.4-1.1-.7-1.5l162.4-121.9c1.4 1.4 3.3 2.2 5.3 2.1zm-473.9 191.9c.7-.2 1.3-.5 1.8-.9l123.6 150c-.8.9-1.4 2-1.7 3.2l-283.9-35.5c0-.7-.1-1.3-.3-2-.2-.6-.4-1.1-.7-1.6l153.9-115.2c1.9 2 4.6 2.8 7.3 2zM827-935.4c2.6-.7 4.4-2.8 5-5.2l283.9 35.5c0 .7.1 1.3.3 2l.6 1.5-271.4 206.7c-1.2-1.3-2.9-2-4.7-2.2l-14.4-238.2c.2 0 .5 0 .7-.1zm132.4 494l12.8 230.6c-.1 0-.3 0-.4.1-2 .6-3.6 2-4.4 3.7l-148.1-53.5c.3-1.2.3-2.4-.1-3.6-.4-1.3-1.1-2.4-2-3.2l139.6-175.2c.8.5 1.7.9 2.6 1.1zm21.2 240.2l372.7 86.7c-.1.9 0 1.8.2 2.7.1.5.3.9.5 1.3L1119.3 20.2c-1.8-2.4-4.9-3.6-7.9-2.7-.3.1-.6.2-.9.4l-132.1-216c1-.8 1.8-1.9 2.2-3.1zm567-46.9l231.8-30.6v.2c.9 3 3.5 4.9 6.4 5.2l10.9 262.9c-.3 0-.5.1-.8.2-1 .3-1.8.7-2.6 1.3l-247-234.7c.9-1.4 1.4-2.9 1.3-4.5zm251 237.5l-10.9-262.9c.3-.1.5-.1.8-.2 2.3-.7 3.9-2.3 4.7-4.4l327.1 80.3c-.1.9 0 1.9.2 2.9.1.3.2.5.3.8L1803.9-7.5c-1.3-1.8-3.2-2.9-5.3-3.1zm327-193.2c-.9.3-1.8.7-2.5 1.3l-266.7-259.1c1-1.4 1.6-3.1 1.4-4.9l242.2-48.8c1.1 3.1 4 5.1 7.2 4.9L2127-204c-.5-.1-1 0-1.4.2zm-20.8-320.9c-1.3.4-2.5 1.1-3.3 2.1l-202-141.9c0-.1.1-.1.1-.2l512.8 190.5c-.1.2-.1.4-.1.6l-298.1-44.3c0-.6-.1-1.2-.3-1.8-1.2-3.9-5.2-6.1-9.1-5zm308.4 48.8l-513-190.6c.2-1.1.2-2.3-.1-3.5-.3-1.1-.9-2.1-1.7-2.9L2047-861.7c1.7 1 3.7 1.3 5.8.8.8-.2 1.5-.6 2.2-1.1l359 385.1c-.4.3-.6.6-.8 1zm-369.8-392.9l-251.4 1.3c0-.4-.1-.7-.2-1.1-.5-1.7-1.6-3.1-3-4l110.4-223.2c1.4.5 2.9.6 4.4.1.4-.1.7-.3 1-.4L2046-873.5a7 7 0 0 0-2.6 4.7zm-149.1-234.3l-210.2 12.2c0-.2-.1-.5-.1-.7-.6-2.1-2.2-3.8-4.1-4.6l68.4-229.7c1 .2 2.1.1 3.2-.2.4-.1.8-.3 1.2-.5l144.1 218.5c-1.5 1.2-2.4 3-2.5 5zM984-1062.7L830.2-947.4c-1.8-1.9-4.6-2.7-7.2-1.9-1.9.5-3.4 1.8-4.3 3.4l-194.6-80.7c.1-.5.2-1.1.2-1.7l358.9-36.7c.1.3.1.6.2.9.1.4.4.9.6 1.4zM623.4-1025L818-944.3c-.3 1.3-.4 2.6 0 3.9.9 3 3.5 5 6.5 5.2L838.9-697c-.2 0-.4.1-.7.1-.4.1-.8.3-1.2.5l-215.2-326.7c.7-.5 1.2-1.2 1.6-1.9zm3.1 510.2c2.2-.6 3.8-2.3 4.7-4.2l322.5 70.2c0 .7 0 1.4.2 2.2L569.1-285.1c-.8-1.4-2.1-2.5-3.6-3.1l58.2-226.4c.9.1 1.9 0 2.8-.2zm-56.7 231.4l384.7-161.5c.2.4.5.8.8 1.2L815.6-268.5c-1.6-.9-3.6-1.2-5.5-.6-2.7.8-4.5 3-5.1 5.5l-235-18c.1-.6 0-1.2-.2-1.8zm807.8 503.7l-16-327c.3 0 .6-.1 1-.2 1.5-.4 2.8-1.4 3.7-2.5l195.9 115c-.7 1.5-.8 3.2-.3 4.9.3 1 .7 1.8 1.3 2.5l-181.9 208.5c-1.2-.7-2.4-1.1-3.7-1.2zM1568.7 1.2l-27.1-241.9c.3 0 .6-.1.8-.2 1-.3 1.9-.8 2.7-1.4l247 234.7c-.8 1.1-1.3 2.3-1.4 3.7L1575.9 7.2c0-.2-.1-.5-.1-.7-.9-3.3-3.9-5.4-7.1-5.3zm7.4 7.8l214.7-11.1c0 .3.1.5.1.8.6 2 1.9 3.5 3.6 4.4l-84 207.1c-1.2-.3-2.6-.4-3.9 0-.4.1-.8.3-1.2.5L1573.7 13.9c1.3-1.3 2.2-3 2.4-4.9zm136.1 201.9l84-207.2c1.2.3 2.4.3 3.7-.1 2.8-.8 4.7-3.1 5.1-5.8L2151.2 37c0 .6.1 1.1.2 1.7l-436.4 175c-.7-1.2-1.6-2.2-2.8-2.8zm444.2-181c-2.6.7-4.4 2.8-5 5.3L1805.2-4c0-.5-.1-.9-.2-1.4-.1-.2-.1-.3-.2-.5l317.1-186.5c1.4 1.8 3.5 2.8 5.8 2.8l28.9 219.4c-.1 0-.1 0-.2.1zM2128.9-204L2109-510.8c2.5-.8 4.3-2.9 4.9-5.3l298.1 44.3c0 .6.1 1.2.3 1.8.3 1 .8 2 1.5 2.7l-281.3 265c-1-.8-2.3-1.5-3.6-1.7zm286.4-274.1l-359.1-385.2c.6-.8 1.1-1.7 1.4-2.6l259.5 40.9c0 .7 0 1.5.2 2.2 1 3.5 4.5 5.6 8 5.2l91.1 338.9c-.3.2-.7.4-1.1.6zm-97.9-348.7l-259.5-40.9c0-.7 0-1.5-.3-2.2-.5-1.8-1.6-3.1-3.1-4.1l180.4-378.8c.7.2 1.5.3 2.3.2l84.7 421c-2.2.8-3.9 2.6-4.5 4.8zm-413.2-282.6c-1.4-.6-3.1-.7-4.7-.2-.4.1-.8.3-1.2.5l-144.1-218.5c2.1-1.8 3.1-4.7 2.2-7.5l-.6-1.5 250.6-196.6c.7.8 1.7 1.4 2.7 1.8l-104.9 422zm-357.2-330l-78.7 174.1c-1.3-.4-2.7-.5-4.2 0-1.3.4-2.4 1.1-3.3 2l-275-197.3c.4-.8.7-1.7.8-2.6l356.9 17.8c0 .6.1 1.3.3 1.9.6 1.7 1.7 3.1 3.2 4.1zm-372.5-19.4L1030-1243.4c-1.6-.8-3.4-1-5.3-.5-2 .6-3.6 2-4.5 3.7l-341.1-119.7c.2-1 .2-2 0-3l493.4-98.9c.5 1.2 1.2 2.2 2 3zm-500.4 104.4c.8-.2 1.5-.6 2.1-1L984.1-1070c-.5.9-.9 1.9-1 3l-359 36.7c0-.1 0-.3-.1-.4-.7-2.5-2.6-4.2-4.9-4.9l53.1-318.6c.7.1 1.3 0 1.9-.2zm-55 332.8c.4-.1.8-.3 1.2-.5l215.2 326.7c-1.1.9-1.9 2.2-2.3 3.6L345-799.7c.2-1 .1-2.1-.2-3.2-.2-.7-.5-1.2-.8-1.8l268-218.8c1.8 1.9 4.5 2.7 7.1 1.9zM340.6-794.2c.5-.2 1.1-.5 1.5-.8l276.6 268.8c-1.3 1.8-1.9 4.1-1.2 6.4.7 2.3 2.4 4 4.5 4.8l-58.2 226.3c-1-.1-1.9-.1-2.9.2h-.1L340.6-794.2zm223 519.9c.4 0 .8-.1 1.2-.2 2.6-.7 4.4-2.8 5-5.2l235 18c0 .6.1 1.1.3 1.7.3 1.2 1 2.2 1.8 3l-207 343c-.8-.3-1.6-.4-2.4-.5l-33.9-359.8zm215.8 468.2c1.9-1.8 2.8-4.6 2-7.2l326-158.3c.6.9 1.3 1.6 2.2 2.2L940.9 399.4c-1.3-.4-2.8-.5-4.2 0-.7.2-1.3.5-1.8.9L779.4 193.9zm604.9 32.5c0-.3-.1-.6-.2-.9-.3-1.1-.9-2-1.6-2.8l181.9-208.5c1.8 1.3 4.1 1.8 6.3 1.2.5-.1.9-.3 1.3-.5l131.8 196.8c-1.4 1.2-2.3 2.9-2.5 4.8l-317 9.9zm1081.4-326.8c-2.1.6-3.7 2.1-4.6 4L2134.8-196c.1-.9 0-1.9-.2-2.8-.2-.7-.5-1.3-.9-1.9L2415.2-466c1.3.9 2.9 1.4 4.6 1.3l46.1 364.3c-.1-.1-.2-.1-.2 0zm-234.2-1164.4c-1.7 1.8-2.5 4.5-1.8 7 0 .1.1.1.1.2l-322 151.4c-.5-.9-1.2-1.6-2-2.2l105-422.5c.9.1 1.9 0 2.9-.2.6-.2 1.2-.5 1.8-.8l216 267.1zm-226.7-275.4c-.2.6-.3 1.3-.3 2l-446.8 90.3c-.1-.2-.1-.3-.2-.5l264.7-153c1.7 2.5 4.9 3.8 8 2.9 2.1-.6 3.7-2.1 4.5-3.9l170.1 62.2zm-183.5-62.9l-264.8 153c-1.8-2.3-4.8-3.4-7.8-2.6-2.6.8-4.4 2.8-5 5.3l-357.1-17.9c0-.3-.1-.6-.2-.9l634.5-138.3c0 .3.1.6.2.9.1.3.2.4.2.5zM666.7-1356.5c1 1.1 2.3 1.9 3.8 2.2l-53.1 318.5c-.8 0-1.5 0-2.3.3-1.9.5-3.4 1.8-4.3 3.4L366.4-1142c.4-1.3.4-2.7 0-4.1-.1-.5-.3-.9-.5-1.3l300.8-209.1zm-306.8 219.6c.5 0 1-.1 1.6-.3 1.8-.5 3.2-1.7 4.2-3.2l244.5 109.9c-.3 1.2-.4 2.6 0 3.9.2.6.4 1.1.8 1.7L342.8-806.1c-1.1-1-2.5-1.7-4-1.9l21.1-328.9zM-837.5 1314.3l492.3-249.4c1.8 2.6 5.2 3.8 8.4 2.7 2.8-1 4.6-3.5 4.8-6.2l357.3-54.8c0 .1 0 .2.1.3 1.3 3.8 5.5 5.8 9.3 4.4 3.8-1.3 5.8-5.5 4.4-9.3-.6-1.7-1.8-3-3.3-3.9L115.7 829c1.4.4 3 .4 4.5-.1 3.8-1.3 5.8-5.5 4.4-9.3-.2-.5-.4-1-.7-1.4l197-167.2c1.9 1.6 4.6 2.2 7.1 1.3 3.8-1.3 5.8-5.5 4.4-9.3-1.3-3.7-5.3-5.6-9-4.5l-198-414.2c2.8-1.8 4.1-5.3 3-8.6-1-2.9-3.7-4.7-6.6-4.8l-28.4-316c.3-.1.6-.1.9-.2 3.8-1.3 5.8-5.5 4.4-9.3-1.3-3.7-5.4-5.7-9.1-4.5l-200.2-425.4c2.8-1.8 4.1-5.3 3-8.6-1.3-3.7-5.3-5.6-9-4.5l-142-288.2c2.7-1.8 4-5.3 2.8-8.5-1.3-3.8-5.5-5.8-9.3-4.4-3.1 1.1-5 4.1-4.8 7.3L-631-784.1c-1.5-3.6-5.5-5.4-9.2-4.1-3.5 1.2-5.4 4.8-4.7 8.3l-333 110.7c-1.6-3.3-5.4-5-9-3.7-3.3 1.2-5.3 4.5-4.8 7.9l-415.1 109c-1.5-3.5-5.5-5.4-9.1-4.1-3.8 1.3-5.8 5.5-4.4 9.3.2.6.5 1.2.9 1.7L-1673.6-318c-1.9-1.6-4.6-2.2-7.1-1.3-3.8 1.3-5.8 5.5-4.4 9.3.6 1.8 1.9 3.2 3.5 4l-52.2 173.5c-1.1-.1-2.2-.1-3.3.3-3.8 1.3-5.8 5.5-4.4 9.3 1 2.9 3.7 4.7 6.6 4.8l175.2 626c-2.7 1.8-4 5.3-2.9 8.5 1.2 3.3 4.5 5.2 7.8 4.8l127.5 487c-3 1.7-4.4 5.4-3.2 8.7 1.3 3.8 5.5 5.8 9.3 4.4.5-.2.9-.4 1.3-.6l226.2 288.1c-1.9 1.9-2.7 4.8-1.7 7.5 1.3 3.8 5.5 5.8 9.3 4.4 2.7-.9 4.4-3.3 4.7-5.9l329.6 1.9c.1.4.1.8.3 1.1 1.3 3.8 5.5 5.8 9.3 4.4 3.5-.8 5.4-4.4 4.7-7.9zm-838.6-1619.8h.2c.5-.2 1-.4 1.4-.7l210.9 238.7c-1.8 1.9-2.5 4.7-1.6 7.4.5 1.6 1.6 2.8 2.9 3.6l-94.4 192c-1-.4-2.2-.5-3.3-.4l-116.1-440.6zm266.8-241.8c1-.7 1.8-1.7 2.3-2.8l388.5 158c-.4 1.4-.3 2.9.2 4.3.1.4.3.7.5 1l-214 154.1c-1.9-2-4.8-2.9-7.6-1.9l-169.9-312.7zm1149.1-297.6l141.9 288.1c-2.3 1.4-3.6 4-3.4 6.6l-217.4 41.7v-.2c-.8-2.2-2.6-3.8-4.7-4.5l80.4-331.4c1.1.1 2.1 0 3.2-.3zM319.1 641.9L-58.8 495c.3-1.3.3-2.8-.2-4.2-.4-1.2-1.2-2.2-2.1-3l179-263.4c1.7 1 3.8 1.3 5.9.6l198 414.1c-1.2.8-2.1 1.7-2.7 2.8zM113.8 816.1c-.9.6-1.6 1.4-2.2 2.3L-278.6 648c.4-1.4.4-3-.1-4.5-.1-.3-.3-.6-.4-.9l207.9-144.4c1.9 2.1 5 3 7.8 2 .1 0 .2-.1.3-.1l176.9 316zm-87.7 184.5L-328 814.2c.4-.7.6-1.5.8-2.3l437.8 11c.1.6.2 1.1.4 1.7.6 1.6 1.7 2.9 3.1 3.8l-80 169c-1.4-.4-2.9-.3-4.3.2-1.6.6-2.8 1.7-3.7 3zM-842 1308.9l79.4-494c.7 0 1.4-.1 2.1-.4.4-.2.9-.4 1.2-.6l171.2 194.5c-1.7 1.9-2.3 4.6-1.4 7.2.3.9.8 1.7 1.4 2.4l-252.2 291.7c-.6-.3-1.1-.5-1.7-.8zm-578.8-300.9l99.6-347.5c1.2.2 2.4.1 3.5-.3 2.3-.8 3.9-2.7 4.5-4.9l158.2 24.2c0 .9.1 1.7.4 2.6.4 1.2 1.1 2.2 2 2.9l-266.8 323.8c-.3-.3-.8-.6-1.4-.8zm-128.4-490.8c.7-1.5.8-3.2.4-4.9l315.7-126.9c1 1.8 2.6 3 4.5 3.5l-90 257.3c-1.3-.3-2.6-.2-3.9.2-1.4.5-2.5 1.3-3.3 2.4l-223.4-131.6zm179-294.7c1.7.8 3.6.9 5.5.3.5-.2 1-.5 1.5-.8l131.2 155c-1.6 1.8-2.3 4.3-1.7 6.7l-315.8 126.9c-.4-.8-1-1.5-1.7-2l181-286.1zm-181.7-78.4c.3-1.3.3-2.8-.2-4.1-.6-1.5-1.6-2.8-2.9-3.6l94.4-192c1.2.4 2.4.5 3.7.3l86.6 264.8c-1.4.7-2.6 1.8-3.3 3.1l-178.3-68.5zM-115.3 42c.5 1.5 1.5 2.7 2.7 3.5L-216 247.8c-1.5-.5-3.2-.6-4.9 0-.5.2-1 .5-1.5.8L-357.6 88.2c1.3-1.3 2.1-3.1 2.2-5L-115.3 42zm229.9 178.6c.4 1.1 1 2 1.8 2.7l-179 263.5c-1.7-.9-3.8-1.1-5.7-.4l-.6.3-144.3-227c1.3-1.3 2-3 2.1-4.7l325.6-35c0 .2.1.4.1.6zm-3.8 599.5c-.1.3-.1.6-.2.9l-437.8-11c-.1-.6-.2-1.1-.4-1.7-.7-2-2.2-3.4-3.9-4.2l44.7-151c1.2.2 2.4.1 3.6-.3 1.7-.6 2.9-1.7 3.8-3.1l390.2 170.4zm-697.6 187.2l-171.1-194.5c1.9-1.9 2.7-4.8 1.7-7.6-.1-.4-.3-.8-.5-1.1L-535 677.5c1 1.3 2.4 2.3 4.1 2.7l-51.3 325.8c-1-.1-2 0-3 .4-.6.2-1.1.5-1.6.9zm-726.4-356.4c-.7-1.8-2-3.2-3.6-4.1l90.2-257.7h1l75.4 283.9c-2.1.9-3.6 2.6-4.2 4.7l-158.2-24.2c-.2-.8-.3-1.7-.6-2.6zm-142-706.9c1.7-.8 3-2.3 3.7-4l233.3 54.9c-.1 1 0 2.1.4 3.2.5 1.3 1.2 2.3 2.2 3.1l-147.5 208.7c-1.5-1-3.5-1.4-5.4-1.1L-1455.2-56zm791.1-403.6l62.9 238.9c-2.1.9-3.7 2.7-4.3 4.7l-189.8-28.5c0-.9-.1-1.7-.4-2.6-.5-1.3-1.3-2.4-2.3-3.2l129.9-210c1.2.6 2.6.9 4 .7zm315.9-39.8l-61.1 331.2c-.9-.1-1.9.1-2.8.4-2 .7-3.5 2.2-4.2 4l-175-49.3c.2-1.1.1-2.3-.3-3.5-.3-.9-.8-1.7-1.4-2.4l243-281.2c.6.4 1.2.6 1.8.8zm-17 575.5c-.5.2-1 .4-1.4.7L-593.4-209c.6-.7 1.2-1.4 1.5-2.3l175 49.3c-.2 1.1-.1 2.3.3 3.5 1.1 3.1 4.1 5 7.3 4.8l44.1 229.8zm72.4 570.1L-522 672.3c-.1-.5-.2-1.1-.4-1.6-.7-2-2.2-3.4-3.9-4.2l86.9-295.8c1.2.2 2.4.1 3.6-.3.1 0 .1-.1.2-.1L-289.8 640c-2 1.5-3.1 3.8-3 6.2zM-767 801.6l-222.2-258.8c1.4-1.5 2.2-3.6 1.9-5.7l244-72.8c.9 2.2 2.7 3.8 4.9 4.4l-24.7 331.7c-.8 0-1.6.1-2.4.4-.6.2-1.1.5-1.5.8zm-381.6-129.1l-75.4-283.9c1-.4 1.8-1 2.5-1.7l220.4 147.7c-.8 1.7-1 3.7-.4 5.7.2.7.6 1.2 1 1.8L-1143 674.2c-1.5-1.3-3.5-2-5.6-1.7zm-211.7-459c-.3-.9-.8-1.7-1.4-2.4L-1214 2.2c1.7.8 3.7 1 5.5.3.7-.3 1.4-.7 2-1.1l153 154.2c-1.2 1.6-1.8 3.6-1.5 5.6l-305.2 52.4c-.1 0-.1-.1-.1-.1zm990.4-129.9l-279.6 59.7c-.8-2.3-2.6-3.9-4.8-4.5l55.6-345.4c.9 0 1.7-.1 2.6-.4.5-.2.9-.4 1.3-.6L-368 78.1c-1.4 1.5-2 3.4-1.9 5.5zm-163.7 583.8l-197.5-200.8c1.5-1.7 2.2-3.9 1.7-6.2l284.6-93.7c.8 1.6 2.1 2.8 3.6 3.5l-87 295.8c-1.2-.2-2.4-.1-3.6.3-.6.3-1.2.7-1.8 1.1zM-988-121.7l194 67.5c-.3 1.3-.2 2.6.2 3.9.2.5.4 1 .7 1.4l-249.5 204c-.8-.9-1.9-1.6-3.1-2l51.4-271c.7 0 1.4-.1 2.2-.4 1.9-.5 3.3-1.8 4.1-3.4zm387.5-85.3l-55.6 345.4c-.9 0-1.8.1-2.7.4-.3.1-.5.2-.7.4L-782.1-47.2c2.2-1.9 3.2-5 2.1-7.9-.2-.6-.5-1.1-.8-1.5l177.5-151.8c.8.6 1.8 1.1 2.8 1.4zm155.2 571.9l-284.6 93.7c-1.6-3.3-5.4-5-9-3.7-.8.3-1.4.7-2 1.1l-138.6-151.4c.7-.8 1.2-1.7 1.5-2.7l432.6 61.1c-.1.7 0 1.3.1 1.9zm-442.1-72c-.9.3-1.8.8-2.4 1.5l-152-130.3c.6-1 1.1-2.1 1.2-3.3l377.2-13.8c.1.4.1.7.3 1.1.1.3.2.5.3.7L-879.5 295c-1.9-2.2-5-3.1-7.9-2.1zm103-338.8c.3-.1.5-.2.7-.4L-661.1 140c-1.5 1.3-2.4 3.1-2.5 5l-377.1 13.8c-.1-.4-.2-.8-.3-1.3-.1-.3-.3-.7-.5-1l249.6-204.2c2 2.1 4.8 2.8 7.5 1.8zM-1043 165.5l152 130.3c-1.2 1.8-1.6 4.2-.8 6.4.6 1.7 1.8 3.1 3.3 3.9L-992.1 531c-.8-.3-1.6-.4-2.5-.4l-51.2-363.5c.1 0 .2-.1.4-.1.9-.4 1.7-.9 2.4-1.5zm55.3 369.8c-.5-1.4-1.5-2.6-2.7-3.4l103.6-225c1.4.3 2.8.3 4.2-.2.6-.2 1.1-.5 1.6-.8l138.7 151.5c-1.1 1.5-1.7 3.3-1.5 5.2l-243.9 72.7zm542.6-174l-432.6-61.2c0-.9-.1-1.9-.4-2.8-.1-.3-.3-.6-.4-.8l216.6-146.2c1.9 2.2 5 3.2 8 2.2.7-.3 1.4-.7 2-1.1l208 207.7c-.5.7-.9 1.4-1.2 2.2zm-160.3-572.9c.2.6.5 1.2.9 1.7L-782-58.1c-1.2-1.1-2.8-1.8-4.5-1.9l-14.6-177.5c.3-.1.6-.1.9-.2 2.3-.8 3.9-2.7 4.6-4.9l189.8 28.5c0 .8.1 1.7.4 2.5zm-197.5-25.7l14.6 177.5c-.3.1-.6.1-.9.2-1.8.7-3.3 2-4.1 3.6l-194-67.5c.3-1.3.2-2.6-.2-3.9l-.3-.6 179.7-112c1.2 1.6 3.1 2.6 5.2 2.7zm-193.2 119.4l-51.3 270.7c-.9-.1-1.9.1-2.9.4-.7.3-1.4.7-2 1.1L-1205.3.1c1.5-1.9 2-4.5 1.1-6.9 0-.1-.1-.2-.1-.3l204-113.5c1.1 1.4 2.6 2.3 4.2 2.7zm-51.5 285.3l51.2 363.5c-.2 0-.3.1-.5.1-1.2.4-2.2 1.2-3 2.1l-220.4-147.7c1-1.8 1.2-3.9.5-5.9-.3-.9-.8-1.6-1.3-2.3l170-210.6c1.1.5 2.3.8 3.5.8zm286.3 633.2l24.7-331.7c.8 0 1.7-.1 2.5-.4.6-.2 1.1-.5 1.5-.8L-535 668.6c-1.5 1.9-2 4.5-1.1 6.9 0 .1.1.2.2.3l-221.9 126.7c-1-.8-2.2-1.5-3.5-1.9zm473.1-161.4L-434 369.4c2.5-1.8 3.7-5.1 2.6-8.2L-224.2 259c1 1.3 2.3 2.2 3.8 2.6l-64.8 377.1c-.9 0-1.8.1-2.7.4-.2 0-.2 0-.3.1zm62.9-382.1c0 .1.1.2.1.3l-207 102.2c-.8-1.2-2-2.1-3.3-2.7l71.6-266.7c1.2.2 2.4.1 3.6-.3.4-.1.8-.3 1.1-.5l135.3 160.5c-1.6 1.8-2.3 4.6-1.4 7.2zm-211.9 99.3c-1.1-.1-2.3-.1-3.4.3-.7.3-1.4.7-2 1.1l-208-207.7c1.1-1.4 1.6-3.2 1.5-5l279.6-59.7c.7 1.9 2.1 3.4 3.9 4.2l-71.6 266.8zm-372.2-598.6l.3.6-179.7 112c-1.3-1.6-3.1-2.5-5.1-2.7l-16-250.9c.4-.1.7-.1 1.1-.3 1.2-.4 2.1-1.1 2.9-2l197.1 137.3c-1.1 1.8-1.4 4-.6 6zm-192.1 115.3c-.4 1.4-.4 2.9.1 4.4 0 .1.1.2.2.4l-204 113.5c-1.4-1.8-3.5-2.9-5.7-3l-24.4-209.1c.2-.1.5-.1.7-.2 1.7-.6 3-1.8 3.8-3.2l229.3 97.2zm-358.4 342.3l305.4-52.4c.4 1 1.1 1.9 1.9 2.5l-169.9 210.4c-1.9-1.3-4.3-1.7-6.6-.9-.5.2-1 .5-1.5.8l-131.2-155c1.3-1.4 2-3.4 1.9-5.4zm219.2 461.9c-.2-.7-.6-1.2-1-1.8l142.6-132.1c.9.8 2 1.3 3.2 1.5l-18.9 285.4c-.7 0-1.3.1-2 .4-.6.2-1 .5-1.5.8l-124-146.9c1.8-1.9 2.5-4.7 1.6-7.3zm133.3 157.9c-.9-2.5-3-4.2-5.5-4.7l18.8-285.4c.7 0 1.3-.1 2-.4.5-.2 1-.4 1.4-.7l222.2 258.8c-1.2 1.3-1.9 3-1.9 4.8l-237 28.2c.1-.2 0-.4 0-.6zm485.4-161l229.5-26.2c0 .1.1.3.1.4.7 2 2.2 3.4 3.9 4.2l-44.7 151c-1.2-.2-2.4-.1-3.6.3-1.3.5-2.3 1.2-3.1 2.2l-183-129.2c.4-.8.7-1.8.9-2.7zm238.5-35.2l64.8-377.1c.9 0 1.8-.1 2.6-.4.5-.2.9-.4 1.3-.6l144.2 226.8c-2.3 1.9-3.3 5.1-2.2 8 .1.3.3.6.4.9L-280.3 641c-.8-.9-1.9-1.6-3.2-2zm-79.9-563.3l-44-229.7h.2c2.9-1 4.7-3.7 4.8-6.7l261.8-26.2c.1.3.1.5.2.8.3 1 .8 1.8 1.5 2.5L-358.8 76.8c-1.4-.8-2.9-1.2-4.6-1.1zm222.6-264.3l-261.8 26.2c-.1-.3-.1-.5-.2-.8-.8-2.2-2.6-3.8-4.6-4.5l61.1-331.2c.9 0 1.9-.1 2.8-.4.3-.1.5-.2.8-.4L-138-194c-1.8 1.2-2.8 3.2-2.8 5.4zm-212-315.2c.3.9.8 1.7 1.4 2.4L-594.5-220c-1.4-.9-3.2-1.4-4.9-1.2l-62.9-238.9c3-1.2 4.8-4.3 4.5-7.5l304.7-37.6c0 .4.1.9.3 1.4zM-672-464.4c.5 1.3 1.3 2.4 2.3 3.2l-129.9 210c-.1 0-.1 0-.2-.1l160.3-523c.2.1.4.1.7.1L-665.7-474c-.6.1-1.2.2-1.8.4-3.8 1.2-5.8 5.4-4.5 9.2zm30.8-310.7l-160.3 523.3c-1.1-.2-2.3-.1-3.4.3s-2 1-2.8 1.8L-1005-386.9c.9-1.7 1.1-3.8.4-5.8-.3-.8-.7-1.5-1.2-2.1l363.5-380.9c.4.2.7.4 1.1.6zM-1011.9-383l16 250.9c-.4.1-.7.1-1.1.3-1.7.6-3 1.8-3.8 3.2l-229.3-97.2c.4-1.4.4-2.9-.1-4.4-.1-.4-.3-.7-.5-1l214-154.1c1.3 1.3 3 2.2 4.8 2.3zm-225.2 162.5l24.4 209.1c-.2.1-.5.1-.7.2-2.1.7-3.6 2.4-4.4 4.3l-233.3-54.9c.1-1 0-2.1-.4-3.2-.1-.4-.3-.8-.5-1.1l209.7-156.6c1.4 1.4 3.2 2.2 5.2 2.2zm93.4 906.3l124 146.9c-1.8 1.9-2.4 4.7-1.5 7.3.7 1.8 2 3.3 3.6 4.1l-69.2 198.9c-.6-.1-1.1-.2-1.7-.1l-57.5-356.1c.3-.1.6-.1.9-.2.5-.2 1-.5 1.4-.8zm58.7 357.9l69.2-198.9c1.3.3 2.6.2 3.9-.2 3-1.1 4.8-3.8 4.8-6.8l237-28.2c.1.2.1.4.2.7.1.4.3.8.5 1.1l-313.6 233.9c-.6-.8-1.3-1.3-2-1.6zm509.1-32.9c-.8-2.2-2.5-3.7-4.5-4.4l51.3-326c.7 0 1.4-.1 2.1-.4l183.7 374.7c-1.4.9-2.4 2.2-2.9 3.8l-229.4-44.9c.1-.9 0-1.9-.3-2.8zm234.3 43.1l-183.7-374.6c.4-.3.8-.6 1.1-.9L-341 807.6c-.8 1.7-.9 3.7-.3 5.5.9 2.6 3.2 4.3 5.8 4.7l-4.3 235.6c-.6.2-1.2.3-1.8.5zm455.8-835.8l-325.6 35c-.1-.3-.1-.6-.2-.9-.5-1.5-1.5-2.7-2.8-3.6L-111 46.4c1.5.6 3.3.6 4.9 0 .9-.3 1.8-.8 2.5-1.5l218.8 169.5c-.6 1.2-1 2.4-1 3.7zM-115.7 40.2l-239.9 41.2c-.1-.3-.1-.5-.2-.8-.4-1-.9-1.9-1.6-2.6l219.9-260.3c1.1.7 2.4 1.1 3.7 1.2l23.6 213.7c-.2.1-.5.1-.7.2-3.1 1.1-5 4.2-4.8 7.4zm7.4-7.9l-23.6-213.7c.3-.1.5-.1.8-.2 1.9-.7 3.4-2.1 4.2-3.8l211.7 71.8c-.2 1.3-.2 2.6.3 3.9.1.4.3.8.6 1.2l-188.8 143c-1.5-1.4-3.3-2.1-5.2-2.2zM85.3-115.4l-211.7-71.8c.2-1.2.2-2.5-.3-3.7-1-2.7-3.4-4.5-6.1-4.8l18.9-347.8c.6 0 1.1-.1 1.7-.3L87.9-118.3c-1.1.7-2 1.7-2.6 2.9zm-206.6-432.8c.9 2.5 3.1 4.2 5.5 4.7l-18.9 347.9c-.5.1-.9.2-1.4.3-.2.1-.3.2-.5.2l-204.7-305.7c1.7-1.5 2.6-3.7 2.5-5.9l217.4-41.7c.1.1.1.1.1.2zm-231.9 41.1l-305.1 37.7c-.9-2.5-3.1-4.1-5.6-4.6l26.9-300.2c.6 0 1.2-.2 1.8-.4 1-.4 1.9-1 2.6-1.7l281 265.3c-.9 1.2-1.4 2.5-1.6 3.9zm-290.3-270l-363.6 380.9c-.8-.6-1.7-1-2.7-1.2l25.7-261.5c.7 0 1.5-.1 2.2-.4 3.4-1.2 5.4-4.8 4.7-8.3l333-110.7c.2.5.4.9.7 1.2zM-985.9-659l-25.7 261.5c-.7 0-1.5.1-2.2.4-1.7.6-3 1.8-3.9 3.3l-388.7-158c.1-.8.2-1.5.1-2.3L-991-663.3c1 2.3 2.9 3.8 5.1 4.3zm-258 429c-.5 1.5-.5 3.1 0 4.7.1.4.3.8.5 1.1l-209.7 156.6c-1.9-2-4.9-2.8-7.7-1.8-.5.2-1 .4-1.5.7l-210.9-238.7c.8-.8 1.3-1.7 1.7-2.8l427.6 80.2zm-308.7 375.8l178.4 68.4c-.3 1.3-.3 2.8.2 4.2.5 1.3 1.3 2.3 2.2 3.2l-180.9 286.1c-.8-.4-1.8-.6-2.7-.7l-3-357.3c.6 0 1.3-.2 1.9-.4 1.7-.7 3.1-2 3.9-3.5zm2.4 373l223.4 131.8c-.7 1.6-.8 3.5-.2 5.3.7 2 2.2 3.5 4 4.2l-99.6 347.5c-1-.2-2-.1-3 .2L-1553.1 521c1.2-.6 2.2-1.3 2.9-2.2zm133.4 493.4c-.3-.8-.7-1.4-1.2-2l267-324c.9.5 2 .8 3.1.8l57.6 356.2c-.1 0-.3 0-.4.1-2.4.9-4.1 2.9-4.6 5.2l-321.1-34.5c-.1-.6-.2-1.2-.4-1.8zm335.4 35.5c-.1-.4-.3-.8-.5-1.1l313.6-233.9c1 1 2.3 1.8 3.7 2.1l-79.3 493.7c-1-.1-2.1 0-3.2.4-.6.2-1.2.6-1.7.9l-234-254.8c1.7-2 2.3-4.7 1.4-7.3zm243.3 264.9l-.9-1.5 252.2-291.8c1.8 1.2 4.2 1.6 6.4.8 2.3-.8 3.9-2.6 4.5-4.8l229.3 44.9c-.1 1 .1 1.9.4 2.9v.1l-491.9 249.4zm506-253l-.3-1.2c-.9-2.5-3.1-4.2-5.5-4.7l4.3-235.7c.6-.1 1.1-.2 1.7-.4 1.1-.4 2.1-1.1 2.9-1.9l354.4 186.6c-.2.8-.3 1.6-.3 2.4l-357.2 54.9zm454.8-242.7c-1.9-1.8-4.7-2.5-7.3-1.6l-177-316.2c.9-.6 1.6-1.4 2.1-2.3l378 146.9c-.3 1.3-.3 2.8.2 4.2.2.7.6 1.2 1 1.8l-197 167.2zm-2.8-605.8c-.3.1-.6.1-.9.2-1.1.4-1.9 1-2.7 1.7L-102.4 43.6c1.2-1.8 1.6-4.2.8-6.4-.2-.5-.4-.9-.6-1.3l188.8-143c1.3 1.3 3 2.1 4.9 2.2l28.4 316zM-269.4-849.4c.7 2.1 2.4 3.6 4.3 4.3l-80.5 331.5c-.9 0-1.9.1-2.8.4-.7.2-1.3.6-1.9 1l-281.2-265.5c.8-1.4 1.2-3 1-4.7l360.9-67.3c.1.2.2.3.2.3zm-1148.8 301.7c1.9 1.6 4.6 2.2 7.1 1.3.1 0 .1-.1.2-.1l169.9 312.6c-.9.6-1.6 1.3-2.1 2.1L-1671-312c.1-.9-.1-1.9-.4-2.9-.2-.6-.6-1.2-.9-1.7l254.1-231.1zm-261.7 242.4c.7.1 1.3.2 2 .2l116.2 440.8c-.2.1-.3.1-.4.2l-168.2-255.3c2.4-1.9 3.5-5.1 2.4-8.2-.7-2.1-2.3-3.6-4.2-4.3l52.2-173.4zm-52 186.8l168.2 255.4c-2.2 1.9-3.2 5-2.1 7.9.9 2.5 3.1 4.2 5.6 4.7l3 357.6c-.3.1-.6.1-.8.2l-175.1-625.4c.3-.1.6-.1.8-.2.1-.1.2-.2.4-.2zm313.4 1138.3c1.1-1.1 1.7-2.4 2-3.9l321 34.5c0 .8.1 1.5.4 2.3.7 1.9 2 3.3 3.7 4.1l-95.4 250.4c-1.3-.3-2.8-.3-4.1.2-.5.2-.9.4-1.3.6l-226.3-288.2zm237.1 293.5c-.1-.5-.2-1-.4-1.5-.6-1.8-1.9-3.1-3.4-4l95.5-250.5c1.3.3 2.6.2 3.9-.3.6-.2 1.1-.5 1.6-.8l234 254.8c-1 1.2-1.6 2.6-1.7 4.1l-329.5-1.8z"/></g></svg>