<svg id="lines" xmlns="http://www.w3.org/2000/svg" viewBox="-21.9 0 1440 343.2"><linearGradient id="SVGID_1_" gradientUnits="userSpaceOnUse" x1="955.245" y1="116.793" x2="2338.413" y2="116.793" gradientTransform="rotate(180 1158.231 167)"><stop offset="0" stop-color="#fff"/><stop offset="1" stop-color="#231f20"/></linearGradient><path opacity=".57" fill="url(#SVGID_1_)" d="M1349.4 288.1c-30.5-20.1-62.1-41.1-95.1-60.4-19.1-11.2-38.3-21.8-57-31.1-21.1-10.5-40.7-19.2-59.8-26.4-93.6-35.6-182.2-40.6-271-15.7-33.9 9.6-67.1 22-99.2 33.8-26.6 9.9-54.3 20.2-81.7 28.6-34.5 10.6-63.9 16.9-92.9 20-34.6 3.6-67.6 2.4-101.1-3.9-22-4.1-42.5-9.4-61.5-14.5-4.3-1.1-8.7-2.4-13-3.5-15.4-4.2-29.9-8.1-45-11.7-33.2-7.8-73.9-14.9-123.9-7.7-101.1 15-175.7-.2-270.1-31.4l.2-.3c94.4 31 168.8 46.2 269.9 31.6 50.1-7.1 90.9-.1 124.1 7.7 15 3.5 29.5 7.4 45 11.7 4.3 1.1 8.7 2.4 13 3.5 18.9 5.2 39.4 10.4 61.4 14.5 33.4 6.3 66.4 7.5 100.9 3.9 28.9-3 58.4-9.4 92.8-20 27.4-8.5 55-18.7 81.7-28.6 32.1-12 65.3-24.2 99.2-33.9 88.9-25.1 177.7-20 271.4 15.7 19.1 7.2 38.7 15.9 59.8 26.4 18.8 9.4 38 19.8 57 31.1 33 19.5 64.6 40.3 95.1 60.4 3.9 2.6 7.7 5.2 11.7 7.6l-.3.3c-3.9-2.6-7.8-5.1-11.6-7.7z"/><linearGradient id="SVGID_2_" gradientUnits="userSpaceOnUse" x1="952.976" y1="117.076" x2="2338.103" y2="117.076" gradientTransform="rotate(180 1158.231 167)"><stop offset="0" stop-color="#fff"/><stop offset="1" stop-color="#231f20"/></linearGradient><path opacity=".57" fill="url(#SVGID_2_)" d="M1363.2 294.4l.3-.3-33.9-20.7c-13.3-8-24.2-14.6-34.6-20.7-27.6-16.2-50.4-28.8-71.9-39.5-67.3-34-133.7-56.7-197.6-67.5-28.2-4.6-54.4-6.6-80.1-6.1-29 .6-56.5 4.2-84.4 11.1-28.3 6.9-57.7 15.8-90 26.9-14.1 4.8-28.1 10.2-41.6 15.5-9.6 3.7-19.6 7.5-29.3 11-38.7 14.2-69.3 22.9-99.3 27.8-36.8 6.2-72.3 6.6-108.6 1.1-3.6-.5-7-1.1-10.3-1.7-20.1-3.4-39.5-7.8-57.6-12.2-2.7-.6-5.5-1.2-8.1-2-15.5-3.6-31.6-7.4-47.4-10.5-32.8-6.5-72.7-12.3-120.5-6.4-31.7 4-61.5 5.1-91.2 3.2-26.9-1.7-54.2-5.7-83.3-12.4-19.2-4.4-38.6-10.1-59-16.1-11.8-3.4-23.8-7-36.1-10.3l-.2.3c12.3 3.4 24.3 6.9 36.1 10.3 20.5 6 39.9 11.8 59.1 16.1 29.2 6.7 56.5 10.8 83.4 12.4 29.7 1.9 59.5.8 91.3-3.2 47.7-5.9 87.5 0 120.3 6.4 16 3.1 32 6.9 47.4 10.5 2.7.6 5.5 1.2 8.1 2 18.1 4.2 37.4 8.7 57.6 12.2 3.3.5 6.8 1.1 10.4 1.7 36.3 5.5 71.9 5.2 108.8-1.1 30-5.1 60.6-13.6 99.4-28 9.7-3.5 19.7-7.3 29.3-11 13.5-5.2 27.4-10.6 41.6-15.5 32.3-11.1 61.8-19.9 89.9-26.9 27.7-6.8 55.3-10.4 84.2-11.1 25.8-.6 52 1.4 80 6.1 63.8 10.7 130.3 33.3 197.4 67.4 21.4 10.7 44.2 23.3 71.9 39.5 10.3 6.1 21.2 12.6 34.6 20.7l33.9 21z"/><linearGradient id="SVGID_3_" gradientUnits="userSpaceOnUse" x1="950.81" y1="117.65" x2="2337.485" y2="117.65" gradientTransform="rotate(180 1158.231 167)"><stop offset="0" stop-color="#fff"/><stop offset="1" stop-color="#231f20"/></linearGradient><path opacity=".57" fill="url(#SVGID_3_)" d="M1365.3 292.9l.3-.3-35.3-20c-13.5-7.6-25-13.9-35.9-19.8-28.5-15.5-52.1-27.4-74.4-37.8-32.5-15.1-65.6-28.2-98.4-39-17-5.6-34.2-10.7-51.4-15.2-17-4.4-34.6-8.5-52.3-12-28.6-5.6-54.5-8.6-79.3-9.1-28.6-.6-55.7 1.8-82.9 7.4-32.1 6.6-61.5 14.2-89.8 23.3-18.1 5.8-35.3 12.9-52 19.8-6.2 2.6-12.5 5.2-18.7 7.6-25.7 10.3-59.9 23.1-96.5 30.6-35.7 7.4-70.3 9.1-105.9 5.1-3.8-.4-6.9-.8-10.2-1.2-20.5-2.7-40.2-6.5-57-9.9-3.6-.7-7.2-1.4-10.8-2.2-14.6-2.9-29.8-5.9-45-8.5-35.9-6-75.5-10.9-121.5-6.2-31.4 3.3-61.2 3.7-91.1 1-26.4-2.3-53.5-6.9-82.9-14.3-13-3.2-26-7.2-39.8-11.3-17.9-5.5-36.5-11-55.4-15.2l-.1.3c18.9 4.1 37.4 9.7 55.3 15.1 13.8 4.2 26.9 8.1 39.9 11.3 29.4 7.4 56.5 12.1 83 14.3 29.9 2.7 59.7 2.3 91.2-1 45.9-4.7 85.4.2 121.3 6.2 15.2 2.5 30.3 5.6 45 8.5 3.6.7 7.2 1.4 10.8 2.2 16.8 3.3 36.5 7.1 57 9.9 3.3.4 6.4.8 10.2 1.2 35.6 4 70.3 2.4 106.1-5.1 36.6-7.5 70.9-20.3 96.6-30.6 6.2-2.5 12.5-5.1 18.7-7.6 16.7-6.9 33.9-14 52-19.7 28.4-9.1 57.8-16.7 89.8-23.3 27.2-5.6 54.3-8 82.7-7.4 24.9.5 50.7 3.5 79.2 9.1 17.7 3.5 35.3 7.5 52.3 12 17.1 4.5 34.3 9.6 51.4 15.2 32.8 10.7 65.8 23.8 98.3 38.9 22.2 10.3 45.8 22.3 74.4 37.8 10.9 6 22.4 12.3 35.9 19.8l35.2 20.1z"/><linearGradient id="SVGID_4_" gradientUnits="userSpaceOnUse" x1="948.644" y1="118.827" x2="2337.175" y2="118.827" gradientTransform="rotate(180 1158.231 167)"><stop offset="0" stop-color="#fff"/><stop offset="1" stop-color="#231f20"/></linearGradient><path opacity=".57" fill="url(#SVGID_4_)" d="M1367.5 291.4l.3-.3c-11.7-6.2-24.2-12.8-36.7-19.3-13.6-7.1-25.8-13.3-37.2-19-29.2-14.6-53.6-26-76.8-35.9-31.8-13.6-65.7-26-101.1-36.9-16.9-5.3-34.6-10.3-52.4-15.1-17.1-4.5-35-8.9-52.9-12.9-14.3-3.2-27.2-5.7-39.3-7.6-13.7-2.2-26.6-3.6-39.3-4.5-28.2-2-54.9-.7-81.5 3.7-24.1 4-56.2 9.8-89.7 19.7-20.2 5.9-38.8 14.2-56.7 22.2-4.5 2-9.2 4.1-13.7 6.1-27 11.8-59.3 24.9-93.9 33.3-34.7 8.6-68.4 11.4-103.1 8.9l-1.2-.1c-2.9-.2-5.9-.4-8.9-.7-19.9-1.9-38.9-4.7-56.5-7.6-5-.8-9.8-1.5-14.7-2.4-13.4-2.2-27.2-4.4-41.2-6.4-35.3-5-76.6-9.8-122.6-6-31 2.7-60.9 2.4-90.9-1-26.3-2.9-52.5-8-82.5-16.2-10.4-2.8-20.9-6.2-32.1-9.7-20.5-6.6-41.8-13.3-63.3-16.8l-.1.4C1 170.7 22.2 177.5 42.7 184c11.1 3.6 21.7 6.9 32.1 9.7 30 8.1 56.3 13.3 82.6 16.3 30.1 3.4 59.9 3.8 91.1 1 45.9-3.8 87.3 1.1 122.4 6 13.9 2 27.8 4.2 41.2 6.4 5 .8 9.9 1.7 14.7 2.4 17.5 2.8 36.6 5.7 56.5 7.6 2.9.3 6 .5 8.9.7l1.2.1c34.9 2.6 68.7-.3 103.5-8.9 34.6-8.5 66.9-21.7 94-33.4 4.5-2 9.2-4 13.7-6.1 17.9-7.9 36.5-16.3 56.6-22.2 33.5-9.8 65.5-15.7 89.6-19.7 26.6-4.4 53.2-5.7 81.4-3.7 12.7.8 25.5 2.4 39.2 4.4 12.1 2 24.9 4.4 39.2 7.6 17.9 4 35.7 8.4 52.9 12.8 17.8 4.7 35.5 9.8 52.4 15.1 35.4 10.9 69.3 23.3 101.1 36.9 23.2 9.9 47.7 21.4 76.8 35.9 11.4 5.7 23.6 12 37.2 19 12.4 6.8 24.9 13.4 36.5 19.5z"/><linearGradient id="SVGID_5_" gradientUnits="userSpaceOnUse" x1="946.375" y1="120.082" x2="2336.866" y2="120.082" gradientTransform="rotate(180 1158.231 167)"><stop offset="0" stop-color="#fff"/><stop offset="1" stop-color="#231f20"/></linearGradient><path opacity=".57" fill="url(#SVGID_5_)" d="M1369.8 289.9l.3-.3c-15.3-7.5-27-13.2-38.1-18.6-13.8-6.7-26.4-12.6-38.5-18.2-29.9-13.8-55.1-24.7-79.4-34.1-30.8-12.2-64.9-23.5-103.9-34.9-17.2-5.1-35.3-10-53.5-14.9-19.4-5.2-38.8-10-53.5-13.7-30.8-7.8-54.9-12.5-77.8-15.1-13.6-1.5-26.4-2.4-39.3-2.4-13.5-.1-27.3.8-40.8 2.5-27.7 3.4-57.6 7.5-89.6 16.1-21.8 5.9-40.9 15.1-59.5 24-3.5 1.7-7.1 3.4-10.6 5.1-58.3 27.5-116.6 51.7-191.6 48.9l-2.3-.2c-2.5-.1-5.2-.2-7.7-.3-20.3-1.1-39.7-3.3-55.9-5.3-6.7-.8-13.5-1.7-20.1-2.5-11.7-1.4-23.8-3-36.1-4.3-36.5-4.1-77.9-8.7-123.7-5.8-30.8 2.1-60.5 1-90.8-3.2-25.8-3.5-51.9-9.3-82.2-18.2-9-2.6-18.1-5.7-27.7-9-22-7.4-44.8-15.2-67.8-17.5l-.1.4c22.9 2.4 45.6 10 67.6 17.5 9.7 3.3 18.8 6.4 27.7 9 30.3 8.9 56.4 14.6 82.3 18.2 30.3 4.2 60.1 5.3 91 3.2 45.7-2.9 87.1 1.8 123.6 5.8 12.3 1.3 24.3 2.9 36 4.3 6.6.8 13.4 1.7 20.1 2.5 16.3 2 35.6 4.2 56 5.3 2.6.1 5.2.2 7.7.3l2.3.1c75.2 2.8 133.7-21.6 191.8-48.9 3.5-1.7 7.1-3.4 10.6-5.1 18.6-9 37.8-18.2 59.4-24 32-8.6 61.8-12.7 89.5-16.1 13.5-1.7 27.2-2.5 40.7-2.5 12.8.1 25.7.8 39.2 2.4 22.8 2.6 46.8 7.3 77.7 15.1 14.7 3.7 34.1 8.7 53.5 13.7 18.4 4.8 36.3 9.8 53.5 14.9 39 11.3 72.9 22.7 103.8 34.9 24.2 9.5 49.5 20.3 79.3 34.1 12.1 5.6 24.8 11.6 38.5 18.2 11.4 5.4 23.1 11.2 38.4 18.6z"/><linearGradient id="SVGID_6_" gradientUnits="userSpaceOnUse" x1="944.209" y1="121.851" x2="2336.247" y2="121.851" gradientTransform="rotate(180 1158.231 167)"><stop offset="0" stop-color="#fff"/><stop offset="1" stop-color="#231f20"/></linearGradient><path opacity=".57" fill="url(#SVGID_6_)" d="M1371.9 288.5l.3-.3c-15-6.8-27.5-12.5-39.4-17.8-14-6.3-27-12-39.8-17.3-30.1-12.8-56.9-23.4-81.9-32.3-16-5.8-33.2-11.4-52.5-17.3-19.6-6-39.2-11.4-54.2-15.6-16.4-4.5-33.1-9-49.3-13.2-19.6-5.2-39.9-10.6-59.4-16.1-24.2-6.8-50.3-13.7-76.9-18.1-27.5-4.5-53.3-5.8-78.7-3.7-13.2 1-28.2 2.3-43.5 4.2-16.6 2.1-31.7 4.8-46 8.4-22.9 5.6-42.4 15.7-61.3 25.5-3 1.5-5.9 3-8.8 4.5-27.4 13.9-56.9 28.5-88.4 38.9-32.9 10.9-64.9 16.4-97.8 16.5h-9.8c-16.3-.2-33.3-1.1-55.4-3-9.3-.8-18.5-1.7-28.1-2.5-9.2-.8-18.7-1.8-28.3-2.5-3.9-.3-7.9-.7-11.9-1-35.9-3.1-72.9-6.3-112.8-4.5-30.5 1.4-60.2-.3-90.7-5.3-25.3-4.1-51.3-10.5-81.8-20.1-8-2.5-16.2-5.5-24.9-8.6-23-8.4-46.8-16.9-70.7-17.9v.4c23.7 1 47.5 9.6 70.4 17.9 8.7 3.1 16.9 6.1 25 8.6 30.6 9.6 56.6 16 81.9 20.1 30.5 5.1 60.2 6.8 90.9 5.3 39.9-1.8 76.9 1.4 112.8 4.5 3.9.3 7.9.7 11.9 1 9.6.8 19.1 1.7 28.3 2.5 9.7.9 18.8 1.8 28.1 2.5 22.1 1.9 39.2 2.8 55.5 3h9.8c71.8-.3 127-25.3 186.5-55.5 2.9-1.4 5.8-3 8.8-4.5 18.8-9.7 38.3-19.8 61.1-25.4 14.3-3.5 29.3-6.2 45.9-8.4 15.4-2 30.2-3.1 43.4-4.2 25.4-2.1 51.1-.8 78.6 3.7 26.5 4.3 52.6 11.2 76.8 18.1 19.6 5.5 39.8 10.8 59.4 16.1 16.2 4.3 32.9 8.8 49.3 13.2 15 4.1 34.6 9.6 54 15.5 19.3 5.9 36.4 11.6 52.5 17.3 25 9 51.8 19.5 81.9 32.3 12.8 5.5 25.8 11.1 39.8 17.3 11.9 5.3 24.5 11 39.4 17.8z"/><linearGradient id="SVGID_7_" gradientUnits="userSpaceOnUse" x1="942.043" y1="123.987" x2="2335.731" y2="123.987" gradientTransform="rotate(180 1158.231 167)"><stop offset="0" stop-color="#fff"/><stop offset="1" stop-color="#231f20"/></linearGradient><path opacity=".57" fill="url(#SVGID_7_)" d="M1374.1 287.1l.3-.3c-14.9-6.3-28.3-12-40.7-17.1-14.2-5.9-27.7-11.2-41.2-16.5-30.7-12-58.3-22-84.4-30.5-15.9-5.3-33.5-10.5-53.8-16.2-17.8-5-35.7-9.6-55.5-14.6-4.7-1.2-9.5-2.5-14.2-3.7-32-8.3-65-16.7-96.2-26.4l-2.2-.6c-52.2-16-97.4-29.8-151.3-27.8l-4.3.2c-12.5.4-25.4.9-38.7 2-16.9 1.4-32.1 3.6-46.3 6.7-23.8 5.3-44.2 16.7-62.3 26.7-2.5 1.4-5 2.8-7.4 4.1-62.7 34.3-112.3 58.8-180.7 62-.9 0-2 .1-2.9.1-2.2.1-4.4.2-6.7.3-16.3.5-33.7.2-54.9-.7-13.2-.6-26.4-1.3-40.3-2.3-5.4-.3-10.7-.6-16.2-.9-9.7-.6-19.5-1.2-29.1-1.9-30.9-2.2-62.9-4.3-96.7-3.5-30.3.8-59.9-1.5-90.6-7.4-24.8-4.6-50.5-11.7-81.4-22.1-7.3-2.5-14.9-5.4-22.8-8.4-23.3-9-47.4-18.2-71.5-18.2h-1.3v.4h1.3c23.9 0 48 9.2 71.3 18.2 7.9 3.1 15.5 6 22.9 8.4 30.8 10.3 56.7 17.3 81.5 22.1 30.6 5.9 60.3 8.3 90.8 7.4 33.7-.8 65.8 1.3 96.7 3.5 9.5.6 19.4 1.3 29.1 1.9 5.5.3 10.8.6 16.2.9 13.9.8 27.1 1.7 40.3 2.3 21.1 1 38.6 1.2 54.9.7 2.3-.1 4.5-.2 6.7-.3.9 0 2-.1 2.9-.1 68.5-3.2 118.2-27.7 181-62.1 2.5-1.3 5-2.7 7.4-4.1 17.9-10 38.4-21.4 62.1-26.6 14.1-3.1 29.3-5.4 46.2-6.7 13.3-1 26.2-1.5 38.7-2l4.3-.2c53.8-2 98.9 11.9 151.1 27.8l2.2.6c31.3 9.6 64.3 18.2 96.2 26.4 4.7 1.2 9.5 2.5 14.2 3.7 19.8 5.1 37.6 9.7 55.5 14.6 20.3 5.7 38 10.9 53.8 16.2 26.1 8.6 53.7 18.6 84.4 30.5 13.4 5.3 26.9 10.6 41.2 16.5 12.3 5 25.6 10.7 40.4 17z"/><linearGradient id="SVGID_8_" gradientUnits="userSpaceOnUse" x1="939.877" y1="126.403" x2="2335.422" y2="126.403" gradientTransform="rotate(180 1158.231 167)"><stop offset="0" stop-color="#fff"/><stop offset="1" stop-color="#231f20"/></linearGradient><path opacity=".57" fill="url(#SVGID_8_)" d="M1376.4 285.6l.2-.3c-15.2-6-28.9-11.3-42.1-16.4-14.4-5.5-28.4-10.6-42.5-15.7-31.3-11.2-59.7-20.6-87-28.8-16-4.7-33.5-9.5-55.2-15-13.6-3.4-27.5-6.7-41.1-10-5.3-1.2-10.5-2.6-15.8-3.8-40.7-9.9-77.3-19-112.1-30.7-9-3-17.6-6.1-26.1-9-41.3-14.4-80.1-28.1-125.1-26.2-7.5.3-15.2.3-23.1.4-20.9.1-42.6.2-66 5-12.3 2.5-24.2 6.7-37.8 13.5-9 4.5-17.2 9.5-25.2 14.2l-6.6 3.9c-56.7 33.4-105.7 62.3-175.2 68.6-.9.1-2 .2-2.9.3l-6.6.6c-16.6 1.2-33.8 1.7-54.4 1.5-18.4-.1-37.2-.7-56.6-1.3-15.7-.5-31.6-1.4-46.9-2.3-25.7-1.4-52.4-3-79.9-2.9-30.1.3-59.7-2.9-90.5-9.5-24.4-5.3-49.5-12.7-81.1-23.9-6.8-2.4-13.8-5.3-21.2-8.3-23.4-9.6-49.8-20.3-74.7-18.5l.1.4c24.8-1.9 51.1 8.9 74.3 18.3 7.4 3 14.4 5.9 21.2 8.3 31.6 11.3 56.6 18.7 81.2 24 30.8 6.7 60.4 9.8 90.7 9.6 27.5-.1 54.2 1.3 79.9 2.9 15.4.9 31.3 1.8 46.9 2.3 19.4.6 38.4 1.2 56.6 1.3 20.4.1 37.8-.3 54.4-1.5l6.6-.6c.9-.1 2-.2 2.9-.3 69.6-6.3 118.7-35.2 175.6-68.7 2.2-1.2 4.3-2.6 6.6-3.9 7.9-4.7 16.2-9.7 25.2-14.2 13.4-6.8 25.4-11 37.5-13.5 23.4-4.6 45-4.7 65.9-5 8 0 15.7-.1 23.2-.4 44.9-1.9 83.8 11.8 124.8 26.2 8.5 3 17.2 6 26.2 9 35 11.8 71.5 20.8 112.2 30.7 5.3 1.2 10.5 2.6 15.8 3.8 13.5 3.2 27.4 6.6 41.1 10 21.7 5.5 39.2 10.2 55.2 15 27.2 8 55.6 17.5 87 28.7 14.1 5.1 28.1 10.2 42.5 15.7 13 5.2 26.7 10.5 41.9 16.5z"/><linearGradient id="SVGID_9_" gradientUnits="userSpaceOnUse" x1="937.711" y1="129.549" x2="2334.906" y2="129.549" gradientTransform="rotate(180 1158.231 167)"><stop offset="0" stop-color="#fff"/><stop offset="1" stop-color="#231f20"/></linearGradient><path opacity=".57" fill="url(#SVGID_9_)" d="M1378.5 284.2l.2-.3c-15.4-5.7-29.6-10.7-43.5-15.7-14.6-5.2-29-10-43.7-14.9-31.9-10.5-61.1-19.3-89.4-26.9-27.7-7.5-57.3-14-85.9-20.3-48-10.5-97.6-21.5-142.6-37.9-12-4.3-23.4-8.8-34.5-13.2-37.5-14.7-72.9-28.8-114.6-28.8-7.4 0-15.1-.3-23.1-.7-20.8-.9-42.3-1.9-65.9 2.4-25.6 4.5-45.9 17.5-63.8 29.1-1.9 1.1-3.7 2.4-5.5 3.5l-6.3 3.9c-52.7 33.4-98.3 62.4-163.6 71.3-1 .1-2.1.3-3.1.4-2.1.3-4.1.6-6.2.8-16.6 2-34.1 3.2-53.7 3.8-16.3.5-34.3.7-56.8.5-21.8-.2-42.8-1.3-65.1-2.5-20.3-1-41.4-2.2-62.9-2.5-29.9-.3-59.5-4.1-90.4-11.7-30.6-7.4-59.2-17.7-80.7-25.9-6.4-2.4-13-5.3-19.9-8.3-23.7-10.2-50.6-21.8-75.9-18.4l.1.4c25.1-3.3 51.9 8.1 75.6 18.4 7 3 13.6 5.8 19.9 8.3 21.5 8.1 50.1 18.5 80.8 25.9 30.9 7.5 60.5 11.3 90.6 11.7 21.5.3 42.5 1.4 62.8 2.5 22.3 1.1 43.3 2.3 65.1 2.5 22.5.2 40.5 0 56.8-.5 19.6-.6 37.2-1.9 53.8-3.8 2.1-.2 4.2-.5 6.2-.8 1-.1 2.1-.3 3.1-.4 65.5-8.9 111.1-37.9 163.8-71.4l6.3-3.9c1.8-1.1 3.6-2.3 5.5-3.5 17.8-11.4 38.1-24.4 63.5-29 23.5-4.2 45.1-3.3 65.8-2.4 8 .3 15.7.7 23.1.7 41.6 0 76.9 13.9 114.4 28.7 11 4.3 22.5 8.9 34.5 13.2 45.2 16.4 94.8 27.3 142.8 37.9 28.7 6.3 58.3 12.8 85.9 20.3 28.4 7.6 57.7 16.4 89.4 26.9 14.7 4.8 29.1 9.7 43.7 14.9 13.8 4.9 28.1 10 43.4 15.7z"/><linearGradient id="SVGID_10_" gradientUnits="userSpaceOnUse" x1="935.545" y1="133.373" x2="2334.7" y2="133.373" gradientTransform="rotate(180 1158.231 167)"><stop offset="0" stop-color="#fff"/><stop offset="1" stop-color="#231f20"/></linearGradient><path opacity=".57" fill="url(#SVGID_10_)" d="M1380.7 282.7l.2-.3c-15.5-5.3-30.5-10.3-44.9-15-14.9-4.8-29.6-9.4-45.1-14s-30.8-9.1-45.6-13.1c-14.6-4-30.2-8-46.3-12-24.9-6.1-51.5-11.3-77-16.5-52.7-10.5-107.3-21.5-156-40.3-13.1-5.1-25.4-10.2-37.3-15.3-12.5-5.3-24.2-10.2-36.2-14.7-27.5-10.4-50.1-16.2-73.3-18.7-2.8-.3-5.7-.6-8.6-.9-23.8-2.7-50.7-5.6-80.3-.9-26.5 4.1-46.6 17.9-64.4 30.2-1.5 1.1-3.1 2.2-4.6 3.2-4.2 2.9-8.4 5.7-12.4 8.5-48.7 33.3-90.7 62.1-151.9 73.3-1 .2-2.2.4-3.2.6-2 .4-3.9.7-6 1.1-16.8 2.8-34.1 4.7-53.2 6.1-17.3 1.2-36 2.1-57 2.4-28 .4-54.9-1-83.2-2.6-14.9-.8-30.2-1.7-45.8-2.2-29.7-.9-59.3-5.4-90.3-13.8-29.7-7.9-57.2-18.6-80.3-27.8-6-2.4-12.2-5.2-18.8-8.1-24.3-11-51.8-23.4-77.4-18.6l.1.4c25.3-4.8 52.6 7.4 76.7 18.4 6.6 3 12.8 5.8 18.9 8.1 23.1 9.3 50.6 19.9 80.3 27.8 31 8.4 60.6 12.9 90.5 13.8 15.5.5 30.8 1.3 45.8 2.2 28.5 1.5 55.3 3 83.3 2.6 21-.3 39.6-1.1 57-2.4 19.1-1.3 36.5-3.4 53.3-6.1 2.1-.3 4-.7 6-1.1 1-.2 2.2-.4 3.2-.6 61.5-11.2 103.6-40 152.2-73.4 4.1-2.8 8.3-5.7 12.4-8.5 1.5-1 3.1-2.2 4.6-3.2 17.7-12.2 37.8-26 64.1-30.1 29.5-4.6 56.4-1.7 80.1.9 2.9.3 5.8.6 8.6.9 23.2 2.5 45.7 8.1 73.2 18.6 11.9 4.5 23.6 9.5 36.1 14.7 12 5.1 24.2 10.2 37.3 15.3 48.7 19 103.4 29.8 156.1 40.3 25.7 5.2 52.2 10.4 77 16.5 16.1 3.9 31.8 7.9 46.3 12 14.9 4 30.1 8.5 45.6 13.1s30.2 9.3 45.1 14c14.6 4.9 29.6 10 45.1 15.2z"/><linearGradient id="SVGID_11_" gradientUnits="userSpaceOnUse" x1="933.379" y1="137.231" x2="2334.287" y2="137.231" gradientTransform="rotate(180 1158.231 167)"><stop offset="0" stop-color="#fff"/><stop offset="1" stop-color="#231f20"/></linearGradient><path opacity=".57" fill="url(#SVGID_11_)" d="M1382.9 281.3l.2-.3c-15.8-5-31.3-9.8-46.2-14.2-15.1-4.4-30.2-8.9-46.4-13.2-15.8-4.3-31.6-8.5-46.9-12.3-15.3-3.8-31.3-7.5-47.7-11-22.8-5-47.1-9.3-70.7-13.5-56.7-10.1-115.5-20.6-166.9-42-15.9-6.6-30.4-13.4-44.5-20-9.7-4.5-18.9-8.9-28.2-12.9-19.6-8.6-43.5-17.9-72-22.4-2.9-.4-5.9-.9-9-1.4-23.5-3.8-50.1-8.1-79.8-4.1-27.3 3.7-47.2 18.4-64.8 31.4-1.3 1-2.7 2-4 3-6 4.3-11.9 8.8-17.5 12.9-19.5 14.4-37.9 28.1-57.2 40-28.2 17.4-55 28.7-84.2 35.5-1 .2-2.2.5-3.2.7-1.9.4-3.8.9-5.8 1.3-32.6 6.8-67.5 10.8-109.8 12.6-34.1 1.3-66.7-.7-101.2-2.9-9.4-.6-19.2-1.2-28.9-1.8-29.6-1.4-59.1-6.7-90.1-15.9-28.8-8.5-55.5-19.3-79.9-29.7-5.7-2.4-11.6-5.2-17.8-8.1-24.6-11.9-52.4-25.2-78.2-18.6l.2.3c25.5-6.5 53.3 6.7 77.9 18.4 6.3 3 12.2 5.8 17.8 8.1 24.5 10.4 51.2 21.2 80 29.8 31.1 9.3 60.6 14.4 90.4 15.9 9.7.5 19.5 1.1 28.9 1.8 34.6 2.2 67.1 4.2 101.3 2.9 42.4-1.8 77.4-5.8 110-12.6 2-.4 3.9-.9 5.8-1.3 1-.3 2.2-.5 3.2-.7 29.4-6.8 56.2-18.2 84.4-35.6 19.4-12 37.8-25.6 57.2-40 5.7-4.2 11.6-8.6 17.5-12.9 1.3-.9 2.7-2 4-3 17.5-12.9 37.3-27.5 64.5-31.3 29.6-4 56.2.3 79.6 4 3 .5 6 .9 9 1.4 28.4 4.4 52.3 13.7 71.9 22.4 9.3 4.1 18.5 8.4 28.1 12.9 14 6.6 28.6 13.4 44.6 20 51.5 21.4 110.2 31.9 167 42 23.5 4.2 47.8 8.6 70.6 13.5 16.4 3.6 32.4 7.3 47.5 11 15.3 3.8 31 7.9 46.9 12.3 16.2 4.4 31.4 8.8 46.4 13.2 14.7 4.6 30.3 9.3 46 14.4z"/><linearGradient id="SVGID_12_" gradientUnits="userSpaceOnUse" x1="931.11" y1="141.302" x2="2333.977" y2="141.302" gradientTransform="rotate(180 1158.231 167)"><stop offset="0" stop-color="#fff"/><stop offset="1" stop-color="#231f20"/></linearGradient><path opacity=".57" fill="url(#SVGID_12_)" d="M1385.1 279.7l.2-.3c-16.1-4.7-32.1-9.3-47.5-13.5-15.3-4.2-30.9-8.3-47.8-12.4-16.2-4-32.4-7.8-48.2-11.3-15.9-3.5-32.3-6.9-48.9-10.1-21-4.1-42.5-7.4-65.2-11-19-3-38.6-6.1-57.8-9.6-24.2-4.4-43.7-8.8-61.3-13.5-21.5-5.8-40.3-12.4-57.8-20-18.2-8-34.3-16.5-49.9-24.7-7.5-3.9-14.6-7.6-21.9-11.2-20.5-10.2-43.3-20.5-70.8-26.2-3-.6-6-1.2-9.3-2-23.2-5-49.6-10.6-79.4-7.1-28 3.2-48.6 19.5-65.1 32.5-1.1.8-2.2 1.8-3.3 2.6-7.6 6-15.1 12-22.3 17.7-16.9 13.6-32.9 26.4-49.7 38-27.2 18.7-53.1 31.3-81.5 39.3-1 .3-2.1.6-3.1.9-1.9.5-3.8 1.1-5.8 1.7-33.3 8.7-69.1 14.1-109.4 16.7-40.2 2.5-78.3-.3-118.6-3.4l-12.6-.9c-29.4-2.1-58.8-7.9-90-18.1-29.1-9.4-56.3-21.2-79.6-31.7-5.3-2.4-10.8-5.2-16.7-8-25.1-12.5-53.4-26.7-79.5-18.6l.2.3c25.8-8.1 54 6 79 18.5 5.9 3 11.4 5.7 16.7 8 23.2 10.4 50.5 22.3 79.6 31.7 31.3 10.1 60.8 16 90.1 18.1l12.6.9c40.3 3.1 78.4 6 118.7 3.4s76.2-8 109.6-16.8c2-.5 3.9-1 5.8-1.7 1-.3 2.1-.6 3.1-.9 28.5-8 54.4-20.6 81.7-39.4 16.8-11.6 32.8-24.4 49.7-38.1 7.2-5.8 14.6-11.8 22.3-17.7 1-.8 2.2-1.8 3.3-2.6 16.5-13 36.9-29.1 65-32.4 29.7-3.5 56 2.2 79.2 7.1 3.2.7 6.2 1.3 9.3 2 27.3 5.7 50 15.9 70.6 26.1 7.2 3.6 14.3 7.3 21.8 11.2 15.7 8.1 31.8 16.6 49.9 24.7 17.4 7.6 36.3 14.2 57.8 20 17.6 4.7 37.1 9.1 61.4 13.5 19.3 3.5 38.9 6.6 57.8 9.6 22.7 3.6 44 6.9 65.1 11 16.6 3.2 33 6.6 48.9 10.1 15.8 3.5 32 7.3 48.2 11.3 16.8 4.1 32.4 8.3 47.7 12.4 15.7 4.7 31.7 9.3 47.7 13.9z"/><linearGradient id="SVGID_13_" gradientUnits="userSpaceOnUse" x1="928.944" y1="145.467" x2="2333.256" y2="145.467" gradientTransform="rotate(180 1158.231 167)"><stop offset="0" stop-color="#fff"/><stop offset="1" stop-color="#231f20"/></linearGradient><path opacity=".57" fill="url(#SVGID_13_)" d="M1387.3 278.3l.2-.3c-16.4-4.4-32.9-8.8-48.9-12.8-15.6-3.9-31.6-7.7-49-11.7-16.5-3.7-33.1-7.2-49.4-10.5-16.5-3.2-33.3-6.3-50.1-9.2-19.9-3.4-40.1-6.2-61.5-9.1-21-2.9-42.8-5.9-64.2-9.5-24.2-4.1-44.1-8.4-62.4-13.3-21.9-6-40.9-12.8-58.3-20.9-20-9.4-37.3-19.4-54-29.1-5.8-3.4-11.2-6.5-16.8-9.7-23.6-13.3-44.5-23.5-69.4-30-3-.7-6-1.5-9.2-2.5-22-5.9-49.2-13.2-79.3-10.3-29.1 2.9-49.4 20-65.7 33.7-.9.7-1.8 1.4-2.6 2.2-9 7.5-17.4 15-25.8 22.2l-9.6 8.4c-10.6 9.2-22.1 19-33.9 28.1-26.6 20.3-51 33.6-78.8 43-1 .3-2.1.7-3 1-1.9.6-3.8 1.3-5.7 2-34.2 10.6-69.9 17.4-109.1 20.8-46.1 3.9-89.9-.2-132.2-4.1-29.3-2.6-58.7-9.2-89.9-20.1-28.3-9.8-54.7-22-79.2-33.6-5.1-2.4-10.3-5.2-15.9-8-25.4-13.3-54.3-28.4-80.3-18.6l.2.3c25.9-9.7 54.6 5.3 79.8 18.5 5.6 2.9 10.9 5.7 16 8 24.7 11.6 51 23.7 79.3 33.6 31.4 10.9 60.8 17.5 90 20.2 42.4 4 86.2 8 132.3 4.1 39.2-3.4 75-10.2 109.2-20.9 2-.6 3.8-1.2 5.7-2 1-.3 2.1-.7 3-1 28-9.4 52.3-22.7 78.9-43.1 12-9.1 23.4-18.9 34-28.2l9.6-8.4c8.3-7.2 16.8-14.6 25.7-22.2.8-.7 1.8-1.4 2.6-2.2 16.3-13.7 36.5-30.7 65.4-33.6 30-3 56.1 4 79.1 10.2 3.2.8 6.2 1.7 9.2 2.5 24.9 6.5 45.7 16.6 69.2 29.9 5.6 3.1 11 6.3 16.8 9.7 16.7 9.7 34 19.8 54 29.1 17.4 8.1 36.5 15 58.4 20.9 18.3 5 38.2 9.2 62.4 13.3 21.4 3.6 43.1 6.6 64.3 9.5 21.4 2.9 41.6 5.7 61.5 9.1 16.8 2.9 33.6 6 50.1 9.2 16.3 3.2 32.9 6.8 49.4 10.5 17.4 3.9 33.4 7.7 49 11.6 16 4.5 32.5 8.8 48.9 13.3z"/><linearGradient id="SVGID_14_" gradientUnits="userSpaceOnUse" x1="926.778" y1="149.43" x2="2333.049" y2="149.43" gradientTransform="rotate(180 1158.231 167)"><stop offset="0" stop-color="#fff"/><stop offset="1" stop-color="#231f20"/></linearGradient><path opacity=".57" fill="url(#SVGID_14_)" d="M1389.5 276.8l.2-.3c-34.7-8.7-68.5-16.4-100.6-22.8-16.9-3.4-33.9-6.6-50.7-9.6-17.1-3-34.3-5.8-51.4-8.3-19-2.8-38.2-5.1-58.6-7.4-22.9-2.7-46.6-5.5-69.7-9.1-51.4-7.9-90.4-19.1-122.4-34.9-21.9-10.8-40.3-22.7-58.1-34-25.6-16.4-49.7-31.9-79.9-41.5-2.9-.9-5.9-1.9-9-2.9-21.8-7.1-49-15.9-79.4-13.4-30 2.5-50 20.5-66 35.1l-2.1 1.9c-10.2 9.2-19.9 18.4-29.2 27.2-12.7 12.1-24.7 23.5-37.3 34.2-25.7 21.8-49.1 36.2-76.1 46.8-.9.4-1.9.7-2.8 1.1-1.9.7-3.8 1.5-5.8 2.3-34.8 12.6-70.2 20.8-108.7 25-46.7 5.1-91.5.8-133.4-3.9-29.1-3.2-58.5-10.4-89.8-22.3-27.4-10.3-52.9-22.7-78.8-35.5-4.7-2.4-9.8-5.2-15.2-8-12.4-7.1-26.3-14.7-40.1-19.2-16-5.1-29.4-5-41.2.2l.3.3c11.6-5.1 24.9-5.2 40.7-.1 13.8 4.3 27.7 12 40 18.7 5.4 2.9 10.4 5.7 15.2 8 25.9 12.9 51.5 25.3 78.9 35.6 31.4 11.9 60.8 19.2 89.9 22.3 41.9 4.7 86.6 9 133.5 3.9 38.5-4.2 74.2-12.4 108.9-25.1 2-.7 3.9-1.4 5.8-2.3.9-.4 1.9-.7 2.8-1.1 27-10.6 50.5-25.1 76.2-46.9 12.7-10.7 24.7-22.2 37.3-34.2 9.3-8.9 18.9-18.1 29.2-27.2l2.1-1.9c16-14.4 35.9-32.4 65.7-34.9 30.3-2.5 57.5 6.4 79.2 13.4 3.1 1 6.1 2 9 2.9 30.2 9.5 54.3 25 79.8 41.4 17.8 11.4 36.2 23.2 58.2 34.1 32.2 15.9 71.2 26.9 122.6 35 23.2 3.7 46.9 6.4 69.8 9.1 20.3 2.4 39.6 4.6 58.6 7.4 17 2.5 34.2 5.3 51.4 8.3 16.7 3 33.8 6.2 50.6 9.6 31.9 6.6 65.7 14.4 100.4 23z"/><g><linearGradient id="SVGID_15_" gradientUnits="userSpaceOnUse" x1="924.509" y1="153.566" x2="2332.637" y2="153.566" gradientTransform="rotate(180 1158.231 167)"><stop offset="0" stop-color="#fff"/><stop offset="1" stop-color="#231f20"/></linearGradient><path opacity=".57" fill="url(#SVGID_15_)" d="M1391.7 275.4l.2-.3c-35.4-8.1-70.1-15.4-103.2-21.2-17.5-3.2-35.1-6.1-52-8.7-17.4-2.7-35.1-5.2-52.6-7.3-19.1-2.5-38.5-4.3-59-6.3l-5.8-.5c-21.4-2.1-44.1-4.4-66.3-7.6-52.4-7.5-91.8-18.9-124.1-35.6-23.4-12.2-42.6-25.8-61.1-38.8-23.8-16.8-46.3-32.8-74.9-43.4-2.8-1-5.6-2.1-8.6-3.2-21.8-8.4-48.8-18.7-79.7-16.7-30.8 2-50.5 21-66.3 36.3l-1.4 1.4c-11.1 10.7-21.5 21.5-31.5 31.8-11 11.4-21.4 22.2-32.3 32.5-24.7 23.2-47.3 38.8-73.4 50.5l-2.7 1.2c-1.9.8-3.8 1.8-5.8 2.6-35.1 14.6-70.6 24.1-108.4 29.1-47.4 6.1-92.6 1.9-134.4-3.7-29-3.7-58.4-11.8-89.7-24.3-27-10.8-51.5-23.4-78.4-37.4-4.6-2.4-9.5-5.2-14.6-8.1-24.8-14.1-55.5-31.7-81.9-18.5l.3.3c26.1-13 56.6 4.4 81.3 18.5 5.2 3 10 5.8 14.6 8.1 26.9 14.1 51.5 26.6 78.5 37.4 31.4 12.7 60.8 20.6 89.8 24.4 41.8 5.6 87.1 9.9 134.6 3.7 38-5 73.4-14.5 108.5-29.2 2-.8 3.9-1.8 5.8-2.6l2.7-1.2c26.1-11.8 48.8-27.4 73.5-50.6 10.9-10.3 21.4-21 32.3-32.5 10-10.3 20.2-21 31.5-31.8l1.4-1.4c15.8-15.2 35.4-34.1 66-36.1 30.8-2 57.8 8.4 79.5 16.7 3 1.1 5.8 2.2 8.6 3.2 28.5 10.6 51 26.5 74.8 43.3 18.5 13.1 37.6 26.6 61.1 38.9 32.4 16.8 71.9 28.2 124.3 35.7 22.2 3.2 45.1 5.6 66.4 7.6l5.8.5c20.5 2 39.8 3.9 58.9 6.3 17.5 2.3 35.2 4.7 52.6 7.3 16.9 2.6 34.5 5.6 52 8.7 33 5.6 67.8 12.8 103.1 21z"/></g><g><linearGradient id="SVGID_16_" gradientUnits="userSpaceOnUse" x1="922.342" y1="155.009" x2="2332.224" y2="155.009" gradientTransform="rotate(180 1158.231 167)"><stop offset="0" stop-color="#fff"/><stop offset="1" stop-color="#231f20"/></linearGradient><path opacity=".57" fill="url(#SVGID_16_)" d="M331.8 279.9c16.8 0 34.3-1 52.2-3.8 37.5-5.7 72.9-16.6 108.2-33.3 2-.9 3.9-2 5.9-3 .8-.4 1.7-.8 2.5-1.2 32.4-16.5 54.9-37.8 70.9-54.5 9.5-9.9 18.5-20.1 28-30.8 10.4-11.9 21.1-24 33-36.3l.9-1c34.6-36 52.8-36.8 66.1-37.4 31.3-1.4 58.3 10.4 79.9 20 2.8 1.2 5.5 2.4 7.9 3.5 24.5 10.5 44 25 65.2 41.4 1.8 1.3 3.5 2.7 5.3 4 18.9 14.6 38.5 29.9 63.2 43.4 59.6 32.5 134 38.5 206 44.1 18.8 1.4 36.4 2.9 53.9 4.7 17.9 2 36.1 4.1 53.8 6.4 17.2 2.3 35.1 5 53.2 7.8 34.1 5.5 69.7 12.1 105.9 19.7l.1-.4c-36.1-7.6-71.8-14.3-105.9-19.7-18.2-2.9-36.1-5.6-53.2-7.8-17.8-2.4-35.9-4.5-53.8-6.4-17.5-1.9-35.2-3.3-53.9-4.7-71.9-5.7-146.2-11.6-205.7-44-24.8-13.5-44.2-28.7-63.1-43.4-1.8-1.3-3.5-2.7-5.3-4-21.2-16.4-40.7-30.9-65.4-41.5-2.6-1.1-5.2-2.3-7.9-3.5-21.7-9.6-48.7-21.6-80.2-20-31.8 1.5-51.9 22.4-66.6 37.5l-.9 1c-11.9 12.3-22.7 24.4-33 36.3-9.5 10.8-18.5 20.9-28 30.8-30.3 31.7-53.7 45.7-70.8 54.4-.8.4-1.7.8-2.5 1.2-1.9 1-3.8 2-5.9 3-35.2 16.7-70.6 27.5-108 33.2-49.9 7.5-96.5 2.5-135.4-3.5-28.9-4.3-58.2-13-89.6-26.5-28.3-12.2-54.8-26.6-78.1-39.4-4.3-2.4-9.1-5.2-13.9-8-25.1-15-56.1-33.4-82.6-18.6l.3.3c26.2-14.7 57.1 3.7 82 18.6 5 3 9.6 5.7 14 8.1 23.3 12.8 49.8 27.2 78.1 39.4 31.5 13.5 60.8 22.3 89.7 26.5 25.1 4 53.3 7.4 83.5 7.4z"/></g><g><linearGradient id="SVGID_17_" gradientUnits="userSpaceOnUse" x1="920.589" y1="155.531" x2="2332.327" y2="155.531" gradientTransform="rotate(180 1158.231 167)"><stop offset="0" stop-color="#fff"/><stop offset="1" stop-color="#231f20"/></linearGradient><path opacity=".57" fill="url(#SVGID_17_)" d="M330.2 285.7c19 0 37-1.5 55-4.5 37.3-6.5 72.6-18.7 107.8-37.4 2-1 3.9-2.2 5.8-3.3.8-.4 1.5-.9 2.4-1.3 24.8-14.2 45.2-31.6 68.2-58.2 8.3-9.5 16-19.1 24.1-29.4 10.6-13.2 21.6-26.9 34-40.6l.5-.6c14.3-15.9 34-37.6 66.4-38.7 31.9-.9 58.8 12.6 80.3 23.4 2.6 1.3 5.1 2.5 7.3 3.7 25.3 12.4 44.9 29.1 63.8 45.3l2.2 1.9c19.3 16.5 39.3 33.5 65.4 48.5 60.8 34.7 137.7 39.4 212.2 43.9 18.1 1.1 35.2 2.2 52.1 3.6 18.5 1.7 37 3.5 55.1 5.5 17.6 2 35.5 4.2 54.5 6.9 35.2 5 71.7 11 108.5 18.2l.1-.4c-36.8-7.2-73.4-13.3-108.6-18.2-19.1-2.7-36.9-5-54.6-6.9-18.2-2.1-36.7-3.9-55.2-5.5-16.9-1.4-34-2.5-52.1-3.6-74.4-4.5-151.3-9.3-212-43.8-26.1-15-46-32-65.4-48.4l-2.2-1.9c-19-16.2-38.7-32.9-63.9-45.3-2.4-1.1-4.7-2.4-7.3-3.7C753 83.9 726 70.3 694 71.3c-32.7 1-52.4 22.9-66.8 38.8l-.5.6c-12.4 13.7-23.4 27.4-34 40.6-8.3 10.2-16 19.9-24.1 29.4-23 26.5-43.3 43.9-68.1 58.1-.8.4-1.5.9-2.4 1.3-1.9 1.1-3.8 2.3-5.8 3.3-35.2 18.8-70.3 30.9-107.6 37.4-52.2 9-100.4 2.9-136.6-3.3-28.8-4.8-58.1-14.2-89.5-28.6-27.4-12.5-52.7-27-77.2-41.1l-.5-.3c-4.1-2.4-8.7-5.2-13.3-8-25.3-15.7-56.8-35.3-83.4-18.6l.3.3c26.3-16.5 57.6 3 82.7 18.6 4.7 2.9 9.2 5.7 13.3 8l.5.3c24.4 14 49.7 28.5 77.3 41.1 31.5 14.4 60.8 23.8 89.6 28.7 25.4 4.3 46.6 6.8 66.9 7.6 5.5.1 10.4.2 15.4.2z"/></g><g><linearGradient id="SVGID_18_" gradientUnits="userSpaceOnUse" x1="918.011" y1="156.234" x2="2331.709" y2="156.234" gradientTransform="rotate(180 1158.231 167)"><stop offset="0" stop-color="#fff"/><stop offset="1" stop-color="#231f20"/></linearGradient><path opacity=".57" fill="url(#SVGID_18_)" d="M328.9 291.4c19.8 0 38.6-1.8 57.3-5.4 37.2-7.2 72.4-20.8 107.5-41.6 2.1-1.2 4-2.5 5.9-3.7.7-.4 1.4-.9 2.2-1.3 38.8-24.8 61.9-56.4 86.3-89.9 10.7-14.6 21.8-29.7 34.5-44.9l.1-.1c14-16.6 33.3-39.4 66.5-39.9h1.4c31.9 0 59.4 15.6 79.5 26.9 2.4 1.3 4.5 2.6 6.7 3.7 24.1 13.3 42.5 30.4 62 48.7l.5.4c19.4 18.2 39.5 36.8 66.8 53.2 27.6 16.5 61.6 27.7 103.8 34.3 37.3 5.9 76.4 7.6 114.3 9.3 17.5.7 34.1 1.4 50.6 2.6 19 1.3 37.9 2.8 56.4 4.5 17.8 1.7 36.1 3.6 55.8 6.1 36.2 4.3 73.5 10 111.2 16.7l.1-.4c-37.6-6.7-75.1-12.3-111.2-16.7-19.6-2.4-37.9-4.3-55.8-6.1-18.5-1.8-37.4-3.3-56.4-4.5-16.4-1.1-33-1.9-50.6-2.6-37.9-1.7-76.9-3.4-114.3-9.3-42.2-6.6-76-17.8-103.6-34.2-27.3-16.4-47.3-35.1-66.8-53.1l-.5-.4c-19.5-18.3-38-35.4-62.1-48.8-2.2-1.1-4.3-2.5-6.7-3.7-20.5-11.6-48.6-27.4-81.3-27-33.5.5-52.9 23.4-66.9 40.1l-.1.1c-12.8 15.2-23.8 30.3-34.6 44.9-24.4 33.5-47.5 65.1-86.2 89.7-.7.4-1.4.9-2.2 1.3-1.9 1.2-3.8 2.5-5.9 3.7-35 20.7-70.1 34.3-107.3 41.6-42.1 8-84.6 7.1-137.6-3.1-28.7-5.4-58-15.5-89.4-30.7-26.6-12.9-51.2-27.5-74.9-41.8l-2.5-1.4c-3.9-2.4-8.1-5.1-12.7-7.9-12.6-8.1-26.9-17.4-41.5-22.4-16.8-5.8-30.8-4.5-42.7 3.6l.3.3c26.3-18.2 58 2.3 83.4 18.7 4.4 2.9 8.8 5.7 12.7 8l2.5 1.4c23.7 14.2 48.2 28.9 74.9 41.8 31.5 15.3 60.8 25.4 89.5 30.7 30.1 5.8 56.4 8.6 81.1 8.6z"/></g><g><linearGradient id="SVGID_19_" gradientUnits="userSpaceOnUse" x1="916.051" y1="156.849" x2="2331.09" y2="156.849" gradientTransform="rotate(180 1158.231 167)"><stop offset="0" stop-color="#fff"/><stop offset="1" stop-color="#231f20"/></linearGradient><path opacity=".57" fill="url(#SVGID_19_)" d="M327.6 297.2c20.4 0 40-2.1 59.6-6.2 37.2-7.9 72.3-22.9 107.1-45.7 2.2-1.4 4.2-2.9 6.2-4.3.5-.4 1.1-.8 1.7-1.1 36.9-26.1 58.3-58.3 80.9-92.3 10.6-16 21.6-32.5 34.6-49 12.8-16.3 32.2-40.9 66.3-40.9h.1c33.1 0 61.1 17.6 81.5 30.5 2.1 1.3 4 2.6 6 3.7 23.1 14.3 40.5 32.1 59 50.9l2.1 2.1c20.6 21 39.9 39.7 66.1 56.1 28 17.4 62.7 29 106 35.4 38.4 5.7 78.6 6.7 117.6 7.7 17.2.4 33.4.9 49.5 1.7 19.4 1 38.8 2.2 57.7 3.6 18.2 1.3 36.8 3.1 57 5.2 37.1 3.8 75.5 8.9 113.9 15.2l.1-.4c-38.4-6.2-76.7-11.3-113.9-15.2-20.2-2.1-38.9-3.8-57-5.2-18.9-1.4-38.3-2.7-57.7-3.6-16.1-.8-32.4-1.2-49.5-1.7-38.9-1-79.2-2.1-117.5-7.7-43.3-6.4-78-17.9-105.8-35.3-26.2-16.3-45.4-35.1-66-56l-2.1-2.1c-18.6-18.8-36-36.6-59.1-51-2-1.2-3.9-2.5-6-3.7-20.5-12.9-48.5-30.6-81.9-30.6h-.1c-34.5 0-53.8 24.8-66.7 41.1-13 16.5-23.9 33.1-34.6 49.1-22.6 34-43.8 66.2-80.8 92.2-.5.4-1.1.8-1.7 1.1-2 1.4-4 2.9-6.2 4.3-34.8 22.8-69.7 37.8-106.9 45.7-23.3 5-46.6 6.9-71.2 6-20.9-.8-43-3.7-67.5-8.9-28.6-6-57.9-16.7-89.3-32.8-26-13.3-49.8-28.3-72.9-42.7l-4-2.5c-3.7-2.4-7.7-5.1-12.1-7.9-12.7-8.7-27-18.4-41.7-23.4-17.1-6-31.1-4.4-43.1 4.5l.4.3c11.8-8.9 25.6-10.3 42.5-4.4 14.6 5.1 29 14.7 41.7 23.2 4.2 2.9 8.3 5.6 12.1 7.9l4 2.5c23.1 14.4 46.9 29.4 72.9 42.7 31.6 16.2 60.8 26.9 89.4 32.9 24.4 5.2 46.6 8.1 67.6 8.9 4 0 7.9.1 11.7.1z"/></g><g><linearGradient id="SVGID_20_" gradientUnits="userSpaceOnUse" x1="913.678" y1="157.674" x2="2330.574" y2="157.674" gradientTransform="rotate(180 1158.231 167)"><stop offset="0" stop-color="#fff"/><stop offset="1" stop-color="#231f20"/></linearGradient><path opacity=".57" fill="url(#SVGID_20_)" d="M326.9 302.8c21 0 41.4-2.4 61.6-7 37.3-8.7 72.2-25 106.8-49.9 2.3-1.7 4.3-3.3 6.4-4.8l1.2-1c35.3-27.4 54.9-60.2 75.7-95 10.4-17.3 21.1-35.2 34.1-53 12.4-16.8 31-42.3 66.1-41.8 33.8.5 61.8 20 82.2 34.2 1.8 1.2 3.5 2.5 5.2 3.6 22.1 15.3 38.7 33.5 56.3 53l3.4 3.8c19.2 21.1 38.6 41.6 65.4 58.9 28.4 18.4 63.7 30.2 108.3 36.4 39.3 5.5 80.8 5.9 120.8 6.3 16.9.2 32.8.3 48.6.8 19.8.6 39.7 1.5 58.9 2.7 18.4 1 37.4 2.5 58.3 4.2 38.2 3.3 77.4 7.8 116.6 13.6l.1-.4c-39.2-5.8-78.5-10.3-116.6-13.6-20.8-1.8-39.9-3.2-58.4-4.2-19.2-1.1-39-2.1-58.9-2.7-15.8-.5-31.8-.7-48.6-.8-40-.4-81.4-.8-120.7-6.3-44.5-6.2-79.8-18.1-108-36.3-26.7-17.3-46.1-37.8-65.3-58.9l-3.4-3.8c-17.5-19.4-34.1-37.8-56.3-53-1.7-1.1-3.4-2.4-5.2-3.6C741.1 70 713 50.4 679 49.9h-1.2c-34.7 0-53.1 25.2-65.4 42-13.1 17.8-23.8 35.8-34.1 53-20.8 34.7-40.4 67.5-75.6 94.9l-1.2 1c-2.1 1.7-4.2 3.3-6.4 4.8-34.5 24.9-69.3 41.2-106.5 49.8-43.8 10.1-88.2 9.3-139.8-2.7-28.6-6.5-57.7-17.9-89.2-35-25.5-13.7-48.8-29-71.3-43.6l-5.3-3.4c-3.5-2.3-7.4-5-11.4-7.8-18.3-12.7-40.9-28.5-62.2-27.9-8.7.2-16.5 3.3-23.5 9l.4.2c6.8-5.6 14.6-8.6 23.1-8.8 21-.6 43.6 15.1 61.8 27.7 4 2.8 7.8 5.5 11.4 7.8l5.3 3.4c22.6 14.7 45.9 30 71.3 43.7 31.6 17 60.8 28.5 89.3 35.1 27.7 6.5 53.6 9.7 78.4 9.7z"/></g><g><linearGradient id="SVGID_21_" gradientUnits="userSpaceOnUse" x1="911.512" y1="158.328" x2="2330.058" y2="158.328" gradientTransform="rotate(180 1158.231 167)"><stop offset="0" stop-color="#fff"/><stop offset="1" stop-color="#231f20"/></linearGradient><path opacity=".57" fill="url(#SVGID_21_)" d="M326.1 308.6c21.6 0 42.5-2.6 63.4-7.8 37.4-9.4 72.2-27 106.3-54 2.3-1.8 4.4-3.6 6.5-5.5l1-.9c33.7-28.8 51.9-62.3 71-97.7 10-18.6 20.4-37.8 33.4-56.8 5.4-7.8 13.5-19.8 24.4-28.7 12.4-10 25.9-14.5 41.5-13.9 35.1 1.5 63.2 23.1 83.8 38.8 1.2.9 2.4 1.9 3.5 2.7 21.2 16.1 36.9 35.1 53.6 55.1 1.5 1.9 3.1 3.7 4.6 5.6 18.5 22.1 37.3 43.4 64.7 61.8 33.4 22.5 76.2 35.2 134.6 39.9 11.4.9 23.6 1.5 37.2 1.9 11.2.3 23.1.4 37.3.5 8.9 0 17.8 0 26.5-.1 16.1-.1 31.3-.2 46.3.1 42.4.7 81.6 2.4 119.8 5.2 39.1 2.7 79.2 6.8 119.2 12.1l.1-.4c-40-5.3-80.1-9.4-119.2-12.1-38.2-2.7-77.4-4.4-119.8-5.2-15.1-.3-30.2-.2-46.3-.1-8.7.1-17.6.1-26.5.1-14.2 0-26.2-.1-37.3-.5-13.5-.3-25.7-.9-37.1-1.9-58.3-4.6-101-17.3-134.3-39.8-27.2-18.3-46.1-39.6-64.6-61.7-1.5-1.9-3.1-3.7-4.6-5.6-16.7-20-32.5-39-53.7-55.2-1.1-.8-2.3-1.8-3.5-2.7-20.6-15.8-48.8-37.3-84.1-38.9-36.1-1.7-55.1 26.2-66.3 42.8-13 19.1-23.4 38.3-33.4 56.9-19.1 35.4-37.1 68.9-70.9 97.6l-1 .9c-2.1 1.8-4.2 3.6-6.5 5.4-34.1 26.9-68.8 44.6-106.1 53.9-44.9 11.1-89.6 10.4-140.8-2.5-28.5-7-57.6-19.2-89.1-37.1-25-14.1-47.8-29.7-69.8-44.7-2.2-1.4-4.2-2.9-6.4-4.3-3.4-2.3-7-5-10.8-7.6-17.8-12.9-39.9-28.9-61-28.9h-1.4c-8.9.3-16.8 3.6-23.8 9.8l.4.2c6.9-6.1 14.7-9.4 23.5-9.7 21.2-.7 43.8 15.6 62 28.8 3.8 2.8 7.4 5.4 10.8 7.6 2.1 1.4 4.2 2.9 6.4 4.3 22.1 15.1 44.9 30.5 69.8 44.8 31.6 17.9 60.8 30.1 89.2 37.1 27.2 7 52.8 10.4 77.5 10.4z"/></g><g><linearGradient id="SVGID_22_" gradientUnits="userSpaceOnUse" x1="909.449" y1="158.897" x2="2329.852" y2="158.897" gradientTransform="rotate(180 1158.231 167)"><stop offset="0" stop-color="#fff"/><stop offset="1" stop-color="#231f20"/></linearGradient><path opacity=".57" fill="url(#SVGID_22_)" d="M325.5 314.4c22.1 0 43.4-2.9 65-8.7 37.6-10.1 72.3-29.2 106-58.2 2.6-2.2 5.1-4.5 7.4-6.7 32.4-30.2 49-64.5 66.5-100.7 9.6-19.8 19.5-40.2 32.4-60.5 6.2-9.7 13.5-20.7 23.8-29.3 12.3-10.2 25.9-14.9 41.8-14.1 35.5 1.7 64.5 26 83.7 42.2 1.2 1 2.4 2 3.5 2.9 20.2 16.9 35.2 36.3 51 56.8 19.3 25.1 39.3 51.1 69.8 72.3 33.6 23.5 76.9 36.4 136.4 40.5 26.1 1.9 53 1.8 75.9 1.4 9.6-.1 19.2-.3 28.5-.5 15.9-.3 30.8-.6 45.7-.6 86.1 0 166 4.5 244 13.8l.1-.4c-78.2-9.3-158-13.8-244.1-13.8-14.9 0-29.8.3-45.7.6-9.3.2-19 .4-28.5.5-22.9.3-49.8.3-75.9-1.4-59.3-4.2-102.5-17-136-40.4-30.5-21.2-50.4-47.1-69.7-72.2-15.7-20.5-30.6-39.9-51-56.8-1.1-.9-2.3-2-3.5-2.9-19.3-16.2-48.3-40.6-84.1-42.3-16-.7-29.8 3.9-42.2 14.2-10.3 8.7-17.8 19.7-23.9 29.4-12.9 20.3-22.8 40.7-32.4 60.5-17.5 36.2-34.1 70.4-66.4 100.6-2.4 2.2-4.8 4.5-7.4 6.7-33.7 29-68.3 48-105.8 58.1-24.4 6.5-48.5 9.3-73.5 8.5-22-.7-44.2-4.2-68.3-10.8-28.4-7.6-57.5-20.4-88.9-39.2-24.5-14.5-46.9-30.4-68.5-45.8-2.5-1.8-4.8-3.5-7.3-5.2-3.2-2.3-6.6-4.8-10.2-7.5-18.4-13.7-41.2-30.8-62.7-29.9-9 .4-17.1 4-24.2 10.7l.4.2c7-6.6 15-10.2 23.8-10.5h1.7c20.8 0 42.9 16.5 60.6 29.8 3.6 2.7 7 5.3 10.2 7.5 2.4 1.8 4.8 3.4 7.3 5.2 21.7 15.4 44 31.3 68.6 45.8 31.6 18.8 60.6 31.7 89.1 39.3 24 6.5 46.4 10.1 68.5 10.8 2.8 0 5.7.1 8.5.1z"/></g><g><linearGradient id="SVGID_23_" gradientUnits="userSpaceOnUse" x1="907.284" y1="159.651" x2="2329.439" y2="159.651" gradientTransform="rotate(180 1158.231 167)"><stop offset="0" stop-color="#fff"/><stop offset="1" stop-color="#231f20"/></linearGradient><path opacity=".57" fill="url(#SVGID_23_)" d="M325.1 320.2c22.5 0 44.4-3.1 66.5-9.5 37.8-10.9 72.3-31.3 105.6-62.3 2.5-2.4 4.8-4.7 7.2-7.1 31.1-31.6 46.3-66.6 62.3-103.8 9.1-20.9 18.5-42.7 31-64.1 6.3-10.6 13.4-21.7 23.3-30.1 12.2-10.5 25.9-15.2 42.1-14.1 36.3 2.2 65.3 28.7 84.4 46.3.9.8 1.8 1.7 2.6 2.4 19.4 17.6 33.5 37.6 48.6 58.7 19.1 26.9 38.8 54.7 70.1 77.2 18.5 13.3 39.5 23.1 64.4 30 11.2 3.1 23 5.6 36 7.4 11.8 1.8 24 3 37.6 3.8 35.3 2.1 71.7.8 107-.4 16-.5 31-1.1 45.9-1.3 88.4-1.3 169.9 2.1 249.3 10.4l.1-.4c-79.4-8.4-160.9-11.8-249.3-10.5-15 .2-30 .7-46 1.3-35.3 1.2-71.7 2.6-106.9.4-13.5-.8-25.8-2.1-37.5-3.8-13-2-24.8-4.3-35.9-7.4-24.9-6.8-45.9-16.6-64.3-29.9-31.3-22.5-51.1-50.2-70-77-15.1-21.1-29.2-41.1-48.6-58.8-.8-.8-1.8-1.5-2.6-2.4-19.2-17.6-48.2-44.2-84.8-46.4-16.3-1-30.2 3.7-42.5 14.2-9.9 8.6-17.1 19.6-23.4 30.2-12.6 21.4-22 43.1-31 64.1-16.1 37-31.1 72.1-62.3 103.7-2.4 2.5-4.7 4.8-7.2 7.1-33.2 30.9-67.8 51.3-105.4 62.2-24.8 7.1-49.1 10.1-74.4 9.3-22.3-.7-44.7-4.4-68.6-11.4-28.4-8.1-57.3-21.7-88.8-41.4-24.1-15.1-46.2-31.3-67.5-47-2.7-2-5.4-3.9-7.9-5.9-3-2.2-6.2-4.7-9.6-7.3-18.4-14.2-41.3-32.1-63-30.9-9.2.4-17.4 4.3-24.7 11.7l.4.2c7-7.1 15.2-11 24.2-11.4 21.5-1 44.4 16.6 62.6 30.8 3.4 2.7 6.6 5.2 9.6 7.3 2.7 2 5.3 3.9 7.9 5.9 21.2 15.7 43.3 32 67.5 47 31.5 19.7 60.6 33.2 89 41.4 23.9 7 46.5 10.7 68.8 11.4 2.9.1 5.5.2 8.2.2z"/></g><g><linearGradient id="SVGID_24_" gradientUnits="userSpaceOnUse" x1="905.014" y1="160.347" x2="2329.13" y2="160.347" gradientTransform="rotate(180 1158.231 167)"><stop offset="0" stop-color="#fff"/><stop offset="1" stop-color="#231f20"/></linearGradient><path opacity=".57" fill="url(#SVGID_24_)" d="M324.7 325.8c22.9 0 45.5-3.4 68.1-10.3 10.7-3.3 21.2-7.4 31.6-12.4 9.5-4.5 18.9-9.9 28-16 15.9-10.5 30.8-23 45.9-38.1 2.7-2.7 5.3-5.5 7.1-7.5 30-33 43.7-69 58.4-107 8.5-22.1 17.2-45 29.5-67.4 6-10.8 12.8-22.2 22.8-30.9 12.1-10.7 26-15.4 42.3-14.1 16.8 1.2 33.5 7.8 50.9 20.2 13.6 9.7 25.1 21 34.1 30.2l1.9 1.9c18.6 18.5 32.7 39.9 46.3 60.6 2.5 3.8 5.1 7.7 7.6 11.6 15.3 22.9 34 49.2 62.6 70.4 18.3 13.6 40.2 24 65 30.8 21.6 6 46 9.6 74.7 11 36.3 1.9 74 0 110.3-1.9 15.7-.8 30.6-1.5 45.3-2 90.6-2.7 173.8-.4 254.5 7.1l.1-.4c-80.7-7.5-163.9-9.8-254.6-7.1-14.7.4-29.6 1.1-45.3 2-36.3 1.8-74 3.6-110.3 1.9-28.7-1.5-53-5.2-74.6-11-24.8-6.8-46.6-17.2-64.9-30.8-28.6-21.2-47.2-47.4-62.5-70.3-2.6-3.8-5.2-7.7-7.6-11.6-13.6-20.7-27.7-42.2-46.4-60.8l-1.9-1.9c-9.2-9.2-20.6-20.5-34.2-30.2-17.4-12.4-34.1-19-51.2-20.3-16.3-1.2-30.7 3.6-42.8 14.3-10 8.9-16.9 20.2-22.9 31-12.3 22.5-21 45.3-29.5 67.5-14.6 38-28.4 73.9-58.3 106.9-1.9 2.1-4.4 4.8-7.1 7.5-15 15.1-30 27.5-45.8 38.1-9.1 6-18.5 11.3-27.8 15.9-10.2 5-20.8 9.1-31.5 12.4-46.9 14.2-94.1 13.6-144-1.9-28.3-8.8-57.2-22.9-88.7-43.4-23.8-15.6-45.6-32.2-66.5-48.3-2.9-2.2-5.8-4.4-8.6-6.6-2.8-2.2-5.8-4.5-9-7.1-17.5-14-41.5-33.3-63.3-32.1-9.3.4-17.7 4.6-25 12.5l.4.2c7.1-7.7 15.4-11.9 24.5-12.4 21.7-1.1 45.5 18.1 62.9 32 3.2 2.6 6.2 5 9 7.1s5.7 4.3 8.6 6.6c20.9 16.1 42.7 32.8 66.5 48.3 31.5 20.5 60.5 34.8 88.9 43.5 26.3 8.3 51.7 12.3 76.5 12.3z"/></g><g><linearGradient id="SVGID_25_" gradientUnits="userSpaceOnUse" x1="902.642" y1="161.048" x2="2328.614" y2="161.048" gradientTransform="rotate(180 1158.231 167)"><stop offset="0" stop-color="#fff"/><stop offset="1" stop-color="#231f20"/></linearGradient><path opacity=".57" fill="url(#SVGID_25_)" d="M324.5 331.6c23.3 0 46.3-3.7 69.4-11.1 20.7-6.7 40.7-16.8 59.6-30.2 15.6-11 30.8-24.7 45.4-40.4 2.2-2.3 4.3-4.8 7-7.9 28.9-34.6 41.4-71.4 54.6-110.4 7.8-23.2 16-47.1 27.8-70.6 5.4-10.5 12.2-22.6 22.2-31.8 11.9-10.9 26.2-15.7 42.6-14.2 17 1.5 33.7 8.7 51.1 21.8 13.9 10.6 25.4 22.9 34.6 32.8l1.2 1.3c17.7 19.2 31.1 41.2 44.1 62.4 2.7 4.4 5.6 9.1 8.4 13.6 14.7 23.8 33 51.1 61.9 73.3 18.6 14.3 40 24.7 65.6 31.8 21.8 6 46.5 9.6 75.8 10.8 37.1 1.5 75.7-.8 112.9-3.2 15.8-1 30.6-2 45.4-2.6 92-4.1 176.9-2.9 259.6 3.7l.1-.4c-82.7-6.7-167.7-7.9-259.7-3.7-14.7.6-29.6 1.5-45.4 2.6-37.2 2.4-75.8 4.7-112.9 3.2-29.2-1.2-53.9-4.8-75.6-10.8-25.5-7-46.9-17.4-65.4-31.7-28.9-22.2-47-49.4-61.9-73.2-2.8-4.5-5.7-9.2-8.4-13.6-13-21.2-26.4-43.2-44.1-62.5l-1.2-1.3c-9.2-9.9-20.6-22.3-34.6-32.8-17.4-13.2-34.2-20.3-51.4-21.9-16.6-1.4-31 3.4-43.1 14.3-10.1 9.3-16.9 21.4-22.3 31.9-11.9 23.4-20 47.4-27.8 70.6-13.2 39-25.7 75.8-54.6 110.3-2.6 3.1-4.8 5.7-6.9 7.9-14.5 15.8-29.7 29.3-45.3 40.3-18.8 13.3-38.8 23.4-59.4 30.1-47.8 15.4-95.2 14.9-145.1-1.7-28.2-9.3-57.2-24.1-88.6-45.6-23.6-16.1-45.1-33.1-65.8-49.6-3-2.4-6-4.7-8.9-7.1-2.6-2.1-5.5-4.4-8.5-6.9-17.5-14.5-41.6-34.6-63.7-33.3-9.6.5-18.1 5.1-25.4 13.4l.4.2c7.2-8.3 15.6-12.7 25-13.3 21.9-1.2 45.8 18.7 63.3 33.2 3 2.5 5.8 4.8 8.5 6.9 2.9 2.4 5.9 4.7 8.9 7.1 20.7 16.5 42.2 33.6 65.8 49.7 31.5 21.5 60.5 36.3 88.8 45.6 25.8 8.8 51.1 13 76 13z"/></g><g><linearGradient id="SVGID_26_" gradientUnits="userSpaceOnUse" x1="900.682" y1="161.82" x2="2328.305" y2="161.82" gradientTransform="rotate(180 1158.231 167)"><stop offset="0" stop-color="#fff"/><stop offset="1" stop-color="#231f20"/></linearGradient><path opacity=".57" fill="url(#SVGID_26_)" d="M324.1 337.4c23.7 0 47.5-4 71-12 20.8-7.1 40.9-17.8 59.7-32 15.7-11.8 30.3-25.8 44.9-42.7 2.4-2.8 4.6-5.7 6.8-8.5 28.1-36.1 39.2-74.1 51.1-114.2 7-24 14.4-49 25.7-73.2C588.4 44 595 31.7 605 22.2c11.9-11.2 26.2-16 42.9-14.3 39.1 3.9 68.8 38.6 86.5 59.3l.1.2c17.1 19.9 29.8 42.5 42.2 64.4 2.9 5.2 5.9 10.4 8.9 15.6 17.7 30.7 35 55.4 61.3 76.2 9.5 7.5 20 14.1 31.4 19.6 10.6 5.2 22.4 9.6 34.9 13 22 6.1 47.1 9.6 76.9 10.6 28.2 1 56.9-.5 81.4-2.1 12.1-.8 24.1-1.8 35.8-2.6 15.3-1.1 29.6-2.3 43.8-3.1 94.6-5.5 181.1-5.4 264.8.4v-.4c-83.7-5.8-170.3-5.9-264.9-.4-14.2.8-28.7 2-43.8 3.1-11.7.9-23.8 1.9-35.8 2.6-24.4 1.7-53.2 3.1-81.3 2.1-29.7-1-54.8-4.5-76.7-10.6-12.4-3.4-24.1-7.8-34.8-13-11.3-5.5-21.9-12.1-31.4-19.6-26.2-20.7-43.4-45.4-61.2-76.1-3-5.2-6-10.4-8.9-15.6-12.4-22-25.2-44.5-42.3-64.5l-.1-.2c-17.7-20.7-47.5-55.5-87-59.5-16.8-1.8-31.5 3.1-43.3 14.3-10.1 9.6-16.7 21.9-21.8 32.7-11.3 24.3-18.7 49.3-25.8 73.4-11.9 40.1-23.1 78.1-51.1 114.1-2.2 2.8-4.4 5.6-6.8 8.4-14.5 16.9-29.2 30.8-44.8 42.6-18.8 14.1-38.8 24.9-59.6 32-25.3 8.7-51.1 12.6-76.6 11.9-23-.7-45.7-5.1-69.5-13.4-28.2-9.8-57.1-25.4-88.5-47.7-23.4-16.6-45.6-35-65.1-51.1-3.1-2.6-6.2-5.2-9.2-7.6-2.5-2-5.1-4.2-7.8-6.6-17.6-15.2-41.8-35.8-64.1-34.5-9.7.6-18.4 5.5-25.7 14.3l.4.2c7.2-8.9 15.8-13.6 25.3-14.1 22-1.3 46.1 19.3 63.6 34.3 2.8 2.4 5.4 4.6 7.8 6.6 3 2.5 6.1 5.1 9.2 7.6 19.5 16.2 41.7 34.6 65.2 51.2 31.5 22.3 60.4 38 88.7 47.8 23.8 8.4 46.6 12.8 69.7 13.4 2.2.3 4.1.3 6.2.3z"/></g><g><linearGradient id="SVGID_27_" gradientUnits="userSpaceOnUse" x1="898.413" y1="162.424" x2="2327.686" y2="162.424" gradientTransform="rotate(180 1158.231 167)"><stop offset="0" stop-color="#fff"/><stop offset="1" stop-color="#231f20"/></linearGradient><path opacity=".57" fill="url(#SVGID_27_)" d="M323.9 343.2c24.1 0 48.3-4.3 72.2-12.8 38.5-13.7 73.5-40.2 104.3-78.8 26.2-32.9 38.2-67.5 47-99.8 2.5-8.9 4.7-18.1 7-26.8 6.4-25.2 13.1-51.2 23.9-76.3 4.4-10.3 10.9-23.5 21.1-33.4C611.2 3.9 625.7-1 642.6 1c40.2 4.6 70.3 42.6 86.5 63 16.4 20.7 28.7 43.9 40.4 66.3 17.8 33.9 36.2 69 69.8 96.4 18.7 15.3 40.5 26.2 66.8 33.5 22.3 6.2 47.8 9.6 78 10.4 29 .8 58.1-1 82.7-3 12.8-1 25.7-2.2 38.1-3.2 14.9-1.3 29-2.6 42.9-3.6 97.1-6.9 185.5-7.8 270-3v-.4c-84.6-5-173-3.9-270 3-13.9 1-28.1 2.3-42.9 3.6-12.5 1.1-25.3 2.3-38.1 3.2-24.7 2-53.7 3.8-82.7 3-30.2-.8-55.7-4.2-77.9-10.4-26.2-7.3-48.1-18.3-66.6-33.4-33.5-27.2-51.9-62.3-69.7-96.2-11.8-22.5-23.9-45.7-40.4-66.4C713.3 43.4 683 5.2 642.5.6c-17.1-2-31.8 2.9-43.6 14.4-10.2 10-16.7 23.2-21.1 33.5-10.8 25.1-17.4 51.1-23.8 76.3-2.3 8.8-4.5 17.9-7 26.8-9 32.4-20.8 66.8-47 99.7-30.7 38.6-65.7 65-104.1 78.7-31 11-62.6 15-93.8 11.6-27-3-54-11.3-82.4-25.6-22.7-11.3-45.5-26.2-71.8-46.5-18.6-14.3-35.6-29-52-43.1-3.2-2.8-6.4-5.5-9.5-8.1-2.3-2-4.6-4-7.2-6.3-17.6-15.7-41.9-37.1-64.4-35.8-9.9.6-18.7 5.8-26.1 15.3l.4.2c7.3-9.4 15.9-14.4 25.7-15.1 22.2-1.4 46.3 20 63.9 35.6 2.6 2.3 5 4.4 7.2 6.3 3.1 2.7 6.3 5.4 9.5 8.1 16.5 14.1 33.5 28.8 52.1 43.1 26.3 20.3 49.2 35.2 71.9 46.6 28.5 14.2 55.5 22.7 82.6 25.6 7.2.8 14.6 1.3 21.9 1.3z"/></g></svg>