<svg xmlns="http://www.w3.org/2000/svg" xmlns:xlink="http://www.w3.org/1999/xlink" viewBox="0 0 1440 1440"><defs><path id="a" d="M0 0h1440v1440H0z"/></defs><clipPath id="b"><use xlink:href="#a" overflow="visible"/></clipPath><radialGradient id="c" cx="720" cy="720" r="1158.006" gradientUnits="userSpaceOnUse"><stop offset=".414" stop-color="#fff"/><stop offset=".522" stop-color="#f9f9fa"/><stop offset=".663" stop-color="#e9eaea"/><stop offset=".821" stop-color="#cecfd1"/><stop offset=".991" stop-color="#a9abae"/><stop offset="1" stop-color="#a7a9ac"/></radialGradient><path clip-path="url(#b)" fill="url(#c)" d="M0 0h1440v1440H0z"/><g opacity=".25" clip-path="url(#b)"><linearGradient id="d" gradientUnits="userSpaceOnUse" x1="-83.176" y1="1598.92" x2="142.597" y2="1598.92" gradientTransform="rotate(11.438 -107.855 433.433)"><stop offset="0" stop-color="#d1d3d4"/><stop offset=".16" stop-color="#e1e2e3"/><stop offset=".405" stop-color="#f2f2f2"/><stop offset=".673" stop-color="#fcfcfc"/><stop offset="1" stop-color="#fff"/></linearGradient><path fill="url(#d)" d="M-132.9 1505.9l44.4 95-248 86.8z"/><linearGradient id="e" gradientUnits="userSpaceOnUse" x1="143.25" y1="1628.095" x2="416.691" y2="1628.095" gradientTransform="rotate(11.438 -107.855 433.433)"><stop offset=".382" stop-color="#fff"/><stop offset=".553" stop-color="#fafafa"/><stop offset=".762" stop-color="#ebecec"/><stop offset=".99" stop-color="#d2d4d5"/><stop offset="1" stop-color="#d1d3d4"/></linearGradient><path fill="url(#e)" d="M178.5 1663l-53.4 91.7-213-153.8z"/><linearGradient id="f" gradientUnits="userSpaceOnUse" x1="-81.324" y1="1362.2" x2="80.811" y2="1362.2" gradientTransform="rotate(11.438 -107.855 433.433)"><stop offset="0" stop-color="#d1d3d4"/><stop offset=".16" stop-color="#e1e2e3"/><stop offset=".405" stop-color="#f2f2f2"/><stop offset=".673" stop-color="#fcfcfc"/><stop offset="1" stop-color="#fff"/></linearGradient><path fill="url(#f)" d="M-247.8 1258.7l103.8-15.1 11.6 262.4z"/><linearGradient id="g" gradientUnits="userSpaceOnUse" x1="347.872" y1="1454.203" x2="515.052" y2="1454.203" gradientTransform="rotate(11.438 -107.855 433.433)"><stop offset="0" stop-color="#d1d3d4"/><stop offset=".092" stop-color="#dcddde"/><stop offset=".306" stop-color="#eff0f0"/><stop offset=".524" stop-color="#fbfbfb"/><stop offset=".746" stop-color="#fff"/></linearGradient><path fill="url(#g)" d="M282.4 1645.7l-103.5 17.2-17.2-263.6z"/><linearGradient id="h" gradientUnits="userSpaceOnUse" x1="80.663" y1="1430.287" x2="347.539" y2="1430.287" gradientTransform="rotate(11.438 -107.855 433.433)"><stop offset="0" stop-color="#d1d3d4"/><stop offset=".175" stop-color="#e4e5e6"/><stop offset=".386" stop-color="#f3f4f4"/><stop offset=".632" stop-color="#fcfcfc"/><stop offset="1" stop-color="#fff"/></linearGradient><path fill="url(#h)" d="M23.6 1582.4l-156.1-76.6L17.8 1544l143.6-144.9-137.9 183.7"/><linearGradient id="i" gradientUnits="userSpaceOnUse" x1="-291.753" y1="1251.424" x2="-81.508" y2="1251.424" gradientTransform="rotate(11.438 -107.855 433.433)"><stop offset="0" stop-color="#d1d3d4"/><stop offset=".16" stop-color="#e1e2e3"/><stop offset=".405" stop-color="#f2f2f2"/><stop offset=".673" stop-color="#fcfcfc"/><stop offset="1" stop-color="#fff"/></linearGradient><path fill="url(#i)" d="M-437.2 1133.8l117.6 158.8 71.7-34.1-63.7-44.9z"/><linearGradient id="j" gradientUnits="userSpaceOnUse" x1="-170.774" y1="61.216" x2="54.986" y2="61.216" gradientTransform="matrix(.0079 -1 1 .0079 223.69 1129.335)"><stop offset="0" stop-color="#d1d3d4"/><stop offset=".16" stop-color="#e1e2e3"/><stop offset=".405" stop-color="#f2f2f2"/><stop offset=".673" stop-color="#fcfcfc"/><stop offset="1" stop-color="#fff"/></linearGradient><path fill="url(#j)" d="M175.6 1136.3l84.7-61.7 132.6 226.9z"/><linearGradient id="k" gradientUnits="userSpaceOnUse" x1="55.72" y1="90.231" x2="329.14" y2="90.231" gradientTransform="rotate(-89.547 680.97 451.92)"><stop offset=".382" stop-color="#fff"/><stop offset=".559" stop-color="#f7f8f8"/><stop offset=".83" stop-color="#e2e3e4"/><stop offset="1" stop-color="#d1d3d4"/></linearGradient><path fill="url(#k)" d="M270.3 800.5l100.2 35-110.4 238.4z"/><linearGradient id="l" gradientUnits="userSpaceOnUse" x1="-168.913" y1="-175.823" x2="-6.794" y2="-175.823" gradientTransform="matrix(.0079 -1 1 .0079 223.69 1129.335)"><stop offset="0" stop-color="#d1d3d4"/><stop offset=".16" stop-color="#e1e2e3"/><stop offset=".405" stop-color="#f2f2f2"/><stop offset=".673" stop-color="#fcfcfc"/><stop offset="1" stop-color="#fff"/></linearGradient><path fill="url(#l)" d="M-45.6 1296.1l-34.5-98.9 255.4-61.5z"/><linearGradient id="m" gradientUnits="userSpaceOnUse" x1="380.456" y1="32.159" x2="313.918" y2="-204.936" gradientTransform="rotate(-89.547 680.97 451.92)"><stop offset="0" stop-color="#d1d3d4"/><stop offset=".092" stop-color="#dcddde"/><stop offset=".306" stop-color="#eff0f0"/><stop offset=".524" stop-color="#fbfbfb"/><stop offset=".746" stop-color="#fff"/></linearGradient><path fill="url(#m)" d="M233.4 702l36.5 98.2-255.4 67.2z"/><linearGradient id="n" gradientUnits="userSpaceOnUse" x1="-6.906" y1="-107.629" x2="259.956" y2="-107.629" gradientTransform="matrix(.0079 -1 1 .0079 223.69 1129.335)"><stop offset="0" stop-color="#d1d3d4"/><stop offset=".175" stop-color="#e4e5e6"/><stop offset=".386" stop-color="#f3f4f4"/><stop offset=".632" stop-color="#fcfcfc"/><stop offset="1" stop-color="#fff"/></linearGradient><path fill="url(#n)" d="M220.6 968l-45.5 167.9 9-154.9L14.4 867.7 221 968"/><linearGradient id="o" gradientUnits="userSpaceOnUse" x1="-379.281" y1="-286.509" x2="-169.047" y2="-286.509" gradientTransform="matrix(.0079 -1 1 .0079 223.69 1129.335)"><stop offset="0" stop-color="#d1d3d4"/><stop offset=".16" stop-color="#e1e2e3"/><stop offset=".405" stop-color="#f2f2f2"/><stop offset=".673" stop-color="#fcfcfc"/><stop offset="1" stop-color="#fff"/></linearGradient><path fill="url(#o)" d="M-132 1505.8L1.5 1360.2l-47.1-63.9-32 71.1z"/><linearGradient id="p" gradientUnits="userSpaceOnUse" x1="-147.653" y1="1528.703" x2="78.097" y2="1528.703" gradientTransform="rotate(58.34 786.226 514.615)"><stop offset="0" stop-color="#d1d3d4"/><stop offset=".16" stop-color="#e1e2e3"/><stop offset=".405" stop-color="#f2f2f2"/><stop offset=".673" stop-color="#fcfcfc"/><stop offset="1" stop-color="#fff"/></linearGradient><path fill="url(#p)" d="M-388.3 333.8l-39 97.2-232.9-121.6z"/><linearGradient id="q" gradientUnits="userSpaceOnUse" x1="78.831" y1="1558.062" x2="352.252" y2="1558.062" gradientTransform="rotate(58.34 786.226 514.615)"><stop offset=".382" stop-color="#fff"/><stop offset=".553" stop-color="#fafafa"/><stop offset=".762" stop-color="#ebecec"/><stop offset=".99" stop-color="#d2d4d5"/><stop offset="1" stop-color="#d1d3d4"/></linearGradient><path fill="url(#q)" d="M-290.3 668.6l-103.6 23.7-33.2-260.6z"/><linearGradient id="r" gradientUnits="userSpaceOnUse" x1="-145.974" y1="1291.926" x2="16.162" y2="1291.926" gradientTransform="rotate(58.34 786.226 514.615)"><stop offset="0" stop-color="#d1d3d4"/><stop offset=".16" stop-color="#e1e2e3"/><stop offset=".405" stop-color="#f2f2f2"/><stop offset=".673" stop-color="#fcfcfc"/><stop offset="1" stop-color="#fff"/></linearGradient><path fill="url(#r)" d="M-286.3 80.8l81.9 65.5-183.7 187.8z"/><linearGradient id="s" gradientUnits="userSpaceOnUse" x1="283.174" y1="1384.093" x2="450.357" y2="1384.093" gradientTransform="rotate(58.34 786.226 514.615)"><stop offset="0" stop-color="#d1d3d4"/><stop offset=".092" stop-color="#dcddde"/><stop offset=".306" stop-color="#eff0f0"/><stop offset=".524" stop-color="#fbfbfb"/><stop offset=".746" stop-color="#fff"/></linearGradient><path fill="url(#s)" d="M-206.9 732.4l-83.1-63.8 180.6-192.7z"/><linearGradient id="t" gradientUnits="userSpaceOnUse" x1="16.265" y1="1360.293" x2="283.108" y2="1360.293" gradientTransform="rotate(58.34 786.226 514.615)"><stop offset="0" stop-color="#d1d3d4"/><stop offset=".175" stop-color="#e4e5e6"/><stop offset=".386" stop-color="#f3f4f4"/><stop offset=".632" stop-color="#fcfcfc"/><stop offset="1" stop-color="#fff"/></linearGradient><path fill="url(#t)" d="M-337.4 500.5l-50.7-166.3 74.8 135.9 203.9 5.7-228.3 24.9"/><linearGradient id="u" gradientUnits="userSpaceOnUse" x1="-356.352" y1="1180.987" x2="-209.733" y2="1180.987" gradientTransform="rotate(58.34 786.226 514.615)"><stop offset="0" stop-color="#d1d3d4"/><stop offset=".16" stop-color="#e1e2e3"/><stop offset=".405" stop-color="#f2f2f2"/><stop offset=".673" stop-color="#fcfcfc"/><stop offset="1" stop-color="#fff"/></linearGradient><path fill="url(#u)" d="M-324.5-142.8l-35.4 194.1 62.6-48z"/><linearGradient id="v" gradientUnits="userSpaceOnUse" x1="542.037" y1="-13.665" x2="767.8" y2="-13.665" gradientTransform="rotate(-108.821 558.097 229.212)"><stop offset="0" stop-color="#d1d3d4"/><stop offset=".16" stop-color="#e1e2e3"/><stop offset=".405" stop-color="#f2f2f2"/><stop offset=".673" stop-color="#fcfcfc"/><stop offset="1" stop-color="#fff"/></linearGradient><path fill="url(#v)" d="M177.2 203.3l59.7-86.2 199.9 170.4z"/><linearGradient id="w" gradientUnits="userSpaceOnUse" x1="706.234" y1="-56.868" x2="1054.363" y2="26.546" gradientTransform="rotate(-108.821 558.097 229.212)"><stop offset=".587" stop-color="#fff"/><stop offset=".701" stop-color="#f9f9f9"/><stop offset=".854" stop-color="#e8e9e9"/><stop offset="1" stop-color="#d1d3d4"/></linearGradient><path fill="url(#w)" d="M155.9-144.7l106.2-.1-25.5 261.5z"/><linearGradient id="x" gradientUnits="userSpaceOnUse" x1="543.687" y1="-250.497" x2="705.831" y2="-250.497" gradientTransform="rotate(-108.821 558.097 229.212)"><stop offset="0" stop-color="#d1d3d4"/><stop offset=".16" stop-color="#e1e2e3"/><stop offset=".405" stop-color="#f2f2f2"/><stop offset=".673" stop-color="#fcfcfc"/><stop offset="1" stop-color="#fff"/></linearGradient><path fill="url(#x)" d="M21.5 427.3l-65.3-82L177 203z"/><linearGradient id="y" gradientUnits="userSpaceOnUse" x1="972.898" y1="-158.457" x2="1140.093" y2="-158.457" gradientTransform="rotate(-108.821 558.097 229.212)"><stop offset="0" stop-color="#d1d3d4"/><stop offset=".092" stop-color="#dcddde"/><stop offset=".306" stop-color="#eff0f0"/><stop offset=".524" stop-color="#fbfbfb"/><stop offset=".746" stop-color="#fff"/></linearGradient><path fill="url(#y)" d="M88.7-225.7l66.9 80.7L-63.3 2.8z"/><linearGradient id="z" gradientUnits="userSpaceOnUse" x1="705.86" y1="-182.277" x2="972.722" y2="-182.277" gradientTransform="rotate(-108.821 558.097 229.212)"><stop offset="0" stop-color="#d1d3d4"/><stop offset=".175" stop-color="#e4e5e6"/><stop offset=".386" stop-color="#f3f4f4"/><stop offset=".632" stop-color="#fcfcfc"/><stop offset="1" stop-color="#fff"/></linearGradient><path fill="url(#z)" d="M164.4 29.6L176.9 203 134.2 53.9-63.3 3l228.1 26.4"/><linearGradient id="A" gradientUnits="userSpaceOnUse" x1="333.465" y1="-361.234" x2="543.721" y2="-361.234" gradientTransform="rotate(-108.821 558.097 229.212)"><stop offset="0" stop-color="#d1d3d4"/><stop offset=".16" stop-color="#e1e2e3"/><stop offset=".405" stop-color="#f2f2f2"/><stop offset=".673" stop-color="#fcfcfc"/><stop offset="1" stop-color="#fff"/></linearGradient><path fill="url(#A)" d="M9 653.7l78-181.6-65.6-44.8-6.7 77.7z"/><path fill="#BCBEC0" d="M589 740.4c-1.7 0-3.1 1.3-3.1 3 0 .7.3 1.4.7 1.9l-68.9 61.9c-.7-.5-1.5-.9-2.4-.9-1 0-1.9.4-2.6 1l-252-227.8c1-1.2 1.6-2.7 1.6-4.4 0-3.9-3.1-7.1-7-7.1s-7.1 3.1-7.1 7c0 1.8.7 3.5 1.8 4.8L87.6 740.9c-1.3-1.2-3-2-4.9-2-1.6 0-3.1.6-4.3 1.5l-66.6-83.8c.5-.5.8-1.1 1-1.9.2-.7.2-1.5-.1-2.3-.3-1-1-1.7-1.8-2.2l74.9-174.4c.8.3 1.6.3 2.5 0 2-.7 3.1-2.9 2.4-5-.7-2-2.9-3.1-5-2.4-.7.2-1.3.7-1.7 1.2l-57.3-39.1c.9-1.5 1.2-3.4.6-5.2-.4-1.2-1.1-2.2-2.1-2.9l147.9-213.2c1.8 1.2 4 1.6 6.2.8 2.1-.7 3.6-2.3 4.3-4.2l248.8 80.7c-.2.8-.2 1.6.1 2.4.8 2.3 3.3 3.5 5.6 2.8 2.3-.8 3.5-3.3 2.8-5.6-.8-2.3-3.3-3.5-5.6-2.8-.7.2-1.2.6-1.7 1.1L242.3 121.5c1.4-1.8 1.9-4.3 1.1-6.6-.9-2.7-3.3-4.4-5.9-4.7l24.6-251.4c.4 0 .8 0 1.2-.2 2-.7 3-2.8 2.3-4.7-.7-2-2.8-3-4.7-2.3-1.4.5-2.3 1.7-2.5 3.1l-95.5.1c-.1-.4-.2-.9-.3-1.3-1.3-3.7-5.3-5.7-9-4.4-.6.2-1.2.5-1.7.9l-60.3-72.7c1.2-1.1 1.7-2.8 1.2-4.4-.6-1.8-2.3-2.9-4.1-2.8L68.8-345.8c.2-.1.5-.1.7-.2 1.5-.5 2.7-1.5 3.6-2.7l342.3 191.9c-.6 1.3-.7 2.7-.2 4.1 1 2.9 4.1 4.5 7.1 3.5 2.9-1 4.4-4.1 3.5-7-.7-2-2.4-3.3-4.3-3.7l16.4-140.9c.4 0 .8 0 1.1-.1 1.6-.5 2.5-2.3 1.9-3.9-.5-1.6-2.3-2.5-3.9-1.9-1.6.5-2.5 2.3-1.9 3.9.2.7.7 1.2 1.3 1.6L391.8-220c-.8-.3-1.7-.3-2.6 0-1 .3-1.7 1-2.1 1.8l-313-131.9c.5-1.5.6-3.1.1-4.7-1.3-3.7-5.3-5.7-9-4.4-3.7 1.3-5.7 5.3-4.4 9 .6 1.7 1.8 3.1 3.3 3.9L-36.2-140.7c-1.6-.7-3.5-.9-5.3-.3-1.5.5-2.8 1.6-3.6 2.8l-90.5-57.1c.4-.9.5-1.9.1-2.8-.7-2-2.9-3.1-5-2.4-2 .7-3.1 2.9-2.4 5 .7 2 2.9 3.1 5 2.4L-66.1-3.4c-3.3 1.5-5.1 5.2-3.9 8.7 1.3 3.7 5.3 5.7 9 4.4 2.2-.8 3.8-2.5 4.4-4.6l187 48.2c-.1.6-.1 1.3.1 1.9.6 1.9 2.5 2.9 4.4 2.6l39.8 138.9c-3.7 1.3-5.6 5.3-4.4 9 .1.3.3.6.4 1L-40.8 343c-1-1.3-2.7-1.8-4.3-1.3-2 .7-3.1 2.9-2.4 5 .7 2 2.7 3 4.7 2.5L13 501.6c-1.7.9-2.6 2.9-2 4.7.5 1.5 1.8 2.4 3.2 2.6L8.8 649.8c-.4 0-.7.1-1.1.2-.3.1-.6.3-.9.4h-.1l-112.1-169c2.9-2.2 3.8-6.2 1.8-9.4-2-3.3-6.4-4.4-9.7-2.3-2 1.2-3.1 3.3-3.3 5.5l-193.1-5.5c0-.6-.2-1.2-.5-1.8-1-1.7-3.1-2.2-4.9-1.5l-69.7-126.6c3.3-2.1 4.3-6.4 2.3-9.7-.2-.3-.4-.6-.6-.8l176-180c1.3 1 3 1.2 4.5.3 1.8-1.1 2.4-3.5 1.3-5.4-1.1-1.8-3.3-2.3-5.1-1.4L-294.6 6.6c1.5-1.2 1.9-3.3.9-5-.8-1.3-2.3-1.9-3.7-1.8l-26.1-138.6c.3-.1.7-.2 1-.4 1.8-1.1 2.4-3.5 1.3-5.4-1.1-1.8-3.5-2.4-5.4-1.3-1.8 1.1-2.4 3.5-1.3 5.4.5.9 1.4 1.4 2.3 1.7L-359.9 48c-.8-.1-1.6 0-2.4.5-1.8 1.1-2.4 3.5-1.3 5.4 1.1 1.8 3.5 2.4 5.4 1.3.6-.4 1.1-1 1.4-1.6l64.6 25.4c-.6 1.7-.4 3.6.6 5.2.7 1.1 1.6 1.9 2.7 2.4l-96.8 240.8c-2-.8-4.3-.6-6.2.6-1.9 1.1-3 3-3.3 5l-260.5-23.3c0-.8-.2-1.6-.6-2.4-1.3-2.1-4-2.7-6.1-1.4-2.1 1.3-2.7 4-1.4 6.1 1.3 2.1 4 2.7 6.1 1.4.6-.4 1.1-.9 1.4-1.4l222.7 116.4c-1 2.1-.9 4.6.4 6.7 1.5 2.4 4.2 3.6 6.8 3.3l31.9 250.5c-.4.1-.8.2-1.2.4-1.8 1.1-2.3 3.4-1.2 5.1 1.1 1.8 3.4 2.3 5.1 1.2 1.3-.8 1.9-2.2 1.7-3.6l93.1-21.3c.2.4.3.8.6 1.2 2 3.3 6.4 4.4 9.7 2.3.6-.3 1-.8 1.4-1.2l74.9 57.5c-.9 1.3-1.1 3.1-.2 4.6 1 1.6 2.9 2.3 4.6 1.8l45.2 108.6c-.2.1-.5.2-.7.3-1.4.8-2.3 2.1-2.9 3.5L-540.8 738c.3-1.4.1-2.8-.7-4.1-1.6-2.6-5-3.4-7.6-1.8-2.6 1.6-3.4 5-1.8 7.6 1.1 1.8 3.1 2.7 5 2.6l15.4 141c-.4.1-.7.2-1.1.4-1.4.9-1.9 2.8-1 4.2.9 1.4 2.8 1.9 4.2 1 1.4-.9 1.9-2.8 1-4.2-.4-.6-1-1-1.6-1.2l25.5-89.1c.9.1 1.7 0 2.5-.5.9-.5 1.4-1.3 1.7-2.2l334.6 59.1c-.2 1.5.1 3.2 1 4.6 2 3.3 6.4 4.4 9.7 2.3 3.3-2 4.3-6.4 2.3-9.7-1-1.6-2.4-2.6-4.1-3.1l51.9-222.9c1.7.4 3.6.1 5.2-.9 1.4-.9 2.4-2.1 2.9-3.6L5.1 653.1c-.1.5-.1 1.1 0 1.6.3 1.8 1.9 3.2 3.8 3.2L14 860.7c-3.6.3-6.5 3.3-6.5 7 0 3.9 3.1 7.1 7 7.1 2.3 0 4.4-1.1 5.7-2.9l160.6 107.3c-.3.5-.5 1.2-.5 1.8 0 2 1.4 3.6 3.3 3.9l-8.3 144.2c-3.9 0-7.1 3.1-7.1 7 0 .4 0 .7.1 1.1L-76.4 1196c-.5-1.5-2-2.6-3.6-2.6-2.2 0-3.9 1.7-3.9 3.9 0 2.1 1.6 3.8 3.6 3.9l2.4 162.3c-1.9.2-3.4 1.9-3.4 3.8 0 1.5.9 2.9 2.2 3.5l-50.6 128.6c-.5-.2-1-.4-1.5-.5-.4-.1-.7-.1-1.1-.1l-11.1-251.5c1.6-.2 2.9-1.4 3.3-3.1.4-2.1-.9-4.2-3.1-4.6-2-.4-4 .8-4.5 2.8l-159.8-28.6c.1-1.9-1.2-3.7-3.1-4.1-1.5-.3-3 .3-3.9 1.4l-119-75.7c.2-.3.3-.6.4-1 .4-2.1-.9-4.2-3.1-4.6-2.1-.4-4.2.9-4.6 3.1-.4 2.1.9 4.2 3.1 4.6 1 .2 2 0 2.8-.5l112.9 152.6c-.6.5-1.1 1.3-1.2 2.1-.4 2.1.9 4.2 3.1 4.6 2.1.4 4.2-.9 4.6-3.1.2-.7.1-1.5-.2-2.1l62.6-29.8c.9 1.6 2.3 2.8 4.2 3.1 1.2.3 2.5.1 3.6-.3l109.7 235.2c-1.9.9-3.4 2.7-3.9 4.9-.4 2.1.2 4.2 1.4 5.8l-195 174.2c-.6-.6-1.3-1-2.2-1.1-2.4-.5-4.7 1.1-5.2 3.5s1.1 4.7 3.5 5.2 4.7-1.1 5.2-3.5c.1-.7.1-1.4-.1-2l237.1-83.1c.9 2.1 2.7 3.8 5.1 4.3 2.8.6 5.5-.6 7.1-2.7l204.7 147.9c-.2.3-.4.7-.5 1.1-.4 2 .9 4 2.9 4.4 2 .4 4-.9 4.4-2.9.3-1.5-.3-2.9-1.5-3.7l48.1-82.5c.4.2.8.3 1.3.4 3.8.8 7.6-1.7 8.3-5.5.1-.6.1-1.3.1-1.9l93.1-15.4c.3 1.6 1.5 2.9 3.2 3.3 1.9.4 3.6-.6 4.5-2.2l110.1 41.2c-.1.2-.2.5-.2.7-.3 1.6-.1 3.1.6 4.4l-338.3 199c-.8-1.1-2-2-3.4-2.3-3-.6-5.9 1.3-6.5 4.3-.6 3 1.3 5.9 4.3 6.5 2.1.4 4.1-.4 5.3-1.9l113.5 85.2c-.2.3-.4.7-.5 1.1-.3 1.7.7 3.3 2.4 3.6 1.7.3 3.3-.7 3.6-2.4.3-1.7-.7-3.3-2.4-3.6-.7-.1-1.4 0-2 .3l-47.6-79.5c.7-.6 1.2-1.3 1.3-2.2.2-1 0-2-.5-2.8l271.7-203.9c1 1.2 2.4 2.1 4 2.4 3.8.8 7.6-1.7 8.3-5.5.8-3.8-1.7-7.6-5.5-8.3-1.8-.4-3.6 0-5 .9l-127.4-190c1.5-1 2.5-2.5 2.9-4.4.3-1.6.1-3.2-.6-4.5l94.9-49.4c.6.8 1.4 1.4 2.4 1.6 2.1.4 4.2-.9 4.6-3.1.4-2.1-.9-4.2-3.1-4.6-2.1-.4-4.2.9-4.6 3.1l-200-33.6c.4-3.6-2-7-5.6-7.7-3.8-.8-7.6 1.7-8.3 5.5-.5 2.3.3 4.5 1.7 6.2l-135.8 137c-.5-.4-1-.7-1.7-.8-1.9-.4-3.8.7-4.4 2.5l-140-35.6c.4-2.2-.2-4.3-1.5-5.9L-.7 1363.2c.6.5 1.4.8 2.3.8 2.2 0 3.9-1.7 3.9-3.9s-1.7-3.9-3.9-3.9c-.7 0-1.4.2-2 .6l-41.1-55.8c1.4-1.1 2.3-2.8 2.3-4.7 0-1.3-.4-2.4-1-3.4l210-152.5c1.3 1.7 3.3 2.8 5.6 2.8 2.2 0 4.1-1 5.4-2.5L389 1299c-.4.7-.7 1.5-.7 2.3 0 2.4 1.9 4.4 4.4 4.5 2.4 0 4.4-1.9 4.5-4.4 0-2.4-1.9-4.4-4.4-4.5-.7 0-1.4.2-1.9.5l-126.9-217c1.9-1.2 3.2-3.4 3.2-5.9 0-2.8-1.6-5.3-4-6.4L369.3 839c.4.1.8.3 1.2.3 2.1 0 3.7-1.6 3.8-3.7 0-2.1-1.6-3.8-3.7-3.8-1.5 0-2.8.9-3.4 2.1L277 802.4c.1-.4.1-.9.1-1.3 0-3.9-3.1-7.1-7-7.1-.7 0-1.3.1-1.9.3l-32.9-88.5c1.5-.6 2.6-2.1 2.6-3.8 0-1.9-1.3-3.5-3-4l19.5-116c.3 0 .5.1.7.1 1.6 0 3.1-.5 4.3-1.4l259.8 294.2c-1 1-1.6 2.3-1.6 3.8 0 3.1 2.4 5.6 5.5 5.6s5.6-2.4 5.6-5.5c0-2.1-1.2-3.9-2.9-4.9l62-127.6c.4.1.7.2 1.1.2 1.7 0 3.1-1.3 3.1-3 .1-1.7-1.3-3.1-3-3.1zm-76.8 67.5c-.5.7-.8 1.5-.8 2.4 0 2.2 1.7 3.9 3.9 3.9h.2l6.8 59.1c-.9.2-1.7.6-2.4 1.1L260 580.3c.1-.1.2-.1.2-.2l252 227.8zm-334.8 321.5l42.7-157.6c.2 0 .4.1.6.1.6 0 1.1-.1 1.6-.3l35.3 96.3c-2.6 1-4.5 3.5-4.5 6.5 0 1.4.4 2.8 1.2 3.9l-73.4 53.4c-1-1.1-2.2-1.9-3.5-2.3zm82.6-62c-.6 0-1.2.1-1.7.3L223 971.2c1-.7 1.7-1.9 1.7-3.2 0-1.5-.8-2.7-2-3.4l45.8-156.7c.4.1.7.1 1.1.2l-9.6 259.3zm7.8-259.7l-45.7 156.6c-.4-.1-.8-.2-1.3-.2-1.4 0-2.6.7-3.3 1.7L21.1 870.4c.4-.8.6-1.7.6-2.7 0-.6-.1-1.2-.2-1.7l241.8-63.6c.4 2.5 2.1 4.5 4.5 5.3zm-249.5 54l61.3-109.3c.9.4 1.9.7 2.9.7 3.9 0 7.1-3.1 7.1-7 0-.5 0-.9-.1-1.4L230 703.5c.1.2.2.4.3.5L19.9 863c-.5-.5-1-.9-1.6-1.3zm215.6-163.9c-2.3 0-4.1 1.8-4.2 4.1 0 .3 0 .6.1.8L89.4 744c-.3-.9-.7-1.8-1.3-2.5l162.5-161.2c.9.8 2 1.4 3.2 1.7l-19.4 115.9c-.2 0-.4-.1-.5-.1zM83.6 470.3c-.5.9-.7 2.1-.3 3.1l-65.2 29.7c-.6-1-1.6-1.7-2.7-1.9l5.8-67.6c.7 0 1.5-.1 2.2-.3 1.2-.4 2.2-1.2 2.9-2.1l57.3 39.1zM-41.7 348.7l58.9 74.1c-1.8 1.6-2.6 4.2-1.8 6.7.8 2.3 2.8 3.8 5 4.2l-5.8 67.6c-.3 0-.7 0-1 .1L-42.2 349c.2-.2.3-.2.5-.3zM165.1 33.5c.2 0 .4-.1.6-.1.5-.2 1-.5 1.4-.8l65.1 79.3c-2.1 1.8-3.1 4.8-2.1 7.7.5 1.4 1.3 2.5 2.4 3.3l-51.7 74.6c-1.2-.7-2.5-1.1-3.9-1.1L165.1 33.5zm-202-161.1c3.7-1.3 5.7-5.3 4.4-9-.2-.4-.3-.9-.6-1.2l119-85.3c.1.2.3.3.4.4L-59.8-3.1c-.6-.3-1.2-.6-1.9-.8l21.8-123.5c1 .2 2 .1 3-.2zM-56.6.8c-.2-.6-.5-1.1-.8-1.6l207.2-139.8c1.3 2.2 3.6 3.5 6.1 3.5l8.5 162.9c-.4 0-.8.1-1.3.2-1.3.4-2.2 1.5-2.5 2.7L-56.2 3.5c0-.9-.1-1.8-.4-2.7zm290.9 109.8c-.6.2-1.1.5-1.5.8L167.6 32c.8-1 1-2.4.6-3.6-.5-1.4-1.6-2.3-3-2.6l-8.5-163c.4 0 .7-.1 1.1-.2l76.5 248zM433.1 285c-.2.3-.4.6-.5.9l-248.8-80.6c.4-1.3.3-2.7-.1-4.1-.5-1.4-1.3-2.5-2.4-3.3l51.7-74.6c1.7 1.1 3.9 1.4 6 .7 1.1-.4 2.1-1 2.8-1.9L433.1 285zM235 110.4l-76.5-248c2.9-1.1 4.6-3.9 4.5-6.9l95.5-.1c0 .3 0 .6.1.9.4 1.3 1.5 2.1 2.8 2.4l-24.6 251.4c-.6.1-1.2.1-1.8.3zm-83.6-260c-2.2 1.8-3.1 4.8-2.1 7.7l.3.6L-57.8-1.4c-.4-.5-.9-1-1.4-1.3L86.9-222.3c1 .6 2.2.8 3.4.4.3-.1.6-.2.8-.4l60.3 72.7zM437-301h.1l-16.4 141c-.7 0-1.3.1-2 .3-.1 0-.2.1-.4.2l-25.9-53.6c1.5-.9 2.2-2.8 1.6-4.6-.3-.9-1-1.6-1.7-2.1L437-301zm-50.3 83.3c-.3.8-.3 1.7 0 2.5.7 2 2.9 3.1 5 2.4.1 0 .1-.1.2-.1l25.9 53.6c-.8.5-1.4 1.1-1.9 1.8L73.5-349.3c0-.1.1-.2.2-.3l313 131.9zM64.5-346.2c1.1.5 2.3.7 3.6.5L88-229.9c-.1 0-.3 0-.4.1-2.2.7-3.3 3.1-2.6 5.2.1.3.2.5.4.8l-119 85.3c-.6-.8-1.3-1.4-2.1-1.9L64.5-346.2zm-200.4 151.6l90.5 57.1c-.9 1.7-1.1 3.6-.4 5.5.8 2.5 2.9 4.1 5.3 4.6L-62.4-4c-1-.1-2-.1-3 .3l-71.8-189.8c.5-.2.9-.7 1.3-1.1zm79.5 199v-.2l216.9 25.2c0 .5 0 1 .2 1.5.5 1.6 2 2.6 3.6 2.6L176 196.4c-.2 0-.4.1-.7.2l-39.6-139c1.9-.8 3-2.9 2.3-4.9-.7-2-2.9-3.1-5-2.4-1.2.4-2 1.3-2.4 2.4l-187-48.3zm227.6 202.8c.4.6.9 1.1 1.4 1.6L24.7 422.1c-1.5-.9-3.4-1.2-5.3-.6-.6.2-1.1.5-1.6.8l-59-74.1c1.1-1 1.5-2.6 1-4.1l-.3-.6 211.7-136.3zM14.9 509c.4 0 .7-.1 1.1-.2 2-.7 3.1-2.9 2.4-5l65.2-29.7c.4.6.9 1.1 1.5 1.5L10.2 650c-.2-.1-.5-.1-.7-.2L14.9 509zm-121.1 100c-3.3 2-4.4 6.4-2.3 9.7.2.4.5.8.8 1.1l-97 109.6c-.2-.1-.3-.2-.5-.3l93.7-246.6c.7.2 1.3.3 2 .3l6.2 125.2c-1 .2-2 .5-2.9 1zm-280.3-268.3l47.6 156.3c-.2.1-.4.1-.6.2-.5.3-.9.7-1.2 1.1l-81.1-62.9c1.7-2.3 1.9-5.4.4-7.9-.8-1.2-1.8-2.1-3.1-2.7l33.8-84.2c1.4.4 2.8.4 4.2.1zm-35.7 95.2l81.2 63c-.5 1.1-.5 2.5.2 3.6.8 1.2 2.1 1.8 3.5 1.8l44.5 157.1c-.4.1-.7.3-1 .5l-129.7-224.8c.5-.4.9-.8 1.3-1.2zm130.1 225.3l-44.5-157c.4-.1.8-.2 1.2-.4 1.2-.7 1.7-1.9 1.8-3.2l217.2-23.7c.1.9.5 1.8 1 2.6.3.5.7.9 1.1 1.3l-171 182.4c-1.8-1.8-4.4-2.6-6.8-2zm175.6-185.3v.2l-217.1 23.7c-.1-.5-.3-1-.5-1.4-.9-1.4-2.6-2.1-4.1-1.7l-47.6-156.2.6-.3 69.7 126.6c-1.7 1.2-2.3 3.5-1.2 5.3 1.1 1.8 3.5 2.4 5.4 1.3 1.1-.6 1.6-1.7 1.8-2.9l193 5.4zM-281 77.6c-1.3-2.1-3.6-3.1-5.8-2.9l-9.3-67.3c.3-.1.7-.2 1-.4l88.3 136.3c-.1.1-.3.2-.4.4l-74-59.1c1.4-2.1 1.5-4.8.2-7zm-43.9-216.3c.2 0 .5.1.7 0L-298.1-.1c-.3.1-.7.2-1 .4-1.8 1.1-2.4 3.5-1.3 5.4l-57.1 43.5c-.5-.5-1.1-1-1.8-1.1l34.4-186.8zm-31.7 191.6c.3-1 .2-2.2-.4-3.1l57-43.5c.8.9 1.9 1.3 3 1.3l9.3 67.3c-.7.1-1.4.4-2.1.8-1.1.7-1.9 1.6-2.4 2.7l-64.4-25.5zm68.3 33.9c1.7.6 3.6.4 5.3-.6.5-.3 1-.7 1.3-1.2l74 59.1c-.8 1.2-.9 2.8-.1 4.2.1.2.3.3.4.5l-176 180c-.5-.5-1.1-.9-1.7-1.2l96.8-240.8zm-367.8 224.4c.1-.3.2-.6.3-1l260.5 23.3c-.1 1.4.3 2.7 1 4 .8 1.2 1.8 2.1 3.1 2.7l-33.8 84.2c-1.9-.7-4.1-.5-6 .6-1 .6-1.8 1.5-2.3 2.4l-222.8-116.2zm265.7 380c-.1-.3-.1-.6-.3-.8-.7-1.2-2-1.7-3.3-1.7L-425.9 438c.6-.1 1.1-.3 1.7-.6l129.7 224.8c-2.6 1.7-3.6 4.8-2.9 7.7l-93 21.3zm105.5-18.9c1.7-2.3 2-5.4.4-8-.1-.2-.3-.4-.4-.5l171.1-182.5c.5.4 1.1.7 1.7 1l-93.6 246.5c-1.1-.4-2.4-.3-3.4.4-.3.2-.5.3-.7.5l-75.1-57.4zm-244.8 211.1h-.1l-15.4-141.1c.6-.1 1.3-.3 1.9-.7.1-.1.2-.2.3-.2l37.2 46.6c-1.3 1.3-1.6 3.2-.6 4.8.5.8 1.3 1.4 2.2 1.6l-25.5 89zm30.5-92.5c.1-.8 0-1.7-.5-2.4-1.1-1.8-3.5-2.4-5.4-1.3-.1 0-.1.1-.1.1l-37.2-46.5c.7-.6 1.1-1.4 1.4-2.2l376.4 111.1c0 .1-.1.2-.1.3l-334.5-59.1zm342.7 53.8c-1.2-.2-2.4-.1-3.6.3l-45.2-108.5c.1-.1.2-.1.4-.2 1.9-1.2 2.5-3.7 1.3-5.7-.2-.2-.3-.5-.5-.7l97-109.6c.7.6 1.6 1.1 2.5 1.4l-51.9 223zm60.9-227.9c.5-1.8.2-3.8-.8-5.5-1.4-2.2-3.7-3.4-6.2-3.3l-6.2-125.2c1-.1 2-.4 2.9-.9L6.3 651l-.3.3c-.3.3-.5.7-.6 1.1l-101-35.6zm106.9 40.3l66.6 83.7c-1.4 1.3-2.2 3.1-2.2 5.1 0 2.6 1.4 4.9 3.5 6.1L17.7 861.4c-.9-.4-1.9-.7-2.9-.7L9.7 657.8c.5-.1 1.1-.4 1.6-.7zm9.3 214.2c0-.1.1-.1.1-.2l196.4 95.4c-.2.5-.3 1-.3 1.5 0 1.7 1.1 3.1 2.5 3.7l-42.7 157.6c-.2 0-.4 0-.7-.1l8.3-144.3c2.1-.1 3.8-1.8 3.8-3.9 0-2.2-1.7-3.9-3.9-3.9-1.2 0-2.3.6-3.1 1.5L20.6 871.3zm-69.1 430.4l-27.8 61.9c-.3-.1-.7-.2-1-.2l-2.4-162.3c.2 0 .4 0 .5-.1l31.2 89.4c-2.3.9-3.8 3.1-3.9 5.7 0 2.5 1.4 4.6 3.4 5.6zm-30.1 69.4c.3.1.7.2 1.1.2 2.2 0 3.9-1.7 3.9-3.9l71.4-6.5c.1.7.5 1.4 1 1.9l-126.6 138c-.4-.4-.9-.7-1.4-1l50.6-128.7zM17 1548c2.1.4 4.2-.9 4.6-3.1.2-1.2-.1-2.4-.9-3.3l135.9-137.2.2.2-131 174.6c-.4-.3-.9-.5-1.4-.6-1.7-.3-3.3.4-4.1 1.8l-146.6-72c.1-.2.1-.4.2-.6l140 35.7c-.3 2.1 1 4 3.1 4.5zm249.4-51.9c.5.1.9.1 1.4.1l13.7 145.7c-.2 0-.4.1-.6.2l-116-236.9c.6-.3 1.1-.8 1.6-1.3l95.6 81.1c-.6.8-1 1.7-1.2 2.7-.8 3.9 1.7 7.6 5.5 8.4zm-106.5-90c.6.1 1.2.1 1.7.1l16.4 249.4c-2.5 0-4.8 1.4-6.1 3.5l-145-74.7c.2-.4.4-.8.5-1.2.3-1.3-.2-2.7-1.1-3.6L157.4 1405c.7.5 1.6.9 2.5 1.1zm-286.5 103l146.6 72c-.1.2-.1.4-.2.6-.1.5-.1 1.1 0 1.6l-101.3 16.3c-.5-2.8-2.6-5.1-5.5-5.7-1.4-.3-2.8-.1-4.1.4l-38.4-82.2c1.2-.8 2.2-1.7 2.9-3zm45.2 91.2L20 1584c.5 1.2 1.5 2.1 2.8 2.3 1.4.3 2.8-.3 3.7-1.3l145.1 74.8c-.2.3-.3.7-.4 1.1L-81.5 1602c.1-.6.1-1.2.1-1.7zm-165.2-348c-2.4-.5-4.7.5-6.1 2.3l-55.5-39.1c.2-.3.3-.6.4-1l159.8 28.6v.5l-93.7 13.6c-.5-2.4-2.4-4.4-4.9-4.9zm-187.9-115.7l.5-.5 119 75.7c-.2.3-.3.6-.4 1-.4 2.1.9 4.2 3.1 4.6l-7.2 71.3c-.7 0-1.4.2-2.1.6l-112.9-152.7zm118.2 154c-.5-.9-1.4-1.6-2.6-1.8l7.2-71.3c1.2 0 2.3-.5 3-1.4l55.5 39.1c-.4.6-.7 1.3-.8 2.1-.3 1.3-.1 2.5.3 3.6l-62.6 29.7zm71.4-26.7c1.6-.9 2.8-2.4 3.2-4.3.1-.6.1-1.2.1-1.8l93.7-13.6c.4 1.4 1.5 2.6 3 2.9.2 0 .4.1.6.1l11.1 251.5c-.7 0-1.4.2-2 .4l-109.7-235.2zm-87.4 421.9c-.1-.3-.3-.6-.5-.9l195-174.2c1 1 2.2 1.7 3.6 2 1.4.3 2.8.1 4.1-.4l38.4 82.2c-1.8 1-3.2 2.7-3.6 4.8-.2 1.2-.1 2.3.2 3.4l-237.2 83.1zm459 65.6c-.3-.1-.5-.3-.8-.3-1.3-.3-2.6.3-3.5 1.2l-204.8-147.9c.3-.5.5-1.1.7-1.7l252.8 58.9c-.5 3 1 6 3.7 7.3l-48.1 82.5zm58.3-89.9c-.5-2.8-2.6-5.1-5.5-5.7-.2 0-.5 0-.7-.1l-16.4-249.6c.6-.1 1.3-.3 1.9-.5l116 236.8c-1 .6-1.8 1.5-2.1 2.8-.1.3-.1.6-.1.9l-93.1 15.4zm-13.2 322.9c0 .1 0 .1 0 0l-113.6-85.1c.4-.6.6-1.2.8-1.9v-.4l59.4 4.6c.1 1.8 1.3 3.4 3.1 3.7 1 .2 1.9 0 2.7-.4l47.6 79.5zm-46.6-85.4c-.5-.6-1.3-1.1-2.2-1.3-2.1-.4-4.2.9-4.6 3.1v.2l-59.3-4.6c0-.9-.2-1.8-.6-2.5l338.3-199c.1.1.1.2.2.3L125.2 1899zm273.3-213.4c-1 .7-1.8 1.7-2.3 2.8l-110.1-41.2c0-.1.1-.3.1-.4.4-2.2-1-4.4-3.2-4.9-.3-.1-.6-.1-.8-.1l-13.7-145.7c1-.1 1.9-.4 2.7-.8l127.3 190.3zM368.7 1436l-94.9 49.4c-1-1.6-2.6-2.8-4.6-3.2-2.5-.5-5 .4-6.6 2.2l-95.6-81.1c.6-.8 1.1-1.7 1.3-2.8l200.1 33.7c-.1.7 0 1.3.3 1.8zM-1 1357.2c-.8.7-1.3 1.7-1.3 2.9l-71.4 6.5c-.2-1.2-.9-2.1-1.9-2.7l27.8-61.9c.7.3 1.4.4 2.2.4 1.3 0 2.5-.4 3.5-1l41.1 55.8zm-39.8-64.9c-1.1-1.4-2.8-2.3-4.8-2.3-.6 0-1.2.1-1.8.3l-31.2-89.4c1.3-.6 2.3-1.9 2.3-3.5 0-.2 0-.4-.1-.6l244.7-58.8c.2.7.4 1.3.8 1.9l-209.9 152.4zm430.9 5.4c-.3.2-.5.4-.7.7l-208.2-158.3c.8-1.1 1.2-2.5 1.2-3.9s-.4-2.8-1.2-3.9l73.4-53.4c1.3 1.6 3.2 2.6 5.4 2.7 1.2 0 2.3-.3 3.3-.8l126.8 216.9zM367 834.6c-.1.3-.2.6-.2.9 0 1.4.8 2.5 1.9 3.2l-106.2 229.2c-.6-.2-1.2-.3-1.8-.4l9.6-259.4c3.1-.1 5.7-2.2 6.5-5l90.2 31.5zm-99.4-40.1c-2.6 1-4.5 3.5-4.6 6.5 0 .2 0 .5.1.7L21.2 865.3c-.2-.6-.5-1.2-.9-1.7l210.4-159c.7.9 1.9 1.5 3.1 1.5.3 0 .6 0 .9-.1l32.9 88.5zm257.6 79.1c-.6-.2-1.3-.4-2-.4h-.4L516 814c1.7-.4 3-1.9 3.1-3.8 0-1-.4-1.9-.9-2.6l68.9-61.9s.1 0 .1.1l-62 127.8z"/></g><g opacity=".25" clip-path="url(#b)"><linearGradient id="B" gradientUnits="userSpaceOnUse" x1="629.533" y1="702.268" x2="855.299" y2="702.268" gradientTransform="rotate(-175.589 1186.308 437.374)"><stop offset="0" stop-color="#d1d3d4"/><stop offset=".16" stop-color="#e1e2e3"/><stop offset=".405" stop-color="#f2f2f2"/><stop offset=".673" stop-color="#fcfcfc"/><stop offset="1" stop-color="#fff"/></linearGradient><path fill="url(#B)" d="M1590.1 312.4l-55.6-88.8L1769.9 107z"/><linearGradient id="C" gradientUnits="userSpaceOnUse" x1="855.951" y1="731.43" x2="1129.393" y2="731.43" gradientTransform="rotate(-175.589 1186.308 437.374)"><stop offset=".382" stop-color="#fff"/><stop offset=".553" stop-color="#fafafa"/><stop offset=".762" stop-color="#ebecec"/><stop offset=".99" stop-color="#d2d4d5"/><stop offset="1" stop-color="#d1d3d4"/></linearGradient><path fill="url(#C)" d="M1261.8 194.6l41.9-97.6 230.1 126.6z"/><linearGradient id="D" gradientUnits="userSpaceOnUse" x1="631.366" y1="465.545" x2="793.509" y2="465.545" gradientTransform="rotate(-175.589 1186.308 437.374)"><stop offset="0" stop-color="#d1d3d4"/><stop offset=".16" stop-color="#e1e2e3"/><stop offset=".405" stop-color="#f2f2f2"/><stop offset=".673" stop-color="#fcfcfc"/><stop offset="1" stop-color="#fff"/></linearGradient><path fill="url(#D)" d="M1734.4 543.7l-101.1 27.6-43.7-259z"/><linearGradient id="E" gradientUnits="userSpaceOnUse" x1="1060.562" y1="557.533" x2="1227.751" y2="557.533" gradientTransform="rotate(-175.589 1186.308 437.374)"><stop offset="0" stop-color="#d1d3d4"/><stop offset=".092" stop-color="#dcddde"/><stop offset=".306" stop-color="#eff0f0"/><stop offset=".524" stop-color="#fbfbfb"/><stop offset=".746" stop-color="#fff"/></linearGradient><path fill="url(#E)" d="M1160.9 224.4l100.5-29.6 49.4 259.4z"/><linearGradient id="F" gradientUnits="userSpaceOnUse" x1="793.362" y1="533.622" x2="1060.229" y2="533.622" gradientTransform="rotate(-175.589 1186.308 437.374)"><stop offset="0" stop-color="#d1d3d4"/><stop offset=".175" stop-color="#e4e5e6"/><stop offset=".386" stop-color="#f3f4f4"/><stop offset=".632" stop-color="#fcfcfc"/><stop offset="1" stop-color="#fff"/></linearGradient><path fill="url(#F)" d="M1425.4 255.6l164.4 57-153.9-19.6-124.7 161.4 114.3-199.2"/><linearGradient id="G" gradientUnits="userSpaceOnUse" x1="420.931" y1="354.781" x2="631.18" y2="354.781" gradientTransform="rotate(-175.589 1186.308 437.374)"><stop offset="0" stop-color="#d1d3d4"/><stop offset=".16" stop-color="#e1e2e3"/><stop offset=".405" stop-color="#f2f2f2"/><stop offset=".673" stop-color="#fcfcfc"/><stop offset="1" stop-color="#fff"/></linearGradient><path fill="url(#G)" d="M1937.7 644.5l-136.1-143.3-67 42.6 68.7 36.8z"/><linearGradient id="H" gradientUnits="userSpaceOnUse" x1="574.092" y1="931.357" x2="799.859" y2="931.357" gradientTransform="rotate(83.425 1092.347 1101.423)"><stop offset="0" stop-color="#d1d3d4"/><stop offset=".16" stop-color="#e1e2e3"/><stop offset=".405" stop-color="#f2f2f2"/><stop offset=".673" stop-color="#fcfcfc"/><stop offset="1" stop-color="#fff"/></linearGradient><path fill="url(#H)" d="M1329.3 717l-76.7 71.5-159.2-208.9z"/><linearGradient id="I" gradientUnits="userSpaceOnUse" x1="800.592" y1="960.36" x2="1074.03" y2="960.36" gradientTransform="rotate(83.425 1092.345 1101.423)"><stop offset=".382" stop-color="#fff"/><stop offset=".559" stop-color="#f7f8f8"/><stop offset=".83" stop-color="#e2e3e4"/><stop offset="1" stop-color="#d1d3d4"/></linearGradient><path fill="url(#I)" d="M1276.4 1061.8l-103.9-22.5 80.5-250.1z"/><linearGradient id="J" gradientUnits="userSpaceOnUse" x1="575.934" y1="694.302" x2="738.071" y2="694.302" gradientTransform="rotate(83.425 1092.347 1101.423)"><stop offset="0" stop-color="#d1d3d4"/><stop offset=".16" stop-color="#e1e2e3"/><stop offset=".405" stop-color="#f2f2f2"/><stop offset=".673" stop-color="#fcfcfc"/><stop offset="1" stop-color="#fff"/></linearGradient><path fill="url(#J)" d="M1529.2 531.3l46.4 94-246 92.2z"/><linearGradient id="K" gradientUnits="userSpaceOnUse" x1="1125.348" y1="902.279" x2="1058.806" y2="665.17" gradientTransform="rotate(83.425 1092.345 1101.423)"><stop offset="0" stop-color="#d1d3d4"/><stop offset=".092" stop-color="#dcddde"/><stop offset=".306" stop-color="#eff0f0"/><stop offset=".524" stop-color="#fbfbfb"/><stop offset=".746" stop-color="#fff"/></linearGradient><path fill="url(#K)" d="M1325 1155.1l-48.3-93 245.3-98z"/><linearGradient id="L" gradientUnits="userSpaceOnUse" x1="737.961" y1="762.488" x2="1004.829" y2="762.488" gradientTransform="rotate(83.425 1092.347 1101.423)"><stop offset="0" stop-color="#d1d3d4"/><stop offset=".175" stop-color="#e4e5e6"/><stop offset=".386" stop-color="#f3f4f4"/><stop offset=".632" stop-color="#fcfcfc"/><stop offset="1" stop-color="#fff"/></linearGradient><path fill="url(#L)" d="M1305.1 889.5l24.6-172.2 10.1 154.8 182.2 91.7-217.3-74.3"/><linearGradient id="M" gradientUnits="userSpaceOnUse" x1="365.552" y1="583.622" x2="575.802" y2="583.622" gradientTransform="rotate(83.425 1092.347 1101.423)"><stop offset="0" stop-color="#d1d3d4"/><stop offset=".16" stop-color="#e1e2e3"/><stop offset=".405" stop-color="#f2f2f2"/><stop offset=".673" stop-color="#fcfcfc"/><stop offset="1" stop-color="#fff"/></linearGradient><path fill="url(#M)" d="M1589.3 312.6l-114.8 160.9 54.7 57.6 23-74.5z"/><linearGradient id="N" gradientUnits="userSpaceOnUse" x1="-314.999" y1="396.887" x2="-89.232" y2="396.887" gradientTransform="rotate(-128.691 1195.64 352.444)"><stop offset="0" stop-color="#d1d3d4"/><stop offset=".16" stop-color="#e1e2e3"/><stop offset=".405" stop-color="#f2f2f2"/><stop offset=".673" stop-color="#fcfcfc"/><stop offset="1" stop-color="#fff"/></linearGradient><path fill="url(#N)" d="M1987.1 1444.5l26.8-101.4 246 92.3z"/><linearGradient id="O" gradientUnits="userSpaceOnUse" x1="-88.499" y1="426.252" x2="184.939" y2="426.252" gradientTransform="rotate(-128.691 1195.64 352.444)"><stop offset=".382" stop-color="#fff"/><stop offset=".553" stop-color="#fafafa"/><stop offset=".762" stop-color="#ebecec"/><stop offset=".99" stop-color="#d2d4d5"/><stop offset="1" stop-color="#d1d3d4"/></linearGradient><path fill="url(#O)" d="M1848.9 1124.1l99.8-36.2 64.9 254.6z"/><linearGradient id="P" gradientUnits="userSpaceOnUse" x1="-313.315" y1="160.096" x2="-151.172" y2="160.096" gradientTransform="rotate(-128.691 1195.64 352.444)"><stop offset="0" stop-color="#d1d3d4"/><stop offset=".16" stop-color="#e1e2e3"/><stop offset=".405" stop-color="#f2f2f2"/><stop offset=".673" stop-color="#fcfcfc"/><stop offset="1" stop-color="#fff"/></linearGradient><path fill="url(#P)" d="M1916.8 1708l-89.3-55 159.3-208.8z"/><linearGradient id="Q" gradientUnits="userSpaceOnUse" x1="115.859" y1="252.272" x2="283.051" y2="252.272" gradientTransform="rotate(-128.691 1195.64 352.444)"><stop offset="0" stop-color="#d1d3d4"/><stop offset=".092" stop-color="#dcddde"/><stop offset=".306" stop-color="#eff0f0"/><stop offset=".524" stop-color="#fbfbfb"/><stop offset=".746" stop-color="#fff"/></linearGradient><path fill="url(#Q)" d="M1758.2 1071l90.4 53.1-155.7 213.4z"/><linearGradient id="R" gradientUnits="userSpaceOnUse" x1="-151.068" y1="228.47" x2="115.795" y2="228.47" gradientTransform="rotate(-128.691 1195.64 352.444)"><stop offset="0" stop-color="#d1d3d4"/><stop offset=".175" stop-color="#e4e5e6"/><stop offset=".386" stop-color="#f3f4f4"/><stop offset=".632" stop-color="#fcfcfc"/><stop offset="1" stop-color="#fff"/></linearGradient><path fill="url(#R)" d="M1916.1 1285.2l70.7 158.9-90.8-125.8-203.1 19.3 223.6-52.7"/><linearGradient id="S" gradientUnits="userSpaceOnUse" x1="-523.706" y1="49.145" x2="-377.079" y2="49.145" gradientTransform="rotate(-128.691 1195.64 352.444)"><stop offset="0" stop-color="#d1d3d4"/><stop offset=".16" stop-color="#e1e2e3"/><stop offset=".405" stop-color="#f2f2f2"/><stop offset=".673" stop-color="#fcfcfc"/><stop offset="1" stop-color="#fff"/></linearGradient><path fill="url(#S)" d="M1982.1 1925.2l11.4-196.9-56.3 55.2z"/><linearGradient id="T" gradientUnits="userSpaceOnUse" x1="956.268" y1="1053.591" x2="1182.033" y2="1053.591" gradientTransform="rotate(64.145 723.159 1550.705)"><stop offset="0" stop-color="#d1d3d4"/><stop offset=".16" stop-color="#e1e2e3"/><stop offset=".405" stop-color="#f2f2f2"/><stop offset=".673" stop-color="#fcfcfc"/><stop offset="1" stop-color="#fff"/></linearGradient><path fill="url(#T)" d="M1441.8 1643.1l-48.7 92.9-219.3-144.6z"/><linearGradient id="U" gradientUnits="userSpaceOnUse" x1="1120.464" y1="1010.419" x2="1468.586" y2="1093.831" gradientTransform="rotate(64.145 723.159 1550.705)"><stop offset=".587" stop-color="#fff"/><stop offset=".701" stop-color="#f9f9f9"/><stop offset=".854" stop-color="#e8e9e9"/><stop offset="1" stop-color="#d1d3d4"/></linearGradient><path fill="url(#U)" d="M1505.5 1985.9l-105.4 13.1-6.6-262.6z"/><linearGradient id="V" gradientUnits="userSpaceOnUse" x1="957.952" y1="816.77" x2="1120.072" y2="816.77" gradientTransform="rotate(64.145 723.159 1550.705)"><stop offset="0" stop-color="#d1d3d4"/><stop offset=".16" stop-color="#e1e2e3"/><stop offset=".405" stop-color="#f2f2f2"/><stop offset=".673" stop-color="#fcfcfc"/><stop offset="1" stop-color="#fff"/></linearGradient><path fill="url(#V)" d="M1568.9 1401.7l74.9 73.5-201.8 168.2z"/><linearGradient id="W" gradientUnits="userSpaceOnUse" x1="1387.142" y1="908.833" x2="1554.315" y2="908.833" gradientTransform="rotate(64.145 723.159 1550.705)"><stop offset="0" stop-color="#d1d3d4"/><stop offset=".092" stop-color="#dcddde"/><stop offset=".306" stop-color="#eff0f0"/><stop offset=".524" stop-color="#fbfbfb"/><stop offset=".746" stop-color="#fff"/></linearGradient><path fill="url(#W)" d="M1582.1 2058.1l-76.3-72 199.2-173.4z"/><linearGradient id="X" gradientUnits="userSpaceOnUse" x1="1120.102" y1="885.007" x2="1386.967" y2="885.007" gradientTransform="rotate(64.145 723.159 1550.705)"><stop offset="0" stop-color="#d1d3d4"/><stop offset=".175" stop-color="#e4e5e6"/><stop offset=".386" stop-color="#f3f4f4"/><stop offset=".632" stop-color="#fcfcfc"/><stop offset="1" stop-color="#fff"/></linearGradient><path fill="url(#X)" d="M1475.7 1814l-33.6-170.6 60.6 142.7 202.3 26.4-229.6 1.7"/><linearGradient id="Y" gradientUnits="userSpaceOnUse" x1="747.742" y1="706.017" x2="957.985" y2="706.017" gradientTransform="rotate(64.145 723.159 1550.705)"><stop offset="0" stop-color="#d1d3d4"/><stop offset=".16" stop-color="#e1e2e3"/><stop offset=".405" stop-color="#f2f2f2"/><stop offset=".673" stop-color="#fcfcfc"/><stop offset="1" stop-color="#fff"/></linearGradient><path fill="url(#Y)" d="M1553.6 1175.6l-55.2 189.7 70.6 36.4-2.9-77.9z"/><path fill="#BCBEC0" d="M967.3 1160.4c1.7-.2 2.9-1.7 2.7-3.4-.1-.7-.4-1.3-.9-1.8l60.8-69.9c.7.5 1.6.7 2.5.6 1-.1 1.9-.6 2.5-1.3l277.9 195.3c-.8 1.3-1.3 2.9-1.1 4.6.4 3.9 4 6.7 7.8 6.2 3.9-.4 6.7-4 6.2-7.8-.2-1.8-1.1-3.4-2.4-4.5l141.5-179.9c1.4 1.1 3.2 1.6 5.1 1.4 1.6-.2 3-.9 4.1-2l76.3 75c-.4.6-.7 1.2-.8 2-.1.8 0 1.5.4 2.3.4.9 1.2 1.6 2.1 1.9l-53 182.3c-.8-.2-1.7-.1-2.4.3-1.9.9-2.8 3.3-1.8 5.2.9 1.9 3.3 2.8 5.2 1.8.7-.3 1.2-.8 1.6-1.4l61.6 31.8c-.7 1.6-.8 3.5.1 5.3.6 1.1 1.4 2 2.4 2.6L1445 1636.7c-1.9-1-4.2-1.1-6.3-.1-2 1-3.3 2.7-3.7 4.7l-256.8-49.6c.1-.8 0-1.6-.4-2.4-1.1-2.2-3.7-3.1-5.9-2.1-2.2 1.1-3.1 3.7-2.1 5.9 1.1 2.2 3.7 3.1 5.9 2.1.6-.3 1.1-.7 1.5-1.3l209.8 138.3c-1.2 2-1.3 4.5-.3 6.7 1.2 2.5 3.8 4 6.5 4l6.4 252.5c-.4 0-.8.1-1.2.3-1.9.9-2.6 3.1-1.7 5 .9 1.9 3.1 2.6 5 1.7 1.4-.7 2.1-2 2.1-3.4l94.8-11.7c.1.4.3.8.5 1.2 1.7 3.5 5.9 5 9.4 3.3.6-.3 1.1-.7 1.6-1.1l68.7 64.7c-1.1 1.2-1.4 3-.6 4.5.8 1.7 2.7 2.6 4.4 2.2l34 112.6c-.2.1-.5.1-.7.3-1.4.7-2.5 1.8-3.2 3.2l-363.3-148.6c.4-1.3.4-2.8-.3-4.1-1.3-2.8-4.7-3.9-7.4-2.6-2.8 1.3-3.9 4.7-2.6 7.4.9 1.9 2.8 3 4.8 3.1l1 141.9c-.4 0-.8.1-1.1.3-1.5.7-2.2 2.6-1.4 4.1.7 1.5 2.6 2.2 4.1 1.4 1.5-.7 2.2-2.6 1.4-4.1-.3-.6-.9-1.1-1.5-1.4l34.4-86.1c.8.2 1.7.1 2.6-.3.9-.4 1.6-1.2 1.9-2.1l326.8 92.6c-.3 1.5-.2 3.1.5 4.7 1.7 3.5 5.9 5 9.4 3.3 3.5-1.7 5-5.9 3.3-9.4-.8-1.6-2.2-2.8-3.7-3.5l74.2-216.5c1.7.5 3.6.5 5.3-.3 1.5-.7 2.6-1.9 3.2-3.2l96.8 45.6c-.3.9-.2 1.9.2 2.8.9 1.9 3.3 2.8 5.2 1.8 1.9-.9 2.8-3.3 1.8-5.2-.9-1.9-3.3-2.8-5.2-1.8l-94.4-179.5c3.1-1.9 4.4-5.8 2.8-9.1-1.7-3.5-5.9-5-9.4-3.3-2.1 1-3.5 3-3.9 5.1l-191.5-25c0-.6-.1-1.3-.4-1.9-.9-1.8-2.9-2.6-4.7-2l-56.5-133c3.5-1.7 5-5.9 3.3-9.4l-.6-.9 193.3-161.2c1.1 1.1 2.9 1.5 4.4.7 1.9-.9 2.8-3.3 1.8-5.2-.9-1.9-3.1-2.7-5-1.9l-74.1-144.4c1.6-1.1 2.2-3.2 1.4-5-.7-1.4-2-2.2-3.5-2.2l-11.9-140.5c.3-.1.7-.2 1-.3.3-.1.6-.3.8-.5h.1l132 154.1c-2.6 2.5-3 6.6-.7 9.5 2.4 3 6.9 3.5 9.9 1.1 1.8-1.5 2.7-3.7 2.6-5.8l192.3-18.2c.1.6.3 1.2.7 1.7 1.2 1.5 3.4 1.8 5 .9l84.6 117.2c-3 2.4-3.5 6.9-1.1 9.9.2.3.5.5.7.8l-152.7 200.2c-1.4-.8-3.1-.8-4.5.3-1.7 1.3-2 3.8-.6 5.5 1.3 1.6 3.6 1.9 5.3.7l104.4 124.4c-1.3 1.4-1.5 3.6-.3 5.1 1 1.2 2.5 1.6 3.9 1.3l42.9 134.4c-.3.1-.7.3-.9.5-1.7 1.4-2 3.8-.6 5.5 1.3 1.7 3.8 2 5.5.6 1.7-1.4 2-3.8.6-5.5-.6-.8-1.5-1.2-2.5-1.4l11.2-189.6c.8 0 1.6-.2 2.3-.8 1.7-1.4 2-3.8.6-5.5-1.3-1.7-3.8-2-5.5-.6-.6.5-.9 1.1-1.2 1.8l-67.2-17.3c.3-1.7 0-3.6-1.2-5.1-.8-1-1.8-1.7-2.9-2l66.6-250.8c2.1.5 4.3.1 6.1-1.3 1.7-1.4 2.6-3.4 2.6-5.4l261.4-8.7c.1.8.4 1.6.9 2.3 1.5 1.9 4.3 2.2 6.2.7 1.9-1.5 2.2-4.3.7-6.2-1.5-1.9-4.3-2.2-6.2-.7-.5.4-.9 1-1.2 1.6l-235.2-88.2c.7-2.2.3-4.6-1.2-6.6-1.8-2.2-4.6-3.1-7.2-2.4l-62.3-244.7c.4-.1.8-.3 1.1-.6 1.6-1.3 1.9-3.6.6-5.2-1.3-1.6-3.6-1.9-5.3-.6-1.2.9-1.6 2.4-1.3 3.8l-89.8 32.5c-.2-.4-.4-.8-.7-1.1-2.4-3-6.9-3.5-9.9-1.1-.5.4-.9.9-1.3 1.4l-81.4-47.9c.8-1.4.7-3.2-.4-4.6-1.2-1.5-3.2-1.9-4.8-1.2L1698.6 965c.2-.1.4-.2.6-.4 1.3-1 2-2.3 2.4-3.8l387.2 64.2c-.1 1.4.2 2.8 1.2 4 1.9 2.4 5.4 2.8 7.8.9 2.4-1.9 2.8-5.4.9-7.8-1.3-1.7-3.4-2.3-5.3-2L2061 881.6c.4-.1.7-.3 1-.5 1.3-1.1 1.5-3 .5-4.3-1.1-1.3-3-1.5-4.3-.5-1.3 1.1-1.5 3-.5 4.3.5.6 1.1.9 1.7 1l-14.4 91.6c-.9 0-1.7.2-2.4.8-.8.6-1.2 1.5-1.4 2.4l-339.3-17.7c0-1.6-.5-3.1-1.5-4.4-2.4-3-6.9-3.5-9.9-1.1s-3.5 6.9-1.1 9.9c1.1 1.4 2.7 2.3 4.4 2.5l-24.2 227.6c-1.8-.2-3.6.3-5.1 1.5-1.3 1-2.1 2.4-2.4 3.9l-104.5-22.9c0-.5 0-1.1-.2-1.6-.5-1.8-2.3-2.9-4.2-2.7l-29.9-200.6c3.6-.7 6.1-4 5.6-7.7-.4-3.9-3.9-6.7-7.8-6.2-2.3.3-4.2 1.6-5.3 3.5l-172.5-86.8c.2-.6.3-1.2.3-1.9-.2-2-1.9-3.4-3.8-3.4l-9.4-144.2c3.9-.5 6.6-4 6.2-7.8 0-.4-.1-.7-.2-1l235.7-88.4c.7 1.4 2.3 2.3 3.9 2.2 2.1-.2 3.7-2.2 3.4-4.3-.2-2.1-2-3.5-4.1-3.4l-22.2-160.8c1.9-.5 3.2-2.3 2.9-4.2-.2-1.5-1.2-2.7-2.6-3.2l34.4-133.8c.5.2 1 .3 1.6.3h1.1l41.8 248.2c-1.5.4-2.7 1.8-2.9 3.5-.2 2.2 1.4 4 3.6 4.2 2.1.2 3.9-1.3 4.2-3.3l162.1 8.8c.1 1.9 1.6 3.5 3.6 3.7 1.5.1 2.9-.7 3.7-1.9l127.4 60.5c-.1.3-.2.7-.2 1-.2 2.2 1.4 4 3.6 4.2 2.2.2 4-1.4 4.2-3.6.2-2.2-1.4-4-3.6-4.2-1-.1-2 .3-2.7.8l-130.7-137.7c.5-.6.9-1.4 1-2.3.2-2.2-1.4-4-3.6-4.2-2.1-.2-4 1.4-4.2 3.6-.1.8.1 1.5.4 2.1l-58.5 37.2c-1-1.5-2.7-2.5-4.6-2.6-1.3-.1-2.5.2-3.5.8l-137.6-220c1.8-1.2 3-3.1 3.2-5.4.2-2.2-.7-4.2-2.1-5.6l172.2-196.8c.6.5 1.4.8 2.3.9 2.4.2 4.6-1.6 4.7-4.1.2-2.4-1.6-4.6-4.1-4.7-2.4-.2-4.6 1.6-4.7 4.1-.1.7.1 1.4.3 2l-225.2 111.5c-1.1-2-3.2-3.4-5.6-3.6-2.8-.2-5.4 1.3-6.7 3.6L1307 98.5c.2-.4.3-.8.3-1.2.2-2.1-1.4-3.9-3.4-4-2.1-.2-3.9 1.4-4 3.4-.1 1.5.7 2.8 1.9 3.5l-37.6 87.8c-.4-.1-.8-.2-1.3-.2-3.9-.3-7.3 2.6-7.6 6.5 0 .7 0 1.3.1 1.9l-90.5 26.7c-.5-1.5-1.9-2.7-3.6-2.8-1.9-.1-3.6 1-4.2 2.7l-114.4-27.4c0-.2.1-.5.1-.7.1-1.6-.3-3.1-1.1-4.3l311.4-238.9c.9 1 2.2 1.7 3.7 1.8 3.1.2 5.7-2 6-5.1.2-3.1-2.1-5.7-5.1-6-2.1-.2-4 .9-5.1 2.6l-123-70.6c.2-.3.3-.7.3-1.1.1-1.7-1.1-3.2-2.8-3.3-1.7-.1-3.2 1.1-3.3 2.8-.1 1.7 1.1 3.2 2.8 3.3.7.1 1.4-.2 1.9-.6l57 73c-.6.6-1 1.4-1.1 2.4-.1 1 .2 1.9.8 2.7L1040.5 189c-1.1-1.1-2.6-1.8-4.3-1.9-3.9-.3-7.3 2.6-7.6 6.5-.3 3.9 2.6 7.3 6.5 7.6 1.8.1 3.5-.4 4.9-1.5l149.6 173.2c-1.3 1.2-2.2 2.8-2.4 4.7-.1 1.6.3 3.2 1.2 4.4l-88.1 60.6c-.6-.7-1.5-1.2-2.6-1.3-2.2-.2-4 1.4-4.2 3.6-.2 2.2 1.4 4 3.6 4.2 2.2.2 4-1.4 4.2-3.6l202.7 8.9c0 3.6 2.8 6.7 6.5 7 3.9.3 7.3-2.6 7.6-6.5.2-2.3-.8-4.5-2.5-5.9l118.1-152.8c.5.3 1.1.6 1.8.6 2 .2 3.7-1.2 4.1-3.1L1583 312c-.2 2.2.7 4.2 2.2 5.6l-108.8 152.5c-.7-.4-1.5-.6-2.4-.5-2.1.2-3.7 2.2-3.4 4.3.2 2.1 2.2 3.7 4.3 3.4.7-.1 1.4-.4 2-.8l47.7 50.3c-1.2 1.3-1.9 3.1-1.7 5 .1 1.3.7 2.4 1.4 3.3l-189.7 177c-1.5-1.5-3.6-2.4-5.9-2.1-2.2.2-4 1.5-5.1 3.2l-226-131.6c.3-.7.5-1.5.4-2.4-.3-2.4-2.5-4.2-4.9-3.9-2.4.3-4.2 2.5-3.9 4.9.3 2.4 2.5 4.2 4.9 3.9.7-.1 1.3-.3 1.9-.7l152.3 199.8a7.49 7.49 0 0 0-2.5 6.2c.3 2.8 2.3 5 4.8 5.9l-77.3 240.4c-.4-.1-.8-.2-1.2-.1-2 .2-3.5 2.1-3.3 4.1.2 2.1 2.1 3.5 4.1 3.3 1.5-.2 2.7-1.2 3.1-2.5l93.3 20.2v1.3c.4 3.9 3.9 6.7 7.8 6.2.7-.1 1.3-.3 1.8-.5l43.5 83.8c-1.4.8-2.3 2.4-2.1 4.1.2 1.9 1.7 3.3 3.4 3.6l-5.1 117.5h-.8c-1.6.2-3 .9-4 1.9L1020 1018.4c.8-1.1 1.3-2.5 1.1-4-.3-3-3.1-5.2-6.2-4.9-3 .4-5.2 3.1-4.9 6.1.2 2.1 1.6 3.8 3.5 4.5l-45.9 134.2c-.4-.1-.8-.1-1.1-.1-1.7.2-2.9 1.7-2.7 3.4.3 1.8 1.9 3 3.5 2.8zm68.1-76.3c.4-.7.6-1.6.5-2.5-.3-2.1-2.2-3.7-4.3-3.4h-.2l-14-57.9c.9-.3 1.6-.8 2.2-1.4l293.8 260.2c-.1.1-.1.2-.2.2l-277.8-195.2zM1328.3 724l-23.1 161.7h-.6c-.5.1-1.1.2-1.5.5l-46.8-91.3c2.5-1.3 4-4.1 3.7-7-.2-1.4-.8-2.7-1.6-3.7l66.3-61.9c.9.8 2.2 1.5 3.6 1.7zm-74.4 71.6c.6-.1 1.2-.3 1.7-.5l46.8 91.4c-1 .8-1.5 2.1-1.3 3.4.2 1.4 1.1 2.6 2.4 3.1l-26.2 161.1h-1.1l-22.3-258.5zm24 258.8l26.2-161c.4.1.8.1 1.3.1 1.4-.2 2.5-1 3-2.1L1515 962c-.2.9-.3 1.8-.2 2.8.1.6.2 1.1.4 1.7l-232.2 92.7c-.6-2.6-2.7-4.3-5.1-4.8zm241-84.2l-47.5 116c-.9-.3-1.9-.4-3-.3-3.9.4-6.7 4-6.2 7.8.1.5.2.9.3 1.3l-134.3 58.1c-.1-.2-.2-.3-.3-.5L1517.3 969c.4.6 1 .9 1.6 1.2zM1325 1159.3c2.3-.3 3.9-2.3 3.6-4.6 0-.3-.1-.6-.2-.8l134.3-58.1c.4.9.9 1.7 1.6 2.3L1322.9 1278c-1-.7-2.1-1.2-3.4-1.3l5.1-117.4h.4zm177 207.4c.4-1 .4-2.1-.1-3.2l61.1-37.5c.7 1 1.8 1.5 2.9 1.6l2.5 67.8c-.7.1-1.5.2-2.1.6-1.2.6-2.1 1.4-2.7 2.5l-61.6-31.8zm139.3 105.4l-67.6-66.3c1.6-1.8 2.1-4.5.9-6.9-1.1-2.2-3.2-3.5-5.5-3.5l-2.5-67.8c.3 0 .7-.1 1-.3l74 144.4c0 .2-.2.3-.3.4zm-166.7 338.1c-.2.1-.4.1-.6.2-.5.2-.9.6-1.3 1l-74.3-70.7c1.9-2.1 2.5-5.2 1.2-7.9-.6-1.3-1.6-2.3-2.8-3l42.2-80.4c1.2.6 2.6.8 4 .6l31.6 160.2zm220.2 135.2c-3.5 1.7-5 5.9-3.3 9.4.2.4.4.8.7 1.2l-107.6 99.2c-.1-.1-.3-.2-.5-.4l118.1-235.8c.6.3 1.3.4 2 .5l-6.5 125.2c-.9 0-1.9.2-2.9.7zm3.8-129.9c.3.5.6 1 1 1.4l-188.5 164.2c-1.5-2-4-3-6.5-2.7l-28.4-160.6 1.2-.3c1.2-.6 2-1.8 2.2-3l218.4-1.6c0 .9.2 1.8.6 2.6zm-302.1-73.3c.5-.3 1-.6 1.4-1l74.4 70.8c-.6 1.1-.7 2.5-.1 3.7.6 1.3 1.9 2.1 3.3 2.2l28.4 160.7c-.4.1-.7.2-1.1.4l-106.3-236.8zm-218.7-148.8c.2-.3.3-.6.4-.9l256.8 49.6c-.2 1.3 0 2.8.6 4.1.6 1.3 1.6 2.3 2.8 3l-42.2 80.4c-1.9-.9-4-.9-6 0-1.1.5-1.9 1.3-2.6 2.2l-209.8-138.4zm218 149l106.3 236.8c-2.7 1.4-4.1 4.4-3.6 7.4l-94.8 11.7c-.1-.3-.1-.6-.2-.9-.6-1.2-1.8-1.9-3.1-2l-6.4-252.5c.7-.1 1.3-.2 1.8-.5zm114.8 247.8c1.9-2.1 2.5-5.2 1.2-7.9-.1-.2-.2-.4-.4-.6l188.6-164.2c.5.5 1 .8 1.6 1.2l-118.1 235.8c-1.1-.5-2.3-.5-3.5 0-.3.1-.5.3-.7.5l-68.7-64.8zm-264.9 185.2h-.1l-1-141.9c.7-.1 1.3-.2 1.9-.5.1-.1.2-.1.3-.2l32.3 50c-1.4 1.1-1.9 3.1-1.1 4.7.4.9 1.1 1.5 2 1.9l-34.3 86zm39.7-88.8c.2-.8.1-1.7-.3-2.5-.9-1.9-3.3-2.8-5.2-1.8-.1 0-.1.1-.2.1l-32.3-50c.7-.5 1.2-1.3 1.6-2l363.2 148.6c0 .1-.1.2-.1.3l-326.7-92.7zm335.5 88.1c-1.2-.3-2.4-.4-3.6-.1l-33.9-112.5c.1 0 .3-.1.4-.1 2-1 2.9-3.5 1.9-5.5-.1-.3-.3-.5-.5-.7l107.6-99.2c.7.7 1.4 1.3 2.3 1.7l-74.2 216.4zm180.4-174.9l-96.8-45.6c.6-1.7.6-3.7-.3-5.5-1.1-2.3-3.4-3.7-5.8-3.9l6.5-125.2c1 0 2-.2 3-.6l94.4 179.5c-.4.3-.7.7-1 1.3zM1698 1811.9v.2l-218.4 1.6c0-.5-.1-1-.4-1.5-.7-1.5-2.3-2.3-3.9-2.2l-31.6-160.2c.2-.1.4-.2.6-.2l56.5 133c-1.8 1-2.6 3.2-1.7 5.1.9 1.9 3.3 2.8 5.2 1.8 1.1-.5 1.8-1.5 2.1-2.7l191.6 25.1zm-250.7-173.4c-.5-.5-1-1-1.6-1.4l120.7-229.8c1.6.7 3.6.8 5.3 0 .6-.3 1-.6 1.5-1l67.6 66.3c-.9 1.1-1.2 2.7-.5 4.2.1.2.2.4.3.5l-193.3 161.2zm118.2-318.6c-.3.1-.7.2-1 .3-1.9.9-2.8 3.3-1.8 5.2l-61.1 37.5c-.4-.6-1-1-1.7-1.3l53-182.3c.2 0 .5.1.7.1l11.9 140.5zm107.9-114.1c3-2.4 3.5-6.9 1.1-9.9-.3-.4-.6-.7-1-1l82.9-120.6c.2.1.4.2.5.2l-62.8 256.2c-.7-.1-1.4-.1-2-.1l-21.4-123.5c.9-.2 1.8-.7 2.7-1.3zm311.1 232l-66.4-149.3.6-.3c.4-.3.8-.8 1-1.2l88.2 52.5c-1.4 2.4-1.3 5.6.6 7.9.9 1.1 2.1 1.9 3.4 2.3l-23.2 87.7c-1.5-.2-2.9-.1-4.2.4zm23.7-98.9l-88.3-52.6c.4-1.2.2-2.5-.6-3.6-.9-1.1-2.3-1.6-3.6-1.4l-63.4-150.4c.3-.2.7-.4 1-.6l156.3 207.2c-.7.5-1 .9-1.4 1.4zm-156.7-207.7l63.4 150.3c-.4.1-.8.3-1.1.6-1.1.9-1.5 2.1-1.4 3.4l-212.6 50.1c-.2-.9-.7-1.7-1.3-2.4-.4-.5-.8-.9-1.3-1.2l147.4-201.9c1.9 1.6 4.6 2 6.9 1.1zm-151.6 205.4v-.2l212.6-50.1c.1.5.4 1 .7 1.4 1.1 1.3 2.8 1.7 4.3 1.2l66.4 149.2c-.2.1-.4.2-.6.4l-84.6-117.1c1.6-1.4 1.8-3.7.5-5.4-1.4-1.7-3.8-2-5.5-.6-1 .8-1.4 1.9-1.4 3.1l-192.4 18.1zm212.1 375.2c1.5 1.9 3.9 2.7 6.2 2.2l17.5 65.6c-.3.1-.6.3-.9.5l-104.3-124.4c.1-.1.2-.3.3-.4l80.7 49.7c-1.3 2.1-1.2 4.8.5 6.8zm70 209.4c-.2 0-.5 0-.7.1l-42.9-134.4c.3-.1.7-.3.9-.5 1.7-1.4 2-3.8.6-5.5l51.3-50.2c.6.5 1.2.8 1.9.9l-11.1 189.6zm8-194.1c-.2 1.1.1 2.2.8 3.1l-51.3 50.2c-.9-.8-2-1.1-3.1-.9l-17.5-65.6c.7-.2 1.4-.6 2-1 1-.8 1.7-1.8 2-3l67.1 17.2zm-71.9-25.3c-1.8-.4-3.7 0-5.2 1.2-.5.4-.9.8-1.2 1.3l-80.6-49.6c.6-1.3.5-2.9-.4-4.2-.1-.2-.3-.3-.5-.4l152.7-200.2c.6.4 1.2.8 1.8 1l-66.6 250.9zm337.6-267.8c-.1.3-.1.7-.2 1l-261.4 8.7c-.1-1.4-.6-2.7-1.5-3.8-.9-1.1-2.1-1.9-3.4-2.3l23.2-87.7c2 .4 4.2 0 5.9-1.4.9-.7 1.6-1.7 2-2.7l235.4 88.2zm-310.3-344.5c.1.3.2.5.4.8.9 1.1 2.2 1.5 3.4 1.3l62.3 244.8c-.6.2-1.1.5-1.6.8L1853.7 1130c2.3-2 3-5.2 1.9-8l89.8-32.5zm-102.4 31.6c-1.4 2.4-1.3 5.6.6 7.9.1.2.3.3.5.5l-147.4 202.1c-.6-.3-1.2-.6-1.8-.8l62.8-256.1c1.2.2 2.4 0 3.4-.8l.6-.6 81.3 47.8zm217.1-239.4h.1l32.5 138.2c-.6.2-1.2.5-1.8.9l-.3.3-42.6-41.7c1.1-1.4 1.2-3.4 0-4.8-.6-.8-1.5-1.2-2.3-1.4l14.4-91.5zm-18.9 95.4c0 .8.2 1.7.8 2.4 1.4 1.7 3.8 2 5.5.6l.1-.1 42.6 41.6c-.6.7-.9 1.5-1.1 2.4l-387.2-64.2c0-.1 0-.2.1-.3l339.2 17.6zm-346.7-11.3c1.2.1 2.4-.2 3.6-.7l58.1 102.2c-.1.1-.2.1-.3.2-1.8 1.4-2.1 4-.6 5.8l.6.6-82.9 120.6c-.8-.5-1.7-.9-2.6-1.1l24.1-227.6zm-32.5 233.5c-.2 1.8.2 3.8 1.5 5.4 1.6 2 4.1 2.9 6.5 2.5l21.5 123.5c-1 .2-1.9.6-2.8 1.3l-132-154.1c.1-.1.2-.2.3-.4.2-.4.4-.8.5-1.2l104.5 23zm-111-26.9l-76.3-75c1.2-1.4 1.8-3.3 1.6-5.3-.3-2.6-2-4.7-4.2-5.6l47.5-116c.9.3 2 .5 3 .4l29.9 200.7c-.6.1-1.1.4-1.5.8zM1515.5 961c0 .1-.1.2-.1.2l-206.6-70.6c.1-.5.2-1 .1-1.5-.2-1.7-1.4-3-3-3.3l23.1-161.6h.7l9.4 144.2c-2.1.3-3.5 2.2-3.3 4.3.2 2.1 2.2 3.7 4.3 3.4 1.2-.1 2.2-.9 2.9-1.8l172.5 86.7zm15.8-435.7l20-64.8c.3.1.7.1 1.1.1l22.2 160.8c-.2 0-.4.1-.5.2l-41.9-84.9c2.1-1.2 3.4-3.6 3.1-6.2-.2-2.4-1.8-4.4-4-5.2zm21.5-72.5c-.3-.1-.7-.1-1.1 0-2.1.2-3.7 2.2-3.4 4.3l-70 15.2c-.2-.7-.6-1.3-1.2-1.8L1585.8 318c.4.3.9.6 1.5.8l-34.5 134zM1436.2 289c-2.2-.2-4 1.4-4.2 3.6-.1 1.2.4 2.4 1.2 3.2l-118.1 152.8c-.1-.1-.1-.1-.2-.1L1423.7 259c.4.2.9.4 1.5.4 1.7.1 3.2-.8 3.9-2.3l154.3 53.5c-.1.2-.1.4-.1.7L1439.8 293c.1-2.1-1.5-3.8-3.6-4zM1195 371h-1.4l-31.4-143c.2-.1.4-.1.6-.2L1307 448.7c-.5.4-1 .9-1.4 1.5l-104.8-68.7c.5-.9.8-1.8.9-2.9.1-3.9-2.8-7.3-6.7-7.6zm116.7 76.3c-.6 0-1.2 0-1.7.1l-46.8-245.6c2.5-.3 4.6-2 5.6-4.2l153.1 56.4c-.2.4-.3.8-.3 1.2-.1 1.4.5 2.6 1.5 3.4L1314.4 448c-.8-.4-1.7-.6-2.7-.7zm271.8-137.4l-154.3-53.5c0-.2.1-.4.1-.6 0-.6 0-1.1-.2-1.6l98.5-28.5c.8 2.7 3.2 4.7 6.2 5 1.4.1 2.8-.2 4-.9l48.2 76.9c-1.1.8-2 1.9-2.5 3.2zm-56-84.9l-98.7 28.6c-.6-1.1-1.8-1.9-3.1-2-1.4-.1-2.8.6-3.5 1.7l-153.1-56.5c.1-.4.2-.7.2-1.1l258.1 27.5c0 .7 0 1.3.1 1.8zm206.6 325.1c2.4.2 4.6-1.1 5.8-3l59.8 32c-.1.3-.2.7-.3 1l-162.1-8.8c0-.2 0-.4-.1-.5l91.3-25c.9 2.4 3 4.1 5.6 4.3zm200.6 91.9c-.2.2-.3.4-.4.6L1806.9 582c.1-.3.2-.7.2-1 .2-2.1-1.4-4-3.6-4.2l-1.6-71.7c.7-.1 1.4-.4 2-.8L1934.7 642zm-136.2-138.4c.6.8 1.6 1.4 2.8 1.5l1.6 71.7c-1.2.1-2.2.8-2.8 1.7l-59.8-32c.3-.7.5-1.4.6-2.1.1-1.3-.2-2.5-.8-3.5l58.4-37.3zm-67.6 35.2c-1.5 1-2.5 2.7-2.6 4.6-.1.6 0 1.2.1 1.8l-91.3 25c-.5-1.4-1.8-2.4-3.3-2.5h-.6l-41.8-248.2c.7-.1 1.4-.3 2-.7l137.5 220zm35.2-429.4c.2.3.4.6.6.8L1594.5 307c-1.1-.8-2.4-1.4-3.8-1.5-1.4-.1-2.8.2-4 .9l-48.2-76.9c1.7-1.2 2.8-3 3-5.2.1-1.2-.1-2.3-.6-3.3l225.2-111.6zm-463.6-8.9c.3.1.5.2.9.2 1.4.1 2.6-.6 3.3-1.6L1528 220.8c-.2.5-.4 1.1-.5 1.7L1269.4 195c.1-3.1-1.8-5.8-4.5-6.8l37.6-87.7zm-46.9 96.4c.8 2.7 3.2 4.8 6.2 5h.7l46.8 245.7c-.6.2-1.2.4-1.8.8l-144.1-220.9c.9-.7 1.6-1.8 1.7-3v-.9l90.5-26.7zm-26.4-322.2l123.2 70.6c-.3.6-.5 1.2-.5 1.9v.4l-59.5 2.7c-.3-1.8-1.7-3.2-3.6-3.3-1-.1-1.9.2-2.6.8l-57-73.1zm56.7 79.1c.6.6 1.4.9 2.3 1 2.2.2 4-1.4 4.2-3.6v-.2l59.5-2.7c.1.9.5 1.7 1 2.4l-311.4 238.9c-.1-.1-.1-.2-.2-.3l244.6-235.5zm-245.2 245.3c.9-.8 1.6-1.9 1.9-3.1l114.3 27.4c0 .1-.1.3-.1.4-.2 2.3 1.5 4.2 3.8 4.4h.9l31.4 142.9c-.9.2-1.8.6-2.6 1.2l-149.6-173.2zm60.2 244l88.1-60.6c1.2 1.4 2.9 2.4 4.9 2.6 2.6.2 4.9-1 6.3-3l104.8 68.7c-.5.9-.8 1.8-.9 2.9l-202.7-8.9c0-.6-.2-1.2-.5-1.7zm376.6 33c.7-.8 1.1-1.9 1-3l70-15.2c.3 1.1 1.2 2 2.2 2.5l-20.1 64.8c-.7-.2-1.4-.2-2.2-.2-1.3.1-2.4.7-3.3 1.4l-47.6-50.3zm47.3 59.6c1.3 1.2 3.1 1.9 5 1.7.6-.1 1.2-.3 1.7-.5l41.9 84.9c-1.2.8-2 2.2-1.8 3.8 0 .2.1.4.1.6L1336 714.6c-.3-.7-.6-1.3-1-1.8l189.8-177.1zM1096.6 583c.3-.2.5-.5.7-.8l226 131.6c-.6 1.2-.9 2.6-.7 4.1.2 1.4.8 2.7 1.6 3.7l-66.3 62c-1.5-1.4-3.5-2.2-5.7-2-1.2.1-2.3.6-3.2 1.2L1096.6 583zm79.6 456.8c0-.3.1-.6.1-.9-.2-1.4-1.1-2.4-2.2-2.9l77.3-240.5c.6.1 1.2.2 1.8.2l22.2 258.6c-3 .5-5.3 2.8-5.9 5.7l-93.3-20.2zm103.5 27.7c2.5-1.3 4.1-4.1 3.7-7 0-.2-.1-.4-.1-.7l232.3-92.8c.3.6.7 1.1 1.1 1.6l-189.3 183.6c-.9-.8-2-1.2-3.3-1.1-.3 0-.6.1-.9.2l-43.5-83.8zm-265.4-47c.6.2 1.3.2 2 .2.1 0 .3-.1.4-.1l14 57.9c-1.7.6-2.8 2.3-2.6 4.1.1 1 .6 1.8 1.3 2.4l-60.8 69.9s-.1 0-.1-.1l45.8-134.3z"/></g><g clip-path="url(#b)"><linearGradient id="Z" gradientUnits="userSpaceOnUse" x1="658.657" y1="1185.568" x2="792.433" y2="1185.568" gradientTransform="rotate(13.245 682.825 521.09)"><stop offset="0" stop-color="#d1d3d4"/><stop offset=".16" stop-color="#e1e2e3"/><stop offset=".405" stop-color="#f2f2f2"/><stop offset=".673" stop-color="#fcfcfc"/><stop offset="1" stop-color="#fff"/></linearGradient><path fill="url(#Z)" d="M616.2 1121.5l24.5 57.1-148.5 46.8z"/><linearGradient id="aa" gradientUnits="userSpaceOnUse" x1="792.82" y1="1202.853" x2="954.842" y2="1202.853" gradientTransform="rotate(13.245 682.825 521.09)"><stop offset=".382" stop-color="#fff"/><stop offset=".553" stop-color="#fafafa"/><stop offset=".762" stop-color="#ebecec"/><stop offset=".99" stop-color="#d2d4d5"/><stop offset="1" stop-color="#d1d3d4"/></linearGradient><path fill="url(#aa)" d="M797.7 1220.3l-33.4 53.4-123.2-95.1z"/><linearGradient id="ab" gradientUnits="userSpaceOnUse" x1="659.753" y1="1045.304" x2="755.823" y2="1045.304" gradientTransform="rotate(13.245 682.825 521.09)"><stop offset="0" stop-color="#d1d3d4"/><stop offset=".16" stop-color="#e1e2e3"/><stop offset=".405" stop-color="#f2f2f2"/><stop offset=".673" stop-color="#fcfcfc"/><stop offset="1" stop-color="#fff"/></linearGradient><path fill="url(#ab)" d="M552.8 972.9l61.7-6.9 2 155.6z"/><linearGradient id="ac" gradientUnits="userSpaceOnUse" x1="914.063" y1="1099.818" x2="1013.123" y2="1099.818" gradientTransform="rotate(13.245 682.825 521.09)"><stop offset="0" stop-color="#d1d3d4"/><stop offset=".092" stop-color="#dcddde"/><stop offset=".306" stop-color="#eff0f0"/><stop offset=".524" stop-color="#fbfbfb"/><stop offset=".746" stop-color="#fff"/></linearGradient><path fill="url(#ac)" d="M859.5 1212.1l-61.6 8.2-5.3-156.4z"/><linearGradient id="ad" gradientUnits="userSpaceOnUse" x1="755.736" y1="1085.647" x2="913.865" y2="1085.647" gradientTransform="rotate(13.245 682.825 521.09)"><stop offset="0" stop-color="#d1d3d4"/><stop offset=".175" stop-color="#e4e5e6"/><stop offset=".386" stop-color="#f3f4f4"/><stop offset=".632" stop-color="#fcfcfc"/><stop offset="1" stop-color="#fff"/></linearGradient><path fill="url(#ad)" d="M707.4 1169.7l-91-48.3 88.3 25.5 87.8-83.2-85.1 106.3"/><linearGradient id="ae" gradientUnits="userSpaceOnUse" x1="535.067" y1="979.668" x2="659.644" y2="979.668" gradientTransform="rotate(13.245 682.825 521.09)"><stop offset="0" stop-color="#d1d3d4"/><stop offset=".16" stop-color="#e1e2e3"/><stop offset=".405" stop-color="#f2f2f2"/><stop offset=".673" stop-color="#fcfcfc"/><stop offset="1" stop-color="#fff"/></linearGradient><path fill="url(#ae)" d="M442.9 895.4l66.7 96.3 43.1-18.8-36.9-27.8z"/><linearGradient id="af" gradientUnits="userSpaceOnUse" x1="-22.449" y1="625.943" x2="111.332" y2="625.943" gradientTransform="rotate(-87.742 620.667 354.39)"><stop offset="0" stop-color="#d1d3d4"/><stop offset=".16" stop-color="#e1e2e3"/><stop offset=".405" stop-color="#f2f2f2"/><stop offset=".673" stop-color="#fcfcfc"/><stop offset="1" stop-color="#fff"/></linearGradient><path fill="url(#af)" d="M805.8 908.4l51.3-35 74.3 136.8z"/><linearGradient id="ag" gradientUnits="userSpaceOnUse" x1="111.77" y1="643.138" x2="273.795" y2="643.138" gradientTransform="rotate(-87.742 620.667 354.39)"><stop offset=".382" stop-color="#fff"/><stop offset=".559" stop-color="#f7f8f8"/><stop offset=".83" stop-color="#e2e3e4"/><stop offset="1" stop-color="#d1d3d4"/></linearGradient><path fill="url(#ag)" d="M868.1 711.3l58.8 22.6L857 873z"/><linearGradient id="ah" gradientUnits="userSpaceOnUse" x1="-21.344" y1="485.477" x2="74.724" y2="485.477" gradientTransform="rotate(-87.742 620.667 354.39)"><stop offset="0" stop-color="#d1d3d4"/><stop offset=".16" stop-color="#e1e2e3"/><stop offset=".405" stop-color="#f2f2f2"/><stop offset=".673" stop-color="#fcfcfc"/><stop offset="1" stop-color="#fff"/></linearGradient><path fill="url(#ah)" d="M671.8 998.9l-18.6-59.3L805.6 908z"/><linearGradient id="ai" gradientUnits="userSpaceOnUse" x1="304.204" y1="608.725" x2="264.774" y2="468.227" gradientTransform="rotate(-87.742 620.667 354.39)"><stop offset="0" stop-color="#d1d3d4"/><stop offset=".092" stop-color="#dcddde"/><stop offset=".306" stop-color="#eff0f0"/><stop offset=".524" stop-color="#fbfbfb"/><stop offset=".746" stop-color="#fff"/></linearGradient><path fill="url(#ai)" d="M848.1 652.2l19.8 58.9-152.5 35z"/><linearGradient id="aj" gradientUnits="userSpaceOnUse" x1="74.658" y1="525.888" x2="232.796" y2="525.888" gradientTransform="rotate(-87.742 620.667 354.39)"><stop offset="0" stop-color="#d1d3d4"/><stop offset=".175" stop-color="#e4e5e6"/><stop offset=".386" stop-color="#f3f4f4"/><stop offset=".632" stop-color="#fcfcfc"/><stop offset="1" stop-color="#fff"/></linearGradient><path fill="url(#aj)" d="M835.6 809.5l-30.1 98.6 8.2-91.5-98.4-70.3 120.5 63.3"/><linearGradient id="ak" gradientUnits="userSpaceOnUse" x1="-146.005" y1="419.887" x2="-21.424" y2="419.887" gradientTransform="rotate(-87.742 620.667 354.39)"><stop offset="0" stop-color="#d1d3d4"/><stop offset=".16" stop-color="#e1e2e3"/><stop offset=".405" stop-color="#f2f2f2"/><stop offset=".673" stop-color="#fcfcfc"/><stop offset="1" stop-color="#fff"/></linearGradient><path fill="url(#ak)" d="M616.7 1121.5l81.8-83.8-26.7-38.7-20.3 41.5z"/><linearGradient id="al" gradientUnits="userSpaceOnUse" x1="572.803" y1="901.517" x2="706.574" y2="901.517" gradientTransform="rotate(60.145 935.9 471.752)"><stop offset="0" stop-color="#d1d3d4"/><stop offset=".16" stop-color="#e1e2e3"/><stop offset=".405" stop-color="#f2f2f2"/><stop offset=".673" stop-color="#fcfcfc"/><stop offset="1" stop-color="#fff"/></linearGradient><path fill="url(#al)" d="M486.8 422.5l-24.9 56.9L326.2 403z"/><linearGradient id="am" gradientUnits="userSpaceOnUse" x1="707.008" y1="918.913" x2="869.029" y2="918.913" gradientTransform="rotate(60.145 935.9 471.752)"><stop offset=".382" stop-color="#fff"/><stop offset=".553" stop-color="#fafafa"/><stop offset=".762" stop-color="#ebecec"/><stop offset=".99" stop-color="#d2d4d5"/><stop offset="1" stop-color="#d1d3d4"/></linearGradient><path fill="url(#am)" d="M538.6 622.7l-61.8 12.1-14.8-155z"/><linearGradient id="an" gradientUnits="userSpaceOnUse" x1="573.796" y1="761.212" x2="669.871" y2="761.212" gradientTransform="rotate(60.145 935.9 471.752)"><stop offset="0" stop-color="#d1d3d4"/><stop offset=".16" stop-color="#e1e2e3"/><stop offset=".405" stop-color="#f2f2f2"/><stop offset=".673" stop-color="#fcfcfc"/><stop offset="1" stop-color="#fff"/></linearGradient><path fill="url(#an)" d="M551.9 274.6l47.3 40.3-112.3 107.8z"/><linearGradient id="ao" gradientUnits="userSpaceOnUse" x1="828.094" y1="815.824" x2="927.163" y2="815.824" gradientTransform="rotate(60.145 935.9 471.752)"><stop offset="0" stop-color="#d1d3d4"/><stop offset=".092" stop-color="#dcddde"/><stop offset=".306" stop-color="#eff0f0"/><stop offset=".524" stop-color="#fbfbfb"/><stop offset=".746" stop-color="#fff"/></linearGradient><path fill="url(#ao)" d="M586.8 662l-48.1-39.3 110.6-110.8z"/><linearGradient id="ap" gradientUnits="userSpaceOnUse" x1="669.932" y1="801.723" x2="828.054" y2="801.723" gradientTransform="rotate(60.145 935.9 471.752)"><stop offset="0" stop-color="#d1d3d4"/><stop offset=".175" stop-color="#e4e5e6"/><stop offset=".386" stop-color="#f3f4f4"/><stop offset=".632" stop-color="#fcfcfc"/><stop offset="1" stop-color="#fff"/></linearGradient><path fill="url(#ap)" d="M513.9 522.2l-27-99.4 41.8 81.9 120.6 7.2-135.7 10.5"/><linearGradient id="aq" gradientUnits="userSpaceOnUse" x1="449.133" y1="695.474" x2="536.014" y2="695.474" gradientTransform="rotate(60.145 935.9 471.752)"><stop offset="0" stop-color="#d1d3d4"/><stop offset=".16" stop-color="#e1e2e3"/><stop offset=".405" stop-color="#f2f2f2"/><stop offset=".673" stop-color="#fcfcfc"/><stop offset="1" stop-color="#fff"/></linearGradient><path fill="url(#aq)" d="M533.5 141.5l-24.6 114.3 38-27.3z"/><linearGradient id="ar" gradientUnits="userSpaceOnUse" x1="123.996" y1="420.44" x2="257.775" y2="420.44" gradientTransform="rotate(-107.02 522.565 132.626)"><stop offset="0" stop-color="#d1d3d4"/><stop offset=".16" stop-color="#e1e2e3"/><stop offset=".405" stop-color="#f2f2f2"/><stop offset=".673" stop-color="#fcfcfc"/><stop offset="1" stop-color="#fff"/></linearGradient><path fill="url(#ar)" d="M824.2 355.8l36.9-49.9 115.3 104.6z"/><linearGradient id="as" gradientUnits="userSpaceOnUse" x1="221.292" y1="394.858" x2="427.574" y2="444.284" gradientTransform="rotate(-107.02 522.565 132.626)"><stop offset=".587" stop-color="#fff"/><stop offset=".701" stop-color="#f9f9f9"/><stop offset=".854" stop-color="#e8e9e9"/><stop offset="1" stop-color="#d1d3d4"/></linearGradient><path fill="url(#as)" d="M818 149.3l62.9 2-20 154.3z"/><linearGradient id="at" gradientUnits="userSpaceOnUse" x1="124.994" y1="280.11" x2="221.06" y2="280.11" gradientTransform="rotate(-107.02 522.565 132.626)"><stop offset="0" stop-color="#d1d3d4"/><stop offset=".16" stop-color="#e1e2e3"/><stop offset=".405" stop-color="#f2f2f2"/><stop offset=".673" stop-color="#fcfcfc"/><stop offset="1" stop-color="#fff"/></linearGradient><path fill="url(#at)" d="M727.7 485.6l-37.1-49.8 133.5-80.1z"/><linearGradient id="au" gradientUnits="userSpaceOnUse" x1="379.313" y1="334.663" x2="478.372" y2="334.663" gradientTransform="rotate(-107.02 522.565 132.626)"><stop offset="0" stop-color="#d1d3d4"/><stop offset=".092" stop-color="#dcddde"/><stop offset=".306" stop-color="#eff0f0"/><stop offset=".524" stop-color="#fbfbfb"/><stop offset=".746" stop-color="#fff"/></linearGradient><path fill="url(#au)" d="M779.8 100.1l38.1 49.1-132.4 83.4z"/><linearGradient id="av" gradientUnits="userSpaceOnUse" x1="221.078" y1="320.545" x2="379.21" y2="320.545" gradientTransform="rotate(-107.02 522.565 132.626)"><stop offset="0" stop-color="#d1d3d4"/><stop offset=".175" stop-color="#e4e5e6"/><stop offset=".386" stop-color="#f3f4f4"/><stop offset=".632" stop-color="#fcfcfc"/><stop offset="1" stop-color="#fff"/></linearGradient><path fill="url(#av)" d="M819.8 252.7l4.2 102.9-22.5-89.1-116-33.8 134.6 19.9"/><linearGradient id="aw" gradientUnits="userSpaceOnUse" x1=".435" y1="214.483" x2="125.015" y2="214.483" gradientTransform="rotate(-107.02 522.565 132.626)"><stop offset="0" stop-color="#d1d3d4"/><stop offset=".16" stop-color="#e1e2e3"/><stop offset=".405" stop-color="#f2f2f2"/><stop offset=".673" stop-color="#fcfcfc"/><stop offset="1" stop-color="#fff"/></linearGradient><path fill="url(#aw)" d="M716.2 619.4l49.5-106.1-38-27.7-5.4 45.9z"/><path fill="#A7A9AC" d="M1058 681.6c-1 0-1.8.7-1.9 1.7 0 .4.1.8.4 1.1l-42 35.4c-.4-.3-.9-.6-1.4-.6-.6 0-1.1.2-1.6.5L866.5 580c.6-.7 1-1.6 1-2.6.1-2.3-1.7-4.3-4-4.3-2.3-.1-4.3 1.7-4.3 4 0 1.1.3 2.1 1 2.9L761 672.6c-.7-.8-1.7-1.2-2.9-1.3-1 0-1.9.3-2.6.8l-37.9-50.8c.3-.3.5-.7.6-1.1.1-.4.1-.9 0-1.4-.2-.6-.6-1-1-1.3l47.6-101.9c.5.2 1 .2 1.5 0 1.2-.4 1.9-1.7 1.5-2.9-.4-1.2-1.7-1.9-2.9-1.5-.4.1-.8.4-1.1.7l-33.2-24.2c.6-.9.8-2 .4-3.1-.2-.7-.6-1.3-1.2-1.8l91.6-123.5c1 .7 2.4 1 3.7.6 1.2-.4 2.2-1.3 2.6-2.4l145.8 52.4c-.1.5-.1 1 0 1.4.4 1.4 1.9 2.2 3.3 1.7 1.4-.4 2.2-1.9 1.7-3.3-.4-1.4-1.9-2.2-3.3-1.7-.4.1-.7.3-1 .6l-109.9-100c.9-1 1.2-2.5.8-3.9-.5-1.6-1.9-2.7-3.4-2.9l19.2-148.4c.2 0 .5 0 .7-.1 1.2-.4 1.8-1.6 1.5-2.8-.4-1.2-1.6-1.8-2.8-1.5-.9.3-1.4 1-1.5 1.8l-56.5-1.8c0-.3-.1-.5-.2-.8-.7-2.2-3-3.5-5.2-2.8-.4.1-.7.3-1 .5l-34.3-44.2c.7-.6 1.1-1.6.8-2.6-.3-1.1-1.3-1.7-2.4-1.7l-9.6-69c.1 0 .3 0 .4-.1.9-.3 1.6-.8 2.2-1.6L972 147c-.4.7-.5 1.6-.2 2.4.5 1.7 2.4 2.7 4.1 2.2 1.7-.5 2.7-2.4 2.2-4.1-.4-1.2-1.4-2-2.5-2.2l12.3-83.2c.2 0 .5 0 .7-.1 1-.3 1.5-1.3 1.2-2.3-.3-1-1.3-1.5-2.3-1.2-1 .3-1.5 1.3-1.2 2.3.1.4.4.7.7.9L959 109c-.5-.2-1-.2-1.5-.1-.6.2-1 .6-1.3 1l-182.9-84c.3-.9.4-1.8.1-2.8-.7-2.2-3-3.5-5.2-2.8-2.2.7-3.5 3-2.8 5.2.3 1 1 1.9 1.9 2.4l-63.1 120c-.9-.5-2-.6-3.1-.3-.9.3-1.7.9-2.2 1.6l-52.5-35.5c.2-.5.3-1.1.1-1.7-.4-1.2-1.7-1.9-2.9-1.5-1.2.4-1.9 1.7-1.5 2.9.4 1.2 1.7 1.9 2.9 1.5l39 113.7c-2 .8-3.1 3-2.5 5.1.7 2.2 3 3.5 5.2 2.8 1.3-.4 2.3-1.4 2.7-2.6L799.2 266c-.1.4-.1.7 0 1.1.3 1.1 1.5 1.8 2.6 1.6l21 83c-2.2.7-3.4 3-2.8 5.2.1.2.2.4.2.6l-127.9 76.8c-.6-.8-1.6-1.1-2.5-.8-1.2.4-1.9 1.7-1.5 2.9.4 1.2 1.6 1.8 2.7 1.6l30.2 91.3c-1 .5-1.6 1.7-1.3 2.8.3.9 1 1.5 1.8 1.6l-5.8 83.4c-.2 0-.4 0-.6.1-.2.1-.4.1-.5.2l-63.3-102.2c1.8-1.2 2.4-3.6 1.3-5.5-1.2-2-3.7-2.7-5.7-1.5-1.2.7-1.9 1.9-2.1 3.2l-114.2-6.8c0-.4-.1-.7-.3-1.1-.6-1-1.8-1.4-2.9-1l-38.9-76.3c2-1.2 2.7-3.7 1.5-5.7-.1-.2-.2-.3-.4-.5l107.6-103.3c.7.6 1.8.8 2.6.3 1.1-.6 1.5-2.1.9-3.2s-1.9-1.4-3-.9l-49.8-82.4c.9-.7 1.2-1.9.6-3-.5-.8-1.3-1.2-2.2-1.1L534 143.8c.2-.1.4-.1.6-.2 1.1-.6 1.5-2.1.9-3.2s-2.1-1.5-3.2-.9-1.5 2.1-.9 3.2c.3.5.8.9 1.3 1l-23.8 110c-.5-.1-1 0-1.4.3-1.1.6-1.5 2.1-.9 3.2s2.1 1.5 3.2.9c.4-.2.6-.6.8-.9l37.8 16.2c-.4 1-.3 2.1.3 3.1.4.6.9 1.1 1.5 1.5l-61.8 140.8c-1.2-.5-2.5-.5-3.7.2-1.1.6-1.8 1.7-2 2.9l-153.8-18.7c0-.5-.1-1-.3-1.4-.7-1.3-2.3-1.7-3.6-1-1.3.7-1.7 2.3-1 3.6.7 1.3 2.3 1.7 3.6 1 .4-.2.6-.5.9-.8l129.7 73.1c-.6 1.2-.6 2.7.1 4 .8 1.5 2.4 2.2 4 2.1l14.2 149c-.2 0-.5.1-.7.2-1.1.6-1.4 2-.8 3 .6 1.1 2 1.4 3 .8.8-.4 1.2-1.3 1.1-2.1l55.5-10.9c.1.2.2.5.3.7 1.2 2 3.7 2.7 5.7 1.5.3-.2.6-.4.9-.7l43.3 35.4c-.6.8-.7 1.8-.2 2.7.6 1 1.7 1.4 2.7 1.1l24.7 65.1c-.1.1-.3.1-.4.2-.8.5-1.4 1.2-1.8 2L389 659.1c.2-.8.1-1.7-.3-2.4-.9-1.6-2.9-2.1-4.5-1.2-1.6.9-2.1 2.9-1.2 4.5.6 1.1 1.8 1.7 2.9 1.6l6.5 83.8c-.2 0-.4.1-.6.2-.9.5-1.2 1.6-.7 2.5.5.9 1.6 1.2 2.5.7.9-.5 1.2-1.6.7-2.5-.2-.4-.6-.6-.9-.8l16.8-52.3c.5.1 1 0 1.5-.2.5-.3.9-.8 1-1.3l197 41.2c-.1.9 0 1.9.5 2.7 1.1 2 3.7 2.7 5.7 1.5 2-1.2 2.7-3.7 1.5-5.7-.5-.9-1.4-1.6-2.4-1.9l34.9-131c1 .3 2.1.1 3.1-.4.8-.5 1.4-1.2 1.8-2.1l59.1 22.9c-.1.3-.1.6 0 .9.2 1.1 1.1 1.9 2.2 2l-.8 120.2c-2.2.1-3.9 1.8-4 4-.1 2.3 1.7 4.3 4 4.3 1.4.1 2.6-.6 3.4-1.6l93.1 66.5c-.2.3-.3.7-.3 1.1 0 1.2.8 2.2 1.9 2.4l-7.6 85.3c-2.3-.1-4.2 1.7-4.3 4v.6L655.4 939c-.3-.9-1.1-1.6-2.1-1.6-1.3-.1-2.4.9-2.4 2.2 0 1.2.9 2.3 2.1 2.4l-1.6 96.2c-1.1.1-2.1 1-2.1 2.2 0 .9.5 1.7 1.2 2.1l-32.3 75.2c-.3-.1-.6-.3-.9-.3-.2 0-.4-.1-.6-.1l-1.9-149.2c.9-.1 1.8-.8 2-1.8.3-1.2-.5-2.5-1.7-2.8-1.2-.3-2.4.4-2.7 1.6l-94.1-19.9c.1-1.1-.6-2.2-1.8-2.5-.9-.2-1.8.1-2.3.8l-69.1-47c.1-.2.2-.4.2-.6.3-1.2-.5-2.5-1.7-2.8-1.2-.3-2.5.5-2.8 1.7-.3 1.2.5 2.5 1.7 2.8.6.1 1.2 0 1.7-.2l64 92.5c-.4.3-.7.7-.8 1.2-.3 1.2.5 2.5 1.7 2.8 1.2.3 2.5-.5 2.8-1.7.1-.4.1-.9-.1-1.3l37.6-16.5c.5.9 1.3 1.7 2.4 1.9.7.2 1.5.1 2.1-.1l60.6 141.3c-1.2.5-2.1 1.5-2.4 2.8-.3 1.3 0 2.5.7 3.5L494 1223.4c-.3-.3-.8-.6-1.3-.7-1.4-.3-2.8.5-3.2 1.9-.3 1.4.5 2.8 1.9 3.1 1.4.3 2.8-.5 3.2-1.9.1-.4.1-.8 0-1.2l142-44.8c.5 1.3 1.5 2.3 3 2.6 1.6.4 3.3-.3 4.2-1.5l118.5 91.4c-.1.2-.2.4-.3.7-.3 1.2.5 2.4 1.6 2.7 1.2.3 2.4-.5 2.7-1.6.2-.9-.1-1.7-.8-2.2l30-48c.2.1.5.2.7.3 2.3.5 4.5-.9 5-3.1.1-.4.1-.8.1-1.1l55.4-7.4c.2.9.9 1.8 1.8 2 1.1.3 2.2-.3 2.7-1.2l64.5 26.5c0 .1-.1.3-.1.4-.2.9-.1 1.8.3 2.6l-204.1 111.5c-.4-.7-1.1-1.2-2-1.4-1.8-.4-3.5.7-4 2.4-.4 1.8.7 3.5 2.4 4 1.2.3 2.4-.2 3.2-1l65.6 52.5-.3.6c-.2 1 .4 2 1.4 2.2 1 .2 2-.4 2.2-1.3.2-1-.4-2-1.3-2.2-.4-.1-.8 0-1.2.2l-26.7-48c.4-.3.7-.8.8-1.3.1-.6 0-1.2-.2-1.6l164.7-115.7c.6.7 1.4 1.3 2.3 1.5 2.3.5 4.5-.9 5-3.1s-.9-4.5-3.1-5c-1.1-.2-2.1-.1-3 .4l-71.8-115c.9-.6 1.6-1.5 1.8-2.6.2-.9.1-1.9-.3-2.7l57.1-27.5c.3.5.8.8 1.4 1 1.2.3 2.5-.5 2.8-1.7.3-1.2-.5-2.5-1.7-2.8-1.2-.3-2.5.5-2.8 1.7l-117.8-23.7c.3-2.1-1-4.2-3.2-4.7-2.3-.5-4.5.9-5 3.1-.3 1.4.1 2.7.9 3.7l-83 78.7c-.3-.2-.6-.4-1-.5-1.1-.3-2.3.4-2.7 1.4l-82.3-23.7c.3-1.3 0-2.5-.8-3.5l77.6-79.4c.4.3.8.5 1.4.5 1.3 0 2.4-.9 2.4-2.2.1-1.3-.9-2.4-2.2-2.4-.4 0-.9.1-1.2.3l-23.3-33.8c.8-.6 1.4-1.6 1.4-2.8 0-.7-.2-1.4-.5-2L802 910.6c.7 1 1.9 1.7 3.2 1.8 1.3.1 2.5-.5 3.3-1.4l120.4 97.6c-.3.4-.4.9-.5 1.4-.1 1.4 1.1 2.7 2.5 2.7 1.4.1 2.7-1.1 2.7-2.5.1-1.4-1.1-2.7-2.5-2.7-.4 0-.8.1-1.2.2l-71-130.9c1.2-.7 1.9-2 2-3.4.1-1.7-.9-3.2-2.3-3.9l67.2-133.7c.2.1.5.2.7.2 1.2 0 2.2-.9 2.3-2.1 0-1.2-.9-2.3-2.1-2.3-.9 0-1.7.5-2 1.2l-52.8-20.3c.1-.2.1-.5.1-.8.1-2.3-1.7-4.3-4-4.3-.4 0-.8 0-1.1.1l-17.8-53c.9-.3 1.6-1.2 1.6-2.2 0-1.1-.7-2.1-1.7-2.4l13.7-68.3c.1 0 .3.1.4.1.9 0 1.8-.3 2.5-.8L1014.2 760c-.6.6-1 1.3-1 2.2-.1 1.8 1.3 3.3 3.2 3.4 1.8.1 3.3-1.3 3.4-3.2 0-1.2-.6-2.4-1.6-2.9l39.1-74.4c.2.1.4.2.7.2 1 0 1.8-.7 1.9-1.7-.1-1.1-.9-1.9-1.9-2zm-46.7 38.6c-.3.4-.5.9-.5 1.4 0 1.3.9 2.4 2.2 2.4h.1l2.9 35.2c-.5.1-1 .3-1.4.6L866.2 580.6l.1-.1 145 139.7zM807 904.3l28.2-92.6c.1 0 .2 0 .4.1.3 0 .6 0 .9-.2l19.1 57.7c-1.6.6-2.7 2-2.8 3.8 0 .9.2 1.7.6 2.3l-44.5 30.2c-.5-.5-1.1-1-1.9-1.3zm50-35.1c-.4 0-.7 0-1 .1l-19.1-57.8c.6-.4 1.1-1.1 1.1-1.9 0-.9-.4-1.6-1.1-2l30-91.9c.2.1.4.1.7.1L857 869.2zm9.5-153.7l-30 91.9c-.2-.1-.5-.2-.7-.2-.8 0-1.5.4-2 1L719.2 748c.2-.5.4-1 .4-1.6 0-.4 0-.7-.1-1l144.4-33.2c.2 1.5 1.3 2.8 2.6 3.3zm-148.7 27.3l38.4-63.6c.5.3 1.1.4 1.7.5 2.3.1 4.3-1.7 4.3-4v-.8l84-21.8c0 .1.1.2.2.3l-127.6 90.3c-.4-.4-.7-.7-1-.9zm130.7-93c-1.3-.1-2.5 1-2.5 2.3v.5l-83.9 21.8c-.1-.6-.4-1.1-.7-1.5l99.2-92.5c.5.5 1.2.9 1.9 1.1l-13.7 68.3h-.3zm-84.8-137.6c-.3.5-.4 1.2-.2 1.9l-39.2 16.4c-.3-.6-.9-1-1.6-1.2l4.7-39.9c.4 0 .9 0 1.3-.1.7-.2 1.3-.6 1.8-1.2l33.2 24.1zm-71.9-74.4l33.5 45c-1.1.9-1.6 2.5-1.2 3.9.4 1.4 1.6 2.3 2.9 2.6l-4.7 39.9c-.2 0-.4 0-.6.1L691.5 438c.1-.1.2-.1.3-.2zM820.2 255c.1 0 .3 0 .4-.1.3-.1.6-.3.8-.5l37.1 48.2c-1.3 1-1.9 2.8-1.4 4.5.3.8.7 1.5 1.3 2l-32 43.2c-.7-.4-1.5-.7-2.3-.7l-3.9-96.6zm-116.7-99.2c2.2-.7 3.5-3 2.8-5.2-.1-.3-.2-.5-.3-.7l72-48.3c.1.1.2.2.2.3l-90.6 127.3c-.3-.2-.7-.4-1.1-.5l15.2-72.7c.6.1 1.2 0 1.8-.2zm-14 75.7c-.1-.3-.3-.6-.4-.9l125.3-79c.7 1.3 2.1 2.1 3.6 2.2l2 96.6c-.2 0-.5 0-.8.1-.8.2-1.3.8-1.5 1.6l-128-19c0-.5-.1-1.1-.2-1.6zM859.7 302c-.3.1-.6.3-.9.5l-37.1-48.2c.5-.6.6-1.4.4-2.1-.2-.8-.9-1.4-1.7-1.6l-2-96.7c.2 0 .4-.1.7-.1L859.7 302zm114.5 107c-.1.2-.2.3-.3.5l-145.8-52.4c.2-.8.2-1.6 0-2.4-.3-.8-.7-1.5-1.3-2l32-43.2c1 .7 2.3.9 3.5.5.7-.2 1.2-.6 1.7-1l110.2 100zM860.1 301.9l-40.7-148.3c1.7-.6 2.8-2.2 2.8-4l56.5 1.8c0 .2 0 .3.1.5.2.8.9 1.3 1.6 1.5l-19.3 148.4c-.3 0-.6 0-1 .1zm-44.6-155.6c-1.3 1-1.9 2.8-1.4 4.5 0 .1.1.3.2.4l-125.4 79c-.2-.3-.5-.6-.8-.8l90.6-127.3c.6.4 1.3.5 2 .3.2-.1.3-.1.5-.2l34.3 44.1zM987.4 62s.1 0 0 0l-12.3 83.2c-.4 0-.8 0-1.2.1-.1 0-.1.1-.2.1l-14.4-32.2c.9-.5 1.4-1.6 1.1-2.7-.2-.6-.5-1-1-1.3l28-47.2zm-31.3 48.4c-.2.5-.2 1-.1 1.5.4 1.2 1.7 1.9 2.9 1.5h.1l14.3 32.2c-.5.3-.8.6-1.1 1.1L773.1 26.6c0-.1.1-.1.1-.2l182.9 84zM767.7 28.3c.7.3 1.4.5 2.1.4l9.6 69h-.2c-1.3.4-2 1.8-1.6 3 .1.2.1.3.2.5l-72 48.3c-.3-.5-.7-.9-1.2-1.2l63.1-120zm-121.6 86l52.5 35.5c-.5 1-.7 2.1-.4 3.3.4 1.5 1.6 2.5 3 2.8L686 228.6c-.6-.1-1.2-.1-1.8.1l-39-113.7c.5-.2.7-.4.9-.7zm43.4 119.4v-.1l128 19c0 .3 0 .6.1.9.3 1 1.2 1.6 2.1 1.6l3.9 96.7c-.1 0-.3.1-.4.1l-21-83c1.2-.4 1.8-1.7 1.5-2.9-.4-1.2-1.7-1.9-2.9-1.5-.7.2-1.2.7-1.5 1.4l-109.8-32.2zm131 124.3c.2.4.5.7.8 1l-91.6 123.6c-.9-.6-2-.8-3.1-.5-.3.1-.7.3-.9.5l-33.5-45c.6-.6.9-1.5.7-2.4 0-.1-.1-.2-.1-.3L820.5 358zm-98.2 175.8c.2 0 .4 0 .6-.1 1.2-.4 1.9-1.7 1.5-2.9l39.2-16.4c.2.4.5.7.9.9l-47.6 101.9c-.1 0-.3-.1-.4-.1l5.8-83.3zm-73.5 57c-2 1.1-2.7 3.7-1.5 5.7.1.2.3.5.5.7l-59.5 63.1c-.1-.1-.2-.1-.3-.2l60-144.3c.4.1.8.2 1.2.2l1.3 74.3c-.6.1-1.2.2-1.7.5zM487.7 426.7l25.3 93.4c-.1 0-.2.1-.4.1-.3.2-.5.4-.7.6l-46.8-38.7c1-1.3 1.2-3.2.4-4.7-.4-.7-1-1.3-1.8-1.7l21.6-49.3c.8.4 1.6.4 2.4.3zm-22.9 55.7l46.9 38.8c-.3.7-.4 1.5 0 2.1.4.7 1.2 1.1 2 1.1l23.5 93.9-.6.3L464 483.1c.3-.2.6-.5.8-.7zm72.9 135.9l-23.4-93.8c.2 0 .5-.1.7-.2.7-.4 1.1-1.1 1.1-1.9l129.1-10c.1.5.2 1.1.5 1.5.2.3.4.6.6.8L541.6 619.6c-1-1.1-2.5-1.6-3.9-1.3zm107.4-106.5v.1l-129 10c0-.3-.1-.6-.3-.9-.5-.9-1.5-1.3-2.4-1.1l-25.3-93.4c.1 0 .2-.1.4-.2l38.9 76.3c-1 .7-1.4 2-.8 3.1.6 1.1 2.1 1.5 3.2.9.6-.4 1-1 1.1-1.7l114.2 6.9zm-90-239c-.7-1.3-2.1-1.9-3.4-1.8l-4.3-40c.2 0 .4-.1.6-.2l49.8 82.3c-.1.1-.2.1-.2.2l-42.7-36.4c.8-1.2 1-2.8.2-4.1zm-21.9-128.9h.4l12.9 82.6c-.2.1-.4.1-.6.2-1.1.6-1.5 2.1-.9 3.2l-34.6 24.7c-.3-.3-.6-.6-1-.7l23.8-110zm-22.3 112.9c.2-.6.2-1.3-.2-1.9l34.6-24.7c.5.5 1.1.8 1.8.8l4.3 40c-.4.1-.8.2-1.2.4-.7.4-1.2.9-1.5 1.6l-37.8-16.2zm39.7 21.3c1 .4 2.1.3 3.1-.2.3-.2.6-.4.8-.7l42.7 36.4c-.5.7-.6 1.7-.1 2.5.1.1.2.2.2.3L489.8 419.7c-.3-.3-.6-.6-1-.8l61.8-140.8zm-222 126.1c.1-.2.1-.4.2-.6l153.8 18.7c-.1.8.1 1.6.5 2.4.4.7 1 1.3 1.8 1.7l-21.6 49.3c-1.1-.4-2.4-.4-3.6.3-.6.4-1.1.8-1.4 1.4l-129.7-73.2zm150.3 230c0-.2-.1-.3-.2-.5-.4-.7-1.1-1.1-1.9-1.1l-14.2-149c.3-.1.7-.2 1-.3l72.6 135.6c-1.5 1-2.2 2.8-1.8 4.5l-55.5 10.8zm62.8-9.2c1-1.3 1.3-3.2.4-4.7-.1-.1-.2-.2-.2-.3l104.7-105c.3.2.6.5 1 .6l-60.1 144.3c-.7-.2-1.4-.2-2 .2-.2.1-.3.2-.4.3L541.7 625zM392.8 745.4l-6.5-83.9c.4-.1.8-.2 1.1-.4.1 0 .1-.1.2-.1l21.2 28.3c-.8.7-1 1.9-.5 2.8.3.5.7.8 1.3 1l-16.8 52.3zm19.8-54.2c.1-.5 0-1-.2-1.5-.6-1.1-2.1-1.5-3.2-.9l-.1.1-21.2-28.2c.4-.4.7-.8.9-1.3l220.9 72.8c0 .1 0 .1-.1.2l-197-41.2zm201.9 38.2c-.7-.1-1.4-.1-2.2.1l-24.7-65.1c.1 0 .1-.1.2-.1 1.2-.7 1.6-2.2.9-3.3-.1-.1-.2-.3-.3-.4l59.5-63.1c.4.4.9.7 1.4.9l-34.8 131zm40.4-133.7c.3-1.1.2-2.2-.4-3.3-.8-1.3-2.2-2.1-3.6-2.1l-1.3-74.3c.6 0 1.2-.2 1.7-.5l63.3 102.2-.2.2c-.2.2-.3.4-.4.6l-59.1-22.8zm62.5 25.8l37.9 50.8c-.8.7-1.4 1.8-1.4 3-.1 1.5.7 2.9 1.9 3.7l-38.4 63.6c-.5-.3-1.1-.5-1.7-.5l.8-120.2c.3-.1.6-.2.9-.4zm1.5 127l.1-.1 114.6 60.1c-.1.3-.2.6-.2.9 0 1 .6 1.9 1.4 2.2l-28.2 92.5c-.1 0-.3 0-.4-.1l7.6-85.3c1.2 0 2.3-1 2.3-2.2 0-1.3-.9-2.4-2.2-2.4-.7 0-1.4.3-1.8.8l-93.2-66.4zM670 1002.2l-17.6 36.1c-.2-.1-.4-.1-.6-.1l1.6-96.2h.3l16.8 53.5c-1.4.5-2.3 1.8-2.4 3.3-.1 1.4.7 2.7 1.9 3.4zm-19.2 40.5c.2.1.4.1.6.1 1.3 0 2.4-.9 2.4-2.2l42.4-2.5c.1.4.3.8.5 1.1l-77.5 79.4c-.2-.2-.5-.4-.8-.6l32.4-75.3zm53.4 106.5c1.2.3 2.5-.5 2.8-1.7.2-.7 0-1.4-.4-2l83-78.7.1.1-80.9 101c-.2-.2-.5-.3-.8-.4-1-.2-1.9.2-2.5 1l-85.5-45.3c.1-.1.1-.3.1-.4l82.3 23.7c-.2 1.2.6 2.4 1.8 2.7zm148.7-26c.3.1.5.1.8.1l5.4 86.6c-.1 0-.2 0-.3.1l-64.3-142.5c.4-.2.7-.4 1-.7l55.1 49.8c-.4.5-.6 1-.8 1.6-.6 2.2.8 4.4 3.1 5zm-61.4-55.3c.3.1.7.1 1 .1l5 148c-1.5 0-2.9.7-3.7 2l-84.5-47c.1-.2.2-.4.3-.7.2-.8-.1-1.6-.6-2.1l80.9-101c.5.3 1 .5 1.6.7zm-171.7 55.6l85.5 45.4c0 .1-.1.2-.1.4-.1.3-.1.6 0 .9l-60.3 7.7c-.2-1.7-1.5-3.1-3.2-3.5-.8-.2-1.7-.1-2.4.1l-21.2-49.4c.7-.3 1.3-.8 1.7-1.6zm25.1 54.8l60.4-7.7c.3.7.9 1.3 1.6 1.4.8.2 1.7-.1 2.2-.7l84.5 47c-.1.2-.2.4-.2.6l-148.6-39.6c.1-.3.1-.6.1-1zm-91.3-209.1c-1.4-.3-2.8.2-3.7 1.2l-32.1-24.2.3-.6 94.1 19.9v.3l-55.7 6.3c-.4-1.3-1.4-2.6-2.9-2.9zm-109.2-72l.3-.3 69.1 47c-.1.2-.2.4-.2.6-.3 1.2.5 2.5 1.7 2.8l-5.6 42.1c-.4 0-.9.1-1.2.3l-64.1-92.5zm67.2 93.4c-.3-.6-.8-1-1.5-1.1l5.6-42.1c.7 0 1.4-.3 1.8-.8l32.1 24.2c-.2.4-.4.8-.5 1.2-.2.7-.1 1.5.1 2.1l-37.6 16.5zm42.8-14.5c1-.5 1.7-1.3 2-2.5.1-.4.1-.7.1-1l55.8-6.3c.2.9.8 1.6 1.7 1.8h.4l1.9 149.1c-.4 0-.8.1-1.2.2l-60.7-141.3zm-59.7 248.3c-.1-.2-.2-.4-.3-.5l118.8-99.5c.5.6 1.3 1 2.1 1.2.8.2 1.7.1 2.4-.2l21.2 49.4c-1.1.5-1.9 1.5-2.2 2.8-.2.7-.1 1.4 0 2l-142 44.8zm270.6 47.4c-.2-.1-.3-.2-.5-.2-.8-.2-1.6.1-2.1.7l-118.5-91.4c.2-.3.3-.6.5-1l148.6 39.6c-.4 1.8.5 3.5 2 4.4l-30 47.9zm36.2-52.2c-.2-1.7-1.5-3.1-3.2-3.5-.1 0-.3 0-.4-.1l-5-148.1c.4 0 .8-.1 1.1-.3l64.3 142.4c-.6.3-1.1.9-1.3 1.6 0 .2-.1.3-.1.5l-55.4 7.5zm-13.8 191l-65.7-52.5c.2-.3.4-.7.5-1.1v-.2l35.1 3.8c0 1.1.7 2 1.8 2.3.6.1 1.1 0 1.6-.2l26.7 47.9zm-26-51.4c-.3-.4-.7-.7-1.3-.8-1.2-.3-2.5.5-2.8 1.7v.1l-35.1-3.8c0-.5-.1-1-.3-1.5l204.1-111.5c0 .1.1.1.1.2l-164.7 115.6zm165.9-121.4c-.6.4-1.1 1-1.4 1.6l-64.4-26.4c0-.1.1-.1.1-.2.3-1.3-.5-2.6-1.8-2.9-.2 0-.3-.1-.5-.1l-5.4-86.6c.6 0 1.1-.2 1.6-.4l71.8 115zm-13-148.3l-57.1 27.5c-.6-.9-1.5-1.7-2.6-2-1.5-.4-3 .2-4 1.2l-55.1-49.8c.4-.5.7-1 .8-1.6l117.9 23.7c-.2.3-.1.7.1 1zm-217.5-53.6c-.5.4-.8 1-.8 1.7l-42.4 2.5c-.1-.7-.5-1.3-1.1-1.6l17.6-36.1c.4.2.8.3 1.3.3.8 0 1.5-.2 2.1-.5l23.3 33.7zm-22.4-39.2c-.6-.8-1.6-1.4-2.8-1.5-.4 0-.7 0-1 .1l-16.8-53.5c.8-.3 1.4-1.1 1.4-2v-.4l146-30.3c.1.4.2.8.4 1.2l-127.2 86.4zm255.1 11.3c-.2.1-.3.2-.5.4L809 910.7c.5-.6.8-1.4.8-2.3 0-.9-.2-1.7-.6-2.3l44.5-30.2c.7 1 1.9 1.6 3.2 1.7.7 0 1.4-.1 2-.4l70.9 130.8zm-5-274.7c0 .2-.1.3-.1.5 0 .8.4 1.5 1 1.9l-67.2 133.8c-.3-.1-.7-.2-1-.3L868 715.8c1.8 0 3.4-1.2 4-2.8l52.8 20.3zm-58.1-25.7c-1.6.5-2.8 2-2.8 3.8v.4L719.4 745c-.1-.4-.3-.7-.5-1l127.6-90.3c.4.5 1.1.9 1.8.9h.5l17.9 53zm151.1 51.7c-.4-.2-.7-.3-1.2-.3h-.2l-2.9-35.2c1-.2 1.8-1.1 1.9-2.2 0-.6-.2-1.1-.5-1.5l42-35.4h.1l-39.2 74.6z"/></g></svg>