<svg id="subtle-lines" xmlns="http://www.w3.org/2000/svg" xmlns:xlink="http://www.w3.org/1999/xlink" viewBox="0 0 1440 1440"><defs><path id="SVGID_1_" d="M0 0h1440v1440H0z"/></defs><use xlink:href="#SVGID_1_" overflow="visible" fill="#F6F6F6"/><clipPath id="SVGID_2_"><use xlink:href="#SVGID_1_" overflow="visible"/></clipPath><g clip-path="url(#SVGID_2_)"><circle fill="#575756" cx="1170.7" cy="2318" r="5.3" opacity=".5"/><circle fill="#575756" cx="2510.4" cy="1721.3" r="5.8" opacity=".5"/><circle fill="#575756" cx="2551.7" cy="2191.9" r="5.9" opacity=".5"/><circle fill="#575756" cx="1773.4" cy="1506.5" r="6" opacity=".5"/><circle fill="#575756" cx="2518.2" cy="1276.6" r="6.5" opacity=".5"/><path fill="#575756" d="M1104.8 3150.6s-.1 0 0 0c-.4 0-.6-.3-.6-.7l65.9-832c0-.3.3-.6.7-.6.3 0 .6.3.6.7l-65.9 832c-.1.3-.4.6-.7.6z" opacity=".181"/><path fill="#575756" d="M2352.2 3644.9c-.2 0-.3-.1-.5-.2L1170.2 2318.4c-.2-.3-.2-.6 0-.9.3-.2.6-.2.9 0l1181.6 1326.3c.2.3.2.6 0 .9-.2.1-.3.2-.5.2z" opacity=".025"/><path fill="#575756" d="M832.4 3310h-.2c-.3-.1-.5-.5-.4-.8l338.3-991.4c.1-.3.5-.5.8-.4.3.1.5.5.4.8L833 3309.6c-.1.2-.4.4-.6.4z" opacity=".313"/><path fill="#575756" d="M623 5144.5h-.1c-.3-.1-.5-.4-.5-.7l547.7-2825.9c.1-.3.4-.5.7-.5.3.1.5.4.5.7L623.6 5144c-.1.3-.3.5-.6.5z" opacity=".01"/><path fill="#575756" d="M-587.2 3372.8c-.2 0-.4-.1-.5-.3-.2-.3-.1-.7.2-.8l1757.8-1054.2c.3-.2.7-.1.8.2.2.3.1.7-.2.8L-586.9 3372.7c-.1.1-.2.1-.3.1z" opacity=".242"/><path fill="#575756" d="M-490.8 3025.7c-.2 0-.5-.1-.6-.4-.1-.3 0-.7.3-.8l1661.4-707.1c.3-.1.7 0 .8.3.1.3 0 .7-.3.8l-1661.4 707.1c0 .1-.1.1-.2.1z" opacity=".337"/><path fill="#575756" d="M697.2 3545.9h-.2c-.3-.1-.5-.5-.4-.8L1170 2317.8c.1-.3.5-.4.8-.4.3.1.5.5.4.8L697.8 3545.5c-.1.2-.3.4-.6.4z" opacity=".429"/><path fill="#575756" d="M-5.5 3200.2c-.2 0-.4-.1-.5-.2-.2-.3-.2-.7.1-.9l1176.1-881.6c.3-.2.7-.1.9.1.2.3.2.7-.1.9L-5.1 3200c-.1.1-.2.2-.4.2z" opacity=".488"/><path fill="#575756" d="M-553.6 3003.5c-.2 0-.5-.2-.6-.4-.1-.3 0-.7.3-.8l1724.2-684.9c.3-.1.7 0 .8.3.1.3 0 .7-.3.8l-1724.2 684.9c0 .1-.1.1-.2.1z" opacity=".411"/><path fill="#575756" d="M-338.3 4342.8c-.1 0-.3 0-.4-.1-.3-.2-.3-.6-.1-.9l1509-2024.2c.2-.3.6-.3.9-.1.3.2.3.6.1.9l-1509 2024.2c-.1.1-.3.2-.5.2z" opacity=".247"/><path fill="#575756" d="M1200.5 5212.8c-.3 0-.6-.3-.6-.6L1170.1 2318c0-.3.3-.6.6-.6s.6.3.6.6l29.8 2894.2c0 .3-.3.6-.6.6z" opacity=".155"/><path fill="#575756" d="M565.9 5456.4h-.1c-.3-.1-.5-.4-.5-.7l604.8-3137.8c.1-.3.4-.5.7-.5.3.1.5.4.5.7L566.5 5455.9c-.1.3-.3.5-.6.5z" opacity=".121"/><path fill="#575756" d="M2393.8 2890.4c-.1 0-.2 0-.3-.1l-1223.1-571.8c-.3-.1-.4-.5-.3-.8.2-.3.5-.4.8-.3L2394 2889.2c.3.1.4.5.3.8 0 .2-.3.4-.5.4z" opacity=".5"/><path fill="#575756" d="M1169.1 5716.9c-.3 0-.6-.3-.6-.6L1170 2318c0-.3.3-.6.6-.6s.6.3.6.6l-1.5 3398.3c0 .3-.2.6-.6.6z" opacity=".07"/><path fill="#575756" d="M3473.7 2698.6h-.1l-2303-380c-.3-.1-.6-.4-.5-.7 0-.3.3-.5.6-.5h.1l2303 380c.3.1.6.4.5.7-.1.3-.3.5-.6.5z" opacity=".371"/><path fill="#575756" d="M4266.1 2724.3l-3095.6-405.7c-.3 0-.6-.4-.5-.7 0-.3.3-.5.6-.5h.1L4266.2 2723c.3 0 .6.4.5.7 0 .3-.3.6-.6.6z" opacity=".169"/><path fill="#575756" d="M2393.8 2890.4c-.1 0-.2 0-.3-.1L334.1 1876.7c-.3-.2-.4-.5-.3-.8.1-.3.5-.4.8-.3L2394 2889.2c.3.2.4.5.3.8 0 .2-.3.4-.5.4z" opacity=".329"/><path fill="#575756" d="M4183.1 3088.4h-.2l-3012.4-769.8c-.3-.1-.5-.4-.4-.7.1-.3.4-.5.7-.4l3012.4 769.8c.3.1.5.4.4.7 0 .2-.3.4-.5.4z" opacity=".173"/><path fill="#575756" d="M932.4 5520.8c-.1 0-.1 0 0 0-.4 0-.6-.3-.6-.7l238.3-3202.2c0-.3.3-.6.7-.6.3 0 .6.3.6.7L933 5520.2c-.1.3-.3.6-.6.6z" opacity=".127"/><path fill="#575756" d="M1170.7 2318.6c-.1 0-.2 0-.3-.1l-836.3-441.8c-.3-.2-.4-.5-.3-.8.2-.3.5-.4.8-.3l836.3 441.8c.3.2.4.5.3.8-.1.3-.3.4-.5.4z" opacity=".5"/><path fill="#575756" d="M3473.7 2698.6h-.2L334.3 1876.7c-.3-.1-.5-.4-.4-.7.1-.3.4-.6.7-.4l3139.2 821.8c.3.1.5.4.4.7 0 .3-.3.5-.5.5z" opacity=".106"/><path fill="#575756" d="M2393.8 2890.4h-.2L342.3 2291.2c-.3-.1-.5-.4-.4-.8.1-.3.4-.5.8-.4L2394 2889.2c.3.1.5.4.4.8-.1.2-.3.4-.6.4z" opacity=".318"/><path fill="#575756" d="M2393.8 2890.4h-.1l-2254-521.5c-.3-.1-.5-.4-.5-.7.1-.3.4-.5.7-.5l2254 521.5c.3.1.5.4.5.7-.1.3-.3.5-.6.5z" opacity=".26"/><path fill="#575756" d="M1170.7 2318.6l-828.2-27.4c-.3 0-.6-.3-.6-.6s.3-.6.6-.6l828.2 27.4c.3 0 .6.3.6.6s-.3.6-.6.6z" opacity=".5"/><path fill="#575756" d="M139.8 2368.8c-.3 0-.6-.3-.6-.6s.2-.6.6-.6l1030.8-50.3c.3 0 .6.3.6.6s-.2.6-.6.7l-1030.8 50.2z" opacity=".5"/><path fill="#575756" d="M3473.7 2698.6c-.1 0-.1 0 0 0L342.4 2291.2c-.3 0-.6-.4-.5-.7 0-.3.3-.7.7-.5l3131.2 407.4c.3 0 .6.4.5.7-.1.3-.3.5-.6.5z" opacity=".099"/><path fill="#575756" d="M2393.8 2890.4h-.2L-647.5 1773.1c-.3-.1-.5-.5-.4-.8.1-.3.5-.5.8-.4L2394 2889.2c.3.1.5.5.4.8-.1.2-.3.4-.6.4z" opacity=".018"/><path fill="#575756" d="M2393.8 2890.4h-.2l-2741-1178.8c-.3-.1-.5-.5-.3-.8.1-.3.5-.4.8-.3l2741 1178.8c.3.1.5.5.3.8-.1.1-.4.3-.6.3z" opacity=".068"/><path fill="#575756" d="M-728.9 2987.3c-.3 0-.5-.2-.6-.4-.1-.3 0-.7.4-.8l1899.6-668.8c.3-.1.7.1.8.4.1.3-.1.7-.4.8l-1899.5 668.8h-.3z" opacity=".325"/><path fill="#575756" d="M1170.7 2318.6h-.2l-1818-545.5c-.3-.1-.5-.4-.4-.8.1-.3.5-.5.8-.4l1818 545.5c.3.1.5.4.4.8-.1.2-.4.4-.6.4z" opacity=".353"/><path fill="#575756" d="M-885 4046.3c-.2 0-.4-.1-.5-.2-.2-.3-.2-.6.1-.9l2055.6-1727.7c.2-.2.6-.2.9.1.2.3.2.6-.1.9L-884.6 4046.2c-.1.1-.2.1-.4.1z" opacity=".176"/><path fill="#575756" d="M1170.7 2318.6h-.2l-1517.9-607.1c-.3-.1-.5-.5-.3-.8.1-.3.5-.5.8-.3L1171 2317.5c.3.1.5.5.3.8-.2.2-.4.3-.6.3z" opacity=".393"/><path fill="#575756" d="M2393.8 2890.4c-.4 0-.6-.3-.6-.7l116.5-1168.5c0-.3.3-.6.6-.6h.1c.3 0 .6.3.5.7l-116.5 1168.5c0 .3-.3.6-.6.6z" opacity=".374"/><path fill="#575756" d="M2393.8 2890.4h-.2c-.3-.1-.5-.5-.3-.8l541.3-1306.4c.1-.3.5-.5.8-.3.3.1.5.5.3.8L2394.4 2890c-.1.2-.4.4-.6.4z" opacity=".334"/><path fill="#575756" d="M2393.8 2890.4c-.1 0-.2 0-.3-.1-.3-.2-.4-.6-.2-.8l729.3-1189.9c.2-.3.6-.4.8-.2.3.2.4.6.2.8l-729.3 1189.9c-.1.2-.3.3-.5.3z" opacity=".341"/><path fill="#575756" d="M1170.7 2318.6c-.2 0-.5-.1-.6-.4-.1-.3 0-.7.3-.8l1339.7-596.7c.3-.2.7 0 .8.3.1.3 0 .7-.3.8l-1339.7 596.7c-.1.1-.1.1-.2.1z" opacity=".395"/><path fill="#575756" d="M1170.7 2318.6c-.2 0-.5-.1-.6-.4-.1-.3 0-.7.3-.8l1764.5-734.7c.3-.1.7 0 .8.3.1.3 0 .7-.3.8l-1764.5 734.7c-.1.1-.1.1-.2.1z" opacity=".312"/><path fill="#575756" d="M1170.7 2318.6c-.3 0-.5-.2-.6-.4-.1-.3.1-.7.4-.8L3123 1699.3c.3-.1.7.1.8.4.1.3-.1.7-.4.8l-1952.5 618.1h-.2z" opacity=".29"/><path fill="#575756" d="M3473.7 2698.6c-.2 0-.3-.1-.4-.2L2510 1721.7c-.2-.2-.2-.6 0-.9.2-.2.6-.2.9 0l963.3 976.7c.2.2.2.6 0 .9-.2.1-.4.2-.5.2z" opacity=".372"/><path fill="#575756" d="M2393.8 2890.4h-.1c-.3-.1-.5-.4-.5-.7l157.9-697.8c.1-.3.4-.5.7-.5.3.1.5.4.5.7l-157.9 697.8c-.1.3-.3.5-.6.5zM4266.1 2724.3c-.1 0-.2 0-.3-.1L2510.1 1721.8c-.3-.2-.4-.5-.2-.8.2-.3.6-.4.8-.2l1755.8 1002.4c.3.2.4.5.2.8-.1.2-.3.3-.6.3z" opacity=".297"/><path fill="#575756" d="M1170.7 2318.6c-.3 0-.6-.2-.6-.6 0-.3.2-.6.6-.7l1381-126c.3 0 .6.2.7.6 0 .3-.2.6-.6.7l-1381.1 126z" opacity=".299"/><path fill="#575756" d="M4183.1 3088.4c-.1 0-.3 0-.4-.1L2510 1721.8c-.3-.2-.3-.6-.1-.9.2-.3.6-.3.9-.1l1672.7 1366.5c.3.2.3.6.1.9-.2.1-.3.2-.5.2zM3473.7 2698.6c-.1 0-.2 0-.3-.1l-922-506c-.3-.2-.4-.5-.2-.8.2-.3.5-.4.8-.2l922 506c.3.2.4.5.2.8-.1.2-.3.3-.5.3z" opacity=".296"/><path fill="#575756" d="M334.4 1876.8c-.3 0-.6-.2-.6-.6 0-.3.2-.6.6-.7l2175.9-154.8c.3 0 .6.2.6.6 0 .3-.2.6-.6.7L334.4 1876.8c.1 0 0 0 0 0z" opacity=".378"/><path fill="#575756" d="M2393.8 2890.4c-.2 0-.5-.1-.6-.4l-620.4-1383.2c-.1-.3 0-.7.3-.8.3-.2.7 0 .8.3l620.4 1383.2c.1.3 0 .7-.3.8 0 .1-.1.1-.2.1z" opacity=".118"/><path fill="#575756" d="M334.4 1876.8c-.3 0-.6-.2-.6-.5s.2-.7.5-.7L2935 1582.8c.4 0 .6.2.7.5 0 .3-.2.6-.5.7L334.4 1876.8c.1 0 0 0 0 0z" opacity=".276"/><path fill="#575756" d="M334.4 1876.8c-.3 0-.6-.2-.6-.6 0-.3.2-.6.6-.7l2788.7-176.3c.3-.1.6.2.7.6 0 .3-.2.6-.6.7L334.4 1876.8z" opacity=".236"/><path fill="#575756" d="M1170.7 2318.6c-.1 0-.3 0-.4-.1-.3-.2-.3-.6-.1-.9l602.8-811.4c.2-.3.6-.3.9-.1.3.2.3.6.1.9l-602.8 811.4c-.2.1-.3.2-.5.2z" opacity=".237"/><path fill="#575756" d="M4266.1 2724.3h-.2l-1714.5-531.7c-.3-.1-.5-.4-.4-.8.1-.3.4-.5.8-.4l1714.5 531.7c.3.1.5.4.4.8 0 .2-.3.4-.6.4z" opacity=".241"/><path fill="#575756" d="M3473.7 2698.6c-.1 0-.2 0-.4-.1L1773.1 1507c-.3-.2-.3-.6-.2-.9.2-.3.6-.4.9-.2L3474 2697.5c.3.2.3.6.2.9-.2.1-.4.2-.5.2z" opacity=".073"/><path fill="#575756" d="M4183.1 3088.4c-.1 0-.2 0-.3-.1l-1631.4-895.8c-.3-.2-.4-.5-.2-.8.2-.3.5-.4.8-.2l1631.4 895.8c.3.2.4.5.3.8-.2.2-.4.3-.6.3z" opacity=".262"/><path fill="#575756" d="M342.5 2291.2c-.3 0-.5-.2-.6-.5-.1-.3.1-.7.4-.8l2167.9-569.3c.3-.1.7.1.7.4.1.3-.1.7-.4.8L342.7 2291.2h-.2z" opacity=".41"/><path fill="#575756" d="M2551.7 2192.6c-.1 0-.1 0 0 0L334.3 1876.8c-.3 0-.6-.4-.5-.7 0-.3.4-.6.7-.5l2217.3 315.8c.3 0 .6.4.5.7-.1.2-.3.5-.6.5z" opacity=".301"/><path fill="#575756" d="M342.5 2291.2c-.3 0-.5-.2-.6-.5-.1-.3.1-.7.4-.8L2935 1582.7c.4-.1.7.1.8.4.1.3-.1.7-.4.8L342.7 2291.2h-.2z" opacity=".302"/><path fill="#575756" d="M342.5 2291.2c-.3 0-.5-.2-.6-.5-.1-.3.1-.7.5-.7L3123 1699.3c.4 0 .7.1.7.5.1.3-.1.7-.5.7L342.6 2291.2h-.1z" opacity=".266"/><path fill="#575756" d="M139.8 2368.8c-.3 0-.5-.2-.6-.5-.1-.3.1-.7.4-.8l2370.5-646.9c.3-.1.7.1.8.4.1.3-.1.7-.4.8L140 2368.8h-.2z" opacity=".368"/><path fill="#575756" d="M139.8 2368.8c-.3 0-.5-.2-.6-.4-.1-.3.1-.7.4-.8L2935 1582.7c.3-.1.7.1.8.4.1.3-.1.7-.4.8L140 2368.8h-.2z" opacity=".259"/><path fill="#575756" d="M139.8 2368.8c-.3 0-.5-.2-.6-.5-.1-.3.1-.7.5-.7L3123 1699.3c.4-.1.7.1.7.5.1.3-.1.7-.5.7L140 2368.8h-.2z" opacity=".222"/><path fill="#575756" d="M-728.9 2987.3c-.2 0-.5-.2-.6-.4-.1-.3 0-.7.4-.8l3239.2-1265.4c.3-.1.7 0 .8.4.1.3 0 .7-.4.8L-728.7 2987.3h-.2z" opacity=".127"/><path fill="#575756" d="M-647.3 1773.1c-.3 0-.6-.3-.6-.6s.3-.6.6-.6l3157.7-51.2c.3 0 .6.3.6.6s-.3.6-.6.6l-3157.7 51.2z" opacity=".206"/><path fill="#575756" d="M334.4 1876.8c-.3 0-.5-.2-.6-.5-.1-.3.1-.7.4-.7l1439-369.6c.3-.1.7.1.7.4.1.3-.1.7-.4.7l-1439 369.6c0 .1 0 .1-.1.1z" opacity=".357"/><path fill="#575756" d="M2510.4 1721.9l-2857.6-10.4c-.3 0-.6-.3-.6-.6s.3-.6.6-.6l2857.6 10.4c.3 0 .6.3.6.6s-.3.6-.6.6z" opacity=".284"/><path fill="#575756" d="M342.5 2291.2c-.3 0-.6-.3-.6-.6s.2-.6.6-.6l2209.2-98.6c.4 0 .6.2.6.6 0 .3-.2.6-.6.6l-2209.2 98.6z" opacity=".372"/><path fill="#575756" d="M-728.9 2987.3c-.2 0-.5-.2-.6-.4-.1-.3 0-.7.4-.8l3664-1403.4c.3-.1.7 0 .8.4.1.3 0 .7-.4.8l-3664 1403.4h-.2z" opacity=".018"/><path fill="#575756" d="M-647.3 1773.1c-.3 0-.6-.3-.6-.6s.2-.6.6-.6l3582.5-189.2c.3 0 .6.3.6.6s-.2.6-.6.6l-3582.5 189.2z" opacity=".101"/><path fill="#575756" d="M-647.3 1773.1c-.3 0-.6-.3-.6-.6s.3-.6.6-.6l3770.5-72.7c.3 0 .6.3.6.6s-.3.6-.6.6l-3770.5 72.7z" opacity=".056"/><path fill="#575756" d="M-347.2 1711.5c-.3 0-.6-.3-.6-.6s.3-.6.6-.6l3282.3-127.6c.3 0 .6.3.6.6s-.3.6-.6.6l-3282.3 127.6z" opacity=".179"/><path fill="#575756" d="M-347.2 1711.5c-.3 0-.6-.3-.6-.6s.3-.6.6-.6l3470.3-11.1c.3 0 .6.3.6.6s-.3.6-.6.6l-3470.3 11.1z" opacity=".134"/><path fill="#575756" d="M139.8 2368.8c-.3 0-.6-.2-.6-.6 0-.3.2-.6.6-.7l2411.9-176.3c.4 0 .6.2.7.6 0 .3-.2.6-.6.7l-2412 176.3c.1 0 0 0 0 0z" opacity=".343"/><path fill="#575756" d="M342.5 2291.2c-.2 0-.4-.1-.5-.3-.2-.3-.1-.7.2-.8l1430.9-784c.3-.2.7-.1.8.2.2.3.1.7-.2.8l-1430.9 784c-.1.1-.2.1-.3.1z" opacity=".423"/><path fill="#575756" d="M-728.9 2987.3c-.3 0-.5-.2-.6-.5-.1-.3.1-.7.5-.7l3280.5-794.8c.3-.1.7.1.7.5.1.3-.1.7-.5.7l-3280.5 794.8h-.1z" opacity=".143"/><path fill="#575756" d="M2551.7 2192.6c-.1 0-.1 0 0 0l-3199.1-419.4c-.3 0-.6-.4-.5-.7 0-.3.3-.5.6-.5h.1l3199 419.4c.3 0 .6.4.5.7-.1.2-.3.5-.6.5z" opacity=".177"/><path fill="#575756" d="M-885 4046.3c-.2 0-.4-.1-.5-.3-.2-.3 0-.7.3-.8l3436.6-1853.8c.3-.2.7 0 .8.3.2.3 0 .7-.3.8L-884.7 4046.3h-.3z" opacity=".015"/><path fill="#575756" d="M2551.7 2192.6h-.1l-2898.9-481c-.3-.1-.6-.4-.5-.7 0-.3.3-.5.6-.5h.1l2898.9 481c.3.1.6.4.5.7-.1.2-.3.5-.6.5z" opacity=".252"/><path fill="#575756" d="M139.8 2368.8c-.2 0-.4-.1-.5-.3-.2-.3 0-.7.3-.8L1773.1 1506c.3-.2.7 0 .8.3.2.3 0 .7-.3.8L140.1 2368.8h-.3z" opacity=".409"/><path fill="#575756" d="M2510.4 1721.9c-.3 0-.5-.2-.6-.4-.1-.3.1-.7.4-.8l424.8-138c.3-.1.7.1.8.4.1.3-.1.7-.4.8l-424.8 138h-.2z" opacity=".5"/><path fill="#575756" d="M2510.4 1721.9c-.3 0-.6-.3-.6-.6s.3-.6.6-.6l612.8-21.4c.3 0 .6.3.6.6s-.3.6-.6.6l-612.8 21.4z" opacity=".5"/><path fill="#575756" d="M84.3 5138.6c-.1 0-.3 0-.4-.1-.3-.2-.3-.6-.1-.9l2467.3-2946c.2-.3.6-.3.9-.1.3.2.3.6.1.9L84.8 5138.4c-.1.1-.3.2-.5.2z" opacity=".033"/><path fill="#575756" d="M-728.9 2987.3c-.2 0-.4-.1-.5-.3-.2-.3-.1-.7.2-.8L1773.1 1506c.3-.2.7-.1.8.2.2.3.1.7-.2.8L-728.6 2987.3h-.3z" opacity=".225"/><path fill="#575756" d="M-647.3 1773.1c-.3 0-.6-.2-.6-.6 0-.3.2-.6.5-.7l2420.8-266c.3 0 .6.2.7.5 0 .3-.2.6-.5.7l-2420.9 266.1z" opacity=".328"/><path fill="#575756" d="M-885 4046.3c-.2 0-.3-.1-.4-.2-.2-.2-.2-.6 0-.9L1773 1506.1c.2-.2.6-.2.9 0 .2.2.2.6 0 .9L-884.5 4046.2c-.1.1-.3.1-.5.1z" opacity=".049"/><path fill="#575756" d="M334.4 1876.8c-.1 0-.3-.1-.4-.2-.3-.2-.3-.6-.1-.9l1842-2090.2c.2-.3.6-.3.9-.1.3.2.3.6.1.9l-1842 2090.3c-.1.1-.3.2-.5.2z" opacity=".024"/><path fill="#575756" d="M-347.2 1711.5c-.3 0-.6-.2-.6-.6 0-.3.2-.6.6-.7l2120.6-204.4h.1c.3 0 .6.2.6.6 0 .3-.2.6-.6.7l-2120.7 204.4z" opacity=".403"/><path fill="#575756" d="M2551.7 2192.6c-.3 0-.6-.2-.6-.6l-41.3-470.6c0-.3.2-.6.6-.7h.1c.3 0 .6.2.6.6l41.3 470.6c-.1.3-.3.6-.7.7z" opacity=".5"/><path fill="#575756" d="M2551.7 2192.6c-.1 0-.2 0-.3-.1-.3-.2-.4-.6-.2-.8l383.5-608.6c.2-.3.6-.4.8-.2.3.2.4.6.2.8l-383.5 608.6c-.1.2-.3.3-.5.3z" opacity=".5"/><path fill="#575756" d="M2551.7 2192.6c-.2 0-.3-.1-.5-.2-.2-.3-.2-.6.1-.9l571.5-492.1c.3-.2.6-.2.9.1.2.3.2.6-.1.9l-571.5 492.1c-.1 0-.3.1-.4.1zM2510.4 1721.9h-.2l-736.9-214.8c-.3-.1-.5-.4-.4-.8.1-.3.4-.5.8-.4l736.9 214.8c.3.1.5.4.4.8-.1.2-.4.4-.6.4z" opacity=".5"/><path fill="#575756" d="M342.5 2291.2c-.1 0-.3 0-.4-.1-.3-.2-.3-.6-.1-.9L2175.8-214.4c.2-.3.6-.3.9-.1.3.2.3.6.1.9L343 2290.9c-.1.2-.3.3-.5.3z" opacity=".047"/><path fill="#575756" d="M2935.1 1583.9l-1161.7-76.8c-.3 0-.6-.3-.6-.7 0-.4.3-.6.7-.6l1161.7 76.8c.3 0 .6.3.6.7-.1.4-.3.6-.7.6z" opacity=".5"/><path fill="#575756" d="M3123.1 1700.5l-1349.8-193.3c-.3 0-.6-.4-.5-.7 0-.3.4-.6.7-.5l1349.7 193.3c.3 0 .6.4.5.7 0 .2-.3.5-.6.5z" opacity=".5"/><path fill="#575756" d="M139.8 2368.8c-.1 0-.3 0-.4-.1-.3-.2-.3-.6-.1-.9L2175.8-214.4c.2-.3.6-.3.9-.1.3.2.3.6.1.9L140.3 2368.6c-.1.2-.3.2-.5.2z" opacity=".034"/><path fill="#575756" d="M342.5 2291.2c-.1 0-.2 0-.4-.1-.3-.2-.3-.6-.2-.9L1860 140.4c.2-.3.6-.3.9-.2.3.2.3.6.2.9L343 2290.9c-.1.2-.3.3-.5.3z" opacity=".047"/><path fill="#575756" d="M2551.7 2192.6c-.1 0-.3-.1-.4-.2L1773 1507c-.3-.2-.3-.6-.1-.9.2-.3.6-.3.9-.1l778.2 685.4c.3.2.3.6.1.9-.1.2-.3.3-.4.3z" opacity=".5"/><path fill="#575756" d="M139.8 2368.8c-.1 0-.3 0-.4-.1-.3-.2-.3-.6-.1-.9L1860.1 140.4c.2-.3.6-.3.9-.1.3.2.3.6.1.9L140.3 2368.6c-.1.2-.3.2-.5.2z" opacity=".045"/><path fill="#575756" d="M2510.4 1721.9c-.1 0-.3 0-.4-.1L684.1 374.4c-.3-.2-.3-.6-.1-.9.2-.3.6-.3.9-.1l1825.9 1347.4c.3.2.3.6.1.9-.2.1-.4.2-.5.2z" opacity=".314"/><path fill="#575756" d="M2935.1 1583.9c-.1 0-.2 0-.3-.1L684.2 374.4c-.3-.2-.4-.5-.3-.8.2-.3.6-.4.8-.3l2250.7 1209.4c.3.2.4.5.3.8-.1.3-.3.4-.6.4z" opacity=".266"/><path fill="#575756" d="M3123.1 1700.5c-.1 0-.2 0-.3-.1L684.2 374.4c-.3-.2-.4-.5-.2-.8.2-.3.5-.4.8-.2l2438.7 1326c.3.2.4.5.2.8-.1.2-.3.3-.6.3z" opacity=".219"/><path fill="#575756" d="M234.3 4789.7c-.1 0-.3-.1-.4-.2-.3-.2-.3-.6 0-.9l2317.4-2597.1c.2-.3.6-.3.9 0 .3.2.3.6 0 .9l-2317.5 2597c-.1.2-.3.3-.4.3z" opacity=".141"/><path fill="#575756" d="M2510.4 1721.9c-.3 0-.6-.2-.6-.5L2175.7-214c-.1-.3.2-.6.5-.7.4 0 .7.2.7.5l334 1935.4c.1.3-.2.6-.5.7z" opacity=".37"/><path fill="#575756" d="M2510.4 1721.9c-.1 0-.2 0-.3-.1L456.8 534.9c-.3-.2-.4-.5-.2-.8.2-.3.5-.4.8-.2l2053.3 1186.9c.3.2.4.5.2.8-.1.2-.3.3-.5.3z" opacity=".248"/><path fill="#575756" d="M2510.4 1721.9h-.2L107.9 970c-.3-.1-.5-.4-.4-.8.1-.3.5-.5.8-.4l2402.3 751.9c.3.1.5.4.4.8-.1.2-.4.4-.6.4z" opacity=".196"/><path fill="#575756" d="M2935.1 1583.9h-.2L456.8 534.9c-.3-.1-.5-.5-.3-.8.1-.3.5-.5.8-.3l2478.1 1049c.3.1.5.5.3.8-.1.2-.3.3-.6.3z" opacity=".197"/><path fill="#575756" d="M3123.1 1700.5c-.1 0-.2 0-.2-.1L456.8 534.9c-.3-.1-.4-.5-.3-.8.1-.3.5-.5.8-.3l2666.1 1165.5c.3.1.4.5.3.8-.1.2-.3.4-.6.4z" opacity=".153"/><path fill="#575756" d="M-347.2 1711.5c-.2 0-.5-.1-.6-.4-.1-.3 0-.7.3-.8L1950.3 687.7c.3-.2.7 0 .8.3.1.3 0 .7-.3.8L-347 1711.5h-.2z" opacity=".119"/><path fill="#575756" d="M2551.7 2192.6c-.2 0-.3-.1-.4-.2L684 374.3c-.2-.2-.2-.6 0-.9.2-.2.6-.2.9 0l1867.2 1818.1c.2.2.2.6 0 .9-.1.1-.3.2-.4.2z" opacity=".32"/><path fill="#575756" d="M234.3 4789.7c-.1 0-.2 0-.3-.1-.3-.1-.4-.5-.3-.8l1539.1-3282.5c.2-.3.5-.4.8-.3.3.1.4.5.3.8L234.8 4789.3c-.1.2-.3.4-.5.4z" opacity=".136"/><path fill="#575756" d="M2510.4 1721.9c-.2 0-.5-.1-.6-.4L1860 141c-.1-.3 0-.7.3-.8.3-.1.7 0 .8.3L2510.9 1721c.1.3 0 .7-.3.8-.1.1-.2.1-.2.1z" opacity=".319"/><path fill="#575756" d="M2551.7 2192.6c-.3 0-.6-.2-.6-.5L2175.7-214c0-.3.2-.6.5-.7.4-.1.7.2.7.5l375.4 2406c0 .4-.2.7-.6.8z" opacity=".358"/><path fill="#575756" d="M2935.1 1583.9c-.2 0-.4-.1-.5-.2L1860 141.2c-.2-.3-.1-.7.1-.9.3-.2.7-.1.9.1L2935.6 1583c.2.3.1.7-.1.9h-.4z" opacity=".314"/><path fill="#575756" d="M3123.1 1700.5c-.2 0-.4-.1-.5-.2L1860.1 141.2c-.2-.3-.2-.6.1-.9.2-.2.6-.2.9.1l1262.6 1559.1c.2.3.2.6-.1.9-.2 0-.3.1-.5.1z" opacity=".28"/><path fill="#575756" d="M2551.7 2192.6c-.1 0-.3 0-.4-.1L456.7 534.9c-.3-.2-.3-.6-.1-.9.2-.3.6-.3.9-.1l2094.6 1657.6c.3.2.3.6.1.9-.2.1-.3.2-.5.2z" opacity=".274"/><path fill="#575756" d="M2510.4 1721.9c-.2 0-.4-.1-.5-.3L1950 688.5c-.2-.3 0-.7.2-.8.3-.2.7 0 .8.2L2510.9 1721c.2.3 0 .7-.2.8-.1.1-.2.1-.3.1z" opacity=".332"/><path fill="#575756" d="M1773.4 1507.2c-.2 0-.3-.1-.4-.2L684 374.3c-.2-.2-.2-.6 0-.9.2-.3.6-.2.9 0l1089 1132.6c.2.2.2.6 0 .9-.2.2-.3.3-.5.3z" opacity=".5"/><path fill="#575756" d="M2551.7 2192.6c-.1 0-.2 0-.3-.1L107.8 969.9c-.3-.2-.4-.5-.3-.8.2-.3.5-.4.8-.3l2443.6 1222.6c.3.2.4.5.3.8-.1.2-.3.4-.5.4z" opacity=".242"/><path fill="#575756" d="M2935.1 1583.9c-.1 0-.3-.1-.4-.2l-984.6-895.1c-.2-.2-.3-.6 0-.9.2-.2.6-.3.9 0l984.6 895.1c.2.2.3.6 0 .9-.1.2-.3.2-.5.2z" opacity=".325"/><path fill="#575756" d="M3123.1 1700.5c-.1 0-.3 0-.4-.2L1950.1 688.7c-.3-.2-.3-.6-.1-.9.2-.3.6-.3.9-.1l1172.6 1011.6c.3.2.3.6.1.9-.1.2-.3.3-.5.3z" opacity=".296"/><path fill="#575756" d="M2510.4 1721.9c-.4 0-.6-.3-.6-.6l7.9-444.7c0-.3.3-.6.6-.6s.6.3.6.6l-7.9 444.7c0 .3-.3.6-.6.6z" opacity=".353"/><path fill="#575756" d="M2935.1 1583.9c-.1 0-.3 0-.4-.1l-416.9-306.7c-.3-.2-.3-.6-.1-.9.2-.3.6-.3.9-.1l416.9 306.7c.3.2.3.6.1.9-.1.2-.3.2-.5.2z" opacity=".359"/><path fill="#575756" d="M3123.1 1700.5c-.1 0-.2 0-.4-.1l-604.9-423.2c-.3-.2-.3-.6-.2-.9.2-.3.6-.3.9-.2l604.9 423.2c.3.2.3.6.2.9-.1.2-.3.3-.5.3z" opacity=".343"/><path fill="#575756" d="M2510.4 1721.9c-.3 0-.5-.2-.6-.5L2244 749.6c-.1-.3.1-.7.4-.8.3-.1.7.1.8.4L2511 1721c.1.3-.1.7-.4.8-.1.1-.2.1-.2.1z" opacity=".291"/><path fill="#575756" d="M1773.4 1507.2h-.1c-.3-.1-.5-.4-.5-.7l402.9-1720.6c.1-.3.4-.6.7-.5.3.1.5.4.5.7L1774 1506.7c0 .3-.3.5-.6.5z" opacity=".5"/><path fill="#575756" d="M2551.7 2192.6c-.3 0-.5-.2-.6-.4L1860 141c-.1-.3.1-.7.4-.8.4-.1.7.1.8.4l691.1 2051.2c.1.3-.1.7-.4.8h-.2z" opacity=".346"/><path fill="#575756" d="M1773.4 1507.2c-.1 0-.3 0-.4-.1L456.7 534.9c-.3-.2-.3-.6-.1-.9.2-.3.6-.3.9-.1L1773.8 1506c.3.2.3.6.1.9-.1.2-.3.3-.5.3z" opacity=".5"/><path fill="#575756" d="M2935.1 1583.9c-.2 0-.4-.1-.5-.2L2244 749.9c-.2-.3-.2-.7.1-.9.2-.2.6-.2.9.1l690.6 833.8c.2.3.2.6-.1.9-.1.1-.2.1-.4.1z" opacity=".294"/><path fill="#575756" d="M3123.1 1700.5c-.2 0-.3-.1-.4-.2L2244.1 750c-.2-.2-.2-.6 0-.9.2-.2.6-.2.9 0l878.6 950.3c.2.2.2.6 0 .9-.2.1-.3.2-.5.2z" opacity=".271"/><path fill="#575756" d="M1773.4 1507.2h-.2L107.9 970c-.3-.1-.5-.4-.4-.8.1-.3.5-.5.8-.4L1773.6 1506c.3.1.5.4.4.8-.1.2-.3.4-.6.4z" opacity=".499"/><path fill="#575756" d="M2551.7 2192.6c-.2 0-.5-.1-.6-.4L1949.9 688.5c-.1-.3 0-.7.3-.8.3-.1.7 0 .8.3l601.2 1503.7c.1.3 0 .7-.3.8-.1 0-.1.1-.2.1z" opacity=".394"/><path fill="#575756" d="M2551.7 2192.6c-.3 0-.6-.3-.6-.6l-33.4-915.3c0-.3.3-.6.6-.6s.6.3.6.6l33.4 915.3c0 .3-.3.5-.6.6z" opacity=".451"/><path fill="#575756" d="M1773.4 1507.2c-.4 0-.6-.3-.6-.7l87.1-1365.7c0-.4.2-.6.7-.6.3 0 .6.3.6.7L1774 1506.6c0 .3-.2.6-.6.6z" opacity=".5"/><path fill="#575756" d="M2551.7 2192.6c-.3 0-.5-.2-.6-.5L2243.9 749.7c-.1-.3.1-.7.5-.7.4-.1.7.1.7.5l307.2 1442.4c.1.3-.1.7-.5.7h-.1z" opacity=".366"/><path fill="#575756" d="M1773.4 1507.2h-.1c-.3-.1-.5-.4-.5-.7l177.1-818.3c.1-.3.4-.5.7-.5.3.1.5.4.5.7L1774 1506.7c0 .3-.3.5-.6.5z" opacity=".5"/><path fill="#575756" d="M1773.4 1507.2c-.3 0-.5-.2-.6-.4-.1-.3.1-.7.4-.8l744.8-229.9c.4-.1.7.1.8.4.1.3-.1.7-.4.8l-744.8 229.9c0-.1-.1 0-.2 0z" opacity=".5"/><path fill="#575756" d="M1773.4 1507.2c-.1 0-.2 0-.3-.1-.3-.2-.4-.6-.2-.8l471.1-757c.2-.3.5-.4.8-.2.3.2.4.6.2.8l-471.1 757c-.1.1-.3.3-.5.3z" opacity=".5"/><path fill="#575756" d="M1773.4 1507.2h-.1l-2491.7-499.5c-.3-.1-.6-.4-.5-.7.1-.3.4-.5.7-.5L1773.5 1506c.3.1.6.4.5.7 0 .3-.3.5-.6.5z" opacity=".241"/><path fill="#575756" d="M2551.7 2192.6c-.2 0-.5-.2-.6-.4l-981-2684.1c-.1-.3 0-.7.4-.8.3-.1.7 0 .8.4l981 2684.1c.1.3 0 .7-.4.8-.1-.1-.2 0-.2 0z" opacity=".019"/><path fill="#575756" d="M2518.2 1277.2c-.1 0-.2 0-.3-.1L684.2 374.4c-.3-.2-.4-.5-.3-.8.1-.3.5-.4.8-.3L2518.5 1276c.3.2.4.5.3.8-.1.3-.3.4-.6.4z" opacity=".491"/><path fill="#575756" d="M2518.2 1277.2c-.3 0-.5-.2-.6-.5L2175.7-213.9c-.1-.3.1-.7.5-.7.3-.1.7.1.7.5l341.9 1490.7c.1.3-.1.7-.5.7 0-.1 0-.1-.1-.1z" opacity=".5"/><path fill="#575756" d="M2518.2 1277.2h-.2L456.8 534.9c-.3-.1-.5-.5-.4-.8.1-.3.5-.5.8-.4L2518.4 1276c.3.1.5.5.4.8-.1.3-.3.4-.6.4z" opacity=".491"/><path fill="#575756" d="M1773.4 1507.2c-.3 0-.6-.2-.6-.6L1570-492.1c0-.3.2-.6.5-.7.4 0 .6.2.7.5L1774 1506.5c.1.3-.2.6-.6.7.1 0 .1 0 0 0z" opacity=".231"/><path fill="#575756" d="M2518.2 1277.2L108 970c-.3 0-.6-.4-.5-.7 0-.3.3-.5.6-.5h.1L2518.3 1276c.3 0 .6.4.5.7 0 .3-.3.5-.6.5z" opacity=".451"/><path fill="#575756" d="M-747.2 3894.6c-.1 0-.3 0-.4-.1-.3-.2-.3-.6-.1-.9L1950 687.9c.2-.3.6-.3.9-.1.3.2.3.6.1.9L-746.7 3894.4c-.1.1-.3.2-.5.2z" opacity=".07"/><path fill="#575756" d="M-747.2 3894.6c-.2 0-.4-.1-.5-.2-.2-.3-.2-.6.1-.9l3265.4-2617.4c.2-.2.6-.2.9.1.2.3.2.6-.1.9L-746.8 3894.5c-.1.1-.3.1-.4.1z" opacity=".075"/><path fill="#575756" d="M-1202.3 3176.8c-.2 0-.4-.1-.5-.2-.2-.3-.2-.7.1-.9L1950.1 687.8c.3-.2.7-.2.9.1.2.3.2.7-.1.9l-3152.8 2487.9c-.2 0-.3.1-.4.1z" opacity=".111"/><path fill="#575756" d="M2518.2 1277.2c-.2 0-.4-.1-.5-.3L1860 141.1c-.2-.3-.1-.7.2-.8.3-.2.7-.1.8.2l657.7 1135.8c.2.3.1.7-.2.8-.1.1-.2.1-.3.1z" opacity=".5"/><path fill="#575756" d="M-1202.3 3176.8c-.2 0-.4-.1-.5-.3-.2-.3 0-.7.3-.8L2518 1276.1c.3-.2.7 0 .8.3.2.3 0 .7-.3.8l-3720.6 1899.5c0 .1-.1.1-.2.1z" opacity=".08"/><path fill="#575756" d="M2518.2 1277.2c-.2 0-.3-.1-.4-.2l-567.7-588.4c-.2-.2-.2-.6 0-.9.2-.3.6-.2.9 0l567.7 588.4c.2.2.2.6 0 .9-.2.2-.3.2-.5.2z" opacity=".5"/><path fill="#575756" d="M-708 2576.3c-.2 0-.3-.1-.4-.2-.2-.2-.2-.6 0-.9L2175.9-214.5c.2-.2.6-.2.9 0 .2.2.2.6 0 .9L-707.6 2576.2c-.1.1-.3.1-.4.1z" opacity=".014"/><path fill="#575756" d="M-709.8 3046.7c-.1 0-.3-.1-.4-.2-.3-.2-.3-.6-.1-.9L1860.1 140.4c.2-.3.6-.3.9-.1.3.2.3.6.1.9L-709.3 3046.5c-.2.1-.3.2-.5.2z" opacity=".12"/><path fill="#575756" d="M-1202.3 3176.8c-.2 0-.4-.1-.5-.3-.2-.3-.1-.7.2-.9L2244.2 749c.3-.2.7-.1.9.2.2.3.1.7-.2.9L-1202 3176.7c-.1 0-.2.1-.3.1z" opacity=".075"/><path fill="#575756" d="M-709.8 3046.7c-.2 0-.3-.1-.5-.2-.2-.3-.2-.6 0-.9L1950.1 687.8c.3-.2.6-.2.9 0 .2.3.2.6 0 .9L-709.4 3046.6c-.1.1-.3.1-.4.1z" opacity=".207"/><path fill="#575756" d="M2518.2 1277.2c-.2 0-.4-.1-.5-.3L2244 749.8c-.2-.3 0-.7.3-.8.3-.2.7 0 .8.3l273.7 527.1c.2.3 0 .7-.3.8h-.3z" opacity=".5"/><path fill="#575756" d="M2518.2 1277.2l-3236.6-269.6c-.3 0-.6-.3-.6-.7 0-.3.3-.7.7-.6L2518.3 1276c.3 0 .6.3.6.7-.1.3-.3.5-.7.5z" opacity=".285"/><path fill="#575756" d="M-709.8 3046.7c-.2 0-.4-.1-.5-.3-.2-.3-.1-.7.2-.8l3228-1769.5c.3-.2.7-.1.8.2s.1.7-.2.8l-3228 1769.5c-.1.1-.2.1-.3.1z" opacity=".189"/><path fill="#575756" d="M-708 2576.3c-.2 0-.3-.1-.4-.2-.2-.2-.2-.6 0-.9L1860.1 140.3c.2-.2.6-.2.9 0 .2.2.2.6 0 .9l-2568.6 2435c-.1.1-.3.1-.4.1z" opacity=".167"/><path fill="#575756" d="M-709.8 3046.7c-.2 0-.4-.1-.5-.2-.2-.3-.2-.7.1-.9L2244.1 749c.3-.2.6-.2.9.1.2.3.2.7-.1.9L-709.4 3046.6c-.1.1-.3.1-.4.1z" opacity=".182"/><path fill="#575756" d="M-708 2576.3c-.2 0-.4-.1-.5-.3-.2-.3-.1-.7.2-.9L1950.1 687.7c.3-.2.7-.1.9.2.2.3.1.7-.2.9L-707.7 2576.2c-.1.1-.2.1-.3.1z" opacity=".248"/><path fill="#575756" d="M-1166.3 1479.8c-.3 0-.6-.3-.6-.6s.2-.6.6-.6L2518.2 1276c.3 0 .6.3.6.6s-.2.6-.6.6l-3684.5 202.6z" opacity=".179"/><path fill="#575756" d="M-708 2576.3c-.2 0-.5-.1-.6-.4-.1-.3 0-.7.3-.8L2518 1276c.3-.1.7 0 .8.3.1.3 0 .7-.3.8L-707.8 2576.3h-.2z" opacity=".216"/><path fill="#575756" d="M-1166.3 1479.8c-.3 0-.5-.2-.6-.5-.1-.3.1-.7.5-.7L2244.4 749c.4-.1.7.1.7.5.1.3-.1.7-.5.7l-3410.8 729.6h-.1z" opacity=".231"/><path fill="#575756" d="M-708 2576.3c-.2 0-.4-.1-.5-.3-.2-.3-.1-.7.2-.8L2244.2 749c.3-.2.7-.1.8.2.2.3.1.7-.2.8L-707.7 2576.2c-.1.1-.2.1-.3.1z" opacity=".229"/><path fill="#575756" d="M2518.2 1277.2c-.2 0-.4-.1-.5-.3L1570.1-491.9c-.2-.3 0-.7.3-.8.3-.2.7-.1.8.3l947.6 1768.8c.2.3 0 .7-.3.8h-.3z" opacity=".5"/><path fill="#575756" d="M-100.5 3378.8c-.2 0-.4-.1-.5-.2-.2-.3-.2-.6.1-.9l2618.7-2101.6c.2-.2.6-.2.9.1.2.3.2.6-.1.9L-100.1 3378.7c-.1.1-.3.1-.4.1z" opacity=".198"/><path fill="#575756" d="M2518.2 1277.2c-.2 0-.4-.1-.5-.3L1321.7-868c-.2-.3-.1-.7.2-.8.2-.2.7-.1.8.2l1196 2144.9c.2.3.1.7-.2.8-.1.1-.2.1-.3.1z" opacity=".34"/><path fill="#575756" d="M2518.2 1277.2c-.2 0-.5-.1-.6-.4L1605.3-986.8c-.1-.3 0-.7.3-.8.3-.1.7 0 .8.3l912.4 2263.6c.1.3 0 .7-.3.8-.1.1-.2.1-.3.1z" opacity=".318"/><path fill="#575756" d="M2518.2 1277.2h-.2c-.3-.1-.5-.5-.4-.8L2734.5 699c.1-.3.5-.5.8-.4.3.1.5.5.4.8l-216.9 577.3c-.1.4-.3.5-.6.5z" opacity=".496"/><path fill="#575756" d="M2518.2 1277.2c-.1 0-.3-.1-.4-.2L756.4-328.9c-.2-.2-.3-.6 0-.9.2-.2.6-.3.9 0l1761.5 1605.9c.2.2.3.6 0 .9-.2.2-.4.2-.6.2z" opacity=".282"/><path fill="#575756" d="M2518.2 1277.2c-.2 0-.4-.1-.5-.3-.2-.3-.1-.7.1-.9l366.9-261.9c.3-.2.7-.1.9.1.2.3.1.7-.1.9L2518.6 1277c-.1.2-.2.2-.4.2z" opacity=".409"/><path fill="#575756" d="M2518.2 1277.2c-.2 0-.4-.1-.5-.3L1764-101c-.2-.3-.1-.7.2-.8.3-.2.7-.1.8.2l753.7 1377.9c.2.3.1.7-.2.8-.1.1-.2.1-.3.1z" opacity=".309"/><path fill="#575756" d="M-1166.3 1479.8c-.3 0-.5-.2-.6-.5-.1-.3.1-.7.5-.7L2735 698.7c.3-.1.7.1.7.5s-.1.7-.5.7l-3901.4 779.9h-.1z" opacity=".138"/><path fill="#575756" d="M2885.2 1015.3l-3603.4-7.7c-.3 0-.6-.3-.6-.6s.3-.6.6-.6l3603.4 7.7c.3 0 .6.3.6.6s-.3.6-.6.6z" opacity=".119"/><path fill="#575756" d="M-708 2576.3c-.2 0-.4-.1-.5-.3-.2-.3-.1-.7.2-.8L2734.8 698.7c.3-.2.7-.1.8.2.2.3.1.7-.2.8L-707.7 2576.3h-.3z" opacity=".164"/><path fill="#575756" d="M2518.2 1277.2c-.3 0-.5-.2-.6-.4L1938.7-471.4c-.1-.3.1-.7.4-.8.3-.1.7.1.8.4l578.9 1748.2c.1.3-.1.7-.4.8h-.2z" opacity=".232"/><path fill="#575756" d="M-708 2576.3c-.2 0-.5-.1-.6-.4-.1-.3 0-.7.3-.8l3593.2-1561c.3-.1.7 0 .8.3.1.3 0 .7-.3.8l-3593.2 1561c-.1.1-.2.1-.2.1z" opacity=".138"/><path fill="#575756" d="M2518.2 1277.2c-.3 0-.6-.3-.6-.6l-32.8-894.5c0-.3.3-.6.6-.6s.6.3.6.6l32.8 894.5c.1.3-.2.6-.6.6z" opacity=".215"/><path fill="#575756" d="M2518.2 1277.2c-.2 0-.4-.1-.5-.2L996.7-621.2c-.2-.3-.2-.6.1-.9.3-.2.6-.2.9.1l1521 1898.2c.2.3.2.6-.1.9-.1.1-.2.1-.4.1z" opacity=".07"/><path fill="#575756" d="M-100.5 3378.8c-.2 0-.3-.1-.4-.2-.2-.2-.2-.6 0-.9l2835.6-2679c.2-.2.6-.2.9 0 .2.2.2.6 0 .9L-100 3378.6c-.2.2-.3.2-.5.2z" opacity=".21"/><path fill="#575756" d="M-100.5 3378.8c-.2 0-.4-.1-.5-.2-.2-.3-.2-.7.1-.9l2985.6-2363.5c.3-.2.7-.2.9.1.2.3.2.7-.1.9L-100.1 3378.7c-.1.1-.3.1-.4.1z" opacity=".216"/><path fill="#575756" d="M-100.5 3378.8c-.1 0-.2 0-.3-.1-.3-.2-.4-.5-.3-.8L1764-101.6c.2-.3.5-.4.8-.3.3.2.4.5.3.8l-1865 3479.5c-.2.3-.4.4-.6.4z" opacity=".183"/><path fill="#575756" d="M-708 2576.3c-.2 0-.4-.1-.5-.3-.2-.3-.1-.7.2-.9L2485.1 381.6c.3-.2.7-.1.9.2.2.3.1.7-.2.9L-707.7 2576.2c-.1.1-.2.1-.3.1z" opacity=".071"/><path fill="#575756" d="M-100.5 3378.8c-.1 0-.2 0-.3-.1-.3-.2-.4-.5-.3-.8L1938.8-471.9c.2-.3.5-.4.8-.3.3.2.4.5.3.8L-99.9 3378.5c-.2.2-.4.3-.6.3z" opacity=".095"/><path fill="#575756" d="M-674.3 2536.6c-.2 0-.4-.1-.5-.3-.2-.3 0-.7.3-.8L2734.8 698.7c.3-.2.7 0 .8.3.2.3 0 .7-.3.8L-674.1 2536.6h-.2z" opacity=".237"/><path fill="#575756" d="M-1014.5 2409.3c-.2 0-.5-.1-.6-.4-.1-.3 0-.7.3-.8L2734.9 698.7c.3-.2.7 0 .8.3.1.3 0 .7-.3.8l-3749.6 1709.4c-.2.1-.2.1-.3.1z" opacity=".188"/><path fill="#575756" d="M-100.5 3378.8c-.1 0-.3 0-.4-.2-.3-.2-.3-.6-.1-.9l2586-2996c.2-.3.6-.3.9-.1.3.2.3.6.1.9L-100 3378.6c-.1.2-.3.2-.5.2z" opacity=".138"/><path fill="#575756" d="M-674.3 2536.6c-.2 0-.5-.1-.6-.4-.1-.3 0-.7.3-.8l3559.5-1521.3c.3-.1.7 0 .8.3.1.3 0 .7-.3.8L-674.1 2536.6h-.2z" opacity=".249"/><path fill="#575756" d="M-1014.5 2409.3c-.3 0-.5-.2-.6-.4-.1-.3 0-.7.4-.8l3899.7-1394c.3-.1.7 0 .8.4.1.3 0 .7-.4.8l-3899.7 1394h-.2z" opacity=".198"/><path fill="#575756" d="M-547.4 2625.7c-.2 0-.4-.1-.5-.3-.2-.3-.1-.7.2-.8L2734.8 698.7c.3-.2.7-.1.8.2.2.3.1.7-.2.8L-547.1 2625.6c-.1.1-.2.1-.3.1z" opacity=".239"/><path fill="#575756" d="M-604.9 2460.3c-.2 0-.4-.1-.5-.3-.2-.3 0-.7.3-.8l3340-1760.4c.3-.2.7 0 .8.3.2.3 0 .7-.3.8l-3340 1760.4h-.3z" opacity=".225"/><path fill="#575756" d="M-547.4 2625.7c-.2 0-.4-.1-.6-.4-.1-.3 0-.7.3-.8l3432.6-1610.4c.3-.1.7 0 .8.3.1.3 0 .7-.3.8L-547.2 2625.6c-.1.1-.2.1-.2.1z" opacity=".269"/><path fill="#575756" d="M-884.5 1732.9c-.3 0-.5-.2-.6-.4-.1-.3.1-.7.4-.8L2735 698.7c.3-.1.7.1.8.4.1.3-.1.7-.4.8l-3619.6 1033h-.3z" opacity=".224"/><path fill="#575756" d="M2885.2 1015.3l-3165.3-3.3c-.3 0-.6-.3-.6-.6s.3-.6.6-.6l3165.3 3.3c.3 0 .6.3.6.6s-.3.6-.6.6z" opacity=".386"/><path fill="#575756" d="M-674.3 2536.6c-.2 0-.4-.1-.5-.3-.2-.3-.1-.7.2-.9L2485.1 381.6c.3-.2.7-.1.8.2s.1.7-.2.9L-674 2536.5c-.1.1-.2.1-.3.1z" opacity=".247"/><path fill="#575756" d="M-641.2 3706.2c-.2 0-.4-.1-.5-.2-.2-.3-.2-.7.1-.9l3526.4-2690.8c.3-.2.7-.1.9.1.2.3.2.7-.1.9L-640.8 3706c-.1.1-.3.2-.4.2z" opacity=".142"/><path fill="#575756" d="M-1014.5 2409.3c-.2 0-.4-.1-.5-.3-.2-.3-.1-.7.2-.8L2485.1 381.6c.3-.2.7-.1.8.2.2.3.1.7-.2.8l-3499.9 2026.6c-.1.1-.2.1-.3.1z" opacity=".212"/><path fill="#575756" d="M-604.9 2460.3c-.2 0-.5-.1-.6-.4-.1-.3 0-.7.3-.8l3490-1445c.3-.1.7 0 .8.3.1.3 0 .7-.3.8l-3490 1445c0 .1-.1.1-.2.1z" opacity=".262"/><path fill="#575756" d="M-884.5 1732.9c-.3 0-.5-.2-.6-.5-.1-.3.2-.7.5-.7L2885 1014.1c.3 0 .6.2.7.5.1.3-.2.7-.5.7l-3769.7 717.6c.1 0 0 0 0 0z" opacity=".249"/><path fill="#575756" d="M-422.2 3004.7c-.2 0-.4-.1-.5-.3-.2-.3-.1-.7.1-.9L2734.8 698.8c.3-.2.6-.2.9.1.2.3.1.7-.1.9L-421.8 3004.5c-.1.1-.2.2-.4.2z" opacity=".159"/><path fill="#575756" d="M-547.4 2625.7c-.2 0-.4-.1-.5-.2-.2-.3-.1-.7.1-.9L2485 381.6c.3-.2.7-.1.9.1.2.3.1.7-.1.9l-3032.9 2243c-.1.1-.2.1-.3.1z" opacity=".29"/><path fill="#575756" d="M-422.2 3004.7c-.2 0-.4-.1-.5-.3-.2-.3-.1-.7.2-.8l3307.3-1989.4c.3-.1.7-.1.8.2.2.3.1.7-.2.8L-421.8 3004.6c-.1 0-.3.1-.4.1z" opacity=".217"/><path fill="#575756" d="M-422.2 3004.7c-.1 0-.2 0-.4-.1-.3-.2-.3-.6-.2-.9L1764-101.6c.2-.3.6-.4.9-.2.3.2.3.6.2.9L-421.7 3004.4c-.1.2-.3.3-.5.3z" opacity=".239"/><path fill="#575756" d="M-641.2 3706.2c-.2 0-.3-.1-.4-.2-.2-.2-.3-.6 0-.9L2485 381.7c.2-.2.6-.2.9 0 .2.2.3.6 0 .9L-640.8 3706c-.1.1-.3.2-.4.2z" opacity=".151"/><path fill="#575756" d="M-604.9 2460.3c-.2 0-.4-.1-.5-.3-.2-.3-.1-.7.2-.9L2485.1 381.6c.3-.2.7-.1.9.2.2.3.1.7-.2.9L-604.5 2460.2c-.2.1-.3.1-.4.1z" opacity=".311"/><path fill="#575756" d="M-531.9 2263.1c-.2 0-.4-.1-.6-.4-.2-.3 0-.7.3-.8l3267-1563.3c.3-.2.7 0 .8.3.2.3 0 .7-.3.8L-531.7 2263c0 .1-.1.1-.2.1z" opacity=".125"/><path fill="#575756" d="M-884.5 1732.9c-.2 0-.5-.1-.6-.4-.1-.3 0-.7.3-.8l3370-1350.2c.3-.2.7 0 .8.3.1.3 0 .7-.3.8l-3370 1350.2c-.1.1-.1.1-.2.1z" opacity=".329"/><path fill="#575756" d="M-422.2 3004.7c-.1 0-.2 0-.3-.1-.3-.2-.4-.6-.2-.9L1938.8-472c.2-.3.6-.4.9-.2.3.2.4.6.2.9L-421.7 3004.4c-.1.2-.3.3-.5.3z" opacity=".194"/><path fill="#575756" d="M-577.5 1876.7c-.3 0-.5-.2-.6-.4-.1-.3 0-.7.4-.8L2734.9 698.7c.3-.1.7 0 .8.4.1.3 0 .7-.4.8L-577.3 1876.6s-.1.1-.2.1z" opacity=".119"/><path fill="#575756" d="M-305.9 2078.4c-.2 0-.5-.1-.6-.4-.1-.3 0-.7.3-.8l3041-1378.5c.3-.2.7 0 .8.3.1.3 0 .7-.3.8l-3041 1378.5c0 .1-.1.1-.2.1z" opacity=".115"/><path fill="#575756" d="M-531.9 2263.1c-.2 0-.5-.2-.6-.4-.1-.3 0-.7.4-.8l3417-1247.8c.3-.1.7 0 .8.4.1.3 0 .7-.4.8l-3417 1247.8h-.2z" opacity=".188"/><path fill="#575756" d="M-571.5 1441.8c-.3 0-.5-.2-.6-.5-.1-.3.1-.7.5-.7L2735 698.7c.3-.1.7.1.7.5.1.3-.1.7-.5.7l-3306.6 741.9c0-.1-.1 0-.1 0z" opacity=".101"/><path fill="#575756" d="M-422.2 3004.7c-.2 0-.3-.1-.5-.2-.2-.2-.2-.6 0-.9L2485 381.6c.2-.2.6-.2.9 0 .2.2.2.6 0 .9l-2907.7 2622c-.1.1-.2.2-.4.2z" opacity=".274"/><path fill="#575756" d="M-577.5 1876.7c-.3 0-.5-.2-.6-.5-.1-.3.1-.7.4-.8L2885 1014.1c.3-.1.7.1.8.4.1.3-.1.7-.4.8l-3462.6 861.4h-.3z" opacity=".18"/><path fill="#575756" d="M-305.9 2078.4c-.3 0-.5-.2-.6-.4-.1-.3.1-.7.4-.8l3191-1063.1c.3-.1.7.1.8.4.1.3-.1.7-.4.8l-3191 1063.1h-.2z" opacity=".184"/><path fill="#575756" d="M-571.5 1441.8c-.3 0-.6-.2-.6-.5s.2-.6.5-.7l3456.7-426.4h.1c.3 0 .6.2.6.5s-.2.6-.5.7l-3456.8 426.4z" opacity=".161"/><path fill="#575756" d="M2885.2 1015.3c-.1 0-.1 0 0 0l-3483-480.8c-.3 0-.6-.4-.5-.7 0-.3.3-.5.6-.5h.1l3483 480.8c.3 0 .6.4.5.7-.2.3-.4.5-.7.5z" opacity=".12"/><path fill="#575756" d="M-531.9 2263.1c-.2 0-.4-.1-.5-.3-.2-.3-.1-.7.2-.9L2485.1 381.6c.3-.2.7-.1.8.2.2.3.1.7-.2.8L-531.5 2263c-.1.1-.2.1-.4.1z" opacity=".303"/><path fill="#575756" d="M-577.5 1876.7c-.2 0-.4-.1-.6-.3-.2-.3 0-.7.3-.8L2485.1 381.5c.3-.2.7 0 .8.3.2.3 0 .7-.3.8l-3062.8 1494c-.1 0-.2.1-.3.1z" opacity=".314"/><path fill="#575756" d="M-305.9 2078.4c-.2 0-.4-.1-.5-.3-.2-.3-.1-.7.2-.8L2485.1 381.6c.3-.2.7-.1.9.2.2.3.1.7-.2.9L-305.6 2078.3c-.1.1-.2.1-.3.1z" opacity=".317"/><path fill="#575756" d="M2510.4 1721.3l424.7-138 188 116.6z" opacity=".5"/><path fill="#575756" d="M2510.4 1721.3l424.7-138 188 116.6z" opacity=".5"/><path fill="#575756" d="M2510.4 1721.3l424.7-138 188 116.6z" opacity=".5"/><path fill="#575756" d="M2551.7 2191.9l-41.3-470.6 424.7-138z" opacity=".5"/><path fill="#575756" d="M1773.4 1506.5l778.3 685.4-41.3-470.6z" opacity=".348"/><path fill="#575756" d="M1773.4 1506.5l778.3 685.4-41.3-470.6z" opacity=".348"/><path fill="#575756" d="M1773.4 1506.5l778.3 685.4 383.4-608.6z" opacity=".266"/><path fill="#575756" d="M1773.4 1506.5l778.3 685.4 571.4-492z" opacity=".223"/><path fill="#575756" d="M2518.2 1276.6L1860.5 140.8 457.1 534.4z" opacity=".018"/><path fill="#575756" d="M2518.2 1276.6l-567.7-588.4 225.8-902.3z" opacity=".258"/><path fill="#575756" d="M2244.5 749.5l273.7 527.1-567.7-588.4z" opacity=".5"/><path fill="#575756" d="M2244.5 749.5l273.7 527.1-567.7-588.4z" opacity=".5"/></g></svg>