<svg xmlns="http://www.w3.org/2000/svg"><symbol viewBox="0 0 50 41.5" id="bars"><title>bars</title> <path d="M0,0h50v8.4H0C0,8.4,0,0,0,0z M0,16.5h50v8.4H0C0,24.9,0,16.5,0,16.5z M0,33.1h50v8.4H0C0,41.5,0,33.1,0,33.1z"/> </symbol><symbol viewBox="0 0 24 24" id="designer"><title>designer</title> <g> <path d="M22.1,0.5H1.9C0.9,0.5,0,1.4,0,2.4v15.1c0,1,0.9,1.9,1.9,1.9h6.7l-0.9,2.8H6.9c-0.3,0-0.6,0.3-0.6,0.6
		c0,0.3,0.3,0.6,0.6,0.6h10.1c0.3,0,0.6-0.3,0.6-0.6c0-0.3-0.3-0.6-0.6-0.6h-0.8l-0.9-2.8h6.7c1,0,1.9-0.9,1.9-1.9V2.4
		C24,1.4,23.1,0.5,22.1,0.5z M1.9,1.7h20.2c0.4,0,0.7,0.3,0.7,0.7v11.8H1.2V2.4C1.2,2,1.5,1.7,1.9,1.7z M15,22.3H9l0.9-2.8h4.2
		L15,22.3z M22.1,18.3H1.9c-0.4,0-0.7-0.3-0.7-0.7v-2.2h21.6v2.2C22.8,17.9,22.5,18.3,22.1,18.3z"/> <path d="M12,16.3c-0.2,0-0.3,0.1-0.4,0.2c-0.1,0.1-0.2,0.3-0.2,0.4c0,0.2,0.1,0.3,0.2,0.4c0.1,0.1,0.3,0.2,0.4,0.2
		c0.2,0,0.3-0.1,0.4-0.2c0.1-0.1,0.2-0.3,0.2-0.4c0-0.2-0.1-0.3-0.2-0.4C12.3,16.4,12.2,16.3,12,16.3z"/> <path d="M3.1,6.8h17.7c0.3,0,0.6-0.3,0.6-0.6V3.7c0-0.3-0.3-0.6-0.6-0.6H3.1c-0.3,0-0.6,0.3-0.6,0.6v2.5C2.5,6.5,2.8,6.8,3.1,6.8z
		 M3.7,4.3h16.5v1.3H3.7V4.3z"/> <path d="M5,13.1c1.4,0,2.5-1.1,2.5-2.5c0-1.4-1.1-2.5-2.5-2.5c-1.4,0-2.5,1.1-2.5,2.5C2.5,12,3.7,13.1,5,13.1z M5,9.3
		c0.7,0,1.3,0.6,1.3,1.3c0,0.7-0.6,1.3-1.3,1.3c-0.7,0-1.3-0.6-1.3-1.3C3.7,9.9,4.3,9.3,5,9.3z"/> <path d="M12,8.1c-1.4,0-2.5,1.1-2.5,2.5c0,1.4,1.1,2.5,2.5,2.5s2.5-1.1,2.5-2.5C14.5,9.2,13.4,8.1,12,8.1z M12,11.9
		c-0.7,0-1.3-0.6-1.3-1.3c0-0.7,0.6-1.3,1.3-1.3c0.7,0,1.3,0.6,1.3,1.3C13.3,11.3,12.7,11.9,12,11.9z"/> <path d="M19,8.1c-1.4,0-2.5,1.1-2.5,2.5c0,1.4,1.1,2.5,2.5,2.5c1.4,0,2.5-1.1,2.5-2.5C21.5,9.2,20.3,8.1,19,8.1z M19,11.9
		c-0.7,0-1.3-0.6-1.3-1.3c0-0.7,0.6-1.3,1.3-1.3c0.7,0,1.3,0.6,1.3,1.3C20.3,11.3,19.7,11.9,19,11.9z"/> </g> </symbol><symbol viewBox="0 0 412.996 412.996" id="developer"><title>developer</title> <g> <g> <g> <path d="M392.996,28.338H20c-11.047,0-20,8.954-20,20v234c0,11.046,8.953,20,20,20h139.498v45.32h-54.283     c-10.201,0-18.5,8.299-18.5,18.5s8.299,18.5,18.5,18.5h202.566c10.201,0,18.5-8.299,18.5-18.5s-8.299-18.5-18.5-18.5h-54.283     v-45.32h139.498c11.047,0,20-8.954,20-20v-234C412.996,37.292,404.043,28.338,392.996,28.338z M382.996,272.338H30v-214h352.996     V272.338z"/> <path d="M94.591,176.637l63.084,29.336c1.631,0.755,3.367,1.138,5.162,1.138c2.338,0,4.616-0.664,6.597-1.924     c3.548-2.267,5.666-6.13,5.666-10.335v-0.322c0-4.751-2.785-9.115-7.096-11.119l-39.455-18.33l39.456-18.334     c4.31-2.004,7.095-6.369,7.095-11.118v-0.319c0-4.211-2.119-8.074-5.665-10.334c-1.962-1.254-4.247-1.916-6.606-1.916     c-1.778,0-3.563,0.391-5.16,1.133L94.59,153.525c-4.308,2.005-7.091,6.369-7.091,11.117v0.878     C87.498,170.262,90.28,174.625,94.591,176.637z"/> <path d="M175.662,236.389c2.301,3.149,6.002,5.029,9.901,5.029h0.315c5.352,0,10.042-3.426,11.672-8.516l41.557-128.76     c1.192-3.717,0.53-7.818-1.771-10.974c-2.301-3.149-6.002-5.03-9.901-5.03h-0.314c-5.354,0-10.048,3.426-11.679,8.516     L173.88,225.425C172.698,229.145,173.364,233.242,175.662,236.389z"/> <path d="M237.896,135.628c0,4.746,2.782,9.11,7.095,11.122l39.455,18.33l-39.455,18.33c-4.311,2.004-7.096,6.368-7.096,11.119     v0.322c0,4.205,2.117,8.068,5.669,10.336c1.974,1.258,4.254,1.923,6.595,1.923c1.792,0,3.527-0.383,5.169-1.142l63.081-29.335     c4.307-2.009,7.089-6.372,7.089-11.115v-0.878c0-4.748-2.783-9.112-7.093-11.117l-63.08-29.334     c-1.591-0.739-3.373-1.131-5.152-1.131c-2.358,0-4.644,0.662-6.604,1.912c-3.554,2.264-5.673,6.127-5.673,10.338V135.628     L237.896,135.628z"/> </g> </g> </g>                </symbol><symbol viewBox="0 0 50 50" id="github"><title>github</title><path d="M45,1H5C2.8,1,1,2.8,1,5v40c0,2.2,1.8,4,4,4h40c2.2,0,4-1.8,4-4V5C49,2.8,47.2,1,45,1z" fill="#282828"/><path d="M30.4,40h-4h-4c0,0,0-2.4,0-4c-5.5,1.2-7-3-7-3c-1-2-2-3-2-3c-2-1.2,0-1,0-1c2,0,3,2,3,2  c1.8,3,4.9,2.5,6,2c0-1,0.4-2.5,1-3c-4.4-0.5-8-3-8-8s1-6,2-7c-0.2-0.5-1-2.3,0-5c0,0,2,0,4,3c1-1,4-1,5-1c1,0,4,0,5,1c2-3,4-3,4-3  c1.1,2.7,0.2,4.5,0,5c1,1,2,2,2,7s-3.6,7.5-8,8c0.6,0.5,1,2.2,1,3L30.4,40L30.4,40z" fill="#FFFFFF" id="github-Cat_2_"/></symbol><symbol viewBox="0 0 147.4 53.7" id="headline-sm"><title>headline-sm</title> <g> <g> <path fill="#FFFFFF" d="M38.6,0.5c0-0.2,0.2-0.4,0.4-0.4h5.4c2.3,0,4.1,1.8,4.1,4c0,1.7-1.1,3.1-2.8,3.8l2.6,4.8
			c0.1,0.2,0,0.5-0.3,0.5h-2c-0.2,0-0.3-0.1-0.3-0.2l-2.5-5H41v5c0,0.2-0.2,0.4-0.4,0.4h-1.7c-0.2,0-0.4-0.2-0.4-0.4V0.5H38.6z
			 M44.1,6.2c1,0,1.9-0.9,1.9-1.9s-0.9-1.8-1.9-1.8H41v3.7H44.1z"/> <path fill="#FFFFFF" d="M56.9,0c3.8,0,6.8,3,6.8,6.8s-3,6.8-6.8,6.8s-6.8-3-6.8-6.8C50.2,3,53.2,0,56.9,0z M56.9,11.1
			c2.4,0,4.3-1.9,4.3-4.3s-2-4.3-4.3-4.3c-2.4,0-4.3,2-4.3,4.3S54.5,11.1,56.9,11.1z"/> <path fill="#FFFFFF" d="M66.2,0.5c0-0.2,0.2-0.4,0.4-0.4h4.3c2.2,0,4,1.5,4,3.5c0,1.4-1.2,2.6-2.1,3c1,0.3,2.4,1.3,2.4,3.1
			c0,2.1-1.8,3.6-4.1,3.6h-4.6c-0.2,0-0.4-0.2-0.4-0.4L66.2,0.5L66.2,0.5z M70.6,5.7c1,0,1.6-0.8,1.6-1.7s-0.7-1.6-1.6-1.6h-2v3.3
			H70.6z M70.9,11.1c0.9,0,1.7-0.7,1.7-1.7c0-0.9-0.9-1.6-1.9-1.6h-2.1v3.3H70.9z"/> <path fill="#FFFFFF" d="M77.8,0.5c0-0.2,0.2-0.4,0.4-0.4h7.7c0.2,0,0.4,0.2,0.4,0.4V2c0,0.2-0.2,0.4-0.4,0.4h-5.6v3.1h4.6
			c0.2,0,0.4,0.2,0.4,0.4v1.6c0,0.2-0.2,0.4-0.4,0.4h-4.6v3.3h5.6c0.2,0,0.4,0.2,0.4,0.4V13c0,0.2-0.2,0.4-0.4,0.4h-7.7
			c-0.2,0-0.4-0.2-0.4-0.4V0.5z"/> <path fill="#FFFFFF" d="M88.8,0.5c0-0.2,0.2-0.4,0.4-0.4h5.4c2.3,0,4.1,1.8,4.1,4c0,1.7-1.1,3.1-2.8,3.8l2.6,4.8
			c0.1,0.2,0,0.5-0.3,0.5h-2c-0.2,0-0.3-0.1-0.3-0.2l-2.5-5h-2.1v5c0,0.2-0.2,0.4-0.4,0.4h-1.7c-0.2,0-0.4-0.2-0.4-0.4
			C88.8,13,88.8,0.5,88.8,0.5z M94.4,6.2c1,0,1.9-0.9,1.9-1.9s-0.9-1.8-1.9-1.8h-3.1v3.7H94.4z"/> <path fill="#FFFFFF" d="M103.1,2.4h-2.9c-0.2,0-0.4-0.2-0.4-0.4V0.5c0-0.2,0.2-0.4,0.4-0.4h8.2c0.2,0,0.4,0.2,0.4,0.4V2
			c0,0.2-0.2,0.4-0.4,0.4h-2.9V13c0,0.2-0.2,0.4-0.4,0.4h-1.8c-0.2,0-0.4-0.2-0.4-0.4V2.4H103.1z"/> </g> <g> <path fill="#78C9B4" d="M0.1,31.3l0.7-1.2C1,29.8,1.3,29.8,1.4,30c0.1,0.1,1.6,1.2,2.8,1.2c1,0,1.7-0.6,1.7-1.4
			c0-1-0.8-1.6-2.4-2.3C1.8,26.8,0,25.7,0,23.4c0-1.7,1.2-3.6,4.2-3.6c1.9,0,3.4,1,3.8,1.3c0.2,0.1,0.2,0.4,0.1,0.6l-0.7,1.1
			C7.3,23,7,23.1,6.8,23s-1.6-1-2.6-1c-1.1,0-1.7,0.7-1.7,1.3c0,0.9,0.7,1.5,2.2,2.1c1.8,0.7,3.9,1.8,3.9,4.3c0,1.9-1.7,3.7-4.3,3.7
			c-2.4,0-3.8-1.1-4.1-1.5C0,31.7-0.1,31.6,0.1,31.3z"/> <path fill="#78C9B4" d="M16.9,19.8c1.9,0,3.3,0.6,4.6,1.7c0.2,0.2,0.2,0.4,0,0.5l-1.1,1.2c-0.1,0.2-0.3,0.2-0.5,0
			c-0.8-0.7-1.8-1.1-2.9-1.1c-2.4,0-4.2,2-4.2,4.4s1.8,4.3,4.2,4.3c1.1,0,2.1-0.4,2.9-1.1c0.2-0.1,0.4-0.1,0.5,0l1.2,1.2
			c0.2,0.1,0.1,0.4,0,0.5c-1.3,1.2-2.9,1.8-4.6,1.8c-3.8,0-6.8-3-6.8-6.8C10.1,22.8,13.1,19.8,16.9,19.8z"/> <path fill="#78C9B4" d="M23.9,20.4c0-0.2,0.2-0.4,0.4-0.4H26c0.2,0,0.4,0.2,0.4,0.4v5h6.1v-5c0-0.2,0.2-0.4,0.4-0.4h1.7
			c0.2,0,0.4,0.2,0.4,0.4v12.5c0,0.2-0.2,0.4-0.4,0.4h-1.7c-0.2,0-0.4-0.2-0.4-0.4v-5.2h-6.1v5.2c0,0.2-0.2,0.4-0.4,0.4h-1.8
			c-0.2,0-0.4-0.2-0.4-0.4L23.9,20.4L23.9,20.4z"/> <path fill="#78C9B4" d="M38.4,20.2c0-0.2,0.2-0.3,0.4-0.3h0.5l7.8,8.3l0,0v-7.8c0-0.2,0.2-0.4,0.4-0.4h1.7c0.2,0,0.4,0.2,0.4,0.4
			V33c0,0.2-0.2,0.3-0.4,0.3h-0.5l-7.9-8.6l0,0v8.1c0,0.2-0.2,0.4-0.4,0.4h-1.7c-0.2,0-0.4-0.2-0.4-0.4V20.2H38.4z"/> <path fill="#78C9B4" d="M52.9,20.4c0-0.2,0.2-0.4,0.4-0.4H61c0.2,0,0.4,0.2,0.4,0.4v1.5c0,0.2-0.2,0.4-0.4,0.4h-5.6v3.1H60
			c0.2,0,0.4,0.2,0.4,0.4v1.6c0,0.2-0.2,0.4-0.4,0.4h-4.6v3.3H61c0.2,0,0.4,0.2,0.4,0.4V33c0,0.2-0.2,0.4-0.4,0.4h-7.7
			c-0.2,0-0.4-0.2-0.4-0.4C52.9,33,52.9,20.4,52.9,20.4z"/> <path fill="#78C9B4" d="M64,20.4c0-0.2,0.2-0.4,0.4-0.4h1.8c0.2,0,0.4,0.2,0.4,0.4v12.5c0,0.2-0.2,0.4-0.4,0.4h-1.8
			c-0.2,0-0.4-0.2-0.4-0.4V20.4z"/> <path fill="#78C9B4" d="M69.9,20.4c0-0.2,0.2-0.4,0.3-0.4h4.5c3.6,0,6.6,3,6.6,6.6s-3,6.6-6.6,6.6h-4.5c-0.2,0-0.3-0.2-0.3-0.4
			V20.4z M74.5,30.9c2.4,0,4.2-1.8,4.2-4.3c0-2.4-1.8-4.3-4.2-4.3h-2.1v8.6H74.5z"/> <path fill="#78C9B4" d="M83.8,20.4c0-0.2,0.2-0.4,0.4-0.4h7.7c0.2,0,0.4,0.2,0.4,0.4v1.5c0,0.2-0.2,0.4-0.4,0.4h-5.6v3.1h4.6
			c0.2,0,0.4,0.2,0.4,0.4v1.6c0,0.2-0.2,0.4-0.4,0.4h-4.6v3.3h5.6c0.2,0,0.4,0.2,0.4,0.4V33c0,0.2-0.2,0.4-0.4,0.4h-7.7
			c-0.2,0-0.4-0.2-0.4-0.4V20.4z"/> <path fill="#78C9B4" d="M94.8,20.4c0-0.2,0.2-0.4,0.4-0.4h5.4c2.3,0,4.1,1.8,4.1,4c0,1.7-1.1,3.1-2.8,3.8l2.6,4.8
			c0.1,0.2,0,0.5-0.3,0.5h-2c-0.2,0-0.3-0.1-0.3-0.2l-2.5-5h-2.1v4.8c0,0.2-0.2,0.4-0.4,0.4h-1.7c-0.2,0-0.4-0.2-0.4-0.4
			C94.8,32.7,94.8,20.4,94.8,20.4z M100.4,26c1,0,1.9-0.9,1.9-1.9s-0.9-1.8-1.9-1.8h-3.1V26H100.4z"/> <path fill="#78C9B4" d="M108.8,20.1c0-0.2,0.1-0.3,0.3-0.3h0.3c0.2,0,0.3,0.1,0.3,0.2l4.1,8.9c0,0,0,0,0.1,0L118,20
			c0.1-0.1,0.2-0.2,0.3-0.2h0.3c0.2,0,0.3,0.1,0.3,0.3l2.2,12.6c0.1,0.3-0.1,0.4-0.3,0.4h-1.7c-0.2,0-0.3-0.2-0.4-0.3l-1.1-7.1h-0.1
			l-3.3,7.4c0,0.1-0.2,0.2-0.3,0.2h-0.3c-0.2,0-0.3-0.1-0.3-0.2l-3.3-7.4c0,0,0,0-0.1,0l-1.1,7.1c0,0.1-0.2,0.3-0.3,0.3h-1.7
			c-0.2,0-0.4-0.2-0.4-0.4L108.8,20.1z"/> <path fill="#78C9B4" d="M122.1,32.7L128,20c0.1-0.1,0.2-0.2,0.3-0.2h0.2c0.2,0,0.3,0.1,0.3,0.2l5.8,12.7c0.1,0.2,0,0.5-0.3,0.5
			h-1.6c-0.3,0-0.4-0.1-0.5-0.4l-0.9-2h-5.6l-0.9,2c-0.1,0.2-0.2,0.4-0.5,0.4h-1.6C122.1,33.2,122,32.9,122.1,32.7z M130.2,28.7
			l-1.9-4.1h-0.1l-1.8,4.1H130.2z"/> <path fill="#78C9B4" d="M136.3,20.2c0-0.2,0.2-0.3,0.4-0.3h0.5l7.8,8.3l0,0v-7.8c0-0.2,0.2-0.4,0.4-0.4h1.7c0.2,0,0.4,0.2,0.4,0.4
			V33c0,0.2-0.2,0.3-0.4,0.3h-0.5l-7.9-8.6l0,0v8.1c0,0.2-0.2,0.4-0.4,0.4h-1.7c-0.2,0-0.4-0.2-0.4-0.4L136.3,20.2L136.3,20.2z"/> </g> </g> <g enable-background="new    "> <path fill="#DDDDDC" d="M15.6,48.6c-1.3,1.4-2,1.9-2.5,1.9c-0.5,0-1.1-1-1-1.5c0.1-0.3-0.2-0.4,3.5-4.5c0.1-0.2,0.4-0.4,0.4-0.6
		c0-0.2-0.2-0.3-0.4-0.3c-0.7,0-2.9,1-3.5,1.4c-0.2,0.1-0.5,0.3-0.8,0.3c-0.1,0-0.6-0.2,0.1-1.6c0.2-0.4,0.4-0.5,0.7-0.8l0.8-0.6
		c0.1-0.1,0.2-0.1,0.3-0.1c0,0,0.1,0,0,0.2l-0.3,0.4l0,0c1-0.3,2-0.8,3.1-0.8c0.4,0,0.7,0,1,0.3c0.2,0.3,0.4,0.9,0.4,1.2
		c0,0.4-0.1,1-3.3,4.7c-0.3,0.3-0.1,0.4,0,0.4c0.1,0.1,2.2-1.7,5-4.9c0.3-0.3,0.8-1.1,1.4-1.1c0.3,0,0.5,0.6,0.5,0.8
		c0,0.2-0.3,0.6-0.4,0.7c-0.5,0.7-2.7,3.9-2.7,4.7c0,0.1,0.1,0.2,0.2,0.2c1-0.5,2.9-2.3,4-4.6c0-0.1-0.1-0.3-0.1-0.4
		c0-0.4,0.7-1.2,0.9-1.2c0.2,0,0.3,0.5,0.3,0.6c-0.1,2.7-3.5,6.8-5,7c-0.4,0.1-1.3-0.5-1.3-1.2c0-0.7,0.5-1.8,0.7-2.5l0,0L15.6,48.6
		z"/> <path fill="#DDDDDC" d="M26.2,48.6c-0.7,0.9-2.1,2-3.2,2c-0.9,0-1.3-0.8-1.3-1.6c0-1.6,1.7-3.2,3.2-3.2c0.4,0,0.9,0.1,0.9,0.6
		c0,0.6-0.6,1.5-2.9,2.2l0,0.3c0,0.5,0.4,0.6,0.7,0.6c0.9,0,1.9-0.9,2.5-1.4L26.2,48.6z M24.7,46.6c0-0.1-0.1-0.2-0.1-0.1
		C24,46.7,23.3,47.2,23,48C24,47.7,24.8,46.9,24.7,46.6z"/> <path fill="#DDDDDC" d="M27,48.1c-0.2,0.8,0.1,1.4,0.5,1.3c0.4-0.1,0.6-0.4,0.8-0.6c-0.1-0.2-0.2-0.3-0.2-0.5c0-0.7,1-1.9,1.7-1.9
		c0.3,0,0.4,0.3,0.4,0.5c0,0.5-0.4,1.1-0.6,1.5c0.5,0.1,0.9-0.2,1.3-0.4l0.1,0.4c-0.5,0.6-1.2,0.8-1.9,0.8c-0.5,0.5-1.4,1.3-2.1,1.3
		c-0.8,0-0.9-1.2-0.9-1.7c0-1.5,0.7-2.8,1.7-3.9c1-1.2,2.9-2.6,3.4-2.6c0.2,0,0.3,0.2,0.3,0.4c0,1.1-1.8,2.9-2.5,3.6L27,48.1z
		 M27.4,46.8L27.4,46.8c2.5-2.5,2.8-3.2,3-3.6l0,0C29.2,44.2,28.2,45.4,27.4,46.8z"/> <path fill="#DDDDDC" d="M40,43.8c-0.9,0.1-1.8,0.3-2.6,0.6v0h0.3c0.1,0,0.6,0,0.6,0.1c0,0.1-0.3,0.2-0.4,0.2
		c-0.6,0.1-1.4,0.5-2,0.5c-0.3,0-0.5-0.1-0.5-0.4c0-0.2,0.1-0.6,0.2-0.8c0.2-0.6,0.6-0.9,1.1-1.2C38,42.3,39.7,42,41,42
		c0.9,0,2.1,0.1,2.9,0.6c0.9,0.6,1.3,1.6,1.3,2.7c0,1.7-1.4,3.1-2.8,3.9c-1.3,0.7-3.5,1.3-5,1.3c-0.3,0-0.8,0-1-0.1
		C36,50.2,36,50,36,49.7c0-0.9,0.6-1.7,1.2-2.3L40,43.8z M37.6,48.1c-0.4,0.5-0.3,0.7-0.3,0.8c0,0.1,0.2,0.2,0.7,0.2
		c0.8,0,1.9-0.2,2.8-0.5c2.5-0.9,3.4-2.2,3.4-3.2c0-1.5-2.5-1.6-3.5-1.6c-0.1,0.4-0.2,0.6-0.4,0.9L37.6,48.1z"/> <path fill="#DDDDDC" d="M49,48.6c-0.7,0.9-2.1,2-3.2,2c-0.9,0-1.3-0.8-1.3-1.6c0-1.6,1.7-3.2,3.2-3.2c0.4,0,0.9,0.1,0.9,0.6
		c0,0.6-0.6,1.5-2.9,2.2l0,0.3c0,0.5,0.4,0.6,0.7,0.6c0.9,0,1.9-0.9,2.5-1.4L49,48.6z M47.6,46.6c0-0.1-0.1-0.2-0.1-0.1
		c-0.6,0.2-1.3,0.7-1.6,1.5C46.8,47.7,47.6,46.9,47.6,46.6z"/> <path fill="#DDDDDC" d="M53.1,48.3l0.1,0.5c-0.7,0.7-2,1.8-3,1.8c-0.8,0-1.7-0.5-1.9-1.4c-0.1,0.1-0.2,0.2-0.3,0.2
		c-0.1,0-0.2-0.1-0.2-0.2c0-0.2,0.2-0.3,0.3-0.4l2.6-2.4c0-0.4,0.3-0.8,0.7-0.8c0.4,0,0.4,0.1,0.5,0.4c0,0.5,0.2,0.9,0.2,1.4
		c0,1-0.8,1.7-1.6,2.2c0.8,0.1,1.2-0.2,1.8-0.7L53.1,48.3z M49,48.6c0.4,0,0.7,0.4,0.9,0.7c0.7-0.4,0.9-0.6,0.9-1.3
		c0-0.3-0.1-0.6-0.2-1L49,48.6z"/> <path fill="#DDDDDC" d="M56.6,48.8c-0.5,0.7-1.6,1.7-2.5,1.7c-0.7,0-1-0.8-1-1.4c0-1.5,1.5-2.9,2.2-2.9c0.2,0,0.5,0.1,0.5,0.3
		c0,0.6-1.2,1.7-1.7,2c-0.1,0.5,0.1,0.8,0.6,0.8c0.6,0,1.3-0.6,1.7-1L56.6,48.8z M55.4,45.5c0-0.5,0.6-0.9,1-0.9
		c0.2,0,0.4,0.2,0.4,0.4c0,0.5-0.4,1.1-1,1.1C55.6,46,55.4,45.8,55.4,45.5z"/> <path fill="#DDDDDC" d="M59.7,48.6L59.7,48.6c-0.5,0.5-1.7,1.5-2.4,1.5c-0.7,0-0.9-0.9-0.9-1.4c0-1.6,2.6-2.8,3.5-2.9
		c0.2,0,0.6,0,0.6,0.3c0,0.2-0.2,0.4-0.4,0.5l-1.4,0.7c-0.8,0.4-1.6,0.7-1.5,1.6c0,0.1,0.1,0.1,0.2,0.1c0.3,0,1.1-0.3,1.5-0.7
		l1.3-1.4c0.1-0.1,0.3-0.3,0.5-0.3c0.2,0,0.5,0.4,0.5,0.6c0,0.2-0.2,0.5-0.3,0.6l-0.9,1.7l0,0l1.8-1.3l0.1,0.5l-2.5,1.9
		c-1.3,2-2.3,2.8-2.8,2.8c-0.2,0-0.3-0.1-0.3-0.3c0-0.9,1.8-2.4,2.5-2.9L59.7,48.6z"/> <path fill="#DDDDDC" d="M67.5,48l0.1,0.5c-0.6,0.6-1.9,2-2.7,2c-0.5,0-0.7-0.4-0.7-0.8c0-0.7,0.6-1.5,1-2.1l0,0
		c-0.7,0.5-1.3,1.1-1.8,1.8c-0.2,0.2-0.6,0.8-0.9,0.8c-0.5,0-0.7-0.8-0.7-1.2c0-0.8,0.7-2,1.4-2.6c0.2-0.1,0.3-0.1,0.5-0.1
		c0.7,0,0.7,0.2,0.7,0.3c0,0.5-1.5,1.7-1.5,2c0,0.1,0.1,0.1,0.1,0.1c0.1,0,0.2-0.1,0.2-0.2c1-1.2,3.2-2.7,3.5-2.7
		c0,0,0.1,0.1,0.2,0.2c0.1,0.2,0.1,0.4,0.2,0.6c0,0.5-1.5,1.4-1.5,2.2c0,0.1,0.1,0.2,0.2,0.2c0.3,0,0.8-0.4,1-0.6L67.5,48z"/> <path fill="#DDDDDC" d="M71.8,48.6c-0.7,0.9-2.1,2-3.2,2c-0.9,0-1.3-0.8-1.3-1.6c0-1.6,1.7-3.2,3.2-3.2c0.4,0,0.9,0.1,0.9,0.6
		c0,0.6-0.6,1.5-2.9,2.2l0,0.3c0,0.5,0.4,0.6,0.7,0.6c0.9,0,1.9-0.9,2.5-1.4L71.8,48.6z M70.3,46.6c0-0.1-0.1-0.2-0.1-0.1
		c-0.6,0.2-1.3,0.7-1.6,1.5C69.6,47.7,70.3,46.9,70.3,46.6z"/> <path fill="#DDDDDC" d="M72.5,47.8c-0.4,0.7-0.9,1-1.4,1.5l0-0.5c0.3-0.3,0.6-0.6,0.8-0.9c-0.3,0-0.3-0.1-0.3-0.4
		c0-0.9,1.2-1.7,1.5-1.7c0.1,0,0.2,0.1,0.2,0.2c0,0.1,0,0.2-0.1,0.3c1.1-0.2,1.8-0.3,1.9-0.2c0.2,0.2,0.3,0.4,0.3,0.6
		c0,0.4-0.2,0.6-0.5,0.8c-0.3,0.3-0.9,0.9-0.9,1.4c0,0.2,0.2,0.3,0.4,0.3c0.5,0,1.3-0.8,1.7-1.1l0.1,0.4c-0.5,0.5-1.8,1.8-2.5,1.8
		c-0.5,0-0.8-0.5-0.8-0.9c0-0.8,0.6-1.5,1.1-2l0,0L72.5,47.8z"/> <path fill="#DDDDDC" d="M84.1,45.9c0.1,0.5,0.3,1,0.6,1.5l1.9-1.5c0.1,0.3,0.2,0.6,0.2,0.9c0,0.7-0.9,1.3-1.3,1.7
		c0.1,0.2,0.2,0.3,0.4,0.3c0.1,0,0.3-0.1,0.3-0.1c0.1,0,0.2,0.1,0.2,0.2c0,0.3-0.7,1.5-1.1,1.5c-0.3,0-0.8-0.7-1-0.9
		c-0.8,0.5-1.6,1.1-2.6,1.1c-1.1,0-2-0.8-1.9-1.9c0.2-1.9,1.4-2.4,2.6-3.1c-0.3-1.9,1.8-3.4,3.3-3.4c0.6,0,1.2,0.5,1.2,1.1
		c0,0.7-0.5,1.2-1.1,1.6L84.1,45.9z M82.7,46.7c-0.6,0.2-1.7,1.3-1.7,1.9c0,0.2,0.4,0.2,0.6,0.2c0.6,0,1.2-0.3,1.8-0.6L82.7,46.7z
		 M85.9,42.9c0-0.1-0.1-0.2-0.2-0.1c-1.3,0.2-1.5,1.2-1.8,2.1C84.5,44.5,85.9,43.6,85.9,42.9z"/> <path fill="#DDDDDC" d="M96,43.8c-0.9,0.1-1.8,0.3-2.6,0.6v0h0.3c0.1,0,0.6,0,0.6,0.1c0,0.1-0.3,0.2-0.4,0.2
		c-0.6,0.1-1.4,0.5-2,0.5c-0.3,0-0.5-0.1-0.5-0.4c0-0.2,0.1-0.6,0.2-0.8c0.2-0.6,0.6-0.9,1.1-1.2c1.1-0.5,2.8-0.8,4.1-0.8
		c0.9,0,2.1,0.1,2.9,0.6c0.9,0.6,1.3,1.6,1.3,2.7c0,1.7-1.4,3.1-2.8,3.9c-1.3,0.7-3.5,1.3-5,1.3c-0.3,0-0.8,0-1-0.1
		C92.1,50.2,92,50,92,49.7c0-0.9,0.6-1.7,1.2-2.3L96,43.8z M93.7,48.1c-0.4,0.5-0.3,0.7-0.3,0.8c0,0.1,0.2,0.2,0.7,0.2
		c0.8,0,1.9-0.2,2.8-0.5c2.5-0.9,3.4-2.2,3.4-3.2c0-1.5-2.5-1.6-3.5-1.6c-0.1,0.4-0.2,0.6-0.4,0.9L93.7,48.1z"/> <path fill="#DDDDDC" d="M105.1,48.6c-0.7,0.9-2.1,2-3.2,2c-0.9,0-1.3-0.8-1.3-1.6c0-1.6,1.7-3.2,3.2-3.2c0.4,0,0.9,0.1,0.9,0.6
		c0,0.6-0.6,1.5-2.9,2.2l0,0.3c0,0.5,0.4,0.6,0.7,0.6c0.9,0,1.9-0.9,2.5-1.4L105.1,48.6z M103.6,46.6c0-0.1-0.1-0.2-0.1-0.1
		c-0.6,0.2-1.3,0.7-1.6,1.5C102.9,47.7,103.6,46.9,103.6,46.6z"/> <path fill="#DDDDDC" d="M109.3,45.9c0.2,0,0.4,0.2,0.4,0.4c0,0.5-0.7,1.6-1,2c0.1,0.1,0.2,0.2,0.4,0.2c0.3,0,0.8-0.3,1-0.5l0.1,0.5
		c-0.4,0.5-0.9,0.9-1.5,0.9c-0.3,0-0.4-0.2-0.6-0.3c-0.3,0.4-1.5,1.4-2,1.4c-0.7,0-1.2-0.9-1.2-1.8c0-1.7,1.5-2.8,1.9-2.8
		c0.2,0,0.7,0,0.7,0.3c0,0.5-1.1,1.8-1.6,2.1c-0.1,0.2-0.2,0.5-0.2,0.7c0,0.2,0,0.5,0.3,0.5c0.3,0,1.3-0.9,1.5-1.1
		c0-0.6,0.3-1,0.6-1.4C108.3,46.6,108.9,45.9,109.3,45.9z"/> <path fill="#DDDDDC" d="M114.4,48.6c-0.7,0.9-2.1,2-3.2,2c-0.9,0-1.3-0.8-1.3-1.6c0-1.6,1.7-3.2,3.2-3.2c0.4,0,0.9,0.1,0.9,0.6
		c0,0.6-0.6,1.5-2.9,2.2l0,0.3c0,0.5,0.4,0.6,0.7,0.6c0.9,0,1.9-0.9,2.5-1.4L114.4,48.6z M113,46.6c0-0.1-0.1-0.2-0.1-0.1
		c-0.6,0.2-1.3,0.7-1.6,1.5C112.2,47.7,113,46.9,113,46.6z"/> <path fill="#DDDDDC" d="M118.1,48.6c-0.7,0.7-1.8,1.9-2.8,1.9c-0.9,0-1.1-0.9-1.1-1.6c0-1.3,0.5-2.6,1.3-3.6
		c1.1-1.3,2.2-2.4,2.6-2.4c0.2,0,0.3,0.3,0.2,0.4c-0.1,1.1-0.4,2.2-3,4.7c-0.1,0.2-0.1,0.5-0.1,0.8c0.1,0.3,0.3,0.5,0.6,0.5
		c0.7,0,1.6-0.8,2.1-1.2L118.1,48.6z M115.6,47c0.9-0.8,1.6-1.9,1.8-2.6C116.8,44.6,116.1,45.7,115.6,47L115.6,47z"/> <path fill="#DDDDDC" d="M122.8,48.6c-0.5,0.7-1.1,1-1.9,1c-0.5,0.5-1.1,0.9-1.8,0.9c-0.6,0-1.2-0.6-1.2-1.7c0-0.9,0.4-1.5,1.1-2
		c0.6-0.5,1.5-0.9,2.2-0.9c0.3,0,0.7,0.1,0.7,0.4c0,0.2-0.1,0.3-0.3,0.3c0.4,0.1,0.4,0.3,0.4,0.7c0,0.5-0.2,0.9-0.5,1.4
		c0.5,0.1,0.9-0.4,1.2-0.6L122.8,48.6z M119.1,48c-0.3,0.3-0.5,0.7-0.5,1.1c0,0.3,0.2,0.5,0.5,0.5c0.4,0,0.6-0.2,0.9-0.5
		c-0.1-0.2-0.1-0.3-0.1-0.6c0-0.6,0.6-1.4,0.5-1.4C120,47.4,119.5,47.7,119.1,48z"/> <path fill="#DDDDDC" d="M122.3,52.4c-0.1,0.2-0.3,0.5-0.5,0.5c-0.3,0-0.3-0.3-0.3-0.5c0-0.6,0.3-1.2,0.7-1.9
		c0.6-0.8,1.2-1.8,1.9-3.1l0,0l-1.9,1.8l0-0.6l3.2-3.4c0.3-0.3,0.5-0.7,1-0.7c0.2,0,0.6,0.1,0.6,0.3c0,0.3-0.6,0.8-0.8,1
		c-0.4,0.4-0.8,0.9-1,1.4l0,0c0.5-0.4,1.7-1.2,2.4-1.2c0.3,0,0.5,0.3,0.5,0.6c0,0.7-0.6,1.5-1.9,2.7c1,0.1,1.3-0.1,2.6-1.2l0.1,0.6
		c-0.9,0.9-2,1.7-3.3,1.7c-0.3,0-0.6-0.1-0.9-0.2c-0.2,0-0.4,0.1-0.6,0.1c-0.2,0-0.3,0-0.5-0.1L122.3,52.4z M126.1,48.1
		c0.1-0.2,0.3-0.4,0.3-0.6c0-0.1,0-0.2-0.1-0.2c-0.2,0-0.8,0.4-0.9,0.5c-0.4,0.3-0.8,0.7-1.1,1.2c0.3,0,0.7,0,1,0.1L126.1,48.1z"/> <path fill="#DDDDDC" d="M132.9,48.6c-0.7,0.9-2.1,2-3.2,2c-0.9,0-1.3-0.8-1.3-1.6c0-1.6,1.7-3.2,3.2-3.2c0.4,0,0.9,0.1,0.9,0.6
		c0,0.6-0.6,1.5-2.9,2.2l0,0.3c0,0.5,0.4,0.6,0.7,0.6c0.9,0,1.9-0.9,2.5-1.4L132.9,48.6z M131.4,46.6c0-0.1-0.1-0.2-0.1-0.1
		c-0.6,0.2-1.3,0.7-1.6,1.5C130.7,47.7,131.5,46.9,131.4,46.6z"/> <path fill="#DDDDDC" d="M133.6,47.8c-0.4,0.7-0.9,1-1.4,1.5l0-0.5c0.3-0.3,0.6-0.6,0.8-0.9c-0.3,0-0.3-0.1-0.3-0.4
		c0-0.9,1.2-1.7,1.5-1.7c0.1,0,0.2,0.1,0.2,0.2c0,0.1,0,0.2-0.1,0.3c1.1-0.2,1.8-0.3,1.9-0.2c0.2,0.2,0.3,0.4,0.3,0.6
		c0,0.4-0.2,0.6-0.5,0.8c-0.3,0.3-0.9,0.9-0.9,1.4c0,0.2,0.2,0.3,0.4,0.3c0.5,0,1.3-0.8,1.7-1.1l0.1,0.4c-0.5,0.5-1.8,1.8-2.5,1.8
		c-0.5,0-0.8-0.5-0.8-0.9c0-0.8,0.6-1.5,1.1-2l0,0L133.6,47.8z"/> </g> </symbol><symbol viewBox="0 0 226.3 38.3" id="headline"><title>headline</title> <g id="headline-subtitle" enable-background="new    "> <path fill="#DEDDDD" d="M55.1,33.2c-1.3,1.4-2,1.9-2.5,1.9s-1.1-1-1-1.5c0.1-0.3-0.2-0.4,3.5-4.5c0.1-0.2,0.4-0.4,0.4-0.6
		s-0.2-0.3-0.4-0.3c-0.7,0-2.9,1-3.5,1.4c-0.2,0.1-0.5,0.3-0.8,0.3c-0.1,0-0.6-0.2,0.1-1.6c0.2-0.4,0.4-0.5,0.7-0.8l0.8-0.6
		c0.1-0.1,0.2-0.1,0.3-0.1c0,0,0.1,0,0,0.2l-0.3,0.4l0,0c1-0.3,2-0.8,3.1-0.8c0.4,0,0.7,0,1,0.3c0.2,0.3,0.4,0.9,0.4,1.2
		c0,0.4-0.1,1-3.3,4.7c-0.3,0.3-0.1,0.4,0,0.4c0.1,0.1,2.2-1.7,5-4.9c0.3-0.3,0.8-1.1,1.4-1.1c0.3,0,0.5,0.6,0.5,0.8
		c0,0.2-0.3,0.6-0.4,0.7c-0.5,0.7-2.7,3.9-2.7,4.7c0,0.1,0.1,0.2,0.2,0.2c1-0.5,2.9-2.3,4-4.6c0-0.1-0.1-0.3-0.1-0.4
		c0-0.4,0.7-1.2,0.9-1.2s0.3,0.5,0.3,0.6c-0.1,2.7-3.5,6.8-5,7c-0.4,0.1-1.3-0.5-1.3-1.2s0.5-1.8,0.7-2.5l0,0L55.1,33.2z"/> <path fill="#DEDDDD" d="M65.7,33.2c-0.7,0.9-2.1,2-3.2,2c-0.9,0-1.3-0.8-1.3-1.6c0-1.6,1.7-3.2,3.2-3.2c0.4,0,0.9,0.1,0.9,0.6
		c0,0.6-0.6,1.5-2.9,2.2v0.3c0,0.5,0.4,0.6,0.7,0.6c0.9,0,1.9-0.9,2.5-1.4L65.7,33.2z M64.2,31.2c0-0.1-0.1-0.2-0.1-0.1
		c-0.6,0.2-1.3,0.7-1.6,1.5C63.5,32.3,64.2,31.4,64.2,31.2z"/> <path fill="#DEDDDD" d="M66.5,32.7c-0.2,0.8,0.1,1.4,0.5,1.3c0.4-0.1,0.6-0.4,0.8-0.6c-0.1-0.2-0.2-0.3-0.2-0.5
		c0-0.7,1-1.9,1.7-1.9c0.3,0,0.4,0.3,0.4,0.5c0,0.5-0.4,1.1-0.6,1.5c0.5,0.1,0.9-0.2,1.3-0.4l0.1,0.4c-0.5,0.6-1.2,0.8-1.9,0.8
		c-0.5,0.5-1.4,1.3-2.1,1.3c-0.8,0-0.9-1.2-0.9-1.7c0-1.5,0.7-2.8,1.7-3.9c1-1.2,2.9-2.6,3.4-2.6c0.2,0,0.3,0.2,0.3,0.4
		c0,1.1-1.8,2.9-2.5,3.6L66.5,32.7z M66.9,31.4L66.9,31.4c2.5-2.5,2.8-3.2,3-3.6l0,0C68.7,28.8,67.6,30,66.9,31.4z"/> <path fill="#DEDDDD" d="M79.5,28.4c-0.9,0.1-1.8,0.3-2.6,0.6l0,0h0.3c0.1,0,0.6,0,0.6,0.1s-0.3,0.2-0.4,0.2c-0.6,0.1-1.4,0.5-2,0.5
		c-0.3,0-0.5-0.1-0.5-0.4c0-0.2,0.1-0.6,0.2-0.8c0.2-0.6,0.6-0.9,1.1-1.2c1.1-0.5,2.8-0.8,4.1-0.8c0.9,0,2.1,0.1,2.9,0.6
		c0.9,0.6,1.3,1.6,1.3,2.7c0,1.7-1.4,3.1-2.8,3.9c-1.3,0.7-3.5,1.3-5,1.3c-0.3,0-0.8,0-1-0.1s-0.3-0.4-0.3-0.6
		c0-0.9,0.6-1.7,1.2-2.3L79.5,28.4z M77.1,32.7c-0.4,0.5-0.3,0.7-0.3,0.8s0.2,0.2,0.7,0.2c0.8,0,1.9-0.2,2.8-0.5
		c2.5-0.9,3.4-2.2,3.4-3.2c0-1.5-2.5-1.6-3.5-1.6c-0.1,0.4-0.2,0.6-0.4,0.9L77.1,32.7z"/> <path fill="#DEDDDD" d="M88.5,33.2c-0.7,0.9-2.1,2-3.2,2c-0.9,0-1.3-0.8-1.3-1.6c0-1.6,1.7-3.2,3.2-3.2c0.4,0,0.9,0.1,0.9,0.6
		c0,0.6-0.6,1.5-2.9,2.2v0.3c0,0.5,0.4,0.6,0.7,0.6c0.9,0,1.9-0.9,2.5-1.4L88.5,33.2z M87,31.2c0-0.1-0.1-0.2-0.1-0.1
		c-0.6,0.2-1.3,0.7-1.6,1.5C86.3,32.3,87,31.4,87,31.2z"/> <path fill="#DEDDDD" d="M92.5,32.9l0.1,0.5c-0.7,0.7-2,1.8-3,1.8c-0.8,0-1.7-0.5-1.9-1.4c-0.1,0.1-0.2,0.2-0.3,0.2
		c-0.1,0-0.2-0.1-0.2-0.2c0-0.2,0.2-0.3,0.3-0.4l2.6-2.4c0-0.4,0.3-0.8,0.7-0.8c0.4,0,0.4,0.1,0.5,0.4c0,0.5,0.2,0.9,0.2,1.4
		c0,1-0.8,1.7-1.6,2.2c0.8,0.1,1.2-0.2,1.8-0.7L92.5,32.9z M88.4,33.1c0.4,0,0.7,0.4,0.9,0.7c0.7-0.4,0.9-0.6,0.9-1.3
		c0-0.3-0.1-0.6-0.2-1L88.4,33.1z"/> <path fill="#DEDDDD" d="M96,33.4c-0.5,0.7-1.6,1.7-2.5,1.7c-0.7,0-1-0.8-1-1.4c0-1.5,1.5-2.9,2.2-2.9c0.2,0,0.5,0.1,0.5,0.3
		c0,0.6-1.2,1.7-1.7,2c-0.1,0.5,0.1,0.8,0.6,0.8c0.6,0,1.3-0.6,1.7-1L96,33.4z M94.9,30.1c0-0.5,0.6-0.9,1-0.9
		c0.2,0,0.4,0.2,0.4,0.4c0,0.5-0.4,1.1-1,1.1C95.1,30.6,94.9,30.4,94.9,30.1z"/> <path fill="#DEDDDD" d="M99.2,33.2L99.2,33.2c-0.5,0.5-1.7,1.5-2.4,1.5c-0.7,0-0.9-0.9-0.9-1.4c0-1.6,2.6-2.8,3.5-2.9
		c0.2,0,0.6,0,0.6,0.3c0,0.2-0.2,0.4-0.4,0.5L98.3,32c-0.8,0.4-1.6,0.7-1.5,1.6c0,0.1,0.1,0.1,0.2,0.1c0.3,0,1.1-0.3,1.5-0.7
		l1.3-1.4c0.1-0.1,0.3-0.3,0.5-0.3s0.5,0.4,0.5,0.6s-0.2,0.5-0.3,0.6l-0.9,1.7l0,0l1.8-1.3l0.1,0.5L99,35.3c-1.3,2-2.3,2.8-2.8,2.8
		c-0.2,0-0.3-0.1-0.3-0.3c0-0.9,1.8-2.4,2.5-2.9L99.2,33.2z"/> <path fill="#DEDDDD" d="M106.9,32.6l0.1,0.5c-0.6,0.6-1.9,2-2.7,2c-0.5,0-0.7-0.4-0.7-0.8c0-0.7,0.6-1.5,1-2.1l0,0
		c-0.7,0.5-1.3,1.1-1.8,1.8c-0.2,0.2-0.6,0.8-0.9,0.8c-0.5,0-0.7-0.8-0.7-1.2c0-0.8,0.7-2,1.4-2.6c0.2-0.1,0.3-0.1,0.5-0.1
		c0.7,0,0.7,0.2,0.7,0.3c0,0.5-1.5,1.7-1.5,2c0,0.1,0.1,0.1,0.1,0.1c0.1,0,0.2-0.1,0.2-0.2c1-1.2,3.2-2.7,3.5-2.7
		c0,0,0.1,0.1,0.2,0.2c0.1,0.2,0.1,0.4,0.2,0.6c0,0.5-1.5,1.4-1.5,2.2c0,0.1,0.1,0.2,0.2,0.2c0.3,0,0.8-0.4,1-0.6L106.9,32.6z"/> <path fill="#DEDDDD" d="M111.3,33.2c-0.7,0.9-2.1,2-3.2,2c-0.9,0-1.3-0.8-1.3-1.6c0-1.6,1.7-3.2,3.2-3.2c0.4,0,0.9,0.1,0.9,0.6
		c0,0.6-0.6,1.5-2.9,2.2v0.3c0,0.5,0.4,0.6,0.7,0.6c0.9,0,1.9-0.9,2.5-1.4L111.3,33.2z M109.8,31.2c0-0.1-0.1-0.2-0.1-0.1
		c-0.6,0.2-1.3,0.7-1.6,1.5C109.1,32.3,109.8,31.4,109.8,31.2z"/> <path fill="#DEDDDD" d="M111.9,32.4c-0.4,0.7-0.9,1-1.4,1.5v-0.5c0.3-0.3,0.6-0.6,0.8-0.9c-0.3,0-0.3-0.1-0.3-0.4
		c0-0.9,1.2-1.7,1.5-1.7c0.1,0,0.2,0.1,0.2,0.2s0,0.2-0.1,0.3c1.1-0.2,1.8-0.3,1.9-0.2c0.2,0.2,0.3,0.4,0.3,0.6
		c0,0.4-0.2,0.6-0.5,0.8c-0.3,0.3-0.9,0.9-0.9,1.4c0,0.2,0.2,0.3,0.4,0.3c0.5,0,1.3-0.8,1.7-1.1l0.1,0.4c-0.5,0.5-1.8,1.8-2.5,1.8
		c-0.5,0-0.8-0.5-0.8-0.9c0-0.8,0.6-1.5,1.1-2l0,0L111.9,32.4z"/> <path fill="#DEDDDD" d="M123.6,30.5c0.1,0.5,0.3,1,0.6,1.5l1.9-1.5c0.1,0.3,0.2,0.6,0.2,0.9c0,0.7-0.9,1.3-1.3,1.7
		c0.1,0.2,0.2,0.3,0.4,0.3c0.1,0,0.3-0.1,0.3-0.1c0.1,0,0.2,0.1,0.2,0.2c0,0.3-0.7,1.5-1.1,1.5c-0.3,0-0.8-0.7-1-0.9
		c-0.8,0.5-1.6,1.1-2.6,1.1c-1.1,0-2-0.8-1.9-1.9c0.2-1.9,1.4-2.4,2.6-3.1c-0.3-1.9,1.8-3.4,3.3-3.4c0.6,0,1.2,0.5,1.2,1.1
		c0,0.7-0.5,1.2-1.1,1.6L123.6,30.5z M122.2,31.3c-0.6,0.2-1.7,1.3-1.7,1.9c0,0.2,0.4,0.2,0.6,0.2c0.6,0,1.2-0.3,1.8-0.6L122.2,31.3
		z M125.4,27.5c0-0.1-0.1-0.2-0.2-0.1c-1.3,0.2-1.5,1.2-1.8,2.1C124,29,125.4,28.2,125.4,27.5z"/> <path fill="#DEDDDD" d="M135.5,28.4c-0.9,0.1-1.8,0.3-2.6,0.6l0,0h0.3c0.1,0,0.6,0,0.6,0.1s-0.3,0.2-0.4,0.2
		c-0.6,0.1-1.4,0.5-2,0.5c-0.3,0-0.5-0.1-0.5-0.4c0-0.2,0.1-0.6,0.2-0.8c0.2-0.6,0.6-0.9,1.1-1.2c1.1-0.5,2.8-0.8,4.1-0.8
		c0.9,0,2.1,0.1,2.9,0.6c0.9,0.6,1.3,1.6,1.3,2.7c0,1.7-1.4,3.1-2.8,3.9c-1.3,0.7-3.5,1.3-5,1.3c-0.3,0-0.8,0-1-0.1
		s-0.3-0.4-0.3-0.6c0-0.9,0.6-1.7,1.2-2.3L135.5,28.4z M133.1,32.7c-0.4,0.5-0.3,0.7-0.3,0.8s0.2,0.2,0.7,0.2c0.8,0,1.9-0.2,2.8-0.5
		c2.5-0.9,3.4-2.2,3.4-3.2c0-1.5-2.5-1.6-3.5-1.6c-0.1,0.4-0.2,0.6-0.4,0.9L133.1,32.7z"/> <path fill="#DEDDDD" d="M144.5,33.2c-0.7,0.9-2.1,2-3.2,2c-0.9,0-1.3-0.8-1.3-1.6c0-1.6,1.7-3.2,3.2-3.2c0.4,0,0.9,0.1,0.9,0.6
		c0,0.6-0.6,1.5-2.9,2.2v0.3c0,0.5,0.4,0.6,0.7,0.6c0.9,0,1.9-0.9,2.5-1.4L144.5,33.2z M143,31.2c0-0.1-0.1-0.2-0.1-0.1
		c-0.6,0.2-1.3,0.7-1.6,1.5C142.3,32.3,143.1,31.4,143,31.2z"/> <path fill="#DEDDDD" d="M148.7,30.5c0.2,0,0.4,0.2,0.4,0.4c0,0.5-0.7,1.6-1,2c0.1,0.1,0.2,0.2,0.4,0.2c0.3,0,0.8-0.3,1-0.5l0.1,0.5
		c-0.4,0.5-0.9,0.9-1.5,0.9c-0.3,0-0.4-0.2-0.6-0.3c-0.3,0.4-1.5,1.4-2,1.4c-0.7,0-1.2-0.9-1.2-1.8c0-1.7,1.5-2.8,1.9-2.8
		c0.2,0,0.7,0,0.7,0.3c0,0.5-1.1,1.8-1.6,2.1c-0.1,0.2-0.2,0.5-0.2,0.7s0,0.5,0.3,0.5s1.3-0.9,1.5-1.1c0-0.6,0.3-1,0.6-1.4
		C147.8,31.2,148.3,30.5,148.7,30.5z"/> <path fill="#DEDDDD" d="M153.9,33.2c-0.7,0.9-2.1,2-3.2,2c-0.9,0-1.3-0.8-1.3-1.6c0-1.6,1.7-3.2,3.2-3.2c0.4,0,0.9,0.1,0.9,0.6
		c0,0.6-0.6,1.5-2.9,2.2v0.3c0,0.5,0.4,0.6,0.7,0.6c0.9,0,1.9-0.9,2.5-1.4L153.9,33.2z M152.4,31.2c0-0.1-0.1-0.2-0.1-0.1
		c-0.6,0.2-1.3,0.7-1.6,1.5C151.7,32.3,152.4,31.4,152.4,31.2z"/> <path fill="#DEDDDD" d="M157.6,33.2c-0.7,0.7-1.8,1.9-2.8,1.9c-0.9,0-1.1-0.9-1.1-1.6c0-1.3,0.5-2.6,1.3-3.6
		c1.1-1.3,2.2-2.4,2.6-2.4c0.2,0,0.3,0.3,0.2,0.4c-0.1,1.1-0.4,2.2-3,4.7c-0.1,0.2-0.1,0.5-0.1,0.8c0.1,0.3,0.3,0.5,0.6,0.5
		c0.7,0,1.6-0.8,2.1-1.2L157.6,33.2z M155.1,31.6c0.9-0.8,1.6-1.9,1.8-2.6C156.3,29.2,155.6,30.3,155.1,31.6L155.1,31.6z"/> <path fill="#DEDDDD" d="M162.2,33.2c-0.5,0.7-1.1,1-1.9,1c-0.5,0.5-1.1,0.9-1.8,0.9c-0.6,0-1.2-0.6-1.2-1.7c0-0.9,0.4-1.5,1.1-2
		c0.6-0.5,1.5-0.9,2.2-0.9c0.3,0,0.7,0.1,0.7,0.4c0,0.2-0.1,0.3-0.3,0.3c0.4,0.1,0.4,0.3,0.4,0.7c0,0.5-0.2,0.9-0.5,1.4
		c0.5,0.1,0.9-0.4,1.2-0.6L162.2,33.2z M158.6,32.6c-0.3,0.3-0.5,0.7-0.5,1.1c0,0.3,0.2,0.5,0.5,0.5c0.4,0,0.6-0.2,0.9-0.5
		c-0.1-0.2-0.1-0.3-0.1-0.6c0-0.6,0.6-1.4,0.5-1.4C159.5,32,158.9,32.2,158.6,32.6z"/> <path fill="#DEDDDD" d="M161.8,37c-0.1,0.2-0.3,0.5-0.5,0.5c-0.3,0-0.3-0.3-0.3-0.5c0-0.6,0.3-1.2,0.7-1.9c0.6-0.8,1.2-1.8,1.9-3.1
		l0,0l-1.9,1.8v-0.6l3.2-3.4c0.3-0.3,0.5-0.7,1-0.7c0.2,0,0.6,0.1,0.6,0.3c0,0.3-0.6,0.8-0.8,1c-0.4,0.4-0.8,0.9-1,1.4l0,0
		c0.5-0.4,1.7-1.2,2.4-1.2c0.3,0,0.5,0.3,0.5,0.6c0,0.7-0.6,1.5-1.9,2.7c1,0.1,1.3-0.1,2.6-1.2l0.1,0.6c-0.9,0.9-2,1.7-3.3,1.7
		c-0.3,0-0.6-0.1-0.9-0.2c-0.2,0-0.4,0.1-0.6,0.1c-0.2,0-0.3,0-0.5-0.1L161.8,37z M165.6,32.7c0.1-0.2,0.3-0.4,0.3-0.6
		c0-0.1,0-0.2-0.1-0.2c-0.2,0-0.8,0.4-0.9,0.5c-0.4,0.3-0.8,0.7-1.1,1.2c0.3,0,0.7,0,1,0.1L165.6,32.7z"/> <path fill="#DEDDDD" d="M172.4,33.2c-0.7,0.9-2.1,2-3.2,2c-0.9,0-1.3-0.8-1.3-1.6c0-1.6,1.7-3.2,3.2-3.2c0.4,0,0.9,0.1,0.9,0.6
		c0,0.6-0.6,1.5-2.9,2.2v0.3c0,0.5,0.4,0.6,0.7,0.6c0.9,0,1.9-0.9,2.5-1.4L172.4,33.2z M170.9,31.2c0-0.1-0.1-0.2-0.1-0.1
		c-0.6,0.2-1.3,0.7-1.6,1.5C170.2,32.3,170.9,31.4,170.9,31.2z"/> <path fill="#DEDDDD" d="M173.1,32.4c-0.4,0.7-0.9,1-1.4,1.5v-0.5c0.3-0.3,0.6-0.6,0.8-0.9c-0.3,0-0.3-0.1-0.3-0.4
		c0-0.9,1.2-1.7,1.5-1.7c0.1,0,0.2,0.1,0.2,0.2s0,0.2-0.1,0.3c1.1-0.2,1.8-0.3,1.9-0.2c0.2,0.2,0.3,0.4,0.3,0.6
		c0,0.4-0.2,0.6-0.5,0.8c-0.3,0.3-0.9,0.9-0.9,1.4c0,0.2,0.2,0.3,0.4,0.3c0.5,0,1.3-0.8,1.7-1.1l0.1,0.4c-0.5,0.5-1.8,1.8-2.5,1.8
		c-0.5,0-0.8-0.5-0.8-0.9c0-0.8,0.6-1.5,1.1-2l0,0L173.1,32.4z"/> </g> <g id="headline-schneiderman"> <path fill="#88E2CA" d="M77.3,14.1L78,13c0.2-0.3,0.5-0.3,0.6-0.1c0.1,0.1,1.6,1.2,2.8,1.2c1,0,1.7-0.6,1.7-1.4
		c0-1-0.8-1.6-2.4-2.3c-1.8-0.7-3.5-1.8-3.5-4.1c0-1.7,1.2-3.6,4.2-3.6c1.9,0,3.4,1,3.8,1.3c0.2,0.1,0.2,0.4,0.1,0.6l-0.7,1.1
		C84.5,5.8,84.2,6,84,5.8c-0.2-0.1-1.6-1-2.6-1c-1.1,0-1.7,0.7-1.7,1.3c0,0.9,0.7,1.5,2.2,2.1c1.8,0.7,3.9,1.8,3.9,4.3
		c0,1.9-1.7,3.7-4.3,3.7c-2.4,0-3.8-1.1-4.1-1.5C77.2,14.5,77.1,14.5,77.3,14.1z"/> <path fill="#88E2CA" d="M94.1,2.6c1.9,0,3.3,0.6,4.6,1.7c0.2,0.2,0.2,0.4,0,0.5L97.6,6c-0.1,0.2-0.3,0.2-0.5,0
		c-0.8-0.6-1.9-1-2.9-1C91.8,5,90,7,90,9.4s1.8,4.3,4.2,4.3c1.1,0,2.1-0.4,2.9-1.1c0.2-0.1,0.4-0.1,0.5,0l1.2,1.2
		c0.2,0.1,0.1,0.4,0,0.5c-1.3,1.2-2.9,1.8-4.6,1.8c-3.8,0-6.8-3-6.8-6.8C87.3,5.7,90.4,2.6,94.1,2.6z"/> <path fill="#88E2CA" d="M101.2,3.2c0-0.2,0.2-0.4,0.4-0.4h1.8c0.2,0,0.4,0.2,0.4,0.4v5h6.1v-5c0-0.2,0.2-0.4,0.4-0.4h1.7
		c0.2,0,0.4,0.2,0.4,0.4v12.5c0,0.2-0.2,0.4-0.4,0.4h-1.7c-0.2,0-0.4-0.2-0.4-0.4v-5.2h-6.1v5.2c0,0.2-0.2,0.4-0.4,0.4h-1.8
		c-0.2,0-0.4-0.2-0.4-0.4V3.2z"/> <path fill="#88E2CA" d="M115.6,3c0-0.2,0.2-0.3,0.4-0.3h0.5l7.8,8.3l0,0V3.2c0-0.2,0.2-0.4,0.4-0.4h1.7c0.2,0,0.4,0.2,0.4,0.4v12.7
		c0,0.2-0.2,0.3-0.4,0.3h-0.5L118,7.6l0,0v8.1c0,0.2-0.2,0.4-0.4,0.4H116c-0.2,0-0.4-0.2-0.4-0.4V3z"/> <path fill="#88E2CA" d="M130.2,3.2c0-0.2,0.2-0.4,0.4-0.4h7.7c0.2,0,0.4,0.2,0.4,0.4v1.5c0,0.2-0.2,0.4-0.4,0.4h-5.6v3.1h4.6
		c0.2,0,0.4,0.2,0.4,0.4v1.6c0,0.2-0.2,0.4-0.4,0.4h-4.6v3.3h5.6c0.2,0,0.4,0.2,0.4,0.4v1.5c0,0.2-0.2,0.4-0.4,0.4h-7.7
		c-0.2,0-0.4-0.2-0.4-0.4V3.2z"/> <path fill="#88E2CA" d="M141.2,3.2c0-0.2,0.2-0.4,0.4-0.4h1.8c0.2,0,0.4,0.2,0.4,0.4v12.5c0,0.2-0.2,0.4-0.4,0.4h-1.8
		c-0.2,0-0.4-0.2-0.4-0.4V3.2z"/> <path fill="#88E2CA" d="M147.1,3.2c0-0.2,0.2-0.4,0.3-0.4h4.5c3.6,0,6.6,3,6.6,6.6s-3,6.6-6.6,6.6h-4.5c-0.2,0-0.3-0.2-0.3-0.4V3.2
		z M151.7,13.7c2.4,0,4.2-1.8,4.2-4.3c0-2.4-1.8-4.3-4.2-4.3h-2.1v8.6H151.7z"/> <path fill="#88E2CA" d="M161,3.2c0-0.2,0.2-0.4,0.4-0.4h7.7c0.2,0,0.4,0.2,0.4,0.4v1.5c0,0.2-0.2,0.4-0.4,0.4h-5.6v3.1h4.6
		c0.2,0,0.4,0.2,0.4,0.4v1.6c0,0.2-0.2,0.4-0.4,0.4h-4.6v3.3h5.6c0.2,0,0.4,0.2,0.4,0.4v1.5c0,0.2-0.2,0.4-0.4,0.4h-7.7
		c-0.2,0-0.4-0.2-0.4-0.4V3.2z"/> <path fill="#88E2CA" d="M172.1,3.2c0-0.2,0.2-0.4,0.4-0.4h5.4c2.3,0,4.1,1.8,4.1,4c0,1.7-1.1,3.1-2.8,3.8l2.6,4.8
		c0.1,0.2,0,0.5-0.3,0.5h-2c-0.2,0-0.3-0.1-0.3-0.2l-2.5-5h-2.1v4.8c0,0.2-0.2,0.4-0.4,0.4h-1.7c-0.2,0-0.4-0.2-0.4-0.4V3.2z
		 M177.6,8.8c1,0,1.9-0.9,1.9-1.9s-0.9-1.8-1.9-1.8h-3.1v3.7H177.6z"/> <path fill="#88E2CA" d="M186,2.9c0-0.2,0.1-0.3,0.3-0.3h0.3c0.2,0,0.3,0.1,0.3,0.2l4.1,8.9c0,0,0,0,0.1,0l4.1-8.9
		c0.1-0.1,0.2-0.2,0.3-0.2h0.3c0.2,0,0.3,0.1,0.3,0.3l2.2,12.6c0.1,0.3-0.1,0.4-0.3,0.4h-1.7c-0.2,0-0.3-0.2-0.4-0.3l-1.1-7.1h-0.1
		l-3.3,7.4c0,0.1-0.2,0.2-0.3,0.2h-0.3c-0.2,0-0.3-0.1-0.3-0.2l-3.3-7.4c0,0,0,0-0.1,0l-1.1,7.1c0,0.1-0.2,0.3-0.3,0.3H184
		c-0.2,0-0.4-0.2-0.4-0.4L186,2.9z"/> <path fill="#88E2CA" d="M199.3,15.5l5.9-12.7c0.1-0.1,0.2-0.2,0.3-0.2h0.2c0.2,0,0.3,0.1,0.3,0.2l5.8,12.7c0.1,0.2,0,0.5-0.3,0.5
		h-1.6c-0.3,0-0.4-0.1-0.5-0.4l-0.9-2h-5.6l-0.9,2c-0.1,0.2-0.2,0.4-0.5,0.4h-1.6C199.4,16,199.2,15.7,199.3,15.5z M207.4,11.5
		l-1.9-4.1h-0.1l-1.8,4.1H207.4z"/> <path fill="#88E2CA" d="M213.5,3c0-0.2,0.2-0.3,0.4-0.3h0.5l7.8,8.3l0,0V3.2c0-0.2,0.2-0.4,0.4-0.4h1.7c0.2,0,0.4,0.2,0.4,0.4v12.7
		c0,0.2-0.2,0.3-0.4,0.3h-0.5l-7.9-8.6l0,0v8.1c0,0.2-0.2,0.4-0.4,0.4h-1.7c-0.2,0-0.4-0.2-0.4-0.4L213.5,3L213.5,3z"/> </g> <g id="headline-robert"> <path fill="#FFFFFF" d="M1.7,3.2c0-0.2,0.2-0.4,0.4-0.4h5.4c2.3,0,4.1,1.8,4.1,4c0,1.7-1.1,3.1-2.8,3.8l2.6,4.8
		c0.1,0.2,0,0.5-0.3,0.5H9c-0.2,0-0.3-0.1-0.3-0.2l-2.5-5h-2v4.8C4.2,15.8,4,16,3.8,16H2.1c-0.2,0-0.4-0.2-0.4-0.4
		C1.7,15.6,1.7,3.2,1.7,3.2z M7.2,8.8c1,0,1.9-0.9,1.9-1.9S8.2,5.1,7.2,5.1h-3v3.7H7.2z"/> <path fill="#FFFFFF" d="M20.1,2.6c3.8,0,6.8,3,6.8,6.8s-3,6.8-6.8,6.8s-6.8-3-6.8-6.8C13.3,5.7,16.3,2.6,20.1,2.6z M20.1,13.7
		c2.4,0,4.3-1.9,4.3-4.3s-2-4.3-4.3-4.3c-2.4,0-4.3,2-4.3,4.3S17.7,13.7,20.1,13.7z"/> <path fill="#FFFFFF" d="M29.3,3.2c0-0.2,0.2-0.4,0.4-0.4H34c2.2,0,4,1.5,4,3.5c0,1.4-1.2,2.6-2.1,3c1,0.3,2.4,1.3,2.4,3.1
		c0,2.1-1.8,3.6-4.1,3.6h-4.6c-0.2,0-0.4-0.2-0.4-0.4L29.3,3.2L29.3,3.2z M33.7,8.4c1,0,1.6-0.8,1.6-1.7s-0.7-1.6-1.6-1.6h-2v3.3
		H33.7z M34,13.8c0.9,0,1.7-0.7,1.7-1.7c0-0.9-0.9-1.6-1.9-1.6h-2.1v3.3H34z"/> <path fill="#FFFFFF" d="M40.9,3.2c0-0.2,0.2-0.4,0.4-0.4H49c0.2,0,0.4,0.2,0.4,0.4v1.5c0,0.2-0.2,0.4-0.4,0.4h-5.6v3.1H48
		c0.2,0,0.4,0.2,0.4,0.4v1.6c0,0.2-0.2,0.4-0.4,0.4h-4.6v3.3H49c0.2,0,0.4,0.2,0.4,0.4v1.5c0,0.2-0.2,0.4-0.4,0.4h-7.7
		c-0.2,0-0.4-0.2-0.4-0.4C40.9,15.8,40.9,3.2,40.9,3.2z"/> <path fill="#FFFFFF" d="M52,3.2c0-0.2,0.2-0.4,0.4-0.4h5.4c2.3,0,4.1,1.8,4.1,4c0,1.7-1.1,3.1-2.8,3.8l2.6,4.8
		c0.1,0.2,0,0.5-0.3,0.5h-2c-0.2,0-0.3-0.1-0.3-0.2l-2.5-5h-2.1v4.8c0,0.2-0.2,0.4-0.4,0.4h-1.7c-0.2,0-0.4-0.2-0.4-0.4V3.2z
		 M57.5,8.8c1,0,1.9-0.9,1.9-1.9s-0.9-1.8-1.9-1.8h-3.1v3.7H57.5z"/> <path fill="#FFFFFF" d="M66.3,5.1h-2.9c-0.2,0-0.4-0.2-0.4-0.4V3.2c0-0.2,0.2-0.4,0.4-0.4h8.2C71.8,2.8,72,3,72,3.2v1.5
		c0,0.2-0.2,0.4-0.4,0.4h-2.9v10.6c0,0.2-0.2,0.4-0.4,0.4h-1.8c-0.2,0-0.4-0.2-0.4-0.4V5.1H66.3z"/> </g> </symbol><symbol viewBox="0 9.1 100 81.9" id="house"><title>house</title> <g> <path d="M99.4,52.5l-10.8-9.8V19.4c0-1-0.8-1.8-1.8-1.8h-9.5c-0.5,0-0.9,0.2-1.3,0.5c-0.3,0.3-0.5,0.8-0.5,1.3l0,11.4L52,9.5
		c-0.7-0.6-1.7-0.6-2.4,0l-49,43.1c-0.6,0.5-0.8,1.4-0.4,2.2c0.4,0.7,1.2,1.1,2,0.9l10.9-2.5v33.6c0,0.3,0,1.8,1.1,2.9
		c0.5,0.5,1.4,1.1,2.8,1.1c2.6,0,24.3,0,24.3,0c1,0,1.8-0.8,1.8-1.8l0-20.1c0-0.2,0-0.8,0.3-1.1c0.2-0.2,0.5-0.2,0.8-0.2h10.1
		c0.5,0,1.1,0.1,1.4,0.4c0.3,0.4,0.3,1,0.3,1.1l0,19.8c0,0.5,0.2,0.9,0.5,1.3c0.3,0.3,0.8,0.5,1.3,0.5h23.8c1.6,0,2.6-0.7,3.2-1.3
		c1.3-1.3,1.2-3.1,1.2-3.3V52.8l11.9,2.8c0.8,0.2,1.6-0.2,2-0.9C100.2,53.9,100,53,99.4,52.5z M79.1,21.2H85v18.2l-5.8-5.3
		L79.1,21.2z M84.4,48.7c-0.5-0.1-1.1,0-1.5,0.3c-0.4,0.3-0.7,0.9-0.7,1.4v35.9c0,0.2-0.1,0.6-0.2,0.7c-0.1,0.1-0.4,0.1-0.5,0.1h-22
		l0-17.9c0-0.2,0.1-2.2-1.3-3.7c-0.7-0.7-1.9-1.6-4.1-1.6H44.1c-1.8,0-2.9,0.8-3.5,1.4c-1.2,1.4-1.2,3.2-1.2,3.8l0,18
		c-5.3,0-20.3,0-22.5,0c-0.1,0-0.1,0-0.1,0c0,0,0,0,0,0c0-0.1-0.1-0.2-0.1-0.3V51.1c0-0.6-0.3-1.1-0.7-1.4c-0.4-0.3-1-0.5-1.5-0.4
		l-6.2,1.4l42.4-37.4l24.8,22.4v0.1h0.1l16.1,14.6L84.4,48.7z"/> </g> </symbol><symbol viewBox="6.5 4.4 470 470" id="link"><title>link</title> <g> <path d="M241.5,474.4c-62.8,0-121.8-24.4-166.2-68.8S6.5,302.1,6.5,239.4c0-62.8,24.4-121.8,68.8-166.2
		C119.7,28.8,178.7,4.4,241.5,4.4s121.8,24.4,166.2,68.8c44.4,44.4,68.8,103.4,68.8,166.2c0,62.8-24.4,121.8-68.8,166.2
		S304.3,474.4,241.5,474.4z M241.5,25.4c-57.2,0-110.9,22.3-151.3,62.7c-40.4,40.4-62.7,94.2-62.7,151.3
		c0,57.2,22.3,110.9,62.7,151.3c40.4,40.4,94.2,62.7,151.3,62.7s110.9-22.3,151.3-62.7c40.4-40.4,62.7-94.2,62.7-151.3
		c0-57.2-22.3-110.9-62.7-151.3C352.4,47.6,298.7,25.4,241.5,25.4z"/> </g> <g> <path d="M369.7,215.3l-77.2,77.2c-21.3,21.3-55.9,21.3-77.2,0l-25.7-25.7l25.7-25.7l25.7,25.7c7.1,7.1,18.6,7.1,25.7,0l77.2-77.2
		c7.1-7.1,7.1-18.6,0-25.7l-25.7-25.7c-7.1-7.1-18.6-7.1-25.7,0L265,165.7c-12.8-7.5-27.3-10.7-41.7-9.8l43.5-43.5
		c21.3-21.3,55.9-21.3,77.2,0l25.7,25.7C391,159.5,391,194,369.7,215.3z M217.2,316.4L189.6,344c-7.1,7.1-18.6,7.1-25.7,0
		l-25.7-25.7c-7.1-7.1-7.1-18.6,0-25.7l77.2-77.2c7.1-7.1,18.6-7.1,25.7,0l25.7,25.7l25.7-25.7l-25.7-25.7
		c-21.3-21.3-55.9-21.3-77.2,0l-77.2,77.2c-21.3,21.3-21.3,55.9,0,77.2l25.7,25.7c21.3,21.3,55.9,21.3,77.2,0l43.5-43.5
		C244.5,327.2,230,323.9,217.2,316.4z"/> </g> </symbol><symbol viewBox="0 0 512 512" id="linkedin"><title>linkedin</title><g id="linkedin-g5891"><rect height="512" id="linkedin-rect2987" rx="64" ry="64" style="fill:#0083be;fill-opacity:1;fill-rule:nonzero;stroke:none" width="512" x="0" y="5.6843419e-014"/><g id="linkedin-g9-1" transform="matrix(1.5537946,0,0,1.5537946,-140.87332,-132.64552)"><rect height="166.021" id="linkedin-rect11" style="fill:#ffffff" width="55.194" x="129.957" y="200.35699"/><path d="m 157.927,120.303 c -18.884,0 -31.222,12.415 -31.222,28.687 0,15.93 11.963,28.687 30.491,28.687 h 0.357 c 19.245,0 31.224,-12.757 31.224,-28.687 -0.357,-16.272 -11.978,-28.687 -30.85,-28.687 z" id="linkedin-path13-0" style="fill:#ffffff"/><path d="m 320.604,196.453 c -29.277,0 -42.391,16.101 -49.734,27.41 v -23.506 h -55.18 c 0.732,15.573 0,166.021 0,166.021 h 55.179 V 273.66 c 0,-4.963 0.357,-9.924 1.82,-13.471 3.982,-9.911 13.068,-20.178 28.313,-20.178 19.959,0 27.955,15.23 27.955,37.539 v 88.828 h 55.182 v -95.206 c 0,-50.996 -27.227,-74.719 -63.535,-74.719 z" id="linkedin-path15" style="fill:#ffffff"/></g></g></symbol><symbol viewBox="0 0 161.7 33.3" id="logo"><title>logo</title> <text transform="matrix(1 0 0 1 7.629395e-05 11.424)"><tspan x="0" y="0" fill="#FFFFFF" font-family="&apos;BrandonGrotesque-Bold&apos;" font-size="13.44">ROBERT</tspan><tspan x="51.6" y="0" font-family="&apos;BrandonGrotesque-Bold&apos;" font-size="13.44"> </tspan><tspan x="54.6" y="0" fill="#77C9B5" font-family="&apos;BrandonGrotesque-Bold&apos;" font-size="13.44">SCHNEIDERMAN</tspan></text> <text transform="matrix(1 0 0 1 17.4211 29.9302)" fill="#DEDDDD" font-family="&apos;BrushScriptStd&apos;" font-size="12">Web Designer &amp; Developer</text> </symbol><symbol viewBox="0 16.9 100 66.3" id="mail"><title>mail</title> <g> <path d="M0,16.9v66.3h100V16.9H0z M50,57.8l-41-36h82L50,57.8z M33.7,50L4.9,75.2V24.7L33.7,50z M37.4,53.3L50,64.3l12.6-11.1
		l28.4,25H9L37.4,53.3z M66.3,50l28.7-25.2v50.5L66.3,50z"/> </g> </symbol><symbol viewBox="3 0 71 71" id="pdf"><title>pdf</title> <g> <path fill="#434440" d="M71.1,18.1l-12.9-15L55.7,0H24.9c-4.1,0-7.4,3.3-7.4,7.4v9.5h4.5V9.3C22.1,6.9,24,5,26.3,5h26.2v12.4
		c0,4.5,3.8,8.3,8.3,8.3h9.1l-0.5,35.7c0,2.4-1.9,4.1-4.3,4.3H25.9c-2.1,0-3.8-2.1-3.8-4.5v-3.1h-4.5v4.5c0,4.5,3.1,8.3,6.7,8.3
		h42.4c4.1,0,7.4-3.3,7.4-7.4V21.4L71.1,18.1"/> <path fill="#EA4C3A" d="M50.9,60.5H3v-46h47.9V60.5 M7.5,55.8h38.8V19.3H7.5"/> <path fill="none" stroke="#EA4C3A" stroke-width="0.75" stroke-linejoin="round" stroke-miterlimit="10" d="M27.5,21.7
		c0.7,0.2,0.5,0.7,0.2,2.9c-0.2,2.1-1,6.2-2.4,10s-3.6,7.6-5.5,10.5c-1.9,2.9-3.6,4.5-4.8,5.7c-1.2,1-2.1,1.4-2.6,1.4
		c-0.5,0-0.7,0-1-0.2c-0.2-0.2-0.2-0.7,0-1.4c0.2-0.5,0.5-1.2,1.2-2.1c1-1,2.4-1.9,4.3-2.9s4.5-1.9,6.7-2.4c2.1-0.5,3.8-1,5-1.2
		c1.4-0.2,2.6-0.5,3.8-0.5c1.2,0,2.4,0,3.6,0s2.1,0.2,3.1,0.5c1,0.2,1.7,0.5,2.4,1c0.7,0.5,1.4,1,1.7,1.7c0.2,0.7,0.2,1.4,0,1.9
		c-0.2,0.5-0.7,1-1.4,1c-0.5,0.2-1.2,0.2-2.1,0C39,47.2,38,46.7,37.1,46c-1-0.7-1.9-1.4-3.3-2.9c-1.4-1.4-2.9-3.1-4.3-4.8
		s-2.4-3.3-3.3-4.8c-0.7-1.4-1.2-2.6-1.4-3.8c0-1.2-0.2-2.4-0.2-3.3c0-1,0-1.9,0-2.6s0.2-1.4,0.5-1.7c0.2-0.5,0.7-0.7,1-0.7
		c0.2,0,0.5,0,0.5,0c0.2,0,0.2,0,0.5,0C27.1,21.4,27.3,21.4,27.5,21.7"/> </g> </symbol><symbol viewBox="0 0.1 100 99.8" id="phone"><title>phone</title> <g> <g> <path d="M97.8,79L82.3,63.6c-3.1-3.1-8.2-3-11.4,0.2l-7.8,7.8c-0.5-0.3-1-0.6-1.5-0.9C56.7,68,50,64.3,42.9,57.2
			c-7.1-7.1-10.8-13.8-13.6-18.7c-0.3-0.5-0.6-1-0.8-1.5l5.2-5.2l2.6-2.6c3.2-3.2,3.3-8.3,0.2-11.4L21.1,2.4
			c-3.1-3.1-8.2-3-11.4,0.2L5.4,6.9l0.1,0.1c-1.5,1.9-2.7,4-3.6,6.3c-0.8,2.2-1.4,4.3-1.6,6.4C-1.7,36.7,6,52.2,27,73.1
			c29,29,52.3,26.8,53.3,26.7c2.2-0.3,4.3-0.8,6.4-1.6c2.3-0.9,4.4-2.1,6.3-3.6l0.1,0.1l4.4-4.3C100.7,87.2,100.8,82.1,97.8,79z
			 M94.1,87l-1.9,1.9l-0.8,0.7c-1.2,1.2-3.3,2.8-6.4,4c-1.7,0.7-3.5,1.1-5.2,1.3c-0.2,0-22.2,1.9-49.4-25.3
			C7.3,46.6,3.6,33.3,5.1,20.4c0.2-1.7,0.6-3.4,1.3-5.2c1.2-3.1,2.9-5.2,4-6.4L13.2,6c1.3-1.3,3.3-1.4,4.5-0.2l15.4,15.4
			c1.2,1.2,1.1,3.2-0.2,4.5L22.5,36.2l1,1.6c0.5,0.9,1.1,1.9,1.7,3C28,46,31.9,53,39.5,60.6c7.6,7.6,14.6,11.5,19.8,14.3
			c1.1,0.6,2.1,1.2,3,1.7l1.6,1l10.4-10.4c1.3-1.3,3.3-1.4,4.5-0.2l15.4,15.4C95.5,83.6,95.4,85.7,94.1,87z"/> </g> </g> </symbol><symbol viewBox="0 0 1002 136.6" id="progress-bar"><title>progress-bar</title> <path fill="#F24141" d="M13,134.8h-1c-5.8,0-10.5-4.7-10.5-10.5v-113C1.5,5.5,6.2,0.8,12,0.8h1c5.8,0,10.5,4.7,10.5,10.5v113
	C23.5,130.1,18.8,134.8,13,134.8z"/> <path id="progress-bar-bar" fill="none" stroke="#000000" stroke-width="2" stroke-miterlimit="10" d="M989.1,135.6H12.9
	c-6.6,0-11.9-5.3-11.9-11.9V12.9C1,6.3,6.3,1,12.9,1h976.1c6.6,0,11.9,5.3,11.9,11.9v110.7C1001,130.3,995.7,135.6,989.1,135.6z"/> <rect id="progress-bar-progress" x="13.5" y="1.8" fill="#F24141" width="10" height="133"/> </symbol><symbol viewBox="0 0 23.48 23.48" id="skills"><title>skills</title> <g> <g> <g> <g> <path d="M13.008,23.247h-2.434c-0.464,0-0.598,0-1.862-3.128l-0.843-0.343      c-2.598,1.179-2.91,1.179-3.044,1.179c-0.172,0-0.365-0.075-0.486-0.196l-1.721-1.685c-0.343-0.338-0.431-0.425,0.934-3.521      l-0.34-0.803C0,13.601,0,13.462,0,12.981v-2.385c0-0.477,0-0.599,3.201-1.838l0.34-0.805C2.1,4.916,2.199,4.818,2.545,4.477      l1.724-1.685C4.39,2.674,4.583,2.599,4.753,2.599c0.125,0,0.45,0,3.092,1.115l0.838-0.341c1.175-3.141,1.324-3.141,1.789-3.141      h2.434c0.463,0,0.598,0,1.861,3.13l0.842,0.34c2.596-1.176,2.908-1.176,3.044-1.176c0.171,0,0.363,0.074,0.484,0.192      l1.725,1.683c0.336,0.331,0.431,0.425-0.934,3.523l0.339,0.808c3.213,1.147,3.213,1.285,3.213,1.764v2.384      c0,0.478-0.001,0.601-3.203,1.841l-0.338,0.805c1.442,3.035,1.342,3.134,0.999,3.475l-1.728,1.688      c-0.122,0.119-0.314,0.193-0.484,0.193l0,0c-0.123,0-0.446,0-3.088-1.117l-0.842,0.341      C13.621,23.247,13.484,23.247,13.008,23.247z M10.924,21.945h1.725c0.23-0.492,0.673-1.604,1.029-2.562      c0.063-0.171,0.196-0.308,0.365-0.376l1.357-0.55c0.159-0.064,0.34-0.063,0.499,0.005c0.976,0.415,2.129,0.879,2.651,1.055      l1.208-1.184c-0.194-0.512-0.684-1.596-1.119-2.509c-0.079-0.167-0.084-0.361-0.013-0.533l0.559-1.328      c0.069-0.163,0.201-0.292,0.366-0.354c0.983-0.38,2.127-0.849,2.628-1.087v-1.656c-0.507-0.226-1.642-0.656-2.618-1.003      c-0.173-0.061-0.312-0.191-0.383-0.361l-0.559-1.33c-0.069-0.166-0.068-0.353,0.005-0.517c0.418-0.943,0.884-2.058,1.067-2.577      l-1.209-1.181c-0.518,0.187-1.641,0.671-2.589,1.104c-0.161,0.074-0.349,0.079-0.514,0.011l-1.357-0.548      c-0.163-0.066-0.295-0.197-0.36-0.361c-0.387-0.963-0.864-2.083-1.108-2.571H10.83c-0.231,0.493-0.673,1.605-1.028,2.562      C9.74,4.266,9.606,4.404,9.437,4.471l-1.353,0.55c-0.161,0.065-0.34,0.064-0.5-0.004C6.608,4.602,5.451,4.138,4.93,3.965      L3.722,5.147C3.917,5.66,4.404,6.744,4.84,7.659c0.08,0.167,0.083,0.361,0.012,0.533L4.29,9.519      c-0.069,0.163-0.2,0.291-0.365,0.354C2.942,10.252,1.8,10.719,1.3,10.957v1.657c0.505,0.228,1.641,0.659,2.618,1.007      c0.172,0.062,0.311,0.193,0.381,0.36l0.558,1.327c0.07,0.165,0.067,0.351-0.004,0.515c-0.418,0.944-0.884,2.059-1.067,2.577      l1.208,1.182c0.517-0.188,1.64-0.672,2.589-1.104c0.162-0.074,0.348-0.078,0.514-0.012l1.357,0.551      c0.165,0.066,0.294,0.196,0.359,0.36C10.202,20.34,10.68,21.459,10.924,21.945z M11.74,15.87c-2.319,0-4.207-1.854-4.207-4.13      c0-2.275,1.888-4.127,4.207-4.127c2.318,0,4.205,1.852,4.205,4.127C15.945,14.016,14.058,15.87,11.74,15.87z M11.74,8.914      c-1.602,0-2.905,1.268-2.905,2.826c0,1.561,1.303,2.829,2.905,2.829s2.904-1.269,2.904-2.829      C14.644,10.181,13.342,8.914,11.74,8.914z"/> </g> </g> </g> </g>                </symbol><symbol viewBox="0 0 26 26" id="technologies"><title>technologies</title> <g> <path d="M8.083,11.222L6.419,15c-0.041,0.094-0.144,0.154-0.257,0.154H5.31   c-0.113,0-0.216-0.061-0.256-0.154l-0.79-1.803c-0.077-0.178-0.147-0.348-0.213-0.517c-0.073,0.186-0.148,0.359-0.223,0.525   l-0.833,1.8c-0.042,0.091-0.144,0.149-0.255,0.149H1.888c-0.117,0-0.219-0.063-0.259-0.158l-1.557-3.779   c-0.03-0.074-0.018-0.156,0.034-0.221s0.135-0.103,0.225-0.103H1.29c0.121,0,0.227,0.069,0.263,0.169l0.684,1.92   c0.057,0.162,0.11,0.315,0.159,0.461c0.06-0.146,0.125-0.3,0.194-0.463l0.842-1.932c0.041-0.093,0.143-0.155,0.256-0.155H4.48   c0.115,0,0.217,0.063,0.258,0.157l0.798,1.89c0.072,0.17,0.136,0.329,0.195,0.479c0.049-0.142,0.106-0.296,0.171-0.465l0.737-1.898   c0.038-0.098,0.143-0.164,0.26-0.164h0.926c0.091,0,0.175,0.039,0.227,0.104C8.105,11.064,8.115,11.147,8.083,11.222z    M17.005,11.222L15.341,15c-0.041,0.094-0.144,0.154-0.256,0.154h-0.854c-0.113,0-0.215-0.061-0.256-0.154l-0.789-1.803   c-0.078-0.178-0.148-0.348-0.214-0.517c-0.073,0.186-0.148,0.359-0.223,0.525l-0.833,1.8c-0.042,0.091-0.143,0.149-0.255,0.149   h-0.853c-0.116,0-0.219-0.063-0.259-0.158l-1.557-3.779c-0.03-0.074-0.018-0.156,0.034-0.221c0.052-0.064,0.136-0.103,0.225-0.103   h0.959c0.121,0,0.227,0.069,0.263,0.169l0.683,1.92c0.057,0.162,0.11,0.315,0.161,0.461c0.059-0.146,0.123-0.3,0.192-0.463   l0.843-1.932c0.04-0.093,0.142-0.155,0.256-0.155H13.4c0.115,0,0.218,0.063,0.258,0.157l0.799,1.89   c0.071,0.17,0.135,0.329,0.193,0.479c0.051-0.142,0.106-0.296,0.172-0.465l0.737-1.898c0.038-0.098,0.144-0.164,0.261-0.164h0.926   c0.092,0,0.177,0.039,0.227,0.104C17.026,11.064,17.038,11.147,17.005,11.222z M25.926,11.222L24.263,15   c-0.042,0.094-0.144,0.154-0.257,0.154h-0.853c-0.113,0-0.216-0.061-0.256-0.154l-0.789-1.803   c-0.078-0.178-0.148-0.348-0.214-0.517c-0.073,0.186-0.149,0.359-0.224,0.525l-0.833,1.8c-0.042,0.091-0.144,0.149-0.255,0.149   H19.73c-0.117,0-0.22-0.063-0.26-0.158l-1.557-3.779c-0.029-0.074-0.019-0.156,0.033-0.221s0.136-0.103,0.226-0.103h0.96   c0.121,0,0.227,0.069,0.262,0.169l0.684,1.92c0.057,0.162,0.11,0.315,0.16,0.461c0.059-0.146,0.123-0.3,0.192-0.463l0.843-1.932   c0.041-0.093,0.143-0.155,0.257-0.155h0.791c0.115,0,0.218,0.063,0.258,0.157l0.798,1.89c0.072,0.17,0.137,0.329,0.196,0.479   c0.049-0.142,0.106-0.296,0.171-0.465l0.738-1.898c0.037-0.098,0.142-0.164,0.26-0.164h0.926c0.092,0,0.176,0.039,0.227,0.104   C25.946,11.064,25.958,11.147,25.926,11.222z"/> <g> <path d="M2.71,9c0.283-0.718,0.637-1.401,1.057-2.037C3.829,6.975,3.887,7,3.952,7h1.88    c-0.199,0.634-0.355,1.309-0.49,2h2.055c0.155-0.699,0.335-1.376,0.562-2h9.986c0.227,0.624,0.407,1.301,0.562,2h2.055    c-0.135-0.691-0.291-1.366-0.49-2h1.88c0.065,0,0.123-0.025,0.186-0.037C22.556,7.599,22.911,8.282,23.194,9h2.121    c-1.691-5.216-6.591-9-12.363-9S2.28,3.784,0.588,9H2.71z M20.478,5H19.29c-0.258-0.543-0.542-1.05-0.851-1.519    C19.179,3.909,19.861,4.419,20.478,5z M12.952,2c1.551,0,2.983,1.154,4.062,3H8.89C9.969,3.154,11.401,2,12.952,2z M7.463,3.481    C7.155,3.95,6.871,4.457,6.613,5H5.426C6.043,4.419,6.725,3.909,7.463,3.481z"/> <path d="M23.194,17c-0.283,0.719-0.638,1.4-1.057,2.037C22.075,19.025,22.017,19,21.952,19h-1.881    c0.199-0.634,0.355-1.309,0.49-2h-2.055c-0.154,0.699-0.335,1.377-0.562,2H7.959c-0.227-0.623-0.407-1.301-0.562-2H5.343    c0.135,0.691,0.291,1.366,0.49,2H3.952c-0.065,0-0.123,0.025-0.185,0.037C3.348,18.4,2.993,17.719,2.71,17H0.588    c1.692,5.216,6.592,9,12.364,9s10.672-3.784,12.363-9H23.194z M5.426,21h1.188c0.258,0.543,0.542,1.051,0.85,1.519    C6.725,22.091,6.043,21.581,5.426,21z M12.952,24c-1.551,0-2.983-1.154-4.062-3h8.123C15.935,22.846,14.503,24,12.952,24z     M18.44,22.519c0.309-0.468,0.593-0.976,0.851-1.519h1.188C19.861,21.581,19.179,22.091,18.44,22.519z"/> </g> </g>                </symbol><symbol viewBox="0 0 32 32" id="twitter"><title>twitter</title><g><path d="M32,30c0,1.104-0.896,2-2,2H2c-1.104,0-2-0.896-2-2V2c0-1.104,0.896-2,2-2h28c1.104,0,2,0.896,2,2V30z" fill="#55ACEE"/><path d="M25.987,9.894c-0.736,0.322-1.525,0.537-2.357,0.635c0.85-0.498,1.5-1.289,1.806-2.231   c-0.792,0.461-1.67,0.797-2.605,0.978C22.083,8.491,21.017,8,19.838,8c-2.266,0-4.1,1.807-4.1,4.038   c0,0.314,0.036,0.625,0.104,0.922c-3.407-0.172-6.429-1.779-8.452-4.221c-0.352,0.597-0.556,1.29-0.556,2.032   c0,1.399,0.726,2.635,1.824,3.36c-0.671-0.022-1.304-0.203-1.856-0.506c-0.001,0.017-0.001,0.034-0.001,0.052   c0,1.955,1.414,3.589,3.29,3.96c-0.343,0.09-0.705,0.142-1.081,0.142c-0.264,0-0.52-0.024-0.77-0.072   c0.52,1.604,2.034,2.771,3.828,2.805C10.67,21.594,8.9,22.24,6.979,22.24c-0.33,0-0.658-0.018-0.979-0.056   c1.814,1.145,3.971,1.813,6.287,1.813c7.541,0,11.666-6.154,11.666-11.491c0-0.173-0.005-0.35-0.012-0.521   C24.741,11.414,25.438,10.703,25.987,9.894z" fill="#FFFFFF"/></g></symbol><symbol viewBox="0 0 612 792" id="x"><title>x</title> <path d="M612,137.2L564.8,90l-257,258.8L47.2,90L0,137.2L258.8,396L0,654.8L47.2,702L306,445l258.8,257l47.2-47.2l-257-257"/> </symbol></svg>