<?xml version="1.0" encoding="utf-8"?>
<!-- Generator: Adobe Illustrator 17.1.0, SVG Export Plug-In . SVG Version: 6.00 Build 0)  -->
<!DOCTYPE svg PUBLIC "-//W3C//DTD SVG 1.1//EN" "http://www.w3.org/Graphics/SVG/1.1/DTD/svg11.dtd">
<svg version="1.1" id="Layer_1" xmlns="http://www.w3.org/2000/svg" xmlns:xlink="http://www.w3.org/1999/xlink" x="0px" y="0px"
	 width="205px" height="154px" viewBox="0 0 205 154" enable-background="new 0 0 205 154" xml:space="preserve">
<rect fill="#333333" width="205" height="154"/>
<g>
	<path fill="#FFFFFF" d="M92.1,109.9c2.4,3.7,4.7,6.5,6.9,8.4c2.2,1.9,4.8,2.8,7.8,2.8h0.4v5.9h-2c-4.4,0-8-0.2-10.8-0.5
		c-2.8-0.3-5.2-0.9-7.1-1.8c-2-0.9-3.6-2.2-5-3.8c-1.4-1.6-2.9-3.8-4.5-6.4L58.9,82.9H47.3v28.8c0,2.1,0.3,3.7,0.9,5
		c0.6,1.3,1.4,2.2,2.5,2.8c1,0.6,2.3,1.1,3.7,1.3c1.4,0.2,2.9,0.3,4.4,0.3h1.8v5.9H19.8v-5.9h1.8c1.5,0,3-0.1,4.4-0.3
		c1.4-0.2,2.6-0.6,3.7-1.3c1-0.6,1.9-1.6,2.5-2.8c0.6-1.3,0.9-2.9,0.9-5V42.4c0-2.1-0.3-3.7-0.9-5c-0.6-1.3-1.4-2.2-2.5-2.9
		c-1-0.7-2.3-1.1-3.7-1.3c-1.4-0.2-2.9-0.3-4.4-0.3h-1.8v-5.9h37.7c12.1,0,21.1,2.2,27.1,6.7c5.9,4.5,8.9,11.2,8.9,20.3
		c0,3.7-0.6,7-1.8,9.8c-1.2,2.8-2.8,5.2-4.8,7.3c-2,2.1-4.2,3.8-6.6,5.1s-4.9,2.5-7.4,3.3L92.1,109.9z M47.3,76.4h9.8
		c4.1,0,7.5-0.5,10.3-1.4c2.7-0.9,4.9-2.3,6.6-4.1c1.6-1.8,2.8-4.1,3.5-6.8c0.7-2.7,1.1-5.9,1.1-9.6c0-3.7-0.4-6.9-1.2-9.5
		c-0.8-2.6-2-4.8-3.8-6.4c-1.7-1.7-4-2.9-6.7-3.6c-2.8-0.8-6.1-1.1-10.1-1.1h-9.5V76.4z"/>
	<path fill="#77C4D3" d="M150.7,128.4c-4.6,0-8.6-0.5-12.1-1.4s-6.4-2.3-8.8-4c-2.3-1.7-4.1-3.8-5.3-6.2c-1.2-2.4-1.8-5.1-1.8-8
		c0-2.8,0.9-5.1,2.6-6.8c1.8-1.7,4.2-2.6,7.5-2.6c0.1,2.9,0.6,5.7,1.3,8.4c0.8,2.7,1.9,5.1,3.4,7.1s3.4,3.7,5.7,4.9s5.1,1.8,8.4,1.8
		c6.3,0,11.2-1.5,14.7-4.5c3.5-3,5.3-7.4,5.3-13.1c0-2.6-0.4-4.8-1.1-6.8c-0.7-2-1.9-3.8-3.6-5.4c-1.7-1.7-3.9-3.3-6.7-4.8
		c-2.8-1.5-6.2-3.1-10.3-4.8c-4.3-1.8-8.1-3.7-11.3-5.7c-3.2-2-5.9-4.3-8.1-6.8c-2.1-2.5-3.7-5.3-4.8-8.3c-1-3.1-1.6-6.5-1.6-10.3
		c0-4,0.8-7.6,2.3-10.7c1.5-3.1,3.7-5.8,6.4-8c2.7-2.2,6-3.8,9.7-5c3.7-1.1,7.8-1.7,12.2-1.7c4.2,0,7.9,0.4,11.1,1.3
		c3.2,0.9,6,2,8.2,3.5c2.2,1.5,3.9,3.1,5.1,5c1.2,1.9,1.7,3.9,1.7,5.9c0,3-1,5.3-3,6.8c-2,1.5-4.7,2.3-8,2.3c0-2.2-0.3-4.3-0.8-6.5
		c-0.5-2.1-1.4-4-2.6-5.7c-1.2-1.7-2.8-3-4.9-4.1c-2-1-4.5-1.6-7.5-1.6c-2.7,0-5.1,0.4-7.2,1.1s-3.9,1.8-5.4,3.2
		c-1.5,1.4-2.6,3.1-3.3,5c-0.8,2-1.2,4.1-1.2,6.6c0,2.8,0.4,5.2,1.1,7.3c0.7,2.1,1.9,4,3.7,5.7s4,3.3,6.7,4.9
		c2.8,1.5,6.2,3.1,10.3,4.8c4.1,1.7,7.8,3.5,11,5.3c3.2,1.9,5.9,4,8.2,6.3c2.2,2.3,3.9,4.9,5.1,7.7c1.2,2.8,1.8,6.1,1.8,9.7
		c0,4.4-0.8,8.4-2.4,11.9c-1.6,3.5-3.9,6.4-6.9,8.9c-3,2.4-6.6,4.2-10.9,5.5S155.9,128.4,150.7,128.4z"/>
</g>
</svg>
